<svg xmlns="http://www.w3.org/2000/svg" width="1713" height="710" viewBox="0 0 1713 710">
  <path fill="#000000" fill-rule="evenodd" d="M215.198531,209.4 C215.022531,183.704 191.438531,166.808 167.150531,169.624 C164.334531,169.976 160.990531,172.088 161.518531,175.256 C163.278531,189.688 162.750531,204.296 161.518531,218.728 C160.814531,225.416 160.638531,232.28 160.462531,238.968 C155.006531,239.848 155.006531,248.296 160.462531,249.88 C160.462531,262.376 160.814531,274.872 160.110531,287.192 C159.758531,294.408 171.198531,294.408 171.374531,287.192 C172.078531,274.872 172.078531,262.552 172.078531,250.232 C195.134531,248.648 215.374531,235.8 215.198531,209.4 L215.198531,209.4 Z M172.254531,238.792 C172.254531,232.104 172.430531,225.416 172.782531,218.728 C173.310531,206.056 174.366531,193.384 173.310531,180.712 C189.678531,181.24 202.526531,191.8 203.934531,209.4 C205.518531,229.288 188.798531,237.384 172.254531,238.792 L172.254531,238.792 Z M283.662531,234.744 C281.726531,220.84 267.118531,188.104 253.390531,210.808 C219.774531,218.728 211.854531,305.144 259.198531,293.528 C281.022531,288.248 286.302531,253.224 283.662531,234.744 L283.662531,234.744 Z M273.278531,243.544 C272.926531,257.976 269.758531,282.264 251.630531,284.024 C225.758531,286.664 237.022531,221.192 258.142531,221.016 C261.486531,221.016 263.246531,218.376 263.422531,215.736 C266.942531,213.272 270.286531,225.592 271.166531,228.76 C272.750531,233.864 273.454531,238.264 273.278531,243.544 L273.278531,243.544 Z M350.190531,209.576 C349.310531,194.616 330.126531,189.688 318.510531,195.496 C316.046531,196.552 314.110531,198.312 312.526531,200.424 C313.230531,188.808 313.758531,177.016 313.758531,165.224 C313.758531,159.944 304.430531,159.944 304.430531,165.224 C304.254531,189.336 302.318531,213.096 299.678531,236.856 C296.334531,254.28 295.102531,272.056 293.166531,289.656 C292.638531,295.112 301.966531,294.936 302.494531,289.656 C304.782531,272.408 307.070531,255.336 309.006531,238.088 C310.062531,231.576 311.646531,225.24 313.582531,218.904 C314.814531,214.504 316.750531,210.28 319.038531,206.408 C325.022531,196.728 340.334531,201.48 341.038531,212.568 C341.918531,229.464 320.094531,233.16 311.470531,243.896 C309.710531,246.184 309.886531,248.824 312.350531,250.584 C322.030531,257.272 325.726531,279.272 326.254531,290.36 C326.430531,295.816 335.934531,295.816 335.582531,290.36 C335.054531,277.336 331.358531,257.096 321.326531,246.536 C333.646531,234.392 351.422531,231.752 350.190531,209.576 L350.190531,209.576 Z M411.438531,278.744 C392.606531,289.128 372.366531,280.152 367.966531,259.384 C384.510531,255.688 404.574531,244.248 410.734531,228.408 C418.654531,207.992 391.374531,201.128 376.942531,208.52 C361.102531,216.616 355.118531,244.952 358.110531,261.672 C363.742531,292.12 392.254531,299.512 416.718531,287.192 C423.054531,284.024 417.422531,275.4 411.438531,278.744 L411.438531,278.744 Z M375.710531,224.008 C379.582531,217.496 387.150531,213.096 394.542531,214.856 C404.926531,217.496 403.166531,224.536 397.182531,231.4 C390.142531,239.32 377.998531,247.416 367.438531,250.056 C368.142531,241.08 371.486531,231.4 375.710531,224.008 L375.710531,224.008 Z M505.598531,215.032 L505.598531,213.448 C505.950531,208.168 499.086531,206.76 496.270531,210.28 C495.390531,210.984 494.686531,211.864 494.510531,212.92 C494.158531,213.976 493.982531,218.552 494.158531,219.608 L494.158531,220.664 C489.934531,243.544 472.686531,291.944 450.510531,280.152 C429.742531,269.24 445.758531,229.112 454.030531,213.976 C457.198531,207.816 448.222531,202.536 444.878531,208.52 C433.614531,229.464 416.718531,280.68 449.454531,291.416 C463.710531,296.168 475.678531,287.896 484.654531,274.696 C482.190531,287.192 479.022531,299.512 475.502531,311.832 C470.750531,327.672 465.470531,336.472 457.198531,350.728 C453.678531,356.712 449.454531,362.168 444.526531,366.92 C433.262531,377.832 405.102531,377.832 408.974531,355.128 C410.030531,348.44 399.998531,345.624 398.766531,352.312 C394.718531,376.424 416.894531,390.152 438.894531,382.76 C457.902531,376.424 468.990531,353.016 476.206531,336.12 C486.942531,312.008 493.278531,292.472 497.854531,266.424 C499.262531,258.504 508.766531,228.056 505.598531,215.032 L505.598531,215.032 Z M625.102531,219.608 C624.926531,213.272 615.246531,213.272 615.422531,219.608 C615.598531,242.664 602.926531,264.312 605.742531,287.896 C606.094531,291.592 609.438531,293.88 612.958531,292.12 C615.598531,290.712 616.302531,289.832 617.886531,287.368 C619.822531,284.2 617.710531,281.208 615.070531,280.328 C615.246531,259.736 625.278531,240.2 625.102531,219.608 L625.102531,219.608 Z M633.198531,174.376 C633.198531,174.376 633.198531,174.2 633.022531,174.2 C633.198531,172.792 632.670531,171.208 631.614531,170.152 C629.854531,168.392 626.686531,168.392 624.926531,170.152 C623.694531,171.384 622.814531,172.264 621.758531,173.496 C620.526531,175.08 620.350531,177.368 620.174531,179.304 C620.174531,182.296 623.342531,184.936 626.334531,183.88 C627.390531,183.528 628.622531,183.176 629.502531,182.472 C630.030531,182.12 630.382531,181.768 630.910531,181.416 C631.086531,181.24 631.262531,181.064 631.438531,181.064 C633.902531,179.832 634.606531,176.664 633.198531,174.376 L633.198531,174.376 Z M699.374531,220.312 C695.150531,196.2 655.550531,202.888 647.630531,220.664 C641.470531,234.744 653.614531,247.592 663.118531,256.04 C670.862531,262.904 682.302531,276.632 666.638531,282.088 C658.190531,285.08 643.758531,280.152 643.054531,270.12 C642.702531,263.256 631.966531,263.08 632.318531,270.12 C633.198531,285.432 647.806531,293.176 661.710531,293.528 C677.022531,293.88 691.630531,278.216 683.534531,263.256 C678.078531,253.048 647.982531,235.624 659.246531,222.424 C665.054531,215.384 686.878531,210.632 688.990531,223.128 C690.222531,229.992 700.606531,227 699.374531,220.312 L699.374531,220.312 Z M854.254531,277.864 C844.750531,257.8 848.798531,231.4 848.798531,209.928 C848.974531,203.768 841.054531,202.888 838.590531,207.112 C823.102531,197.96 810.254531,218.376 804.622531,231.752 C797.406531,249.176 790.894531,273.112 804.622531,288.952 C817.822531,304.088 829.790531,282.44 837.886531,257.8 C838.942531,266.776 840.878531,275.4 844.750531,283.496 C847.742531,289.832 857.246531,284.376 854.254531,277.864 L854.254531,277.864 Z M813.070531,281.56 C809.726531,284.2 806.382531,273.288 806.030531,271 C805.150531,263.96 806.910531,256.568 808.494531,249.704 C810.078531,243.192 825.566531,206.408 836.830531,216.616 C837.534531,217.32 837.534531,218.904 838.414531,219.08 C837.358531,227.528 836.126531,236.152 833.838531,244.248 C831.022531,255.512 826.094531,274.168 816.238531,281.56 L813.070531,281.56 Z M1005.43853,285.784 C998.750531,271.88 1014.06253,222.424 982.558531,227.704 C976.926531,228.76 972.526531,231.048 969.006531,234.568 C970.238531,226.648 971.646531,218.728 973.230531,210.808 C975.166531,200.776 977.102531,190.568 978.334531,180.536 C979.038531,175.608 981.502531,166.984 978.334531,162.408 C975.166531,157.832 965.310531,162.056 968.478531,166.632 C971.118531,170.328 966.894531,183.704 966.190531,187.752 C964.606531,197.432 962.846531,207.112 960.910531,216.792 C955.982531,241.256 952.814531,265.544 949.998531,290.36 C949.470531,294.936 960.206531,295.992 960.910531,291.416 C961.790531,286.664 962.142531,280.856 962.846531,274.872 C963.198531,273.64 963.374531,272.232 963.550531,270.824 C965.310531,257.448 968.830531,245.48 979.566531,238.968 C996.110531,228.584 992.766531,256.392 992.766531,264.136 C992.766531,272.76 992.238531,282.088 996.110531,290.008 C998.398531,294.936 1007.72653,290.712 1005.43853,285.784 L1005.43853,285.784 Z M1071.43853,277.864 C1061.93453,257.8 1065.98253,231.4 1065.98253,209.928 C1066.15853,203.768 1058.23853,202.888 1055.77453,207.112 C1040.28653,197.96 1027.43853,218.376 1021.80653,231.752 C1014.59053,249.176 1008.07853,273.112 1021.80653,288.952 C1035.00653,304.088 1046.97453,282.44 1055.07053,257.8 C1056.12653,266.776 1058.06253,275.4 1061.93453,283.496 C1064.92653,289.832 1074.43053,284.376 1071.43853,277.864 L1071.43853,277.864 Z M1030.25453,281.56 C1026.91053,284.2 1023.56653,273.288 1023.21453,271 C1022.33453,263.96 1024.09453,256.568 1025.67853,249.704 C1027.26253,243.192 1042.75053,206.408 1054.01453,216.616 C1054.71853,217.32 1054.71853,218.904 1055.59853,219.08 C1054.54253,227.528 1053.31053,236.152 1051.02253,244.248 C1048.20653,255.512 1043.27853,274.168 1033.42253,281.56 L1030.25453,281.56 Z M1144.12653,280.504 C1137.26253,290.008 1138.67053,272.056 1138.49453,267.48 C1138.14253,259.032 1137.96653,250.408 1136.91053,241.96 C1134.79853,226.648 1129.51853,210.984 1113.15053,206.232 C1105.05453,203.944 1099.24653,206.056 1094.84653,210.984 C1093.79053,208.344 1092.55853,206.056 1090.97453,203.768 C1086.92653,198.136 1077.77453,203.416 1081.64653,209.048 C1085.51853,214.68 1086.75053,221.896 1086.92653,229.288 C1082.35053,249 1083.58253,275.224 1083.58253,285.08 C1083.58253,291.944 1094.31853,291.944 1094.31853,285.08 C1094.67053,269.24 1099.59853,247.944 1098.54253,229.288 C1100.47853,221.016 1103.82253,213.272 1113.85453,217.848 C1122.65453,221.544 1124.76653,233.688 1126.17453,241.784 C1128.46253,256.216 1126.70253,271 1129.34253,285.256 C1132.15853,300.04 1147.47053,294.056 1153.45453,285.96 C1157.67853,280.328 1148.35053,275.048 1144.12653,280.504 L1144.12653,280.504 Z M1220.33453,223.304 C1220.15853,223.304 1219.80653,223.128 1219.63053,222.952 C1219.80653,222.072 1219.98253,221.192 1219.98253,220.312 C1220.33453,205.704 1220.33453,210.104 1219.80653,195.848 C1219.45453,189.864 1218.04653,182.12 1217.69453,174.728 C1220.68653,174.728 1223.67853,171.56 1221.91853,168.216 C1220.51053,165.4 1216.28653,163.112 1213.82253,161.352 C1211.53453,159.768 1208.19053,161.528 1207.48653,163.992 C1206.07853,168.92 1207.83853,175.608 1208.36653,180.536 C1208.89453,189.336 1209.07053,198.136 1209.42253,206.76 C1209.59853,212.216 1209.95053,213.8 1209.07053,218.904 C1189.88653,211.688 1170.87853,222.952 1163.48653,244.072 C1156.62253,263.96 1167.71053,300.392 1190.06253,293.528 C1195.51853,291.768 1201.67853,288.424 1205.02253,284.024 C1205.19853,285.608 1205.37453,287.368 1205.55053,288.952 C1206.60653,294.408 1217.34253,292.12 1216.46253,286.664 C1215.40653,279.624 1215.58253,272.584 1215.75853,265.368 C1217.16653,260.616 1218.04653,237.032 1218.75053,232.28 C1221.91853,231.752 1224.03053,225.768 1220.33453,223.304 L1220.33453,223.304 Z M1187.59853,285.08 C1180.03053,288.248 1172.63853,268.008 1172.28653,259.032 C1171.93453,249.88 1174.04653,241.256 1179.85453,234.568 C1187.42253,225.768 1199.03853,224.36 1208.01453,228.584 C1206.95853,241.96 1207.83853,253.928 1203.79053,266.072 C1201.50253,273.464 1195.34253,281.912 1187.59853,285.08 L1187.59853,285.08 Z M1346.17453,276.984 C1330.68653,293.704 1333.67853,264.84 1334.91053,256.744 C1336.14253,248.648 1337.55053,240.376 1337.90253,232.104 C1338.43053,222.952 1335.26253,207.816 1323.82253,206.936 C1305.69453,205.528 1294.78253,216.968 1287.74253,231.928 C1286.86253,220.664 1283.34253,210.984 1274.71853,206.76 C1265.74253,202.36 1256.06253,207.464 1249.02253,213.976 C1247.26253,209.4 1238.81453,209.928 1238.81453,216.088 C1238.81453,220.312 1238.28653,224.712 1237.93453,229.112 L1237.93453,230.168 C1230.71853,247.592 1231.42253,270.296 1230.89453,287.72 C1230.71853,294.408 1241.27853,294.408 1241.45453,287.72 C1241.98253,271.704 1242.51053,255.864 1246.38253,240.2 C1248.49453,230.696 1268.03053,202.008 1274.54253,223.304 C1280.52653,242.84 1273.31053,265.896 1272.95853,285.96 C1272.78253,291.944 1281.93453,293.176 1283.16653,287.368 C1287.56653,269.416 1288.62253,250.936 1298.30253,234.568 C1304.63853,224.008 1326.99053,206.408 1327.51853,232.104 C1327.69453,241.432 1325.05453,250.936 1323.82253,260.088 C1322.76653,269.416 1320.30253,286.488 1329.10253,293.176 C1338.43053,300.216 1347.40653,291.064 1353.56653,284.376 C1358.14253,279.448 1350.75053,272.056 1346.17453,276.984 L1346.17453,276.984 Z M1421.85453,277.864 C1412.35053,257.8 1416.39853,231.4 1416.39853,209.928 C1416.57453,203.768 1408.65453,202.888 1406.19053,207.112 C1390.70253,197.96 1377.85453,218.376 1372.22253,231.752 C1365.00653,249.176 1358.49453,273.112 1372.22253,288.952 C1385.42253,304.088 1397.39053,282.44 1405.48653,257.8 C1406.54253,266.776 1408.47853,275.4 1412.35053,283.496 C1415.34253,289.832 1424.84653,284.376 1421.85453,277.864 L1421.85453,277.864 Z M1380.67053,281.56 C1377.32653,284.2 1373.98253,273.288 1373.63053,271 C1372.75053,263.96 1374.51053,256.568 1376.09453,249.704 C1377.67853,243.192 1393.16653,206.408 1404.43053,216.616 C1405.13453,217.32 1405.13453,218.904 1406.01453,219.08 C1404.95853,227.528 1403.72653,236.152 1401.43853,244.248 C1398.62253,255.512 1393.69453,274.168 1383.83853,281.56 L1380.67053,281.56 Z M1485.91853,223.304 C1485.74253,223.304 1485.39053,223.128 1485.21453,222.952 C1485.39053,222.072 1485.56653,221.192 1485.56653,220.312 C1485.91853,205.704 1485.91853,210.104 1485.39053,195.848 C1485.03853,189.864 1483.63053,182.12 1483.27853,174.728 C1486.27053,174.728 1489.26253,171.56 1487.50253,168.216 C1486.09453,165.4 1481.87053,163.112 1479.40653,161.352 C1477.11853,159.768 1473.77453,161.528 1473.07053,163.992 C1471.66253,168.92 1473.42253,175.608 1473.95053,180.536 C1474.47853,189.336 1474.65453,198.136 1475.00653,206.76 C1475.18253,212.216 1475.53453,213.8 1474.65453,218.904 C1455.47053,211.688 1436.46253,222.952 1429.07053,244.072 C1422.20653,263.96 1433.29453,300.392 1455.64653,293.528 C1461.10253,291.768 1467.26253,288.424 1470.60653,284.024 C1470.78253,285.608 1470.95853,287.368 1471.13453,288.952 C1472.19053,294.408 1482.92653,292.12 1482.04653,286.664 C1480.99053,279.624 1481.16653,272.584 1481.34253,265.368 C1482.75053,260.616 1483.63053,237.032 1484.33453,232.28 C1487.50253,231.752 1489.61453,225.768 1485.91853,223.304 L1485.91853,223.304 Z M1453.18253,285.08 C1445.61453,288.248 1438.22253,268.008 1437.87053,259.032 C1437.51853,249.88 1439.63053,241.256 1445.43853,234.568 C1453.00653,225.768 1464.62253,224.36 1473.59853,228.584 C1472.54253,241.96 1473.42253,253.928 1469.37453,266.072 C1467.08653,273.464 1460.92653,281.912 1453.18253,285.08 L1453.18253,285.08 Z M1549.63053,278.744 C1530.79853,289.128 1510.55853,280.152 1506.15853,259.384 C1522.70253,255.688 1542.76653,244.248 1548.92653,228.408 C1556.84653,207.992 1529.56653,201.128 1515.13453,208.52 C1499.29453,216.616 1493.31053,244.952 1496.30253,261.672 C1501.93453,292.12 1530.44653,299.512 1554.91053,287.192 C1561.24653,284.024 1555.61453,275.4 1549.63053,278.744 L1549.63053,278.744 Z M1513.90253,224.008 C1517.77453,217.496 1525.34253,213.096 1532.73453,214.856 C1543.11853,217.496 1541.35853,224.536 1535.37453,231.4 C1528.33453,239.32 1516.19053,247.416 1505.63053,250.056 C1506.33453,241.08 1509.67853,231.4 1513.90253,224.008 L1513.90253,224.008 Z M306.542531,420.032 C301.086531,420.032 295.630531,421.44 290.174531,421.264 C291.406531,411.936 292.286531,402.432 292.990531,393.104 C293.518531,386.064 295.454531,376.56 292.638531,369.872 C290.702531,365.12 281.022531,369.344 283.134531,373.92 C285.070531,378.496 281.902531,399.44 278.910531,423.024 C278.734531,423.904 278.558531,424.608 278.558531,425.312 C274.158531,459.984 270.110531,499.056 281.902531,498.704 C287.006531,498.528 289.646531,490.432 284.542531,490.608 C286.654531,490.608 284.894531,483.744 284.894531,480.048 C284.718531,473.712 285.070531,467.376 285.422531,461.04 C285.950531,452.064 287.358531,443.264 288.590531,434.464 C288.766531,432.704 289.118531,432.352 289.294531,430.416 C295.102531,430.768 300.558531,429.184 306.542531,429.008 C311.646531,429.008 311.646531,419.856 306.542531,420.032 L306.542531,420.032 Z M392.958531,420.032 L392.958531,418.448 C393.310531,413.168 386.446531,411.76 383.630531,415.28 C382.750531,415.984 382.046531,416.864 381.870531,417.92 C381.518531,418.976 381.342531,423.552 381.518531,424.608 L381.518531,425.664 C377.294531,448.544 360.046531,496.944 337.870531,485.152 C317.102531,474.24 333.118531,434.112 341.390531,418.976 C344.558531,412.816 335.582531,407.536 332.238531,413.52 C320.974531,434.464 304.078531,485.68 336.814531,496.416 C351.070531,501.168 363.038531,492.896 372.014531,479.696 C369.550531,492.192 366.382531,504.512 362.862531,516.832 C358.110531,532.672 352.830531,541.472 344.558531,555.728 C341.038531,561.712 336.814531,567.168 331.886531,571.92 C320.622531,582.832 292.462531,582.832 296.334531,560.128 C297.390531,553.44 287.358531,550.624 286.126531,557.312 C282.078531,581.424 304.254531,595.152 326.254531,587.76 C345.262531,581.424 356.350531,558.016 363.566531,541.12 C374.302531,517.008 380.638531,497.472 385.214531,471.424 C386.622531,463.504 396.126531,433.056 392.958531,420.032 L392.958531,420.032 Z M421.822531,411.232 C421.822531,410.88 421.822531,410.352 421.998531,410 C422.702531,402.96 411.438531,402.96 410.734531,410 C407.918531,437.28 407.566531,464.912 406.158531,492.192 C404.574531,521.76 404.574531,555.024 395.950531,583.36 C393.838531,590.224 404.574531,593.216 406.686531,586.352 C414.782531,560.128 415.486531,530.032 416.894531,502.4 C417.246531,502.576 417.774531,502.576 418.126531,502.576 C446.462531,502.4 469.694531,486.56 470.222531,456.64 C470.574531,430.944 447.518531,395.568 421.822531,411.232 L421.822531,411.232 Z M458.254531,465.792 C454.734531,484.624 435.022531,491.312 418.126531,491.312 C417.950531,491.312 417.598531,491.312 417.422531,491.488 C418.478531,469.312 419.006531,446.96 420.590531,424.96 C421.822531,424.784 422.878531,424.432 423.934531,423.376 C447.694531,402.08 461.246531,449.248 458.254531,465.792 L458.254531,465.792 Z M535.166531,483.744 C516.334531,494.128 496.094531,485.152 491.694531,464.384 C508.238531,460.688 528.302531,449.248 534.462531,433.408 C542.382531,412.992 515.102531,406.128 500.670531,413.52 C484.830531,421.616 478.846531,449.952 481.838531,466.672 C487.470531,497.12 515.982531,504.512 540.446531,492.192 C546.782531,489.024 541.150531,480.4 535.166531,483.744 L535.166531,483.744 Z M499.438531,429.008 C503.310531,422.496 510.878531,418.096 518.270531,419.856 C528.654531,422.496 526.894531,429.536 520.910531,436.4 C513.870531,444.32 501.726531,452.416 491.166531,455.056 C491.870531,446.08 495.214531,436.4 499.438531,429.008 L499.438531,429.008 Z M587.614531,367.232 C585.678531,365.824 579.870531,365.296 578.110531,367.232 C568.958531,377.088 568.078531,388.88 565.614531,401.024 C562.270531,418.448 560.158531,436.224 558.222531,453.824 C558.046531,454.88 558.046531,454.88 557.870531,455.936 C552.942531,456.816 552.766531,464.208 556.990531,465.616 C556.286531,474.416 555.582531,483.392 555.406531,492.544 C555.054531,502.752 556.990531,516.656 551.534531,526.16 C548.542531,531.264 558.926531,535.84 561.918531,530.736 C571.070531,515.072 567.198531,492.896 568.078531,476 C568.430531,472.304 568.606531,468.784 568.958531,465.264 C575.118531,464.56 581.102531,463.152 587.086531,461.92 C593.422531,460.512 590.782531,450.832 584.270531,452.24 C579.518531,453.296 574.766531,454.352 569.838531,455.056 C570.894531,446.608 571.950531,439.216 573.182531,430.944 C578.286531,394.16 577.230531,390.992 584.798531,377.264 C587.086531,380.08 587.966531,383.424 587.438531,387.648 C586.910531,393.28 597.118531,393.28 597.646531,387.648 C598.350531,379.024 594.830531,372.864 587.614531,367.232 L587.614531,367.232 Z M662.942531,482.864 C653.438531,462.8 657.486531,436.4 657.486531,414.928 C657.662531,408.768 649.742531,407.888 647.278531,412.112 C631.790531,402.96 618.942531,423.376 613.310531,436.752 C606.094531,454.176 599.582531,478.112 613.310531,493.952 C626.510531,509.088 638.478531,487.44 646.574531,462.8 C647.630531,471.776 649.566531,480.4 653.438531,488.496 C656.430531,494.832 665.934531,489.376 662.942531,482.864 L662.942531,482.864 Z M621.758531,486.56 C618.414531,489.2 615.070531,478.288 614.718531,476 C613.838531,468.96 615.598531,461.568 617.182531,454.704 C618.766531,448.192 634.254531,411.408 645.518531,421.616 C646.222531,422.32 646.222531,423.904 647.102531,424.08 C646.046531,432.528 644.814531,441.152 642.526531,449.248 C639.710531,460.512 634.782531,479.168 624.926531,486.56 L621.758531,486.56 Z M720.318531,420.56 C698.670531,391.52 676.318531,441.504 672.974531,455.76 C670.334531,467.552 668.750531,482.864 678.254531,492.544 C690.574531,505.216 712.750531,491.664 723.486531,484.448 C729.822531,480.224 723.662531,472.304 717.326531,476.528 C711.518531,480.576 693.038531,493.248 685.294531,486.384 C679.134531,481.104 681.774531,466.672 683.006531,460.16 C684.062531,454.88 698.846531,413.872 707.998531,426.192 C712.398531,432.176 724.718531,426.544 720.318531,420.56 L720.318531,420.56 Z M788.430531,483.744 C769.598531,494.128 749.358531,485.152 744.958531,464.384 C761.502531,460.688 781.566531,449.248 787.726531,433.408 C795.646531,412.992 768.366531,406.128 753.934531,413.52 C738.094531,421.616 732.110531,449.952 735.102531,466.672 C740.734531,497.12 769.246531,504.512 793.710531,492.192 C800.046531,489.024 794.414531,480.4 788.430531,483.744 L788.430531,483.744 Z M752.702531,429.008 C756.574531,422.496 764.142531,418.096 771.534531,419.856 C781.918531,422.496 780.158531,429.536 774.174531,436.4 C767.134531,444.32 754.990531,452.416 744.430531,455.056 C745.134531,446.08 748.478531,436.4 752.702531,429.008 L752.702531,429.008 Z M928.878531,367.232 C926.942531,365.824 921.134531,365.296 919.374531,367.232 C910.222531,377.088 909.342531,388.88 906.878531,401.024 C903.534531,418.448 901.422531,436.224 899.486531,453.824 C899.310531,454.88 899.310531,454.88 899.134531,455.936 C894.206531,456.816 894.030531,464.208 898.254531,465.616 C897.550531,474.416 896.846531,483.392 896.670531,492.544 C896.318531,502.752 898.254531,516.656 892.798531,526.16 C889.806531,531.264 900.190531,535.84 903.182531,530.736 C912.334531,515.072 908.462531,492.896 909.342531,476 C909.694531,472.304 909.870531,468.784 910.222531,465.264 C916.382531,464.56 922.366531,463.152 928.350531,461.92 C934.686531,460.512 932.046531,450.832 925.534531,452.24 C920.782531,453.296 916.030531,454.352 911.102531,455.056 C912.158531,446.608 913.214531,439.216 914.446531,430.944 C919.550531,394.16 918.494531,390.992 926.062531,377.264 C928.350531,380.08 929.230531,383.424 928.702531,387.648 C928.174531,393.28 938.382531,393.28 938.910531,387.648 C939.614531,379.024 936.094531,372.864 928.878531,367.232 L928.878531,367.232 Z M1006.49453,439.744 C1004.55853,425.84 989.950531,393.104 976.222531,415.808 C942.606531,423.728 934.686531,510.144 982.030531,498.528 C1003.85453,493.248 1009.13453,458.224 1006.49453,439.744 L1006.49453,439.744 Z M996.110531,448.544 C995.758531,462.976 992.590531,487.264 974.462531,489.024 C948.590531,491.664 959.854531,426.192 980.974531,426.016 C984.318531,426.016 986.078531,423.376 986.254531,420.736 C989.774531,418.272 993.118531,430.592 993.998531,433.76 C995.582531,438.864 996.286531,443.264 996.110531,448.544 L996.110531,448.544 Z M1082.35053,420.912 C1076.36653,402.432 1043.27853,407.008 1031.66253,417.04 C1030.95853,417.744 1030.43053,418.272 1029.72653,418.8 L1030.25453,416.16 C1032.01453,409.648 1021.98253,406.832 1020.22253,413.344 C1018.28653,421.088 1018.99053,429.888 1019.51853,438.336 C1015.47053,456.288 1019.69453,477.76 1020.04653,494.128 C1020.22253,500.816 1030.60653,500.816 1030.60653,494.128 L1030.60653,452.416 C1030.60653,448.896 1030.25453,445.2 1029.90253,441.328 C1031.31053,434.112 1034.47853,427.424 1040.99053,423.376 C1045.39053,420.736 1069.50253,415.104 1072.14253,423.552 C1074.25453,430.064 1084.28653,427.248 1082.35053,420.912 L1082.35053,420.912 Z M1233.35853,414.576 C1232.47853,399.616 1213.29453,394.688 1201.67853,400.496 C1199.21453,401.552 1197.27853,403.312 1195.69453,405.424 C1196.39853,393.808 1196.92653,382.016 1196.92653,370.224 C1196.92653,364.944 1187.59853,364.944 1187.59853,370.224 C1187.42253,394.336 1185.48653,418.096 1182.84653,441.856 C1179.50253,459.28 1178.27053,477.056 1176.33453,494.656 C1175.80653,500.112 1185.13453,499.936 1185.66253,494.656 C1187.95053,477.408 1190.23853,460.336 1192.17453,443.088 C1193.23053,436.576 1194.81453,430.24 1196.75053,423.904 C1197.98253,419.504 1199.91853,415.28 1202.20653,411.408 C1208.19053,401.728 1223.50253,406.48 1224.20653,417.568 C1225.08653,434.464 1203.26253,438.16 1194.63853,448.896 C1192.87853,451.184 1193.05453,453.824 1195.51853,455.584 C1205.19853,462.272 1208.89453,484.272 1209.42253,495.36 C1209.59853,500.816 1219.10253,500.816 1218.75053,495.36 C1218.22253,482.336 1214.52653,462.096 1204.49453,451.536 C1216.81453,439.392 1234.59053,436.752 1233.35853,414.576 L1233.35853,414.576 Z M1260.81453,424.608 C1260.63853,418.272 1250.95853,418.272 1251.13453,424.608 C1251.31053,447.664 1238.63853,469.312 1241.45453,492.896 C1241.80653,496.592 1245.15053,498.88 1248.67053,497.12 C1251.31053,495.712 1252.01453,494.832 1253.59853,492.368 C1255.53453,489.2 1253.42253,486.208 1250.78253,485.328 C1250.95853,464.736 1260.99053,445.2 1260.81453,424.608 L1260.81453,424.608 Z M1268.91053,379.376 C1268.91053,379.376 1268.91053,379.2 1268.73453,379.2 C1268.91053,377.792 1268.38253,376.208 1267.32653,375.152 C1265.56653,373.392 1262.39853,373.392 1260.63853,375.152 C1259.40653,376.384 1258.52653,377.264 1257.47053,378.496 C1256.23853,380.08 1256.06253,382.368 1255.88653,384.304 C1255.88653,387.296 1259.05453,389.936 1262.04653,388.88 C1263.10253,388.528 1264.33453,388.176 1265.21453,387.472 C1265.74253,387.12 1266.09453,386.768 1266.62253,386.416 C1266.79853,386.24 1266.97453,386.064 1267.15053,386.064 C1269.61453,384.832 1270.31853,381.664 1268.91053,379.376 L1268.91053,379.376 Z M1324.52653,428.304 C1324.35053,428.304 1323.99853,428.128 1323.82253,427.952 C1323.99853,427.072 1324.17453,426.192 1324.17453,425.312 C1324.52653,410.704 1324.52653,415.104 1323.99853,400.848 C1323.64653,394.864 1322.23853,387.12 1321.88653,379.728 C1324.87853,379.728 1327.87053,376.56 1326.11053,373.216 C1324.70253,370.4 1320.47853,368.112 1318.01453,366.352 C1315.72653,364.768 1312.38253,366.528 1311.67853,368.992 C1310.27053,373.92 1312.03053,380.608 1312.55853,385.536 C1313.08653,394.336 1313.26253,403.136 1313.61453,411.76 C1313.79053,417.216 1314.14253,418.8 1313.26253,423.904 C1294.07853,416.688 1275.07053,427.952 1267.67853,449.072 C1260.81453,468.96 1271.90253,505.392 1294.25453,498.528 C1299.71053,496.768 1305.87053,493.424 1309.21453,489.024 C1309.39053,490.608 1309.56653,492.368 1309.74253,493.952 C1310.79853,499.408 1321.53453,497.12 1320.65453,491.664 C1319.59853,484.624 1319.77453,477.584 1319.95053,470.368 C1321.35853,465.616 1322.23853,442.032 1322.94253,437.28 C1326.11053,436.752 1328.22253,430.768 1324.52653,428.304 L1324.52653,428.304 Z M1291.79053,490.08 C1284.22253,493.248 1276.83053,473.008 1276.47853,464.032 C1276.12653,454.88 1278.23853,446.256 1284.04653,439.568 C1291.61453,430.768 1303.23053,429.36 1312.20653,433.584 C1311.15053,446.96 1312.03053,458.928 1307.98253,471.072 C1305.69453,478.464 1299.53453,486.912 1291.79053,490.08 L1291.79053,490.08 Z M1398.79853,425.312 C1394.57453,401.2 1354.97453,407.888 1347.05453,425.664 C1340.89453,439.744 1353.03853,452.592 1362.54253,461.04 C1370.28653,467.904 1381.72653,481.632 1366.06253,487.088 C1357.61453,490.08 1343.18253,485.152 1342.47853,475.12 C1342.12653,468.256 1331.39053,468.08 1331.74253,475.12 C1332.62253,490.432 1347.23053,498.176 1361.13453,498.528 C1376.44653,498.88 1391.05453,483.216 1382.95853,468.256 C1377.50253,458.048 1347.40653,440.624 1358.67053,427.424 C1364.47853,420.384 1386.30253,415.632 1388.41453,428.128 C1389.64653,434.992 1400.03053,432 1398.79853,425.312 L1398.79853,425.312 Z M1417.27853,451.536 C1417.45453,457.872 1427.31053,457.872 1427.31053,451.536 C1426.95853,427.776 1439.98253,405.6 1437.16653,381.312 C1436.63853,377.616 1433.29453,375.328 1429.77453,377.088 C1426.95853,378.496 1426.25453,379.376 1424.67053,382.016 C1422.55853,385.36 1424.84653,388.352 1427.66253,389.232 C1427.48653,410.352 1417.10253,430.24 1417.27853,451.536 L1417.27853,451.536 Z M1410.94253,489.904 C1411.11853,489.904 1411.11853,490.08 1411.11853,490.256 C1411.11853,491.664 1411.47053,493.072 1412.52653,494.128 C1414.46253,496.064 1417.63053,496.064 1419.56653,494.128 C1420.79853,493.072 1421.85453,492.016 1422.73453,490.784 C1423.96653,489.2 1424.31853,486.912 1424.31853,484.976 C1424.49453,481.808 1421.15053,478.992 1417.98253,480.224 C1416.92653,480.576 1415.87053,480.928 1414.81453,481.632 C1414.28653,481.984 1413.93453,482.336 1413.40653,482.688 C1413.23053,482.864 1413.05453,483.04 1412.70253,483.04 C1410.41453,484.448 1409.71053,487.616 1410.94253,489.904 L1410.94253,489.904 Z"/>
</svg>
