<svg xmlns="http://www.w3.org/2000/svg" width="1713" height="1068" viewBox="0 0 1713 1068">
  <path fill="#000000" fill-rule="evenodd" d="M321.812,300.184 C316.18,276.952 310.9,253.544 302.452,230.84 C297.524,217.64 290.308,188.6 276.756,180.68 C261.444,171.528 255.636,192.648 252.468,203.736 C248.42,217.464 246.66,231.896 243.492,245.8 L242.084,245.8 C234.868,245.624 234.34,256.184 240.676,257.768 C237.332,271.32 233.988,284.696 232.58,298.776 C231.7,306.52 243.844,306.344 244.548,298.776 C245.956,285.048 249.3,271.672 252.644,258.472 C268.132,259.352 283.62,261.64 298.932,259.704 C303.156,274.136 306.676,288.744 310.196,303.352 C311.076,306.52 314.596,308.632 317.588,307.576 C317.764,307.576 317.94,307.4 318.116,307.4 C325.508,305.112 321.812,301.768 321.812,300.184 L321.812,300.184 Z M255.636,246.68 C256.692,242.104 257.748,237.528 258.628,232.952 C260.388,224.152 261.972,215.528 264.084,206.904 C264.612,201.096 267.604,196.872 273.06,194.232 C275.348,197.576 277.108,201.448 278.868,204.968 C285.556,218.872 291.012,233.304 295.588,248.088 C282.388,249.496 269.012,247.736 255.636,246.68 L255.636,246.68 Z M371.796,245.096 C385.172,239.464 396.26,231.368 397.668,216.936 C399.604,194.584 365.812,183.32 346.276,179.448 C342.58,178.744 339.764,180.504 338.708,182.968 C336.596,183.672 335.364,185.256 335.716,187.896 C340.292,217.816 340.116,252.664 334.836,282.584 C331.14,303 356.836,304.232 374.26,303.176 C394.324,302.12 412.804,293.672 413.508,274.84 C414.212,255.656 391.508,249.496 371.796,245.096 L371.796,245.096 Z M352.26,239.992 C352.612,223.624 351.732,207.256 349.62,191.944 C360.18,194.584 369.86,198.28 377.956,204.968 C398.9,222.04 368.1,234.712 352.26,239.992 L352.26,239.992 Z M396.084,285.048 C388.516,293.144 345.22,298.424 348.388,281.352 C349.972,272.2 351.028,262.52 351.732,252.488 C368.628,256.712 416.676,262.696 396.084,285.048 L396.084,285.048 Z M493.236,192.12 C482.852,177.688 462.436,175.576 446.948,184.024 C430.58,193.176 428.82,215.704 427.06,231.016 C424.772,249.672 424.948,276.6 439.732,291.736 C457.684,310.216 480.212,306.168 495.7,287.688 C500.804,281.704 489.54,275.896 484.612,281.88 C466.836,302.824 447.652,287.688 441.844,268.856 C438.5,258.12 438.852,246.328 439.556,235.416 C440.084,225.56 442.02,215.88 444.836,206.552 C449.412,192.296 471.412,182.968 482.148,197.928 C486.548,204.264 497.636,198.456 493.236,192.12 L493.236,192.12 Z M575.252,245.976 C573.844,228.2 569.62,209.896 556.596,196.872 C546.212,186.664 530.02,183.848 516.82,179.272 C514.004,178.216 511.716,179.448 510.484,181.384 C509.78,182.264 509.252,183.496 509.252,184.904 C508.9,206.552 511.364,228.2 511.012,250.024 C510.66,266.216 509.956,282.408 509.252,298.6 C509.076,301.416 512.068,304.936 515.236,304.408 C530.9,302.472 552.02,301.592 564.164,289.8 C576.484,278.184 576.308,261.992 575.252,245.976 L575.252,245.976 Z M558.004,279.416 C550.436,288.568 533.892,290.504 521.396,291.912 C521.924,279.944 522.452,268.152 522.628,256.36 C523.332,235.24 521.22,214.296 521.044,193.352 C540.756,200.216 554.66,206.2 560.82,230.136 C564.34,243.864 568.036,267.096 558.004,279.416 L558.004,279.416 Z M644.244,290.856 C633.156,295.432 614.852,292.088 601.124,290.856 C601.828,277.656 602.356,264.456 602.708,251.256 C611.684,251.784 620.836,251.432 629.812,249.672 C637.732,248.088 634.388,237 626.468,238.584 C618.724,240.168 610.804,240.344 602.884,239.992 C603.236,224.152 603.236,208.312 603.06,192.296 C617.668,191.592 632.276,189.656 646.884,190.712 C655.156,191.416 655.156,179.8 646.884,179.272 C630.164,178.04 613.444,180.68 596.724,181.032 C593.204,181.032 590.212,183.496 590.388,186.664 C590.564,204.44 590.564,222.04 590.212,239.64 C585.46,241.752 584.228,248.792 590.036,250.024 C589.508,265.336 588.98,280.648 588.1,296.136 C587.924,299.48 591.092,301.944 594.436,301.944 C611.684,302.296 634.564,307.576 650.58,300.712 C657.972,297.544 651.636,287.688 644.244,290.856 L644.244,290.856 Z M724.148,178.744 C707.604,181.208 690.884,179.448 674.164,181.56 C671.7,181.912 669.412,184.904 669.588,187.192 C670.996,205.496 671.348,223.976 670.468,242.104 C668.004,244.392 667.828,248.44 669.94,250.728 C668.884,266.216 666.948,281.88 664.132,297.368 C662.9,304.584 675.044,307.752 676.452,300.36 C679.268,284.168 681.38,267.976 682.612,251.784 C691.412,251.08 700.212,250.552 709.012,250.376 C717.108,250.376 717.108,238.76 709.012,238.936 C700.388,238.936 691.764,239.464 683.14,240.168 C683.844,224.152 683.668,208.312 682.612,192.296 C697.572,190.888 712.532,192.12 727.492,189.832 C735.588,188.6 732.068,177.512 724.148,178.744 L724.148,178.744 Z M811.092,245.8 C799.124,249.32 786.804,248.088 774.484,248.088 C766.916,247.912 766.916,259.704 774.484,259.88 C781.7,259.88 788.916,260.232 795.956,259.88 C802.996,278.184 782.58,299.304 764.628,289.976 C753.892,284.52 752.484,266.568 751.78,256.36 C750.548,235.592 758.996,175.576 792.612,193.176 C799.3,196.52 805.284,186.488 798.42,182.968 C776.068,171.176 754.596,187.016 747.204,208.312 C739.636,230.488 737.172,256.184 743.684,278.888 C749.316,299.304 767.444,308.104 787.508,302.648 C803.348,298.424 810.74,274.84 807.572,258.648 C809.86,258.296 811.972,257.768 814.26,257.24 C821.476,254.952 818.308,243.688 811.092,245.8 L811.092,245.8 Z M894.164,242.28 C893.988,223.096 894.164,203.736 895.748,184.552 C896.276,177.336 883.428,177.336 882.9,184.552 C881.492,203.032 881.14,221.512 881.14,240.168 C867.588,238.936 853.684,239.64 840.132,241.224 C839.78,222.392 839.78,203.56 839.78,184.552 C839.78,177.336 826.932,177.336 826.932,184.552 C826.756,208.488 827.284,232.424 827.284,256.536 C827.284,269.208 822.708,289.096 829.924,300.888 C833.796,307.224 844.884,301.592 841.012,295.08 C835.204,285.4 839.78,264.632 840.132,252.488 C853.508,250.904 867.764,250.2 881.316,251.432 C881.316,267.272 881.492,283.112 881.14,299.128 C880.964,306.344 893.812,306.344 893.988,299.128 C894.34,282.936 894.164,266.568 894.164,250.376 C896.452,248.088 896.804,244.216 894.164,242.28 L894.164,242.28 Z M910.356,195.992 C915.636,217.112 913.348,239.288 912.116,260.76 C911.588,270.616 912.468,281 910.884,290.504 C910.356,293.672 909.652,297.192 910.884,300.184 C911.94,303.176 915.636,305.64 918.804,303.352 C919.332,303 919.684,302.824 920.036,302.472 C923.38,300.184 923.028,296.136 920.916,293.848 C921.092,289.448 922.324,282.584 922.324,280.648 C922.324,269.912 923.204,259.176 923.556,248.44 C924.436,229.784 925.492,211.48 920.74,193.176 C919.156,186.488 908.596,189.304 910.356,195.992 L910.356,195.992 Z M922.5,172.056 C925.14,170.648 925.844,167.128 924.436,164.664 C924.084,163.96 923.38,163.256 922.852,162.904 L922.852,162.552 C922.852,159.736 920.388,157.096 917.396,157.096 C914.404,157.272 911.588,157.976 909.476,160.088 C907.364,162.2 906.66,165.192 907.54,168.008 C908.244,170.824 910.708,172.76 913.348,173.64 C916.516,174.52 919.684,173.464 922.5,172.056 L922.5,172.056 Z M995.364,181.56 C976.356,181.032 958.756,174.344 940.452,182.264 C933.588,185.256 939.396,194.936 946.084,192.12 C952.244,189.48 958.58,188.952 965.092,189.304 C965.796,207.96 967.38,226.616 968.26,245.272 C968.612,254.424 968.436,263.752 967.908,272.904 C967.028,289.8 947.316,298.6 948.9,278.712 C949.604,271.496 938.164,271.496 937.636,278.712 C936.052,296.664 952.42,312.328 969.14,298.072 C980.756,288.216 979.524,273.432 979.7,259.176 C980.228,236.296 977.588,213.416 976.532,190.536 C982.868,191.592 989.204,192.648 995.364,192.824 C1002.756,193 1002.756,181.736 995.364,181.56 L995.364,181.56 Z M1080.372,293.848 C1072.98,285.752 1064.18,278.184 1056.084,270.44 C1050.628,265.16 1045.172,259.88 1040.068,254.248 C1038.836,252.84 1035.844,249.672 1033.556,246.856 C1047.108,235.592 1062.42,225.736 1077.556,215.88 C1084.948,211.128 1074.388,203.032 1066.996,207.784 C1053.268,216.76 1039.54,225.56 1027.044,235.416 C1027.044,235.064 1027.044,234.712 1026.868,234.36 C1025.812,218.696 1023.7,200.744 1029.684,185.608 C1032.5,178.392 1018.068,175.4 1015.252,182.44 C1009.796,196.168 1011.028,211.656 1011.556,225.912 C1012.26,249.672 1012.788,273.08 1010.148,296.84 C1010.148,297.016 1009.972,297.368 1009.972,297.72 C1009.444,305.112 1024.052,304.936 1024.932,297.72 C1025.108,297.368 1025.108,297.192 1025.284,297.016 C1026.164,295.432 1026.164,293.848 1025.636,292.44 C1026.692,282.056 1027.396,271.496 1027.572,260.936 C1030.036,263.4 1032.324,265.688 1034.436,267.624 C1044.996,278.536 1057.316,288.568 1067.524,299.656 C1072.98,305.64 1086.004,299.832 1080.372,293.848 L1080.372,293.848 Z M1150.948,290.504 C1135.636,294.728 1117.86,291.032 1101.844,290.328 C1101.492,269.208 1104.66,248.088 1105.364,226.792 C1105.892,213.944 1103.604,200.568 1104.132,187.72 C1104.836,186.312 1104.836,184.728 1103.956,182.968 C1103.78,182.616 1103.604,182.264 1103.428,181.912 C1100.788,176.456 1093.22,179.8 1092.692,184.904 C1091.636,198.456 1094.276,213.064 1093.924,226.792 C1093.396,250.024 1089.348,272.904 1090.404,295.96 C1090.58,298.952 1092.868,301.768 1096.212,301.592 C1114.868,301.24 1135.636,306.344 1153.94,301.416 C1161.156,299.48 1157.988,288.568 1150.948,290.504 L1150.948,290.504 Z M1253.556,294.552 C1246.164,258.296 1258.836,218.52 1248.276,182.616 C1246.692,177.688 1240.708,177.512 1237.892,181.208 C1227.508,195.288 1217.652,209.368 1209.556,224.856 C1200.228,209.368 1191.076,193.704 1178.228,180.68 C1174.708,177.16 1168.724,179.976 1168.548,184.728 C1167.492,222.216 1167.844,259.704 1167.316,297.192 C1167.316,304.584 1178.58,304.584 1178.756,297.192 C1179.108,264.632 1178.932,231.896 1179.46,199.336 C1189.316,211.832 1196.708,225.736 1205.156,239.288 C1207.268,242.632 1213.076,243.336 1215.012,239.288 C1221.876,224.328 1230.676,210.776 1240.004,197.576 C1245.284,229.96 1236.132,265.336 1242.644,297.544 C1244.052,304.584 1254.964,301.592 1253.556,294.552 L1253.556,294.552 Z M1324.308,185.608 C1322.372,201.8 1322.724,217.992 1323.076,234.36 C1323.252,242.632 1322.196,251.08 1321.668,259.352 C1321.492,261.816 1321.492,264.104 1321.668,266.568 C1317.796,255.656 1313.748,244.744 1307.94,234.36 C1297.908,216.232 1285.412,199.688 1275.732,181.384 C1273.092,176.28 1265.348,178.744 1265.348,184.2 C1265.524,203.032 1265.7,221.864 1266.052,240.52 C1266.404,259.528 1261.476,278.712 1263.236,297.544 C1263.94,304.584 1275.204,304.76 1274.5,297.544 C1272.916,281.176 1277.492,264.456 1277.492,247.912 C1277.316,233.832 1277.14,219.752 1276.788,205.848 C1284.004,217.288 1291.396,228.376 1298.26,239.992 C1309.348,258.824 1313.396,279.592 1322.196,299.128 C1324.308,303.528 1331.7,302.472 1332.58,297.72 C1335.572,281.176 1332.58,263.928 1333.636,247.032 C1335.22,226.44 1333.108,206.024 1335.572,185.608 C1336.452,178.392 1325.188,178.568 1324.308,185.608 L1324.308,185.608 Z M1397.524,193.704 C1382.212,169.944 1365.14,177.864 1356.516,200.92 C1348.42,223.448 1344.196,255.832 1350.18,279.592 C1350.18,279.944 1350.356,280.472 1350.532,281 C1350.708,281.528 1350.884,281.88 1351.06,282.408 C1362.852,311.272 1389.78,309.16 1404.212,281.528 C1417.412,256.36 1412.308,216.584 1397.524,193.704 L1397.524,193.704 Z M1395.764,270.264 C1391.892,288.744 1370.42,300.888 1361.796,277.832 C1355.284,253.72 1359.86,215.528 1372.532,194.056 C1380.1,181.208 1393.828,210.248 1396.116,215.528 C1399.108,222.92 1398.404,232.248 1398.58,239.992 C1398.756,250.2 1397.876,260.408 1395.764,270.264 L1395.764,270.264 Z M1480.772,219.4 C1480.596,193.704 1457.012,176.808 1432.724,179.624 C1429.908,179.976 1426.564,182.088 1427.092,185.256 C1428.852,199.688 1428.324,214.296 1427.092,228.728 C1426.388,235.416 1426.212,242.28 1426.036,248.968 C1420.58,249.848 1420.58,258.296 1426.036,259.88 C1426.036,272.376 1426.388,284.872 1425.684,297.192 C1425.332,304.408 1436.772,304.408 1436.948,297.192 C1437.652,284.872 1437.652,272.552 1437.652,260.232 C1460.708,258.648 1480.948,245.8 1480.772,219.4 L1480.772,219.4 Z M1437.828,248.792 C1437.828,242.104 1438.004,235.416 1438.356,228.728 C1438.884,216.056 1439.94,203.384 1438.884,190.712 C1455.252,191.24 1468.1,201.8 1469.508,219.4 C1471.092,239.288 1454.372,247.384 1437.828,248.792 L1437.828,248.792 Z M511.1,471.032 C507.756,470.152 505.116,468.744 502.652,466.984 C503.708,465.4 504.412,463.64 505.116,462.056 C515.5,434.424 513.564,398.52 497.724,373.704 C482.236,349.416 464.988,357.512 456.54,381.096 C448.268,403.976 444.044,437.24 450.028,461.528 C450.028,461.88 450.204,462.408 450.38,462.936 C450.556,463.288 450.732,463.816 450.908,464.168 C455.66,476.312 462.348,487.048 476.78,486.872 C483.292,486.696 490.156,482.296 495.436,476.664 C499.132,479.304 503.356,481.064 507.932,482.296 C515.324,484.232 518.316,472.792 511.1,471.032 L511.1,471.032 Z M461.644,459.768 C455.484,436.36 458.3,389.896 474.844,371.064 C481.708,363.144 495.964,395 497.02,398.168 C499.308,406.088 498.78,415.416 498.78,423.512 C498.78,433.368 497.9,443.224 495.788,452.728 C495.436,454.84 494.732,456.776 493.852,458.712 C492.092,456.952 490.156,455.016 488.22,453.256 C482.588,448.328 474.14,456.6 479.948,461.528 C482.412,463.64 484.524,465.928 486.636,468.216 C478.54,475.08 467.276,474.904 461.644,459.768 L461.644,459.768 Z M592.94,475.432 C582.38,457.128 566.012,443.752 547.708,434.072 C563.548,426.856 580.796,412.776 582.204,397.64 C585.196,366.84 557.388,360.152 532.572,359.096 C529.404,359.096 526.94,361.912 526.94,364.904 C526.06,402.216 526.236,439.704 526.236,477.016 C526.236,484.584 537.676,484.584 537.852,477.016 L537.852,441.816 C555.98,450.968 572.7,463.288 582.908,481.24 C586.604,487.752 596.636,481.944 592.94,475.432 L592.94,475.432 Z M565.484,406.44 C559.5,413.832 548.236,421.576 537.852,425.448 C537.852,407.32 538.028,389.192 538.38,371.064 C557.564,373.352 584.492,382.856 565.484,406.44 L565.484,406.44 Z M656.124,373.352 C645.916,365.608 623.212,351.352 611.42,364.728 C601.74,375.64 596.284,397.112 607.02,409.256 C617.228,420.696 633.596,424.744 645.212,434.776 C656.652,444.808 657.18,470.504 638.172,471.56 C629.372,472.088 618.812,465.224 614.764,457.656 C611.42,451.32 601.564,456.952 605.084,463.464 C611.42,475.256 625.148,481.944 638.172,482.824 C657.356,483.88 665.98,462.232 664.748,446.392 C663.516,431.784 646.444,418.936 634.124,413.128 C626.028,409.08 615.996,406.088 613.004,396.584 C610.54,389.192 615.82,371.944 624.796,371.064 C632.716,370.184 642.22,376.696 648.204,381.448 C653.836,385.848 661.756,377.928 656.124,373.352 L656.124,373.352 Z M750.46,362.264 C740.076,358.216 726.348,359.8 715.436,359.976 C703.116,360.152 690.796,360.856 678.652,361.032 C672.14,361.032 671.436,368.776 676.188,371.768 C678.3,374.232 681.82,374.056 684.108,372.296 C692.204,372.12 700.3,371.768 708.396,371.416 C708.396,406.616 711.036,441.816 711.212,476.84 C711.212,480.184 713.852,482.296 716.844,482.472 C717.196,482.472 717.548,482.648 717.724,482.648 C719.66,482.648 721.772,481.416 722.652,479.832 C722.828,479.48 723.004,479.128 723.18,478.776 C724.412,476.312 723.884,474.024 722.476,472.44 C722.124,438.648 719.66,404.856 719.66,371.064 C728.988,370.536 739.372,370.008 747.468,373.176 C754.332,375.816 757.324,364.728 750.46,362.264 L750.46,362.264 Z M762.076,366.488 C766.124,386.904 762.956,409.608 764.364,430.2 C765.42,446.744 766.828,472.792 783.724,481.592 C802.028,491.096 819.1,468.744 824.732,454.488 C835.996,426.504 828.78,393.592 829.836,364.376 C830.012,357.16 818.924,357.16 818.748,364.376 C817.868,388.136 821.212,412.072 818.044,435.832 C815.932,450.44 795.34,490.392 781.788,463.288 C766.652,433.192 779.148,395.352 772.812,363.496 C771.404,356.632 760.668,359.624 762.076,366.488 L762.076,366.488 Z M906.748,364.024 C899.884,395 887.388,424.568 877.004,454.664 C870.668,423.512 860.988,391.48 849.724,362.792 C847.084,356.104 835.996,359.096 838.812,365.96 C852.716,401.16 864.332,441.992 869.964,479.656 C870.844,485.464 879.468,484.584 880.876,479.656 C891.964,441.64 909.212,405.56 917.836,367.016 C919.42,359.8 908.332,356.808 906.748,364.024 L906.748,364.024 Z M1009.356,361.208 C1002.668,371.24 1003.196,387.608 1002.316,399.224 C1000.556,420.52 998.62,442.52 993.868,463.464 C987.18,453.08 982.956,439.528 978.732,429.32 C976.62,424.216 969.756,423.512 967.82,429.32 C964.652,439.352 961.66,454.488 955.676,465.4 C949.692,431.96 948.636,397.64 937.724,365.256 C935.612,358.568 924.7,361.384 926.988,368.248 C939.132,404.504 938.956,443.048 947.228,480.008 C948.284,484.408 953.74,485.112 956.732,482.472 C965.356,474.904 970.284,461 974.156,447.976 C978.732,459.768 984.188,471.736 992.636,479.832 C995.628,482.648 1000.732,481.416 1001.964,477.368 C1007.596,456.776 1009.356,435.48 1011.644,414.184 C1013.228,400.808 1011.292,378.28 1019.036,366.84 C1023.084,360.856 1013.404,355.224 1009.356,361.208 L1009.356,361.208 Z M1093.66,362.44 C1084.156,379.336 1073.948,395.88 1063.74,412.248 C1054.94,395.88 1046.668,379.16 1039.98,361.912 C1037.516,355.224 1026.78,358.216 1029.244,364.904 C1036.988,384.968 1046.668,404.328 1057.052,423.336 C1055.82,425.448 1054.412,427.384 1053.18,429.496 C1044.38,444.456 1037.34,460.648 1027.308,474.904 C1023.26,480.712 1032.94,486.344 1036.988,480.536 C1047.02,466.28 1054.06,450.088 1062.86,435.128 C1063.036,434.952 1063.036,434.776 1063.212,434.6 C1072.012,450.616 1080.812,469.448 1093.836,482.472 C1098.764,487.576 1106.684,479.656 1101.58,474.552 C1089.084,462.056 1080.812,443.224 1072.188,427.912 C1071.484,426.504 1070.604,424.92 1069.9,423.512 C1080.988,405.032 1092.78,386.904 1103.34,368.072 C1106.86,361.736 1097.18,356.104 1093.66,362.44 L1093.66,362.44 Z M1180.78,359.8 C1170.396,366.84 1165.996,388.84 1161.948,399.752 C1160.892,402.568 1159.836,405.384 1158.78,408.2 C1152.62,402.216 1147.164,394.824 1141.884,388.84 C1134.844,380.744 1125.164,371.768 1120.764,361.912 C1117.772,355.048 1107.74,360.856 1110.732,367.72 C1115.484,378.456 1126.044,388.312 1133.612,396.936 C1139.948,404.328 1146.812,413.128 1154.556,419.816 C1147.868,438.648 1141.356,458.008 1137.132,477.192 C1135.548,484.408 1146.636,487.576 1148.396,480.36 C1152.444,462.056 1158.604,443.928 1164.94,426.152 C1169.516,425.976 1172.684,419.288 1168.46,415.768 C1171.452,407.496 1174.444,399.048 1177.612,390.952 C1179.372,386.024 1182.188,372.824 1186.588,369.832 C1192.748,365.608 1186.94,355.576 1180.78,359.8 L1180.78,359.8 Z M1261.212,362.44 C1243.612,362.264 1225.836,362.088 1208.588,358.92 C1201.196,357.688 1198.028,368.424 1205.42,369.832 C1220.732,372.472 1236.22,373.352 1251.708,373.528 C1233.052,407.496 1209.116,440.408 1196.444,476.664 C1195.212,480.184 1198.556,483.528 1202.076,483.704 C1218.62,484.584 1234.812,480.008 1251.18,482.648 C1258.572,483.704 1261.564,472.968 1254.172,471.736 C1239.388,469.448 1224.956,472.264 1210.348,472.616 C1224.428,437.24 1248.716,404.68 1266.14,370.888 C1268.076,367.016 1265.788,362.44 1261.212,362.44 L1261.212,362.44 Z M312.22,697.864 C302.716,677.8 306.764,651.4 306.764,629.928 C306.94,623.768 299.02,622.888 296.556,627.112 C281.068,617.96 268.22,638.376 262.588,651.752 C255.372,669.176 248.86,693.112 262.588,708.952 C275.788,724.088 287.756,702.44 295.852,677.8 C296.908,686.776 298.844,695.4 302.716,703.496 C305.708,709.832 315.212,704.376 312.22,697.864 L312.22,697.864 Z M271.036,701.56 C267.692,704.2 264.348,693.288 263.996,691 C263.116,683.96 264.876,676.568 266.46,669.704 C268.044,663.192 283.532,626.408 294.796,636.616 C295.5,637.32 295.5,638.904 296.38,639.08 C295.324,647.528 294.092,656.152 291.804,664.248 C288.988,675.512 284.06,694.168 274.204,701.56 L271.036,701.56 Z M376.988,640.312 C369.596,631.688 354.284,631.864 344.956,636.792 C342.668,638.024 339.324,641.896 338.092,643.304 C339.676,617.432 340.028,621.304 340.556,595.608 C342.668,594.728 343.9,593.144 343.02,590.856 C341.788,588.92 341.084,586.808 340.732,584.52 L340.732,584.168 C340.732,583.816 340.556,583.464 340.556,583.112 C339.676,578.184 327.356,579.416 327.356,584.168 C327.18,622.36 323.308,660.376 321.724,698.568 C321.372,701.032 321.372,703.496 321.548,705.96 C321.548,708.072 325.772,709.48 327.708,709.832 C327.532,712.472 330.172,715.64 334.396,715.112 C355.34,712.824 397.052,676.568 376.988,640.312 L376.988,640.312 Z M371.004,670.232 C362.204,688.184 348.3,702.616 334.748,706.136 L334.748,705.96 C334.924,704.024 334.924,701.912 335.1,699.976 C335.804,694.168 336.156,660.552 338.972,655.272 C341.084,651.576 345.836,647.88 351.116,644.712 C359.74,639.432 378.396,646.296 371.004,670.232 L371.004,670.232 Z M439.82,635.56 C418.172,606.52 395.82,656.504 392.476,670.76 C389.836,682.552 388.252,697.864 397.756,707.544 C410.076,720.216 432.252,706.664 442.988,699.448 C449.324,695.224 443.164,687.304 436.828,691.528 C431.02,695.576 412.54,708.248 404.796,701.384 C398.636,696.104 401.276,681.672 402.508,675.16 C403.564,669.88 418.348,628.872 427.5,641.192 C431.9,647.176 444.22,641.544 439.82,635.56 L439.82,635.56 Z M507.932,643.304 C507.756,643.304 507.404,643.128 507.228,642.952 C507.404,642.072 507.58,641.192 507.58,640.312 C507.932,625.704 507.932,630.104 507.404,615.848 C507.052,609.864 505.644,602.12 505.292,594.728 C508.284,594.728 511.276,591.56 509.516,588.216 C508.108,585.4 503.884,583.112 501.42,581.352 C499.132,579.768 495.788,581.528 495.084,583.992 C493.676,588.92 495.436,595.608 495.964,600.536 C496.492,609.336 496.668,618.136 497.02,626.76 C497.196,632.216 497.548,633.8 496.668,638.904 C477.484,631.688 458.476,642.952 451.084,664.072 C444.22,683.96 455.308,720.392 477.66,713.528 C483.116,711.768 489.276,708.424 492.62,704.024 C492.796,705.608 492.972,707.368 493.148,708.952 C494.204,714.408 504.94,712.12 504.06,706.664 C503.004,699.624 503.18,692.584 503.356,685.368 C504.764,680.616 505.644,657.032 506.348,652.28 C509.516,651.752 511.628,645.768 507.932,643.304 L507.932,643.304 Z M475.196,705.08 C467.628,708.248 460.236,688.008 459.884,679.032 C459.532,669.88 461.644,661.256 467.452,654.568 C475.02,645.768 486.636,644.36 495.612,648.584 C494.556,661.96 495.436,673.928 491.388,686.072 C489.1,693.464 482.94,701.912 475.196,705.08 L475.196,705.08 Z M571.644,698.744 C552.812,709.128 532.572,700.152 528.172,679.384 C544.716,675.688 564.78,664.248 570.94,648.408 C578.86,627.992 551.58,621.128 537.148,628.52 C521.308,636.616 515.324,664.952 518.316,681.672 C523.948,712.12 552.46,719.512 576.924,707.192 C583.26,704.024 577.628,695.4 571.644,698.744 L571.644,698.744 Z M535.916,644.008 C539.788,637.496 547.356,633.096 554.748,634.856 C565.132,637.496 563.372,644.536 557.388,651.4 C550.348,659.32 538.204,667.416 527.644,670.056 C528.348,661.08 531.692,651.4 535.916,644.008 L535.916,644.008 Z M624.092,582.232 C622.156,580.824 616.348,580.296 614.588,582.232 C605.436,592.088 604.556,603.88 602.092,616.024 C598.748,633.448 596.636,651.224 594.7,668.824 C594.524,669.88 594.524,669.88 594.348,670.936 C589.42,671.816 589.244,679.208 593.468,680.616 C592.764,689.416 592.06,698.392 591.884,707.544 C591.532,717.752 593.468,731.656 588.012,741.16 C585.02,746.264 595.404,750.84 598.396,745.736 C607.548,730.072 603.676,707.896 604.556,691 C604.908,687.304 605.084,683.784 605.436,680.264 C611.596,679.56 617.58,678.152 623.564,676.92 C629.9,675.512 627.26,665.832 620.748,667.24 C615.996,668.296 611.244,669.352 606.316,670.056 C607.372,661.608 608.428,654.216 609.66,645.944 C614.764,609.16 613.708,605.992 621.276,592.264 C623.564,595.08 624.444,598.424 623.916,602.648 C623.388,608.28 633.596,608.28 634.124,602.648 C634.828,594.024 631.308,587.864 624.092,582.232 L624.092,582.232 Z M699.244,653.688 C699.596,649.816 699.596,646.296 699.596,642.952 C699.772,637.32 693.612,636.616 690.972,640.136 C684.108,632.04 670.908,631.512 661.756,639.432 C648.028,650.872 640.46,672.168 642.396,690.296 C644.332,709.128 660.172,720.216 676.188,711.416 C682.172,708.248 686.748,702.968 689.916,696.456 C688.86,708.072 687.1,719.688 684.636,731.128 C681.644,745.912 677.244,760.344 670.556,773.72 C667.388,780.056 663.34,785.688 658.412,790.44 C651.196,797.48 621.804,799.064 628.844,782.872 C631.484,776.888 623.036,771.608 620.396,777.768 C612.476,795.896 630.78,806.984 646.092,806.808 C662.46,806.632 673.724,789.384 680.588,775.832 C690.444,755.768 695.02,732.36 698.188,710.008 C699.596,699.976 700.3,689.944 700.652,679.912 C701.004,671.112 699.596,662.488 699.244,653.688 L699.244,653.688 Z M653.836,692.76 C650.844,684.488 653.66,674.808 656.3,666.712 C658.236,661.08 660.172,655.624 663.868,651.048 C667.74,646.296 684.284,637.144 685.868,651.224 C686.044,653.512 687.628,655.096 689.212,655.624 C688.684,662.312 687.628,668.824 686.22,675.336 C683.052,691.352 663.868,721.096 653.836,692.76 L653.836,692.76 Z M764.892,705.784 C758.204,691.88 773.516,642.424 742.012,647.704 C736.38,648.76 731.98,651.048 728.46,654.568 C729.692,646.648 731.1,638.728 732.684,630.808 C734.62,620.776 736.556,610.568 737.788,600.536 C738.492,595.608 740.956,586.984 737.788,582.408 C734.62,577.832 724.764,582.056 727.932,586.632 C730.572,590.328 726.348,603.704 725.644,607.752 C724.06,617.432 722.3,627.112 720.364,636.792 C715.436,661.256 712.268,685.544 709.452,710.36 C708.924,714.936 719.66,715.992 720.364,711.416 C721.244,706.664 721.596,700.856 722.3,694.872 C722.652,693.64 722.828,692.232 723.004,690.824 C724.764,677.448 728.284,665.48 739.02,658.968 C755.564,648.584 752.22,676.392 752.22,684.136 C752.22,692.76 751.692,702.088 755.564,710.008 C757.852,714.936 767.18,710.712 764.892,705.784 L764.892,705.784 Z M794.812,639.608 C794.636,633.272 784.956,633.272 785.132,639.608 C785.308,662.664 772.636,684.312 775.452,707.896 C775.804,711.592 779.148,713.88 782.668,712.12 C785.308,710.712 786.012,709.832 787.596,707.368 C789.532,704.2 787.42,701.208 784.78,700.328 C784.956,679.736 794.988,660.2 794.812,639.608 L794.812,639.608 Z M802.908,594.376 C802.908,594.376 802.908,594.2 802.732,594.2 C802.908,592.792 802.38,591.208 801.324,590.152 C799.564,588.392 796.396,588.392 794.636,590.152 C793.404,591.384 792.524,592.264 791.468,593.496 C790.236,595.08 790.06,597.368 789.884,599.304 C789.884,602.296 793.052,604.936 796.044,603.88 C797.1,603.528 798.332,603.176 799.212,602.472 C799.74,602.12 800.092,601.768 800.62,601.416 C800.796,601.24 800.972,601.064 801.148,601.064 C803.612,599.832 804.316,596.664 802.908,594.376 L802.908,594.376 Z M811.532,639.432 C810.652,667.592 807.484,695.752 802.556,723.56 C799.74,739.048 796.22,754.536 790.764,769.496 C788.124,776.36 784.78,783.048 780.028,788.856 C772.636,797.832 747.82,790.264 754.86,782.344 C759.26,777.24 751.868,769.848 747.468,774.952 C733.564,790.616 757.852,808.216 773.516,804.696 C788.652,801.352 795.692,785.16 800.796,772.136 C816.988,731.48 820.684,682.904 822.092,639.432 C822.268,632.744 811.708,632.744 811.532,639.432 L811.532,639.432 Z M828.78,592.44 C828.604,591.56 828.076,590.856 827.548,590.152 C825.436,588.216 822.092,588.04 819.98,590.152 C816.988,593.32 815.228,597.368 815.052,601.768 C814.876,606.344 820.86,608.808 824.028,605.464 C825.084,604.408 825.964,603.176 826.668,601.768 C827.02,601.416 827.196,600.888 827.548,600.36 C827.724,600.184 827.9,600.008 828.076,599.656 C828.076,599.656 828.076,599.656 828.428,599.304 C830.188,597.368 830.364,594.552 828.78,592.44 L828.78,592.44 Z M890.38,629.576 C889.5,614.616 870.316,609.688 858.7,615.496 C856.236,616.552 854.3,618.312 852.716,620.424 C853.42,608.808 853.948,597.016 853.948,585.224 C853.948,579.944 844.62,579.944 844.62,585.224 C844.444,609.336 842.508,633.096 839.868,656.856 C836.524,674.28 835.292,692.056 833.356,709.656 C832.828,715.112 842.156,714.936 842.684,709.656 C844.972,692.408 847.26,675.336 849.196,658.088 C850.252,651.576 851.836,645.24 853.772,638.904 C855.004,634.504 856.94,630.28 859.228,626.408 C865.212,616.728 880.524,621.48 881.228,632.568 C882.108,649.464 860.284,653.16 851.66,663.896 C849.9,666.184 850.076,668.824 852.54,670.584 C862.22,677.272 865.916,699.272 866.444,710.36 C866.62,715.816 876.124,715.816 875.772,710.36 C875.244,697.336 871.548,677.096 861.516,666.536 C873.836,654.392 891.612,651.752 890.38,629.576 L890.38,629.576 Z M929.98,581.528 C928.396,580.12 924.524,579.592 922.94,581.528 C911.5,596.312 907.98,619.896 904.108,637.672 C903.404,640.84 902.7,644.008 902.348,647.352 C901.116,647.528 899.884,647.528 898.652,647.528 C893.196,647.176 893.196,655.448 898.652,655.8 C899.532,655.976 900.236,655.976 901.116,655.8 C899.356,673.4 899.884,691 900.06,708.776 C900.06,714.232 909.388,714.232 909.388,708.776 C909.212,690.472 909.388,672.168 911.676,653.864 C935.964,644.008 950.044,598.776 929.98,581.528 L929.98,581.528 Z M917.836,620.424 C920.3,611.624 922.588,599.832 927.164,591.384 C935.964,605.464 926.812,632.92 912.38,643.304 C913.788,635.56 915.9,627.992 917.836,620.424 L917.836,620.424 Z M1064.972,696.984 C1049.484,713.704 1052.476,684.84 1053.708,676.744 C1054.94,668.648 1056.348,660.376 1056.7,652.104 C1057.228,642.952 1054.06,627.816 1042.62,626.936 C1024.492,625.528 1013.58,636.968 1006.54,651.928 C1005.66,640.664 1002.14,630.984 993.516,626.76 C984.54,622.36 974.86,627.464 967.82,633.976 C966.06,629.4 957.612,629.928 957.612,636.088 C957.612,640.312 957.084,644.712 956.732,649.112 L956.732,650.168 C949.516,667.592 950.22,690.296 949.692,707.72 C949.516,714.408 960.076,714.408 960.252,707.72 C960.78,691.704 961.308,675.864 965.18,660.2 C967.292,650.696 986.828,622.008 993.34,643.304 C999.324,662.84 992.108,685.896 991.756,705.96 C991.58,711.944 1000.732,713.176 1001.964,707.368 C1006.364,689.416 1007.42,670.936 1017.1,654.568 C1023.436,644.008 1045.788,626.408 1046.316,652.104 C1046.492,661.432 1043.852,670.936 1042.62,680.088 C1041.564,689.416 1039.1,706.488 1047.9,713.176 C1057.228,720.216 1066.204,711.064 1072.364,704.376 C1076.94,699.448 1069.548,692.056 1064.972,696.984 L1064.972,696.984 Z M1146.988,700.504 C1140.124,710.008 1141.532,692.056 1141.356,687.48 C1141.004,679.032 1140.828,670.408 1139.772,661.96 C1137.66,646.648 1132.38,630.984 1116.012,626.232 C1107.916,623.944 1102.108,626.056 1097.708,630.984 C1096.652,628.344 1095.42,626.056 1093.836,623.768 C1089.788,618.136 1080.636,623.416 1084.508,629.048 C1088.38,634.68 1089.612,641.896 1089.788,649.288 C1085.212,669 1086.444,695.224 1086.444,705.08 C1086.444,711.944 1097.18,711.944 1097.18,705.08 C1097.532,689.24 1102.46,667.944 1101.404,649.288 C1103.34,641.016 1106.684,633.272 1116.716,637.848 C1125.516,641.544 1127.628,653.688 1129.036,661.784 C1131.324,676.216 1129.564,691 1132.204,705.256 C1135.02,720.04 1150.332,714.056 1156.316,705.96 C1160.54,700.328 1151.212,695.048 1146.988,700.504 L1146.988,700.504 Z M1227.772,654.744 C1225.836,640.84 1211.228,608.104 1197.5,630.808 C1163.884,638.728 1155.964,725.144 1203.308,713.528 C1225.132,708.248 1230.412,673.224 1227.772,654.744 L1227.772,654.744 Z M1217.388,663.544 C1217.036,677.976 1213.868,702.264 1195.74,704.024 C1169.868,706.664 1181.132,641.192 1202.252,641.016 C1205.596,641.016 1207.356,638.376 1207.532,635.736 C1211.052,633.272 1214.396,645.592 1215.276,648.76 C1216.86,653.864 1217.564,658.264 1217.388,663.544 L1217.388,663.544 Z M1256.812,626.232 C1256.812,625.88 1256.812,625.352 1256.988,625 C1257.692,617.96 1246.428,617.96 1245.724,625 C1242.908,652.28 1242.556,679.912 1241.148,707.192 C1239.564,736.76 1239.564,770.024 1230.94,798.36 C1228.828,805.224 1239.564,808.216 1241.676,801.352 C1249.772,775.128 1250.476,745.032 1251.884,717.4 C1252.236,717.576 1252.764,717.576 1253.116,717.576 C1281.452,717.4 1304.684,701.56 1305.212,671.64 C1305.564,645.944 1282.508,610.568 1256.812,626.232 L1256.812,626.232 Z M1293.244,680.792 C1289.724,699.624 1270.012,706.312 1253.116,706.312 C1252.94,706.312 1252.588,706.312 1252.412,706.488 C1253.468,684.312 1253.996,661.96 1255.58,639.96 C1256.812,639.784 1257.868,639.432 1258.924,638.376 C1282.684,617.08 1296.236,664.248 1293.244,680.792 L1293.244,680.792 Z M1412.22,770.376 C1406.588,770.376 1402.012,772.488 1397.612,776.008 C1393.74,779.176 1390.396,782.52 1387.052,786.04 C1386.7,786.392 1386.524,786.744 1386.172,786.92 C1383.356,769.848 1381.244,752.424 1379.836,735.176 C1379.308,728.488 1378.78,721.8 1378.428,715.112 C1383.884,713.352 1383.708,704.728 1377.9,704.376 C1376.844,678.328 1376.316,652.104 1373.5,626.056 C1372.796,619.192 1362.06,619.016 1362.764,626.056 L1362.764,626.936 C1337.244,611.096 1317.004,647.528 1316.3,671.64 C1315.244,701.56 1341.996,714.76 1367.692,715.64 C1367.868,717.576 1367.868,719.512 1368.044,721.448 C1368.924,735.704 1370.508,749.784 1372.268,764.04 C1373.5,773.544 1372.268,796.6 1380.188,802.584 C1381.772,803.64 1384.236,803.464 1385.644,802.584 C1394.796,797.128 1400.428,781.288 1412.22,781.112 C1419.26,781.112 1419.26,770.2 1412.22,770.376 L1412.22,770.376 Z M1330.556,686.776 C1320.7,669.528 1337.068,617.608 1360.652,638.904 C1361.708,639.784 1362.94,640.312 1363.996,640.312 C1365.756,661.784 1366.284,683.432 1367.164,704.904 C1352.556,704.728 1338.476,700.504 1330.556,686.776 L1330.556,686.776 Z M1459.74,635.912 C1453.756,617.432 1420.668,622.008 1409.052,632.04 C1408.348,632.744 1407.82,633.272 1407.116,633.8 C1407.292,632.92 1407.468,632.04 1407.644,631.16 C1409.404,624.648 1399.372,621.832 1397.612,628.344 C1395.676,636.088 1396.38,644.888 1396.908,653.336 C1392.86,671.288 1397.084,692.76 1397.436,709.128 C1397.612,715.816 1407.996,715.816 1407.996,709.128 L1407.996,667.416 C1407.996,663.896 1407.644,660.2 1407.292,656.328 C1408.7,649.112 1411.868,642.424 1418.38,638.376 C1422.78,635.736 1446.892,630.104 1449.532,638.552 C1451.644,645.064 1461.676,642.248 1459.74,635.912 L1459.74,635.912 Z M499.484,845.312 C495.26,821.2 455.66,827.888 447.74,845.664 C441.58,859.744 453.724,872.592 463.228,881.04 C470.972,887.904 482.412,901.632 466.748,907.088 C458.3,910.08 443.868,905.152 443.164,895.12 C442.812,888.256 432.076,888.08 432.428,895.12 C433.308,910.432 447.916,918.176 461.82,918.528 C477.132,918.88 491.74,903.216 483.644,888.256 C478.188,878.048 448.092,860.624 459.356,847.424 C465.164,840.384 486.988,835.632 489.1,848.128 C490.332,854.992 500.716,852 499.484,845.312 L499.484,845.312 Z M541.9,840.032 C536.444,840.032 530.988,841.44 525.532,841.264 C526.764,831.936 527.644,822.432 528.348,813.104 C528.876,806.064 530.812,796.56 527.996,789.872 C526.06,785.12 516.38,789.344 518.492,793.92 C520.428,798.496 517.26,819.44 514.268,843.024 C514.092,843.904 513.916,844.608 513.916,845.312 C509.516,879.984 505.468,919.056 517.26,918.704 C522.364,918.528 525.004,910.432 519.9,910.608 C522.012,910.608 520.252,903.744 520.252,900.048 C520.076,893.712 520.428,887.376 520.78,881.04 C521.308,872.064 522.716,863.264 523.948,854.464 C524.124,852.704 524.476,852.352 524.652,850.416 C530.46,850.768 535.916,849.184 541.9,849.008 C547.004,849.008 547.004,839.856 541.9,840.032 L541.9,840.032 Z M552.46,837.744 C557.564,860.624 541.372,914.48 578.156,918 C609.836,920.816 607.196,855.344 609.66,837.04 C610.716,830.352 600.508,827.536 599.628,834.224 C598.044,845.312 597.692,856.752 596.284,868.016 C595.052,878.928 593.292,902.336 580.796,907.088 C557.212,916.064 564.956,846.016 562.492,835.104 C561.084,828.416 550.876,831.232 552.46,837.744 L552.46,837.744 Z M673.372,833.696 C660.348,854.112 657.532,878.928 646.62,900.048 C640.108,878.224 631.66,856.928 628.492,834.224 C627.612,827.36 617.228,830.176 618.108,837.04 C621.804,863.792 632.892,888.784 639.756,914.832 C640.988,919.584 646.972,919.584 649.436,916.064 C666.332,893.184 667.388,862.912 682.7,839.152 C686.396,833.344 677.068,827.888 673.372,833.696 L673.372,833.696 Z M778.796,833.696 C776.156,854.464 784.252,888.784 767.884,903.744 C748.172,922.048 747.82,865.904 747.644,856.752 C747.644,850.768 738.316,849.008 737.612,855.344 C735.5,871.008 733.564,890.368 723.884,903.04 C716.844,912.192 707.692,901.456 705.756,893.712 C702.588,881.92 703.644,868.192 703.996,856.048 C703.996,850.592 706.284,840.208 703.468,835.104 C701.532,831.936 696.252,831.232 694.492,835.104 C694.492,835.28 694.316,835.456 694.316,835.632 C693.612,837.392 693.612,838.976 694.316,840.384 C693.084,839.328 693.788,849.536 693.612,852.704 C693.436,862.56 693.436,872.416 693.964,882.448 C694.668,894.416 696.78,905.328 705.932,912.896 C723.004,926.976 733.74,911.136 739.9,892.304 C743.068,908.32 749.756,922.224 765.244,917.824 C796.396,909.024 785.66,860.8 788.828,836.512 C789.708,829.648 779.676,826.656 778.796,833.696 L778.796,833.696 Z M836.172,872.592 C835.996,872.24 835.996,872.064 835.82,871.888 C843.036,860.624 850.428,849.712 858.7,839.328 C862.748,834.048 855.356,826.656 851.308,831.936 C843.74,841.44 836.876,851.472 830.012,861.68 C823.676,851.12 816.46,841.088 809.068,831.232 C805.02,825.776 796.044,831.056 800.092,836.512 C808.54,847.952 815.756,860.448 822.796,872.944 C822.444,873.296 822.092,873.824 821.916,874.352 C814.524,885.616 803.436,898.992 800.444,912.368 C798.86,918.88 808.892,921.696 810.476,915.184 C812.94,904.096 822.62,892.656 828.604,883.152 C835.292,894.768 842.156,906.208 850.428,916.592 C854.652,921.872 861.868,914.48 857.82,909.2 C849.02,898.112 842.684,885.088 836.172,872.592 L836.172,872.592 Z M946.7,840.032 L946.7,838.448 C947.052,833.168 940.188,831.76 937.372,835.28 C936.492,835.984 935.788,836.864 935.612,837.92 C935.26,838.976 935.084,843.552 935.26,844.608 L935.26,845.664 C931.036,868.544 913.788,916.944 891.612,905.152 C870.844,894.24 886.86,854.112 895.132,838.976 C898.3,832.816 889.324,827.536 885.98,833.52 C874.716,854.464 857.82,905.68 890.556,916.416 C904.812,921.168 916.78,912.896 925.756,899.696 C923.292,912.192 920.124,924.512 916.604,936.832 C911.852,952.672 906.572,961.472 898.3,975.728 C894.78,981.712 890.556,987.168 885.628,991.92 C874.364,1002.832 846.204,1002.832 850.076,980.128 C851.132,973.44 841.1,970.624 839.868,977.312 C835.82,1001.424 857.996,1015.152 879.996,1007.76 C899.004,1001.424 910.092,978.016 917.308,961.12 C928.044,937.008 934.38,917.472 938.956,891.424 C940.364,883.504 949.868,853.056 946.7,840.032 L946.7,840.032 Z M1016.924,832.992 C1003.548,830.88 990.172,830.176 976.796,829.648 C975.916,828.064 974.332,827.008 972.044,827.184 C968.876,827.536 966.236,828.768 963.068,829.296 C956.732,830.176 958.668,839.856 964.652,840.208 C978.556,840.912 992.636,841.088 1006.54,842.672 C991.756,866.256 970.812,885.44 957.964,910.432 C955.852,914.48 958.492,918.176 962.716,918.704 C980.14,920.816 997.212,916.416 1014.46,915.008 C1021.5,914.48 1021.676,903.392 1014.46,903.92 C1000.204,905.152 986.124,908.32 971.868,908.144 C986.124,884.56 1006.892,865.552 1020.268,841.088 C1021.852,838.272 1020.62,833.52 1016.924,832.992 L1016.924,832.992 Z M1039.276,871.536 C1039.452,877.872 1049.308,877.872 1049.308,871.536 C1048.956,847.776 1061.98,825.6 1059.164,801.312 C1058.636,797.616 1055.292,795.328 1051.772,797.088 C1048.956,798.496 1048.252,799.376 1046.668,802.016 C1044.556,805.36 1046.844,808.352 1049.66,809.232 C1049.484,830.352 1039.1,850.24 1039.276,871.536 L1039.276,871.536 Z M1032.94,909.904 C1033.116,909.904 1033.116,910.08 1033.116,910.256 C1033.116,911.664 1033.468,913.072 1034.524,914.128 C1036.46,916.064 1039.628,916.064 1041.564,914.128 C1042.796,913.072 1043.852,912.016 1044.732,910.784 C1045.964,909.2 1046.316,906.912 1046.316,904.976 C1046.492,901.808 1043.148,898.992 1039.98,900.224 C1038.924,900.576 1037.868,900.928 1036.812,901.632 C1036.284,901.984 1035.932,902.336 1035.404,902.688 C1035.228,902.864 1035.052,903.04 1034.7,903.04 C1032.412,904.448 1031.708,907.616 1032.94,909.904 L1032.94,909.904 Z M1137.308,812.4 C1132.732,800.784 1124.108,789.872 1111.788,786 C1096.828,781.424 1084.156,793.568 1076.236,804.656 C1074.124,807.824 1076.06,810.816 1078.876,811.696 C1079.404,812.048 1079.932,812.4 1080.46,812.576 C1082.396,813.28 1084.684,812.752 1086.62,812.4 C1088.204,811.872 1090.492,811.168 1091.196,809.76 C1092.252,807.296 1090.668,805.888 1088.556,805.536 C1102.108,790.576 1118.124,795.152 1127.1,814.688 C1130.444,821.552 1132.38,831.056 1129.212,838.272 C1124.636,848.832 1110.028,843.904 1102.108,840.912 C1098.06,839.504 1095.42,843.728 1095.948,847.248 C1097.884,860.448 1091.548,871.536 1099.292,883.68 C1102.812,889.136 1111.612,884.032 1108.092,878.576 C1103.164,871.008 1105.276,861.68 1105.98,852.88 C1116.54,855.872 1128.508,856.224 1135.9,846.896 C1143.468,837.216 1141.356,823.136 1137.308,812.4 L1137.308,812.4 Z M1107.036,906.912 C1107.036,906.736 1107.212,906.56 1107.212,906.208 C1108.972,899.872 1099.116,897.232 1097.356,903.568 C1097.356,903.744 1097.18,903.92 1097.18,904.096 C1097.18,904.096 1097.18,904.096 1097.18,904.272 C1096.828,904.8 1096.476,905.328 1096.124,905.856 C1095.42,907.088 1094.716,908.32 1094.364,909.728 C1093.308,914.48 1096.828,917.824 1100.876,919.584 C1104.22,921.168 1108.444,919.408 1108.444,915.184 L1108.444,910.608 C1108.444,909.024 1107.916,907.792 1107.036,906.912 L1107.036,906.912 Z M1163.532,895.824 C1162.124,894.944 1159.66,894.944 1158.78,896.528 C1157.548,898.992 1156.668,901.456 1157.196,904.272 C1157.9,907.088 1159.836,909.376 1162.3,910.784 C1163.532,911.488 1165.116,911.664 1166.348,910.608 C1168.988,908.144 1170.22,905.504 1170.748,901.808 C1170.924,900.576 1170.22,899.52 1169.34,898.816 C1168.108,897.936 1166.348,897.232 1164.764,898.112 C1164.588,897.232 1164.236,896.352 1163.532,895.824 L1163.532,895.824 Z M1157.724,881.392 C1157.724,881.392 1157.9,881.568 1157.9,881.744 C1157.724,883.152 1158.252,884.56 1159.308,885.616 C1161.244,887.552 1164.412,887.552 1166.348,885.616 C1167.404,884.56 1168.46,883.504 1169.516,882.272 C1170.748,880.688 1171.1,878.4 1171.1,876.464 C1171.1,873.296 1167.756,870.48 1164.764,871.536 C1163.708,872.064 1162.476,872.416 1161.596,873.12 C1161.068,873.472 1160.54,873.824 1160.188,874.176 C1160.012,874.352 1159.66,874.528 1159.484,874.528 C1157.196,875.936 1156.492,879.104 1157.724,881.392 L1157.724,881.392 Z M1192.748,924.864 C1229.004,892.656 1246.78,845.136 1277.58,808.352 C1282.156,803.072 1274.412,795.152 1269.836,800.608 C1239.212,837.392 1221.084,885.088 1185.004,917.12 C1179.724,921.872 1187.468,929.616 1192.748,924.864 L1192.748,924.864 Z"/>
</svg>
