<svg width="76" height="40" viewBox="0 0 76 40" fill="none" xmlns="http://www.w3.org/2000/svg">
<path fill-rule="evenodd" clip-rule="evenodd" d="M35.5107 29.3691C35.5107 30.2673 35.4303 31.2619 35.2696 32.3527C35.1087 33.4434 34.8031 34.4699 34.3368 35.4003C33.8705 36.3306 33.179 37.1166 32.2624 37.7422C31.3458 38.3678 30.1558 38.6885 28.6764 38.6885C27.6472 38.6885 26.811 38.5121 26.1678 38.1593C25.5245 37.8064 25.01 37.3411 24.6562 36.7797C24.3024 36.2183 24.0451 35.5768 23.9165 34.871C23.7878 34.1491 23.7074 33.4594 23.7074 32.7857C23.7074 31.2138 24.0934 29.9144 24.8492 28.8558C25.6049 27.8132 26.6984 26.9951 28.1297 26.4016L33.163 24.3966C34.5459 23.8191 35.4142 23.2416 35.5107 22.6482V29.3691V29.3691ZM74.7285 33.2399C74.4549 34.7617 73.8433 36.1073 72.8776 37.2767C71.9119 38.4461 70.6404 39.0388 69.0792 39.0388C68.6285 39.0388 68.1779 38.9747 67.6951 38.8305C67.2282 38.6864 66.7937 38.4141 66.3753 37.9655C65.9729 37.533 65.6509 36.9083 65.3934 36.1073C65.1521 35.3063 65.0233 34.2491 65.0233 32.9675V10.4285H74.5836V9.45143H65.0393V0C64.5888 0.368498 64.1219 0.62479 63.6231 0.801007C63.1241 0.961158 62.5446 1.04136 61.8687 1.04136C61.1122 1.04136 60.5649 0.993288 60.2591 0.897147C59.9373 0.801007 59.6154 0.688926 59.2453 0.544715V9.45143H41.3155V10.4446H47.4155V39.0067H43.6815C42.925 39.0067 42.3295 38.4461 41.911 37.9976C41.5087 37.549 41.3155 36.684 41.3155 35.3864V18.6944C41.3155 17.493 41.1385 16.3396 40.7844 15.2503C40.4303 14.1609 39.8187 13.1678 38.9657 12.3028C38.1126 11.4378 37.0021 10.7329 35.6179 10.2203C34.2177 9.70772 32.4955 9.45143 30.4354 9.45143C28.7293 9.45143 27.2164 9.65965 25.8966 10.0602C24.5768 10.4605 23.4823 11.0052 22.6132 11.7101C21.7441 12.415 21.0842 13.1999 20.6335 14.0809C20.183 14.978 19.9576 15.907 19.9576 16.9003C19.9576 17.7493 20.1347 18.4381 20.4888 18.9828C20.8429 19.5115 21.7603 19.7837 23.241 19.7837C24.0939 19.7837 24.7378 19.5755 25.1884 19.143C25.6391 18.7265 25.8644 18.1979 25.8644 17.5731C25.8644 17.2206 25.8 16.676 25.6712 15.9392C25.5425 15.2023 25.4782 14.4494 25.4782 13.6964C25.4782 12.5431 25.961 11.694 26.9267 11.1815C27.8924 10.6689 29.1156 10.4125 30.5802 10.4125C31.6908 10.4125 32.5921 10.5727 33.2681 10.8771C33.944 11.1974 34.4591 11.646 34.8132 12.2547C35.1672 12.8634 35.4248 13.5844 35.5536 14.4333C35.6662 15.2503 35.7467 16.2114 35.7467 17.2848C35.7467 18.6304 35.6501 19.6877 35.4409 20.4726C35.2478 21.2576 34.8776 21.8983 34.3304 22.4109C33.7992 22.9234 33.0427 23.356 32.077 23.7245C31.1113 24.0769 29.8881 24.5094 28.4235 25.006C27.1681 25.4064 25.9288 25.791 24.6895 26.1434C23.4502 26.4957 22.3396 26.9604 21.3257 27.521C20.3117 28.0817 19.5069 28.8185 18.8792 29.7636C18.2516 30.6928 17.9458 31.9583 17.9458 33.5121C17.9458 34.185 18.0424 34.9058 18.2516 35.6907C18.4446 36.4437 18.831 37.1165 19.4103 37.7092C18.5091 38.5903 17.3663 39.0388 16.0144 39.0388C15.5637 39.0388 15.113 38.9747 14.6303 38.8305C14.1634 38.6864 13.6323 38.4141 13.2299 37.9655C12.8276 37.533 12.5057 36.9083 12.2643 36.1073C12.0228 35.3063 11.8941 34.2651 11.8941 32.9675V10.4285H21.5188V9.45143H11.8941V0.0321306C11.4434 0.400503 10.9767 0.656795 10.4777 0.833012C9.97881 0.993288 9.39937 1.07336 8.73947 1.07336C7.98298 1.07336 7.43581 1.02529 7.13001 0.929153C6.82421 0.833012 6.48613 0.720931 6.11602 0.592785V9.45143H0V10.4446H6.11602V32.3427C6.11602 34.7776 6.77591 36.668 8.09571 37.9976C9.41551 39.3271 11.8458 40 15.2096 40C16.5455 40 17.6721 39.7757 18.5574 39.3432C19.1528 39.0548 19.6678 38.7184 20.1185 38.3179C20.6658 38.7184 21.3257 39.0708 22.1144 39.3591C23.2248 39.7757 24.7378 40 26.6048 40C28.2625 40 29.6306 39.8077 30.6929 39.4233C31.7551 39.0388 32.6243 38.5742 33.2841 38.0135C33.928 37.4529 35.0868 36.0753 35.6019 34.7617C35.9559 36.4117 36.6158 37.6931 37.5815 38.6063C38.5472 39.5194 40.0923 39.9839 42.2491 39.9839C42.5066 39.9839 59.2453 39.9679 59.2453 39.9679V38.9747H53.1774V10.4285H59.2453V32.3427C59.2453 34.7776 59.9052 36.668 61.2248 37.9976C62.5446 39.3271 64.8946 40 68.2584 40C69.6103 40 70.7208 39.7757 71.6222 39.3432C72.5235 38.9107 73.2478 38.3499 73.8111 37.6931C74.3744 37.0204 74.7928 36.3316 75.0504 35.5947C75.324 34.8578 75.5172 34.201 75.662 33.5923L74.7285 33.2399V33.2399ZM50.3152 7.06179C51.2968 7.06179 52.1335 6.72631 52.8255 6.02331C53.5174 5.33634 53.8714 4.50553 53.8714 3.5309C53.8714 2.55638 53.5174 1.72558 52.8255 1.0386C52.1335 0.3515 51.2968 0 50.3152 0C49.3337 0 48.497 0.3515 47.805 1.0386C47.1131 1.72558 46.7591 2.55638 46.7591 3.5309C46.7591 4.50553 47.0971 5.33634 47.805 6.02331C48.497 6.72631 49.3337 7.06179 50.3152 7.06179V7.06179Z" fill="#0032D2"/>
</svg>
