<?xml version="1.0" encoding="utf-8"?>
<!-- Generator: Adobe Illustrator 17.1.0, SVG Export Plug-In . SVG Version: 6.00 Build 0)  -->
<!DOCTYPE svg PUBLIC "-//W3C//DTD SVG 1.1//EN" "http://www.w3.org/Graphics/SVG/1.1/DTD/svg11.dtd">
<svg version="1.1" id="Layer_1" xmlns="http://www.w3.org/2000/svg" xmlns:xlink="http://www.w3.org/1999/xlink" x="0px" y="0px"
	 viewBox="0 0 506.54 495.282" enable-background="new 0 0 506.54 495.282" xml:space="preserve">
<g>
	<path fill="#00C800" d="M91.717,102.991H74.641v-6.804c-1.334,1.334-2.802,2.535-4.402,3.602c-8.672,5.736-19.211,5.736-27.749,0
		c-8.672-5.737-13.875-16.276-13.875-27.749c0-11.339,5.203-21.879,13.875-27.615c8.538-5.736,19.077-5.736,27.749,0
		c1.601,1.067,3.068,2.268,4.402,3.602v-6.27h17.076V102.991z M74.641,69.772c-0.534-5.07-2.535-9.605-6.404-12.274
		c-4.535-3.068-11.473-3.068-16.009,0c-4.535,3.068-6.537,8.805-6.537,14.942s2.002,11.873,6.537,14.941
		c4.536,3.068,11.474,3.068,16.009,0c3.869-2.668,5.87-7.204,6.404-12.273V69.772z"/>
	<path fill="#FFFFFF" d="M133.605,48.027c1.468-1.334,2.936-2.668,4.536-3.735c8.538-5.603,19.077-5.603,27.749,0
		c8.538,5.736,13.874,16.275,13.874,27.749s-5.336,22.012-13.874,27.749c-8.672,5.736-19.211,5.736-27.749,0
		c-1.601-1.067-3.068-2.268-4.536-3.735v6.937h-17.076V11.74h-4.136V0h21.212V48.027z M133.605,75.108
		c0.534,5.07,2.669,9.605,6.404,12.14c4.535,3.068,11.606,3.068,16.009,0c4.535-3.068,6.537-8.671,6.537-14.808
		s-2.002-11.874-6.537-14.942c-4.402-3.068-11.474-3.068-16.009,0c-3.735,2.668-5.87,7.071-6.404,12.274V75.108z"/>
	<path fill="#FFFFFF" d="M254.605,95.12c-2.001,2.001-4.27,3.735-6.671,5.069c-10.005,5.737-22.146,5.737-32.15,0
		c-9.873-5.736-16.01-16.275-16.01-27.749s6.137-22.012,16.01-27.749c10.005-5.736,22.146-5.736,32.15,0
		c2.401,1.468,4.67,3.068,6.671,5.07l-11.206,11.073c-0.935-1.334-2.001-2.535-3.469-3.469c-4.536-3.068-11.606-3.068-16.143,0
		s-6.67,8.805-6.67,15.075s2.134,12.007,6.67,15.075c4.536,3.202,11.606,3.202,16.143,0c1.468-0.934,2.534-2.135,3.469-3.469
		L254.605,95.12z"/>
	<path fill="#FFFFFF" d="M319.439,102.991v-6.937c-1.467,1.334-2.935,2.668-4.535,3.735c-8.538,5.603-19.077,5.603-27.749,0
		c-8.538-5.737-13.874-16.276-13.874-27.749s5.336-22.012,13.874-27.749c8.672-5.737,19.211-5.737,27.749,0
		c1.601,1.067,3.068,2.268,4.535,3.735V11.74h-4.136V0h21.212v102.991H319.439z M319.439,69.639
		c-0.533-5.069-2.668-9.605-6.403-12.14c-4.536-3.068-11.606-3.068-16.009,0c-4.536,3.068-6.537,8.672-6.537,14.809
		s2.001,11.873,6.537,14.941c4.402,3.068,11.473,3.068,16.009,0c3.735-2.668,5.87-7.204,6.403-12.273V69.639z"/>
	<path fill="#00C800" d="M375.336,77.777c0.4,3.602,2.802,7.737,5.737,9.739c4.669,3.202,11.739,3.202,16.275,0
		c1.334-0.934,2.802-1.734,3.735-3.068L411.89,95.12c-2.001,2.001-4.136,3.735-6.67,5.203c-9.872,5.603-22.146,5.603-32.018,0
		c-9.872-5.737-16.01-16.409-16.01-27.882s6.138-22.012,16.01-27.749c9.872-5.736,22.146-5.736,32.018,0
		c10.006,5.737,15.342,15.476,14.141,33.085H375.336z M403.352,67.237c-0.934-4.002-2.801-7.737-6.003-9.872
		c-4.536-3.068-11.606-3.068-16.275,0c-3.068,2.135-5.07,5.87-6.004,9.872H403.352z"/>
	<path fill="#FFFFFF" d="M447.108,31.484c0.534-16.009,8.805-22.546,18.544-22.413c11.74,0.133,16.275,7.337,16.275,7.337
		l-6.67,11.34c-2.001-2.135-5.47-3.335-8.538-1.601s-2.936,8.671-2.936,8.671v8.405h8.938V59.9h-8.938v43.091h-16.676V59.9h-8.938
		V43.224h8.938V31.484z"/>
	<path fill="#FFFFFF" d="M71.04,222.991c0,45.759-54.697,32.284-60.701,24.547l7.471-13.475c2.002,0.801,10.006,6.671,23.747,5.069
		c5.736-0.667,12.273-4.802,12.273-15.875v-0.934c-1.334,1.467-2.935,2.802-4.536,3.868c-8.671,5.737-19.21,5.737-27.748,0
		c-8.672-5.736-14.008-16.275-14.008-27.748c0-11.474,5.336-22.013,14.008-27.749c8.538-5.736,19.077-5.736,27.748,0
		c1.602,1.067,3.202,2.401,4.536,3.869v-6.404h17.21V222.991z M53.83,198.844c0-6.27-2.001-11.873-6.537-14.941
		s-11.473-3.068-16.009,0s-6.537,8.672-6.537,14.941c0,6.137,2.001,11.74,6.537,14.809s11.473,3.068,16.009,0
		S53.83,204.98,53.83,198.844z"/>
	<path fill="#FFFFFF" d="M138.942,197.91c0-9.472-3.335-15.342-12.674-15.342c-9.338,0-12.674,7.471-12.674,16.143v30.684H96.519
		v-91.251h-4.135v-11.74h21.211v51.229c6.671-13.074,21.746-11.606,26.682-10.406c9.205,2.401,15.742,10.806,15.742,26.548
		l0.134,35.62h-17.21V197.91z"/>
	<path fill="#FFFFFF" d="M181.632,229.394V179.9h-4.136v-11.74h21.212v61.234H181.632z M178.697,147.882
		c0-6.27,5.069-11.473,11.473-11.473c6.271,0,11.473,5.203,11.473,11.473c0,6.404-5.202,11.473-11.473,11.473
		C183.767,159.355,178.697,154.286,178.697,147.882z"/>
	<path fill="#00C800" d="M226.321,254.475V179.9h-4.002v-11.74h21.212v86.315H226.321z M223.521,147.882
		c0-6.27,5.069-11.473,11.339-11.473c6.404,0,11.474,5.203,11.474,11.473c0,6.271-5.069,11.473-11.474,11.473
		C228.59,159.355,223.521,154.153,223.521,147.882z"/>
	<path fill="#FFFFFF" d="M326.108,229.394h-19.611l-12.14-24.014h-6.137v24.014h-17.076v-81.245h-4.136v-11.74h21.212v51.762h2.401
		l15.875-20.012h22.813l-21.879,27.082L326.108,229.394z"/>
	<path fill="#FFFFFF" d="M352.788,229.394v-81.112h-4.136V136.41h21.212v92.985H352.788z"/>
	<path fill="#FFFFFF" d="M480.592,197.91c0-9.338-3.469-15.208-12.674-15.208c-8.404,0-11.873,5.87-12.54,13.341v33.352h-17.076
		V197.91c0-9.338-3.335-15.208-12.674-15.208c-9.338,0-12.674,7.471-12.674,16.142v30.551h-17.076v-49.628h-4.002V168.16h21.078
		v9.605c6.671-13.074,21.746-11.606,26.682-10.405c5.604,1.467,10.272,5.202,12.94,11.473c10.807-14.941,24.414-12.674,29.35-11.473
		c9.072,2.401,15.609,10.806,15.609,26.548l0.134,35.486h-17.077V197.91z"/>
	<path fill="#FFFFFF" d="M46.56,318.313c0-9.472-3.469-15.342-12.674-15.342c-9.339,0-12.674,7.471-12.674,16.143v30.684H4.136
		v-49.494H0v-11.74h21.212v9.473c6.67-13.074,21.745-11.606,26.682-10.272c9.071,2.268,15.742,10.672,15.742,26.548l0.133,35.486
		H46.56V318.313z"/>
	<path fill="#00C800" d="M147.681,318.98c0,11.474-6.004,22.013-16.009,27.749c-9.872,5.736-22.013,5.736-31.885,0
		c-10.006-5.736-16.009-16.275-16.009-27.749c0-11.34,6.003-22.012,16.009-27.749c9.872-5.603,22.013-5.603,31.885,0
		C141.677,296.968,147.681,307.64,147.681,318.98z M123.801,303.905c-4.536-3.068-11.606-3.068-16.143,0
		c-4.536,3.202-6.67,8.938-6.67,15.075c0,6.271,2.134,12.007,6.67,15.075s11.606,3.068,16.143,0c4.535-3.068,6.67-8.805,6.67-15.075
		C130.471,312.843,128.336,307.107,123.801,303.905z"/>
	<path fill="#FFFFFF" d="M188.902,294.833c1.334-1.334,2.802-2.535,4.402-3.603c8.538-5.736,19.211-5.736,27.749,0
		c8.538,5.737,13.874,16.276,13.874,27.749c0,11.34-5.336,21.879-13.874,27.615c-8.538,5.737-19.211,5.737-27.749,0
		c-1.601-1.067-3.068-2.268-4.402-3.602v31.885h-17.21v-74.575h-4.002v-11.74h21.212V294.833z M188.902,321.915
		c0.533,5.069,2.535,9.605,6.403,12.273c4.402,3.068,11.474,3.068,16.009,0c4.402-3.068,6.537-8.806,6.537-14.942
		s-2.135-11.873-6.537-14.941c-4.535-3.068-11.606-3.068-16.009,0c-3.868,2.668-5.87,7.204-6.403,12.273V321.915z"/>
	<path fill="#FFFFFF" d="M316.839,374.878H300.43v-34.152c-1.334,1.2-2.668,2.401-4.269,3.468c-8.138,5.47-18.277,5.47-26.549,0
		c-8.271-5.47-13.34-15.608-13.34-26.548s5.069-21.078,13.34-26.548c8.271-5.47,18.411-5.47,26.549,0
		c1.601,0.934,2.935,2.135,4.269,3.469v-6.004h16.409V374.878z M300.43,315.378c-0.533-4.937-2.401-9.205-6.137-11.74
		c-4.269-2.935-10.939-2.935-15.342,0c-4.269,2.936-6.271,8.405-6.271,14.274c0,5.87,2.002,11.34,6.271,14.275
		c4.402,2.935,11.073,2.935,15.342,0c3.735-2.535,5.604-6.805,6.137-11.74V315.378z"/>
	<path fill="#FFFFFF" d="M359.527,298.168c6.671-13.074,21.745-11.873,26.682-10.539c1.734,0.4,3.202,1.201,4.669,2.001
		l-10.272,16.009c-2.001-1.734-4.803-2.668-8.404-2.668c-9.339,0-12.674,7.471-12.674,16.143v30.684h-17.076v-49.494h-4.269v-11.74
		h21.345V298.168z"/>
	<path fill="#00C800" d="M444.239,307.507c-4.536-4.937-12.273-6.671-16.81-5.47c-3.202,0.801-4.536,3.869-2.802,6.27
		c2.268,3.068,10.673,3.736,18.01,8.139c14.942,8.938,13.475,26.014,0.134,32.151c-8.805,4.002-21.612,3.735-32.018-2.002
		c-2.668-1.601-7.071-4.136-9.072-6.403l8.538-11.606c1.868,2.135,7.204,4.937,10.539,6.537c6.271,2.668,15.609,3.869,16.943-1.601
		c1.067-4.402-6.271-6.537-11.474-8.139c-8.671-2.801-15.342-5.736-18.01-12.807c-2.935-8.138-0.4-20.011,13.875-24.28
		c7.203-2.135,14.274-1.067,19.344,0.667c5.604,2.001,9.205,5.069,11.74,7.871L444.239,307.507z"/>
	<path fill="#FFFFFF" d="M497.335,305.639v44.158h-17.077v-44.158h-9.205v-17.076h9.205V259.48h17.077v29.083h9.205v17.076H497.335z
		"/>
	<path fill="#FFFFFF" d="M45.225,470.201v-9.472c-6.537,12.94-21.479,11.606-26.682,10.272C9.472,468.6,2.935,460.329,2.935,444.453
		v-35.486h16.942v31.484c0,9.205,3.603,15.476,12.808,15.476s12.54-7.738,12.54-16.409v-30.551h17.21v49.628h4.002v11.606H45.225z"
		/>
	<path fill="#FFFFFF" d="M112.327,470.201l-27.882-61.234h22.412l11.606,39.889l11.606-39.889h22.546l-27.882,61.234H112.327z"/>
	<path fill="#00C800" d="M243.332,470.201h-11.873l-13.207-37.354l-13.208,37.354h-11.739l-26.015-61.234h21.345l10.272,39.889
		l10.006-41.489h18.677l10.14,41.489l10.139-39.889h21.345L243.332,470.201z"/>
	<path fill="#FFFFFF" d="M348.855,470.201h-17.877l-14.274-18.811l-14.408,18.811h-17.743l21.745-32.552l-21.745-28.683h23.213
		l8.938,13.208l8.805-13.208h23.347l-21.879,28.683L348.855,470.201z"/>
	<path fill="#FFFFFF" d="M374.869,495.282l14.274-36.421l-24.947-49.895h19.478l14.141,33.085l11.74-33.085h19.478l-37.221,86.315
		H374.869z"/>
	<path fill="#FFFFFF" d="M505.605,453.125v17.076h-64.169l29.75-44.024h-27.349v-17.21h61.768l-32.151,44.158H505.605z"/>
</g>
</svg>
