<?xml version="1.0" encoding="utf-8"?>
<!-- Generator: Adobe Illustrator 17.1.0, SVG Export Plug-In . SVG Version: 6.00 Build 0)  -->
<!DOCTYPE svg PUBLIC "-//W3C//DTD SVG 1.1//EN" "http://www.w3.org/Graphics/SVG/1.1/DTD/svg11.dtd">
<svg version="1.1" id="Layer_1" xmlns="http://www.w3.org/2000/svg" xmlns:xlink="http://www.w3.org/1999/xlink" x="0px" y="0px"
	 viewBox="0 0 823.935 930.566" enable-background="new 0 0 823.935 930.566" xml:space="preserve">
<g>
	<path fill="#1AA5CB" d="M411.979,518.875C145.222,518.875,0,675.352,0,900h100.269c0-168.909,109.88-286.567,311.687-286.567
		S723.666,731.091,723.666,900h100.269C823.935,675.352,678.713,518.875,411.979,518.875z"/>
	<path fill="#1AA5CB" d="M411.979,439.191c119.373,0,209.749-102.713,209.749-238.629C621.705,92.091,525.736,0,411.979,0
		S202.23,92.091,202.23,200.561C202.23,336.478,292.606,439.191,411.979,439.191z M411.979,79.637
		c67.253,0,126.728,57.454,126.728,122.311c0,89.883-54.235,157.606-126.728,157.606S285.251,291.83,285.251,201.948
		C285.251,137.115,344.702,79.637,411.979,79.637z"/>
</g>
</svg>
