<?xml version="1.0" encoding="utf-8"?>
<!-- Generator: Adobe Illustrator 17.1.0, SVG Export Plug-In . SVG Version: 6.00 Build 0)  -->
<!DOCTYPE svg PUBLIC "-//W3C//DTD SVG 1.1//EN" "http://www.w3.org/Graphics/SVG/1.1/DTD/svg11.dtd">
<svg version="1.1" id="Layer_1" xmlns="http://www.w3.org/2000/svg" xmlns:xlink="http://www.w3.org/1999/xlink" x="0px" y="0px"
	 viewBox="0 0 38 36.992" enable-background="new 0 0 38 36.992" xml:space="preserve">
<g>
	<path fill="#1AA5CB" d="M31.347,15.008v5.132h-5.132v-5.132H31.347 M32.29,14.066h-7.017v7.017h7.017V14.066L32.29,14.066z"/>
	<path fill="#1AA5CB" d="M31.347,24.485v5.132h-5.132v-5.132H31.347 M32.29,23.542h-7.017v7.017h7.017V23.542L32.29,23.542z"/>
	<path fill="#1AA5CB" d="M21.566,15.008v5.132h-5.132v-5.132H21.566 M22.508,14.066h-7.017v7.017h7.017V14.066L22.508,14.066z"/>
	<rect x="15.492" y="23.542" fill="#1AA5CB" width="7.017" height="7.017"/>
	<g>
		<path fill="#1AA5CB" d="M32.29,0v4.205c0,1.041-0.844,1.885-1.885,1.885h-1.113c-1.041,0-1.885-0.844-1.885-1.885V0H11.009v4.205
			c0,1.041-0.844,1.885-1.885,1.885H8.011c-1.041,0-1.885-0.844-1.885-1.885V0H0v36.992h38V0H32.29z M34.514,33.392H3.485V11.12
			h31.029V33.392z"/>
	</g>
	<path fill="#1AA5CB" d="M12.151,24.485v5.132H7.02v-5.132H12.151 M13.094,23.542H6.077v7.017h7.017V23.542L13.094,23.542z"/>
</g>
</svg>
