<?xml version="1.0" encoding="utf-8"?>
<!-- Generator: Adobe Illustrator 17.1.0, SVG Export Plug-In . SVG Version: 6.00 Build 0)  -->
<!DOCTYPE svg PUBLIC "-//W3C//DTD SVG 1.1//EN" "http://www.w3.org/Graphics/SVG/1.1/DTD/svg11.dtd">
<svg version="1.1" id="Layer_1" xmlns="http://www.w3.org/2000/svg" xmlns:xlink="http://www.w3.org/1999/xlink" x="0px" y="0px"
	 viewBox="0 0 33.483 33.483" enable-background="new 0 0 33.483 33.483" xml:space="preserve">
<g>
	<path fill="#1AA5CB" d="M30.976,33.483l-7.571-7.571c-2.529,1.975-5.635,3.062-8.918,3.062c-3.86,0-7.498-1.509-10.25-4.237
		C1.509,22.007,0,18.369,0,14.487c0-3.882,1.509-7.521,4.237-10.25C6.988,1.509,10.626,0,14.487,0c3.882,0,7.521,1.509,10.25,4.237
		c2.751,2.729,4.26,6.367,4.26,10.25c0,3.283-1.109,6.389-3.084,8.918l7.571,7.571L30.976,33.483z M14.487,25.298
		c2.889,0,5.602-1.116,7.66-3.173c2.035-2.035,3.152-4.749,3.152-7.638s-1.116-5.602-3.152-7.66
		c-2.057-2.035-4.771-3.152-7.66-3.152S8.884,4.792,6.849,6.827c-2.057,2.057-3.173,4.771-3.173,7.66s1.116,5.602,3.152,7.638
		C8.884,24.182,11.598,25.298,14.487,25.298z"/>
</g>
</svg>
