<?xml version="1.0" encoding="utf-8"?>
<!-- Generator: Adobe Illustrator 17.1.0, SVG Export Plug-In . SVG Version: 6.00 Build 0)  -->
<!DOCTYPE svg PUBLIC "-//W3C//DTD SVG 1.1//EN" "http://www.w3.org/Graphics/SVG/1.1/DTD/svg11.dtd">
<svg version="1.1" id="Layer_1" xmlns="http://www.w3.org/2000/svg" xmlns:xlink="http://www.w3.org/1999/xlink" x="0px" y="0px"
	 width="826.8px" height="1070.3px" viewBox="0 0 826.8 1070.3" enable-background="new 0 0 826.8 1070.3" xml:space="preserve">
<g>
	<polygon fill="#00A5CD" points="282.6,566 328.2,611.8 403.2,611.8 403.2,634.2 425.6,634.2 425.6,589.4 337.5,589.4 314.2,566 
		337.5,542.6 455,542.6 455,589.4 432.7,589.4 432.7,611.8 477.4,611.8 477.4,520.2 328.2,520.2 	"/>
	<polygon fill="#00A5CD" points="500.6,451.1 425.6,451.1 425.6,428.6 403.2,428.6 403.2,473.4 491.3,473.4 514.6,496.8 
		491.3,520.2 484.5,520.2 484.5,542.6 500.6,542.6 546.3,496.8 	"/>
	<polygon fill="#00A5CD" points="373.8,473.4 396.2,473.4 396.2,451.1 351.4,451.1 351.4,513.2 373.8,513.2 	"/>
</g>
<line fill="none" stroke="#EC008C" stroke-width="0.1" stroke-miterlimit="10" x1="373.8" y1="18.2" x2="373.8" y2="1046.1"/>
<line fill="none" stroke="#EC008C" stroke-width="0.1" stroke-miterlimit="10" x1="396.2" y1="18.2" x2="396.2" y2="1046.1"/>
<line fill="none" stroke="#EC008C" stroke-width="0.1" stroke-miterlimit="10" x1="403.2" y1="18.2" x2="403.2" y2="1046.1"/>
<line fill="none" stroke="#EC008C" stroke-width="0.1" stroke-miterlimit="10" x1="425.6" y1="18.2" x2="425.6" y2="1046.1"/>
<line fill="none" stroke="#EC008C" stroke-width="0.1" stroke-miterlimit="10" x1="24.3" y1="428.6" x2="803.6" y2="428.6"/>
<line fill="none" stroke="#EC008C" stroke-width="0.1" stroke-miterlimit="10" x1="24.3" y1="451.1" x2="803.6" y2="451.1"/>
<line fill="none" stroke="#EC008C" stroke-width="0.1" stroke-miterlimit="10" x1="24.3" y1="473.4" x2="803.6" y2="473.4"/>
<line fill="none" stroke="#EC008C" stroke-width="0.1" stroke-miterlimit="10" x1="24.3" y1="513.2" x2="803.6" y2="513.2"/>
<line fill="none" stroke="#EC008C" stroke-width="0.1" stroke-miterlimit="10" x1="24.3" y1="520.2" x2="803.6" y2="520.2"/>
<line fill="none" stroke="#EC008C" stroke-width="0.1" stroke-miterlimit="10" x1="477.4" y1="18.2" x2="477.4" y2="1046.1"/>
<line fill="none" stroke="#EC008C" stroke-width="0.1" stroke-miterlimit="10" x1="484.5" y1="18.2" x2="484.5" y2="1046.1"/>
<line fill="none" stroke="#EC008C" stroke-width="0.1" stroke-miterlimit="10" x1="432.7" y1="18.2" x2="432.7" y2="1046.1"/>
<line fill="none" stroke="#EC008C" stroke-width="0.1" stroke-miterlimit="10" x1="455" y1="18.2" x2="455" y2="1046.1"/>
<line fill="none" stroke="#EC008C" stroke-width="0.1" stroke-miterlimit="10" x1="24.3" y1="589.4" x2="803.6" y2="589.4"/>
<line fill="none" stroke="#EC008C" stroke-width="0.1" stroke-miterlimit="10" x1="24.3" y1="611.8" x2="803.6" y2="611.8"/>
<line fill="none" stroke="#EC008C" stroke-width="0.1" stroke-miterlimit="10" x1="24.3" y1="634.2" x2="803.6" y2="634.2"/>
<line fill="none" stroke="#EC008C" stroke-width="0.1" stroke-miterlimit="10" x1="24.3" y1="542.6" x2="803.6" y2="542.6"/>
<line fill="none" stroke="#EC008C" stroke-width="0.1" stroke-miterlimit="10" x1="351.4" y1="18.2" x2="351.4" y2="1046.1"/>
<line fill="none" stroke="#EC008C" stroke-width="0.1" stroke-miterlimit="10" x1="725.2" y1="977.1" x2="-34.2" y2="217.7"/>
<line fill="none" stroke="#EC008C" stroke-width="0.1" stroke-miterlimit="10" x1="656.3" y1="939.7" x2="0" y2="283.4"/>
<line fill="none" stroke="#EC008C" stroke-width="0.1" stroke-miterlimit="10" x1="925.9" y1="876.6" x2="149.7" y2="100.4"/>
<line fill="none" stroke="#EC008C" stroke-width="0.1" stroke-miterlimit="10" x1="956.9" y1="939.1" x2="84" y2="66.2"/>
<line fill="none" stroke="#EC008C" stroke-width="0.1" stroke-miterlimit="10" x1="106.7" y1="936.3" x2="899" y2="144"/>
<line fill="none" stroke="#EC008C" stroke-width="0.1" stroke-miterlimit="10" x1="48.6" y1="962.9" x2="904.2" y2="107.3"/>
<line fill="none" stroke="#EC008C" stroke-width="0.1" stroke-miterlimit="10" x1="-18" y1="898.1" x2="779.7" y2="100.4"/>
<line fill="none" stroke="#EC008C" stroke-width="0.1" stroke-miterlimit="10" x1="-43.1" y1="891.6" x2="782.4" y2="66.2"/>
</svg>
