<?xml version="1.0" encoding="utf-8"?>
<!-- Generator: Adobe Illustrator 17.1.0, SVG Export Plug-In . SVG Version: 6.00 Build 0)  -->
<!DOCTYPE svg PUBLIC "-//W3C//DTD SVG 1.1//EN" "http://www.w3.org/Graphics/SVG/1.1/DTD/svg11.dtd">
<svg version="1.1" id="Layer_1" xmlns="http://www.w3.org/2000/svg" xmlns:xlink="http://www.w3.org/1999/xlink" x="0px" y="0px"
	 viewBox="0 0 40.89 38.202" enable-background="new 0 0 40.89 38.202" xml:space="preserve">
<g>
	<polygon fill="#1AA5CB" points="35.204,5.66 35.204,15.443 37.824,15.443 37.824,35.035 10.528,35.035 10.528,33.95 7.462,33.95 
		7.462,38.202 40.89,38.202 40.89,5.66 	"/>
	<path fill="#1AA5CB" d="M28.405,12.374h-6.173v6.173h6.173V12.374z M27.576,17.717h-4.514v-4.514h4.514V17.717z"/>
	<rect x="22.233" y="20.71" fill="#1AA5CB" width="6.173" height="6.173"/>
	<rect x="13.628" y="12.374" fill="#1AA5CB" width="6.173" height="6.173"/>
	<path fill="#1AA5CB" d="M19.801,20.71h-6.173v6.173h6.173V20.71z M18.972,26.054h-4.514v-4.514h4.514V26.054z"/>
	<path fill="#1AA5CB" d="M33.429,0h-5.023v3.699c0,0.916-0.742,1.658-1.658,1.658h-0.979c-0.916,0-1.658-0.742-1.658-1.658V0H9.685
		v3.699c0,0.916-0.742,1.658-1.658,1.658H7.047c-0.916,0-1.658-0.742-1.658-1.658V0H0v32.542h33.429V0z M30.362,29.375H3.066V9.783
		h27.297V29.375z"/>
	<path fill="#1AA5CB" d="M11.519,20.71H5.346v6.173h6.173V20.71z M10.69,26.054H6.175v-4.514h4.514V26.054z"/>
</g>
</svg>
