<?xml version="1.0" encoding="utf-8"?>
<!-- Generator: Adobe Illustrator 17.1.0, SVG Export Plug-In . SVG Version: 6.00 Build 0)  -->
<!DOCTYPE svg PUBLIC "-//W3C//DTD SVG 1.1//EN" "http://www.w3.org/Graphics/SVG/1.1/DTD/svg11.dtd">
<svg version="1.1" id="Layer_1" xmlns="http://www.w3.org/2000/svg" xmlns:xlink="http://www.w3.org/1999/xlink" x="0px" y="0px"
	 width="379.4px" height="100.9px" viewBox="0 0 379.4 100.9" enable-background="new 0 0 379.4 100.9" xml:space="preserve">
<g>
	<g>
		<path fill="#9BDBEA" d="M50.4,0C22.6,0,0,22.6,0,50.4c0,27.8,22.6,50.4,50.4,50.4s50.4-22.6,50.4-50.4C100.9,22.6,78.2,0,50.4,0z
			 M50.4,95.7c-25,0-45.2-20.3-45.2-45.2c0-24.9,20.3-45.2,45.2-45.2s45.2,20.3,45.2,45.2C95.7,75.4,75.4,95.7,50.4,95.7z"/>
		<polygon fill="#9BDBEA" points="16.7,59.3 28.4,71 47.6,71 47.6,76.7 53.3,76.7 53.3,65.3 30.8,65.3 24.8,59.3 30.8,53.3 
			60.8,53.3 60.8,65.3 55.1,65.3 55.1,71 66.5,71 66.5,47.6 28.4,47.6 		"/>
		<polygon fill="#9BDBEA" points="72.5,29.9 53.3,29.9 53.3,24.2 47.6,24.2 47.6,35.6 70.1,35.6 76.1,41.6 70.1,47.6 68.3,47.6 
			68.3,53.3 72.5,53.3 84.1,41.6 		"/>
		<polygon fill="#9BDBEA" points="40,35.6 45.8,35.6 45.8,29.9 34.3,29.9 34.3,45.8 40,45.8 		"/>
	</g>
	<g>
		<path fill="#FFFFFF" d="M128.6,56.7c0,3,0.9,5.4,2.6,7.3c1.7,1.9,4.2,2.9,7.5,2.9c3.3,0,5.8-1,7.5-2.9c1.7-1.9,2.6-4.3,2.6-7.3
			V25.1h10v32.5c0,2.8-0.5,5.3-1.6,7.6c-1,2.2-2.5,4.1-4.3,5.7c-1.8,1.6-4,2.7-6.4,3.6c-2.4,0.8-5.1,1.2-7.9,1.2
			c-2.8,0-5.4-0.4-7.8-1.2c-2.5-0.8-4.6-2-6.4-3.6c-1.8-1.6-3.2-3.5-4.3-5.7c-1-2.2-1.6-4.8-1.6-7.6V25.1h10V56.7z"/>
		<path fill="#FFFFFF" d="M162.8,74.7V38.9h8.8l0.4,2.8c1.5-1.2,3.2-2.1,5.1-2.7c1.9-0.6,3.9-1,5.8-1c2,0,3.8,0.3,5.5,0.9
			c1.7,0.6,3.1,1.5,4.3,2.7c1.2,1.2,2.1,2.8,2.8,4.8c0.7,2,1,4.4,1,7.1v21.2h-9.7V54.3c0-2.7-0.6-4.8-1.8-6.3
			c-1.2-1.5-2.8-2.2-5-2.2c-1.5,0-2.9,0.4-4.2,1.1c-1.3,0.7-2.4,1.6-3.3,2.5v25.4H162.8z"/>
		<path fill="#FFFFFF" d="M200.3,74.7V38.9h9.7v35.8H200.3z"/>
		<path fill="#FFFFFF" d="M227.8,74.7L212,38.9h10.3l9.9,23.8l9.5-23.8h9.9l-15.4,35.8H227.8z"/>
		<path fill="#FFFFFF" d="M259.5,59.1c0.2,3,1.2,5.2,2.8,6.5c1.6,1.3,3.4,2,5.4,2c1.7,0,3.3-0.3,4.7-0.9c1.4-0.6,2.8-2,4.3-4
			l7.2,4.4c-2,3.1-4.4,5.3-7.1,6.6c-2.7,1.3-5.8,1.9-9.4,1.9c-2.4,0-4.6-0.4-6.8-1.1c-2.1-0.7-4-1.9-5.6-3.5
			c-1.6-1.6-2.9-3.5-3.8-5.8c-0.9-2.3-1.4-5.1-1.4-8.3c0-3,0.5-5.7,1.4-8c0.9-2.3,2.2-4.3,3.8-5.9c1.6-1.6,3.4-2.8,5.5-3.6
			c2.1-0.8,4.3-1.3,6.7-1.3c5,0,9,1.7,12.1,5.2c3,3.5,4.6,8.8,4.7,15.9H259.5z M274,52.5c-0.2-2.4-1-4.2-2.4-5.3
			c-1.4-1.2-2.9-1.8-4.5-1.8c-0.8,0-1.7,0.2-2.5,0.5c-0.8,0.3-1.6,0.8-2.3,1.4c-0.7,0.6-1.3,1.4-1.7,2.3c-0.5,0.9-0.8,1.9-0.9,3H274
			z"/>
		<path fill="#FFFFFF" d="M287.2,74.7V38.9h8.8l0.4,2.8c1.5-1.2,3.2-2.1,5.1-2.7c1.9-0.6,3.9-1,5.8-1c2,0,3.8,0.3,5.5,0.9
			c1.7,0.6,3.1,1.5,4.3,2.7c1.2,1.2,2.1,2.8,2.8,4.8c0.7,2,1,4.4,1,7.1v21.2h-9.7V54.3c0-2.7-0.6-4.8-1.8-6.3
			c-1.2-1.5-2.8-2.2-5-2.2c-1.5,0-2.9,0.4-4.2,1.1c-1.3,0.7-2.4,1.6-3.3,2.5v25.4H287.2z"/>
		<path fill="#FFFFFF" d="M337.1,64.6c0,1.1,0.3,1.9,0.8,2.3c0.5,0.4,1,0.6,1.5,0.6c1,0,2-0.2,2.9-0.7c0.9-0.5,1.8-1,2.5-1.6
			l3.5,6.6c-1.6,1.1-3.4,2-5.2,2.6c-1.8,0.7-3.7,1-5.8,1c-1.2,0-2.5-0.2-3.6-0.5s-2.2-0.9-3.2-1.6c-0.9-0.7-1.7-1.7-2.2-2.9
			c-0.6-1.2-0.9-2.7-0.9-4.4V46.3h-5.3v-7.4h5.3v-9.3h9.7v9.3h8.7v7.4h-8.7V64.6z"/>
		<path fill="#FFFFFF" d="M354.9,62.7c0.8,1.6,2,2.9,3.5,4c1.5,1.1,3.4,1.6,5.7,1.6c2,0,3.5-0.3,4.6-0.9c1.1-0.6,1.7-1.5,1.7-2.6
			c0-1-0.6-2-1.8-2.7c-1.2-0.8-3.4-1.5-6.6-2.1c-1.9-0.3-3.6-0.8-5.2-1.4c-1.6-0.6-2.9-1.3-4-2.2c-1.1-0.9-1.9-2-2.5-3.2
			c-0.6-1.2-0.9-2.7-0.9-4.5c0-3.2,1.3-5.7,4-7.7c2.6-2,6.2-3,10.7-3c4.1,0,7.3,0.7,9.7,2c2.4,1.3,4.2,2.9,5.5,4.8l-6.8,4.7
			c-0.9-1.2-2-2.2-3.4-3c-1.4-0.8-3-1.2-4.9-1.2c-2.1,0-3.5,0.3-4.3,0.9c-0.8,0.6-1.2,1.4-1.2,2.4c0,1.1,0.5,2,1.5,2.5
			c1,0.5,2.8,1,5.5,1.6c2.2,0.4,4.1,1,5.8,1.6c1.7,0.6,3.2,1.3,4.3,2.3s2.1,2,2.7,3.3c0.6,1.3,0.9,2.8,0.9,4.5c0,1.9-0.4,3.6-1.2,5
			c-0.8,1.4-1.9,2.6-3.3,3.5c-1.4,0.9-3,1.6-4.9,2c-1.9,0.4-3.9,0.7-6,0.7c-4.3,0-7.7-0.8-10.4-2.4c-2.7-1.6-4.7-3.6-6.1-6.1
			L354.9,62.7z"/>
	</g>
</g>
</svg>
