<svg xmlns="http://www.w3.org/2000/svg" width="193" height="211" viewBox="0 0 193 211">
  <g fill="#FFFFFF" fill-rule="evenodd">
    <circle cx="116.1" cy="68.7" r="2.4"/>
    <circle cx="131.6" cy="78.1" r="2.6"/>
    <circle cx="146.3" cy="88.7" r="3"/>
    <circle cx="159.9" cy="100.6" r="3.8"/>
    <circle cx="171.9" cy="114.1" r="4.8"/>
    <circle cx="181.4" cy="129.5" r="6"/>
    <circle cx="184.1" cy="147.1" r="7.4"/>
    <path d="M171.5,150.2 C167.2,150.2 163.6,153.3 162.9,157.4 C161.4,153.8 157.8,151.3 153.6,151.3 C150.5,151.3 147.7,152.8 145.9,155 C144.2,151.1 140.2,148.3 135.6,148.3 C133.2,148.3 130.9,149.1 129.1,150.4 C127.2,146.1 123,143.1 118,143.1 C116.1,143.1 114.2,143.6 112.6,144.4 C110.7,139.8 106.2,136.5 100.9,136.5 C99.4,136.5 97.9,136.8 96.5,137.3 C94.7,132.3 90,128.7 84.4,128.7 C83.2,128.7 82,128.9 80.9,129.2 C79.4,123.8 74.5,119.8 68.6,119.8 C67.7,119.8 66.7,119.9 65.9,120.1 C64.8,114.3 59.7,110 53.6,110 C52.8,110 52.1,110.1 51.4,110.2 C50.9,104 45.8,99.2 39.5,99.2 C38.9,99.2 38.2,99.3 37.6,99.4 C37.6,99 37.7,98.7 37.7,98.3 C37.7,92.2 32.8,87.3 26.7,87.3 C26.1,87.3 25.6,87.4 25,87.5 C25.5,86.4 25.7,85.1 25.7,83.8 C25.7,78.4 21.3,73.9 15.8,73.9 C15.2,73.9 14.6,74 14,74.1 C16.3,72.6 17.9,70 17.9,67 C17.9,62.3 14.1,58.5 9.4,58.5 C4.7,58.5 0.9,62.3 0.9,67 C0.9,71.7 4.7,75.5 9.4,75.5 C9.9,75.5 10.4,75.4 10.8,75.4 C7.9,77.1 6,80.2 6,83.8 C6,89.2 10.4,93.7 15.9,93.7 C16.2,93.7 16.5,93.6 16.8,93.6 C16.1,95.1 15.7,96.7 15.7,98.4 C15.7,104.5 20.6,109.4 26.7,109.4 C27.1,109.4 27.4,109.3 27.7,109.3 C27.6,109.9 27.5,110.6 27.5,111.2 C27.5,117.8 32.8,123.1 39.4,123.1 C39.9,123.1 40.4,123 41,122.9 C41.2,129.7 46.7,135.1 53.5,135.1 C54.3,135.1 55.1,135 55.9,134.9 C56.9,141 62.2,145.6 68.5,145.6 C69.7,145.6 70.9,145.4 72,145.1 C73.5,150.5 78.4,154.5 84.3,154.5 C86,154.5 87.5,154.2 89,153.6 C90.8,158.4 95.4,161.8 100.8,161.8 C103,161.8 105.1,161.2 106.9,160.2 C108.8,164.4 113,167.3 117.9,167.3 C120.8,167.3 123.4,166.2 125.5,164.5 C127.3,168.2 131.1,170.7 135.5,170.7 C139.3,170.7 142.6,168.8 144.6,166 C146.3,169.2 149.6,171.4 153.5,171.4 C158.6,171.4 162.8,167.6 163.4,162.7 C164.8,165.7 167.8,167.8 171.4,167.8 C176.2,167.8 180.2,163.9 180.2,159 C180.2,154.1 176.3,150.2 171.5,150.2 L171.5,150.2 Z"/>
    <circle cx="15.9" cy="51.2" r="7.2"/>
    <circle cx="33" cy="45.8" r="5.8"/>
    <circle cx="51.1" cy="46.3" r="4.6"/>
    <circle cx="68.9" cy="49.7" r="3.6"/>
    <circle cx="86.2" cy="55.1" r="2.9"/>
    <circle cx="102.9" cy="62" r="2.5"/>
    <circle cx="77.9" cy="68.7" r="2.1"/>
    <circle cx="62.5" cy="78" r="2.3"/>
    <circle cx="48" cy="88.5" r="2.7"/>
    <circle cx="22.4" cy="113.7" r="4.6"/>
    <circle cx="12.8" cy="128.9" r="5.8"/>
    <circle cx="9.7" cy="146.3" r="7.2"/>
    <path d="M192.6,69.5 C192.6,64.8 188.8,60.9 184,60.9 C179.3,60.9 175.4,64.7 175.4,69.5 C175.4,72.2 176.7,74.6 178.6,76.2 C178,76.1 177.4,76 176.7,76 C171.2,76 166.8,80.4 166.8,85.9 C166.8,87.1 167,88.2 167.4,89.2 C166.8,89.1 166.3,89 165.7,89 C159.6,89 154.6,94 154.6,100.1 C154.6,100.4 154.7,100.6 154.7,100.9 C154.1,100.8 153.5,100.7 152.8,100.7 C146.6,100.7 141.5,105.5 140.9,111.5 C140.2,111.4 139.4,111.3 138.7,111.3 C132.7,111.3 127.6,115.6 126.4,121.2 C125.5,121 124.6,120.9 123.7,120.9 C117.9,120.9 113,124.8 111.4,130.1 C110.3,129.8 109.1,129.6 107.9,129.6 C102.4,129.6 97.7,133.1 95.9,138.1 C94.5,137.6 93.1,137.3 91.5,137.3 C86.3,137.3 81.8,140.5 79.9,145.1 C78.3,144.3 76.5,143.8 74.5,143.8 C69.6,143.8 65.4,146.8 63.5,151 C61.7,149.7 59.4,148.8 57,148.8 C52.5,148.8 48.6,151.5 46.9,155.4 C45.1,153.1 42.3,151.6 39.2,151.6 C35,151.6 31.4,154.2 30,157.9 C29.5,153.6 25.9,150.3 21.5,150.3 C16.8,150.3 12.9,154.1 12.9,158.9 C12.9,163.6 16.7,167.5 21.5,167.5 C25,167.5 28,165.4 29.4,162.3 C29.8,167.4 34,171.4 39.2,171.4 C43,171.4 46.3,169.2 47.9,166.1 C49.9,169 53.2,170.9 57,170.9 C61.3,170.9 65,168.4 66.8,164.9 C68.9,166.7 71.5,167.8 74.5,167.8 C79.3,167.8 83.4,164.9 85.3,160.8 C87.1,161.8 89.2,162.5 91.4,162.5 C96.7,162.5 101.2,159.2 103.1,154.5 C104.6,155.1 106.2,155.4 107.8,155.4 C113.6,155.4 118.5,151.5 120.1,146.2 C121.2,146.5 122.4,146.7 123.6,146.7 C129.9,146.7 135.1,142.2 136.2,136.3 C137,136.4 137.8,136.5 138.6,136.5 C145.3,136.5 150.8,131.2 151.1,124.6 C151.6,124.7 152.1,124.8 152.7,124.8 C159.3,124.8 164.7,119.4 164.7,112.8 C164.7,112.3 164.6,111.7 164.5,111.2 C164.8,111.2 165.2,111.3 165.5,111.3 C171.6,111.3 176.6,106.3 176.6,100.2 C176.6,98.6 176.3,97.2 175.7,95.8 C176,95.8 176.2,95.9 176.5,95.9 C182,95.9 186.4,91.5 186.4,86 C186.4,82.7 184.8,79.9 182.4,78.1 C182.8,78.2 183.3,78.2 183.8,78.2 C188.8,78 192.6,74.2 192.6,69.5 L192.6,69.5 Z"/>
    <circle cx="180" cy="52.8" r="7.2"/>
    <circle cx="163.6" cy="46.1" r="5.8"/>
    <circle cx="145.7" cy="46" r="4.6"/>
    <circle cx="110.7" cy="54.1" r="2.7"/>
    <circle cx="94" cy="60.7" r="2.3"/>
    <circle cx="128" cy="49" r="3.5"/>
    <circle cx="136.6" cy="103.4" r="3.6"/>
    <circle cx="135.9" cy="85.3" r="2.8"/>
    <circle cx="133" cy="64.6" r="2.6"/>
    <circle cx="123.7" cy="32.6" r="4"/>
    <circle cx="114.7" cy="16.9" r="5"/>
    <circle cx="100.6" cy="6" r="6"/>
    <circle cx="84.1" cy="11.4" r="7.2"/>
    <circle cx="73.5" cy="26" r="8.3"/>
    <path d="M116.7,178 C111.6,178 107.4,182.1 107.4,187.3 C107.4,188.3 107.6,189.2 107.9,190.1 C106.6,189.6 105.2,189.3 103.8,189.3 C101.1,189.3 98.6,190.4 96.7,192.1 C94.8,188.7 91.3,186.5 87.2,186.3 C87.3,185.6 87.4,184.8 87.4,184 C87.4,178.7 84,174.2 79.3,172.5 C79.9,171 80.3,169.3 80.3,167.6 C80.3,162.8 77.6,158.7 73.7,156.5 C74.7,154.6 75.4,152.5 75.4,150.2 C75.4,145.8 73.2,141.9 69.9,139.6 C71.3,137.5 72.1,135.1 72.1,132.4 C72.1,128.3 70.2,124.8 67.2,122.4 C69,120.2 70.2,117.4 70.2,114.4 C70.2,110.6 68.5,107.3 65.9,105 C68.2,102.8 69.6,99.7 69.6,96.3 C69.6,92.7 68,89.6 65.6,87.4 C68.4,85.3 70.2,82 70.2,78.3 C70.2,74.9 68.7,71.9 66.4,69.8 C69.9,68.1 72.3,64.5 72.3,60.4 C72.3,57.1 70.7,54.1 68.3,52.2 C72.7,51.4 76,47.5 76,42.9 C76,37.7 71.8,33.4 66.5,33.4 C61.3,33.4 57,37.6 57,42.9 C57,45.7 58.3,48.3 60.3,50 C55.2,50.7 51.2,55.1 51.2,60.4 C51.2,63.3 52.4,65.9 54.3,67.8 C50.3,69.5 47.4,73.6 47.4,78.2 C47.4,81.3 48.7,84.2 50.7,86.2 C47.5,88.4 45.3,92.1 45.3,96.2 C45.3,99.7 46.8,102.8 49.1,105 C46.5,107.3 44.9,110.6 44.9,114.3 C44.9,118.2 46.7,121.6 49.5,123.9 C47.5,126.2 46.3,129.1 46.3,132.3 C46.3,136.6 48.5,140.5 51.8,142.8 C50.4,144.9 49.5,147.4 49.5,150.1 C49.5,155 52.3,159.3 56.3,161.4 C55.3,163.2 54.7,165.2 54.7,167.4 C54.7,173.1 58.4,177.8 63.6,179.5 C63.1,180.9 62.8,182.3 62.8,183.9 C62.8,190.7 68.3,196.2 75.1,196.2 L75.4,196.2 C75.3,196.7 75.3,197.2 75.3,197.7 C75.3,204.1 80.4,209.2 86.8,209.2 C90.1,209.2 93,207.8 95.1,205.6 C97,208.4 100.2,210.2 103.8,210.2 C109.6,210.2 114.3,205.5 114.3,199.7 C114.3,198.4 114,197.1 113.6,195.9 C114.6,196.3 115.6,196.5 116.7,196.5 C121.8,196.5 126,192.4 126,187.2 C126,182.1 121.9,178 116.7,178 L116.7,178 Z"/>
    <path d="M125.6,164.5 C123.6,166.2 121,167.2 118.1,167.3 C117.4,168.5 117,169.8 117,171.2 C117,175.6 120.5,179.1 124.9,179.1 C129.3,179.1 132.8,175.6 132.8,171.2 C132.8,170.9 132.7,170.6 132.7,170.4 C129.7,169.5 127.1,167.3 125.6,164.5 L125.6,164.5 Z"/>
  </g>
</svg>
