<?xml version="1.0" encoding="utf-8"?>
<!-- Generator: Adobe Illustrator 17.1.0, SVG Export Plug-In . SVG Version: 6.00 Build 0)  -->
<!DOCTYPE svg PUBLIC "-//W3C//DTD SVG 1.1//EN" "http://www.w3.org/Graphics/SVG/1.1/DTD/svg11.dtd">
<svg version="1.1" id="Layer_1" xmlns="http://www.w3.org/2000/svg" xmlns:xlink="http://www.w3.org/1999/xlink" x="0px" y="0px"
	 width="600px" height="430.5px" viewBox="0 0 600 430.5" enable-background="new 0 0 600 430.5" xml:space="preserve">
<g>
	<defs>
		<rect id="SVGID_1_" x="0" y="0" width="600" height="430.5"/>
	</defs>
	<clipPath id="SVGID_2_">
		<use xlink:href="#SVGID_1_"  overflow="visible"/>
	</clipPath>
	<path clip-path="url(#SVGID_2_)" d="M20.9,54.6c0.9-2.4,6.7-10.3,10.2-12.1c1.5-0.8,2.8-1.3,3.9-1.6c1.2-0.4,2.1-0.7,2.6-1.4
		c0.6-0.7,0.9-2.3,1.1-3.6c0.1-0.7,0.2-1.3,0.4-1.8c0.4-1.1,1.2-2,2.3-3.1c0.3-0.3,0.6-0.6,0.9-1c0.3-0.3,0.7-0.7,1-1.1
		c1.3-1.4,2.6-2.9,4-3.5c1.6-0.8,2.7-1,3.7-1.2c1.1-0.2,2.2-0.4,4.2-1.5c2.6-1.5,8.2-3.7,10.8-4.7c4.3-1.7,7-4.5,9.2-6.8
		c1.2-1.3,2.3-2.4,3.4-3c1.1-0.5,2.3-0.8,3.4-1c1-0.2,2-0.4,2.6-0.8c1.4-0.8,2.1-2.1,2.4-4.2c0.3-1.7,3-2.3,5.2-2.3
		c1.3,0,3,0.2,3.7,0.8c0.8,0.6,1.1,1.5,1.4,2.3c0.3,0.7,0.5,1.2,0.8,1.4c0.9,0.6,3.4,1.7,5,1.9c2.1,0.2,4.8,0.7,5.9,2
		c2.4,2.8,3.3,5.5,2.7,8C109.2,26.4,99.5,35,95,36.8c-2.9,1.2-3,4.1-3.1,5.8c0,0.8,0,1.2-0.3,1.4c-0.2,0.3-0.1,2.2-0.1,3.7
		c0.1,2.1,0.1,4.4-0.2,5.4c-0.3,1.1-1.5,2.9-2.4,4.3c-0.5,0.8-1.1,1.7-1.2,2c0.3,0.5,3,3.3,6.4,5.2c2.6,1.5,6.2,2.3,6.9,2.3
		c1.7-0.1,2.2-1.2,2.5-2c0.2-0.6,0.5-1.1,1.1-1c0.4,0.1,0.6,0.4,0.8,0.9c0.2,0.9,0.1,2.3-0.7,2.9c-0.1,0.1-0.1,0.1-0.1,0.1
		c0.2,0.6,2.3,1.5,3,1.5c0.8,0,2.6-0.4,4.1-0.7c1.3-0.3,2.4-0.6,2.9-0.6c0.2,0,0.4,0,0.5,0.2c0.1,0.1,0.1,0.2,0,0.3
		c-0.6,1.8-3.9,2.9-5.9,3.6c-0.2,0.1-0.4,0.1-0.5,0.2c1,0.4,2.9,1.5,3.5,2.6c0.2,0.4,0.3,0.8,0.2,1.2c-0.1,0.2-0.2,0.5-0.7,0.5
		c-0.5,0-1.2-0.3-2.1-0.7c-1.2-0.5-2.8-1.2-4.1-1.2h-0.2c-2.2,0-8.2,0-10.9-0.4c-2.7-0.4-12.8-5.6-13.9-7.1
		c-0.4-0.6-2.2-2.2-2.3-3.3c-0.7-4.8-0.3-8.4,0.5-10.5c0.9-2.4,3.4-3.4,3.4-3.4s-2.3,0.6-3.4,2.9c-1.1,2.3-1.9,7.2-1.5,11.8
		c-0.1,0,0.3-0.3,0.3-0.2c-3.1,2.5-6.3,4.9-7.9,5.1c-0.8,0.1-2,0.2-2.7,0.3c1.4-1.8,8.1-10.9,0.9-15.2c-2.3-1.4-7.4-2.7-13.5-1.7
		c-6.5,1-10.8,5.2-10.8,5.2s8-7.1,19.2-4.9c11.3,2.2,6.5,11,6.1,11.9c-0.3,0.7-2,3.6-4,5.2c-0.4,0.1-0.4,0.1-0.7,0.3
		c-1.2,0.5-4.5,2.7-5.9,3.7c-1.9,0-12.8,0-15.2,3.1C43,77.6,43,77.6,43,77.6c0-0.1,0.1-0.1,0.1-0.2c0.4-0.5,2-1.8,7.9-2.2
		c1.7-0.1,7.3-0.1,7.3-0.1s7.3-0.8,10.1-1c1.1-0.1,1.9-0.1,2.3-0.2c0.7,0,1.7-0.1,3-0.1c1.4,0,2.9,0,4.2,0c0.9,0,1.7,0,2.2,0
		c4.6,0,14.4,1.7,16.8,2.6c1,0.4,2.5,1.1,3.9,1.9c2.4,1.3,2.4,1.6,2.3,1.8c0,0.1-0.1,0.3-0.4,0.3c-0.1,0-0.3,0-0.5-0.1
		c-2-0.5-10.5-2.5-15.3-2.5c-0.6,0-1.2,0-1.7,0.1c-1.5,0.2-2.3,0.7-2.4,1.2c-0.1,0.2,0.2,0.4,0.3,0.5c3.5,2.2,3.9,2.9,3.9,3.3
		c0,0.2-0.1,0.3-0.3,0.4c-0.2,0.1-0.4,0.1-0.6,0.1c-0.9,0-2.2-0.7-3.7-1.4c-2.1-1-4.6-2.3-6.9-2.3c-0.2,0-0.3,0-0.5,0
		c-3.2,0.3-7.5,1.7-10.9,2.8c-1.3,0.4-2.5,0.8-3.5,1.1c-2.5,0.7-7.5,1.2-12.4,1.2c-3.6,0-6.4-0.2-8-0.7c-3.2-0.9-7.1-2.9-7.5-7.5
		c-0.2-1.7-1-3.8-0.4-4.4c10.7-10.4,18-7.8,18-7.8C44.5,61.7,33.7,68,31.6,72c-1.2-0.5-2.5-1.4-3-3.8c-0.2-0.8-0.6-1.5-0.9-2.1
		c-0.5-0.9-2-2.3-1.8-3.3c1.4-2,2-2.9,2.5-5.6c0.2-1.3-0.9,4.7-3.9,5.3c-1.4,0-2-0.5-2.7-1.1C20.2,59.8,19.8,57.6,20.9,54.6"/>
	<path clip-path="url(#SVGID_2_)" d="M104.1,51.4c-2.4,0.3-2.8-0.1-3.9,1.1c-1.1,1.1-3.6,4.4-4.3,4c-0.6-0.4,1.6-3.1,1.3-4.3
		c-0.4-1.3-1.2-2.2-2.5-2.1c-0.6,0.1-1.4,0.1-2,0.2c0-0.6,0-1.3,0-2c0-0.2,0-0.5,0-0.7c1.1,0,2.3-0.3,2.4-1.4
		c0.1-0.8-0.7-1.8-2.1-2.3c0-0.2,0-0.5,0-0.8c0-1.4,0.1-3.4,1.6-4.8c1.6,1.9,4.4,5,6.4,5.7c2.4,0.8,6.3,2.3,8.8,1.2
		c2.4-1,1,0.8,0.5,1c-0.5,0.2-3.2,1.5-3.1,2.4c0.1,0.9,3,4.3,4,4.5c1.1,0.3,1.4,1.9,0.7,2.1C111.2,55.5,106.6,51.1,104.1,51.4"/>
	<path clip-path="url(#SVGID_2_)" fill="#FFFFFF" d="M240.5,224.8c-1.4-0.8,0.8-0.6,1.4-0.2c0.6,0.4-0.2-1.3-1.3-1.8
		c-0.6-0.3-1.2-1-1.8-1.7c-3.8-1.5-9-3.2-12.5-3.2c-0.9,0-1.6,0.1-2.1,0.3c-2.6,1.1-3.5,2-4.3,2.8c-0.2,0.2-0.5,0.5-0.7,0.7
		c2.3,0.9,6.9,2.7,8.5,4.2c2.2,2.1,4.4,4.9,6.8,5.8c2.4,0.9,7.1,1.7,8.3,1.2c1.2-0.4,2.9-2.4,2.1-4.1
		C244,227.1,241.9,225.7,240.5,224.8"/>
	<path clip-path="url(#SVGID_2_)" fill="#FFFFFF" d="M214.9,191.1c0.2,0.7,0.3,1.2,1.4,1.7c1.8,0.9,3.9,1.3,6.2,1.3
		c2.2,0,4.6-0.4,7.5-1.1c3.1-0.8,6.1-1.1,8.8-1.2c1.8-1.7,4.3-3.8,4.5-4.5c0.3-1-2.8-3.4-4.4-4.3c-1.6-0.9-5.1-0.4-7.2,0
		c-2.2,0.4-6.8,3.3-8.4,4.6c-1.2,1-6.3,2-8.8,2.4C214.7,190.4,214.8,190.8,214.9,191.1"/>
	<path clip-path="url(#SVGID_2_)" fill="#FFFFFF" d="M192.2,186.5c-0.1-0.2-0.1-0.4,0-0.5c1.7-3.1,3.9-3.6,6.2-4c0,0-0.6-0.8-2-0.7
		c-0.4,0.1,1.3-1.9,3.1-2.5c0.5-0.2-1.5-1.1-3.1-0.3c-0.7,0.4,0.6-1.9,2-3.4c0.8-0.8,2-1.2,2-1.2c0-0.3-1.3-0.7-2.6-0.1
		c0,0-0.2-0.4,0.2-1.1c0.2-0.4,1.3-0.7,1.2-0.9c-0.1-0.2-17.2,4.1-21.9,14.2C181.4,186.1,186.9,186.3,192.2,186.5"/>
	<path clip-path="url(#SVGID_2_)" fill="#FFFFFF" d="M276.9,213.7c-0.4-0.6,0.9-1.7,1-2.5c0-0.3-0.5-2.1-1-2.2
		c-0.6-0.2-2,0.4-2.6-0.4c-0.6-0.8-0.3-1.7,0.4-2.1c0,0-2-0.6-2-1.4c0,0,1.2,0.5,1.8-0.4c0,0-2.1-0.2-2.4-1.7c0,0,1.5,0.3,1.8-0.1
		c0,0-2.1-0.3-2.2-1.1c0,0,0.8,0.4,1.5-0.1c0,0-2.2-0.5-2-1.1c0.1-0.3,1.7,0,1.7,0c-0.3-0.4-3.3-1-2.7-1.2c0.3-0.2,1.5,0.1,1.4,0
		c-0.5-0.2-2.3-0.9-2.2-1l1.7,0.1c-0.7-0.7-3.9-1.3-3.8-2.1c0,0,2.4,0.7,2.3,0.7c-0.8-0.4-3-1.8-3-1.8l2.1,0.4c-1.4-1.2-4.7-2-4.7-2
		c0.7-0.1,2.8,0.1,2.8,0.1c-0.4-0.6-3.9-1.2-3.9-1.2s0.5-0.3,2.7-0.2l-4.2-0.7l3.5-0.2c-1.5-1.2-4-1.4-9.9-1.5s-5.4,1.9-9.4,2.4
		c-4,0.5-9.7,0.1-15.5,1.6c-5.8,1.5-10.3,1.6-14.2-0.2c-2.9-1.3-0.5-3.1-3.9-4.4c-2.6-0.9-24.8-2.3-36.2-2.3
		c-9.4,0-33.7,3.5-38.7,4.3c-5.2,0.9-15.1,4.9-15.3,8.3c-0.1,1.3,3.1,3.5,4.2,3.5c1.1,0,2.2-0.6,3.6,0.1c1.4,0.7,0.8,1.6,0.4,1.7
		c-0.4,0.1-9.3-0.7-9.5,0c-0.2,0.7-0.2,1.5,0.2,1.7c0.4,0.2,1.5,1.4,1.8,1.7c4.7,5.9,19.8,11.2,22.3,11.6c2.5,0.4,5.9-0.3,7.8-0.4
		c1.9-0.1,5.5,0.7,6.7,0.7c1.2,0,3-0.5,4.3-0.5c1.3,0,4.4,1.5,6.1,1.7c1.5,0.1,2.3-0.7,3.3-0.6c-0.1-0.4-0.2-0.9-0.6-1.4
		c-1.7-1.9-2.7-1.2-3.8-3c0,0,0.7,1.2,2.4,1.6c1,0.3,2.3,1.5,2.5,2.8c1.2,1.6,3.8,6,5.7,5.8c2.2-0.3,1-3.5,0.8-3.7
		c-0.2-0.3,1.2-0.7,2-0.9c0.8-0.2,3.5,0.7,4.2,0.7c0.7-0.1,0.4-0.7,1.2-0.7c2.2,0.1,4.4,3.1,4.4,3.1s0.8-1,0.8-1.9
		c0-0.3-0.2-0.8-0.4-1.1c-0.3-0.1-0.8-0.5-1.1-1.1c-0.8-1.8-1.7-5-4.4-5.7c-4.1-1.2-17.6-3.9-18.9-7.4c0-0.1,0-0.1,0-0.1
		c0,0,0,0.1,0,0.1c0.2,0.4,1.6,2.4,9.6,4.7c3.2,0.9,8.7,0.9,11.7,2.9c1.4,0.9,3,4.6,3.6,6.2c4.5,0.4,11.4,5.3,13,5.6
		c2,0.4,3.1,0,3.9-0.1c1.3-0.2,5.7,0.8,5.7,0.8s-0.2-0.9-1.1-1.5c-0.8-0.6-0.4-1-1.6-1.7c-2-1.2-12.7-4.6-12.7-4.6s15,1.6,17.2,1
		c2.2-0.6,1.6-2.1,6.4-4.2c4.8-2.1,19.8,4.8,19.8,4.8c2,0.8,12.3,7.2,12.3,7.2c0.5-0.1,0.4-1.2,0.5-1.7c0,0,3.4,0.4,4,0.1
		c0.6-0.3,1.5,0,2.3,1l1-1.6c0,0,1.6-0.3,2.6,0.2c0,0,0.2-0.9-1.2-1.3c0,0,1.3-0.2,2.3,0.2c0,0,0.3-0.7-1.1-1.5l2,0.6
		c0,0,0.3-0.9-1-1.5c0,0,1.9,0.3,2.3,0.3c0.4-0.1,0.3-1.2,0.3-1.7c0,0,1.3-0.1,1.9-0.6c0.6-0.6,1.4-2.1,1.1-2.8c0,0,1.2,0.2,2,0.1
		s1.4-0.8,2.3-2c1-1.3,1.2-3,1.2-3C278.1,213.7,277.4,214.5,276.9,213.7"/>
	<path clip-path="url(#SVGID_2_)" fill="#FFFFFF" d="M172.7,223C172.7,223,172.7,223,172.7,223L172.7,223z"/>
	<path clip-path="url(#SVGID_2_)" fill="#FFFFFF" d="M176.2,30.1c2.2,0.6,5.4,1.8,8.8,4.5c1.3,1,2.4,2,3.6,3
		c6.6,5.6,11.3,9.2,17.9,9.2c0.6,0,1.2,0,1.8-0.1c4.6-0.5,8.2-2,12.7-4.4c3.2-1.7,6.8-3.6,11.6-5.6c6.6-2.6,23.3-5.4,41.3-5.4
		c7.9,0,15.4,0.5,22.2,1.6c9.2,1.4,18.1,4.8,24.5,7.3c15.9,6.2,18.3,10.5,18.3,12.5c0,1.7-3.1,3.5-5.6,4.9c-1.8,1-3.4,2-4.2,2.9
		c-3.2,4-10.2,7.1-25.8,11.4c-9.9,2.7-18.3,3.1-25.1,3.1c-3.5,0-6.9-0.1-10.6-0.2c-2.1-0.1-4.2-0.1-6.3-0.2
		c-8.7-0.2-19.2-3.3-30.5-9c-9-4.6-15.7-9.4-17.4-10.8c-2.6-2.1-5.6-2.9-8.4-2.9c-3,0-10,4-14.5,8c-3.1,2.8-8.4,5.7-11.8,7.3
		c0.2-0.5,0.3-1,0.3-1.6l0-1.3c0.6-0.5,1-1,1.2-1.6c0.2-0.5,0.1-1-0.1-1.5c-0.3-0.6-0.8-0.9-1.4-0.9c-0.2,0-0.5,0-0.7,0.1
		c1.9-1.4,5-2.4,6.4-2.4c0.1,0,0.1,0,0.2,0c0.1,0,0.1,0,0.1,0c0.4,0,0.6-0.2,0.7-0.4l0.2-0.3l-0.2-0.4c-0.4-0.6-2.4-0.7-3.3-0.7
		c-0.4,0-0.8,0-1.2,0c1-0.7,2.4-1.4,3.6-1.8c3.7-1.3,3.9-2.4,3.8-4.7c0-0.2,0-0.3,0-0.5c0-3.2-3-6.7-5.9-10.1
		c-2.1-2.4-1.6-4.3-4.7-6.7C177.3,31.6,176.8,30.8,176.2,30.1"/>
	<path clip-path="url(#SVGID_2_)" fill="#FFFFFF" d="M273.5,30.2c-3.8,0-7.5,0.1-11.2,0.3c1.4-1,1.5-4,2-5.6c0.6-1.9-1.3-1.9,0-3.3
		c1.3-1.4,1.8-0.7,3-2c1.2-1.3-3.9-5.4-2.9-5.9c1-0.5-0.1-5.8,1.7-5c6,2.7,22.1,19.1,25.2,22.4C285.4,30.4,279.4,30.2,273.5,30.2"/>
	<path clip-path="url(#SVGID_2_)" fill="#FFFFFF" d="M234.2,35.1L234.2,35.1c1.5-0.5,2.7-2,3.7-2.4c1-0.4-0.5-2.1,0-2
		c0.5,0.1,1.2-0.3,1.3-0.9c0.1-0.6,0.3-3.2,0.9-2.6c0.5,0.6,1.7-0.3,2.1-1.5c0.3-1.1-0.3-2.7,0.4-2.7c0.8,0,8.3,8.8,8.3,8.8l0,0
		C243.9,32.6,238.1,33.9,234.2,35.1"/>
	<path clip-path="url(#SVGID_2_)" fill="#FFFFFF" d="M271.7,76.3c1.6,0,3.2,0,4.7,0c4,0,8-0.1,12-0.4c-2.5,3.8-12.2,18.4-15.6,17.3
		c-2-0.6-0.2-3.4-1.4-6.3c-1.6-3.7-2.7-5.9-3.4-6.8C267.4,79.2,270.5,78.3,271.7,76.3"/>
	<path clip-path="url(#SVGID_2_)" fill="#FFFFFF" d="M247.1,73.5L247.1,73.5c0.1,2.8-7.2,9-8.3,9.5c-1,0.5-3.3-5.8-3.8-6.7
		c-0.6-0.9,0-1.5,0-2.5c0-1-3-3.7-3.7-5.2c-0.7-1.5-1.7-2.3-1.7-2.3h0C234.8,69,240.9,71.6,247.1,73.5"/>
	<path clip-path="url(#SVGID_2_)" d="M448.8,164.6c-1.9-0.6-3.6-1.7-5.8-1.7c-5.8-0.2-6.2,1-7,1.4c-0.8,0.3-2.8-0.1-3.9,0.2
		c-1.1,0.3-3.8,2-4.9,2.7c-1.2,0.7-7.9,4.3-12.6,5.3c-4.7,1-13.1,3.4-17.5,3.4c-4.3,0-16.8,0.9-18.9,1.2c-2.1,0.3-15,3.5-17.2,3.7
		c-2.2,0.1-22,2.4-27.5,5.4c-5.5,3.1-16.8,8.9-15.6,21.1c1.2,12.2,12.5,19.6,26.3,23.9c20.7,6.4,40.3,8.6,48,8
		c7.7-0.6,10.3-3.1,9.9-5c-0.7-3.2-5.5-3.4-6.6-2.7c-0.2,0.1,1.8,0.3,2.6,0.5c1.4,0.3,2.6,1.7,1.7,2.6c-4.5,4.3-14.6,3.8-38.8-2.9
		c-4.8-1.3-17-5.7-24.4-10.7c-4.1-2.8-8-6.9-7.6-11.9c0.5-8,11.5-12.1,17.9-12.3c4.5-0.2,9,0.2,11.1,0c-0.6-0.8-1.4-1.9-1.4-2.8
		c0-1.3,0.3-2.1,0.8-2.3c0,0-0.2,0.3-0.3,0.6c-0.2,0.7-0.2,1.6-0.1,1.9c0.1,0.2,1.5,1.8,2.4,2.5c2,0.8,6.9,5.6,8.7,5.8
		c1.1,0.1-1.6,4.3-0.5,6.5c0.5,1-2,1.8-2.2,1.8c-4.5-0.5-3,3.1-2.1,3.1c0,0-0.2-1.7,1-2c0.9-0.2,3.4-0.3,4.6,0.1
		c1.2,0.5,1.7,1,2.2,1.8c0.5,0.8,1.1,2.5,1.2,3.6c0,1.1,0.3,2.6,0.4,5c0,0.6,1.2,1.1,1,2c-0.1,1,0.2,1.5,0.2,1.5
		c0.8-0.3,1.2-2.1,0.8-3.6c-0.4-1.4-0.7-3.6-0.9-4.5c-0.2-0.9-0.6-3.8-0.9-4.1c-0.2-0.2,1.8,0.1,2.5,1.1c0.7,0.9,1.3,2.5,1.6,3.2
		c0.3,0.7,0.2,1.3,0.7,1.7c0.5,0.3,1.4,0.5,1.8,1.3c0.4,0.7,0.5,1.1,0.6,1.5c0,0,1.1-0.8,0.4-2c-0.4-0.8-1.8-1.3-1.9-2.7
		c-0.2-2.4-2.7-4.5-2.7-4.7c-0.1-0.2,0.9,0.1,1.7,0.6c2.2,1.3,2.4,3,2.5,3.5c0,0.1,0.9-1.5,0.3-2.6c-0.6-1.1-2.2-2.2-2.5-2.7
		c-0.4-0.5-0.5-0.5,0-0.7c2.3-1.2,5.5-0.4,5.9-0.1c0.4,0.3-0.6-1.9-2.3-2.1c-1.7-0.2-2.5,0.2-3.3,0c-0.8-0.3-4.2-0.9-3.9-1.6
		c0.3-0.6,2.9-3.2,2.8-4.1c-0.1-0.9-1.3-3.2-1.9-3.4c0,0,0,0,0,0c-0.2-0.2-0.8-1-1.6-1.7c-1.6-1.6-3.7-3.5-4.2-3.9
		c-0.6-0.5,4,2.8,6.9,5.6c5.5,0.1,32.8,1.3,35-2.7c0,0,1.4-2.6,5.8-4.9c0,0-1.6,1.1-3.6,3.1c-1.3,1.3-2,2.5-2.4,3.2
		c-0.3,0.9-0.5,2.1,0,3.1c1,1.9,2.2,5,3.6,6.1c2,1.4,0.9,2.5,2.6,3c1.7,0.6,2.9,0.8,3.9,1.5c1,0.8,3.1,2.2,3.4,2.8
		c0.3,0.6,0.6,0.4,0.7,0.2c0.1-0.3-1.6-2.7-2.5-3.3c-0.9-0.6,1.5-0.3,2.4-0.2c0.9,0.2,3.6,1,4.2,1c0.6,0,1.5,0.5,1.7,0.3
		c0.2-0.1-1.1-0.6-1.9-1c-1.8-1.1-4.6-1.7-4.4-2c0.2-0.3,2.9-0.2,3.2,0.1c0.3,0.3,0.8,0.4,0.9,0.5c0,0-0.1-1.4-2.6-1.8
		c-1.6-0.3,0.3-0.4,2-0.4c1,0,2,0.2,1.9,0.1c-0.6-0.7-4.9-1.4-6-1.2c-1.2,0.3,2.4-1.2,3.8-1.3c0,0-2.6-1.3-5.5,0.5
		c-1,0.6-4.3-5.9-4.1-7.2c0.2-1.2,7-10.4,8.5-10.9s7.1-1,10.1-4.4c1.4-1.5,5.3-3.4,8.9-5.8c2.4-1.6,4.5-3.8,6.2-5.3
		c1.4-1.3,2.6-2.3,2.6-3.3C454.8,165.6,452,165.6,448.8,164.6"/>
	<path clip-path="url(#SVGID_2_)" d="M409.7,172.6c1.8-0.4,3.4-0.8,4.8-1.1c3.4-0.7,8-2.8,10.6-4.2c-0.4-0.1-0.8-0.2-1-0.2
		c-0.7,0-2.4,1.1-2.9,1.1c-0.5,0,1.2-1.3,1.7-1.7c0.5-0.4,1.4-1.9,1.2-2.4c-0.2-0.5-0.7-0.3-1.3,0.8c-0.5,1.1-4.4,3.3-4.8,3.2
		c-0.5,0,0-1.4,0.4-1.8c0.4-0.4,0.9-0.4,0.9-0.6c0-0.3-0.5-1-1.2-0.8c-0.7,0.2-1.2,3-2.2,3.3c-1.1,0.3-0.3-0.6-4.5,0.6
		c-2.5,0.7-2.8,2.6-2.6,4.1C409,172.8,409.4,172.7,409.7,172.6"/>
	<path clip-path="url(#SVGID_2_)" d="M371.2,177.7c3.3-0.8,6.1-1.4,7-1.5c0.5-0.1,1.5-0.2,2.9-0.3c-2.1-0.9-4.5-2.2-6.2-2.1
		c-2,0.1-7.5,3.5-10.7,5.5C366.2,178.8,368.8,178.2,371.2,177.7"/>
	<path clip-path="url(#SVGID_2_)" fill="#FFFFFF" d="M534.3,218.3C534.3,218.3,534.3,218.3,534.3,218.3"/>
	<path clip-path="url(#SVGID_2_)" fill="#FFFFFF" d="M549.7,216.2l5.8,6.2L546,216l3.9,6.8l-5.4-4.8l2,4.6l-4.8-4.8l-0.2-1.8
		l0.9-0.8l2.5-0.6l1.3-1.2l-0.1-2.7l-2.3-2.2l1.3-1.8l2.2-0.3l2.2,1.2l4.6,1.6h-5l1.8,1.4l-2.9,0.3l8.4,5l-6.1-1.8l10,8L549.7,216.2
		z M538.3,199.4l-0.9-1.5l-1,0.3l-1.5,1.6l-3.2,2.4l-3.7-6.2l3,2.5l-0.4-3.3l1.8,1.4l-0.8-6.3l3.3,6.3l0.1-7.3l1.2,3.1l0.5-7.1
		l1.2,8.5l1.3-1.5l0.5,3.5l2.2-4.1l-0.5,4.2l2.6-2.7l-1.2,5.2l1.6-1.7l-0.6,2.5l-1.9,2.5l-1.7-1L538.3,199.4z M534.8,219.9l-0.6,3.1
		c0-3.4,0-4.5,0-4.7l-3.1,4.9l1.2-5.6l-4.4,7.6l1.6-5.9l-6.2,6l4.8-6.7l-9.3,7.1l8.1-8.4l-4.4,2.4l4.7-4.4l-6.6,2.1l6.2-4.5
		l-6.1,2.2l5.4-3.1l-5.9,1.6l-0.3,0.1l7-3.7l-2.3-0.3l4.6-2.4h0.8l-1.1,3.7l1.7,0.7l-0.8,3.2l0.7,1.2l3.1-0.7l2.2,0.7
		C535.7,216.3,534.8,219.9,534.8,219.9 M583.5,228.3c0,0-5.4-0.4-2.5-7.5c0,0-9.3-0.6-17-11c0,0-2.4-3.8-18.1-4.4
		c0,0,0.4-2.1-0.8-2.4c0,0-1.8,0.2-2.4,0.9l-0.9-0.6l-0.1,0.1c0.1-0.1,1.8-2.3,2.1-2.5c0.3-0.2,1.3-2.5,2.2-2.7
		c0.9-0.2,1.8-6.7,2.7-6.8c0.9-0.1,0.7-5.7,1.2-5.8c0.5-0.1-1.5-4.9-1.5-4.9l-1.2-2.5l-0.2-1.2l0.8-1l0.8-1.4l-0.5-1.6l-1.5-0.5
		l0.1-2.4l0.7-1.1l0.5-1.1c0,0-0.3-1-0.2-1.2c0.1-0.2-1-0.5-1-0.5l-1.2-1.3l-0.5-1.2l0.1-0.9l-0.6-0.9l-1.5-1.5l-1.5-1.5l-1.9-0.9
		l-1.6-1.2l-0.9-1.1l-0.7-1.5c0,0-0.1,0-0.8-1.3c-0.4-0.7-0.7-1.4-0.7-1.4l-0.7,1.3v1.9l0.5,1l-0.1,0.9c0,0,2.2,1-0.5,1.6
		c-2.2,0.5-2.3,4.9-2.3,4.9v1.5l-0.7,0.5l-3-0.1l-2.7,2.3v1.6l-0.7,1.9c0,0-1.6,2.3-0.5,3.1c1.1,0.8,2.1,3.1,2.1,3.1l0.3,2.9
		c0,0-0.7,2.7-1.7,3.5c-1,0.8,0.6,2.9,0.6,2.9s0.4,11.3,1.8,11.3c1.5,0.1,2,3.7,2.5,4c0.5,0.3,1,1.2,1,1.2l-0.8,1.1l0.3,2.1
		c0,0-11.3,0.5-19.6,9c0,0-0.1,2.3-2.3,3.2c-2.1,0.9-6.4-0.1-6.4-0.1s-0.2,2-2.2,4.1c-1,1.1,0.2,1.5,0.2,1.5l-2.5,0.7
		c0,0,0.5,3.2,0,5.1c-0.3,1.2,2.2,2.4,4.6,2c0,0-1.2,3-3.2,3.1c-2,0.1-3.9,0.3-3.9,0.3s0.7,1.7-3,6.2c0,0,1.6,1.2,4.2,0.5
		c0,0,3,0.6,4.4,2.7c0.4,0.6,1.8,0.1,1.9-2.1c0,0,2.5-0.6,2.3,0.5c-0.2,0.8,4.8,5.1,11.6,0.6c0,0,8.1-3.2,7.3-6.8
		c0,0,13.9-6.5,14.2-20.8c0,0,16.2,22,18.3,16.8c0,0,2.5,1.9,4.7,1.3c0,0,2.6,5.4,5.1,4.4c0,0,3.4,3.2,7.3-0.4c0,0,1.4,3.8,4.4,0.6
		c0,0,3.3,1.7,5.2-0.8c0,0,4.8,0.4,4.9-0.6C587.6,237.1,583.1,233.9,583.5,228.3"/>
	<path clip-path="url(#SVGID_2_)" fill="#FFFFFF" d="M548.7,194.7c-0.7,2.6-1.1,3.6-1.7,3.8c-0.4,0.1-1.1,1.3-1.4,1.8
		c-0.3,0.5-0.4,0.7-0.6,0.9c-0.2,0.1-1.1,1.3-1.5,1.8c0,0,0,0,0,0l0.1,0.1c0.5-0.4,1.3-0.6,1.8-0.7c0.4-0.3,0.8-0.5,1.1-0.5
		c0,0,0,0.2,0.1,0.6c0.6,0.4,0.8,1.1,0.8,1.8c0.1,0,0.2,0,0.2,0c0,0,9,0.6,9.4,1.3l2.4-2.8c0,0,0.9-5.4,11.9-11.7
		c0,0,3.2-1.5,3.6-3.2c0.5-1.6-1.5-1-2.2-0.9c-0.7,0.1-8.1,4.4-14.8,4.2c0,0-7.1,1.4-8.9,2.2C549,193.8,548.9,194.3,548.7,194.7"/>
	<path clip-path="url(#SVGID_2_)" fill="#FFFFFF" d="M544.6,226c-2.6-3-5-6.1-6.3-7.8c-0.3,3.9-1.7,7.2-3.5,10
		c0.5,1.1,1.9,4,3.2,6.6c1.7,3.3,2.9,16.1,2.5,15.7c-0.5-0.4,0.9,2.9,2.4,2.7c0,0,1.5-1.5,2.6-9.7c0,0,2.1-11.5,3.4-12.7
		C547.8,229.5,546.4,228,544.6,226"/>
	<path clip-path="url(#SVGID_2_)" fill="#FFFFFF" d="M503.6,197.3c0,0,8.3,1.8,12,8.4c0,0,0.5,0.9,3.4,2.3c4.6-2,8.6-2.6,10-2.7
		l-0.2-1.7l0.7-1c-0.2-0.3-0.4-0.6-0.6-0.7c-0.3-0.2-0.5-0.6-0.8-1.4c-0.3-0.9-0.8-2.4-1.5-2.5c-0.6,0-1.1-0.4-1.6-3.5
		c-2.9,0.3-10.4,0.9-11.7-1.2c0,0-16.1-1.1-14.8,0.5C499.8,195.5,499.1,196.1,503.6,197.3"/>
	<path clip-path="url(#SVGID_2_)" d="M200.1,397.6c0.3,0.1,0.6,0.2,0.8,0.3C200.7,397.8,200.4,397.6,200.1,397.6"/>
	<path clip-path="url(#SVGID_2_)" d="M188,372.3c1.1,1.2,2.5,1.9,3.8,2.7C190.7,374.1,189.1,372,188,372.3"/>
	<path clip-path="url(#SVGID_2_)" d="M225.6,411.3c1.6,0.1-0.1,1.4,0.3,2.4C225.2,413.6,225.8,412.1,225.6,411.3 M226,398
		c1.6,1.5,0.3,5.8,0,7.5C225.6,403.4,224.7,399.7,226,398 M227.3,396.3c0.4,1.7,0.8,4.6,0.3,6.2C227,401.1,226.6,397.9,227.3,396.3
		 M230.4,401.4c2.1,0.3,3.7-2.3,5.1-3.8c-0.6-0.4-2,1.4-2.7,2.1c0.3-2.3,3.6-4.7,4.8-7.2c1.5,4.4-1,9.7-3.1,12.7
		c-0.6-0.9,0.6-2.8,0.7-4.1c-2,1.7-1,6.3-4.1,6.8c-0.1-3,0.2-5.5,2.4-6.2c-0.4-1.2-2.1,2.2-2.1,0.3c-0.4,1-1.1,1.6-1.7,2.4
		c2.9,0.2-1.9,4.3-2.1,4.8C227.4,406.1,230.1,404.7,230.4,401.4 M229.1,388.1c-1.1-1.5-0.5-4.7-0.7-7.2c-0.6,0.7-1.1,1.7-1.7,2.4
		c-0.8-1.8,1.2-3.9,1-6.2c0.4,0.7,1.5,2.4,0.7,3.1C230.7,380.7,228.7,384.8,229.1,388.1 M230.1,392.9c1.8-0.9,3-2.3,4.1-3.8
		c0.8,0.8,0.8,2.4,1.4,3.4c0.5-0.5,1.4-0.6,1.7-1.4c-0.9,2.3-3.4,5.6-5.5,6.5c0.4-1.7,0.9-3.2,1-5.1c-1.1,1.8-2.1,3.6-2.7,5.8
		C229,396.8,230.4,394.8,230.1,392.9 M229.7,382.9c1.1-0.4,0.3,1.1,1.4,0.7c0,1.7-0.7,2.7-0.7,4.5
		C229.4,387.2,229.8,384.8,229.7,382.9 M232.1,383.6c0.4,1.1,1.4,0.2,2.1-0.3c0.8,2.6-0.5,6.2-2.1,7.5c-0.5-1.5,1.7-3.3,1.7-5.5
		c-1,0.9-1.1,2.5-1.7,3.8c-1.2-0.5,0.4-2.9,0.3-4.5c-0.5,0.2-0.6,0.7-0.7,1.4C230.9,385.5,232,384.2,232.1,383.6 M231.4,353.5
		c2.3,1.5,1.3,6.2,2.1,9.2C232.3,360.2,232.2,356.5,231.4,353.5 M228,346.6c1.4,1.4,2.1,3.7,3.1,5.5
		C229.5,350.9,228.5,349,228,346.6 M229.7,344.9c2-0.3,2.6,3.8,2.4,6.8C231,349.9,230.8,346.9,229.7,344.9 M232.5,346
		c1.5,1.3,0.3,4.7,0.3,6.2C232,350.7,232.7,347.9,232.5,346 M233.5,344.2c2.3,0.1,0.7,5.1,0.3,7.5
		C232.9,350,233.9,345.5,233.5,344.2 M235.2,339.5c3.1,2.1,3.9,6.6,3.8,12c-1.3-2.4-1.6-5.7-2.4-8.6c-0.6,2.1,0.8,5.1,1,7.5
		c-1.4-2.3-1.9-5.4-3.8-7.2C234.3,342,235.4,341.3,235.2,339.5 M239.7,344.9c0,2.7,0.6,4.7,0.3,7.5c-1-2.1,0.1-5.4-1.4-7.5
		C238.9,344.3,239.3,344.9,239.7,344.9 M239.7,336.7c0.7,2.2,0.2,5.1,0,2.1C239.6,338,238.9,337.8,239.7,336.7 M241.4,353.1
		c1.1,2.3-1,4.5-1,6.8C239.8,358.2,240.1,354.3,241.4,353.1 M240.7,344.6C241.4,346.2,239.6,350.1,240.7,344.6 M241.4,343.6
		c1.9,0.7,0.8,4.1,0.3,5.5C240.9,347.9,241.6,345.3,241.4,343.6 M243.1,340.1c0.9,0.9,0.2,3.1-0.3,3.8
		C241.6,342.7,243.2,341.4,243.1,340.1 M244.1,347.3c-1.3,0.3-0.4-1.6-0.7-2.4C243.9,345.4,244,346.4,244.1,347.3 M246.5,353.1
		c-0.2,2.7-0.5,5.4-1,7.9c-0.4-0.1-0.9-0.6-0.3-0.7c-1.8-0.5-1.7-4.3-1-7.2c-0.9,0.3-0.1,2.2-1.4,2.1c0.2-2.7,0-3.7,0.7-5.8
		C244.8,350.3,245.3,352,246.5,353.1 M242.7,347.7c1.7,0.8-0.4,2.2-0.3,3.4C241.6,350.4,243.1,349,242.7,347.7 M240.7,362
		c-0.3-1.5,1.1-4.2,1.4-6.2C243.3,358.2,241.3,360.4,240.7,362 M240.3,371.3c0.6,0.5,1,6.4-0.7,6.8c0.1-2.3-0.6-3.7-0.3-6.2
		c0.6-0.9,0.2,2,0.3,2.7C240.6,374.2,239.5,371.8,240.3,371.3 M242.1,370.6c0.9,1.4,0,3.9-0.3,5.1
		C241.1,374.6,241.1,371.3,242.1,370.6 M242.1,368.5c0.7,0.3,0.5,2.5-0.7,2.1C241.3,369.6,242.2,369.6,242.1,368.5 M244.5,380.9
		c1.4,1-0.1,4.7-0.7,5.8c-0.8-1.2,0.5-3.2,0.7-4.5c-1.8,0.8-0.7,4.5-2.7,5.1C241.9,385,242,381.8,244.5,380.9 M244.5,367.9
		c0.9,3.4-1.1,6.9-1.4,10.3C242.9,374.7,242.5,370.2,244.5,367.9 M244.5,386c0.8,0.9-1.1,2.1-1.4,3.1
		C242.4,388.3,244.4,387.3,244.5,386 M247.2,385.7c0.6,2.2-2.7,3.5-4.1,4.8c-0.2-1,1.9-2.6,2.1-4.5
		C245.7,385.8,247.2,386.4,247.2,385.7 M249.9,376.4c-0.7,1.2-1.3,2.3-2.4,3.1c1.3,0.6,0.3,3-1,3.1c0.4-0.8,0.6-1.7,1-2.4
		c-0.9,0.5-1.2,1.5-1.7,2.4C246.1,380.1,246.1,376.4,249.9,376.4 M248.9,366.8c1-0.2,0.2,3-0.7,3.1
		C248.3,368.7,248.8,367.9,248.9,366.8 M251.3,366.8c0.6,0.8,0.9,1.8,1,3.1c-1.1,1.2-1.7,2.8-2.7,4.1
		C249.2,372.4,251,369.7,251.3,366.8 M253.7,369.6c-0.4,1.4-1.7,1.9-2.4,3.1C251.2,372.1,252.2,369.7,253.7,369.6 M250.6,374.7
		c-0.6-0.5,1.2-1.5,1.4-2.4C253.1,373.3,251.1,374.1,250.6,374.7 M252,379.5c0.6,1.9-1.5,4.2-3.1,5.1
		C248.2,382.6,251.3,381.3,252,379.5 M250.3,380.9c-0.5,1-1.6,1.4-2.1,2.4C247.6,382.5,249,380.9,250.3,380.9 M247.5,384.3
		c0.9,0.3-0.2,1.4-1,1C246.5,384.7,247.6,385.1,247.5,384.3 M248.2,393.2c-0.4-1.6,1.4-3.8,2.1-5.5c-0.7-0.6-1.3,1.9-2.1,2.4
		c-0.4,0.3,1-3.3,1.4-4.5c-1.4,2.1-2.2,4.8-3.1,7.5c-0.5-3.9,1.6-8.2,4.5-9.9C252.2,387.6,251.1,390.8,248.2,393.2 M241,395.6
		c0-2.5,2.7-5.3,4.8-6.8C247.5,391.6,242.9,394,241,395.6 M239.7,402.8c0-1.9,1.8-5.1,3.4-6.5c-2,0-3.5,3.6-4.1,6.2
		c-0.9-5.3,4.2-6.8,6.2-9.6C246.8,398.3,241.2,399.4,239.7,402.8 M238.6,388.7c1.1,0.3-0.4,0.9-0.3,1.4
		C237.2,389.8,238.7,389.2,238.6,388.7 M238.3,386.4c1.1,1.7-1,3.1-1.4,4.5C236.3,389.6,238.3,388.1,238.3,386.4 M235.6,359.6
		C236.5,361,234.4,361.9,235.6,359.6 M239,364.8c-0.7-0.3-0.7-1.3-0.7-2.4C239.5,362.8,239.2,363.5,239,364.8 M238,369.9
		c1.4,1.3,0.4,4.9,0.7,7.2C237.6,375.5,238,372.5,238,369.9 M236.9,370.6c1.5,0.6-0.4,3.6,0.7,5.1
		C236.2,374.9,235.8,372,236.9,370.6 M236.2,371.3c-0.8-0.8,0.5-2.4,0.7-3.4C238.7,368.7,236.9,370.6,236.2,371.3 M237.6,366.2
		c-0.7-1.7-1-3.8-1-6.2C238.7,361.5,237.5,363.6,237.6,366.2 M240.3,392.9c-1-0.5,0.5-1.3,0-2.4c-0.5,0.4-0.6,1.2-0.7,2.1
		c-0.6-0.8-0.1-3.3,1-3.4C240.1,390.3,241.1,391.5,240.3,392.9 M242.4,391.5c-0.3,0.9-1.1,1.5-1.4,2.4
		C240.5,393.4,241.3,391.5,242.4,391.5 M242.1,381.6c0,1.7-2,4.7-2.4,5.4c0,0,0,0,0,0c-0.2,0.2-0.1,0.1,0,0
		c-0.5-1.4-0.9-2.9-0.7-5.1c-1,1.6-0.6,4.6-1.7,6.2c0.4-2.6-0.6-6.5,0.3-8.6c0.6,0.5,1.2,0.9,1.4,1.7c1.1-0.3,1.2-1.8,2.4-2.1
		C241.1,380.1,242.1,380.5,242.1,381.6 M239,354.2c1,0,1,0.8,1,1.7C239,356,239.3,354.8,239,354.2 M235.2,347.3
		c0.5-1.1,0.3,1.2,0.3,1.7c2.9,1.6,3,8.5,4.1,12.3c-2.1-2.4-2.8-6.1-3.1-10.3c-0.8,0.1-0.1,1.7-0.3,2.4c-0.5-0.3-0.5-1.1-0.7-1.7
		c-0.5,1-0.3,2.7,0,4.1c-0.7,0.8-0.8,2.1-0.7,3.8c-0.5,1.1-0.3-1.2-0.3-1.7C233.8,353.3,235.9,351.1,235.2,347.3 M234.2,359.6
		c-1.3-1-0.8-3.7-1-5.8C235.2,354.8,233.5,357.9,234.2,359.6 M232.8,365.1c1.4,2.4,2-1.4,3.4-2.1c-0.2,2.5,1.8,4.9-0.7,5.8
		c0.1-0.8-0.1-1.3-0.3-1.7c-0.6,0.8-0.7,2.1-1,3.1c-1-0.9,0.2-2.5,0-3.8c-1.3,0.8-0.6,3.8-1.4,5.1
		C231.8,369.8,233.1,367.4,232.8,365.1 M232.8,383.3c1.5-2.2,2.1-5.2,3.1-7.9c-1.3,1.9-2.1,4.3-3.1,6.5c-0.6-1.3,0.8-3.6,0.7-5.5
		c-0.5,0.4-0.6,1.2-0.7,2.1c-0.9-1,0.9-5,3.1-5.1c0,2.3,1,3.6,1.7,5.1C236.4,380.5,235.6,382.8,232.8,383.3 M235.6,388.7
		c-0.4,1.1-0.4-0.9-0.3-1.4C235.6,386.3,235.6,388.3,235.6,388.7 M235.9,386.4c-2-0.9-0.7-4.3,0.3-5.1
		C237,382.5,235.4,384.3,235.9,386.4 M238.6,390.8c1,0.6-0.2,1.8,0,2.7C237.8,393.1,238.6,391.4,238.6,390.8 M238,403.8
		c-1.4-1.3,0-3,0.3-4.5C239.1,400.4,237.6,402.1,238,403.8 M233.2,410.3c-0.4-2.7,2.5-5,3.4-7.5C238.7,406,234.4,408.2,233.2,410.3
		 M232.1,410c-1.3-0.3-0.4-1.8,0.7-1.7C232.5,408.7,232.5,409.5,232.1,410 M231.1,409.6c0.4,1.8-1.9,0.8-2.1,2.1
		C228.5,411.1,229.9,409.6,231.1,409.6 M228.7,410c0.4-1.3,0.5-2.9,2.1-3.1C231.1,408.9,230,409.5,228.7,410 M227,403.1
		c0.9,0.1,0.1,1.2,0,1.4C226.1,404.4,226.9,403.3,227,403.1 M227.3,404.5c0.6,1.5-0.4,4.4-1.7,5.1C225.3,407,227,406.4,227.3,404.5
		 M226.7,416.1c-0.6-0.5,0.5-2.2,0.3-3.4c1.5-0.4,3.1-2,4.5-1.4C230.7,413.8,228,414.3,226.7,416.1 M224.9,413.1
		c-0.7-0.5-0.8-1.5-1-2.4C224.7,411,225,411.8,224.9,413.1 M223.7,412.4c-2.4-3.8-6.9-7.6-8.7-12.7
		C220.1,401.7,221.2,407.7,223.7,412.4c0.2,0.3,0.4,0.7,0.6,1C224.1,413.1,223.9,412.7,223.7,412.4 M220.5,410.7
		c1-1,1.5,1.4,2.4,1.7C222.2,413.1,221.1,411.3,220.5,410.7 M219.5,410.7c-3.4-1.1-2.7-4.1-5.5-5.8c3.1-1,4.7,2.4,6.5,3.8
		c-1.4,1.1-2-1.4-3.8-1C217.7,408.6,219.5,408.7,219.5,410.7 M213.6,406.2c0.5-0.8,1.2,1.1,1.7,1.4
		C214.9,408.4,214.2,406.5,213.6,406.2 M213.2,406.3c-2.6-1.5-6.4-4.2-6.8-8.7c2,0.4,3.3,1.5,4.8,2.4c-0.1,0.8-1.3,0-1.4-0.3
		c-0.1,1.2,2.5,2.5,3.8,3.4c-1.3,0.9-2.5-1.4-4.1-1.4c1.4,0.8,2.8,3.4,3.8,3.4C214,405.1,213.1,405.9,213.2,406.3
		c0.1,0.1,0.3,0.2,0.4,0.2C213.4,406.5,213.3,406.4,213.2,406.3 M204.7,398c0.1-0.5,0.6,0.3,0.7-0.3c1,0.1,0.7,1.6,1.4,2.1
		C205.7,400.9,205.6,398.1,204.7,398 M201,394.9c-0.4-1-0.8-2-1-3.1c0.7,0.2,1,0.8,2.1,0.7c-0.6,1.7,2.3,2.4,2.7,4.1
		C203.2,396.3,202.5,395.2,201,394.9 M201,395.9c1-0.9,2.2,0.8,2.7,1.4C202.7,398.3,201.6,396.5,201,395.9 M201.7,391.5
		c-0.8,0.8-1.9-1.1-2.7-1.4C199.5,389.5,200.9,391.1,201.7,391.5 M201,379.5c0.2,2.3-0.7,3.4-0.7,5.5c-1.3-1.2-0.9-4.1-1-6.5
		C199.9,378.8,200.3,379.3,201,379.5 M201.7,379.8c1.2,0.8,2.1,1.7,3.8,1c0.8,1.8,2.8,2.3,2.7,4.8c-1.1-0.6-1.7-1.7-2.4-2.7
		c-1.1,0.1,1,2.3,0,1.4c-1,1.2,2,1.2,1.7,2.7c-2.1-0.1-2.8-1.6-4.1-2.4c0.7,2.2,0.3,3.3,0.3,6.2c-1.3-1.6-0.3-5.4-1.7-6.8
		c-0.7,0.8,0.9,2.3,0.3,4.1c-1-0.2-0.8-1.5-1.7-1.7c0.7,1.8,2,3,2.4,5.1c-1.5-0.9-1.4-3.4-3.1-4.1
		C200.9,385.2,201.3,382.6,201.7,379.8 M204.1,380.2c-0.5,0.6-2.1-0.4-2.1-1.4C202.9,379,203.3,379.8,204.1,380.2 M204.7,379.2
		c-1-0.8-2.2-1.5-2.4-3.1C204,376.2,204.2,377.8,204.7,379.2 M207.5,376.8c1.8,0.3,3,1.1,4.1,2.1c-0.4,0.6-2.5-1.1-3.4,0
		c0.9,0.7,3,0.2,3.8,1c-0.6,0.9-1.8-0.5-3.1,0c0.3,0.5,1.1,0.5,1.7,0.7c-0.2,1,1,8,0,3.4c-0.2-0.9-0.4-1.4-0.7-2.7
		c-0.5,0.3-0.7,0.9-0.7,1.7c-0.5-0.4-0.6-1.2-0.7-2.1c-1,1.1,0.7,2.5,0.3,4.1C206.5,382.9,207.7,380,207.5,376.8 M211.9,377.8
		c-0.8,1-1.7-0.7-1.7-1.7C211.1,376.4,211.3,377.3,211.9,377.8 M212.3,395.3c1.9,0.4,2.5,2,3.8,3.1
		C215.1,398.4,213,396.6,212.3,395.3 M205.8,395.3c-1.3,0.8-2.1-2-3.8-2.1C203.8,392,204.8,394.5,205.8,395.3 M205.1,391.8
		c-0.1,1.1,0.8,1.3,1,2.1C205.5,394.9,202.7,391.8,205.1,391.8 M215.7,402.4c-1.1-1.4-5.5-2.5-5.5-6.2
		C212.4,398,214.5,399.8,215.7,402.4 M207.1,392.9c0.6,1.8,2.4,2.4,2.7,4.5c-3.4-2.2-5.4-5.8-5.5-11.3c1.4,1.1,3.1,2,5.5,2.1
		c1,1.3,1,3.5,2.4,4.5c-1.2-0.1-2.7-2.8-4.8-3.1c1.6,1.6,3.9,2.5,4.8,4.8c-1.7-1.9-3.6-1.4-5.5-3.1c2.5,3.1,6,5.1,8.6,8.2
		C212.1,397.8,209.9,395,207.1,392.9 M216.4,382.9c-1.6-1.3-0.8,0.7-3.1-0.3c1,1,3.2,0.7,4.1,1.7c-1,1-2.8-0.1-4.1,0
		c5.3,0.8,9,2.4,8.6,8.2c-1.3-0.7-0.9-3.2-1.7-4.5c-0.3,1.4,0.7,4.5,1.7,5.8c-1.6-0.1-2.4-3.9-3.4-5.8c-0.4,1.6,1.3,4.1,2.1,5.8
		c-0.3,1.1-0.8,0.3-1.4,0c0.7,3.4,2.4,5.8,2.4,9.9c-2.4-3.4-2.7-8.9-4.1-13.4c-1,1.9,1.2,3.6,0.7,6.2c-0.7-2.1-1.6-4.1-1.7-6.8
		c-0.9,2.1,0.9,4.4,0.7,6.8c-0.8-0.8-1-2.2-1.4-3.4c-0.9,0.9,0.3,2.7,0.7,3.4c-3,0-0.8-7.1-2.7-10.6c-0.7,1.9,1.1,4.1,0.7,6.8
		c-0.8-1.7-1.7-3.3-2.1-5.5c-0.8,1.7,0.9,3.8,1.4,5.5c-1.1-0.1-2.1-3.1-3.1-4.5c1.7-2.5,0.5-4.2,0.3-7.9
		C213.7,380.3,215.8,380.9,216.4,382.9 M215.7,377.8c1.4-0.7,3.4,1,3.4,2.7C217.6,380,217.3,378.2,215.7,377.8 M217.1,377.1
		c-0.6,0.9-1.6-0.6-2.4-0.7C215.2,375.6,216.3,377,217.1,377.1 M220.8,386c-0.5,0.9-1.5-0.5-2.1-0.7
		C219.2,383.9,220.4,385.4,220.8,386 M221.2,385.3c-0.4,0.4-1.9-1.1-2.1-2.1C220.5,383.3,220.3,384.9,221.2,385.3 M223.2,398
		c-0.3,0.6-0.8,1-1,1.7c-0.2-1-0.4-2-1-3.8C222,397.1,221.9,397,223.2,398 M222.5,394.9c0.7,0.3,0.6,1.5,1,2.1
		C223.4,397.5,221.8,395.4,222.5,394.9 M223.6,394.2c1.2-0.4,0.5,1.1,0.7,1.7C223.8,395.6,223.5,395.1,223.6,394.2 M223.2,402.1
		c0.1-1.4-0.6-3.5,1.4-3.1C223.9,399.8,224.9,402.3,223.2,402.1 M224.6,405.9c-0.6-0.3-0.8-1.1-0.7-2.1
		C225.2,403.5,224.4,405.2,224.6,405.9 M221.5,400h1c-0.2,0.5,0.4,1.8-0.3,1.7C221.1,402.1,221.7,400.7,221.5,400 M224.9,408.9
		c-0.6-0.3-0.6-1.2-1-1.7c-0.9,0.2,0.6,0.9,0.3,1.7c-2.8-2.5-5.1-5.4-5.8-9.9c1.4,1.9,1.9,4.7,3.4,6.5c0.8,0.1,1.3-0.1,1.4-0.7
		c0.8,0.1,0.7,2.7,1.4,1.7C225,406,224.6,407.8,224.9,408.9 M198.2,396.3c-0.7-0.1-0.9-0.7-1.7-0.7
		C196.8,394.8,198.5,395.4,198.2,396.3 M185.6,361.7c2.5,0.7,2.4,4,4.1,5.5C187.9,367.1,186.1,364.1,185.6,361.7 M180.4,356.6
		c1.4-0.4,3.3,1.6,3.8,2.4C183.1,359.4,181.6,357.3,180.4,356.6 M229.4,369.9c1.3-0.2,0.5,1.8,1.4,2.1
		C230.2,372.7,229.5,370.8,229.4,369.9 M226.7,363.1c1.7-0.6,2.6,2.4,3.8,3.4C228.8,367.1,228.1,363.8,226.7,363.1 M229.1,319.3
		c-0.6-0.3-0.9-1.2-0.3-1.7C229.5,317.5,228.9,318.8,229.1,319.3 M238.3,329.9c0.5-0.6,0.3,2.4,0.7,3.1
		C238.1,332.6,238.3,331.1,238.3,329.9 M246.5,332.3c0.6,1.2,1.5,2.2,2.4,3.1c0,1.5-0.6,2.4-0.3,4.1
		C247.4,337.5,246.8,335.1,246.5,332.3 M248.2,328.5c0.9,0.4,0.7,1.8,0.7,3.1C248,331.2,248.2,329.7,248.2,328.5 M249.9,335
		c0.9,1.3-1,2.6-0.7,4.5C248.5,338.4,249.1,335.7,249.9,335 M247.9,348.4c-0.9-1.6,0.2-4.1,0.7-5.5
		C250,343.7,247.4,346.2,247.9,348.4 M254.4,358.6c1.8,0.7,0,3.3,0,4.5C253.3,361.9,254.8,360.3,254.4,358.6 M257.5,352.5
		c1.5,0.6,0,2.9,0,4.1C256.5,355.6,257.9,354.1,257.5,352.5 M260.2,353.5c0.7,1.5-1.5,3.1-1.7,4.8C258,357,259.1,354.3,260.2,353.5
		 M268.4,368.5c1,1.4-0.3,3.6-1.7,3.8C267.1,370.9,267.9,369.9,268.4,368.5 M270.8,369.6c-0.9,1-1.6,2.3-3.1,2.7
		C268.6,371.3,268.9,369.6,270.8,369.6 M271.5,364.4c0.7,0.4,0.4,2.6-0.7,2.4C271.1,366.1,271.5,365.5,271.5,364.4 M226.3,417.8h2.1
		c1.4-0.6,2.7-1.4,4.5-1.7c0.8-1.3,2.5-1.8,4.1-2.4c-3.1-0.1-6.5,4.3-10.6,3.1c2.7-2.8,6.6-4.6,11.3-5.5c-1.4-0.4-2.9,1.2-3.4-0.3
		c1.8-0.9,3.8-1.7,4.8-3.4c-1.9,0.4-2.6,2-4.5,2.4c0.9-1.6,2.1-3,3.4-4.1c2.8,0,6.7,1,8.9-0.3c-2.2-0.4-4,0.9-5.1-0.3
		c1-0.7,1.7-1.7,3.8-1.4c2.6-1.4,5-1.7,1.7-1c-1,0.2-1.4,0.2-2.7,0.3c-0.1-0.4,0.1-1-0.3-1c-0.3,1.1-2.6,1.9-3.4,1.4
		c2.2-1.2,3.7-3.2,5.1-5.1c-2.4,0.9-3.7,4.8-5.8,4.8c2-2.3,4.2-4.5,6.5-6.5c1.6,2,7.1,2.9,9.6,1c-2.7,0.6-7.1,0.7-8.2-1.4
		c1.6-0.2,9.5,1.7,6.2,0.7c-0.8-0.9-3.1-0.3-4.1-1c2.3-1.3,6.8-2.3,7.2-4.5c-2.1,1.6-5.4,3.8-8.2,3.4c1.7-1,4.3-2.8,4.5-4.1
		c-2.1,1.2-4.2,4.3-6.2,4.5c1.8-2,3.3-4.2,5.5-5.8c2.2,0.9,5.7,0.9,7.9,0c-0.1-0.8-4.5,1.3-5.8-0.3c1.8,0.2,2.5-0.7,4.1-0.7
		c0.5-0.7,4.2-2.6,2.7-2.1c-2.6,0.9-4.7,2.4-8.2,2.4c1.5-2.1,3.3-1.9,4.5-2.4c-1.7-0.3,1.2-1.1,1.4-1.7c-1.6-0.1-2.6,2.2-3.8,1.4
		c1.6-0.1,1.7-1.7,2.7-2.4c4.7,1,7.7-1.9,10.3-4.1c-2.1,0.6-2.9,2.5-5.5,2.7c1.5-1.7,3.3-3.1,4.8-4.8c-1.7,0.3-3.1,2.6-4.1,2.4
		c0.4-1.3,2.5-2.6,2.1-3.7c0,0-0.1,0.1-0.1,0.1c-1.8,2-3.2,4.4-5.7,5.7c1.3-2.5,3.4-4.2,5.7-5.7c0,0,0.1-0.1,0.1-0.1c0,0,0,0,0,0
		c2.1-1.4,4.4-2.7,6.1-4.5c-2.2,0.1-2.3,2.3-4.1,2.7c1.7-3.2,4.4-5.4,6.8-7.9c-1.4,0.4-2,1.6-3.4,2.1c2.2-2.7,5.8-5.4,7.1-8.6
		c-0.3,0.1-0.9-0.4-0.9-0.6c0.7,0.2,1.4-1.9,0.7-1c-0.3,0.6-0.8,1.1-1.4,1.4c0.4-2.2-1.8-0.6-1-2.7c-1.6-0.5-1.2,1.8-2.4,0.7
		c-0.4,3.2-1.3,6-2.7,8.2c0.3-1.6,0.2-2.3,0.3-3.4c0-0.3,0-0.5,0.1-0.6c-0.2,0.8-0.6,2.1-1.4,2.7c0.1-0.5-0.4-4.8-0.7-4.8
		c0.2,1.4-0.2,2.3-0.7,3.1c1.9,1.8-0.1,7.2-1.4,6.8c0.8-1.5,1.3-3.3,1.7-5.1c0.2-1.6-0.6-1.6-0.3,0c-1.2,2.8-1.7,6.3-3.4,8.6
		c-0.1-3.6,2.4-6.5,1.7-9.6c-0.4,4-3.2,7.3-1.7,12c-1.7,2.2-3.3,4.5-5.5,6.2c1.4-1.7,3.5-4.5,3.4-6.5c-0.4,0.3-0.9,2.2-1.4,1.4
		c0.3-1.1,1.6-3.4,1.4-4.8c-1.3,2.3-1.9,5.8-3.4,6.2c1.1-1.9,2.5-5.3,1.7-7.9c-1.6,6.3-2.6,15.2-7.5,17.1c1.8-2.8,3.2-5,4.1-7.2
		c1-2.3-0.2-0.1-0.7,0.7c-0.9,1.2-1.6,2.7-2.4,3.4c0.1-1.1,2.2-4.6,0.7-3.1c-0.6,1.5-1.1,3.3-2.1,4.5c0.5-3.9,3-5.9,3.8-9.6
		c0-0.4-0.4-0.3-0.3,0.3c-1.7,3.3-3.5,6.5-4.8,10.3c-0.1-4,1.7-7.9,2.1-10.3c-0.8,0.8-1,2.2-2.4,2.4c-1.4-1.2,1.2-2.8,0.3-1
		c0.9-2.3,5.6-2.6,5.5-4.8c-1.3,1.5-4.5,3-5.8,2.4c0.1-0.8,0.9-0.8,1.4-0.3c-0.6-2.2,2.6-2.4,1.7-3.8c-0.4,0.6-1,1.7-1.7,1
		c0.9-2.6,5.1-3.8,5.5-5.8c-0.8,0.3-1.8,2.3-2.4,1.7c0.6-1-0.5,0-0.3-1.7c0.6,0,0.2,1.1,1,1c0-1.1,1.4-2.4,1-2.7
		c-0.1,0.4-1.1,1.6-1.4,0.7c0.5-0.9,2-2.5,1.7-3.1c-0.8,0.9-1.5,1.9-2.4,2.7c0.1-0.5,1.3-1.6,0.3-2.1c-0.7,1.6-1,3.6-2.4,4.5
		c0.6-2.2,1.3-4.4,2.4-6.2c0,0.6,0.2,1.1,0.7,1.4c2.7-1.9,4.4-4.7,6.2-7.5c-1.4,0.3-1.9,3.3-3.1,2.7c1-3.3,3.7-6.8,4.1-9.6
		c-0.6,1.3-1.7,4-2.7,3.8c0.7-1.9,2.4-4.7,2.1-6.5c-0.7,2.2-1.6,4.1-2.7,5.8c0-1.8-0.2-1.2-0.7-0.3c0.3-1.6-0.4-1-0.7-1.4
		c-0.2-0.8,0.4-2.5-0.3-2.7c-0.7,1.4,0.7,3.9-0.3,5.5c-0.7-2.8-0.2-7,0.3-9.6c0.3,1.8,0.8,3.3,2.4,3.8c1.8-0.9,3.8-3.5,3.4-5.5
		c-0.7,1-1.1,2.3-2.1,3.1c-0.3-1.9,0.7-2.6,0-3.4c-0.3,0.9-0.3,1.9-1,2.4c-0.9-0.4-0.8-3.6-1.4-3.1c-0.2,0.9,1,2.1,0,2.7
		c0.2-1-0.4-1.2-0.3-2.1c0.2-3.4-0.6-1.8-0.3,0.7c0.3,0.2,0.8,1.9,0,2.1c-0.7-1.9-1-4.2-1.7-6.2c0.4,6.7,0.1,13.1-1,18.8
		c-0.3-2.3,0.3-3.2,0.3-4.5c0-6-1,4.5-1.4,5.1c-0.6-1.6-0.2-4.3-0.3-6.5c0-4.3-0.6-0.6-0.3,1.7c-0.7,3.5,0.6,7.7-1.7,9.9
		c0.1-1.7-0.1-1.9-0.7-0.7c0-2.8-0.1-5.3,0-6.5c-0.2,1.3-1.2,2-1.7,2.1c2.5,0.9,0.8,10.8-1,13.7c0.4-3.3,0-5,0-7.2
		c-1.5,3.8-2.9,8.6-2.1,13.7c-1.5,0-2.1,3-3.4,2.7c0.8-2.4,1.5-4.9,2.4-7.2c-1.8,1.1-1.4,4.6-2.7,6.2c0.5-4.3,2.1-9.3,1.7-13.4
		c-0.5,1.7-1.2,3.4-2.7,4.1c-0.3-2.4,0.8-3.3,1-5.1c0.1-0.9-1,2.5-1.7,3.1c-0.4-2.1,1.1-4.2,0.3-5.5c-0.8,2.6-0.9,5.9-2.1,8.2
		c-0.2-5-0.3-8,2.7-9.9c0.4,2.1,1.7,3.3,2.7,4.8c1.4-2.3,5.8-5.1,4.5-7.9c0.1,0.7-0.3,1.1-1,1c0.8-1.6,0.6-2.6,1-4.1
		c-0.2,0.9,1.8-1.7,0-1.7c-1.3,3.4-2.2,9-4.5,10.3c0.5-0.6,0-2.3,0.7-2.7c0.1,0.5-0.1,1.3,0.3,1.4c0.8-2.2,0.9-5.4,0-7.5
		c2.4-1.7,4.7-5.3,5.5-7.5c-1.4,1.1-1.8,3.2-3.1,4.5c0.6-2.9,3.2-5.7,2.7-8.6c-1,3.2-2.1,6.3-3.8,8.9c-0.1-5.7,3.2-11.6,3.8-14.4
		c-0.4,1.4-1.1,2.5-2.1,3.4c0-3.5,1.9-6.7,2-9.1c-0.1,0.7-0.7,1.9-1,1.2c0.7-0.7,0.1-4.9,0-1.7c-0.7,0.5,0.1,2.4-1,2.4
		c-0.3-0.9,0.8-2.9,0-2.1c-0.5,0.2-0.1,1.3-0.7,1.4c0.6-4.3,2.9-6,1.4-10.3c-1,1.4-0.9-1.1-1.7-1c-0.4,0.3-0.1,1.3-1,1
		c-0.1-0.3,0-0.7-0.3-0.7c0,3.1,0.7,5.9,0,7.9c-1-0.2-0.5-2.2-1.4-0.7c-0.3-1.2-0.6-2.4-1.4-3.1c0.8,5.3,2.1,10.4,2.4,15.4
		c-1.4-2.5-1.5-6.3-1.7-9.9c-2.4,6.3,4,11.9,1,18.5c-0.8-3.1,0.2-7.3-1-8.9c0.2,0.3,0.2,6.2,0.3,9.6c-1.4-3.2-1.9-8.9-2.1-12.3
		c-1,0.9-0.8,2.8-1.7,3.8c-0.4-2,1.4-3.6,0.3-5.1c-0.5,1.8-0.4,4.1-1.7,5.1c-1-4.4,1.7-8.3,0.7-10.6c0.1,0.8,0.1,1.7-0.7,1.7
		c-0.3-1,0.9-3.3,0-2.7c-0.4,1.5-0.2,3.7-1.4,4.5c-0.8-3.2,0.5-6.3-0.3-9.2c-0.1,0.4,0.1,1-0.3,1c0.1-1.3-0.4-1.9-0.7-2.7
		c-1.5-0.7-1.5,0.4-2.4,0c-0.2,3.5,3.6,7.4,1.4,9.6c-0.5-0.5-0.9-2.7-1.4-2.1c0.1,1.1,1.8,2.5,1,3.4c-0.4-1.1-0.8-2.1-1.7-2.7
		c0.8,2.3,2,4.1,2.7,6.5c0.5-2.8,2.3,2.9,1.4,3.8c-0.3-0.9-0.3-1.9-1-2.4c-0.3,1.2,1.3,2.3,0.3,3.1c-0.7-1.8-0.9-4.2-2.1-5.5
		c0.1,1.1,0.3,1.9,0.7,2.7c-1.1-0.4-1.8-2.5-3.1-1.7c0.1,0.5-0.1,1.3,0.3,1.4c0-0.4,0.1-0.8,0.7-0.7c-0.6,0.8,0.4,2-0.7,2.7
		c-0.7-0.5,0.1-2.4-1-2.4c-0.1,1.8,0.1,3.7-1,4.5c0.5-1.3,0.2-3.8-0.3-5.8c1.7-1.7,2.6-5.8,2.1-8.6c-0.1,1.8-0.4,3.5-1,4.8
		c-0.2-1.5,0.2-2.3,0.3-3.4c-0.7-0.7-0.4,2.6-1,3.1c-0.5-1.2-0.2-3.2-1-4.1c-0.3,1.7,1.1,3.5,0,4.8c-1.5-3.4-0.3-6.9,0.3-9.2
		c-0.7,0-0.5,0.6-1,1.4c-0.2-1.7,0.3-1.5,0.3-2.4c0.3-4.8-0.9,1.2-1.4,3.4c-0.9-4.6,1.8-7.3,1-10.6c-0.1,0.4,0.1,1-0.3,1
		c-0.1-1.9-0.2-5.5-0.7-5.8c-0.2,0.5,0.4,1.8-0.3,1.7c0-1.3-0.1-2.4-0.7-3.1c-0.1,1.8-1.2-0.8-1.7,0.3c-0.9,4,2.2,5.8,1,8.9
		c-1.2-0.7-1.5-4-2.4-3.8c0.4,0.8,0.8,1.7,1,2.7c-0.9-0.2-0.7-1.6-1.7-1.7c0.7,3.1,4.7,4.7,3.8,8.2c0.1-0.6-0.5-0.9-0.7-0.3
		c0.3,0,0.4,0.6,0,0.7c-0.3-2.5-1.6-2-2.4-4.1c0.4,5.3,5.6,7.7,5.1,12.7c-1.2-1.1-1.1-3.5-2.1-4.8c0,0.9,0.2,2-0.7,2.1
		c-0.3-0.3-0.7-2.2-1-1.4c0,0.7,1.3,1.9,0.7,2.1c-0.5,0-1.3-1.2-1.4-0.3c1.8,0.8,2.2,3,3.8,4.1c0.1-1.2-1.8-2.3-0.7-3.4
		c0.3,1.4,1.5,2.6,0.7,4.1c2.2,0.4,2.5,4.5,1.7,6.8c0.2-1.1-0.2-1.6-0.3-2.4c-0.4-4.9-0.4,1.6-0.1,3.1c0.1,0.1,0.1,0.2,0.1,0.3
		c0,0-0.1-0.1-0.1-0.3c-0.4-1-1.8-3.2-0.6-2.4c-1.6-2.8-1.8-5.5-3.4-6.8c0.1,4.7,3.4,9.5,3.1,14.4c-0.7-1.9-2-3.3-2.7-5.1
		c-0.3,7.4,5.4,8.9,4.1,15.7c-0.8-2-1.5-4-2.1-6.2c0.2-1.6-0.6-0.8-0.3,0.3c0.6,3.5,2,8.1,1,12c-2.5-1.9-0.7-6.3-1.7-9.9
		c-0.8-1.9,0.5,2.8-0.7,3.4c-0.3-2.5-1.5-4.2-2.4-6.2c0.1-0.5,0.5-0.7,0.3-1.4c-0.1-0.7,0.3-3.7-0.3-2.7c-0.2,1,0.4,2.9-0.3,3.4
		c-0.1-1.3-0.6-3.1-1-4.5c-0.2-0.7-1.2-4-1-2.1c0.1,1.3,0.6,2.2,1,4.8c-0.5-0.1-0.6-0.6-1-0.7c-0.3,0.9,1.3,1.6,0.3,2.1
		c-1.6-2.6-3.8-4.7-3.8-8.9c-0.1,0.5-0.6,0.1-0.7-0.3c0-1.2-1-1.5-1-2.7c-1.1-0.2,1.4,3.2,0.7,3.8c-0.5-0.6-0.4-2.7-1.4-1.7
		c-0.8-1.2,0.7,1.3-0.3,1.4c-1.7-1.1-1.2-4.5-3.1-5.5c0.2,1.3,0.8,2.2,1,3.4c-1.1-1-2.3-1.8-3.1-3.1c0.7,0,0.4,0.9,1.4,0.7
		c0.6-2.8-1.6-6.6-4.1-5.1c-0.1,2.4,1.3,3.3,2.4,4.5c-0.4,0-0.5-0.5-0.7,0c1.6,1.8,4.5,4.1,4.8,6.2c-1.3-0.5-2.9-2.6-4.1-2.1
		c1.9,1.3,4,2.4,5.8,3.8c-3.6,0.6-4.4-3.4-6.5-3.1c2.5,1.9,4.4,4.5,9.2,4.1c-0.1,1.8,1.8,1.6,1.7,3.4c-1.2-0.4-2.2-2.8-3.1-2.4
		c0.2,0.5,1.7,1.4,1,1.7c-1-0.6-2.1-2.9-3.1-2.4c1,0.6,2.6,2.4,2.4,3.1c-0.8-0.1-1.7-1.9-2.4-1c2.8,1.1,6.2,6.2,8.9,4.1
		c1.1,2,2.4,5.5,2.1,7.9c-0.7-2.1-1.7-4-2.4-6.2c-1.1-0.5,1.1,2.9,0.3,3.1c-0.9-1.6-1.8-3.2-3.1-4.5c0.8,2.4,2.6,3.8,3.4,6.2
		c-1.9-1.3-2.9-3.5-4.5-5.1c0.4,1.9,2.7,3.7,2.7,4.8c-2.2-0.7-3.8-3.8-5.5-3.8c3.5,2.8,7.7,6.7,8.6,11c-1.5-0.1-2.2-2.8-3.4-2.1
		c1.3,1.8,3.4,3,5.1,4.5c0.5,2.8,2.2,4.4,3.4,6.5c-0.4,1.3-0.2,3.3-1,4.1c-0.2-2.5-1.2-4.3-1.7-6.5c-0.9,0.8,1.9,5.6,1,7.5
		c-1.7-2.1-1.7-6-3.4-8.2c1.5,3.4-0.4,7.3-1.4,10.3c-0.3-2-1.1-3.2-1.7-5.5c0.1,2.5,0.7,4.5,1.4,6.5c1.4-0.2,1.7-1.5,2.7-2.1
		c-0.6,7.2,2.4,11,0.3,17.1c-0.8-3.5-0.3-7-0.7-9.6c-0.5,2.4-0.6,5.1-1.7,6.8c-0.2-2.8,0.1-6.9,0.3-8.2c-0.6,0.2-0.6,1-1,1.4
		c0.3-1.3,0.4-2.5-0.3-3.4c0.2,1.5-0.7,0.9-1,0.3c-0.2,0.6-0.2,1.4-0.7,1.7c0.7-4.3,0.4-9.8-1-13c-0.1,3.3,1.8,6.4,0.7,9.6
		c-0.7-3.6-1.5-7.1-3.1-9.9c0.4,2.3,2,5.3,1.7,7.2c-4.1-3-1.7-10.6-3.4-16.1c-0.1,0.3,0,0.7-0.3,0.7c-0.5-1.5-0.6-3.5-1.4-4.8
		c0.4,4.1,1.8,7.8,1,11.3c-0.4-4-2.5-6.4-3.4-9.9c-0.6,2.3,3.6,7.5,2.7,11.3c-1.1-3.1-3.5-4.9-4.8-7.9c0.9-4.3-0.2-9-1.7-12
		c0.2,2.8,1.9,5.9,1,8.6c-0.1-2.7-0.9-4.8-2.1-6.5c0,1.2,1.4,2.7,0.7,3.4c-0.5-0.8-1-3.3-1.7-2.7c0.6,2.1,2.4,4.9,2.1,6.8
		c-0.5-2.2-2.6-2.9-3.1-5.1c-1.6-1,1.4,3.6,2.4,4.5c0,0.5,1.3,1.4,0.3,1.7c-1.1-2-3.2-4.8-4.8-5.1c1.8,1.6,3.7,4.1,3.8,5.5
		c-2.8-1-5.7-3.7-8.2-3.8c2.7,1.4,5.1,3.1,7.9,4.5c-4,0.5-6.4-2.5-8.9-2.4c3.4,1.7,6.4,3.9,12,3.4c1.5,2.5,3.5,4.5,4.8,7.2
		c-2.1-1-3.9-4.1-5.5-4.5c0.3,0.1,1.5,0.9,0.7,1c-1.2,0.2-2.1-1.8-2.7-1c2.7,1.8,5.2,3.7,7.5,5.8c-3.9-0.1-5.7-4.1-8.9-3.8
		c4.6,2.5,8.2,4.8,10.6,9.9c-1.3-0.6-2.5-3.2-3.8-2.7c0.5,0.4,2,1.4,1.4,1.7c-3.5-1.3-5.9-9.4-8.6-7.2c-0.9,0.5-1.1-1.4-1.4-0.3
		c1.1,0.4,1.7,3.1,1,4.1c-0.5-1.1-0.1-3-1.4-3.4c0.2,1.3,1.7,3.1,0.7,4.5c-0.7-0.7-1-3.5-2.1-2.7c0.7,0.3,1.6,2.2,1,2.7
		c-0.4-1.2-1.1-2.1-1.7-3.1c0.7-3.2-1.4-7.8-0.8-2.9c0.1,0.2,0.1,0.5,0.1,0.8c0-0.3-0.1-0.6-0.1-0.8c-0.4-1.1-1.6-0.2-2.3-1.2
		c0.3,2.3-0.9-0.5-1.4,0.7c1.8,1.1,3.4,4.2,3.4,5.8c-1.2,0-0.2-2.1-1.4-2.1c0.4,1.8-0.7,0.1-1,1c0.5,0.1,1.6,1.3,0.7,1.7
		c-1.5,0.1-2.1-2.4-2.7-2.1c0.8,0.2,0.1,1.6-0.3,1.7c0.2-0.6-0.7-1.5-0.7-0.7c0.6,1.7,2.7,4.7,1.4,6.2c-3.6-3.7-0.3-12.1-3.1-15.4
		c-0.1,2.7,1.6,5.5,0.7,7.9c-0.9-1.4-0.7-3.9-2.1-4.8c0.4,1.4,1.6,3.9,1,5.1c-3.9-4.8-2-10.4-2.1-17.1c-0.6,2.1,0.3,4.6-1,6.5
		c-0.2-2.7-1.2-4.5-2.1-6.5c-0.3,2.6,1.9,4.4,1,6.5c-1-1-0.8-3-1.7-4.1c0,1.8,0.7,2.9,1,4.5c-1.5-1.1-2.1-3.1-3.1-4.8
		c0.5-1,0.7-2.3,1-3.4c0-1,0-2,0-2.7c-0.1-6.7-0.1,4-1,4.5c-0.7-1.9,0.1-7.2-0.7-7.9c0.2,1.4,0,2.5-1,2.7c0.5,0.9,1,3.6,0.7,4.1
		c-2.6-2.1-0.7-8.4-1.7-11c-0.2,0.7,0.4,2.2-0.3,2.4c0.1-1.8-0.8-5.5-1.4-2.7c-0.9-1.6-1.6-3.4-3.1-4.5c-0.1,1.4-1.4,1.2-1.7,3.1
		c1,2.5,4.1,3.3,5.1,4.8c-0.5-0.5-0.7-1.1-0.7,0.3c-0.7,0-1.3-1.9-1.7-1c0.4-0.1,1.2,1,0.3,1c-0.9-0.7-1.5-1.4-2.4-0.7
		c1.6,3,6.2,2.9,6.5,7.2c-2.3-1.2-5.1-3.6-6.8-4.1c1,2.5,5,4.7,5.8,7.2c-1-0.1-2.4-1.5-2.7-1c3.4,2.5,5.7,6.1,8.6,9.2
		c-4.5-1.4-6.5-5.4-9.9-7.9c2.7,3.9,5.6,7.6,11.3,8.6c1.7,1.7,2.1,4.6,2.4,6.2c-1.3-2.1-2.5-4.4-4.8-5.5c0.1,0.8,1.1,0.8,1.4,1.4
		c0.4,1,2.6,1.9,1.7,3.1c1.2,0.8,2.2,1.7,2.4,3.1c-3-1.4-5.6-3.3-7.5-5.8c-0.5,1,2.2,1.9,2.4,3.4c2.3,1.2,4.3,2.5,6.5,3.8
		c0.3,0.6,0.6,1.3,0.7,2.1c-1.4-1.4-2.8-2.9-4.8-3.8c1.8,2.5,4.6,4.1,5.8,7.2c-1.4,0.3-1.9-2-2.7-1c0.3,0.1,1.5,0.9,0.7,1
		c-1.5-0.6-2.9-2.6-3.8-1c2.4,1.1,5.2,1.8,6.5,4.1c-0.6-0.1-1.8-1.4-2.1-0.7c0.8,0.6,2.9,1.6,2.4,2.4c-1.1-0.5-1.8-1.4-2.7-2.1
		c0.7,2.8,4.9,3.2,4.5,6.5c-0.8-1.5-1.9-2.7-3.1-3.8c-0.4,1.6,2.2,2.1,1.4,3.1c-0.6-0.2-1.1-0.5-1.6-1c0.5,0.6,0.8,1.2,0.9,2
		c-2.5-0.6-4.5-3.5-6.2-3.8c0.6,1.4,2.5,1.4,2.7,3.1c-1.7-0.4-3.3-2.8-5.1-2.1c2.5,0.8,4.4,2.2,6.2,3.8c-2.4,0.1-4.4-2-6.5-1
		c3.3,1.2,7.9,1.8,11.3,3c0.6-0.8,2,0,2.4,0.4c-0.2,0.3-0.3,0.4-0.5,0.4c0.8,0.4,1.4,0.8,1.9,1.3c-0.6-0.6-0.4,1,0.7,0
		c-1,1,1.1,1,1.4,1.7c-2.9-0.1-5.1-2.6-7.2-2.4c1,0.4,1.8,0.9,2.4,1.7c-1.9-0.2-4-2-5.8-1c5.9,1.8,13.4,1.9,16.4,6.5
		c-2.3-0.3-5-2.1-6.5-2.1c1.5,1.9,7.2,1.7,7.9,4.1c-1.9-0.7-4.8-2.2-5.1-1c-8.5-2.3,3.8,1.6,5.8,1.7c1.3-0.9,3,0.6,4.8,2.1
		c-1.3,0-2.7-0.7-4.1,0c1.3,0.3,2.9,0.3,3.8,1c-2.7,0-5.5,0-7.2,1c7.6-1.6,14.8-0.7,14.5,7h0.1C225.6,419.1,225.7,418.2,226.3,417.8
		"/>
	<path clip-path="url(#SVGID_2_)" d="M278.3,359.6c0,0.1-0.1,0.2-0.1,0.3C278.3,359.9,278.4,359.8,278.3,359.6"/>
	<path clip-path="url(#SVGID_2_)" d="M188.7,370.6C188.4,369.5,187.5,370.3,188.7,370.6"/>
	<path clip-path="url(#SVGID_2_)" d="M270.9,361.7C271,361.1,271,360.8,270.9,361.7"/>
	<path clip-path="url(#SVGID_2_)" d="M188.7,329.2c0.5,0.3,0.7,0.9,0.7,1.7C188.6,330.8,188.6,330,188.7,329.2 M195.5,343.2
		c-1-1-2-2.1-2.7-3.4C193.7,339.6,195.2,341.6,195.5,343.2 M190.4,340.1c1.6-1.2,2.6,1.1,3.4,1.7
		C192.8,342.4,191.6,340.4,190.4,340.1 M191.7,339.1c-0.7,0.4-2.9-0.7-3.8-1.4C189.1,337,190.8,338.5,191.7,339.1 M203.7,356.9
		c-1.5-0.1-3.2-3-3.8-5.1C201.3,353.4,202.5,355.1,203.7,356.9 M181.5,327.1c1.5,1.7,4.3,3.9,5.1,5.1c-1.3-0.8-2.4-1.7-4.1-2.1
		c1.8,1.7,4,4.2,6.5,4.1c-0.3,0.1-0.7,0-0.7,0.3c1.9-0.3,3.2,3.5,3.4,2.7c-0.2-0.7-1.7-1.7-1-2.1c0.7,0.7,1.1,0,1.7-0.3
		c2.7,6.1-5.1,0.7-6.5,1.7c0.6,0.3,1.8,0,1.7,1c-0.9,0.3-2.7-1.3-2.1-0.3c4,1.9,6.9,5,10.3,7.5c-3.7-0.2-5.5-4.1-7.9-4.5
		c0.5,0.5,0.9,1,1.4,1.5c0.1,0.1,0.2,0.3,0.3,0.4c0.4,0.4,0.8,0.8,1.1,1.2c0,0,0,0,0,0c0,0-0.1,0-0.1,0c1.6,0,3.7,2.5,6.5,2.4
		c-0.1,1.8,0.8,2.6,1,4.1c-1-0.9-2-1.9-2.4-3.4c-1,0.2,0.3,0.7,0,1.4c-1.5-1.5-2.9-3.3-4.9-4.3c1,1.1,1.9,2.1,2.9,3.2
		c0.1,0.1,0.1,0.1,0.2,0.2c0.4,0.4,0.8,0.8,1.2,1.3c0,0,0.1,0.1,0.1,0.1c0.3,0.4,0.7,0.7,1.1,1.1c0.1,0.1,0.2,0.2,0.3,0.3
		c0.4,0.4,0.8,0.8,1.2,1.2c-3.8-1.4-6.4-5.7-8.9-7.2c2.9,5.9,11,7.2,13,13c-1.4-1.4-3.2-2.5-4.5-4.1c-0.1,1.4,3,2.5,3.4,4.5
		c-1.9-0.8-3.6-3.5-5.5-3.1c2.5,1.7,4.9,3.6,7.5,5.1c-4.2,0.1-6.5-3.5-9.2-3.8c3,1.8,5.1,4.4,9.9,4.5c1.2,1.4,2.7,4.3,4.5,4.1
		c-1.3-1.3-3-2.3-3.8-4.1c2.5-1.7,1.7-7.4,1.7-11c-0.6,1.8-0.5,4.3-1,6.2c0-1.1-0.2-1.9-0.7-2.4c-1.3,2.6-2.5-3-3.1-4.5
		c0.1,2.5,0.9,4.3,1.7,6.2c-1.3-1-2.1-2.5-2.7-4.1c0.8-0.6,1.1-3.5,0.3-4.5c-0.8,0.4,0.2,2.4-0.7,2.7c-0.2-1.3-0.9-8.1-1-4.1
		c0.3,1.6,1.2,4.3,0.3,5.8c-1-2.8-2.4-5.6-0.7-8.6c0.1,0.3,0,0.7,0.3,0.7c-0.7-2.3-0.9-5-1.7-7.2c-0.2,2.3,1.3,4.9,0.3,6.8
		c-1.1-1.4-0.6-4.4-1.7-5.8c-0.4,2,1.2,3.8,0.3,5.1c-1-2.7-0.1,0.2-0.3,0.7c-0.4-1-1.5-1.3-1.4-2.7c0.7-0.7,0.3-0.7,1,0
		c-1.5-1.9,0.3-7.1-1.4-8.9c-0.4,2.7,1.1,5.3,0,7.5c-0.1-2-1.4-2.9-2.1-4.5c0.2-2.1-0.3-3.3-0.3-5.1c-1.7-2.5,0.9,3-0.3,4.1
		c-1.1-1.4-0.3-4.8-1.4-6.2c-0.5,1.5,0.9,2.9,0,3.8c-1.2-3.1-2.4-7.3-4.8-6.5c0.4,0.1,0.4,0.5,0.3,1c-0.8-0.7-0.9-0.7-1.7,0
		c0.1,2.7,3.4,3.8,3.1,5.8C184.5,330.3,183.3,326.9,181.5,327.1"/>
	<path clip-path="url(#SVGID_2_)" d="M259.2,333.3c0.5,2.2,0.4,5.1,1.7,6.5c2.1-1.1,3.3-4.9,3.1-7.2c-0.2,0.6-0.2,1.4-0.7,1.7
		c0-1.6,0.2-3.4-1-3.8c-0.4,0.4-0.9,0.3-1.4-0.3c-0.7,0.3,0.1,2.2-0.7,2.4c-0.1-0.5,0.1-1.3-0.3-1.4
		C260.3,332.6,259.1,332.3,259.2,333.3"/>
	<path clip-path="url(#SVGID_2_)" d="M191.7,375.1C191.7,375.1,191.7,375.1,191.7,375.1C191.7,375,191.7,375,191.7,375.1
		C191.7,375,191.7,375,191.7,375.1"/>
	<path clip-path="url(#SVGID_2_)" d="M186.6,384.3c0.7,1.7,2.6,2.2,3.4,3.8c-0.9,0.3-1.6-1.3-2.1-0.3c2,1.9,6.2,2.7,8.3,4.5
		c-1.8-1.9-2.2-5.2-3.9-7.3c-0.3,0.6,1,1.1,0,1.4c-0.9-0.8-2-3.2-3.1-2.7c0.8,0.5,2.2,2.2,1.7,2.7c-0.8-2.1-2.5-1.2-3.8-2.7
		C188,385.1,187.8,385.2,186.6,384.3"/>
	<path clip-path="url(#SVGID_2_)" d="M534.3,346.8c0.5-1.2,2.8-2.5,3.5-2.9c0.4,0.7,0.7,1.5,1.1,2.3
		C537.4,346.2,535.8,346.4,534.3,346.8 M537.3,321.4l-6.5,3.3C533.4,322.2,536.3,321.6,537.3,321.4 M589.4,426.9l-1.9-3.2
		c-1.1-1.8-5.3-8.9-8.7-14.6l2.4,0.3l3.7-1.3l-2.8,0.2l1.9-1.1l-0.8-1.2l-0.8-0.2l-3.2,1.4l1.4-2.2l-0.9-0.2l-1.6,3.2
		c0,0-0.1-0.1-0.1-0.1c-2.1-3.6-3.8-6.4-3.8-6.4c-0.1,0.1-0.5-0.4-1-1.3l1.8-0.5l3.3,1.1l1.3-0.5l-1.4-0.6l-3-0.9l4.5,0l-1.9-1.1
		l3.4-0.3l-1.6-1.2l2.2-0.8l-4.1,0.2l0.3-1l-2.6,2.4l-1.5,0.9l-1,1.7c-1.3-2-3.2-5.3-5.3-8.9l1.1-0.3l5.7,0.7l-4.1-1.5l1.4-0.7
		l3.4,0.4l2.9-1.1l-2.5,0l3.5-1.8l-3.9,0.5l4.5-2.9l-6,2l-3.6,2.5l-3,1.1c-1.4-2.4-2.8-4.8-4.1-6.9l3.3,0.9l-2.8-1.6l4-1.5l9.5,0.6
		l-8.8-1.5l8.8-2l-10.1,1l10-4.3l-9.8,2.7l5.1-3.1l-10.4,5.3l-0.2,1.1c-1.9-3.1-3.3-5.2-3.6-5.1c-0.1,0-0.4-0.3-0.8-0.9
		c0.6-2.1,7.6-1.3,7.6-1.3l-3.5-0.8c-1.8,0.2,11.5-6.4,11.5-6.4l-10.6,3.7c0,0,3-2.8,2.3-3.2c-0.7-0.4-6.5,4.5-6.5,4.5l-2.2-1.4
		l1,1.8l-0.9,1.2c-0.9-1.5-2-3.6-3.2-5.8c3.4-1.7,11.5-2.5,11.5-2.5l-3.4,0.3l2.6-1.2l-6,1l0.9-0.8l6.1-2.5l-2.5-0.2l5.4-2.2
		l-3.7,0.9l1.7-1.7l-6.8,3.9l1.8-2l-7.7,5.8l-0.2,0.5c-0.1-0.2-0.2-0.4-0.3-0.6l4-3.2l2-2.5l-0.4-0.8l-5.6,6.5c-1-1.9-2.1-3.9-3-5.8
		c2.1-0.7,8.8-3.6,12.2-5.1c-2.3,0.9-5.7,2.2-5.6,1c0.1-1.3,4.9-2.8,7.4-3.5l-1.5,0.4l1.1-2.1l-2.1,0.8l0.9-2.4l-2.1,2.1l-2.3,1.5
		l-2.7,1.2l2.9-3c-0.7-0.1-2.4,1.5-4,3.3c-1.9,2.1-3.8,4.5-4.5,5.3c-0.1-0.2-0.2-0.5-0.4-0.7c0.1-1.6,0.8-6.3,3.6-6.7
		c0,0-3.1,0.1-4.4,5.1c-0.6-1.2-1.1-2.2-1.6-3.1c0.8-0.8,12.5-4.8,12.5-4.8l-3.7,0.8c2.8-1.2,9.8-5.6,9.8-5.6l-2,0.8l0.8-1.7l-7.7,4
		c2.2-1.5,3-2.9,3.2-3.4c-1.1,1.6-11.1,7.6-11.1,7.6c-0.7-0.8,8.5-7.6,8.5-7.6c-3,0.4-10.8,8.5-10.8,8.5c0.3-3.5,4.8-6.7,4.8-6.7
		l-0.8-0.4c-1.5,0.5-4,5.1-4.7,6.3c-0.3-0.6-0.5-1-0.6-1c-0.1-0.1-0.6-0.9-1.3-2.1c6.3-4.6,17.5-6.3,17.5-6.3
		c-3.3-0.4-7.5,0.9-7.5,0.9c6.5-3.4,6.1-4.1,6.1-4.1c-0.1-0.2-3.3,1.2-5.2,2.1c2.2-1.4,5.1-4.1,5.1-4.1l-0.5-0.1
		c-0.5-0.1-4.7,2.8-4.7,2.8l1.4-1.6l-3.3,0.7l-5.9,5.4l0.8-2.3c-0.6,0-3.8,3.1-5,4.4c-0.5-0.9-1.1-2-1.6-2.9c0.2,0,0.3-0.1,0.2-0.3
		c-0.2-0.4,17.2-6.6,16.1-7c-1.1-0.4-3.8,0.5-3.8,0.5l3.5-2.3l-3.1,0.7l4.1-1.8l-1-0.6c-1.5,0.2-6.8,3.3-6.8,3.3
		c-0.7-0.4,3.2-3.3,3.2-3.3c-2.3,0.4-9.4,6.6-9.4,6.6c-0.7-0.3,6.9-6.5,6.9-6.5c-5,0.8-9.5,7.4-10.6,9.1c-0.3-0.6-0.6-1.2-0.9-1.7
		c0.3-0.1,0.7-0.2,1.5-0.5c1.9-0.6-0.8-0.9-0.8-0.9l2.7-1c0-0.1,6-4.8,6-4.8l4.5-3.7l0.4-0.2c-6,0.8-13.9,7.8-13.9,7.8l3.7-4.5
		c-1-0.1,5.3-2.8,5.3-2.8l-2.4,0.3c-3.7,1.6-7.6,5.4-8.8,6.5l-0.7-1.5c0.3,0.1,0.4,0.1-0.1-0.4c-1-1.1,6.9-7.7,12.9-8.3
		c0.4,0,0-1,0-1c-12.7,4.1-13.9,6.7-14,7.3l-0.8-1.7c4-3.5,10.5-5.1,10.5-5.1l-0.1-0.8l2.1-1.1l-5.6,1.1l4.3-1.6l-1.4-0.3
		c-1.2-0.2-5.3,2.2-5.3,2.2l2.4-1.8l0-0.5c-3.9,0.7-7.7,4-8.8,5l-0.1-0.2c0.8-1.6,10.1-6.6,10.1-6.6l0.1-0.6l-1.9,0.6l1.3-1.1
		l-0.3-0.6c-0.4,0-2.2,1.3-3,1.9l1.3-1.7l1.1-0.3c1.3-1.9,0.3-1.2,0.1-1.1c-0.2,0.2-4.6,2-4.6,2c-4.3,1.3-5.9,3.3-6.4,4.2l-0.7-1.2
		l1.4-0.5l1.3-1.6l7.8-3.8l-2.5-0.9l-6.8,4c1.1-2.3,6.8-5.1,6.8-5.1l-0.4-0.9l-2,0.4l1.1-2.4l-4.9,4.5l3.7-5.6l-2.2,2.4l0.9-2.7
		c-1.2,0.5-3.3,3.4-3.3,3.4l1.4-3.1c-4.6,1.9-6.2,5.5-6.2,5.5s-0.5,0.5-0.1-0.7c0.4-1.3,4.3-3.8,4.3-3.8s1.9-2.3,1.3-2.5
		c-0.6-0.2-0.6,0.3-0.6,0.3l-5.8,5.4l2.7-4.7l-2.6,2.9l2.1-3l-0.4-1.4l-0.8,0.1l-0.4-1.3l-1.7,1.3l0.2-0.6c0,0-0.9-0.3-1.1-0.3
		c-0.2,0-0.3,2.4-0.3,2.4l-0.6-1.7c0,0-0.8,0.5-1.3,0.5c-0.5,0,0.2,1.5,0.2,1.5s1.6,2.1-0.8-0.6c-2.4-2.7-4.5-3.8-4.5-3.8
		s0.5-0.1-0.2-0.3c-0.7-0.2-1.2,0.3-0.4,0.4c0.8,0.1,4.8,4.6,4.8,4.6l-1.1-0.6l-0.2,1l2.1,1.6l-3-1l-0.5,1.5l4,1.3
		c-4.9-1-5.6,0.9-5.6,0.9l5.5,0.8l-4.8,0.6c-1.6,0.4-1.3,1.7-1.3,1.7l7.5-0.4c-0.5-0.1-6.8,2.8-6.8,2.8l-1,1.1
		c1-0.9,8.2-2.3,8.2-2.3c-5.1,2.2-7.2,4.6-7.2,4.6c9.1-5.3,10.9-4.1,10.9-4.1l1.2,1.1l0.4,1.1l-1.5-0.5c-3.9-0.5-11.2,7-11.2,7
		l13.1-5.4l0-0.2l0.2,0.4l-3.8,2.2l-9.3,4l0.3,0.9c0.9-1.2,12.5-4.4,14-4.8l0.1,0.2l-9.3,3.4c3.5-1.1,7.9-1.9,9.9-2.2l2.9,5.8
		c-0.3,0-0.5-0.1-0.7-0.1c-0.8-0.2-6.3,1.1-6.3,1.1c-3.2-0.5-9.3,6.2-9.3,6.2l8.4-3.6l-0.9,1.7l-6.5,3l3.8-0.8l11.9-6.5l1.5,3
		c0,0,0,0.1,0.1,0.3l-6.7,1c-2.3,0.6-8.8,4.9-8.8,4.9l5.6-1.8l-5.7,5c7.5-5.5,13.7-7.5,16.1-8.1c0.4,0.9,1,2.2,1.8,3.7l-4.2,0.1
		c-4.2,0.3-7.9,3.6-9.2,4.9c1.2-0.7,4-1.5,5.2-1.9c-2,0.7-5.3,3.5-7,4.9c3.3-2,13.4-6.5,13.4-6.5c-1.1,0.4-1.2,2-1.2,2.5
		c-5.9,1.5-11,5.1-11,5.1c11.9-6.1,13.1-3.3,13.1-3.3c-1.3-2-14.8,7.5-14.8,7.5l6.5-3.8l-3.8,3.3l8.6-4.5l-5.8,3.7l6-2.5l-2.3,3.2
		l5-4.5l-1.2,2.6c0.9-1.9,4.1-4,5.8-4.9c0.8,1.5,1.5,3,2,4.1c-1.5,0-4.9,0.4-9.5,2.7l6.1-1.3l-14.2,5.3l6.6-1.3c0,0-5.8,3.7-4.8,4.3
		l-1.3,1.5l11.7-7.3l-4.6,3.9c0,0,8.6-5.6,10.7-6.3c0.3,0.5,0.5,0.8,0.5,0.7l2.7,5c-4,0.6-17.3,2.7-16.3,3.3l10.9-1.8l-10.6,5.4
		c0,0,1.2,0.6,3.4-0.1L528,369l3.7-0.9l-4,3.2l7.6-4.3l-5.1,3.8l4-2.4l-1.5,1.8c0,0,11.1-8,14-9.3l3.1,5.9
		c-2.3-0.1-10.8,3.1-10.8,3.1c0.6,0.3,3.5,0.3,3.5,0.3c-0.4-0.2-9.1,6.2-9.1,6.2l0.2,0.1c0.2,0.1,8-4.2,8-4.2l-4.6,3.9
		c4.2-2.9,11.1-6.8,13.4-8.1l1.5,2.9c0,0,0.5,1,1.3,2.5c-2.6-1.1-5.6-0.3-7.1,0.2c2.8-0.7,7.1,0.7,7.1,0.7l-7.3,1.8l4.5-0.5
		l-16.4,5.8l5.4-1.2l-1.8,1.9l9.2-3.8l-8.9,5.1c0.2,0.6,8.6-3.7,11.2-5c-2.2,1.7-7.7,8.8-7.7,8.8c10.4-11.2,12.9-10.3,12.9-10.3
		l0.1-0.7c1.1,2.1,2.4,4.5,3.6,6.6l-4.8,0.7l2.5,0.4c0,0-13.4,9-13.3,9.5l5.4-2.6c0,0-5.1,4-4.6,4.3c0,0,12.4-9.8,13.3-9.3l-0.5,1.2
		l2.6-3c1.4,2.4,2.4,4.2,2.6,4.1c0,0,0.9,1.6,2.3,4.1c-1.5,0.5-5.8,1.9-5.7,3.4l-8.3,4.3l2.5-0.4l-2.1,1.9c0,0,3.5-2.7,5.5-3.5
		l-3.6,4.2l7.2-6.4l-4.3,5.3c0,0,7-7.2,9.5-7.9c1.4,2.4,3.1,5.3,4.7,8.1c-1.6,0.8-7.8,3.9-9.7,6.1c-2.2,2.6,0.1,0.7,0.1,0.7l4.8-2
		l-1.3,2l1.9-2.3l-0.1,1.7c0,0,1.8-4.1,4.9-5.3c2.3,4,4.4,7.4,5,8.2c-1.6,0.7-4.7,2.4-5.4,4.1l4.7-2.4l-1.7,3.9l2.9-3.3l-1.2,3.7
		l1.9-4.1l9.6,17.2C591.4,433.4,589.4,426.9,589.4,426.9"/>
	<path clip-path="url(#SVGID_2_)" d="M546.3,373.7c-0.3,0.1-0.7,0.2-1,0.4C545.3,374.1,545.7,373.9,546.3,373.7"/>
	<path clip-path="url(#SVGID_2_)" d="M533.5,379.1l3.5-2.9C535.1,377.5,533.7,378.6,533.5,379.1"/>
</g>
<polygon points="557.1,360.8 555.8,361.8 555.4,362.3 "/>
<polygon points="557.8,359.3 557.9,359.5 559.1,357.7 "/>
<g>
	<defs>
		<rect id="SVGID_3_" x="0" y="0" width="600" height="430.5"/>
	</defs>
	<clipPath id="SVGID_4_">
		<use xlink:href="#SVGID_3_"  overflow="visible"/>
	</clipPath>
	<path clip-path="url(#SVGID_4_)" d="M562.8,351.6l1.4-0.4C564.2,351.2,563.6,351.3,562.8,351.6"/>
	<path clip-path="url(#SVGID_4_)" d="M561,354.1c1.1-0.5,2-0.9,2-0.9S562.2,353.5,561,354.1"/>
	<path clip-path="url(#SVGID_4_)" d="M521,351.7c0,0,0.4-0.3,1-0.9C521.3,351.2,521,351.5,521,351.7"/>
	<path clip-path="url(#SVGID_4_)" d="M523.3,348.3c0,0,0.2-0.2,0.5-0.5C523.4,348,523.2,348.1,523.3,348.3"/>
	<path clip-path="url(#SVGID_4_)" d="M516.8,338.6c6.3-6.4,15.2-6.3,15.2-6.3l-0.6-0.6c-8.6,0.2-7.9,1-7.9,1
		C515.4,337.3,516.8,338.6,516.8,338.6"/>
	<path clip-path="url(#SVGID_4_)" d="M515.1,336c12.9-7.1,16.2-5.1,16.2-5.1l0-0.3C522.6,327.4,515.1,336,515.1,336"/>
	<path clip-path="url(#SVGID_4_)" d="M520.2,330.2c-0.7,0.2-1.5,0.5-2.1,0.8L520.2,330.2z"/>
	<path clip-path="url(#SVGID_4_)" d="M526.4,321.3l-3.3-0.2c-10.1,4.5-9.1,6.5-9.1,6.5c6.3-4.6,13-5.7,13-5.7L526.4,321.3z"/>
	<path clip-path="url(#SVGID_4_)" d="M558.9,343.2c0,0,0,0.1-0.1,0.3C558.9,343.4,558.9,343.3,558.9,343.2"/>
	<path clip-path="url(#SVGID_4_)" fill="#FFFFFF" d="M57.8,252.1l-0.3-1.9l-2.8-21.3c-0.5-1.6-0.6-1.1-0.6-1.1
		c-0.3-0.2-0.8-4.8-0.8-4.8l-0.9-7.2c0.1-2.1,1.3-1.3,1.3-1.3c0.7,0.9,0.6,1.3,0.6,1.3c7.9,3.8,3.2-3.3,3.2-3.3
		c-0.6-0.5,0-0.4,0-0.4c8,5.1,3.8-1.9,3.8-1.9c6.4,4.9,3.3-1,3.3-1c6,3.2,2.5-1.8,2.5-1.8c5,3.5,2.5-0.9,2.5-0.9
		c3.1,2.9,2.2-0.8,2.2-0.8c3.1,3.9,1.8-1.3,1.8-1.3c2.2,3.1,1.9-0.5,1.9-0.5c1.6,2.5,1.7-0.9,1.7-0.9c1.5,3.1,1.1-0.2,1.1-0.2
		c1.9,1.5,1.1-0.4,1.1-0.4c0.4-0.3,0.9,0.4,0.9,0.4c0.1-0.1,0.2-0.9,0.2-0.9l0.3,0.5l0.2-0.7c0,0-0.2,0.7,0,0.2
		c0.2-0.5,0.8-0.6,0.8-0.6c1.8-1.5-1-0.9-1-0.9c-0.6-0.5-0.7,0.2-0.7,0.2c0,0-0.1-0.1-0.1-0.1c-0.8-0.9-0.8,0-0.8,0
		c-0.4-1.4-1.5,0.2-1.5,0.2c0-2.3-1.4,0.1-1.4,0.1c-0.1-3-1.9,0.2-1.9,0.2c-0.6-3.3-1.9,0.5-1.9,0.5c-1.2-3.3-2.2,0.6-2.2,0.6
		c-0.5-4.1-2.4-0.1-2.4-0.1c-1-3-2.7,1.1-2.7,1.1c-1.3-3.1-2.9,1.1-2.9,1.1c-0.4-0.4-0.9-0.5-0.9-0.5c-2.1-0.2-2.1,2.4-2.1,2.4
		l-0.5-1c-0.7-1.4-1.7,0-1.7,0s1,0.1-0.2,0c-1.2-0.2-0.9,2.9-0.9,2.9l-0.7-0.7c-3.7-3.8-2.9,1.6-2.9,1.6c-0.9,0.3-0.1,1.5-0.1,1.5
		c1.7,0.9-0.3,1.6-0.3,1.6c-0.4,0-1.6-3-1.6-3c-0.2-2.3-1-4.8-1-4.8c-0.2-2.9,1.4-1.8,1.4-1.8c1.8,2.6,4.1,0.6,4.1,0.6
		c1.1-0.4-1.4-2.9-1.4-2.9c5.8,4,3.7-0.9,3.7-0.9c3.7,2.9,2.5-0.5,2.5-0.5c3,2.7,2.4-0.6,2.4-0.6c2.9,3.3,2.4-0.6,2.4-0.6
		c2.1,2.9,2.1-0.1,2.1-0.1c1.8,1.8,1.6-0.3,1.6-0.3c1.8,1.8,1.6-0.7,1.6-0.7c0.8,1.6,1.9,0.9,1.9,0.9v-1l0.5,0.8l0.1-0.9l-0.2,0
		c-0.2,0,1.3,0.6,1.3,0.6l-0.1-0.5l1.2,0.3l-0.2-0.3c1.3,0.2,1.8-0.5,1.8-0.5c-0.2,0.3-2.6-0.4-2.6-0.4l0.2-0.7
		c-0.3,0-0.9,0.5-0.9,0.5l0.3-1c-0.5-0.2-0.9,0.7-0.9,0.7c-0.2-0.1-0.2-1.1-0.2-1.1c-0.1-0.8-1.2,0.6-1.2,0.6l-0.1-0.6
		c-0.2-1.8-0.9,1.1-0.9,0c0-0.1,0-0.2,0-0.3c-0.1-0.4-0.4,0.5-0.4,0.5c-0.6-2.7-2-0.3-2-0.3c-0.9-2.8-2.4,0.2-2.4,0.2
		c-0.3-3.2-2.4,0.2-2.4,0.2c0-3.7-2.2,0.1-2.2,0.1l-0.2-0.2c0.1-3.9-2.4,0-2.4,0c0.2-1.1-0.1-0.9-0.1-0.9c-1-0.6-2.7,1.5-2.7,1.5
		c-1.8-3.8-3.1,1.3-3.1,1.3c-1.3-2.6-2.7-1.3-2.7-1.3c-2.2,1.8-0.4,4-0.4,4c-0.1,1.6-0.5,1.2-0.5,1.2l-0.8-2
		c-1.3-1.3-1.3-3.3-1.3-3.3c-0.9-2,0.7-2.1,0.7-2.1c1.8,1.6,3,0.6,3,0.6c2.1-0.7,0.2-2.4,0.2-2.4c4.1,2,2.7-1,2.7-1
		c3.6,1.9,2.5-0.9,2.5-0.9c2.4,1.5,2-0.5,2-0.5c2.1,1.3,1.9-0.3,1.9-0.3c1.8,0.7,1.6-0.4,1.6-0.4c1.6,0.5,1.5-0.4,1.5-0.4
		c1.3,0.3,0.9-0.4,0.9-0.4c1.1,0.2,1.4-0.4,1.4-0.4c4.5-2-1.6-2.6-1.6-2.6c-0.2-0.3-0.9,0-0.9,0c-0.5-0.9-1.4,0.1-1.4,0.1
		c-0.5-1.1-1.6-0.3-1.6-0.3c-0.9-0.9-2,0.2-2,0.2c-0.5-1.2-2.1,0.6-2.1,0.6c-1.1-1.4-2.2,0.5-2.2,0.5c-1.1-1.5-2.4,0.6-2.4,0.6
		c-2.1-2-2.4,1.3-2.4,1.3l-0.3,0c-4-2.2-2,3-2,3c0.3,1.3-0.4,0.6-0.4,0.6c-0.9-0.3-1.3-4.2-1.3-4.2c-0.3-0.8,0.5-0.9,0.5-0.9
		c4,1.6,3.1-1.6,3.1-1.6c3,0.2,2.3-1.4,2.3-1.4c2,0.7,1.8-0.9,1.8-0.9c2,0.2,1.4-0.9,1.4-0.9c1.6,0.9,1.7-0.8,1.7-0.8
		c1.3,0.2,1.3-0.8,1.3-0.8c1-0.1,0.9-0.7,0.9-0.7c0.5,0.4,0.9-0.7,0.9-0.7c0.6,0.5,0.7-0.7,0.7-0.7c0.7,0,0.7-0.5,0.7-0.5
		c1.2-1.6-1.1-1.5-1.1-1.5s0.4,0.4-0.1,0.2c-0.5-0.2-0.8,0.1-0.8,0.1c-0.6-0.2-0.9,0.2-0.9,0.2c-0.7-0.4-1.2,0.4-1.2,0.4
		c-0.7-0.4-1.1,0.4-1.1,0.4c-0.7-0.7-1.3,0.4-1.3,0.4c-0.9-0.7-1.6,0.8-1.6,0.8c-0.9-1.6-2,0.6-2,0.6c-1.2-1.5-2.1,0.8-2.1,0.8
		c-1.4-1.7-2.6,1.1-2.6,1.1c-3.3-1.9-1.5,2.4-1.3,2.7c0.2,0.3-0.2,0.8-0.2,0.8l-0.5-0.6l-0.9-1.4l-0.4-1.2l0.1-1.2
		c5-1.7,2.4-2.1,2.4-2.1c3.3-0.8,1.4-1.5,1.4-1.5c2.6,0,1.5-1.2,1.5-1.2c1.2,0.1,1.3-0.7,1.3-0.7c1.1-0.1,0.8-1,0.8-1
		c1.8,0.3,0.8-0.9,0.8-0.9c0.7,0.2,0.7-0.6,0.7-0.6c0.5-0.4,0.3-0.6,0.3-0.6l0.4-0.2c0.6-2.7-2.9-0.4-2.9-0.4c0-0.6-1.7,0.3-1.7,0.3
		c-0.5-0.3-0.9,0.7-0.9,0.7c-0.9-0.7-1.5,0.8-1.5,0.8c-1.3-1.2-1.1,0.7-1.1,0.7c-0.4-0.3-0.4,0.4-0.4,0.4c-1.2-1.3-1.4,1-1.4,1
		l-0.3-0.2l-0.6,0l-0.5,0l-0.4,0.7c0,0,0.7,1.7,0.2,1.4c0,0-0.1,0-0.1-0.1c-0.5-0.4-1.3-1.7-1.3-1.7l0.2-0.3c4.6-1,2.2-1.7,2.2-1.7
		c2.6-0.9,1.2-1.1,1.2-1.1c2-0.7,0.7-1,0.7-1c1.4-0.3,1-0.9,1-0.9c1.2-0.1,0.4-0.9,0.4-0.9c0.7-0.2,0.4-0.7,0.4-0.7
		c1-2.9-1.6-1.1-1.6-1.1c-0.9-0.2-0.8,0.4-0.8,0.4c-0.9-0.3-0.9,0.6-0.9,0.6c-0.8-0.6-0.6,0-0.6,0c-0.2-0.6-0.5,0.5-0.5,0.5
		c-0.2-0.4-1.1,0.7-1.1,0.7c-1-0.7-1.3,1.2-1.3,1.2c-1.2-1.2-1.1,1.7-1.1,1.7c-1.9-1.7-0.9-1.9-0.9-1.9c3.6-0.6,2-1.5,2-1.5
		c1.9,0,0.9-0.9,0.9-0.9c0.9,0.1,0.8-0.5,0.8-0.5c1.1-0.3,0.6-0.9,0.6-0.9c1.2-0.5,0.4-0.9,0.4-0.9c0.6-2.3-2.9-0.4-2.9-0.4
		c-0.6-0.4-1.8,0.9-1.8,0.9c-0.5-0.5-1.2,0.6-1.2,0.6l-0.5,0c-0.6,0.2-0.2,1.4-0.2,1.4l-0.4-0.7v-0.5l-0.1-0.2
		c2.7-0.3,1.1-0.9,1.1-0.9c2-0.2,0.2-0.6,0.2-0.6c0.9,0.3,1.1-0.2,1.1-0.2c1.1-4.2-2-2-2-2c-0.3-0.1-0.3,0.3-0.3,0.3
		c-0.5-0.3-0.7,0.3-0.7,0.3c-0.5-0.5-0.9,0.4-0.9,0.4c-0.5-0.9-1,0.4-1,0.4l-0.7-1.4c0.2-0.3,0.6,0,0.7-0.2c0.1-0.2,0-0.4,0.1-0.6
		c0.1-0.2,0.3-0.3,0.3-0.5c0.1-0.2,0.1-0.4,0.2-0.5c0-0.2-0.1-0.3-0.1-0.4c0-0.2,0.2-0.4,0.2-0.6c0-0.2,0.1-0.5,0-0.6
		c0,0-0.2-0.1-0.3-0.1c-0.1-0.1-0.3,0-0.5,0c-0.2,0-0.5,0.2-0.7,0.3c-0.2,0.1-0.4,0-0.6,0.1c-0.2,0.1-0.4,0.2-0.4,0.2h-0.6l-0.1-0.3
		c0.1-0.2,0.1-0.7,0.2-0.9c0.2-0.4,0.5-0.4,0.6-0.7c0.1-0.3,0-0.7,0.1-0.9c0.2-0.9,0-1-0.4-1c-0.2,0-0.5-0.1-0.6-0.1
		c-0.4,0.1-1,0.3-1,0.3c0.1-0.2,0.3-0.5,0.3-0.6c0.1-0.2,0.3-0.3,0.3-0.5c0.1-0.5,0.1-0.8,0-1c0-0.1-0.1-0.3-0.2-0.4
		c-0.2-0.1-0.4,0.4-0.6,0.5c-0.3,0.1-0.6,0-0.6,0c0-0.2-0.1-0.6-0.1-0.8c0-0.2,0.2-0.2,0.2-0.4c0-0.2,0-0.4,0-0.5
		c-0.1-1.3-1-0.5-1-0.5c0.5-0.8,0.4-1.2,0.1-1.4c-0.1-0.1-0.2,0.1-0.4,0.1c-0.1,0-0.3-0.2-0.4-0.2c-0.5,0-1,0.2-1,0.2
		c-1.5-2.5-1.1-0.7-1.1-0.7c-1.5-0.4,0.4,0.9,0.4,0.9c-1.6,0.5-1.8,0.9-1.2,1.2c0.1,0.1,0.7,0.1,0.9,0.1c0.1,0,0,0.2,0.1,0.2
		c0.3,0.1,0.6,0.2,0.6,0.2c-0.2,0.1-0.4,0.1-0.5,0.2c-0.3,0.1-0.4,0.3-0.5,0.4c-0.2,0.1-0.6,0.2-0.7,0.3c-0.5,0.3-0.2,0.5,0.4,0.7
		c0.2,0.1,0.6,0,0.8,0c0.2,0.1,0.3,0.3,0.5,0.3c0.4,0.1,0.8,0.1,0.8,0.1c-0.3,0.1-0.5,0.3-0.7,0.4c-0.2,0.1-0.6,0-0.8,0
		c-0.2,0.1-0.3,0.3-0.4,0.3c-0.2,0.1-0.4,0-0.5,0.1c-0.3,0.2-0.3,0.3-0.2,0.5c0.1,0.1,0.4,0.1,0.6,0.2c0.2,0.1,0.3,0.4,0.6,0.4
		c0.2,0.1,0.6-0.1,0.8,0c0.2,0.1,0.3,0.3,0.5,0.3c0.6,0.1,1.1,0.2,1.1,0.2c-0.4,0-0.3,0.1-0.6,0.2c-0.1,0-0.3,0.2-0.4,0.2
		c-0.2,0-0.5-0.1-0.6,0c-0.2,0.1-0.3,0.4-0.4,0.5c-0.2,0.1-0.4,0-0.5,0.1c-0.2,0.2-0.3,0.4-0.3,0.4c0,0.2,0.1,0.3,0.2,0.4
		c0.1,0.2,0.5,0.3,0.7,0.4c0.2,0.1,0.2,0.2,0.5,0.2c0.2,0,0.6-0.1,0.9-0.1c0.2,0,0.3,0.2,0.5,0.2c0.6,0,1-0.1,1-0.1
		c-0.4-0.1-0.7,0.7-0.7,0.7c-0.5,0-1.1,0.2-1.4,0.5c-0.1,0.1-0.2,0.4-0.3,0.5c-0.3,0.3-0.3,0.2-0.4,0.5c-0.1,0.2-0.1,0.3-0.1,0.3
		c0.1,0.2,0.2,0.4,0.3,0.6c0.1,0.1,0.5,0.1,0.5,0.2c0.2,0.2,0.2,0.3,0.4,0.3c0.6,0.1,1.1,0.1,1.1,0.1c-0.1,0.5,1.6,0.2,1.6,0.2
		c0.2,0,1-0.5,1-0.5l0.4,0.6c-0.4,0-0.5-0.2-0.8-0.1c-0.1,0-0.1,0.2-0.2,0.2c-0.1,0.1-0.4,0.1-0.5,0.2c-0.4,0.3-0.6,0.7-0.6,0.7
		c-0.8-0.3-0.7,0.7-0.7,0.7c-0.5,0.4-0.4,1.3-0.4,1.3c0.2,0.2,0.4,0.4,0.6,0.5c0.1,0.1,0.4-0.1,0.5,0c0.3,0.1,0.7,0.1,1,0
		c0.3,0,0.6-0.3,0.9-0.4c0.4-0.1,0.5,0,0.8-0.1c0.4-0.2,0.7-0.4,0.7-0.4l0.3-0.1l0.4,0.6c-1.4-0.4-1.4,0.7-1.4,0.7
		c-0.8-0.1-0.8,0.4-0.8,0.4c-0.3,0-0.6,0.1-0.8,0.2c-0.2,0.1,0,0.4-0.2,0.5c-0.3,0.3-0.7,0.5-0.7,0.5c-0.1,0.2-0.2,0.6-0.2,0.8
		c-0.1,0.2-0.3,0.4-0.3,0.5c0,0.4,0,0.6,0.2,0.7c0.2,0.1,0.4,0,0.7,0c0.3,0,0.6,0.1,0.9,0.1c0.6-0.1,1.1-0.4,1.1-0.4
		c-0.1,0.8,1.1-0.1,1.1-0.1c0.8,1.2,1.9-0.9,1.9-0.9l1.1-0.1l0.9,1.1l-0.3,0c-1.8-1.2-1.6,0.4-1.6,0.4c-2-0.3-1.3,0.7-1.3,0.7
		c-1.8-0.2-0.9,1.1-0.9,1.1c-1.2-0.1-0.7,0.5-0.7,0.5c-0.7-0.2-0.4,0.5-0.4,0.5c-0.5-0.2-0.3,0.7-0.3,0.7c-0.5,0-0.4,0.5-0.4,0.5
		c-1.1,3.1,3.4,0.7,3.4,0.7c0.6,0.4,1.5-0.8,1.5-0.8c0.2,1.1,1.7-1,1.7-1c0.8-1.3,2.1,1.2,2.1,1.2c0.1,0.7-0.5-0.3-0.5-0.3
		c-2.2-1.4-1.8,0.3-1.8,0.3c-2.5,0-1.2,0.9-1.2,0.9c-2.7,0-1.5,0.9-1.5,0.9c-2-0.4-1.1,0.8-1.1,0.8c-0.9-0.2-0.5,0.7-0.5,0.7
		c-1.1-0.1-0.3,0.5-0.3,0.5c-1.1,0.7,0.1,1.4,0.1,1.4c-2.2,2.2,1.2,0.7,1.2,0.7c0.3,0.5,0.8-0.1,0.8-0.1c0.2,0.5,1-0.5,1-0.5
		c0.5,0.9,1-0.4,1-0.4c-0.4,0.7,1.7-0.7,1.7-0.7c-0.2,1.6,1.9-0.8,1.9-0.8c0.5-0.9,0.9-0.6,0.9-0.6c1.2,0.9,1.4,3.1,1.4,3.1
		c-0.5,0.2-0.7-1.5-0.7-1.5c-2.6-1.6-2.1,0.7-2.1,0.7c-2.7-0.6-1.6,1.1-1.6,1.1c-2.1-1.3-1.7,0.4-1.7,0.4c-2.2-0.8-1.4,0.8-1.4,0.8
		c-1.7-0.6-1.3,0.8-1.3,0.8c-1-0.2-0.7,0.8-0.7,0.8c-0.7-0.3-0.7,0.4-0.7,0.4c-0.3-0.1-0.7,0.7-0.7,0.7c-1.6,2.8,1.5,1.7,1.5,1.7
		c0.5,0.6,0.9-0.6,0.9-0.6s-0.4-0.4,0,0.2c0.4,0.7,1.1-0.3,1.1-0.3c0.6,0.8,1.4-0.7,1.4-0.7c0.3,1.3,1.6-0.3,1.6-0.3
		c1.4,0.7,2.3-1.3,2.3-1.3c-0.8,1.6,0.6,1.4,0.6,1.4c0.8,0.3,2-2.4,2-2.4c1.2,0.4,1.6,3.2,1.6,3.2c-3.4-3.1-2.9,0.1-2.9,0.1
		c-2.9-2.1-2.4,0.5-2.4,0.5c-1.9-1.5-2.1,0.7-2.1,0.7c-2-1.2-1.4,1-1.4,1c-2.4-1-1,1.1-1,1.1c-1.4-0.8-1.2,0.7-1.2,0.7
		c-1.4,0-0.9,0.8-0.9,0.8c-1.4-0.4-0.8,0.7-0.8,0.7c-0.8-0.3-0.7,0.4-0.7,0.4c-0.4,0.2-0.5,0.5-0.5,0.5c-2,2.1,0.7,1.7,0.7,1.7
		c0.2,0.5,0.7,0.1,0.7,0.1c0.5,0.8,0.8-0.1,0.8-0.1c0.1,0.9,1.3-0.3,1.3-0.3c0.6,1.1,1.3-0.7,1.3-0.7c0.6,0.7,1.1-0.4,1.1-0.4
		c0.7,0.9,1.4-0.6,1.4-0.6c0.4,1.5,1.7-0.4,1.7-0.4c0.5,1.7,2.4-0.4,2.4-0.4c0.4,2.6,1.9,0.3,2.4,0.5c0.5,0.2,0.8-2,0.8-2
		c1.3,0.3,2.1,5.3,2.1,5.3c0.1,3.2-0.9,0.2-0.9,0.2c-3.4-3.6-3.5-0.4-3.5-0.4c-3.7-1.7-3,0.7-3,0.7c-2.1-1.6-2.3,0.6-2.3,0.6
		c-2.5-0.9-1.8,1.1-1.8,1.1c-2-0.9-1.4,0.8-1.4,0.8c-2.1-1-1.6,1-1.6,1c-2-0.8-1.1,1.1-1.1,1.1c-1.6-1-1.1,0.8-1.1,0.8
		c-1.5,0.1-0.8,0.8-0.8,0.8c-1.2-0.4-0.8,0.9-0.8,0.9c-2.2,3.2,1.7,2.1,1.7,2.1c0.5,0.9,0.9-0.4,0.9-0.4c0.4,0.9,1.1-0.4,1.1-0.4
		c0.1,1.1,1.3-0.4,1.3-0.4c1.1,1.2,1.3-0.9,1.3-0.9c1.3,2.1,1.6-0.5,1.6-0.5c0.6,2.1,1.9-0.5,1.9-0.5c-0.4,1.8,2.1-0.1,2.1-0.1
		c0.4,2.1,2.7-0.4,2.7-0.4c3.4,2,3.8-1.5,3.8-1.5c0.2-1.3,1.3,0.1,1.3,0.1c0.5-0.1,2,7.5,2,7.5c0.1,3.1-1-0.1-1-0.1
		c-1.7-4.8-4.6-1.6-4.6-1.6c-3.3-2.1-4,0.3-4,0.3c-3.3-1.7-3.3,0.5-3.3,0.5c-3.1-1.2-1.7,1-1.7,1c-3.6-1.5-2.5,0.5-2.5,0.5
		c-2.8-1.6-1.7,1.2-1.7,1.2c-3-1.6-1.6,0.9-1.6,0.9c-2.8-1.4-1.4,0.9-1.4,0.9c-2.1-1.3-1.3,0.5-1.3,0.5c-2.2-0.9-1,1-1,1
		c-1.3-1-0.9,0.3-0.9,0.3c-1.1-0.3-0.9,0.4-0.9,0.4c-3.4,3.2,1.4,2.2,1.4,2.2c0.1,0.5,1-0.2,1-0.2c0.6,0.9,1.1-0.2,1.1-0.2
		c0.8,1.4,1.3-0.4,1.3-0.4c1.4,1.6,1.5-0.8,1.5-0.8c-0.2,2.7,1.5-0.2,1.5-0.2c0.4,2.9,1.9-0.1,1.9-0.1c0.9,2.4,2-0.1,2-0.1
		c1,2.3,2.6-0.5,2.6-0.5c0.9,2.4,2.4-0.3,2.4-0.3c1.3,3.1,4.1-1.3,4.1-1.3c0.4,7.8,4.2,0.5,4.2,0.5c0.6-2,2.1,0.2,2.1,0.2l1,5.5
		c1,5.1,0.5,5.6,0.5,5.6c-1,0.6-1.6-1.4-1.6-1.4c1.7-2.4-0.3-3.2-0.3-3.2c-4.2-2.7-4.3,1-4.3,1c-3.3-2.8-4.8-0.8-4.8-0.8
		c-2.4-1-3.2,0.1-3.2,0.1c-3.2-1.4-3,0.5-3,0.5c-3.1-2.2-2.8,0.3-2.8,0.3c-3.4-1.9-2.1,0.8-2.1,0.8c-4-1.4-2.1,0.8-2.1,0.8
		c-3-1.4-1.7,0.9-1.7,0.9c-2.2-1.6-1.2,1.3-1.2,1.3c-2.7-1.3-1.5,0.7-1.5,0.7c-1.8-1-1,0.7-1,0.7c-2.1-0.6-1,1.1-1,1.1
		c-1.4-0.3-0.8,0.7-0.8,0.7c-1.1-0.2-0.7,0.8-0.7,0.8c-0.4,0.1-0.3,0.4-0.3,0.4c-2,2.7,1.1,1.1,1.1,1.1c0.2,0.3,0.8-0.3,0.8-0.3
		c0.3,0.6,0.9-0.4,0.9-0.4c0.8,0.7,1-0.5,1-0.5c0.8,1,1.3-0.4,1.3-0.4c1,1.4,1.1-0.4,1.1-0.4c1.7,1.6,1.5-0.6,1.5-0.6
		c1.3,2.6,1.7-0.4,1.7-0.4c0.5,2.5,1.9-0.1,1.9-0.1c0.4,3,2.1,0.1,2.1,0.1c0.4,3,2.5,0.4,2.5,0.4c0.4,2.8,2.7,0.1,2.7,0.1
		c0.8,2.6,3.3,0.2,3.3,0.2c1,3.8,4.4-1.1,4.4-1.1c1-1.6,0.8-0.8,0.8-0.8l-0.3,2.8c-0.3,4.2,3.3,1,3.3,1c1.6,0.1,1.3-2.5,1.3-2.5
		c0.6-1.7,1.9,1.3,1.9,1.3c0.3,0.3,2.1,11.6,2.1,11.6c0.2,2.2-0.2,2-0.2,2c-0.5,0.8-1.4-0.5-1.4-0.5s0.2,0.6-0.2-0.1
		c-0.4-0.7,0.9-1.5,0.9-1.5c0.5-0.9-1.1-4.1-1.1-4.1c-0.7-2-3.7-1.4-3.7-1.4c-0.3,0.5-0.9,4.4-0.9,4.4c-0.7-0.3-0.5-1.2-0.5-1.2
		c-4.8-5.2-5.6-0.7-5.6-0.7c-4.5-2.5-4.1,0.9-4.1,0.9c-5.3-3.4-3.6,1.1-3.6,1.1c-4.1-3.3-3.9,0.4-3.9,0.4c-3.8-2.2-3.3,1.3-3.3,1.3
		c-3.3-2-2.8,1.1-2.8,1.1c-3.1-2.2-1.9,0.7-1.9,0.7c-3.3-2-1.9,0.9-1.9,0.9c-2.6-2.2-1.5,0.6-1.5,0.6c-2.2-1.9-1.3,0.5-1.3,0.5
		c-2.7-1.7-1.4,0.7-1.4,0.7c-1.2-0.9-1.1,0.3-1.1,0.3c-0.9-0.5-0.7,0.4-0.7,0.4c-0.7-0.4-0.7,0.4-0.7,0.4c-1-0.3-0.6,0.4-0.6,0.4
		c-2.3,1.3,0.6,1.1,0.6,1.1c0.1,0.5,1,0.1,1,0.1c0.4,0.8,0.9,0,0.9,0c0.3,1.2,1.1-0.2,1.1-0.2c0.5,1.7,1.2,0,1.2,0
		c1.4,1.8,1.6-0.3,1.6-0.3c0.9,2.8,1.7-0.2,1.7-0.2c0.8,3.1,1.9-0.3,1.9-0.3c0.9,3.7,2.1-0.1,2.1-0.1c1.2,4.5,2.4-0.5,2.4-0.5
		l0.3,0.8c1,2.3,2.2,0.4,2.2,0.4l0.7-2l-0.1,0.9c-0.2,2.2,1.6,1.5,1.6,1.5c0.6,0.4,2-3.1,2-3.1l-0.2,1.3c0.4,3.2,2.6,0.2,2.6,0.2
		l1.1-1.8l-0.4,2c1.1,3.3,3,0.2,3,0.2c0.3-0.1,1.8-1.7,1.8-1.7l-0.7,1.6c-1.2,2.1,2.5,2,2.5,2s-0.5-0.1-0.3-0.1s2.1-1.5,2.1-1.5
		c1.3-0.9,1.4-2.5,1.4-2.5L47,241l-0.3,1c-1.2,1.4,0.1,1.1,0.1,1.1c-0.9,1.9,0.6,3.2,0.6,3.2c2.3,0.5,3-1.2,3-1.2
		c2.3,0.1,1.3-2.2,1.3-2.2c-0.2-0.4,0.5-1.3,0.5-1.3c2,0.4,3.6,8,4.1,8.4c0,0,0.5,0.4,0.7,0.6C57.2,250.9,57.8,252.1,57.8,252.1"/>
	<path clip-path="url(#SVGID_4_)" fill="#FFFFFF" d="M112.5,334.5c-0.9-1.6-0.1-6.3-12.4-6.9c-12.2-0.6-16.1,8.9-17,11.9
		c-1,3.7-1.5,4.3-8,7c-11.6,4.9-13.9,10.5-13.9,10.5c-14.4,8.1-19.9,14.2-21.9,17.5c-0.4,0.7-8.3,4.2-10,7.7c0,0,0.9-0.4,1.7-0.4
		c1.2-0.1,2.3,0.1,0.9,0.4c-2.3,0.6-29.6,18-30.5,19.1c0,0,0.3,0.4-0.1,1.2c0,0,0.2,0.7-0.1,1.4c-0.4,0.9-1.6,2.3-1.2,2.4
		c1.3,0.3,20.7-13.5,22.9-12.9c2.2,0.6,11.4-2.2,14.4-2.2c3,0,15.4-2,17.7,0.4c1,1.1,3.8,1.1,6.7,1.1c0,0,0.9,5.3,5.3,6.2
		c0,0,0.8,0.8-0.1,0.7c-0.9-0.1-4.5-0.5-6.3,0.3c-1.9,0.8-3.3,2.2-3.3,3.1c0,0,2.4-2.8,3.6-2.2c1.2,0.6,0.2,2.2,0.5,2.3
		c1,0.4,1.9-1.7,2.9-1.3c1.1,0.4,1.7,1.7,1.9,1.3c0.7-1,2.2-1.5,4.6-0.9c2.4,0.6,5.5,2.7,4.7,3.1c-0.7,0.4-4.2-0.4-4.7-0.1
		c-0.5,0.4-2.6-0.1-3.4,0.5c-0.8,0.6-2.4,2.3-1.6,3.4c0,0,1.7-2.4,2.6-2.3c0.9,0.1,1.8,1.5,1.8,1.5c0.8,0.1,1.2-1.4,2.1-1.3
		c0,0-0.4,1.2,1.9,1c2.2-0.1,3.9-1.4,6.1-0.6c2.2,0.8,4.7,1,7.4,0.4c4.1-0.9,5.9,2.5,5.9,2.5c-1.3-4.7-4.6-4-6-4.4
		c-1.4-0.4-1.7-1.6-3-1.6c-1.4-0.1-1.7,0.8-3,0.6c-1.3-0.2-1.5-2.6-2.6-2.8c-1.2-0.2-10.4-3.2-9.9-8.2c0-0.3,0-0.5,0-0.8
		c0.2,0,0.3,0,0.3,0c19.9-6.8,33.2-22.3,36-30.1c2-5.6,0.7-13.7,1.9-14.4c3-1.9,4.2-7.1,4.2-7.1s0.1-0.5,1.6-1.2
		c2.2-1,5.3-1.5,5.3-1.7C118.2,338,113.4,336.1,112.5,334.5"/>
	<path clip-path="url(#SVGID_4_)" fill="#FFFFFF" d="M507.4,60.6c-1.7,0.3-7.9,1.2-16.1,2.1c3.6,2,9.4,5.1,10.4,4.4
		c0,0,0.6-3.1,3-4.7c1.2-0.8,2.2-1.4,3.1-1.9C507.6,60.6,507.5,60.6,507.4,60.6"/>
	<path clip-path="url(#SVGID_4_)" fill="#FFFFFF" d="M524,59.6c-0.3,0.1-0.7,0.2-1.3,0.2c2.2,2.5,6.9,4.1,7.3,3.4
		c0.3-0.5-0.2-3,1.3-5.1C527.7,58.8,524.6,59.5,524,59.6"/>
	<path clip-path="url(#SVGID_4_)" fill="#FFFFFF" d="M535.4,47.3c-2.2-2.1-5.3-5.9-6.4-5.9c-0.5,0,0.3,1.8-4.7,3.3
		C528.6,45.6,532.4,46.5,535.4,47.3"/>
	<path clip-path="url(#SVGID_4_)" fill="#FFFFFF" d="M474.7,37.4c3,0.5,6.1,1.1,9.3,1.6c0.8,0.1,1.7,0.2,2.5,0.3
		c-1.3-1.1-2.5-2.5-3.3-4c-1.9-3.7-1.5-6.8-1.5-9.1c0-5-4.6-9.5-5.2-9.3c0,0,0.6,4.6-6.7,12.4c-2.2,2.3-6.6,4.4-10.1,5.8
		C464.6,35.6,469.6,36.4,474.7,37.4"/>
	<path clip-path="url(#SVGID_4_)" fill="#FFFFFF" d="M599.2,31.6c-29.4-1-52.1,19.2-55.7,18.8c-2.7-0.3-13.7-3.5-28-6
		c-9.5-1.7-20.7-2.5-31.5-4.1c-9.7-1.4-18.5-3.6-27.1-3.9c-32.4-0.9-72.4,7.8-72.4,11.1c0,3,27.9,14,47,16.6c0.1,0,0.7,0,0.8,0.1
		c0.3-0.4-1.5-3.2-1.5-3.2s1.5,1.6,2.9,3.3c0,0,0,0,0,0c5.6,6.9,17.7,20.2,28.8,20.5c1.1,0-2.9-3.2-5.6-8.1c-2.3-4-4.6-8.3-6.5-12h0
		c-1.8-3.9-1.9-8.7-1.9-8.7s1.3,5.6,4.1,8.6c22.5-0.8,51-4.6,54.7-5.3c5.1-1,14.8-0.4,16.6-1c1.5-0.5,19.3-4.3,20.6-2
		c3,5.3,14.4,17.4,26,17.4c0,0-6.6-7.9-5.6-18.1c0.3-2.8,11.8-10.3,14.5-11.3c2.7-1,2.5-2.4,3.1-3.1c1.6-1.8,5.8,1.1,6-0.6
		C589.3,36.6,603.4,31.8,599.2,31.6"/>
	<path clip-path="url(#SVGID_4_)" fill="#FFFFFF" d="M484.9,395.2c-0.2,0-0.4,0-0.5,0c-1.3,0-1.9,0.7-2.5,1.4
		c-0.5,0.6-1,1.1-1.9,1.1c-0.1,0-0.3,0-0.4,0c-0.2,0-0.5-0.1-0.7-0.1c-2.2-0.3-5.2-0.8-9.9-5.4c-0.3-0.3-0.7-0.7-1.2-1.1
		c-2.2-1.9-5.9-5.1-8.9-10.9c-2-3.9-3.8-8-5.4-11.9c-3-7.1-5.5-13.1-8.9-15.6c-0.4-0.3-0.8-0.6-1.1-0.8c-5.3-3.9-9.2-6.8-19.9-7.8
		c-1.9-0.2-4.5-0.3-8-0.3c-4,0-8.7,0.1-13.3,0.2c-4.6,0.1-8.9,0.2-12.7,0.2c-5.4,0-8.5-0.3-9.8-0.8c-2.7-1.2-6.8-6.7-10-11.1
		c-2-2.7-3.8-5.1-4.7-5.8c-0.7-0.5-1-2.2-1.3-3.9c-0.3-1.6-0.6-3.6-1.3-3.8c-1.6-0.5-3.6,0.3-5.8,2.2c-0.2,0.2-0.5,0.3-1,0.3
		c-0.7,0-1.6-0.2-2.7-0.4c-1.3-0.3-2.7-0.6-4-0.6c-0.5,0-1,0.1-1.4,0.2c-1.4,0.4-1.6,0.7-1.7,0.9c-0.2,0.4-0.4,0.6-1.6,0.6
		c-1.1,0-1.9,0.3-2.7,0.5c-0.7,0.2-1.3,0.4-2,0.4c-0.1,0-0.3,0-0.4,0c-0.4,0-0.8-0.1-1.2-0.1c-1.3,0-2.4,0.3-2.7,0.7
		c-0.1,0.2-0.1,0.4,0,0.7c0.1,0.5,0.4,1.3-0.4,2.4c-0.8,1.3-0.6,1.9-0.5,2.3c0,0.1,0.1,0.2,0.1,0.3c0.1,0.3-0.1,0.6-0.3,1
		c-0.2,0.3-0.3,0.9-0.3,1.2c0.1,0.9,3,3.8,4.6,4.1l0.2,0c2,0.3,6.3,1,7.5,3.2c0.4,0.7,0.8,1.9,1.2,3.3c0.9,2.7,2.1,6.5,4.3,9
		c2.9,3.4,3,5.7,3.2,7.7c0,0.4,0.1,0.8,0.1,1.2c0.2,2,1.8,4.9,4.4,8.3c0.4,0.5,0.8,1,1.3,1.6c2.1,2.6,4.9,6.1,6,8.7
		c0.6,1.4,1.1,2.9,1.6,4.4c0.6,1.7,1.1,3.3,1.7,4.2c0.7,1.1,1,3.4,1.2,5.6c0.1,1.3,0.3,2.4,0.5,3.4c0.3,1.1,0.7,2.4,1.2,3.7
		c0.6,1.6,1.1,3.1,1.3,4.4c0.3,1.9,0.2,5.2-0.5,5.8c-0.4,0.4-1,0.4-1.6,0.5c-0.4,0-0.8,0.1-1,0.2c-0.1,0-0.2,0.1-0.3,0.1
		c-0.8,0.3-2.2,1-2.2,2.3c0,0.2,0,0.5-0.1,0.7c-0.1,1.4-0.1,2.2,0.6,2.5c0.9,0.4,2.5,0.7,3.7,0.7c0.1,0,0.2,0,0.3,0
		c0.8,0,1.7-0.1,2.5-0.1c0.9,0,1.9,0.1,2.5-0.1c0.3-0.1,3.9-2,3.7-4c-0.2-1.5-0.9-7.7-1.2-14.8c0-0.9,0.4-2.5,0.4-3.3
		c-0.1-4.1-0.6-7.9-0.4-9.1c0.1-0.4,0.1-1.1,0.2-1.8c0.1-2.1,0.2-5,2.4-5.7l0.1,0l0.1,0c0.1,0,11,1.8,15.3,1.6
		c6.2-0.3,17-2.7,18.1-3.8c0.1-0.1,0.3-0.2,0.4-0.2c0.5,0,0.7,0.6,1.2,1.9c0.9,2.4,2.6,6.9,7,9.5c2.7,1.7,14.5,11.8,14.5,12.9
		c0,0.3,0,0.6,0,1.1c0.1,3.5,0.3,10.7-2.5,11.5c-1.6,0.5-2.7,0.7-3.7,0.9c-0.9,0.2-1.6,0.3-2.4,0.6c-0.9,0.3-1.9,2.1-1.8,3.6
		c0,0.6,0.2,1.4,1,1.6c1.1,0.3,4.1,0.6,7.1,0.6c4.4,0,5.7-0.6,5.7-1c0.1-0.4,0.6-1.4,1.6-3.4c1.3-2.5,3.3-6.3,4.8-10.1
		c0.7-1.7,0.9-3.5,1.2-5.2c0.1-0.4,0.1-0.8,0.2-1.2c0.1-0.6,0.2-1.1,0.3-1.5c0.2-1.3,0.1-2.1,0-2.4c-0.1-0.6-0.6-1-1.1-1.2
		c-1.1-0.5-2.4-1-3.8-2.9c-0.4-0.5-0.8-1-1.2-1.5c-1.8-2.4-3.8-4.8-4.5-10.9c-0.9-7.3,1.8-15.4,1.9-15.5l0.1-0.2h0.2
		c1.2,0,4.8,3,6,7.2c1.7,6,9.5,20.3,16.9,25.7c0.7,0.5,1.4,1.1,2.1,1.6c5.2,3.8,10.2,6.8,14.2,6.6c3.2-0.2,3.7-3.1,3.7-4.4
		C486.2,397.1,485.8,395.5,484.9,395.2"/>
	<path clip-path="url(#SVGID_4_)" fill="#FFFFFF" d="M369.8,409.3c0.2-1,1.6-5.9,2.4-8.7c-0.1-0.2-0.2-0.5-0.3-0.7
		c-0.5-1.3-0.9-2.6-1.2-3.8c-0.2-1-0.4-2.2-0.5-3.4c-0.2-2.1-0.5-4.3-1.1-5.3c-0.6-0.9-1.1-2.5-1.7-4.3c-0.5-1.5-1-3-1.6-4.3
		c-0.3-0.8-0.8-1.6-1.4-2.5c0.8,3.7,2.1,9.3,0.5,13.4c-0.4,0.9,0.5,4.7,0.5,5c0.1,2.3-1.8,9-2.3,11.3c-0.2,1.1-0.7,1.8-1.2,2.1
		c-0.5,0.3-1.7,0.5-2.2,0.5c-1.8,0.1-4.6,1.4-4.8,2.7c-0.1,0.8,0.4,2.4,0.4,2.4c2,2,9.6,0.9,12.3,0.4c0-0.1,0-0.2,0-0.3
		c0-0.2,0-0.5,0-0.7c0.1-1.3,1.1-2,2-2.5C369.7,409.9,369.8,409.6,369.8,409.3"/>
	<path clip-path="url(#SVGID_4_)" fill="#FFFFFF" d="M430.6,413.3c0.8-0.3,1.6-0.4,2.5-0.6c1-0.2,2.1-0.4,3.7-0.9
		c2.4-0.7,2.1-8.1,2-10.9c0-0.5,0-0.8,0-1.1c-0.2-0.6-3.5-3.7-7-6.8c1.7,3.2,3.2,7.2,3.2,8.4c0,1.4-2.6,7.8-3.5,7.3
		c-0.6-0.3-3,0.3-3,0.3c-0.7,0.4-1.4,1.3-1.7,2.1c-0.7,2.1,1.5,4.2,1.5,4.2s0.1,0.1,0.4,0.3C429.1,414.6,429.8,413.6,430.6,413.3"/>
</g>
</svg>
