<svg xmlns="http://www.w3.org/2000/svg" viewBox="-30 -6.6 100 53.1" enable-background="new -30 -6.6 100 53.1"><g fill="#274a60"><path d="M36.5 2.9c1.3 0 2.4-.5 3.3-1.4.9-.9 1.4-2 1.4-3.3s-.5-2.4-1.4-3.3c-.9-.9-2-1.4-3.3-1.4s-2.4.5-3.3 1.4c-.9.9-1.4 2-1.4 3.3 0 1.3.5 2.4 1.4 3.3.9.9 2 1.4 3.3 1.4zM68.8 37.6c-.4 2-1.2 3.8-2.4 5.4-1.3 1.6-3 2.3-5 2.3-.6 0-1.2-.1-1.8-.3-.6-.2-1.2-.6-1.7-1.1-.5-.6-1-1.4-1.3-2.5-.3-1.1-.5-2.5-.5-4.2V7.3h12.6V6H55.9V-6.6c-.6.5-1.2.8-1.9 1.1-.7.2-1.4.3-2.3.3-1 0-1.7-.1-2.1-.2-.4-.1-.9-.3-1.3-.5V6H24.6v1.3h8.1v37.9h-4.9c-1 0-1.8-.7-2.3-1.3-.5-.6-.8-1.7-.8-3.5V18.3c0-1.6-.2-3.1-.7-4.6-.5-1.5-1.3-2.8-2.4-3.9C20.4 8.6 18.9 7.7 17 7c-1.8-.7-4.1-1-6.8-1-2.2 0-4.2.3-6 .8C2.5 7.3 1 8-.1 9s-2 2-2.6 3.2c-.6 1.2-.9 2.4-.9 3.7 0 1.1.2 2 .7 2.8.5.7 1.7 1.1 3.6 1.1 1.1 0 2-.3 2.6-.8.6-.6.9-1.3.9-2.1 0-.5-.1-1.2-.3-2.2-.2-1-.3-2-.3-3 0-1.5.6-2.7 1.9-3.3 1.3-.7 2.9-1 4.8-1 1.5 0 2.7.2 3.5.6.9.4 1.6 1 2 1.8.5.8.8 1.8 1 2.9.2 1.1.3 2.4.3 3.8 0 1.8-.1 3.2-.4 4.2-.3 1-.8 1.9-1.5 2.6-.7.7-1.7 1.3-3 1.7-1.3.5-2.9 1-4.8 1.7-1.7.5-3.3 1-4.9 1.5S-.6 29.3-1.9 30c-1.3.7-2.4 1.7-3.2 3-.8 1.2-1.2 2.9-1.2 5 0 .9.1 1.9.4 2.9.3 1 .8 1.9 1.5 2.7-1.2 1.2-2.7 1.8-4.5 1.8-.6 0-1.2-.1-1.8-.3-.6-.2-1.3-.6-1.9-1.1-.5-.6-1-1.4-1.3-2.5-.3-1.1-.5-2.5-.5-4.2v-30h12.7V6h-12.7V-6.5c-.6.5-1.2.8-1.9 1.1-.7.2-1.4.3-2.3.3-1 0-1.7-.1-2.1-.2-.4-.1-.9-.3-1.3-.5V6h-8v1.3h8.1v29.1c0 3.2.9 5.7 2.6 7.5 1.7 1.8 5 2.7 9.4 2.7 1.8 0 3.3-.3 4.4-.9.8-.4 1.5-.8 2.1-1.4.7.5 1.6 1 2.6 1.4 1.5.6 3.5.8 5.9.8 2.2 0 4-.3 5.4-.8 1.4-.5 2.6-1.1 3.4-1.9.9-.7 2.4-2.6 3.1-4.3.5 2.2 1.3 3.9 2.6 5.1 1.3 1.2 3.3 1.8 6.2 1.8h22.5v-1.3h-8V7.3h8v29.1c0 3.2.9 5.7 2.6 7.5 1.7 1.8 4.8 2.7 9.3 2.7 1.8 0 3.3-.3 4.4-.9 1.2-.6 2.1-1.3 2.9-2.2.7-.9 1.3-1.8 1.6-2.8.4-1 .6-1.9.8-2.7l-1.1-.4zM17 32.4c0 1.2-.1 2.5-.3 4-.2 1.5-.6 2.8-1.2 4-.6 1.2-1.5 2.3-2.7 3.1-1.2.8-2.8 1.2-4.7 1.2-1.4 0-2.5-.2-3.3-.7-.9-.5-1.5-1.1-2-1.8s-.8-1.6-1-2.5c-.2-.9-.3-1.9-.3-2.8 0-2.1.5-3.8 1.5-5.2 1-1.4 2.5-2.5 4.3-3.2l6.7-2.7c1.8-.8 3-1.5 3.1-2.3l-.1 8.9z"/></g></svg>