<?xml version="1.0" encoding="utf-8"?>
<!-- Generator: Adobe Illustrator 18.1.0, SVG Export Plug-In . SVG Version: 6.00 Build 0)  -->
<!DOCTYPE svg PUBLIC "-//W3C//DTD SVG 1.1//EN" "http://www.w3.org/Graphics/SVG/1.1/DTD/svg11.dtd">
<svg version="1.1" id="Layer_1" xmlns="http://www.w3.org/2000/svg" xmlns:xlink="http://www.w3.org/1999/xlink" x="0px" y="0px"
	 viewBox="-30 -6.6 100 53.1" enable-background="new -30 -6.6 100 53.1" xml:space="preserve">
<g id="Logo_1_">
	<path fill="#263238" d="M36.5,2.9c1.3,0,2.4-0.5,3.3-1.4c0.9-0.9,1.4-2,1.4-3.3s-0.5-2.4-1.4-3.3c-0.9-0.9-2-1.4-3.3-1.4
		s-2.4,0.5-3.3,1.4c-0.9,0.9-1.4,2-1.4,3.3c0,1.3,0.5,2.4,1.4,3.3C34.1,2.4,35.2,2.9,36.5,2.9z"/>
	<path fill="#263238" d="M68.8,37.6c-0.4,2-1.2,3.8-2.4,5.4c-1.3,1.6-3,2.3-5,2.3c-0.6,0-1.2-0.1-1.8-0.3c-0.6-0.2-1.2-0.6-1.7-1.1
		c-0.5-0.6-1-1.4-1.3-2.5c-0.3-1.1-0.5-2.5-0.5-4.2V7.3h12.6V6H55.9V-6.6c-0.6,0.5-1.2,0.8-1.9,1.1c-0.7,0.2-1.4,0.3-2.3,0.3
		c-1,0-1.7-0.1-2.1-0.2c-0.4-0.1-0.9-0.3-1.3-0.5V6H24.6v1.3h8.1v37.9h-4.9c-1,0-1.8-0.7-2.3-1.3c-0.5-0.6-0.8-1.7-0.8-3.5V18.3
		c0-1.6-0.2-3.1-0.7-4.6c-0.5-1.5-1.3-2.8-2.4-3.9C20.4,8.6,18.9,7.7,17,7c-1.8-0.7-4.1-1-6.8-1C8,6,6,6.3,4.2,6.8
		C2.5,7.3,1,8-0.1,9s-2,2-2.6,3.2c-0.6,1.2-0.9,2.4-0.9,3.7c0,1.1,0.2,2,0.7,2.8c0.5,0.7,1.7,1.1,3.6,1.1c1.1,0,2-0.3,2.6-0.8
		c0.6-0.6,0.9-1.3,0.9-2.1c0-0.5-0.1-1.2-0.3-2.2c-0.2-1-0.3-2-0.3-3c0-1.5,0.6-2.7,1.9-3.3c1.3-0.7,2.9-1,4.8-1
		c1.5,0,2.7,0.2,3.5,0.6c0.9,0.4,1.6,1,2,1.8c0.5,0.8,0.8,1.8,1,2.9c0.2,1.1,0.3,2.4,0.3,3.8c0,1.8-0.1,3.2-0.4,4.2
		c-0.3,1-0.8,1.9-1.5,2.6c-0.7,0.7-1.7,1.3-3,1.7c-1.3,0.5-2.9,1-4.8,1.7c-1.7,0.5-3.3,1-4.9,1.5s-3.1,1.1-4.4,1.8
		c-1.3,0.7-2.4,1.7-3.2,3c-0.8,1.2-1.2,2.9-1.2,5c0,0.9,0.1,1.9,0.4,2.9c0.3,1,0.8,1.9,1.5,2.7c-1.2,1.2-2.7,1.8-4.5,1.8
		c-0.6,0-1.2-0.1-1.8-0.3c-0.6-0.2-1.3-0.6-1.9-1.1c-0.5-0.6-1-1.4-1.3-2.5c-0.3-1.1-0.5-2.5-0.5-4.2V7.3h12.7V6h-12.7V-6.5
		c-0.6,0.5-1.2,0.8-1.9,1.1c-0.7,0.2-1.4,0.3-2.3,0.3c-1,0-1.7-0.1-2.1-0.2c-0.4-0.1-0.9-0.3-1.3-0.5V6H-30v1.3h8.1v29.1
		c0,3.2,0.9,5.7,2.6,7.5c1.7,1.8,5,2.7,9.4,2.7c1.8,0,3.3-0.3,4.4-0.9c0.8-0.4,1.5-0.8,2.1-1.4c0.7,0.5,1.6,1,2.6,1.4
		c1.5,0.6,3.5,0.8,5.9,0.8c2.2,0,4-0.3,5.4-0.8c1.4-0.5,2.6-1.1,3.4-1.9c0.9-0.7,2.4-2.6,3.1-4.3l0,0c0.5,2.2,1.3,3.9,2.6,5.1
		c1.3,1.2,3.3,1.8,6.2,1.8c0.3,0,22.5,0,22.5,0v-1.3h-8V7.3h8v29.1c0,3.2,0.9,5.7,2.6,7.5c1.7,1.8,4.8,2.7,9.3,2.7
		c1.8,0,3.3-0.3,4.4-0.9c1.2-0.6,2.1-1.3,2.9-2.2c0.7-0.9,1.3-1.8,1.6-2.8c0.4-1,0.6-1.9,0.8-2.7L68.8,37.6z M17,32.4
		c0,1.2-0.1,2.5-0.3,4c-0.2,1.5-0.6,2.8-1.2,4c-0.6,1.2-1.5,2.3-2.7,3.1c-1.2,0.8-2.8,1.2-4.7,1.2c-1.4,0-2.5-0.2-3.3-0.7
		c-0.9-0.5-1.5-1.1-2-1.8c-0.5-0.7-0.8-1.6-1-2.5c-0.2-0.9-0.3-1.9-0.3-2.8c0-2.1,0.5-3.8,1.5-5.2c1-1.4,2.5-2.5,4.3-3.2l6.7-2.7
		c1.8-0.8,3-1.5,3.1-2.3l0,0L17,32.4L17,32.4z"/>
</g>
</svg>
