<?xml version="1.0" encoding="utf-8"?>
<!-- Generator: Adobe Illustrator 18.1.0, SVG Export Plug-In . SVG Version: 6.00 Build 0)  -->
<!DOCTYPE svg PUBLIC "-//W3C//DTD SVG 1.1//EN" "http://www.w3.org/Graphics/SVG/1.1/DTD/svg11.dtd">
<svg version="1.1" id="Layer_1" xmlns="http://www.w3.org/2000/svg" xmlns:xlink="http://www.w3.org/1999/xlink" x="0px" y="0px"
	 viewBox="-203.1 -179 383.1 731.5" enable-background="new -203.1 -179 383.1 731.5" xml:space="preserve">
<rect x="63" y="-65" transform="matrix(-0.7071 0.7071 -0.7071 -0.7071 541.7373 390.4809)" opacity="5.000000e-02" fill="#80DEEA" width="254.1" height="744.9"/>
<g opacity="0.5">
	<defs>
		<rect id="SVGID_1_" x="-203.1" y="-179" opacity="0.5" width="383.1" height="731.5"/>
	</defs>
	<clipPath id="SVGID_2_">
		<use xlink:href="#SVGID_1_"  overflow="visible"/>
	</clipPath>
	
		<rect x="58.7" y="-111.1" transform="matrix(-0.7071 0.7071 -0.7071 -0.7071 157.7089 49.0541)" opacity="0.4" clip-path="url(#SVGID_2_)" fill="#0097A7" width="20.1" height="336.5"/>
	
		<rect x="-165.7" y="210.3" transform="matrix(-0.7071 0.7071 -0.7071 -0.7071 1.9449 756.2805)" opacity="0.2" clip-path="url(#SVGID_2_)" fill="#B2EBF2" width="20.1" height="336.5"/>
	
		<rect x="18.5" y="164" transform="matrix(-0.7071 0.7071 -0.7071 -0.7071 363.6854 711.6387)" clip-path="url(#SVGID_2_)" fill="#00A0B4" width="31.9" height="534.3"/>
	
		<rect x="-167.3" y="-23.7" transform="matrix(-0.7071 0.7071 -0.7071 -0.7071 -170.5728 388.9548)" opacity="0.2" clip-path="url(#SVGID_2_)" fill="#B2EBF2" width="2.8" height="365.7"/>
	
		<rect x="123.7" y="-194.7" transform="matrix(-0.7071 0.7071 -0.7071 -0.7071 205.2765 -108.7202)" opacity="0.6" clip-path="url(#SVGID_2_)" fill="#00838F" width="2.8" height="365.7"/>
	
		<rect x="-31.1" y="-305.4" transform="matrix(-0.7071 0.7071 -0.7071 -0.7071 -137.3614 -188.1449)" opacity="0.2" clip-path="url(#SVGID_2_)" fill="#E0F7FA" width="2.8" height="365.7"/>
	
		<rect x="99.9" y="30.3" transform="matrix(-0.7071 0.7071 -0.7071 -0.7071 357.1505 371.1439)" opacity="0.2" clip-path="url(#SVGID_2_)" fill="#B2EBF2" width="3.5" height="458.6"/>
	
		<rect x="-177.4" y="-376.7" transform="matrix(-0.7071 0.7071 -0.7071 -0.7071 -298.274 -0.5265)" clip-path="url(#SVGID_2_)" fill="#00A0B4" width="56.7" height="629.4"/>
</g>
<rect x="29.7" y="410.3" transform="matrix(-0.7071 0.7071 -0.7071 -0.7071 472.6037 990.5579)" opacity="0.3" fill="#00838F" width="2.8" height="365.7"/>
<rect x="-592" y="-212" transform="matrix(-0.7071 0.7071 -0.7071 -0.7071 -680.3623 602.6912)" opacity="0.1" fill="#80DEEA" width="254.1" height="744.9"/>
</svg>
