<svg xmlns="http://www.w3.org/2000/svg" viewBox="-68.9 -104.4 500 474.5" enable-background="new -68.9 -104.4 500 474.5"><g opacity=".7"><path opacity=".1" fill="#80DEEA" enable-background="new" d="M72.48 77.653l147.36-147.36 432.038 432.04-147.36 147.358z"/><g opacity=".5" enable-background="new"><path opacity=".4" fill="#0097A7" enable-background="new" d="M159.334-76.976L171-88.643l195.16 195.16-11.666 11.666z"/><path opacity=".2" fill="#B2EBF2" enable-background="new" d="M-24.767 186.586L-13.1 174.92l195.16 195.16-11.668 11.666zM199.117-242.81l11.667-11.668 195.16 195.16-11.668 11.667z"/><path fill="#00A0B4" d="M70.454 175.708l18.526-18.526 309.85 309.85-18.525 18.527z"/><path opacity=".2" fill="#B2EBF2" enable-background="new" d="M-36.472-6.852l1.627-1.626 212.13 212.13-1.627 1.626z"/><path opacity=".6" fill="#00838F" enable-background="new" d="M275.29-76.48l1.626-1.626 212.13 212.13-1.627 1.626z"/><path opacity=".2" fill="#E0F7FA" enable-background="new" d="M75.194-237.894l1.626-1.626L288.95-27.39l-1.626 1.626z"/><path opacity=".2" fill="#B2EBF2" enable-background="new" d="M155.846 48.667l2.05-2.05 266.012 266.01-2.05 2.05z"/><path fill="#00A0B4" d="M-191.305-327.872l32.88-32.88L206.58 4.253l-32.88 32.88z"/></g><path opacity=".3" fill="#00838F" enable-background="new" d="M125.05 349.063l1.627-1.626 212.13 212.13-1.626 1.626z"/><path opacity=".2" fill="#80DEEA" enable-background="new" d="M-464.752-42.84l147.36-147.36 432.037 432.038-147.36 147.36z"/></g></svg>