<?xml version="1.0" encoding="utf-8"?>
<!-- Generator: Adobe Illustrator 18.1.0, SVG Export Plug-In . SVG Version: 6.00 Build 0)  -->
<!DOCTYPE svg PUBLIC "-//W3C//DTD SVG 1.1//EN" "http://www.w3.org/Graphics/SVG/1.1/DTD/svg11.dtd">
<svg version="1.1" id="Layer_1" xmlns="http://www.w3.org/2000/svg" xmlns:xlink="http://www.w3.org/1999/xlink" x="0px" y="0px"
	 viewBox="-68.9 -104.4 500 474.5" enable-background="new -68.9 -104.4 500 474.5" xml:space="preserve">
<g opacity="0.7">
	
		<rect x="258" y="-85.5" transform="matrix(0.7071 -0.7071 0.7071 0.7071 -49.4946 320.5419)" opacity="0.1" fill="#80DEEA" enable-background="new    " width="208.4" height="611"/>
	<g opacity="0.5" enable-background="new    ">
		
			<rect x="254.5" y="-123.2" transform="matrix(0.7071 -0.7071 0.7071 0.7071 66.4917 190.0955)" opacity="0.4" fill="#0097A7" enable-background="new    " width="16.5" height="276"/>
		
			<rect x="70.4" y="140.3" transform="matrix(0.7071 -0.7071 0.7071 0.7071 -173.7533 137.1599)" opacity="0.2" fill="#B2EBF2" enable-background="new    " width="16.5" height="276"/>
		
			<rect x="294.3" y="-289.1" transform="matrix(0.7071 -0.7071 0.7071 0.7071 195.4397 169.7115)" opacity="0.2" fill="#B2EBF2" enable-background="new    " width="16.5" height="276"/>
		
			<rect x="221.6" y="102.3" transform="matrix(0.7071 -0.7071 0.7071 0.7071 -158.5755 260.0651)" fill="#00A0B4" width="26.2" height="438.2"/>
		
			<rect x="69.2" y="-51.6" transform="matrix(0.7071 -0.7071 0.7071 0.7071 -48.9165 78.566)" opacity="0.2" fill="#B2EBF2" enable-background="new    " width="2.3" height="300"/>
		
			<rect x="381" y="-121.2" transform="matrix(0.7071 -0.7071 0.7071 0.7071 91.5849 278.6256)" opacity="0.6" fill="#00838F" enable-background="new    " width="2.3" height="300"/>
		
			<rect x="180.9" y="-282.6" transform="matrix(0.7071 -0.7071 0.7071 0.7071 147.1062 89.8473)" opacity="0.2" fill="#E0F7FA" enable-background="new    " width="2.3" height="300"/>
		<g>
			
				<rect x="288.4" y="-7.4" transform="matrix(0.7071 -0.7071 0.7071 0.7071 -42.8492 257.8269)" opacity="0.2" fill="#B2EBF2" enable-background="new    " width="2.9" height="376.2"/>
		</g>
		
			<rect x="-15.6" y="-419.9" transform="matrix(0.7071 -0.7071 0.7071 0.7071 116.6366 -41.9918)" fill="#00A0B4" width="46.5" height="516.2"/>
	</g>
	
		<rect x="230.8" y="304.3" transform="matrix(0.7071 -0.7071 0.7071 0.7071 -253.3183 297.0916)" opacity="0.3" fill="#00838F" enable-background="new    " width="2.3" height="300"/>
	
		<rect x="-279.3" y="-206" transform="matrix(0.7071 -0.7071 0.7071 0.7071 -121.5967 -94.6704)" opacity="0.2" fill="#80DEEA" enable-background="new    " width="208.4" height="611"/>
</g>
</svg>
