<?xml version="1.0" encoding="utf-8"?>
<!-- Generator: Adobe Illustrator 17.1.0, SVG Export Plug-In . SVG Version: 6.00 Build 0)  -->
<!DOCTYPE svg PUBLIC "-//W3C//DTD SVG 1.1//EN" "http://www.w3.org/Graphics/SVG/1.1/DTD/svg11.dtd">
<svg version="1.1" id="Layer_1" xmlns="http://www.w3.org/2000/svg" xmlns:xlink="http://www.w3.org/1999/xlink" x="0px" y="0px"
	 viewBox="0 0 432.464 112.898" enable-background="new 0 0 432.464 112.898" xml:space="preserve">
<g>
	<path fill="#FFFFFF" d="M105.966,73.459c0-11.154-4.143-18.165-15.138-18.165c-10.039,0-14.182,7.011-14.979,15.935v39.837H55.453
		V73.459c0-11.154-3.984-18.165-15.138-18.165s-15.138,8.923-15.138,19.281v36.49H4.781V51.788H0V37.925h25.177v11.473
		c7.967-15.615,25.974-13.862,31.869-12.429c6.693,1.753,12.27,6.215,15.457,13.704c12.907-17.847,29.161-15.138,35.056-13.704
		c10.836,2.868,18.644,12.907,18.644,31.71l0.159,42.387h-20.396V73.459z"/>
	<path fill="#FFFFFF" d="M152.813,80.949c0.478,4.302,3.347,9.241,6.852,11.632c5.577,3.824,14.022,3.824,19.44,0
		c1.593-1.115,3.346-2.071,4.462-3.665l12.907,12.748c-2.391,2.39-4.94,4.462-7.968,6.215c-11.792,6.692-26.452,6.692-38.243,0
		c-11.792-6.853-19.122-19.601-19.122-33.304c0-13.704,7.33-26.293,19.122-33.145c11.792-6.852,26.452-6.852,38.243,0
		c11.951,6.852,18.325,18.484,16.891,39.519H152.813z M186.277,68.36c-1.116-4.78-3.347-9.242-7.171-11.792
		c-5.418-3.665-13.863-3.665-19.44,0c-3.665,2.55-6.055,7.012-7.17,11.792H186.277z"/>
	<path fill="#FFFFFF" d="M240.136,58.321v52.744h-20.396V58.321h-10.995V37.925h10.995V3.188h20.396v34.737h10.995v20.396H240.136z"
		/>
	<path fill="#FFFFFF" d="M283,49.397c7.967-15.615,25.974-14.182,31.869-12.588c2.071,0.479,3.824,1.435,5.577,2.391l-12.27,19.121
		c-2.391-2.071-5.736-3.187-10.039-3.187c-11.154,0-15.138,8.923-15.138,19.28v36.65h-20.396V51.947h-5.1V37.925H283V49.397z"/>
	<path fill="#FFFFFF" d="M329.367,111.065V51.947h-4.939V37.925h25.336v73.141H329.367z M325.862,13.704
		C325.862,6.215,331.917,0,339.565,0c7.49,0,13.704,6.215,13.704,13.704c0,7.648-6.214,13.704-13.704,13.704
		C331.917,27.408,325.862,21.353,325.862,13.704z"/>
	<path fill="#FFFFFF" d="M428.64,111.065h-23.424l-14.501-28.683h-7.33v28.683h-20.396V14.023h-4.939V0h25.336v61.827h2.869
		l18.962-23.902h27.248l-26.133,32.348L428.64,111.065z"/>
</g>
</svg>
