<svg xmlns="http://www.w3.org/2000/svg" width="2537" height="1260" viewBox="0 0 2537 1260">
  <g fill="none" fill-rule="evenodd" transform="translate(-24 68)">
    <rect width="2625.198" height="466.11" x="15.5" y="314.419" fill="#000000" fill-opacity=".05"/>
    <g transform="translate(0 299)">
      <path fill="#FFFFFF" d="M211.352,0.439 C174.891,0.439 138.429,11.314 105.758,33.065 C40.416,76.566 0.164,156.961 0.164,243.965 C0.164,330.968 40.416,411.361 105.758,454.864 C138.428,476.615 174.891,487.49 211.352,487.49 C247.813,487.49 284.275,476.615 316.946,454.864 C329.11,446.765 340.403,437.39 350.73,426.93 L350.73,267.238 C346.699,305.758 331.092,339.944 301.997,359.814 C284.877,371.505 263.005,377.351 241.134,377.351 C219.261,377.351 197.39,371.505 180.271,359.814 C146.031,336.432 130.473,293.222 130.473,246.458 C130.473,199.694 146.032,156.482 180.271,133.1 C197.39,121.409 219.262,115.564 241.134,115.564 C263.005,115.564 284.877,121.408 301.997,133.1 C331.092,152.97 346.699,187.156 350.73,225.677 L350.73,60.998 C340.403,50.538 329.11,41.163 316.946,33.065 C284.275,11.314 247.813,0.439 211.352,0.439"/>
      <path fill="#FFFFFF" d="M131.036,0.123 L0.729,0.123 L0.729,47.998 C30.109,77.755 51.661,116.283 63.132,159.074 C75.538,114.206 99.042,74.119 131.036,44.033 L131.036,0.123 L131.036,0.123 Z M131.036,45.727 C99.16,76.019 75.851,116.355 63.76,161.46 C69.51,183.714 72.54,207.089 72.54,230.964 C72.54,255.641 69.303,279.783 63.172,302.706 C75.085,348.711 98.635,389.88 131.036,420.67 L131.036,45.727 L131.036,45.727 Z M0.729,212.677 L0.729,254.238 C1.442,247.428 1.793,240.482 1.793,233.458 C1.793,226.433 1.442,219.486 0.729,212.677 L0.729,212.677 Z M62.523,305.087 C50.908,346.987 29.597,384.692 0.729,413.93 L0.729,469.141 L131.036,469.141 L131.036,422.365 C98.511,391.781 74.761,350.859 62.523,305.087 L62.523,305.087 Z" transform="translate(350 13)"/>
      <path fill="#D1F7E7" d="M0.729,0.998 L0.729,165.677 C1.442,172.485 1.793,179.433 1.793,186.457 C1.793,193.481 1.442,200.428 0.729,207.237 L0.729,366.93 C29.598,337.692 50.908,299.987 62.523,258.087 C56.381,235.117 53.138,210.924 53.138,186.2 C53.138,160.671 56.596,135.708 63.132,112.075 C51.661,69.282 30.109,30.755 0.729,0.998 M63.76,114.46 C57.618,137.374 54.371,161.523 54.371,186.2 C54.371,210.076 57.411,233.459 63.172,255.706 C69.302,232.784 72.54,208.641 72.54,183.965 C72.539,160.089 69.508,136.714 63.76,114.46" transform="translate(350 60)"/>
      <path fill="#FFFFFF" d="M211.933,0.057 L211.931,0.057 C175.347,0.057 138.762,10.971 105.996,32.787 C94.207,40.636 83.238,49.676 73.169,59.74 L73.169,61.486 C83.418,51.13 94.622,41.84 106.679,33.813 C139.252,12.128 175.592,1.291 211.931,1.291 C248.27,1.291 284.609,12.128 317.183,33.813 C334.094,45.07 349.323,58.813 362.604,74.506 C362.872,74.187 363.14,73.87 363.411,73.552 C350.091,57.842 334.821,44.077 317.866,32.787 C285.099,10.972 248.515,0.057 211.933,0.057 L211.933,0.057 Z M71.935,60.981 C26.768,106.828 0.127,173.33 0.126,244.2 C0.127,315.068 26.768,381.57 71.935,427.418 L71.935,425.658 C27.549,380.092 1.356,314.304 1.359,244.201 C1.356,174.097 27.549,108.309 71.935,62.743 L71.935,60.981 L71.935,60.981 Z M182.149,115.183 C160.169,115.184 138.182,121.053 120.938,132.827 C94.047,151.197 78.642,181.667 73.168,216.442 L73.168,225.947 C77.193,187.567 92.741,153.568 121.633,133.844 C138.628,122.236 160.385,116.414 182.149,116.415 L182.155,116.415 C203.917,116.415 225.671,122.236 242.665,133.844 C276.674,157.062 292.194,200.053 292.194,246.692 C292.194,293.331 276.674,336.324 242.665,359.54 C225.67,371.148 203.912,376.97 182.149,376.969 L182.143,376.969 C160.38,376.969 138.627,371.147 121.633,359.54 C92.741,339.816 77.192,305.818 73.168,267.439 L73.168,276.942 C78.642,311.717 94.047,342.188 120.938,360.558 C138.182,372.332 160.169,378.2 182.149,378.201 C204.129,378.2 226.116,372.331 243.36,360.558 C277.829,337.011 293.427,293.58 293.426,246.691 C293.427,199.802 277.829,156.372 243.36,132.826 C226.117,121.053 204.131,115.184 182.149,115.183 L182.149,115.183 Z M71.935,225.881 C71.222,232.704 70.871,239.658 70.871,246.692 L71.487,246.692 L71.935,246.692 L71.935,225.881 L71.935,225.881 Z M71.935,246.692 L71.487,246.692 L70.871,246.692 C70.871,253.727 71.222,260.681 71.935,267.505 L71.935,246.692 L71.935,246.692 Z M362.569,413.933 C349.296,429.612 334.081,443.335 317.183,454.585 C284.609,476.27 248.268,487.107 211.931,487.107 C175.592,487.107 139.252,476.27 106.679,454.585 C94.623,446.559 83.418,437.269 73.169,426.912 L73.169,428.658 C83.238,438.722 94.207,447.762 105.996,455.611 C138.763,477.427 175.347,488.341 211.931,488.341 C248.514,488.341 285.098,477.427 317.866,455.611 C334.806,444.331 350.065,430.579 363.377,414.886 C363.106,414.57 362.837,414.253 362.569,413.933 L362.569,413.933 Z" transform="translate(1308 2)"/>
      <path fill="#FFFFFF" d="M132.169,0.741 L47.478,0.741 L47.478,1.974 L130.936,1.974 L130.936,48.981 C131.343,48.567 131.758,48.149 132.169,47.738 L132.169,0.741 L132.169,0.741 Z M132.169,49.485 C131.757,49.902 131.345,50.321 130.936,50.74 L130.936,213.88 C131.268,210.704 131.679,207.555 132.169,204.442 L132.169,49.485 L132.169,49.485 Z M132.169,213.947 C131.456,220.743 131.105,227.676 131.105,234.693 C131.105,241.71 131.456,248.643 132.169,255.44 L132.169,213.947 L132.169,213.947 Z M130.936,255.505 L130.936,413.657 C131.345,414.077 131.757,414.496 132.169,414.913 L132.169,264.943 C131.679,261.83 131.268,258.681 130.936,255.505 L130.936,255.505 Z M130.936,415.417 L130.936,686.17 L1.862,686.17 L1.862,578.219 C1.45,578.769 1.045,579.306 0.629,579.85 L0.629,687.402 L132.168,687.402 L132.168,686.786 L132.168,416.659 C131.758,416.25 131.343,415.83 130.936,415.417 L130.936,415.417 Z M131.552,686.786 L131.552,686.786 L131.552,686.17 L131.552,686.786 L132.168,686.786 L131.552,686.786 L131.552,686.786 Z" transform="translate(1249 14)"/>
      <path fill="#FFFFFF" d="M2.169,0.739 C1.758,1.149 1.343,1.567 0.936,1.98 L0.936,3.74 C1.345,3.32 1.757,2.902 2.169,2.485 L2.169,0.739 L2.169,0.739 Z M2.169,157.442 C1.679,160.555 1.268,163.704 0.936,166.88 L0.936,187.692 L1.105,187.692 L0.936,187.692 L0.936,208.504 C1.268,211.68 1.679,214.829 2.169,217.942 L2.169,208.438 C1.456,201.642 1.105,194.709 1.105,187.692 C1.105,180.675 1.456,173.742 2.169,166.945 L2.169,157.442 L2.169,157.442 Z M0.936,366.657 L0.936,368.417 C1.343,368.83 1.758,369.249 2.169,369.658 L2.169,367.911 C1.757,367.496 1.345,367.078 0.936,366.657 L0.936,366.657 Z" transform="translate(1379 61)"/>
      <path fill="#FFFFFF" d="M211.729,0.438 C175.268,0.438 138.807,11.313 106.135,33.065 C93.536,41.451 81.867,51.215 71.242,62.128 L71.242,425.798 C81.867,436.712 93.536,446.475 106.135,454.863 C138.807,476.614 175.268,487.489 211.729,487.489 C248.191,487.489 284.652,476.614 317.323,454.863 C329.906,446.486 341.558,436.742 352.172,425.845 L352.172,62.083 C341.558,51.186 329.906,41.442 317.323,33.065 C284.653,11.314 248.192,0.438 211.729,0.438 L211.729,0.438 Z M241.51,377.351 C219.637,377.351 197.766,371.505 180.645,359.815 C146.407,336.432 130.848,293.222 130.848,246.457 C130.848,199.694 146.407,156.482 180.645,133.099 C197.765,121.409 219.637,115.563 241.51,115.563 C263.382,115.563 285.254,121.409 302.373,133.099 C336.611,156.482 352.17,199.693 352.17,246.457 C352.17,293.221 336.611,336.432 302.373,359.815 C285.254,371.505 263.382,377.351 241.51,377.351 L241.51,377.351 Z M70.01,63.405 C38.511,96.279 16.347,139.376 6.412,186.918 C10.571,206.07 12.746,225.956 12.746,246.2 L12.746,246.199 L12.746,246.2 C12.746,265.655 10.737,284.781 6.888,303.243 C17.043,349.901 39.005,392.165 70.01,424.523 L70.01,63.405 L70.01,63.405 Z M5.796,189.954 C2.341,207.471 0.542,225.569 0.542,243.964 C0.542,263.144 2.497,281.998 6.247,300.211 C9.71,282.696 11.513,264.597 11.513,246.199 L12.129,246.199 L11.513,246.198 C11.513,227.017 9.555,208.164 5.796,189.954 L5.796,189.954 Z" transform="translate(814)"/>
      <path fill="#FFFFFF" d="M331.171015,0.741 L331.171,48.083 C375.675,93.774 401.917,159.715 401.917,229.964 C401.917,300.213 375.674,366.155 331.171,411.845 L331.171,418.626 C331.171,502.713 281.12,533.785 237.738,538.866 C225.275,540.326 213.418,540.975 202.19,540.975 C119.752,540.975 70.775,506.015 57.506,500.341 L0.462,602.852 C20.59,629.078 114.268,664.08 211.953,664.08 C287.992,664.08 366.465,642.875 414.63,579.85 L414.63,91.336 L384.049,91.336 L383.433,0.741 L420.951,0.741 L461.479,0.741 L331.171015,0.741 Z M420.95,1.974 L420.95,91.336 L415.862,91.336 L415.862,578.219 C444.025,540.53 461.477,488.168 461.477,416.848 L461.477,1.974 L420.95,1.974 Z M419.717,1.974 L415.862,1.974 L415.862,90.103 L419.717,90.103 L419.717,1.974 L419.717,1.974 Z M414.63,1.974 L384.666,1.974 L384.666,90.103 L414.63,90.103 L414.63,1.974 L414.63,1.974 Z" transform="translate(835 14)"/>
      <path fill="#AADCC7" d="M47.477,0.741 L6.949,0.741 L6.949,1.974 L47.477,1.974 L47.477,0.741 L47.477,0.741 Z M5.717,1.974 L0.63,1.974 L0.63,90.103 L1.863,90.103 L1.863,1.974 L5.717,1.974 L5.717,1.974 Z M1.862,91.336 L0.629,91.336 L0.629,579.85 C1.044,579.306 1.451,578.769 1.862,578.219 L1.862,91.336 L1.862,91.336 Z" transform="translate(1249 14)"/>
    </g>
    <path fill="#AADCC7" d="M1255.95,313.741 L1218.432,313.741 L1218.432,404.336 L1219.048,404.336 L1249.629,404.336 L1249.629,403.103 L1219.665,403.103 L1219.665,314.974 L1249.629,314.974 L1249.629,313.741 L1255.95,313.741 L1255.95,313.741 Z M1219.049,403.72 L1219.049,403.72 L1219.665,403.72 L1219.049,403.72 L1219.049,403.72 Z M1255.95,314.974 L1254.717,314.974 L1254.717,403.103 L1250.862,403.103 L1250.862,404.336 L1255.95,404.336 L1255.95,314.974 L1255.95,314.974 Z"/>
    <path fill="#AADCC7" d="M1255.95,313.741 L1249.63,313.741 L1249.63,314.974 L1254.718,314.974 L1255.951,314.974 L1255.951,313.741 L1255.95,313.741 Z M1250.862,403.103 L1249.629,403.103 L1249.629,404.336 L1250.862,404.336 L1250.862,403.103 L1250.862,403.103 Z"/>
    <g transform="translate(403)">
      <path fill="#D1F7E7" d="M0.171,0.083 L0.171,363.845 C44.674,318.154 70.917,252.213 70.917,181.964 C70.918,111.715 44.675,45.774 0.171,0.083" transform="translate(763 361)"/>
      <path fill="#FFFFFF" d="M0.936,0.98 L0.936,2.74 C33.177,35.839 55.819,79.612 65.796,127.954 C65.996,126.942 66.203,125.925 66.412,124.918 C56.011,77.024 33.201,33.732 0.936,0.98 M66.247,238.212 C56.513,287.441 33.674,332.049 0.936,365.657 L0.936,367.417 C33.704,334.156 56.719,290.025 66.889,241.241 C66.67,240.237 66.454,239.22 66.247,238.212" transform="translate(351 361)"/>
      <path fill="#1CBE21" d="M0.936,0.884 L0.936,42.5 C1.648,35.679 2,28.724 2,21.692 C2,14.66 1.648,7.705 0.936,0.884" transform="translate(351 526)"/>
      <path fill="#FFFFFF" d="M133.946,0.058 L133.942,0.058 C97.358,0.057 60.775,10.971 28.007,32.787 C18.087,39.392 8.749,46.839 0.036,55.032 L0.036,56.727 C8.938,48.268 18.511,40.589 28.69,33.813 C61.264,12.128 97.603,1.291 133.942,1.291 C170.281,1.291 206.62,12.128 239.194,33.813 C251.25,41.838 262.453,51.128 272.703,61.485 L272.703,59.739 C262.634,49.676 251.666,40.636 239.877,32.787 C207.112,10.971 170.528,0.058 133.946,0.058 L133.946,0.058 Z M272.703,426.913 C262.454,437.269 251.251,446.559 239.194,454.585 C206.62,476.27 170.281,487.107 133.942,487.109 C97.603,487.108 61.264,476.271 28.69,454.585 C18.511,447.809 8.938,440.131 0.036,431.671 L0.036,433.366 C8.749,441.559 18.087,449.007 28.007,455.612 C60.775,477.428 97.358,488.342 133.942,488.342 C170.526,488.342 207.109,477.428 239.877,455.612 C251.666,447.763 262.634,438.723 272.703,428.659 L272.703,426.913 L272.703,426.913 Z" transform="translate(78 301)"/>
      <path fill="#AADCC7" d="M69.036,0.032 C37.042,30.118 13.539,70.205 1.132,115.073 C1.345,115.867 1.554,116.662 1.759,117.46 C13.85,72.355 37.159,32.019 69.035,1.727 L69.035,0.032 L69.036,0.032 Z M1.172,258.706 C0.96,259.5 0.743,260.295 0.524,261.086 C12.763,306.859 36.513,347.78 69.037,378.365 L69.037,376.67 C36.634,345.88 13.085,304.711 1.172,258.706 L1.172,258.706 Z" transform="translate(9 356)"/>
      <path fill="#AADCC7" d="M10.132,0.074 C3.597,23.708 0.139,48.672 0.138,74.199 C0.139,98.924 3.383,123.116 9.523,146.087 C9.742,145.296 9.959,144.501 10.171,143.707 C4.41,121.46 1.37,98.076 1.372,74.2 C1.371,49.524 4.618,25.374 10.759,2.46 C10.553,1.663 10.345,0.868 10.132,0.074" transform="translate(0 471)"/>
      <path fill="#FFFFFF" d="M111.722,0.182 C89.741,0.183 67.755,6.052 50.511,17.826 C16.042,41.373 0.444,84.804 0.444,131.693 C0.444,178.581 16.042,222.012 50.511,245.558 C67.755,257.332 89.741,263.201 111.722,263.202 C133.703,263.201 155.689,257.332 172.933,245.558 C199.824,227.188 215.229,196.718 220.702,161.943 L220.702,152.44 C216.678,190.82 201.13,224.817 172.238,244.54 C155.243,256.148 133.485,261.971 111.722,261.97 L111.716,261.97 C89.954,261.97 68.2,256.148 51.207,244.54 C17.198,221.324 1.679,178.331 1.678,131.693 C1.679,85.053 17.198,42.061 51.207,18.845 C68.202,7.236 89.96,1.415 111.723,1.415 L111.729,1.415 C133.491,1.415 155.245,7.237 172.239,18.845 L172.587,18.336 L172.935,17.827 C155.69,6.053 133.703,0.183 111.722,0.182 M172.933,17.827 L172.585,18.336 L172.237,18.845 C201.129,38.569 216.678,72.565 220.701,110.944 L220.701,101.441 C215.229,66.666 199.825,36.197 172.933,17.827" transform="translate(130 416)"/>
      <path fill="#FFFFFF" d="M132.243,0.403 L7.024,0.403 L7.024,1.636 L131.01,1.636 L131.01,362.405 C131.421,361.976 131.83,361.553 132.243,361.129 L132.243,0.403 L132.243,0.403 Z M131.01,723.522 L131.01,779.892 L1.936,779.892 L1.936,728.417 C1.529,728.83 1.113,729.249 0.703,729.658 L0.703,781.124 L1.319,781.124 L132.242,781.124 L132.242,724.8 C131.83,724.374 131.421,723.951 131.01,723.522 L131.01,723.522 Z M1.32,780.509 L1.32,780.509 L1.936,780.509 L1.32,780.509 L1.32,780.509 Z" transform="translate(350)"/>
      <path fill="#AADCC7" d="M1.243,0.129 C0.829,0.554 0.421,0.977 0.01,1.405 L0.01,362.523 C0.42,362.951 0.828,363.374 1.243,363.799 L1.243,0.129 L1.243,0.129 Z" transform="translate(481 361)"/>
      <path fill="#FFFFFF" d="M1.936,0.997 L0.703,0.997 L0.703,270.739 C1.112,271.148 1.529,271.567 1.936,271.98 L1.936,0.997 L1.936,0.997 Z M0.703,272.485 L0.703,427.44 C1.192,430.555 1.604,433.705 1.936,436.884 L1.936,273.741 C1.527,273.321 1.115,272.901 0.703,272.485 L0.703,272.485 Z M0.703,436.943 L0.703,478.44 C1.415,471.644 1.767,464.708 1.767,457.692 C1.767,450.675 1.416,443.741 0.703,436.943 L0.703,436.943 Z M1.936,478.501 C1.604,481.679 1.193,484.83 0.703,487.945 L0.703,637.914 C1.115,637.497 1.526,637.078 1.936,636.658 L1.936,478.501 L1.936,478.501 Z" transform="translate(350 90)"/>
      <path fill="#FFFFFF" d="M0.703,0.739 L0.703,2.485 C1.115,2.902 1.526,3.321 1.936,3.741 L1.936,1.981 C1.529,1.567 1.112,1.148 0.703,0.739 L0.703,0.739 Z M0.703,157.44 L0.703,166.945 C1.415,173.741 1.767,180.675 1.767,187.693 C1.767,194.71 1.416,201.644 0.703,208.441 L0.703,217.944 C1.192,214.829 1.604,211.679 1.936,208.5 L1.936,166.884 C1.604,163.706 1.193,160.555 0.703,157.44 L0.703,157.44 Z M1.936,366.657 C1.527,367.077 1.115,367.496 0.703,367.913 L0.703,369.659 C1.112,369.25 1.529,368.831 1.936,368.418 L1.936,366.657 L1.936,366.657 Z" transform="translate(350 360)"/>
    </g>
    <polygon fill="#FFFFFF" points="758.791 1.636 753.702 1.636 753.702 89.765 754.936 89.765 754.936 1.636"/>
    <path fill="#FFFFFF" d="M758.791 1.636L758.791 89.765 754.936 89.765 754.936 90.998 760.024 90.998 760.024 1.636 758.791 1.636 758.791 1.636zM723.739 90.383L723.123 90.383 723.739 90.383 723.739 90.383zM722.506.403L722.506 90.998 723.122 90.998 753.703 90.998 753.703 89.765 723.739 89.765 723.739 1.636 753.703 1.636 753.703.403 722.506.403 722.506.403zM753.703 90.998L754.936 90.998 754.936 89.765 753.703 89.765 753.703 90.998 753.703 90.998zM753.703.403L753.703 1.636 758.791 1.636 760.024 1.636 760.024.403 753.703.403 753.703.403z"/>
    <g transform="translate(2047 1)">
      <path fill="#FFFFFF" d="M153.969,0.624 C113.849,0.624 73.728,12.59 37.78,36.524 C24.395,45.434 11.97,55.75 0.606,67.259 L0.606,248.462 C5.044,206.079 22.216,168.459 54.23,146.597 C73.068,133.733 97.135,127.301 121.2,127.301 C145.267,127.301 169.334,133.733 188.172,146.597 C225.846,172.326 242.966,219.873 242.966,271.329 C242.966,322.785 225.845,370.332 188.172,396.061 C169.334,408.925 145.267,415.356 121.2,415.356 C97.134,415.356 73.067,408.925 54.23,396.061 C22.217,374.198 5.044,336.578 0.606,294.196 L0.606,469.911 C11.97,481.42 24.394,491.736 37.78,500.647 C73.728,524.58 113.849,536.546 153.969,536.546 C194.089,536.546 234.21,524.58 270.158,500.647 C342.057,452.779 386.347,364.318 386.347,268.584 C386.347,172.851 342.057,84.389 270.158,36.522 C234.21,12.591 194.089,0.624 153.969,0.624" transform="translate(143 252)"/>
      <path fill="#FFFFFF" d="M143.606,0.842 L5.822,0.842 L5.822,99.171 L0.224,99.171 L0.224,313.398 L44.732,313.398 L44.732,779.508 L143.606,779.508 L143.606,721.911 C93.927,671.595 64.59,598.497 64.59,520.586 C64.59,442.674 93.927,369.577 143.606,319.259 L143.606,0.842 L143.606,0.842 Z M143.606,500.462 C142.821,507.957 142.435,515.598 142.435,523.329 C142.435,531.062 142.821,538.703 143.606,546.198 L143.606,500.462 L143.606,500.462 Z"/>
      <path fill="#D1F7E7" d="M79.606,0.26 C29.927,50.577 0.59,123.674 0.59,201.587 C0.59,279.498 29.927,352.596 79.606,402.914 L79.606,227.198 C78.821,219.703 78.435,212.062 78.435,204.331 C78.435,196.598 78.821,188.957 79.606,181.462 L79.606,0.26 L79.606,0.26 Z" transform="translate(64 319)"/>
    </g>
    <polygon fill="#D1F7E7" fill-opacity=".7" points="2052.822 1.842 2012.897 1.842 2012.897 100.172 2047.224 100.172 2047.224 1.842"/>
    <rect width="5.598" height="98.329" x="2047.224" y="1.843" fill="#D1F7E7"/>
    <g transform="translate(1610 301)">
      <path fill="#FFFFFF" d="M212.048,0.714 C175.586,0.714 139.125,11.589 106.454,33.34 C89.707,44.489 74.605,58.067 61.409,73.552 C99.57,118.565 121.731,179.567 121.732,244.199 C121.731,308.852 99.56,369.869 61.374,414.887 C74.578,430.39 89.69,443.979 106.453,455.139 C139.123,476.89 175.584,487.765 212.047,487.765 C248.508,487.765 284.969,476.89 317.641,455.139 C329.805,447.041 341.098,437.666 351.425,427.206 L351.425,267.508 C347.394,306.029 331.787,340.221 302.691,360.09 C285.572,371.781 263.7,377.627 241.828,377.627 C219.957,377.627 198.084,371.781 180.965,360.09 C146.726,336.708 131.168,293.497 131.168,246.734 C131.168,199.97 146.726,156.758 180.965,133.375 C198.084,121.685 219.957,115.839 241.828,115.839 C263.701,115.839 285.572,121.685 302.691,133.375 C331.788,153.246 347.394,187.437 351.425,225.958 L351.425,61.273 C341.098,50.813 329.805,41.438 317.641,33.34 C284.971,11.589 248.51,0.714 212.048,0.714 M60.603,74.505 C22.808,119.35 0.86,179.99 0.86,244.24 C0.86,308.467 22.797,369.093 60.568,413.933 C98.464,369.168 120.502,308.495 120.501,244.199 C120.502,179.919 98.48,119.266 60.603,74.505"/>
      <path fill="#AADCC7" d="M0.603,1.505 C38.48,46.267 60.502,106.92 60.501,171.199 C60.502,235.494 38.463,296.169 0.568,340.934 C0.837,341.252 1.105,341.569 1.375,341.887 C39.559,296.869 61.732,235.852 61.733,171.199 C61.733,106.567 39.571,45.566 1.41,0.552 C1.14,0.869 0.871,1.187 0.603,1.505 Z" transform="translate(60 73)"/>
      <path fill="#FFFFFF" d="M86.224,0.398 L0.426,0.398 L0.426,48.273 C45.574,94.002 72.236,160.432 72.236,231.24 C72.236,302.047 45.574,368.477 0.426,414.206 L0.426,685.828 L130.733,685.828 L130.733,466.508 L86.225,466.508 L86.225,0.398 L86.224,0.398 Z" transform="translate(351 13)"/>
    </g>
    <rect width="44.508" height="466.11" x="2047.224" y="314.398" fill="#D1F7E7"/>
    <g transform="translate(1961 362)">
      <path fill="#1CBE21" d="M0.426,0.958 L0.426,42.508 C1.138,35.7 1.49,28.758 1.49,21.734 C1.49,14.709 1.138,7.767 0.426,0.958" transform="translate(0 164)"/>
      <path fill="#D1F7E7" d="M0.426,0.273 L0.426,164.959 C1.138,171.767 1.49,178.709 1.49,185.733 C1.49,192.757 1.139,199.699 0.426,206.509 L0.426,366.206 C45.574,320.478 72.236,254.047 72.236,183.241 C72.236,112.432 45.574,46.001 0.426,0.273"/>
    </g>
  </g>
</svg>
