<svg xmlns="http://www.w3.org/2000/svg" width="663" height="480" viewBox="0 0 663 480">
  <g fill="none" fill-rule="evenodd">
    <path fill="#FFFFFF" d="M44.401,30.215 L44.401,48.16 L44.33,48.16 L44.401,48.231 C39.791,52.77 33.407,55.679 26.385,55.679 C12.341,55.679 0.922,44.26 0.922,30.216 C0.922,16.172 12.341,4.752 26.385,4.752 C33.407,4.752 39.791,7.589 44.401,12.2 L37.096,19.434 C36.316,18.583 35.394,17.732 34.33,17.094 C29.862,14.399 22.911,14.399 18.513,17.094 C14.045,19.789 11.988,24.825 11.988,30.216 C11.988,35.607 14.045,40.642 18.513,43.338 C22.91,46.033 29.791,46.033 34.259,43.338 L34.259,30.215 L44.401,30.215 L44.401,30.215 Z"/>
    <polygon fill="#FFFFFF" points="50.143 54.756 50.143 11.632 47.944 11.632 47.944 5.32 59.222 5.32 59.222 54.757 50.143 54.757"/>
    <path fill="#FFFFFF" d="M65.321 54.756L65.321 28.442 63.122 28.442 63.122 22.2 74.4 22.2 74.4 54.756 65.321 54.756 65.321 54.756zM63.76 11.419C63.76 8.085 66.455 5.319 69.86 5.319 73.194 5.319 75.96 8.085 75.96 11.419 75.96 14.824 73.194 17.519 69.86 17.519 66.455 17.519 63.76 14.824 63.76 11.419L63.76 11.419zM90.073 25.534C90.853 24.825 91.633 24.116 92.485 23.548 97.024 20.569 102.628 20.569 107.238 23.548 111.777 26.598 114.615 32.201 114.615 38.301 114.615 44.401 111.778 50.004 107.238 53.054 102.628 56.104 97.024 56.104 92.485 53.054 91.634 52.486 90.854 51.848 90.073 51.068L90.073 54.756 80.994 54.756 80.994 6.242 78.795 6.242 78.795 0 90.073 0 90.073 25.534 90.073 25.534zM90.073 39.932C90.357 42.627 91.492 45.039 93.478 46.386 95.889 48.017 99.649 48.017 101.989 46.386 104.401 44.755 105.465 41.776 105.465 38.513 105.465 35.25 104.401 32.201 101.989 30.569 99.648 28.938 95.889 28.938 93.478 30.569 91.492 31.987 90.357 34.328 90.073 37.094L90.073 39.932 90.073 39.932z"/>
    <path fill="#241D65" d="M138.513 68.091L138.513 28.442 136.385 28.442 136.385 22.2 147.663 22.2 147.663 68.091 138.513 68.091 138.513 68.091zM137.023 11.419C137.023 8.085 139.718 5.319 143.052 5.319 146.457 5.319 149.152 8.085 149.152 11.419 149.152 14.753 146.457 17.519 143.052 17.519 139.719 17.519 137.023 14.753 137.023 11.419L137.023 11.419zM185.607 38.372C185.607 44.472 182.415 50.075 177.096 53.125 171.847 56.175 165.393 56.175 160.144 53.125 154.824 50.075 151.632 44.472 151.632 38.372 151.632 32.343 154.824 26.669 160.144 23.619 165.393 20.64 171.847 20.64 177.096 23.619 182.415 26.669 185.607 32.343 185.607 38.372L185.607 38.372zM172.911 30.357C170.499 28.726 166.74 28.726 164.329 30.357 161.917 32.059 160.782 35.109 160.782 38.372 160.782 41.706 161.917 44.755 164.329 46.387 166.74 48.018 170.5 48.018 172.911 46.387 175.322 44.756 176.458 41.706 176.458 38.372 176.457 35.109 175.322 32.059 172.911 30.357L172.911 30.357zM216.884 50.572C215.819 51.636 214.614 52.558 213.337 53.267 208.018 56.317 201.563 56.317 196.244 53.267 190.995 50.217 187.732 44.614 187.732 38.514 187.732 32.414 190.995 26.811 196.244 23.761 201.564 20.711 208.018 20.711 213.337 23.761 214.614 24.541 215.819 25.392 216.884 26.456L210.925 32.343C210.429 31.634 209.861 30.996 209.081 30.499 206.669 28.868 202.91 28.868 200.499 30.499 198.087 32.13 196.952 35.18 196.952 38.514 196.952 41.848 198.087 44.897 200.499 46.529 202.911 48.231 206.67 48.231 209.081 46.529 209.861 46.032 210.429 45.394 210.925 44.685L216.884 50.572 216.884 50.572z"/>
    <polygon fill="#241D65" points="250.43 54.756 240.003 54.756 233.549 41.989 230.287 41.989 230.287 54.756 221.208 54.756 221.208 11.561 219.009 11.561 219.009 5.32 230.287 5.32 230.287 32.84 231.563 32.84 240.003 22.201 252.132 22.201 240.5 36.599"/>
    <path fill="#241D65" d="M274.827,32.272 C272.415,29.648 268.302,28.726 265.89,29.364 C264.188,29.79 263.478,31.421 264.4,32.698 C265.606,34.329 270.075,34.684 273.975,37.025 C281.919,41.777 281.139,50.856 274.046,54.119 C269.365,56.247 262.556,56.105 257.024,53.055 C255.606,52.204 253.264,50.856 252.201,49.65 L256.74,43.479 C257.733,44.614 260.57,46.103 262.343,46.955 C265.677,48.373 270.642,49.012 271.351,46.104 C271.918,43.763 268.017,42.628 265.251,41.777 C260.641,40.288 257.094,38.727 255.676,34.968 C254.116,30.642 255.463,24.329 263.053,22.059 C266.882,20.924 270.642,21.492 273.337,22.414 C276.317,23.478 278.231,25.109 279.579,26.599 L274.827,32.272 L274.827,32.272 Z"/>
    <path fill="#FFFFFF" d="M332.418 68.091L323.694 68.091 323.694 49.933C322.985 50.571 322.276 51.209 321.424 51.777 317.097 54.685 311.707 54.685 307.309 51.777 302.912 48.869 300.216 43.478 300.216 37.662 300.216 31.846 302.912 26.455 307.309 23.548 311.706 20.64 317.097 20.64 321.424 23.548 322.275 24.044 322.984 24.683 323.694 25.392L323.694 22.2 332.418 22.2 332.418 68.091 332.418 68.091zM323.694 36.457C323.41 33.833 322.417 31.563 320.431 30.215 318.161 28.655 314.615 28.655 312.274 30.215 310.004 31.775 308.94 34.683 308.94 37.804 308.94 40.925 310.004 43.833 312.274 45.393 314.615 46.953 318.161 46.953 320.431 45.393 322.417 44.045 323.41 41.775 323.694 39.151L323.694 36.457 323.694 36.457zM358.446 54.756L358.446 49.72C354.97 56.6 347.027 55.891 344.261 55.182 339.438 53.905 335.962 49.508 335.962 41.067L335.962 22.2 344.97 22.2 344.97 38.94C344.97 43.834 346.885 47.168 351.779 47.168 356.673 47.168 358.446 43.054 358.446 38.444L358.446 22.2 367.595 22.2 367.595 48.585 369.723 48.585 369.723 54.756 358.446 54.756 358.446 54.756zM375.466 54.756L375.466 28.442 373.267 28.442 373.267 22.2 384.545 22.2 384.545 54.756 375.466 54.756 375.466 54.756zM373.906 11.419C373.906 8.085 376.601 5.319 380.006 5.319 383.34 5.319 386.106 8.085 386.106 11.419 386.106 14.824 383.34 17.519 380.006 17.519 376.601 17.519 373.906 14.824 373.906 11.419L373.906 11.419z"/>
    <polygon fill="#FFFFFF" points="421.497 45.678 421.497 54.757 387.38 54.757 403.197 31.351 388.657 31.351 388.657 22.2 421.497 22.2 404.403 45.677 421.497 45.677"/>
    <path fill="#FFFFFF" d="M466.249,38.017 C466.249,32.981 464.405,29.86 459.511,29.86 C454.546,29.86 452.773,33.832 452.773,38.442 L452.773,54.756 L443.694,54.756 L443.694,28.442 L441.495,28.442 L441.495,22.2 L452.773,22.2 L452.773,27.236 C456.319,20.285 464.334,21.065 466.958,21.774 C471.781,22.98 475.328,27.448 475.328,35.889 L475.399,54.756 L466.25,54.756 L466.25,38.017 L466.249,38.017 Z"/>
    <polygon fill="#FFFFFF" points="482.844 68.091 490.433 48.728 477.17 22.2 487.525 22.2 495.043 39.79 501.285 22.2 511.64 22.2 491.851 68.091"/>
    <path fill="#FFFFFF" d="M559.514 38.017C559.514 33.052 557.67 29.931 552.776 29.931 548.307 29.931 546.464 33.052 546.109 37.024L546.109 54.756 537.03 54.756 537.03 38.017C537.03 33.052 535.256 29.931 530.292 29.931 525.327 29.931 523.554 33.903 523.554 38.513L523.554 54.756 514.475 54.756 514.475 28.371 512.347 28.371 512.347 22.2 523.554 22.2 523.554 27.307C527.101 20.356 535.116 21.136 537.74 21.774 540.719 22.554 543.201 24.54 544.62 27.874 550.365 19.93 557.6 21.136 560.224 21.774 565.047 23.051 568.523 27.519 568.523 35.889L568.594 54.756 559.515 54.756 559.515 38.017 559.514 38.017zM583.413 25.534C584.122 24.825 584.902 24.187 585.753 23.619 590.292 20.569 595.967 20.569 600.506 23.619 605.045 26.669 607.882 32.272 607.882 38.372 607.882 44.401 605.045 50.004 600.506 53.054 595.967 56.104 590.292 56.104 585.753 53.054 584.902 52.486 584.122 51.848 583.413 51.139L583.413 68.091 574.263 68.091 574.263 28.442 572.135 28.442 572.135 22.2 583.413 22.2 583.413 25.534 583.413 25.534zM583.413 39.932C583.696 42.627 584.76 45.039 586.817 46.457 589.158 48.088 592.917 48.088 595.329 46.457 597.669 44.826 598.805 41.776 598.805 38.513 598.805 35.25 597.67 32.201 595.329 30.569 592.917 28.938 589.159 28.938 586.817 30.569 584.76 31.987 583.696 34.399 583.413 37.094L583.413 39.932 583.413 39.932zM636.181 38.017C636.181 32.981 634.408 29.86 629.443 29.86 624.478 29.86 622.705 33.832 622.705 38.442L622.705 54.756 613.626 54.756 613.626 6.242 611.427 6.242 611.427 0 622.705 0 622.705 27.236C626.251 20.285 634.266 21.065 636.89 21.703 641.784 22.98 645.26 27.448 645.26 35.818L645.331 54.756 636.182 54.756 636.182 38.017 636.181 38.017z"/>
    <polygon fill="#FFFFFF" points="14.895 99.544 14.895 123.021 5.816 123.021 5.816 99.544 .922 99.544 .922 90.465 5.816 90.465 5.816 75.003 14.895 75.003 14.895 90.465 19.789 90.465 19.789 99.544 14.895 99.544"/>
    <path fill="#FFFFFF" d="M55.89,106.636 C55.89,112.736 52.698,118.339 47.379,121.389 C42.13,124.439 35.676,124.439 30.427,121.389 C25.107,118.339 21.915,112.736 21.915,106.636 C21.915,100.607 25.107,94.933 30.427,91.883 C35.676,88.904 42.13,88.904 47.379,91.883 C52.698,94.933 55.89,100.608 55.89,106.636 L55.89,106.636 Z M43.194,98.622 C40.782,96.991 37.023,96.991 34.612,98.622 C32.2,100.324 31.065,103.374 31.065,106.637 C31.065,109.971 32.2,113.02 34.612,114.652 C37.023,116.283 40.783,116.283 43.194,114.652 C45.606,113.021 46.741,109.971 46.741,106.637 C46.74,103.374 45.606,100.324 43.194,98.622 L43.194,98.622 Z"/>
    <polygon fill="#FFFFFF" points="90.003 123.021 75.179 90.465 87.095 90.465 93.266 111.673 99.437 90.465 111.424 90.465 96.6 123.021"/>
    <path fill="#FFFFFF" d="M122.486,109.615 C122.699,111.53 123.975,113.729 125.536,114.793 C128.018,116.495 131.778,116.495 134.189,114.793 C134.898,114.296 135.678,113.871 136.175,113.162 L141.92,118.836 C140.856,119.9 139.721,120.822 138.374,121.602 C133.125,124.581 126.6,124.581 121.351,121.602 C116.102,118.552 112.839,112.878 112.839,106.778 C112.839,100.678 116.102,95.075 121.351,92.025 C126.6,88.975 133.125,88.975 138.374,92.025 C143.694,95.075 146.531,100.253 145.892,109.615 L122.486,109.615 L122.486,109.615 Z M137.38,104.012 C136.884,101.884 135.891,99.898 134.188,98.763 C131.776,97.132 128.017,97.132 125.535,98.763 C123.904,99.898 122.84,101.884 122.343,104.012 L137.38,104.012 L137.38,104.012 Z"/>
    <polygon fill="#FFFFFF" points="181.921 123.021 172.417 123.021 164.828 113.02 157.168 123.021 147.735 123.021 159.296 105.715 147.735 90.465 160.077 90.465 164.829 97.487 169.51 90.465 181.922 90.465 170.29 105.715"/>
    <path fill="#FFFFFF" d="M226.815,123.021 L226.815,119.333 C226.034,120.042 225.255,120.751 224.403,121.319 C219.864,124.298 214.26,124.298 209.65,121.319 C205.111,118.269 202.274,112.665 202.274,106.566 C202.274,100.466 205.111,94.863 209.65,91.813 C214.261,88.763 219.864,88.763 224.403,91.813 C225.254,92.38 226.034,93.018 226.815,93.799 L226.815,74.506 L224.616,74.506 L224.616,68.264 L235.894,68.264 L235.894,123.02 L226.815,123.02 L226.815,123.021 Z M226.815,105.289 C226.531,102.594 225.397,100.182 223.41,98.835 C220.998,97.204 217.239,97.204 214.898,98.835 C212.487,100.466 211.423,103.445 211.423,106.708 C211.423,109.971 212.487,113.02 214.898,114.652 C217.239,116.283 220.998,116.283 223.41,114.652 C225.396,113.234 226.531,110.822 226.815,108.127 L226.815,105.289 L226.815,105.289 Z"/>
    <polygon fill="#FFFFFF" points="278.093 123.021 271.78 123.021 264.758 103.161 257.736 123.021 251.494 123.021 237.663 90.465 249.011 90.465 254.472 111.673 259.792 89.614 269.722 89.614 275.113 111.673 280.503 90.465 291.851 90.465"/>
    <path fill="#FFFFFF" d="M326.816 123.021L317.737 123.021 317.737 119.404C317.028 120.113 316.248 120.751 315.397 121.319 310.787 124.369 305.183 124.369 300.644 121.319 296.034 118.269 293.268 112.665 293.268 106.566 293.268 100.537 296.034 94.934 300.644 91.884 305.183 88.834 310.787 88.834 315.397 91.884 316.248 92.452 317.028 93.09 317.737 93.799L317.737 90.465 326.816 90.465 326.816 123.021 326.816 123.021zM317.737 105.36C317.454 102.665 316.39 100.253 314.333 98.835 311.921 97.204 308.233 97.204 305.821 98.835 303.409 100.466 302.345 103.516 302.345 106.779 302.345 110.042 303.409 113.091 305.821 114.723 308.233 116.354 311.921 116.354 314.333 114.723 316.39 113.305 317.454 110.893 317.737 108.198L317.737 105.36 317.737 105.36zM341.709 95.572C345.256 88.621 353.27 89.259 355.894 89.968 356.817 90.181 357.596 90.607 358.377 91.032L352.915 99.543C351.851 98.621 350.362 98.125 348.447 98.125 343.482 98.125 341.709 102.097 341.709 106.707L341.709 123.021 332.63 123.021 332.63 96.707 330.36 96.707 330.36 90.465 341.708 90.465 341.708 95.572 341.709 95.572z"/>
    <path fill="#FFFFFF" d="M362.417 85.004C362.701 76.492 367.098 73.017 372.276 73.088 378.518 73.159 380.929 76.989 380.929 76.989L377.383 83.018C376.319 81.883 374.475 81.245 372.844 82.167 371.213 83.089 371.284 86.777 371.284 86.777L371.284 91.245 376.036 91.245 376.036 100.111 371.284 100.111 371.284 123.021 362.418 123.021 362.418 100.111 357.666 100.111 357.666 91.245 362.418 91.245 362.418 85.004 362.417 85.004zM381.991 117.418C381.991 114.084 384.97 111.035 388.375 111.035 391.709 111.035 394.758 114.085 394.758 117.418 394.758 120.823 391.708 123.801 388.375 123.801 384.97 123.801 381.991 120.822 381.991 117.418L381.991 117.418z"/>
    <g transform="translate(0 167)">
      <polygon fill="#FFFFFF" points="13.193 28.821 30.996 28.821 30.996 38.112 13.193 38.112 13.193 55.489 3.334 55.489 3.334 15.415 .922 15.415 .922 6.053 34.542 6.053 34.542 15.415 13.193 15.415"/>
      <path fill="#FFFFFF" d="M39.575,55.49 L39.575,29.176 L37.376,29.176 L37.376,22.934 L48.654,22.934 L48.654,55.49 L39.575,55.49 L39.575,55.49 Z M38.015,12.153 C38.015,8.819 40.71,6.053 44.115,6.053 C47.449,6.053 50.215,8.819 50.215,12.153 C50.215,15.558 47.449,18.253 44.115,18.253 C40.71,18.252 38.015,15.557 38.015,12.153 L38.015,12.153 Z"/>
      <polygon fill="#FFFFFF" points="66.455 55.49 51.631 22.934 63.547 22.934 69.718 44.142 75.889 22.934 87.876 22.934 73.052 55.49"/>
      <path fill="#FFFFFF" d="M98.938 42.084C99.151 43.999 100.427 46.198 101.988 47.262 104.47 48.964 108.23 48.964 110.641 47.262 111.35 46.765 112.13 46.34 112.627 45.631L118.372 51.305C117.308 52.369 116.173 53.291 114.826 54.071 109.577 57.05 103.052 57.05 97.803 54.071 92.554 51.021 89.291 45.347 89.291 39.247 89.291 33.147 92.554 27.544 97.803 24.494 103.052 21.444 109.577 21.444 114.826 24.494 120.146 27.544 122.983 32.722 122.344 42.084L98.938 42.084 98.938 42.084zM113.833 36.481C113.337 34.353 112.344 32.367 110.641 31.232 108.229 29.601 104.47 29.601 101.988 31.232 100.357 32.367 99.293 34.353 98.796 36.481L113.833 36.481 113.833 36.481zM176.033 68.824L167.309 68.824 167.309 50.666C166.6 51.304 165.891 51.943 165.039 52.51 160.713 55.418 155.322 55.418 150.925 52.51 146.527 49.602 143.832 44.211 143.832 38.395 143.832 32.579 146.527 27.188 150.925 24.281 155.322 21.373 160.713 21.373 165.039 24.281 165.89 24.777 166.599 25.416 167.309 26.125L167.309 22.933 176.033 22.933 176.033 68.824 176.033 68.824zM167.309 37.19C167.025 34.566 166.032 32.296 164.046 30.948 161.776 29.388 158.23 29.388 155.889 30.948 153.619 32.508 152.555 35.416 152.555 38.537 152.555 41.658 153.619 44.566 155.889 46.126 158.229 47.686 161.776 47.686 164.046 46.126 166.032 44.778 167.025 42.508 167.309 39.884L167.309 37.19 167.309 37.19zM202.061 55.49L202.061 50.454C198.586 57.334 190.642 56.625 187.876 55.916 183.053 54.639 179.577 50.242 179.577 41.801L179.577 22.934 188.585 22.934 188.585 39.673C188.585 44.567 190.5 47.901 195.394 47.901 200.288 47.901 202.061 43.787 202.061 39.177L202.061 22.934 211.211 22.934 211.211 49.319 213.339 49.319 213.339 55.49 202.061 55.49 202.061 55.49zM250.076 55.49L240.997 55.49 240.997 51.873C240.288 52.582 239.508 53.22 238.657 53.788 234.046 56.838 228.443 56.838 223.904 53.788 219.294 50.738 216.528 45.134 216.528 39.035 216.528 33.006 219.294 27.403 223.904 24.353 228.443 21.303 234.047 21.303 238.657 24.353 239.508 24.921 240.288 25.559 240.997 26.268L240.997 22.934 250.076 22.934 250.076 55.49 250.076 55.49zM240.998 37.829C240.715 35.134 239.651 32.722 237.594 31.304 235.182 29.673 231.494 29.673 229.082 31.304 226.67 32.935 225.606 35.985 225.606 39.248 225.606 42.511 226.67 45.56 229.082 47.192 231.494 48.824 235.182 48.823 237.594 47.192 239.651 45.774 240.715 43.362 240.998 40.667L240.998 37.829 240.998 37.829zM282.063 51.305C280.999 52.369 279.793 53.291 278.517 54 273.197 57.05 266.743 57.05 261.423 54 256.174 50.95 252.911 45.347 252.911 39.247 252.911 33.147 256.174 27.544 261.423 24.494 266.742 21.444 273.197 21.444 278.517 24.494 279.793 25.274 280.999 26.125 282.063 27.189L276.105 33.076C275.608 32.367 275.041 31.729 274.261 31.232 271.85 29.601 268.09 29.601 265.679 31.232 263.268 32.863 262.133 35.913 262.133 39.247 262.133 42.581 263.267 45.63 265.679 47.262 268.091 48.964 271.85 48.964 274.261 47.262 275.042 46.765 275.609 46.127 276.105 45.418L282.063 51.305 282.063 51.305z"/>
      <polygon fill="#FFFFFF" points="315.61 55.49 305.183 55.49 298.729 42.723 295.467 42.723 295.467 55.49 286.388 55.49 286.388 12.295 284.189 12.295 284.189 6.053 295.467 6.053 295.467 33.573 296.743 33.573 305.183 22.934 317.312 22.934 305.68 37.332"/>
      <path fill="#FFFFFF" d="M321.991 55.49L321.991 29.176 319.792 29.176 319.792 22.934 331.07 22.934 331.07 55.49 321.991 55.49 321.991 55.49zM320.43 12.153C320.43 8.819 323.125 6.053 326.53 6.053 329.864 6.053 332.63 8.819 332.63 12.153 332.63 15.558 329.864 18.253 326.53 18.253 323.125 18.252 320.43 15.557 320.43 12.153L320.43 12.153zM360.574 38.75C360.574 33.714 358.73 30.593 353.836 30.593 348.871 30.593 347.098 34.565 347.098 39.175L347.098 55.489 338.019 55.489 338.019 29.175 335.82 29.175 335.82 22.933 347.098 22.933 347.098 27.969C350.644 21.018 358.659 21.798 361.283 22.507 366.106 23.713 369.653 28.181 369.653 36.622L369.724 55.489 360.575 55.489 360.575 38.75 360.574 38.75zM407.03 52.085C407.03 76.414 377.949 69.25 374.758 65.136L378.729 57.972C379.794 58.398 384.049 61.519 391.355 60.667 394.405 60.312 397.88 58.114 397.88 52.227L397.88 51.73C397.171 52.51 396.32 53.219 395.468 53.787 390.858 56.837 385.255 56.837 380.715 53.787 376.104 50.737 373.267 45.133 373.267 39.034 373.267 32.934 376.104 27.331 380.715 24.281 385.254 21.231 390.858 21.231 395.468 24.281 396.319 24.848 397.17 25.557 397.88 26.338L397.88 22.933 407.03 22.933 407.03 52.085 407.03 52.085zM397.88 39.247C397.88 35.913 396.816 32.935 394.404 31.303 391.992 29.671 388.304 29.672 385.892 31.303 383.481 32.934 382.417 35.913 382.417 39.247 382.417 42.51 383.481 45.489 385.892 47.12 388.304 48.751 391.992 48.751 394.404 47.12 396.816 45.489 397.88 42.51 397.88 39.247L397.88 39.247z"/>
      <polygon fill="#241D65" points="461.003 46.411 461.003 55.49 426.886 55.49 442.703 32.084 428.163 32.084 428.163 22.934 461.003 22.934 443.909 46.411"/>
      <path fill="#241D65" d="M472.064 42.084C472.277 43.999 473.554 46.198 475.114 47.262 477.596 48.964 481.356 48.964 483.767 47.262 484.476 46.765 485.257 46.34 485.753 45.631L491.498 51.305C490.434 52.369 489.299 53.291 487.951 54.071 482.702 57.05 476.177 57.05 470.929 54.071 465.68 51.021 462.417 45.347 462.417 39.247 462.417 33.147 465.68 27.544 470.929 24.494 476.178 21.444 482.703 21.444 487.951 24.494 493.271 27.544 496.108 32.722 495.469 42.084L472.064 42.084 472.064 42.084zM486.96 36.481C486.463 34.353 485.47 32.367 483.768 31.232 481.357 29.601 477.597 29.601 475.115 31.232 473.484 32.367 472.419 34.353 471.923 36.481L486.96 36.481 486.96 36.481zM510.009 26.267C510.718 25.558 511.498 24.92 512.349 24.352 516.888 21.302 522.563 21.302 527.102 24.352 531.641 27.402 534.478 33.005 534.478 39.105 534.478 45.134 531.641 50.737 527.102 53.787 522.563 56.837 516.888 56.837 512.349 53.787 511.498 53.219 510.718 52.581 510.009 51.872L510.009 68.824 500.859 68.824 500.859 29.175 498.731 29.175 498.731 22.933 510.009 22.933 510.009 26.267 510.009 26.267zM510.009 40.665C510.292 43.36 511.357 45.772 513.413 47.19 515.754 48.821 519.513 48.821 521.925 47.19 524.265 45.559 525.401 42.509 525.401 39.246 525.401 35.983 524.266 32.934 521.925 31.302 519.513 29.671 515.754 29.671 513.413 31.302 511.357 32.72 510.292 35.132 510.009 37.827L510.009 40.665 510.009 40.665zM562.777 38.75C562.777 33.714 561.004 30.593 556.039 30.593 551.074 30.593 549.301 34.565 549.301 39.175L549.301 55.489 540.222 55.489 540.222 6.974 538.023 6.974 538.023.732 549.301.732 549.301 27.968C552.847 21.017 560.862 21.797 563.486 22.435 568.38 23.712 571.856 28.18 571.856 36.55L571.927 55.488 562.778 55.488 562.778 38.75 562.777 38.75z"/>
      <polygon fill="#241D65" points="579.372 68.824 586.961 49.461 573.697 22.934 584.052 22.934 591.57 40.524 597.812 22.934 608.167 22.934 588.378 68.825 579.372 68.825"/>
      <path fill="#241D65" d="M620.223 28.04C623.77 21.089 631.784 21.727 634.408 22.436 635.331 22.649 636.11 23.075 636.891 23.5L631.429 32.011C630.365 31.089 628.876 30.593 626.961 30.593 621.996 30.593 620.223 34.565 620.223 39.175L620.223 55.489 611.144 55.489 611.144 29.175 608.874 29.175 608.874 22.933 620.223 22.933 620.223 28.04 620.223 28.04zM657.458 33.005C655.046 30.381 650.933 29.459 648.521 30.097 646.819 30.523 646.109 32.154 647.031 33.431 648.237 35.062 652.706 35.417 656.606 37.758 664.55 42.51 663.77 51.589 656.677 54.852 651.996 56.98 645.187 56.838 639.655 53.788 638.237 52.937 635.895 51.589 634.832 50.383L639.371 44.212C640.364 45.347 643.201 46.836 644.974 47.688 648.308 49.106 653.273 49.745 653.982 46.837 654.549 44.496 650.648 43.361 647.882 42.51 643.272 41.021 639.725 39.46 638.307 35.701 636.747 31.375 638.094 25.062 645.684 22.792 649.513 21.657 653.273 22.225 655.968 23.147 658.948 24.211 660.862 25.842 662.21 27.332L657.458 33.005 657.458 33.005z"/>
      <path fill="#FFFFFF" d="M3.759 137.089L3.759 97.44 1.631 97.44 1.631 91.198 12.909 91.198 12.909 137.089 3.759 137.089 3.759 137.089zM2.27 80.417C2.27 77.083 4.965 74.317 8.299 74.317 11.704 74.317 14.399 77.083 14.399 80.417 14.399 83.75 11.704 86.516 8.299 86.516 4.965 86.517 2.27 83.75 2.27 80.417L2.27 80.417zM50.853 107.37C50.853 113.469 47.661 119.072 42.342 122.123 37.093 125.173 30.639 125.173 25.39 122.123 20.07 119.073 16.878 113.469 16.878 107.37 16.878 101.341 20.07 95.666 25.39 92.617 30.639 89.638 37.093 89.638 42.342 92.617 47.662 95.666 50.853 101.341 50.853 107.37L50.853 107.37zM38.157 99.355C35.745 97.723 31.986 97.723 29.575 99.355 27.163 101.057 26.028 104.107 26.028 107.37 26.028 110.704 27.163 113.753 29.575 115.385 31.986 117.016 35.746 117.016 38.157 115.385 40.569 113.753 41.704 110.704 41.704 107.37 41.704 104.107 40.569 101.057 38.157 99.355L38.157 99.355z"/>
      <polygon fill="#FFFFFF" points="55.887 123.754 55.887 80.629 53.688 80.629 53.688 74.317 64.966 74.317 64.966 123.754"/>
      <polygon fill="#FFFFFF" points="82.129 100.277 82.129 123.755 73.05 123.755 73.05 100.277 68.156 100.277 68.156 91.198 73.05 91.198 73.05 75.736 82.129 75.736 82.129 91.198 87.023 91.198 87.023 100.277"/>
      <path fill="#FFFFFF" d="M155.254,107.015 C155.254,102.05 153.41,98.929 148.516,98.929 C144.048,98.929 142.204,102.049 141.849,106.021 L141.849,123.753 L132.77,123.753 L132.77,107.014 C132.77,102.049 130.997,98.928 126.032,98.928 C121.067,98.928 119.294,102.899 119.294,107.509 L119.294,123.752 L110.215,123.752 L110.215,97.366 L108.087,97.366 L108.087,91.195 L119.294,91.195 L119.294,96.302 C122.84,89.351 130.855,90.131 133.479,90.769 C136.458,91.55 138.941,93.535 140.359,96.87 C146.104,88.926 153.339,90.132 155.963,90.769 C160.786,92.046 164.262,96.515 164.262,104.884 L164.333,123.751 L155.254,123.751 L155.254,107.015 L155.254,107.015 Z"/>
      <polygon fill="#FFFFFF" points="171.776 137.089 179.365 117.726 166.101 91.199 176.457 91.199 183.975 108.789 190.217 91.199 200.573 91.199 180.784 137.09 171.776 137.09"/>
      <polygon fill="#FFFFFF" points="258.163 123.754 251.85 123.754 244.828 103.894 237.806 123.754 231.564 123.754 217.733 91.198 229.082 91.198 234.543 112.405 239.863 90.347 249.793 90.347 255.184 112.405 260.574 91.198 271.923 91.198"/>
      <path fill="#FFFFFF" d="M306.886,123.754 L297.807,123.754 L297.807,120.136 C297.098,120.845 296.318,121.483 295.467,122.051 C290.856,125.101 285.253,125.101 280.714,122.051 C276.104,119.001 273.338,113.397 273.338,107.298 C273.338,101.269 276.104,95.666 280.714,92.616 C285.253,89.566 290.857,89.566 295.467,92.616 C296.318,93.183 297.098,93.822 297.807,94.531 L297.807,91.197 L306.886,91.197 L306.886,123.754 L306.886,123.754 Z M297.807,106.093 C297.524,103.398 296.46,100.986 294.403,99.568 C291.991,97.937 288.303,97.937 285.891,99.568 C283.479,101.199 282.415,104.249 282.415,107.512 C282.415,110.775 283.479,113.824 285.891,115.456 C288.303,117.088 291.991,117.088 294.403,115.456 C296.46,114.038 297.524,111.626 297.807,108.93 L297.807,106.093 L297.807,106.093 Z"/>
      <polygon fill="#FFFFFF" points="343.199 123.754 333.694 123.754 326.105 113.753 318.445 123.754 309.012 123.754 320.573 106.447 309.012 91.198 321.354 91.198 326.106 98.22 330.787 91.198 343.199 91.198 331.567 106.447"/>
      <path fill="#FFFFFF" d="M374.476 94.532C375.256 93.823 376.036 93.114 376.888 92.546 381.427 89.567 387.031 89.567 391.641 92.546 396.18 95.596 399.017 101.199 399.017 107.299 399.017 113.399 396.18 119.002 391.641 122.052 387.031 125.102 381.428 125.102 376.888 122.052 376.037 121.484 375.256 120.846 374.476 120.066L374.476 123.755 365.397 123.755 365.397 75.24 363.198 75.24 363.198 68.998 374.476 68.998 374.476 94.532 374.476 94.532zM374.476 108.93C374.759 111.626 375.894 114.037 377.88 115.385 380.292 117.016 384.051 117.016 386.392 115.385 388.804 113.753 389.868 110.774 389.868 107.511 389.868 104.249 388.804 101.199 386.392 99.567 384.052 97.936 380.292 97.936 377.88 99.567 375.894 100.985 374.759 103.326 374.476 106.092L374.476 108.93 374.476 108.93zM411.852 110.348C412.065 112.264 413.342 114.462 414.902 115.526 417.384 117.228 421.144 117.228 423.555 115.526 424.265 115.03 425.045 114.604 425.541 113.895L431.286 119.57C430.222 120.634 429.087 121.556 427.739 122.336 422.49 125.314 415.965 125.314 410.717 122.336 405.468 119.286 402.205 113.612 402.205 107.511 402.205 101.412 405.468 95.809 410.717 92.758 415.966 89.708 422.491 89.708 427.739 92.758 433.059 95.808 435.896 100.986 435.257 110.348L411.852 110.348 411.852 110.348zM426.747 104.745C426.25 102.617 425.257 100.632 423.555 99.496 421.144 97.865 417.384 97.865 414.902 99.496 413.271 100.631 412.206 102.617 411.71 104.745L426.747 104.745 426.747 104.745zM463.06 123.754L463.06 120.065C462.279 120.774 461.5 121.483 460.648 122.051 456.109 125.03 450.505 125.03 445.895 122.051 441.356 119.001 438.519 113.397 438.519 107.298 438.519 101.199 441.356 95.595 445.895 92.545 450.506 89.495 456.109 89.495 460.648 92.545 461.499 93.112 462.279 93.751 463.06 94.531L463.06 75.239 460.861 75.239 460.861 68.997 472.139 68.997 472.139 123.754 463.06 123.754 463.06 123.754zM463.06 106.022C462.776 103.326 461.642 100.915 459.655 99.568 457.243 97.937 453.484 97.937 451.143 99.568 448.732 101.199 447.668 104.179 447.668 107.441 447.668 110.704 448.732 113.753 451.143 115.385 453.484 117.016 457.243 117.016 459.655 115.385 461.641 113.967 462.776 111.555 463.06 108.859L463.06 106.022 463.06 106.022zM476.392 118.151C476.392 114.817 479.371 111.767 482.776 111.767 486.11 111.767 489.159 114.817 489.159 118.151 489.159 121.555 486.109 124.534 482.776 124.534 479.371 124.534 476.392 121.555 476.392 118.151L476.392 118.151z"/>
    </g>
    <g transform="translate(0 343)">
      <polygon fill="#FFFFFF" points="24.825 15.539 24.825 55.401 14.966 55.401 14.966 15.539 0 15.539 0 5.964 39.72 5.964 39.72 15.539"/>
      <path fill="#FFFFFF" d="M66.385 38.662C66.385 33.626 64.612 30.505 59.647 30.505 54.682 30.505 52.909 34.477 52.909 39.087L52.909 55.401 43.83 55.401 43.83 6.886 41.631 6.886 41.631.644 52.909.644 52.909 27.88C56.455 20.929 64.47 21.709 67.094 22.347 71.988 23.624 75.464 28.092 75.464 36.462L75.535 55.4 66.385 55.4 66.385 38.662 66.385 38.662zM88.37 41.995C88.583 43.911 89.859 46.109 91.42 47.173 93.902 48.875 97.662 48.875 100.073 47.173 100.782 46.677 101.562 46.251 102.059 45.542L107.804 51.217C106.74 52.281 105.605 53.203 104.258 53.983 99.009 56.961 92.484 56.961 87.235 53.983 81.986 50.933 78.723 45.259 78.723 39.158 78.723 33.059 81.986 27.456 87.235 24.405 92.484 21.355 99.009 21.355 104.258 24.405 109.578 27.455 112.415 32.633 111.776 41.995L88.37 41.995 88.37 41.995zM103.265 36.392C102.769 34.264 101.776 32.279 100.073 31.143 97.661 29.512 93.902 29.512 91.42 31.143 89.789 32.278 88.725 34.264 88.228 36.392L103.265 36.392 103.265 36.392zM136.953 17.384C137.237 8.872 141.634 5.397 146.812 5.468 153.054 5.539 155.465 9.369 155.465 9.369L151.918 15.398C150.854 14.264 149.01 13.625 147.379 14.547 145.748 15.469 145.819 19.157 145.819 19.157L145.819 23.626 150.571 23.626 150.571 32.491 145.819 32.491 145.819 55.401 136.953 55.401 136.953 32.491 132.2 32.491 132.2 23.626 136.952 23.626 136.952 17.384 136.953 17.384zM158.016 55.401L158.016 29.086 155.817 29.086 155.817 22.844 167.095 22.844 167.095 55.4 158.016 55.4 158.016 55.401zM156.456 12.064C156.456 8.73 159.151 5.963 162.556 5.963 165.89 5.963 168.656 8.729 168.656 12.064 168.656 15.468 165.89 18.163 162.556 18.163 159.151 18.163 156.456 15.469 156.456 12.064L156.456 12.064z"/>
      <polygon fill="#FFFFFF" points="184.896 55.401 170.072 22.845 181.988 22.845 188.159 44.052 194.33 22.845 206.317 22.845 191.493 55.401"/>
      <path fill="#FFFFFF" d="M217.379 41.995C217.592 43.911 218.869 46.109 220.429 47.173 222.911 48.875 226.671 48.875 229.082 47.173 229.791 46.677 230.572 46.251 231.068 45.542L236.813 51.217C235.749 52.281 234.614 53.203 233.266 53.983 228.017 56.961 221.492 56.961 216.244 53.983 210.995 50.933 207.732 45.259 207.732 39.158 207.732 33.059 210.995 27.456 216.244 24.405 221.493 21.355 228.018 21.355 233.266 24.405 238.586 27.455 241.423 32.633 240.784 41.995L217.379 41.995 217.379 41.995zM232.274 36.392C231.777 34.264 230.784 32.279 229.082 31.143 226.671 29.512 222.911 29.512 220.429 31.143 218.798 32.278 217.733 34.264 217.237 36.392L232.274 36.392 232.274 36.392zM273.197 26.178C273.977 25.469 274.757 24.76 275.609 24.192 280.148 21.213 285.752 21.213 290.362 24.192 294.901 27.242 297.738 32.845 297.738 38.945 297.738 45.045 294.901 50.648 290.362 53.698 285.752 56.748 280.149 56.748 275.609 53.698 274.758 53.13 273.977 52.492 273.197 51.712L273.197 55.401 264.118 55.401 264.118 6.886 261.919 6.886 261.919.644 273.197.644 273.197 26.178 273.197 26.178zM273.197 40.577C273.48 43.273 274.615 45.684 276.601 47.032 279.013 48.663 282.772 48.663 285.113 47.032 287.525 45.4 288.589 42.421 288.589 39.158 288.589 35.896 287.525 32.846 285.113 31.214 282.773 29.583 279.013 29.583 276.601 31.214 274.615 32.632 273.48 34.973 273.197 37.739L273.197 40.577 273.197 40.577zM334.547 39.017C334.547 45.116 331.355 50.719 326.035 53.77 320.786 56.82 314.332 56.82 309.083 53.77 303.763 50.72 300.571 45.116 300.571 39.017 300.571 32.988 303.763 27.313 309.083 24.264 314.332 21.285 320.786 21.285 326.035 24.264 331.355 27.313 334.547 32.988 334.547 39.017L334.547 39.017zM321.851 31.002C319.439 29.37 315.68 29.37 313.269 31.002 310.857 32.704 309.723 35.754 309.723 39.017 309.723 42.351 310.858 45.4 313.269 47.032 315.681 48.663 319.44 48.663 321.851 47.032 324.263 45.4 325.397 42.351 325.397 39.017 325.397 35.754 324.262 32.704 321.851 31.002L321.851 31.002z"/>
      <polygon fill="#FFFFFF" points="370.15 55.401 360.645 55.401 353.056 45.4 345.396 55.401 335.963 55.401 347.524 38.094 335.963 22.845 348.305 22.845 353.057 29.867 357.738 22.845 370.15 22.845 358.518 38.094"/>
      <path fill="#FFFFFF" d="M374.475 55.401L374.475 29.086 372.276 29.086 372.276 22.844 383.554 22.844 383.554 55.4 374.475 55.4 374.475 55.401zM372.914 12.064C372.914 8.73 375.609 5.963 379.014 5.963 382.348 5.963 385.114 8.729 385.114 12.064 385.114 15.468 382.348 18.163 379.014 18.163 375.609 18.163 372.914 15.469 372.914 12.064L372.914 12.064zM413.058 38.662C413.058 33.626 411.214 30.505 406.32 30.505 401.355 30.505 399.582 34.477 399.582 39.087L399.582 55.401 390.503 55.401 390.503 29.086 388.304 29.086 388.304 22.844 399.582 22.844 399.582 27.88C403.128 20.929 411.143 21.709 413.767 22.418 418.59 23.625 422.137 28.093 422.137 36.534L422.208 55.401 413.059 55.401 413.059 38.662 413.058 38.662zM459.514 51.996C459.514 76.325 430.433 69.16 427.242 65.047L431.213 57.883C432.278 58.308 436.533 61.429 443.839 60.578 446.889 60.223 450.364 58.024 450.364 52.138L450.364 51.641C449.655 52.421 448.804 53.13 447.952 53.698 443.342 56.748 437.739 56.748 433.199 53.698 428.588 50.648 425.751 45.044 425.751 38.945 425.751 32.845 428.588 27.242 433.199 24.192 437.738 21.142 443.342 21.142 447.952 24.192 448.803 24.759 449.654 25.468 450.364 26.248L450.364 22.844 459.514 22.844 459.514 51.996 459.514 51.996zM450.364 39.158C450.364 35.825 449.3 32.846 446.888 31.214 444.476 29.582 440.788 29.583 438.377 31.214 435.965 32.845 434.901 35.825 434.901 39.158 434.901 42.421 435.965 45.4 438.377 47.032 440.788 48.663 444.476 48.663 446.888 47.032 449.3 45.4 450.364 42.421 450.364 39.158L450.364 39.158z"/>
      <polygon fill="#FFFFFF" points="519.941 55.401 513.628 55.401 506.606 35.541 499.584 55.401 493.342 55.401 479.511 22.845 490.86 22.845 496.321 44.052 501.641 21.994 511.571 21.994 516.962 44.052 522.352 22.845 533.7 22.845"/>
      <path fill="#FFFFFF" d="M537.669,55.401 L537.669,29.086 L535.47,29.086 L535.47,22.844 L546.748,22.844 L546.748,55.4 L537.669,55.4 L537.669,55.401 Z M536.108,12.064 C536.108,8.73 538.803,5.963 542.208,5.963 C545.542,5.963 548.308,8.729 548.308,12.064 C548.308,15.468 545.542,18.163 542.208,18.163 C538.803,18.163 536.108,15.469 536.108,12.064 L536.108,12.064 Z"/>
      <polygon fill="#FFFFFF" points="583.7 46.322 583.7 55.401 549.583 55.401 565.4 31.995 550.86 31.995 550.86 22.845 583.7 22.845 566.606 46.323 583.7 46.323"/>
      <polygon fill="#FFFFFF" points="606.749 33.13 606.749 43.06 586.818 43.06 586.818 33.13"/>
      <path fill="#FFFFFF" d="M34.826 123.666L25.747 123.666 25.747 120.048C25.037 120.757 24.258 121.395 23.406 121.963 18.796 125.013 13.192 125.013 8.653 121.963 4.043 118.913 1.276 113.309 1.276 107.21 1.276 101.181 4.042 95.578 8.653 92.528 13.192 89.478 18.796 89.478 23.406 92.528 24.257 93.095 25.037 93.734 25.747 94.443L25.747 91.109 34.826 91.109 34.826 123.666 34.826 123.666zM25.747 106.004C25.463 103.309 24.399 100.897 22.342 99.479 19.93 97.848 16.242 97.848 13.83 99.479 11.418 101.11 10.354 104.16 10.354 107.423 10.354 110.686 11.418 113.735 13.83 115.367 16.242 116.999 19.93 116.999 22.342 115.367 24.399 113.949 25.463 111.537 25.747 108.841L25.747 106.004 25.747 106.004zM49.718 96.216C53.265 89.265 61.279 89.904 63.904 90.613 64.826 90.826 65.606 91.252 66.386 91.677L60.925 100.189C59.861 99.267 58.372 98.771 56.457 98.771 51.492 98.771 49.719 102.743 49.719 107.353L49.719 123.667 40.64 123.667 40.64 97.352 38.37 97.352 38.37 91.11 49.719 91.11 49.719 96.216 49.718 96.216zM91.28 123.666L91.28 119.977C90.5 120.686 89.72 121.395 88.868 121.963 84.329 124.942 78.725 124.942 74.115 121.963 69.576 118.913 66.738 113.309 66.738 107.21 66.738 101.11 69.575 95.507 74.115 92.457 78.725 89.407 84.329 89.407 88.868 92.457 89.719 93.024 90.499 93.663 91.28 94.443L91.28 75.151 89.081 75.151 89.081 68.909 100.359 68.909 100.359 123.666 91.28 123.666 91.28 123.666zM91.28 105.933C90.996 103.237 89.861 100.826 87.875 99.479 85.464 97.848 81.704 97.848 79.364 99.479 76.952 101.11 75.888 104.09 75.888 107.352 75.888 110.615 76.952 113.664 79.364 115.296 81.705 116.927 85.464 116.927 87.875 115.296 89.861 113.878 90.996 111.466 91.28 108.77L91.28 105.933 91.28 105.933zM124.117 101.181C121.705 98.557 117.592 97.635 115.18 98.273 113.478 98.698 112.768 100.33 113.69 101.607 114.896 103.238 119.365 103.593 123.265 105.934 131.209 110.686 130.429 119.765 123.336 123.028 118.655 125.156 111.846 125.014 106.313 121.964 104.895 121.113 102.554 119.765 101.49 118.559L106.029 112.388C107.022 113.523 109.859 115.012 111.632 115.864 114.966 117.282 119.931 117.92 120.64 115.013 121.208 112.672 117.306 111.537 114.54 110.686 109.93 109.196 106.383 107.636 104.965 103.877 103.405 99.551 104.752 93.238 112.341 90.968 116.171 89.833 119.93 90.401 122.626 91.323 125.605 92.387 127.52 94.019 128.868 95.508L124.117 101.181 124.117 101.181z"/>
      <path fill="#241D65" d="M151.634 137L151.634 97.351 149.506 97.351 149.506 91.109 160.784 91.109 160.784 137 151.634 137 151.634 137zM150.144 80.329C150.144 76.995 152.839 74.228 156.173 74.228 159.578 74.228 162.273 76.994 162.273 80.329 162.273 83.662 159.578 86.428 156.173 86.428 152.839 86.428 150.144 83.662 150.144 80.329L150.144 80.329zM187.947 123.666L187.947 118.629C184.471 125.509 176.528 124.8 173.761 124.091 168.938 122.814 165.462 118.417 165.462 109.976L165.462 91.109 174.47 91.109 174.47 107.848C174.47 112.742 176.385 116.076 181.279 116.076 186.173 116.076 187.946 111.962 187.946 107.352L187.946 91.109 197.095 91.109 197.095 117.494 199.223 117.494 199.223 123.665 187.947 123.665 187.947 123.666zM249.935 106.927C249.935 101.962 248.091 98.841 243.197 98.841 238.728 98.841 236.885 101.961 236.53 105.933L236.53 123.665 227.451 123.665 227.451 106.926C227.451 101.961 225.677 98.84 220.713 98.84 215.748 98.84 213.975 102.811 213.975 107.421L213.975 123.664 204.896 123.664 204.896 97.28 202.768 97.28 202.768 91.109 213.975 91.109 213.975 96.216C217.522 89.265 225.537 90.045 228.161 90.683 231.14 91.464 233.622 93.449 235.041 96.784 240.786 88.84 248.021 90.046 250.645 90.683 255.468 91.96 258.944 96.429 258.944 104.798L259.015 123.665 249.936 123.665 249.936 106.927 249.935 106.927zM273.834 94.443C274.543 93.734 275.323 93.095 276.174 92.528 280.713 89.478 286.388 89.478 290.927 92.528 295.466 95.578 298.303 101.181 298.303 107.281 298.303 113.31 295.466 118.913 290.927 121.963 286.388 125.013 280.713 125.013 276.174 121.963 275.323 121.395 274.543 120.757 273.834 120.048L273.834 137 264.684 137 264.684 97.351 262.556 97.351 262.556 91.109 273.834 91.109 273.834 94.443 273.834 94.443zM273.834 108.841C274.117 111.537 275.182 113.948 277.238 115.367 279.579 116.999 283.338 116.999 285.75 115.367 288.09 113.735 289.226 110.686 289.226 107.423 289.226 104.161 288.091 101.111 285.75 99.479 283.338 97.848 279.579 97.848 277.238 99.479 275.182 100.897 274.117 103.309 273.834 106.004L273.834 108.841 273.834 108.841z"/>
      <path fill="#FFFFFF" d="M352.277 137L343.553 137 343.553 118.842C342.844 119.481 342.135 120.118 341.283 120.686 336.956 123.594 331.566 123.594 327.168 120.686 322.771 117.778 320.075 112.388 320.075 106.572 320.075 100.755 322.771 95.365 327.168 92.457 331.565 89.549 336.956 89.549 341.283 92.457 342.134 92.954 342.843 93.592 343.553 94.301L343.553 91.109 352.277 91.109 352.277 137 352.277 137zM343.553 105.365C343.269 102.741 342.276 100.471 340.29 99.124 338.02 97.564 334.474 97.564 332.133 99.124 329.863 100.684 328.799 103.592 328.799 106.713 328.799 109.834 329.863 112.742 332.133 114.303 334.474 115.863 338.02 115.863 340.29 114.303 342.276 112.955 343.269 110.685 343.553 108.061L343.553 105.365 343.553 105.365zM378.305 123.666L378.305 118.629C374.829 125.509 366.886 124.8 364.12 124.091 359.297 122.814 355.821 118.417 355.821 109.976L355.821 91.109 364.829 91.109 364.829 107.848C364.829 112.742 366.744 116.076 371.638 116.076 376.532 116.076 378.305 111.962 378.305 107.352L378.305 91.109 387.454 91.109 387.454 117.494 389.582 117.494 389.582 123.665 378.305 123.665 378.305 123.666zM395.325 123.666L395.325 97.351 393.126 97.351 393.126 91.109 404.404 91.109 404.404 123.665 395.325 123.665 395.325 123.666zM393.765 80.329C393.765 76.995 396.46 74.228 399.865 74.228 403.199 74.228 405.965 76.994 405.965 80.329 405.965 83.733 403.199 86.428 399.865 86.428 396.46 86.428 393.765 83.733 393.765 80.329L393.765 80.329zM437.597 119.481C436.533 120.545 435.327 121.467 434.051 122.176 428.731 125.226 422.277 125.226 416.957 122.176 411.708 119.126 408.445 113.523 408.445 107.423 408.445 101.324 411.708 95.721 416.957 92.67 422.276 89.62 428.731 89.62 434.051 92.67 435.327 93.45 436.533 94.302 437.597 95.366L431.639 101.253C431.142 100.544 430.575 99.906 429.795 99.409 427.384 97.778 423.624 97.778 421.213 99.409 418.801 101.041 417.667 104.091 417.667 107.424 417.667 110.758 418.802 113.808 421.213 115.439 423.625 117.141 427.384 117.141 429.795 115.439 430.576 114.943 431.143 114.305 431.639 113.595L437.597 119.481 437.597 119.481z"/>
      <polygon fill="#FFFFFF" points="471.144 123.666 460.717 123.666 454.263 110.898 451.001 110.898 451.001 123.666 441.922 123.666 441.922 80.47 439.723 80.47 439.723 74.228 451.001 74.228 451.001 101.748 452.277 101.748 460.717 91.109 472.846 91.109 461.214 105.508"/>
      <polygon fill="#FFFFFF" points="477.525 123.666 477.525 80.541 475.326 80.541 475.326 74.229 486.604 74.229 486.604 123.667 477.525 123.667"/>
      <polygon fill="#FFFFFF" points="494.405 137 501.994 117.637 488.73 91.11 499.085 91.11 506.603 108.7 512.845 91.11 523.2 91.11 503.413 137"/>
      <path fill="#FFFFFF" d="M524.617,118.062 C524.617,114.728 527.596,111.678 531.001,111.678 C534.335,111.678 537.384,114.728 537.384,118.062 C537.384,121.466 534.334,124.445 531.001,124.445 C527.596,124.446 524.617,121.467 524.617,118.062 L524.617,118.062 Z"/>
    </g>
  </g>
</svg>
