<?xml version="1.0" encoding="utf-8"?>
<!-- Generator: Adobe Illustrator 17.1.0, SVG Export Plug-In . SVG Version: 6.00 Build 0)  -->
<!DOCTYPE svg PUBLIC "-//W3C//DTD SVG 1.1//EN" "http://www.w3.org/Graphics/SVG/1.1/DTD/svg11.dtd">
<svg version="1.1" id="Layer_1" xmlns="http://www.w3.org/2000/svg" xmlns:xlink="http://www.w3.org/1999/xlink" x="0px" y="0px"
	 viewBox="0 0 662.284 480" enable-background="new 0 0 662.284 480" xml:space="preserve">
<g>
	<path fill="#FFFFFF" d="M44.401,30.215V48.16H44.33l0.071,0.071c-4.61,4.539-10.994,7.448-18.016,7.448
		c-14.044,0-25.463-11.419-25.463-25.463S12.341,4.752,26.385,4.752c7.022,0,13.406,2.837,18.016,7.448l-7.305,7.234
		c-0.78-0.851-1.702-1.702-2.766-2.34c-4.468-2.695-11.419-2.695-15.817,0c-4.468,2.695-6.525,7.731-6.525,13.122
		s2.057,10.426,6.525,13.122c4.397,2.695,11.278,2.695,15.746,0V30.215H44.401z"/>
	<path fill="#FFFFFF" d="M50.143,54.756V11.632h-2.199V5.32h11.278v49.437H50.143z"/>
	<path fill="#FFFFFF" d="M65.321,54.756V28.442h-2.199V22.2h11.278v32.556H65.321z M63.76,11.419c0-3.334,2.695-6.1,6.1-6.1
		c3.334,0,6.1,2.766,6.1,6.1c0,3.405-2.766,6.1-6.1,6.1C66.455,17.519,63.76,14.824,63.76,11.419z"/>
	<path fill="#FFFFFF" d="M90.073,25.534c0.78-0.709,1.56-1.418,2.412-1.986c4.539-2.979,10.143-2.979,14.753,0
		c4.539,3.05,7.377,8.653,7.377,14.753c0,6.1-2.837,11.703-7.377,14.753c-4.61,3.05-10.214,3.05-14.753,0
		c-0.851-0.568-1.631-1.206-2.412-1.986v3.688h-9.079V6.242h-2.199V0h11.278V25.534z M90.073,39.932
		c0.284,2.695,1.419,5.107,3.405,6.454c2.411,1.631,6.171,1.631,8.511,0c2.412-1.631,3.476-4.61,3.476-7.873
		c0-3.263-1.064-6.312-3.476-7.944c-2.341-1.631-6.1-1.631-8.511,0c-1.986,1.418-3.121,3.759-3.405,6.525V39.932z"/>
	<path d="M138.513,68.091V28.442h-2.128V22.2h11.278v45.891H138.513z M137.023,11.419c0-3.334,2.695-6.1,6.029-6.1
		c3.405,0,6.1,2.766,6.1,6.1c0,3.334-2.695,6.1-6.1,6.1C139.719,17.519,137.023,14.753,137.023,11.419z"/>
	<path d="M185.607,38.372c0,6.1-3.192,11.703-8.511,14.753c-5.249,3.05-11.703,3.05-16.952,0c-5.32-3.05-8.512-8.653-8.512-14.753
		c0-6.029,3.192-11.703,8.512-14.753c5.249-2.979,11.703-2.979,16.952,0C182.415,26.669,185.607,32.343,185.607,38.372z
		 M172.911,30.357c-2.412-1.631-6.171-1.631-8.582,0c-2.412,1.702-3.547,4.752-3.547,8.015c0,3.334,1.135,6.383,3.547,8.015
		c2.411,1.631,6.171,1.631,8.582,0s3.547-4.681,3.547-8.015C176.457,35.109,175.322,32.059,172.911,30.357z"/>
	<path d="M216.884,50.572c-1.065,1.064-2.27,1.986-3.547,2.695c-5.319,3.05-11.774,3.05-17.093,0
		c-5.249-3.05-8.512-8.653-8.512-14.753s3.263-11.703,8.512-14.753c5.32-3.05,11.774-3.05,17.093,0
		c1.277,0.78,2.482,1.631,3.547,2.695l-5.959,5.887c-0.496-0.709-1.064-1.347-1.844-1.844c-2.412-1.631-6.171-1.631-8.582,0
		c-2.412,1.631-3.547,4.681-3.547,8.015s1.135,6.383,3.547,8.015c2.412,1.702,6.171,1.702,8.582,0
		c0.78-0.497,1.348-1.135,1.844-1.844L216.884,50.572z"/>
	<path d="M250.43,54.756h-10.427l-6.454-12.767h-3.262v12.767h-9.079V11.561h-2.199V5.32h11.278v27.52h1.276l8.44-10.639h12.129
		L240.5,36.599L250.43,54.756z"/>
	<path d="M274.827,32.272c-2.412-2.624-6.525-3.546-8.937-2.908c-1.702,0.426-2.412,2.057-1.49,3.334
		c1.206,1.631,5.675,1.986,9.575,4.327c7.944,4.752,7.164,13.831,0.071,17.094c-4.681,2.128-11.49,1.986-17.022-1.064
		c-1.418-0.851-3.76-2.199-4.823-3.405l4.539-6.171c0.993,1.135,3.83,2.624,5.603,3.476c3.334,1.418,8.299,2.057,9.008-0.851
		c0.567-2.341-3.334-3.476-6.1-4.327c-4.61-1.489-8.157-3.05-9.575-6.809c-1.56-4.326-0.213-10.639,7.377-12.909
		c3.829-1.135,7.589-0.567,10.284,0.355c2.98,1.064,4.894,2.695,6.242,4.185L274.827,32.272z"/>
	<path fill="#FFFFFF" d="M332.418,68.091h-8.724V49.933c-0.709,0.638-1.418,1.276-2.27,1.844c-4.327,2.908-9.717,2.908-14.115,0
		c-4.397-2.908-7.093-8.299-7.093-14.115c0-5.816,2.696-11.207,7.093-14.114c4.397-2.908,9.788-2.908,14.115,0
		c0.851,0.496,1.56,1.135,2.27,1.844V22.2h8.724V68.091z M323.694,36.457c-0.284-2.624-1.277-4.894-3.263-6.242
		c-2.27-1.56-5.816-1.56-8.157,0c-2.27,1.56-3.334,4.468-3.334,7.589c0,3.121,1.064,6.029,3.334,7.589
		c2.341,1.56,5.887,1.56,8.157,0c1.986-1.348,2.979-3.618,3.263-6.242V36.457z"/>
	<path fill="#FFFFFF" d="M358.446,54.756V49.72c-3.476,6.88-11.419,6.171-14.185,5.462c-4.823-1.277-8.299-5.674-8.299-14.115V22.2
		h9.008V38.94c0,4.894,1.915,8.228,6.809,8.228s6.667-4.114,6.667-8.724V22.2h9.149v26.385h2.128v6.171H358.446z"/>
	<path fill="#FFFFFF" d="M375.466,54.756V28.442h-2.199V22.2h11.278v32.556H375.466z M373.906,11.419c0-3.334,2.695-6.1,6.1-6.1
		c3.334,0,6.1,2.766,6.1,6.1c0,3.405-2.766,6.1-6.1,6.1C376.601,17.519,373.906,14.824,373.906,11.419z"/>
	<path fill="#FFFFFF" d="M421.497,45.678v9.079H387.38l15.817-23.406h-14.54V22.2h32.84l-17.094,23.477H421.497z"/>
	<path fill="#FFFFFF" d="M466.249,38.017c0-5.036-1.844-8.157-6.738-8.157c-4.965,0-6.738,3.972-6.738,8.582v16.314h-9.079V28.442
		h-2.199V22.2h11.278v5.036c3.546-6.951,11.561-6.171,14.185-5.462c4.823,1.206,8.37,5.674,8.37,14.115l0.071,18.867h-9.149V38.017z
		"/>
	<path fill="#FFFFFF" d="M482.844,68.091l7.589-19.363L477.17,22.2h10.355l7.518,17.59l6.242-17.59h10.355l-19.789,45.891H482.844z"
		/>
	<path fill="#FFFFFF" d="M559.514,38.017c0-4.965-1.844-8.086-6.738-8.086c-4.469,0-6.312,3.121-6.667,7.093v17.732h-9.079V38.017
		c0-4.965-1.774-8.086-6.738-8.086c-4.965,0-6.738,3.972-6.738,8.582v16.243h-9.079V28.371h-2.128V22.2h11.207v5.107
		c3.547-6.951,11.562-6.171,14.186-5.533c2.979,0.78,5.461,2.766,6.88,6.1c5.745-7.944,12.98-6.738,15.604-6.1
		c4.823,1.277,8.299,5.745,8.299,14.115l0.071,18.867h-9.079V38.017z"/>
	<path fill="#FFFFFF" d="M583.413,25.534c0.709-0.709,1.489-1.347,2.34-1.915c4.539-3.05,10.214-3.05,14.753,0
		c4.539,3.05,7.376,8.653,7.376,14.753c0,6.029-2.837,11.632-7.376,14.682c-4.539,3.05-10.214,3.05-14.753,0
		c-0.851-0.568-1.631-1.206-2.34-1.915v16.952h-9.15V28.442h-2.128V22.2h11.278V25.534z M583.413,39.932
		c0.283,2.695,1.347,5.107,3.404,6.525c2.341,1.631,6.1,1.631,8.512,0c2.34-1.631,3.476-4.681,3.476-7.944
		c0-3.263-1.135-6.312-3.476-7.944c-2.412-1.631-6.17-1.631-8.512,0c-2.057,1.418-3.121,3.83-3.404,6.525V39.932z"/>
	<path fill="#FFFFFF" d="M636.181,38.017c0-5.036-1.773-8.157-6.738-8.157c-4.965,0-6.738,3.972-6.738,8.582v16.314h-9.079V6.242
		h-2.199V0h11.278v27.236c3.546-6.951,11.561-6.171,14.185-5.533c4.894,1.277,8.37,5.745,8.37,14.115l0.071,18.938h-9.149V38.017z"
		/>
	<path fill="#FFFFFF" d="M14.895,99.544v23.477H5.816V99.544H0.922v-9.079h4.894V75.003h9.079v15.462h4.894v9.079H14.895z"/>
	<path fill="#FFFFFF" d="M55.89,106.636c0,6.1-3.192,11.703-8.511,14.753c-5.249,3.05-11.703,3.05-16.952,0
		c-5.32-3.05-8.512-8.653-8.512-14.753c0-6.029,3.192-11.703,8.512-14.753c5.249-2.979,11.703-2.979,16.952,0
		C52.698,94.933,55.89,100.608,55.89,106.636z M43.194,98.622c-2.412-1.631-6.171-1.631-8.582,0
		c-2.412,1.702-3.547,4.752-3.547,8.015c0,3.334,1.135,6.383,3.547,8.015c2.411,1.631,6.171,1.631,8.582,0
		c2.412-1.631,3.547-4.681,3.547-8.015C46.74,103.374,45.606,100.324,43.194,98.622z"/>
	<path fill="#FFFFFF" d="M90.003,123.021L75.179,90.465h11.916l6.171,21.208l6.171-21.208h11.987l-14.824,32.556H90.003z"/>
	<path fill="#FFFFFF" d="M122.486,109.615c0.213,1.915,1.489,4.114,3.05,5.178c2.482,1.702,6.242,1.702,8.653,0
		c0.709-0.497,1.489-0.922,1.986-1.631l5.745,5.674c-1.064,1.064-2.199,1.986-3.546,2.766c-5.249,2.979-11.774,2.979-17.023,0
		c-5.249-3.05-8.512-8.724-8.512-14.824c0-6.1,3.263-11.703,8.512-14.753c5.249-3.05,11.774-3.05,17.023,0
		c5.32,3.05,8.157,8.228,7.518,17.59H122.486z M137.38,104.012c-0.496-2.128-1.489-4.114-3.192-5.249
		c-2.412-1.631-6.171-1.631-8.653,0c-1.631,1.135-2.695,3.121-3.192,5.249H137.38z"/>
	<path fill="#FFFFFF" d="M181.921,123.021h-9.504l-7.589-10.001l-7.66,10.001h-9.433l11.561-17.306l-11.561-15.25h12.342
		l4.752,7.022l4.681-7.022h12.412l-11.632,15.25L181.921,123.021z"/>
	<path fill="#FFFFFF" d="M226.815,123.021v-3.688c-0.781,0.709-1.56,1.418-2.412,1.986c-4.539,2.979-10.143,2.979-14.753,0
		c-4.539-3.05-7.376-8.654-7.376-14.753c0-6.1,2.837-11.703,7.376-14.753c4.611-3.05,10.214-3.05,14.753,0
		c0.851,0.567,1.631,1.205,2.412,1.986V74.506h-2.199v-6.242h11.278v54.756H226.815z M226.815,105.289
		c-0.284-2.695-1.418-5.107-3.405-6.454c-2.412-1.631-6.171-1.631-8.512,0c-2.411,1.631-3.475,4.61-3.475,7.873
		c0,3.263,1.064,6.312,3.475,7.944c2.341,1.631,6.1,1.631,8.512,0c1.986-1.418,3.121-3.83,3.405-6.525V105.289z"/>
	<path fill="#FFFFFF" d="M278.093,123.021h-6.313l-7.022-19.86l-7.022,19.86h-6.242l-13.831-32.556h11.348l5.461,21.208l5.32-22.059
		h9.93l5.391,22.059l5.39-21.208h11.348L278.093,123.021z"/>
	<path fill="#FFFFFF" d="M326.816,123.021h-9.079v-3.617c-0.709,0.709-1.489,1.347-2.34,1.915c-4.61,3.05-10.214,3.05-14.753,0
		c-4.61-3.05-7.376-8.654-7.376-14.753c0-6.029,2.766-11.632,7.376-14.682c4.539-3.05,10.143-3.05,14.753,0
		c0.851,0.568,1.631,1.206,2.34,1.915v-3.334h9.079V123.021z M317.737,105.36c-0.283-2.695-1.347-5.107-3.404-6.525
		c-2.412-1.631-6.1-1.631-8.512,0c-2.412,1.631-3.476,4.681-3.476,7.944c0,3.263,1.064,6.312,3.476,7.944
		c2.412,1.631,6.1,1.631,8.512,0c2.057-1.418,3.121-3.83,3.404-6.525V105.36z"/>
	<path fill="#FFFFFF" d="M341.709,95.572c3.547-6.951,11.561-6.313,14.185-5.604c0.923,0.213,1.702,0.639,2.483,1.064l-5.462,8.511
		c-1.064-0.922-2.553-1.418-4.468-1.418c-4.965,0-6.738,3.972-6.738,8.582v16.314h-9.079V96.707h-2.27v-6.242h11.348V95.572z"/>
	<path fill="#FFFFFF" d="M362.417,85.004c0.284-8.512,4.681-11.987,9.859-11.916c6.242,0.071,8.653,3.901,8.653,3.901l-3.546,6.029
		c-1.064-1.135-2.908-1.773-4.539-0.851c-1.631,0.922-1.56,4.61-1.56,4.61v4.468h4.752v8.866h-4.752v22.91h-8.866v-22.91h-4.752
		v-8.866h4.752V85.004z"/>
	<path fill="#FFFFFF" d="M381.991,117.418c0-3.334,2.979-6.383,6.384-6.383c3.334,0,6.383,3.05,6.383,6.383
		c0,3.405-3.05,6.383-6.383,6.383C384.97,123.801,381.991,120.822,381.991,117.418z"/>
</g>
<g>
	<path fill="#FFFFFF" d="M13.193,195.821h17.803v9.291H13.193v17.377H3.334v-40.074H0.922v-9.362h33.62v9.362H13.193V195.821z"/>
	<path fill="#FFFFFF" d="M39.575,222.49v-26.314h-2.199v-6.242h11.278v32.556H39.575z M38.015,179.153c0-3.334,2.695-6.1,6.1-6.1
		c3.334,0,6.1,2.766,6.1,6.1c0,3.405-2.766,6.1-6.1,6.1C40.71,185.252,38.015,182.557,38.015,179.153z"/>
	<path fill="#FFFFFF" d="M66.455,222.49l-14.824-32.556h11.916l6.171,21.208l6.171-21.208h11.987L73.052,222.49H66.455z"/>
	<path fill="#FFFFFF" d="M98.938,209.084c0.213,1.915,1.489,4.114,3.05,5.178c2.482,1.702,6.242,1.702,8.653,0
		c0.709-0.497,1.489-0.922,1.986-1.631l5.745,5.674c-1.064,1.064-2.199,1.986-3.546,2.766c-5.249,2.979-11.774,2.979-17.023,0
		c-5.249-3.05-8.512-8.724-8.512-14.824c0-6.1,3.263-11.703,8.512-14.753c5.249-3.05,11.774-3.05,17.023,0
		c5.32,3.05,8.157,8.228,7.518,17.59H98.938z M113.833,203.481c-0.496-2.128-1.489-4.114-3.192-5.249
		c-2.412-1.631-6.171-1.631-8.653,0c-1.631,1.135-2.695,3.121-3.192,5.249H113.833z"/>
	<path fill="#FFFFFF" d="M176.033,235.824h-8.724v-18.158c-0.709,0.638-1.418,1.277-2.27,1.844c-4.326,2.908-9.717,2.908-14.114,0
		c-4.398-2.908-7.093-8.299-7.093-14.115c0-5.816,2.695-11.207,7.093-14.114c4.397-2.908,9.788-2.908,14.114,0
		c0.851,0.496,1.56,1.135,2.27,1.844v-3.192h8.724V235.824z M167.309,204.19c-0.284-2.624-1.277-4.894-3.263-6.242
		c-2.27-1.56-5.816-1.56-8.157,0c-2.27,1.56-3.334,4.468-3.334,7.589s1.064,6.029,3.334,7.589c2.34,1.56,5.887,1.56,8.157,0
		c1.986-1.348,2.979-3.618,3.263-6.242V204.19z"/>
	<path fill="#FFFFFF" d="M202.061,222.49v-5.036c-3.475,6.88-11.419,6.171-14.185,5.462c-4.823-1.277-8.299-5.674-8.299-14.115
		v-18.867h9.008v16.739c0,4.894,1.915,8.228,6.809,8.228c4.894,0,6.667-4.114,6.667-8.724v-16.243h9.15v26.385h2.128v6.171H202.061z
		"/>
	<path fill="#FFFFFF" d="M250.076,222.49h-9.079v-3.617c-0.709,0.709-1.489,1.347-2.34,1.915c-4.611,3.05-10.214,3.05-14.753,0
		c-4.61-3.05-7.376-8.654-7.376-14.753c0-6.029,2.766-11.632,7.376-14.682c4.539-3.05,10.143-3.05,14.753,0
		c0.851,0.568,1.631,1.206,2.34,1.915v-3.334h9.079V222.49z M240.998,204.829c-0.283-2.695-1.347-5.107-3.404-6.525
		c-2.412-1.631-6.1-1.631-8.512,0s-3.476,4.681-3.476,7.944c0,3.263,1.064,6.312,3.476,7.944s6.1,1.631,8.512,0
		c2.057-1.418,3.121-3.83,3.404-6.525V204.829z"/>
	<path fill="#FFFFFF" d="M282.063,218.305c-1.064,1.064-2.27,1.986-3.546,2.695c-5.32,3.05-11.774,3.05-17.094,0
		c-5.249-3.05-8.512-8.653-8.512-14.753c0-6.1,3.263-11.703,8.512-14.753c5.319-3.05,11.774-3.05,17.094,0
		c1.276,0.78,2.482,1.631,3.546,2.695l-5.958,5.887c-0.497-0.709-1.064-1.347-1.844-1.844c-2.411-1.631-6.171-1.631-8.582,0
		s-3.546,4.681-3.546,8.015s1.134,6.383,3.546,8.015c2.412,1.702,6.171,1.702,8.582,0c0.781-0.497,1.348-1.135,1.844-1.844
		L282.063,218.305z"/>
	<path fill="#FFFFFF" d="M315.61,222.49h-10.427l-6.454-12.767h-3.262v12.767h-9.079v-43.195h-2.199v-6.242h11.278v27.52h1.276
		l8.44-10.639h12.129l-11.632,14.398L315.61,222.49z"/>
	<path fill="#FFFFFF" d="M321.991,222.49v-26.314h-2.199v-6.242h11.278v32.556H321.991z M320.43,179.153c0-3.334,2.695-6.1,6.1-6.1
		c3.334,0,6.1,2.766,6.1,6.1c0,3.405-2.766,6.1-6.1,6.1C323.125,185.252,320.43,182.557,320.43,179.153z"/>
	<path fill="#FFFFFF" d="M360.574,205.75c0-5.036-1.844-8.157-6.738-8.157c-4.965,0-6.738,3.972-6.738,8.582v16.314h-9.079v-26.314
		h-2.199v-6.242h11.278v5.036c3.546-6.951,11.561-6.171,14.185-5.462c4.823,1.206,8.37,5.674,8.37,14.115l0.071,18.867h-9.149
		V205.75z"/>
	<path fill="#FFFFFF" d="M407.03,219.085c0,24.329-29.081,17.165-32.272,13.051l3.971-7.164c1.065,0.426,5.32,3.547,12.626,2.695
		c3.05-0.355,6.525-2.553,6.525-8.44v-0.497c-0.709,0.78-1.56,1.489-2.412,2.057c-4.61,3.05-10.213,3.05-14.753,0
		c-4.611-3.05-7.448-8.654-7.448-14.753c0-6.1,2.837-11.703,7.448-14.753c4.539-3.05,10.143-3.05,14.753,0
		c0.851,0.567,1.702,1.276,2.412,2.057v-3.405h9.15V219.085z M397.88,206.247c0-3.334-1.064-6.312-3.476-7.944s-6.1-1.631-8.512,0
		c-2.411,1.631-3.475,4.61-3.475,7.944c0,3.263,1.064,6.242,3.475,7.873c2.412,1.631,6.1,1.631,8.512,0
		S397.88,209.51,397.88,206.247z"/>
	<path d="M461.003,213.411v9.079h-34.117l15.817-23.406h-14.54v-9.15h32.84l-17.094,23.477H461.003z"/>
	<path d="M472.064,209.084c0.213,1.915,1.49,4.114,3.05,5.178c2.482,1.702,6.242,1.702,8.653,0c0.709-0.497,1.49-0.922,1.986-1.631
		l5.745,5.674c-1.064,1.064-2.199,1.986-3.547,2.766c-5.249,2.979-11.774,2.979-17.022,0c-5.249-3.05-8.512-8.724-8.512-14.824
		c0-6.1,3.263-11.703,8.512-14.753c5.249-3.05,11.774-3.05,17.022,0c5.32,3.05,8.157,8.228,7.518,17.59H472.064z M486.96,203.481
		c-0.497-2.128-1.49-4.114-3.192-5.249c-2.411-1.631-6.171-1.631-8.653,0c-1.631,1.135-2.696,3.121-3.192,5.249H486.96z"/>
	<path d="M510.009,193.267c0.709-0.709,1.489-1.347,2.34-1.915c4.539-3.05,10.214-3.05,14.753,0
		c4.539,3.05,7.376,8.653,7.376,14.753c0,6.029-2.837,11.632-7.376,14.682c-4.539,3.05-10.214,3.05-14.753,0
		c-0.851-0.568-1.631-1.206-2.34-1.915v16.952h-9.15v-39.649h-2.128v-6.242h11.278V193.267z M510.009,207.665
		c0.283,2.695,1.348,5.107,3.404,6.525c2.341,1.631,6.1,1.631,8.512,0c2.34-1.631,3.476-4.681,3.476-7.944
		c0-3.263-1.135-6.312-3.476-7.944c-2.412-1.631-6.171-1.631-8.512,0c-2.056,1.418-3.121,3.83-3.404,6.525V207.665z"/>
	<path d="M562.777,205.75c0-5.036-1.773-8.157-6.738-8.157c-4.965,0-6.738,3.972-6.738,8.582v16.314h-9.079v-48.515h-2.199v-6.242
		h11.278v27.236c3.546-6.951,11.561-6.171,14.185-5.533c4.894,1.277,8.37,5.745,8.37,14.115l0.071,18.938h-9.149V205.75z"/>
	<path d="M579.372,235.824l7.589-19.363l-13.264-26.527h10.355l7.518,17.59l6.242-17.59h10.355l-19.789,45.891H579.372z"/>
	<path d="M620.223,195.04c3.547-6.951,11.561-6.313,14.185-5.604c0.923,0.213,1.702,0.639,2.483,1.064l-5.462,8.511
		c-1.064-0.922-2.553-1.418-4.468-1.418c-4.965,0-6.738,3.972-6.738,8.582v16.314h-9.079v-26.314h-2.27v-6.242h11.349V195.04z"/>
	<path d="M657.458,200.005c-2.412-2.624-6.525-3.546-8.937-2.908c-1.702,0.426-2.412,2.057-1.49,3.334
		c1.206,1.631,5.675,1.986,9.575,4.327c7.944,4.752,7.164,13.831,0.071,17.094c-4.681,2.128-11.49,1.986-17.022-1.064
		c-1.418-0.851-3.76-2.199-4.823-3.405l4.539-6.171c0.993,1.135,3.83,2.624,5.603,3.476c3.334,1.418,8.299,2.057,9.008-0.851
		c0.567-2.341-3.334-3.476-6.1-4.327c-4.61-1.489-8.157-3.05-9.575-6.809c-1.56-4.326-0.213-10.639,7.377-12.909
		c3.829-1.135,7.589-0.567,10.284,0.355c2.98,1.064,4.894,2.695,6.242,4.185L657.458,200.005z"/>
	<path fill="#FFFFFF" d="M3.759,304.089V264.44H1.631v-6.242h11.278v45.891H3.759z M2.27,247.417c0-3.334,2.695-6.1,6.029-6.1
		c3.405,0,6.1,2.766,6.1,6.1c0,3.333-2.695,6.099-6.1,6.099C4.965,253.517,2.27,250.75,2.27,247.417z"/>
	<path fill="#FFFFFF" d="M50.853,274.37c0,6.099-3.192,11.702-8.511,14.753c-5.249,3.05-11.703,3.05-16.952,0
		c-5.32-3.05-8.512-8.654-8.512-14.753c0-6.029,3.192-11.704,8.512-14.753c5.249-2.979,11.703-2.979,16.952,0
		C47.662,262.666,50.853,268.341,50.853,274.37z M38.157,266.355c-2.412-1.632-6.171-1.632-8.582,0
		c-2.412,1.702-3.547,4.752-3.547,8.015c0,3.334,1.135,6.383,3.547,8.015c2.411,1.631,6.171,1.631,8.582,0
		c2.412-1.632,3.547-4.681,3.547-8.015C41.704,271.107,40.569,268.057,38.157,266.355z"/>
	<path fill="#FFFFFF" d="M55.887,290.754v-43.125h-2.199v-6.312h11.278v49.437H55.887z"/>
	<path fill="#FFFFFF" d="M82.129,267.277v23.478H73.05v-23.478h-4.894v-9.079h4.894v-15.462h9.079v15.462h4.894v9.079H82.129z"/>
	<path fill="#FFFFFF" d="M155.254,274.015c0-4.965-1.844-8.086-6.738-8.086c-4.468,0-6.312,3.12-6.667,7.092v17.732h-9.079v-16.739
		c0-4.965-1.773-8.086-6.738-8.086c-4.965,0-6.738,3.971-6.738,8.581v16.243h-9.079v-26.386h-2.128v-6.171h11.207v5.107
		c3.546-6.951,11.561-6.171,14.185-5.533c2.979,0.781,5.462,2.766,6.88,6.101c5.745-7.944,12.98-6.738,15.604-6.101
		c4.823,1.277,8.299,5.746,8.299,14.115l0.071,18.867h-9.079V274.015z"/>
	<path fill="#FFFFFF" d="M171.776,304.089l7.589-19.363l-13.264-26.527h10.356l7.518,17.59l6.242-17.59h10.356l-19.789,45.891
		H171.776z"/>
	<path fill="#FFFFFF" d="M258.163,290.754h-6.313l-7.022-19.86l-7.022,19.86h-6.242l-13.831-32.556h11.349l5.461,21.207l5.32-22.058
		h9.93l5.391,22.058l5.39-21.207h11.349L258.163,290.754z"/>
	<path fill="#FFFFFF" d="M306.886,290.754h-9.079v-3.618c-0.709,0.709-1.489,1.347-2.34,1.915c-4.611,3.05-10.214,3.05-14.753,0
		c-4.61-3.05-7.376-8.654-7.376-14.753c0-6.029,2.766-11.632,7.376-14.682c4.539-3.05,10.143-3.05,14.753,0
		c0.851,0.567,1.631,1.206,2.34,1.915v-3.334h9.079V290.754z M297.807,273.093c-0.283-2.695-1.347-5.107-3.404-6.525
		c-2.412-1.631-6.1-1.631-8.512,0c-2.412,1.631-3.476,4.681-3.476,7.944c0,3.263,1.064,6.312,3.476,7.944s6.1,1.632,8.512,0
		c2.057-1.418,3.121-3.83,3.404-6.526V273.093z"/>
	<path fill="#FFFFFF" d="M343.199,290.754h-9.505l-7.589-10.001l-7.66,10.001h-9.433l11.561-17.307l-11.561-15.249h12.342
		l4.752,7.022l4.681-7.022h12.412l-11.632,15.249L343.199,290.754z"/>
	<path fill="#FFFFFF" d="M374.476,261.532c0.78-0.709,1.56-1.418,2.412-1.986c4.539-2.979,10.143-2.979,14.753,0
		c4.539,3.05,7.376,8.653,7.376,14.753s-2.837,11.703-7.376,14.753c-4.61,3.05-10.213,3.05-14.753,0
		c-0.851-0.568-1.632-1.206-2.412-1.986v3.689h-9.079v-48.515h-2.199v-6.242h11.278V261.532z M374.476,275.93
		c0.283,2.696,1.418,5.107,3.404,6.455c2.412,1.631,6.171,1.631,8.512,0c2.412-1.632,3.476-4.611,3.476-7.874
		c0-3.262-1.064-6.312-3.476-7.944c-2.34-1.631-6.1-1.631-8.512,0c-1.986,1.418-3.121,3.759-3.404,6.525V275.93z"/>
	<path fill="#FFFFFF" d="M411.852,277.348c0.213,1.916,1.49,4.114,3.05,5.178c2.482,1.702,6.242,1.702,8.653,0
		c0.71-0.496,1.49-0.922,1.986-1.631l5.745,5.675c-1.064,1.064-2.199,1.986-3.547,2.766c-5.249,2.978-11.774,2.978-17.022,0
		c-5.249-3.05-8.512-8.724-8.512-14.825c0-6.099,3.263-11.702,8.512-14.753c5.249-3.05,11.774-3.05,17.022,0
		c5.32,3.05,8.157,8.228,7.518,17.59H411.852z M426.747,271.745c-0.497-2.128-1.49-4.113-3.192-5.249
		c-2.411-1.631-6.171-1.631-8.653,0c-1.631,1.135-2.696,3.121-3.192,5.249H426.747z"/>
	<path fill="#FFFFFF" d="M463.06,290.754v-3.689c-0.781,0.709-1.56,1.418-2.412,1.986c-4.539,2.979-10.143,2.979-14.753,0
		c-4.539-3.05-7.376-8.654-7.376-14.753s2.837-11.703,7.376-14.753c4.611-3.05,10.214-3.05,14.753,0
		c0.851,0.567,1.631,1.206,2.412,1.986v-19.292h-2.199v-6.242h11.278v54.757H463.06z M463.06,273.022
		c-0.284-2.696-1.418-5.107-3.405-6.454c-2.412-1.631-6.171-1.631-8.512,0c-2.411,1.631-3.475,4.611-3.475,7.873
		c0,3.263,1.064,6.312,3.475,7.944c2.341,1.631,6.1,1.631,8.512,0c1.986-1.418,3.121-3.83,3.405-6.526V273.022z"/>
	<path fill="#FFFFFF" d="M476.392,285.151c0-3.334,2.979-6.384,6.384-6.384c3.334,0,6.383,3.05,6.383,6.384
		c0,3.404-3.05,6.383-6.383,6.383C479.371,291.534,476.392,288.555,476.392,285.151z"/>
</g>
<g>
	<path fill="#FFFFFF" d="M24.825,358.539v39.862h-9.859v-39.862H0v-9.575h39.72v9.575H24.825z"/>
	<path fill="#FFFFFF" d="M66.385,381.662c0-5.036-1.773-8.157-6.738-8.157s-6.738,3.972-6.738,8.582v16.314H43.83v-48.515h-2.199
		v-6.242h11.278v27.236c3.546-6.951,11.561-6.171,14.185-5.533c4.894,1.277,8.37,5.745,8.37,14.115l0.071,18.938h-9.15V381.662z"/>
	<path fill="#FFFFFF" d="M88.37,384.995c0.213,1.916,1.489,4.114,3.05,5.178c2.482,1.702,6.242,1.702,8.653,0
		c0.709-0.496,1.489-0.922,1.986-1.631l5.745,5.675c-1.064,1.064-2.199,1.986-3.546,2.766c-5.249,2.978-11.774,2.978-17.023,0
		c-5.249-3.05-8.512-8.724-8.512-14.825c0-6.099,3.263-11.702,8.512-14.753c5.249-3.05,11.774-3.05,17.023,0
		c5.32,3.05,8.157,8.228,7.518,17.59H88.37z M103.265,379.392c-0.496-2.128-1.489-4.113-3.192-5.249
		c-2.412-1.631-6.171-1.631-8.653,0c-1.631,1.135-2.695,3.121-3.192,5.249H103.265z"/>
	<path fill="#FFFFFF" d="M136.953,360.384c0.284-8.512,4.681-11.987,9.859-11.916c6.242,0.071,8.653,3.901,8.653,3.901l-3.547,6.029
		c-1.064-1.134-2.908-1.773-4.539-0.851c-1.631,0.922-1.56,4.61-1.56,4.61v4.469h4.752v8.865h-4.752v22.91h-8.866v-22.91H132.2
		v-8.865h4.752V360.384z"/>
	<path fill="#FFFFFF" d="M158.016,398.401v-26.315h-2.199v-6.242h11.278v32.556H158.016z M156.456,355.064
		c0-3.334,2.695-6.101,6.1-6.101c3.334,0,6.1,2.766,6.1,6.101c0,3.404-2.766,6.099-6.1,6.099
		C159.151,361.163,156.456,358.469,156.456,355.064z"/>
	<path fill="#FFFFFF" d="M184.896,398.401l-14.824-32.556h11.916l6.171,21.207l6.171-21.207h11.987l-14.824,32.556H184.896z"/>
	<path fill="#FFFFFF" d="M217.379,384.995c0.213,1.916,1.49,4.114,3.05,5.178c2.482,1.702,6.242,1.702,8.653,0
		c0.709-0.496,1.49-0.922,1.986-1.631l5.745,5.675c-1.064,1.064-2.199,1.986-3.547,2.766c-5.249,2.978-11.774,2.978-17.022,0
		c-5.249-3.05-8.512-8.724-8.512-14.825c0-6.099,3.263-11.702,8.512-14.753c5.249-3.05,11.774-3.05,17.022,0
		c5.32,3.05,8.157,8.228,7.518,17.59H217.379z M232.274,379.392c-0.497-2.128-1.49-4.113-3.192-5.249
		c-2.411-1.631-6.171-1.631-8.653,0c-1.631,1.135-2.696,3.121-3.192,5.249H232.274z"/>
	<path fill="#FFFFFF" d="M273.197,369.178c0.78-0.709,1.56-1.418,2.412-1.986c4.539-2.979,10.143-2.979,14.753,0
		c4.539,3.05,7.376,8.653,7.376,14.753c0,6.1-2.837,11.703-7.376,14.753c-4.61,3.05-10.213,3.05-14.753,0
		c-0.851-0.568-1.632-1.206-2.412-1.986v3.689h-9.079v-48.515h-2.199v-6.242h11.278V369.178z M273.197,383.577
		c0.283,2.696,1.418,5.107,3.404,6.455c2.412,1.631,6.171,1.631,8.512,0c2.412-1.632,3.476-4.611,3.476-7.874
		c0-3.262-1.064-6.312-3.476-7.944c-2.34-1.631-6.1-1.631-8.512,0c-1.986,1.418-3.121,3.759-3.404,6.525V383.577z"/>
	<path fill="#FFFFFF" d="M334.547,382.017c0,6.099-3.192,11.702-8.512,14.753c-5.249,3.05-11.703,3.05-16.952,0
		c-5.32-3.05-8.512-8.654-8.512-14.753c0-6.029,3.192-11.704,8.512-14.753c5.249-2.979,11.703-2.979,16.952,0
		C331.355,370.313,334.547,375.988,334.547,382.017z M321.851,374.002c-2.412-1.632-6.171-1.632-8.582,0
		c-2.412,1.702-3.546,4.752-3.546,8.015c0,3.334,1.135,6.383,3.546,8.015c2.412,1.631,6.171,1.631,8.582,0
		c2.412-1.632,3.546-4.681,3.546-8.015C325.397,378.754,324.262,375.704,321.851,374.002z"/>
	<path fill="#FFFFFF" d="M370.15,398.401h-9.505l-7.589-10.001l-7.66,10.001h-9.433l11.561-17.307l-11.561-15.249h12.342
		l4.752,7.022l4.681-7.022h12.412l-11.632,15.249L370.15,398.401z"/>
	<path fill="#FFFFFF" d="M374.475,398.401v-26.315h-2.199v-6.242h11.278v32.556H374.475z M372.914,355.064
		c0-3.334,2.695-6.101,6.1-6.101c3.334,0,6.1,2.766,6.1,6.101c0,3.404-2.766,6.099-6.1,6.099
		C375.609,361.163,372.914,358.469,372.914,355.064z"/>
	<path fill="#FFFFFF" d="M413.058,381.662c0-5.036-1.844-8.157-6.738-8.157c-4.965,0-6.738,3.972-6.738,8.582v16.314h-9.079v-26.315
		h-2.199v-6.242h11.278v5.036c3.546-6.951,11.561-6.171,14.185-5.462c4.823,1.207,8.37,5.675,8.37,14.116l0.071,18.867h-9.149
		V381.662z"/>
	<path fill="#FFFFFF" d="M459.514,394.996c0,24.329-29.081,17.164-32.272,13.051l3.971-7.164c1.065,0.425,5.32,3.546,12.626,2.695
		c3.05-0.355,6.525-2.554,6.525-8.44v-0.497c-0.709,0.78-1.56,1.489-2.412,2.057c-4.61,3.05-10.213,3.05-14.753,0
		c-4.611-3.05-7.448-8.654-7.448-14.753c0-6.1,2.837-11.703,7.448-14.753c4.539-3.05,10.143-3.05,14.753,0
		c0.851,0.567,1.702,1.276,2.412,2.056v-3.404h9.15V394.996z M450.364,382.158c0-3.333-1.064-6.312-3.476-7.944s-6.1-1.631-8.511,0
		c-2.412,1.631-3.476,4.611-3.476,7.944c0,3.263,1.064,6.242,3.476,7.874c2.411,1.631,6.099,1.631,8.511,0
		C449.3,388.4,450.364,385.421,450.364,382.158z"/>
	<path fill="#FFFFFF" d="M519.941,398.401h-6.313l-7.022-19.86l-7.022,19.86h-6.242l-13.831-32.556h11.349l5.461,21.207l5.32-22.058
		h9.93l5.391,22.058l5.39-21.207h11.348L519.941,398.401z"/>
	<path fill="#FFFFFF" d="M537.669,398.401v-26.315h-2.199v-6.242h11.278v32.556H537.669z M536.108,355.064
		c0-3.334,2.695-6.101,6.1-6.101c3.334,0,6.1,2.766,6.1,6.101c0,3.404-2.766,6.099-6.1,6.099
		C538.803,361.163,536.108,358.469,536.108,355.064z"/>
	<path fill="#FFFFFF" d="M583.7,389.322v9.079h-34.117l15.817-23.406h-14.54v-9.15h32.84l-17.094,23.478H583.7z"/>
	<path fill="#FFFFFF" d="M606.749,376.13v9.93h-19.931v-9.93H606.749z"/>
	<path fill="#FFFFFF" d="M34.826,466.666h-9.079v-3.618c-0.71,0.709-1.489,1.347-2.341,1.915c-4.61,3.05-10.214,3.05-14.753,0
		c-4.61-3.05-7.377-8.654-7.377-14.753c0-6.029,2.766-11.632,7.377-14.682c4.539-3.05,10.143-3.05,14.753,0
		c0.851,0.567,1.631,1.206,2.341,1.915v-3.334h9.079V466.666z M25.747,449.004c-0.284-2.695-1.348-5.107-3.405-6.525
		c-2.412-1.631-6.1-1.631-8.512,0s-3.476,4.681-3.476,7.944c0,3.263,1.064,6.312,3.476,7.944s6.1,1.632,8.512,0
		c2.057-1.418,3.121-3.83,3.405-6.526V449.004z"/>
	<path fill="#FFFFFF" d="M49.718,439.216c3.547-6.951,11.561-6.312,14.186-5.603c0.922,0.213,1.702,0.639,2.482,1.064l-5.461,8.512
		c-1.064-0.922-2.553-1.418-4.468-1.418c-4.965,0-6.738,3.972-6.738,8.582v16.314h-9.079v-26.315h-2.27v-6.242h11.349V439.216z"/>
	<path fill="#FFFFFF" d="M91.28,466.666v-3.689c-0.78,0.709-1.56,1.418-2.412,1.986c-4.539,2.979-10.143,2.979-14.753,0
		c-4.539-3.05-7.377-8.654-7.377-14.753c0-6.1,2.837-11.703,7.377-14.753c4.61-3.05,10.214-3.05,14.753,0
		c0.851,0.567,1.631,1.206,2.412,1.986v-19.292h-2.199v-6.242h11.278v54.757H91.28z M91.28,448.933
		c-0.284-2.696-1.419-5.107-3.405-6.454c-2.411-1.631-6.171-1.631-8.511,0c-2.412,1.631-3.476,4.611-3.476,7.873
		c0,3.263,1.064,6.312,3.476,7.944c2.341,1.631,6.1,1.631,8.511,0c1.986-1.418,3.121-3.83,3.405-6.526V448.933z"/>
	<path fill="#FFFFFF" d="M124.117,444.181c-2.412-2.624-6.525-3.546-8.937-2.908c-1.702,0.425-2.412,2.057-1.49,3.334
		c1.206,1.631,5.675,1.986,9.575,4.327c7.944,4.752,7.164,13.831,0.071,17.094c-4.681,2.128-11.49,1.986-17.023-1.064
		c-1.418-0.851-3.759-2.199-4.823-3.405l4.539-6.171c0.993,1.135,3.83,2.624,5.603,3.476c3.334,1.418,8.299,2.056,9.008-0.851
		c0.568-2.341-3.334-3.476-6.1-4.327c-4.61-1.49-8.157-3.05-9.575-6.809c-1.56-4.326-0.213-10.639,7.376-12.909
		c3.83-1.135,7.589-0.567,10.285,0.355c2.979,1.064,4.894,2.696,6.242,4.185L124.117,444.181z"/>
	<path d="M151.634,480v-39.649h-2.128v-6.242h11.278V480H151.634z M150.144,423.329c0-3.334,2.695-6.101,6.029-6.101
		c3.405,0,6.1,2.766,6.1,6.101c0,3.333-2.695,6.099-6.1,6.099C152.839,429.428,150.144,426.662,150.144,423.329z"/>
	<path d="M187.947,466.666v-5.037c-3.476,6.88-11.419,6.171-14.186,5.462c-4.823-1.277-8.299-5.674-8.299-14.115v-18.867h9.008
		v16.739c0,4.894,1.915,8.228,6.809,8.228c4.894,0,6.667-4.114,6.667-8.724v-16.243h9.149v26.385h2.128v6.171H187.947z"/>
	<path d="M249.935,449.927c0-4.965-1.844-8.086-6.738-8.086c-4.469,0-6.312,3.12-6.667,7.092v17.732h-9.079v-16.739
		c0-4.965-1.774-8.086-6.738-8.086c-4.965,0-6.738,3.971-6.738,8.581v16.243h-9.079V440.28h-2.128v-6.171h11.207v5.107
		c3.547-6.951,11.562-6.171,14.186-5.533c2.979,0.781,5.461,2.766,6.88,6.101c5.745-7.944,12.98-6.738,15.604-6.101
		c4.823,1.277,8.299,5.746,8.299,14.115l0.071,18.867h-9.079V449.927z"/>
	<path d="M273.834,437.443c0.709-0.709,1.489-1.348,2.34-1.915c4.539-3.05,10.214-3.05,14.753,0s7.376,8.653,7.376,14.753
		c0,6.029-2.837,11.632-7.376,14.682c-4.539,3.05-10.214,3.05-14.753,0c-0.851-0.568-1.631-1.206-2.34-1.915V480h-9.15v-39.649
		h-2.128v-6.242h11.278V437.443z M273.834,451.841c0.283,2.696,1.348,5.107,3.404,6.526c2.341,1.632,6.1,1.632,8.512,0
		c2.34-1.632,3.476-4.681,3.476-7.944c0-3.262-1.135-6.312-3.476-7.944c-2.412-1.631-6.171-1.631-8.512,0
		c-2.056,1.418-3.121,3.83-3.404,6.525V451.841z"/>
	<path fill="#FFFFFF" d="M352.277,480h-8.724v-18.158c-0.709,0.639-1.418,1.276-2.27,1.844c-4.327,2.908-9.717,2.908-14.115,0
		c-4.397-2.908-7.093-8.298-7.093-14.114c0-5.817,2.696-11.207,7.093-14.115c4.397-2.908,9.788-2.908,14.115,0
		c0.851,0.497,1.56,1.135,2.27,1.844v-3.192h8.724V480z M343.553,448.365c-0.284-2.624-1.277-4.894-3.263-6.241
		c-2.27-1.56-5.816-1.56-8.157,0c-2.27,1.56-3.334,4.468-3.334,7.589s1.064,6.029,3.334,7.59c2.341,1.56,5.887,1.56,8.157,0
		c1.986-1.348,2.979-3.618,3.263-6.242V448.365z"/>
	<path fill="#FFFFFF" d="M378.305,466.666v-5.037c-3.476,6.88-11.419,6.171-14.185,5.462c-4.823-1.277-8.299-5.674-8.299-14.115
		v-18.867h9.008v16.739c0,4.894,1.915,8.228,6.809,8.228c4.894,0,6.667-4.114,6.667-8.724v-16.243h9.149v26.385h2.128v6.171H378.305
		z"/>
	<path fill="#FFFFFF" d="M395.325,466.666v-26.315h-2.199v-6.242h11.278v32.556H395.325z M393.765,423.329
		c0-3.334,2.695-6.101,6.1-6.101c3.334,0,6.1,2.766,6.1,6.101c0,3.404-2.766,6.099-6.1,6.099
		C396.46,429.428,393.765,426.733,393.765,423.329z"/>
	<path fill="#FFFFFF" d="M437.597,462.481c-1.064,1.064-2.27,1.986-3.546,2.695c-5.32,3.05-11.774,3.05-17.094,0
		c-5.249-3.05-8.512-8.653-8.512-14.753c0-6.099,3.263-11.702,8.512-14.753c5.319-3.05,11.774-3.05,17.094,0
		c1.276,0.78,2.482,1.632,3.546,2.696l-5.958,5.887c-0.497-0.709-1.064-1.347-1.844-1.844c-2.411-1.631-6.171-1.631-8.582,0
		c-2.412,1.632-3.546,4.682-3.546,8.015c0,3.334,1.135,6.384,3.546,8.015c2.412,1.702,6.171,1.702,8.582,0
		c0.781-0.496,1.348-1.134,1.844-1.844L437.597,462.481z"/>
	<path fill="#FFFFFF" d="M471.144,466.666h-10.427l-6.454-12.768h-3.262v12.768h-9.079V423.47h-2.199v-6.242h11.278v27.52h1.276
		l8.44-10.639h12.129l-11.632,14.399L471.144,466.666z"/>
	<path fill="#FFFFFF" d="M477.525,466.666v-43.125h-2.199v-6.312h11.278v49.438H477.525z"/>
	<path fill="#FFFFFF" d="M494.405,480l7.589-19.363l-13.264-26.527h10.355l7.518,17.59l6.242-17.59h10.355L503.413,480H494.405z"/>
	<path fill="#FFFFFF" d="M524.617,461.062c0-3.334,2.979-6.384,6.384-6.384c3.334,0,6.383,3.05,6.383,6.384
		c0,3.404-3.05,6.383-6.383,6.383C527.596,467.446,524.617,464.467,524.617,461.062z"/>
</g>
</svg>
