<?xml version="1.0" encoding="utf-8"?>
<!-- Generator: Adobe Illustrator 17.1.0, SVG Export Plug-In . SVG Version: 6.00 Build 0)  -->
<!DOCTYPE svg PUBLIC "-//W3C//DTD SVG 1.1//EN" "http://www.w3.org/Graphics/SVG/1.1/DTD/svg11.dtd">
<svg version="1.1" id="Layer_1" xmlns="http://www.w3.org/2000/svg" xmlns:xlink="http://www.w3.org/1999/xlink" x="0px" y="0px"
	 viewBox="0 0 70 37.17" enable-background="new 0 0 70 37.17" xml:space="preserve">
<g id="Logo_1_">
	<path d="M46.527,6.581c0.91,0,1.686-0.32,2.328-0.962c0.642-0.641,0.963-1.418,0.963-2.328c0-0.91-0.321-1.686-0.963-2.328
		C48.213,0.321,47.437,0,46.527,0c-0.91,0-1.687,0.321-2.329,0.963c-0.642,0.642-0.962,1.418-0.962,2.328
		c0,0.911,0.32,1.687,0.962,2.328C44.84,6.261,45.617,6.581,46.527,6.581z"/>
	<path d="M69.128,30.881c-0.25,1.41-0.82,2.66-1.711,3.748c-0.894,1.089-2.066,1.634-3.519,1.634c-0.415,0-0.841-0.065-1.277-0.193
		c-0.434-0.127-0.84-0.393-1.214-0.8c-0.373-0.407-0.675-0.983-0.903-1.73c-0.227-0.747-0.342-1.72-0.342-2.916V9.693h8.842V8.777
		h-8.842V0c-0.416,0.342-0.851,0.587-1.308,0.737c-0.457,0.15-0.997,0.224-1.62,0.224c-0.706,0-1.204-0.042-1.494-0.128
		c-0.291-0.085-0.602-0.193-0.934-0.321v8.265H38.211v0.916h5.646v26.543H40.4c-0.705,0-1.258-0.519-1.631-0.934
		c-0.372-0.415-0.558-1.224-0.558-2.428V17.37c0-1.121-0.165-2.189-0.497-3.207c-0.331-1.016-0.89-1.93-1.677-2.74
		c-0.786-0.809-1.821-1.452-3.104-1.929c-1.284-0.477-2.878-0.717-4.781-0.717c-1.574,0-2.971,0.187-4.191,0.561
		c-1.221,0.374-2.235,0.882-3.042,1.526c-0.807,0.644-1.419,1.38-1.832,2.21c-0.415,0.831-0.621,1.703-0.621,2.615
		c0,0.789,0.165,1.432,0.497,1.93c0.331,0.498,1.179,0.747,2.545,0.747c0.786,0,1.387-0.197,1.801-0.591
		c0.414-0.394,0.621-0.881,0.621-1.464c0-0.332-0.062-0.84-0.186-1.525c-0.124-0.684-0.186-1.38-0.186-2.085
		c0-1.079,0.445-1.858,1.335-2.335c0.89-0.477,2.018-0.716,3.384-0.716c1.034,0,1.863,0.146,2.483,0.436
		c0.621,0.291,1.096,0.715,1.428,1.276c0.331,0.561,0.559,1.236,0.683,2.023c0.124,0.79,0.186,1.681,0.186,2.678
		c0,1.245-0.093,2.232-0.28,2.958c-0.186,0.726-0.528,1.328-1.025,1.805c-0.496,0.478-1.19,0.883-2.08,1.214
		c-0.891,0.333-2.018,0.727-3.384,1.184c-1.159,0.373-2.308,0.727-3.447,1.059c-1.139,0.332-2.173,0.758-3.105,1.277
		c-0.931,0.519-1.687,1.213-2.266,2.086c-0.58,0.87-0.869,2.033-0.869,3.486c0,0.623,0.093,1.297,0.279,2.023
		c0.177,0.693,0.536,1.319,1.071,1.879c-0.838,0.826-1.887,1.239-3.148,1.239c-0.414,0-0.838-0.065-1.273-0.193
		c-0.434-0.127-0.924-0.393-1.297-0.8c-0.373-0.405-0.673-0.982-0.9-1.728c-0.228-0.748-0.342-1.719-0.342-2.915V9.693h8.903V8.777
		h-8.903V0.022c-0.414,0.342-0.849,0.588-1.304,0.737c-0.456,0.15-0.993,0.224-1.614,0.224c-0.705,0-1.201-0.042-1.49-0.128
		c-0.29-0.085-0.6-0.192-0.931-0.32v8.242H0v0.916h5.653v20.366c0,2.264,0.61,4.013,1.832,5.251c1.221,1.238,3.47,1.859,6.575,1.859
		c1.242,0,2.276-0.203,3.104-0.609c0.551-0.269,1.031-0.587,1.444-0.953c0.503,0.37,1.116,0.694,1.844,0.972
		c1.034,0.394,2.421,0.591,4.16,0.591c1.53,0,2.794-0.177,3.787-0.529c0.993-0.352,1.79-0.788,2.39-1.308
		c0.6-0.518,1.664-1.807,2.143-3.019l0,0c0.331,1.536,0.941,2.73,1.832,3.58c0.89,0.85,2.328,1.277,4.316,1.277
		c0.236,0,15.727-0.008,15.727-0.008v-0.926h-5.61V9.693h5.61v20.355c0,2.265,0.612,4.016,1.837,5.254
		c1.223,1.239,3.393,1.859,6.507,1.859c1.245,0,2.283-0.205,3.112-0.609c0.83-0.405,1.504-0.918,2.024-1.538
		c0.518-0.619,0.902-1.27,1.152-1.954c0.248-0.682,0.436-1.302,0.56-1.857L69.128,30.881z M32.871,27.27
		c0,0.831-0.072,1.755-0.217,2.77c-0.146,1.018-0.434,1.962-0.87,2.834c-0.435,0.87-1.076,1.597-1.924,2.179
		c-0.849,0.581-1.956,0.872-3.322,0.872c-0.953,0-1.729-0.165-2.329-0.498c-0.601-0.332-1.067-0.757-1.397-1.277
		c-0.332-0.518-0.559-1.11-0.683-1.775c-0.125-0.663-0.187-1.306-0.187-1.929c0-1.453,0.351-2.667,1.055-3.643
		c0.703-0.975,1.717-1.733,3.043-2.273l4.657-1.867c1.282-0.539,2.09-1.079,2.173-1.618l0,0V27.27z"/>
</g>
</svg>
