<svg xmlns="http://www.w3.org/2000/svg" width="100%" height="100%" viewBox="0 0 650 163">
  <g fill="#FFFFFF" fill-rule="evenodd">
    <path d="M20.848 129.84L31.622 100.712 41.796 129.84 20.848 129.84 20.848 129.84zM26.634 89.14L.1 158.968 10.074 158.968 17.856 137.62 44.39 137.62 51.972 158.968 61.748 158.968 36.21 89.14 26.634 89.14 26.634 89.14zM85.888 127.046C80.302 125.85 73.518 123.854 73.518 118.866 73.518 115.276 77.11 111.086 84.092 111.086 91.274 111.086 95.464 115.874 96.262 117.87L104.442 114.478C100.652 107.296 93.07 104.302 85.09 104.302 72.72 104.302 64.74 110.288 64.74 120.064 64.74 131.036 74.116 133.232 83.294 135.226 91.076 136.822 98.656 138.818 98.656 144.802 98.656 150.588 94.068 153.582 86.088 153.582 79.704 153.582 75.514 151.786 73.12 147.596L63.742 149.192C67.334 156.774 75.114 160.364 85.888 160.364 100.452 160.364 108.034 152.184 108.034 143.606 107.834 132.434 97.658 129.242 85.888 127.046M127.586 89.14L118.408 92.93 118.408 105.7 110.028 105.7 110.028 113.082 118.408 113.082 118.408 147.396C118.208 154.38 118.208 159.368 128.582 159.368 131.974 159.368 135.566 158.768 137.162 158.57L137.162 151.188C135.366 151.786 132.972 152.384 131.376 152.384 127.586 152.384 127.586 149.79 127.586 143.406L127.586 113.082 137.162 113.082 137.162 105.7 127.586 105.7 127.586 89.14M154.12 115.476L154.12 105.898 145.142 105.898 145.142 158.968 154.12 158.968 154.12 134.628C154.12 130.04 153.92 124.652 156.314 120.862 159.108 116.074 163.496 114.278 172.276 114.278L172.276 105.1C168.684 105.1 159.108 105.3 154.12 115.476"/>
    <polyline points="275.422 97.918 275.422 89.14 225.146 89.14 225.146 97.718 264.848 97.718 224.946 149.99 224.946 158.968 276.42 158.968 276.42 150.588 235.72 150.588 275.422 97.918"/>
    <path d="M357.82 104.502C354.626 104.502 346.248 105.3 341.26 113.88L341.26 106.098 332.282 106.098 332.282 158.968 341.26 158.968 341.26 128.842C341.26 124.852 341.26 120.862 345.25 116.872 348.042 114.078 351.434 112.882 355.424 112.882 360.214 112.882 365.2 115.076 366.796 120.264 367.396 122.058 367.396 123.656 367.396 129.042L367.396 159.168 376.374 159.168 376.374 127.646C376.374 123.256 376.374 119.864 375.376 116.672 372.582 107.894 364.402 104.502 357.82 104.502M457.972 110.488C465.354 110.488 468.746 114.478 470.342 118.068L478.722 114.678C473.534 106.098 464.356 104.104 457.574 104.104 440.616 103.904 432.436 117.67 432.436 132.632 432.436 145.6 439.618 160.166 458.372 160.166 469.344 160.166 475.33 154.978 478.722 149.592L470.742 146.2C468.946 149.79 465.354 153.182 458.572 153.182 452.586 153.182 442.41 149.392 442.41 131.834 442.41 127.246 443.208 110.488 457.972 110.488M289.188 127.046C290.186 116.472 295.572 110.886 303.154 110.886 308.54 110.886 316.52 113.28 317.318 127.046L289.188 127.046 289.188 127.046zM326.098 122.658C322.906 109.29 313.528 103.904 303.952 103.904 292.78 103.904 279.612 111.484 279.612 131.436 279.612 149.392 288.59 159.966 304.35 159.966 315.922 159.966 321.708 153.98 324.9 148.794L316.322 147.198C313.928 150.788 310.336 153.182 305.348 153.182 292.78 153.382 288.988 142.21 289.388 133.232L327.094 133.232C327.094 131.236 327.094 127.046 326.098 122.658L326.098 122.658zM390.538 127.046C391.536 116.472 396.922 110.886 404.504 110.886 409.89 110.886 417.872 113.28 418.67 127.046L390.538 127.046 390.538 127.046zM427.448 122.658C424.256 109.29 414.878 103.904 405.302 103.904 394.13 103.904 380.962 111.484 380.962 131.436 380.962 149.392 389.94 159.966 405.702 159.966 417.272 159.966 423.058 153.98 426.25 148.794L417.672 147.198C415.478 150.788 411.686 153.182 406.698 153.182 394.13 153.382 390.34 142.21 390.738 133.232L428.446 133.232C428.446 131.236 428.446 127.046 427.448 122.658L427.448 122.658zM515.232 144.404C512.638 149.99 507.45 152.384 501.266 152.384 494.682 152.384 491.29 148.794 491.29 144.604 491.29 140.812 492.886 137.222 502.862 135.026 508.648 133.83 513.236 133.032 516.828 132.632 516.628 140.214 516.428 141.412 515.232 144.404L515.232 144.404zM525.606 121.66C525.606 121.66 525.806 112.882 519.82 108.292 515.63 105.1 509.246 103.704 504.258 103.704 495.28 103.704 489.096 107.296 485.904 113.082 485.704 113.28 485.504 113.68 485.504 113.88L493.684 117.27C494.482 114.078 497.076 110.488 504.458 110.488 516.23 110.488 516.23 119.664 516.23 125.252L516.23 126.648 507.85 127.246C492.088 128.444 486.302 132.034 483.31 136.624 481.714 139.018 480.916 141.81 480.916 144.604 480.916 153.582 488.498 159.766 498.872 159.766 509.048 159.766 514.034 153.98 516.628 151.188 516.828 155.376 517.626 158.968 517.626 158.968L526.804 158.968C525.606 156.774 525.406 148.794 525.406 148.794L525.606 121.66 525.606 121.66zM206.592 144.404C203.998 149.99 198.81 152.384 192.626 152.384 186.042 152.384 182.65 148.794 182.65 144.604 182.65 140.812 184.246 137.222 194.222 135.026 200.008 133.83 204.596 133.032 208.188 132.632 207.988 140.214 207.788 141.412 206.592 144.404L206.592 144.404zM216.966 121.66C216.966 121.66 217.166 112.882 211.18 108.292 206.99 105.1 200.606 103.704 195.618 103.704 186.64 103.704 180.456 107.296 177.264 113.082 177.064 113.28 176.864 113.68 176.864 113.88L185.044 117.27C185.842 114.078 188.436 110.488 195.818 110.488 207.588 110.488 207.588 119.664 207.588 125.252L207.588 126.648 199.21 127.246C183.448 128.444 177.862 132.034 174.67 136.624 173.074 139.018 172.276 141.81 172.276 144.604 172.276 153.582 179.856 159.766 190.232 159.766 200.406 159.766 205.394 153.98 207.988 151.188 208.188 155.376 208.986 158.968 208.986 158.968L218.162 158.968C216.966 156.774 216.766 148.794 216.766 148.794L216.966 121.66 216.966 121.66zM624.364 89.738C624.364 89.938 624.164 90.138 624.164 90.336 623.964 90.536 623.964 90.736 623.764 90.936 623.366 91.334 622.966 91.734 622.568 92.132 621.57 92.93 620.772 93.728 619.774 94.526 616.384 96.92 612.992 99.514 609.4 101.908 607.006 103.504 604.412 105.1 602.018 106.696L587.654 115.874C585.658 114.678 583.664 113.48 581.668 112.482L555.732 97.718C549.946 94.328 543.962 90.736 538.176 87.144 537.178 86.546 535.98 85.748 534.984 84.95 534.584 84.75 534.384 84.352 533.986 84.152 533.786 84.152 533.786 83.952 533.586 83.952 533.388 83.754 533.188 83.554 532.988 83.354 532.788 83.154 532.788 83.154 532.59 82.956 532.39 82.756 532.39 82.556 532.39 82.356 532.39 82.158 532.19 81.958 532.19 81.758L532.19 81.16C532.19 80.96 532.19 80.76 532.39 80.562 532.39 80.362 532.59 80.162 532.788 79.962 532.988 79.564 533.388 79.164 533.586 78.766 533.986 78.366 534.384 77.768 534.784 77.368 538.176 73.978 541.566 70.586 544.958 67.194L553.936 58.016 554.336 59.412 555.532 62.006 555.532 62.206C557.926 66.396 560.122 70.586 562.714 74.576 565.708 79.164 568.7 83.754 571.892 88.342 573.29 90.536 574.886 92.532 576.482 94.526 577.878 96.322 579.274 97.918 580.87 99.514 582.266 100.91 583.864 102.108 585.26 103.504 586.058 104.104 586.856 104.702 587.654 105.1 588.052 105.3 588.452 105.5 588.85 105.7 589.25 105.898 589.648 106.098 590.048 106.098 590.446 106.298 590.846 106.298 591.244 106.498 591.644 106.498 592.042 106.696 592.442 106.696L593.44 106.696 594.438 106.696C594.836 106.696 595.036 106.498 595.234 106.498 595.434 106.498 595.834 106.298 596.032 106.298 596.232 106.298 596.432 106.098 596.832 105.898 597.03 105.7 597.23 105.7 597.43 105.5 597.828 105.3 598.228 104.902 598.428 104.502 598.626 104.302 599.026 103.904 599.226 103.504 599.624 103.106 599.824 102.706 600.024 102.308 600.422 101.708 600.622 101.31 600.822 100.712 601.02 100.112 601.42 99.514 601.62 98.716 602.018 97.32 602.418 95.924 602.816 94.526 603.216 92.532 603.814 90.736 604.014 88.74L605.21 77.368C607.804 78.566 610.598 79.764 613.19 81.16 615.784 82.556 618.178 83.952 620.772 85.548 620.972 85.748 621.37 85.948 621.57 86.148 621.97 86.546 622.368 86.746 622.568 87.144 622.768 87.344 622.966 87.544 622.966 87.744 623.166 87.942 623.166 88.142 623.366 88.342 623.366 88.542 623.566 88.74 623.566 88.94L623.566 89.34C624.562 89.54 624.562 89.54 624.364 89.738L624.364 89.738zM607.804 132.434C609.002 133.232 609.998 133.83 611.196 134.628 612.592 135.626 614.188 136.624 615.584 137.62 616.582 138.418 617.58 139.216 618.578 140.014 618.976 140.414 619.376 140.812 619.774 141.212 620.174 141.61 620.374 142.01 620.572 142.21L620.572 142.408C620.572 142.408 620.572 142.408 620.572 142.608 620.572 142.608 620.572 142.608 620.374 142.608L620.174 142.608 619.774 142.608C614.188 143.008 608.602 143.406 603.016 143.806L581.27 145.6 580.67 145.6 581.07 145.202 582.466 144.004C585.26 141.81 588.052 139.616 590.846 137.62L603.216 129.242C604.612 130.438 606.208 131.436 607.804 132.434L607.804 132.434zM560.92 58.016L560.92 58.016 561.118 57.816 561.318 57.816 561.718 58.016 562.914 58.416 564.51 59.214C568.7 61.01 572.89 62.804 577.08 64.6 579.872 65.798 582.666 66.994 585.458 68.192L591.046 70.586 591.444 70.786C591.644 75.174 592.042 79.364 592.242 83.754 592.442 87.144 592.442 90.536 592.642 93.928L592.642 95.126 592.642 95.924C592.642 96.122 592.642 96.322 592.442 96.722 592.442 96.92 592.242 97.12 592.242 97.32 592.042 97.52 592.042 97.718 591.844 97.918L591.644 98.118C591.644 98.118 591.444 98.318 591.244 98.318 591.046 98.318 591.046 98.516 590.846 98.516 590.646 98.516 590.646 98.516 590.446 98.716L589.848 98.716 589.25 98.716C589.05 98.716 588.85 98.716 588.652 98.516 588.452 98.516 588.252 98.318 588.052 98.318 587.654 98.118 587.254 97.918 586.856 97.718 586.456 97.52 586.058 97.12 585.458 96.92 585.06 96.522 584.462 96.122 584.062 95.724 583.664 95.324 583.064 94.926 582.666 94.328 581.668 93.33 580.87 92.332 579.872 91.134 578.276 89.14 576.68 87.344 575.284 85.15 573.288 82.356 571.294 79.364 569.498 76.57 568.302 74.776 567.304 73.18 566.306 71.184L562.116 63.004 561.118 60.41 560.92 59.612 560.72 58.814 560.72 58.216 560.92 58.016 560.92 58.016zM569.1 41.656C572.69 37.866 576.282 34.076 580.072 30.484 580.67 29.886 581.468 29.288 582.266 28.49 582.466 28.29 582.866 28.09 583.064 27.89 583.264 27.692 583.464 27.492 583.664 27.492 583.864 27.492 584.062 27.292 584.062 27.292 584.262 27.292 584.462 27.092 584.66 27.092L585.26 27.092 585.658 27.092C585.858 27.092 585.858 27.092 586.058 27.292 586.258 27.292 586.258 27.492 586.258 27.492 586.456 27.492 586.456 27.692 586.456 27.692 586.656 27.89 586.656 27.89 586.656 28.09 586.656 28.29 586.856 28.49 586.856 28.49 587.056 28.888 587.254 29.486 587.254 29.886 587.454 30.484 587.654 31.282 587.654 31.88 587.854 33.676 588.252 35.272 588.452 37.068 588.652 39.262 588.85 41.458 589.05 43.652L590.248 55.424 577.08 52.43 564.71 50.436 561.718 50.236 560.72 50.236C563.712 47.442 566.306 44.45 569.1 41.656L569.1 41.656zM649.302 85.548C649.302 85.15 649.302 84.95 649.102 84.552 648.902 83.952 648.704 83.354 648.504 82.556 648.304 81.958 647.906 81.358 647.506 80.562 647.108 79.962 646.708 79.164 646.31 78.566 646.11 78.166 645.71 77.768 645.512 77.568 645.112 77.17 644.714 76.77 644.314 76.57 643.316 75.772 642.518 75.174 641.52 74.576 639.326 73.18 637.132 71.782 634.938 70.786 632.144 69.588 629.352 67.992 626.558 66.994L607.006 60.212C607.006 56.42 607.206 52.83 607.006 49.038 606.806 43.452 606.606 38.066 606.208 32.48 606.008 28.688 605.41 24.898 604.812 21.108 604.412 18.114 603.614 15.322 603.016 12.33 602.816 11.73 602.616 10.932 602.418 10.334 602.218 9.736 602.018 9.136 601.818 8.538 601.62 7.94 601.42 7.54 601.02 6.942 600.822 6.544 600.622 6.144 600.222 5.546 600.024 5.146 599.624 4.748 599.424 4.348 599.226 3.95 598.826 3.75 598.626 3.35 598.428 3.152 598.028 2.752 597.828 2.554 597.63 2.354 597.23 2.154 597.03 1.954 596.832 1.756 596.432 1.556 596.232 1.356 596.032 1.156 595.634 1.156 595.434.956 595.036.758 594.438.558 594.038.358 593.638.158 593.24.158 592.84.158L591.844.158 590.248.158C589.648.158 589.05.358 588.452.358 587.854.558 587.254.558 586.656.758 586.058.956 585.46 1.156 584.86 1.556 584.262 1.954 583.664 2.154 582.866 2.554 582.268 2.952 581.468 3.35 580.87 3.95 579.872 4.748 578.676 5.546 577.678 6.544 573.688 10.334 569.498 14.324 565.708 18.314 563.712 20.508 561.518 22.704 559.722 24.898 552.142 34.076 544.76 43.054 537.576 52.43 534.384 56.62 531.392 61.01 528.4 65.198 527.602 66.196 527.002 67.394 526.404 68.59 525.208 70.586 524.21 72.58 523.212 74.576 523.012 75.174 522.814 75.574 522.614 76.172 522.414 76.77 522.214 77.17 522.016 77.768 521.816 78.366 521.816 78.766 521.616 79.364L521.616 80.76C521.616 80.96 521.616 81.16 521.816 81.558 521.816 81.758 522.016 81.958 522.214 82.356 522.414 82.556 522.614 82.756 522.614 83.154 522.814 83.354 523.012 83.554 523.212 83.952 523.612 84.352 524.21 84.95 524.808 85.35 525.406 85.748 525.806 86.148 526.404 86.546 527.402 87.144 528.4 87.744 529.596 88.542 529.996 88.74 530.594 88.94 530.994 89.34 531.192 89.34 530.594 89.14 530.594 89.14 530.794 89.34 531.192 89.34 531.392 89.54 537.776 92.93 544.36 96.122 550.744 99.714 557.128 103.106 563.514 106.498 569.898 110.088L584.262 118.068C579.274 121.86 574.286 125.45 569.298 129.242 567.504 130.638 565.708 132.434 564.112 134.03 562.716 135.426 561.518 136.822 560.322 138.418 559.324 139.616 558.526 140.812 557.728 142.21 557.128 143.208 556.53 144.204 555.932 145.402 555.532 146.2 555.134 146.998 554.934 147.996 554.734 148.594 554.536 149.192 554.536 149.79 554.536 150.19 554.536 150.588 554.336 150.988L554.336 151.386 554.336 152.384C554.336 152.784 554.336 152.982 554.536 153.382 554.536 153.78 554.734 153.98 554.734 154.38 554.734 154.58 554.934 154.978 554.934 155.178 555.134 155.376 555.134 155.776 555.334 155.976 555.532 156.174 555.532 156.574 555.732 156.774 556.132 157.172 556.33 157.772 556.73 157.97 557.128 158.37 557.528 158.768 557.926 158.968 558.326 159.368 558.924 159.566 559.324 159.966 559.722 160.166 560.322 160.564 560.92 160.764 561.518 160.964 561.916 161.162 562.516 161.362 564.51 161.762 566.506 162.16 568.5 162.56 569.498 162.758 570.496 162.758 571.494 162.758 574.886 162.56 578.476 162.16 581.868 161.562 585.858 160.964 589.848 160.166 593.838 159.168 598.428 158.17 603.216 156.972 607.804 155.776 610.996 154.978 614.388 154.18 617.58 152.784 619.974 151.786 622.568 150.788 624.962 149.79 625.56 149.592 625.96 149.192 626.558 148.992 626.958 148.794 627.556 148.394 627.954 148.194 628.354 147.996 628.752 147.596 629.152 147.396 629.352 147.198 629.75 146.798 629.95 146.398 630.15 146.2 630.348 145.8 630.548 145.6 630.748 145.402 630.748 145.002 630.748 144.802L630.748 144.004 630.748 143.208C630.748 143.008 630.548 142.608 630.548 142.408 630.548 142.21 630.348 141.81 630.15 141.61 629.95 141.412 629.95 141.212 629.75 141.012 629.55 140.812 629.352 140.614 629.152 140.414 628.752 140.014 628.354 139.616 627.954 139.416 627.556 139.216 627.356 138.818 626.958 138.618 626.558 138.418 626.158 138.22 625.76 137.82 623.166 136.224 620.772 134.628 618.178 133.232L607.406 126.848C613.99 122.458 620.572 118.068 626.958 113.68 629.75 111.684 632.344 109.69 635.136 107.694 637.332 105.898 639.526 103.904 641.522 101.908 642.518 100.91 643.316 99.914 644.314 98.916 644.714 98.516 645.112 97.918 645.512 97.52 645.91 97.12 646.11 96.522 646.508 96.122 647.306 94.526 648.104 92.732 648.904 91.134 649.102 90.336 649.302 89.738 649.502 88.94 649.502 88.542 649.702 88.342 649.702 87.942L649.702 86.946C649.302 86.148 649.302 85.748 649.302 85.548L649.302 85.548z"/>
  </g>
</svg>
