<svg xmlns="http://www.w3.org/2000/svg" width="100%" height="100%" viewBox="0 0 383 205">
  <g fill="#FFFFFF" fill-rule="evenodd">
    <path d="M366 20.4L366 2.6C366 1.2 368.4.2 371.6.2 374.6.2 377.2 1.2 377.2 2.6L377.2 82.6C377.2 84 374.8 85 371.6 85 368.6 85 366 84 366 82.6L366 20.4 366 20.4zM128.6 20.4L128.6 2.6C128.6 1.2 131 .2 134.2.2 137.2.2 139.8 1.2 139.8 2.6L139.8 25.8 150 25.8C151.2 25.8 152.4 28.2 152.4 31.4 152.4 34.4 151.4 37 150 37L139.8 37 139.8 82.6C139.8 84 137.4 85 134.2 85 131.2 85 128.6 84 128.6 82.6L128.6 20.4 128.6 20.4zM156.8 6.8L156.8 2.4C156.8 1 159.2 0 162.4 0 165.4 0 168 1 168 2.4L168 9C168 10.4 165.6 11.4 162.4 11.4 159.4 11.4 156.8 10.4 156.8 9L156.8 6.8 156.8 6.8zM156.8 44.8L156.8 27.8C156.8 26.6 159.2 25.4 162.4 25.4 165.4 25.4 168 26.4 168 27.8L168 82.4C168 83.8 165.6 84.8 162.4 84.8 159.4 84.8 156.8 83.8 156.8 82.4L156.8 44.8 156.8 44.8zM12 79.2L12 82.4C12 83.8 9.6 84.8 6.4 84.8 3.4 84.8.8 83.8.8 82.4L.8 47.2C.8 33.4 15.2 24.8 29.2 24.8 43.2 24.8 57.6 33.4 57.6 47.2L57.6 82.4C57.6 83.8 55.2 84.8 52.2 84.8 49 84.8 46.6 83.8 46.6 82.4L46.6 47.2C46.6 42.4 40.6 35.8 29.4 35.8 18.2 35.8 12.2 42.4 12.2 47.2 12 47 12 79.2 12 79.2L12 79.2zM249.6 79.2L249.6 82.4C249.6 83.8 247.2 84.8 244 84.8 241 84.8 238.4 83.8 238.4 82.4L238.4 47.2C238.4 33.4 252.8 24.6 266.8 24.6 280.8 24.6 295.2 33.2 295.2 47L295.2 82.2C295.2 83.4 292.8 84.6 289.6 84.6 286.4 84.6 284 83.6 284 82.2L284 47C284 42.2 278 35.6 266.8 35.6 255.6 35.6 249.6 42.2 249.6 47L249.6 79.2 249.6 79.2zM325.8 56C316.2 56 312.2 61.2 312.2 63.8L312.2 66.4C312.2 69.4 316 74.2 324 74.2L335.2 74.2C343.2 74.2 347 69.4 347 66.4L347 63.8C347 61.2 343 56 333.4 56L325.8 56 325.8 56zM325.8 45L333.2 45C337.8 45 342.8 46 346.8 48.2L346.8 44.4C346.8 41.8 341.8 35.8 329.4 35.8 323.6 35.8 318.4 36.4 314 38.6 312.8 39.2 310.8 37.6 309.4 34.8 308 32.2 307.8 29.4 309 28.8 315.8 25.2 323.2 24.8 329.4 24.8 342.6 24.8 357.8 31.4 357.8 44.4L357.8 66.4C357.8 78 346.2 85.2 335 85.2L324 85.2C312.8 85.2 301.2 78.2 301.2 66.4L301.2 63.8C301.2 51.6 314.2 45 325.8 45L325.8 45zM231.6 62.4C231.6 76.2 217.2 85 203.2 85 189.2 85 174.8 76.4 174.8 62.4L174.8 47C174.8 33.2 189.2 24.6 203.2 24.6 217.2 24.6 231.6 33.2 231.6 47L231.6 62.4 231.6 62.4zM185.8 62.4C185.8 67.2 191.8 73.8 203 73.8 214.2 73.8 220.2 67.2 220.2 62.4L220.2 47C220.2 42.2 214.2 35.6 203 35.6 191.8 35.6 185.8 42.2 185.8 47L185.8 62.4 185.8 62.4zM88.4 56C78.8 56 74.8 61.2 74.8 63.8L74.8 66.4C74.8 69.4 78.6 74 86.6 74L97.8 74C105.8 74 109.6 69.2 109.6 66.4L109.6 63.8C109.6 61.2 105.6 56 96 56L88.4 56 88.4 56zM88.4 45L95.8 45C100.4 45 105.2 46 109.4 48.2L109.4 44.4C109.4 41.8 104.4 35.8 92 35.8 86.2 35.8 81 36.4 76.6 38.6 75.4 39.2 73.4 37.6 72 34.8 70.6 32.2 70.4 29.4 71.6 28.8 78.4 25.2 85.8 24.8 92 24.8 105.2 24.8 120.4 31.4 120.4 44.4L120.4 66.4C120.4 78 108.8 85.2 97.6 85.2L86.4 85.2C75.2 85.2 63.6 78.2 63.6 66.4L63.6 63.8C63.6 51.6 76.8 45 88.4 45L88.4 45zM112 120.4C113 119.4 115.4 120.4 117.6 122.6 119.8 124.8 120.8 127.2 119.8 128.2L98.6 149.4 120.6 171.4C121.6 172.4 120.6 174.8 118.4 177 116.2 179.2 113.8 180.2 112.8 179.2L90.8 157.2 68.8 179.2C67.8 180.2 65.4 179.2 63.2 177 61 174.8 60 172.4 61 171.4L83 149.4 61.8 128.2C60.8 127.2 61.8 124.8 64 122.6 66.2 120.4 68.6 119.4 69.6 120.4L90.8 141.6 112 120.4 112 120.4zM377.4 123.6C379 124.2 379 126.6 377.8 129.2 376.8 131.8 375 133.4 373.8 133 369 130.8 365 130 359.8 130 352.8 130 348.2 131.6 348.2 136.2 348.2 138.4 349.2 139.8 351.4 141 352.4 141.6 353.8 142.2 355.6 142.8 357.4 143.4 359.4 144 361.8 144.8 373.8 148.8 382.2 152.8 382.2 162.6 382.2 172 373.6 180 357.6 180 351.2 180 342.6 177.8 336.4 174.2L334 173C333 172.4 333.2 170.2 334.6 167.8 335.8 165.4 337.8 164 338.8 164.6L340.4 165.4C345.6 168.2 351 170 356.8 170 363.2 170 370.6 168.2 370.6 162.6 370.6 158.4 366.6 156.8 353.2 152.2 342 148.4 336.4 143.4 336.4 135.4 336.4 125.8 346 119.6 358.8 119.6 367.6 119.6 371.8 121 377.4 123.6L377.4 123.6zM325.6 123.6C327.2 124.2 327.2 126.6 326 129.2 325 131.8 323.2 133.4 322 133 317.2 130.8 313.2 130 308 130 301 130 296.4 131.6 296.4 136.2 296.4 138.4 297.4 139.8 299.6 141 300.6 141.6 302 142.2 303.8 142.8 305.6 143.4 307.6 144 310 144.8 322.2 148.8 330.4 152.8 330.4 162.6 330.4 172 321.8 180 305.8 180 299.4 180 290.8 177.8 284.6 174.2L282.2 173C281.2 172.4 281.4 170.2 282.8 167.8 284 165.4 286 164 287 164.6L288.6 165.4C293.8 168.2 299.2 170 305 170 311.4 170 318.8 168.2 318.8 162.6 318.8 158.4 314.8 156.8 301.4 152.2 290.2 148.4 284.6 143.4 284.6 135.4 284.6 125.8 294.2 119.6 307 119.6 315.6 119.6 320 121 325.6 123.6L325.6 123.6zM218 131.4C205.6 131.4 200.6 137.4 200.6 140L200.6 177.4C200.6 178.8 198.2 179.8 195 179.8 191.8 179.8 189.4 178.8 189.4 177.4L189.4 122.6C189.4 121.4 191.8 120.2 195 120.2 198 120.2 200.6 121.2 200.6 122.6L200.6 125C205.8 121.4 212 120.2 218 120.2 219.4 120.2 220.4 122.6 220.4 125.6 220.4 129 219.2 131.4 218 131.4L218 131.4zM182.4 157.2C182.4 171 168 179.8 154 179.8 148 179.8 141.8 178.2 136.8 175.2L136.8 202C136.8 203.2 134.4 204.4 131.2 204.4 128.2 204.4 125.6 203.4 125.6 202L125.6 142C125.6 128.2 140 119.6 154 119.6 168 119.6 182.4 128.2 182.4 142L182.4 157.2 182.4 157.2zM136.8 157.2C136.8 162 142.8 168.6 154 168.6 165.2 168.6 171.2 162 171.2 157.2L171.2 142C171.2 137.2 165.2 130.6 154 130.6 142.8 130.6 136.8 137.2 136.8 142L136.8 157.2 136.8 157.2zM265 137.4C262.6 133.8 257.2 130.6 249.4 130.6 238.2 130.6 232.2 137.2 232.2 142L232.2 149.4 265.8 138.2 265 137.4 265 137.4zM220.8 157.6L220.8 156.6 220.8 142.2C220.8 128.4 235.2 119.8 249.2 119.8 263.2 119.8 277.6 128.4 277.6 142.2 277.6 143.8 276 146.8 273.8 147.4L233 161 233.6 162C236 165.6 241.4 168.8 249.2 168.8 257.8 168.8 264.6 164.4 267.2 159.6L268.4 157.4C269 156.2 271.8 156.4 274.4 158 277 159.4 278.8 161.6 278.2 162.8L277.4 164.6C272.4 174 261.6 180.2 249.4 180.2 235.4 179.8 221.2 171.2 220.8 157.6L220.8 157.6zM.2 157.6L.2 156.6.2 142.2C.2 128.4 14.6 119.8 28.6 119.8 42.6 119.8 57 128.4 57 142.2 57 143.8 55.4 146.8 53.2 147.4L12.4 161 13 162C15.4 165.6 20.8 168.8 28.6 168.8 37.2 168.8 44 164.4 46.6 159.6L47.8 157.6C48.4 156.4 51 156.6 53.8 158 56.4 159.4 58.2 161.6 57.6 162.8L56.8 164.6C51.8 174 41 180.2 28.8 180.2 14.8 179.8.4 171.2.2 157.6L.2 157.6zM44.2 137.4C41.8 133.8 36.4 130.6 28.6 130.6 17.4 130.6 11.4 137.2 11.4 142L11.4 149.4 45 138.2 44.2 137.4 44.2 137.4z"/>
  </g>
</svg>
