<svg xmlns="http://www.w3.org/2000/svg" width="100%" height="100%" viewBox="0 0 861 142" xmlns:xlink="http://www.w3.org/1999/xlink">
  <defs>
    <polygon id="a" points="33.26 110 .06 110 .06 .417 66.459 .417 66.459 110 33.26 110"/>
  </defs>
  <g fill="none" fill-rule="evenodd">
    <g transform="translate(0 32)">
      <mask id="b" fill="white">
        <use xlink:href="#a"/>
      </mask>
      <path fill="#FFFFFF" d="M42.976,22.865 C41.5,18.731 38.399,16.515 33.525,16.515 C28.651,16.515 23.925,18.583 20.381,22.275 L20.381,59.048 C23.04,61.264 27.322,63.479 31.309,63.479 C41.057,63.479 44.897,56.833 44.897,39.554 C44.897,32.317 44.306,26.558 42.976,22.865 L42.976,22.865 Z M55.973,70.568 C50.804,76.033 44.01,79.134 35.741,79.134 C29.833,79.134 24.221,77.657 19.938,75.146 C20.233,76.919 20.233,79.134 20.233,81.349 L20.233,104.978 L1.181,110 L1.181,22.57 C1.181,12.675 1.034,9.869 0,3.519 L17.575,0.417 C18.314,3.076 18.757,5.143 18.904,7.506 C22.301,3.371 29.833,0.417 37.512,0.417 C42.829,0.417 48.294,2.19 52.428,4.996 C60.552,10.46 66.459,20.207 66.459,37.634 C66.459,53.88 63.801,62.15 55.973,70.568 L55.973,70.568 Z" mask="url(#b)"/>
    </g>
    <path fill="#FFFFFF" d="M118.739 62.545C118.739 56.933 118.148 53.98 116.375 51.173 114.456 48.22 111.65 46.743 107.662 46.743 100.131 46.743 95.848 52.65 95.848 63.136L95.848 63.432 118.739 63.432 118.739 62.545 118.739 62.545zM95.552 77.905L95.552 78.495C95.552 90.163 101.312 96.808 111.502 96.808 118.296 96.808 124.646 94.298 130.702 89.277L138.381 101.091C129.668 108.18 120.511 111.577 109.878 111.577 88.168 111.577 74.138 96.218 74.138 72.44 74.138 58.853 76.944 49.844 83.589 42.46 89.792 35.519 97.324 32.27 107.367 32.27 116.081 32.27 124.351 35.223 129.225 40.245 136.166 47.334 139.267 57.524 139.267 73.326L139.267 77.905 95.552 77.905 95.552 77.905zM192.965 57.967C191.488 51.469 187.352 48.368 182.183 48.368 177.015 48.368 173.47 51.616 170.959 54.423L170.959 89.277C173.618 91.64 176.719 94.15 182.036 94.15 186.909 94.15 190.011 92.23 191.635 88.243 193.408 84.107 193.85 80.12 193.85 70.816 193.85 64.022 193.703 61.216 192.965 57.967L192.965 57.967zM202.268 105.079C197.1 109.214 191.931 110.986 185.728 110.986 178.344 110.986 173.174 108.771 168.892 104.045 168.301 106.704 168.154 107.442 166.824 109.509L149.102 109.509C150.578 106.112 151.021 103.897 151.021 93.411L151.021 23.408C151.021 14.104 150.727 9.083 149.693 4.8L169.925.074C170.516 5.243 170.665 8.344 170.665 13.514L170.665 31.383C170.665 33.599 170.516 36.848 170.221 38.029 174.061 33.894 179.377 31.974 186.319 31.974 204.779 31.974 216.299 46.743 216.299 70.373 216.299 85.732 211.573 97.695 202.268 105.079L202.268 105.079zM270.676 57.967C269.2 51.469 265.064 48.368 259.895 48.368 254.726 48.368 251.182 51.616 248.671 54.423L248.671 89.277C251.33 91.64 254.431 94.15 259.748 94.15 264.621 94.15 267.723 92.23 269.347 88.243 271.119 84.107 271.562 80.12 271.562 70.816 271.562 64.022 271.415 61.216 270.676 57.967L270.676 57.967zM279.98 105.079C274.811 109.214 269.642 110.986 263.44 110.986 256.056 110.986 250.886 108.771 246.604 104.045 246.013 106.704 245.865 107.442 244.536 109.509L226.813 109.509C228.29 106.112 228.733 103.897 228.733 93.411L228.733 23.408C228.733 14.104 228.438 9.083 227.404 4.8L247.637.074C248.228 5.243 248.376 8.344 248.376 13.514L248.376 31.383C248.376 33.599 248.228 36.848 247.932 38.029 251.773 33.894 257.089 31.974 264.031 31.974 282.491 31.974 294.011 46.743 294.011 70.373 294.011 85.732 289.285 97.695 279.98 105.079L279.98 105.079zM325.63 111.282C317.212 111.282 310.418 107.294 308.054 100.944 306.578 97.104 306.282 94.741 306.282 83.959L306.282 27.544C306.282 17.649 305.988 11.593 305.249 4.8L325.481.222C326.22 4.357 326.515 9.23 326.515 19.864L326.515 78.791C326.515 91.787 326.664 93.559 327.845 95.627 328.583 96.956 330.207 97.695 331.833 97.695 332.571 97.695 333.014 97.695 334.048 97.399L337.444 109.214C334.048 110.543 329.912 111.282 325.63 111.282M384.126 62.545C384.126 56.933 383.535 53.98 381.762 51.173 379.843 48.22 377.036 46.743 373.049 46.743 365.518 46.743 361.234 52.65 361.234 63.136L361.234 63.432 384.126 63.432 384.126 62.545 384.126 62.545zM360.939 77.905L360.939 78.495C360.939 90.163 366.699 96.808 376.889 96.808 383.683 96.808 390.033 94.298 396.088 89.277L403.768 101.091C395.055 108.18 385.898 111.577 375.265 111.577 353.555 111.577 339.524 96.218 339.524 72.44 339.524 58.853 342.331 49.844 348.976 42.46 355.179 35.519 362.711 32.27 372.754 32.27 381.468 32.27 389.737 35.223 394.612 40.245 401.553 47.334 404.654 57.524 404.654 73.326L404.654 77.905 360.939 77.905 360.939 77.905zM496.513 137.472C486.028 137.472 477.462 131.268 477.462 115.909L477.462 90.507C477.462 81.351 465.203 80.317 461.511 80.317L461.511 63.481C465.203 63.481 477.462 62.447 477.462 53.291L477.462 27.741C477.462 12.382 485.584 6.326 496.513 6.326L512.02 6.326 512.02 23.162 504.783 23.162C495.774 23.162 495.184 28.627 495.184 32.614L495.184 56.392C495.184 70.126 486.618 71.16 480.415 71.751L480.415 72.047C486.618 72.489 495.184 73.523 495.184 87.258L495.184 111.183C495.184 115.171 495.774 120.635 504.783 120.635L512.02 120.635 512.02 137.472 496.513 137.472M567.549 106.556C562.232 109.657 556.325 111.282 549.088 111.282 528.265 111.282 516.154 96.808 516.154 72.292 516.154 54.865 522.801 43.346 531.661 37.291 536.683 33.894 544.067 31.679 550.418 31.679 555.438 31.679 560.903 32.86 565.039 35.076 567.844 36.553 569.173 37.586 572.423 40.392L562.823 53.389C558.836 49.697 554.553 47.481 550.861 47.481 541.999 47.481 538.011 55.161 538.011 72.884 538.011 82.778 539.341 88.685 541.852 91.935 543.92 94.593 547.316 96.218 550.712 96.218 555.291 96.218 559.426 94.298 564.3 90.015L565.481 88.981 574.49 100.944C571.537 103.897 570.207 104.931 567.549 106.556M622.738 51.026C620.819 48.515 617.717 47.038 614.173 47.038 609.446 47.038 605.607 49.992 603.982 54.718 602.653 58.706 601.915 64.022 601.915 71.554 601.915 80.268 602.8 86.766 604.426 90.606 606.198 94.741 610.628 96.808 614.468 96.808 623.034 96.808 626.726 89.129 626.726 71.259 626.726 61.068 625.396 54.423 622.738 51.026L622.738 51.026zM638.836 100.648C633.077 107.146 625.545 111.134 613.878 111.134 593.349 111.134 579.909 95.774 579.909 71.997 579.909 48.22 593.497 32.417 613.878 32.417 624.658 32.417 633.077 36.109 639.574 43.789 645.63 50.878 648.288 59.148 648.288 71.406 648.288 84.403 645.334 93.264 638.836 100.648L638.836 100.648zM704.66 53.832C700.968 50.583 697.424 48.958 693.879 48.958 685.018 48.958 681.178 56.342 681.178 73.179 681.178 89.424 684.575 94.741 694.913 94.741 698.605 94.741 702.74 92.23 704.66 89.867L704.66 53.832 704.66 53.832zM709.091 109.509C708.5 108.328 708.205 107.146 707.909 105.079 703.036 109.362 697.276 111.43 690.482 111.43 671.284 111.43 659.173 96.513 659.173 73.031 659.173 49.401 672.317 33.156 691.516 33.156 696.98 33.156 701.263 34.485 704.955 37.438 704.66 35.814 704.365 30.645 704.365 26.215L704.365.222 724.008 3.323 724.008 81.892C724.008 100.5 725.484 106.556 726.813 109.509L709.091 109.509 709.091 109.509zM783.714 62.545C783.714 56.933 783.123 53.98 781.351 51.173 779.431 48.22 776.625 46.743 772.637 46.743 765.106 46.743 760.823 52.65 760.823 63.136L760.823 63.432 783.714 63.432 783.714 62.545 783.714 62.545zM760.527 77.905L760.527 78.495C760.527 90.163 766.287 96.808 776.478 96.808 783.271 96.808 789.621 94.298 795.677 89.277L803.357 101.091C794.643 108.18 785.487 111.577 774.854 111.577 753.143 111.577 739.113 96.218 739.113 72.44 739.113 58.853 741.919 49.844 748.565 42.46 754.767 35.519 762.3 32.27 772.343 32.27 781.056 32.27 789.326 35.223 794.2 40.245 801.141 47.334 804.242 57.524 804.242 73.326L804.242 77.905 760.527 77.905 760.527 77.905zM844.56 90.507L844.56 116.057C844.56 131.417 836.437 137.472 825.508 137.472L810.001 137.472 810.001 120.635 817.238 120.635C826.247 120.635 826.837 115.171 826.837 111.183L826.837 87.406C826.837 73.671 835.403 72.637 841.606 72.047L841.606 71.751C835.403 71.308 826.837 70.274 826.837 56.539L826.837 32.614C826.837 28.627 826.247 23.162 817.238 23.162L810.001 23.162 810.001 6.326 825.951 6.326C835.994 6.326 844.56 12.529 844.56 27.888L844.56 53.291C844.56 62.447 856.375 63.481 860.51 63.481L860.51 80.317C856.375 80.317 844.56 81.351 844.56 90.507"/>
  </g>
</svg>
