<?xml version="1.0" encoding="utf-8"?>
<!-- Generator: Adobe Illustrator 17.1.0, SVG Export Plug-In . SVG Version: 6.00 Build 0)  -->
<!DOCTYPE svg PUBLIC "-//W3C//DTD SVG 1.1//EN" "http://www.w3.org/Graphics/SVG/1.1/DTD/svg11.dtd">
<svg version="1.1" id="Layer_1" xmlns="http://www.w3.org/2000/svg" xmlns:xlink="http://www.w3.org/1999/xlink" x="0px" y="0px"
	 viewBox="0 0 800 392.2" enable-background="new 0 0 800 392.2" xml:space="preserve">
<g>
	<path d="M284.7,0c-3.8,0-6.8,3.1-6.8,6.8v268.7c0,3.8,3.1,6.8,6.8,6.8c3.8,0,6.8-3.1,6.8-6.8V6.8C291.6,3.1,288.5,0,284.7,0z"/>
	<path d="M193.3,5.5c0-0.2-0.1-0.5-0.2-0.8c0-0.1-0.1-0.3-0.1-0.5c-0.1-0.3-0.2-0.5-0.3-0.7c-0.1-0.2-0.2-0.4-0.3-0.5
		c-0.1-0.2-0.3-0.4-0.4-0.6c-0.2-0.2-0.3-0.3-0.4-0.4c-0.6-0.6-1.4-1.2-2.2-1.5c-0.2-0.1-0.4-0.1-0.6-0.2c-0.2-0.1-0.4-0.1-0.6-0.2
		C187.5,0,187,0,186.6,0c-0.5,0-0.9,0-1.3,0.1c-0.2,0.1-0.4,0.1-0.6,0.2c-0.3,0.1-0.5,0.1-0.7,0.2c-0.2,0.1-0.4,0.2-0.6,0.3
		c-0.3,0.1-0.5,0.2-0.6,0.4c-0.2,0.1-0.3,0.3-0.5,0.4c-0.2,0.2-0.4,0.3-0.5,0.5c-0.2,0.2-0.4,0.5-0.7,0.8l0,0L180.9,3L96.7,127.6
		L12.5,3c-1.3-1.9-3.4-3-5.7-3C5.5,0,4.1,0.4,3,1.2c-1.5,1-2.5,2.6-2.9,4.4c-0.3,1.8,0,3.6,1.1,5.1l89.6,132.7l0,0.1l0.2,0.3l0,0
		l0.1,0.2l0.1,0.1c0.2,0.3,0.5,0.5,0.7,0.8c0.1,0.1,0.2,0.2,0.4,0.3l0,0l0.1,0.1c0.1,0.1,0.2,0.2,0.4,0.3c0.2,0.1,0.3,0.2,0.5,0.3
		l0,0l0.3,0.1c0.4,0.2,0.9,0.4,1.3,0.5l0.1,0l0.2,0c0.5,0.1,1,0.2,1.4,0.2c0.5,0,0.9-0.1,1.5-0.2l0.2,0c0.5-0.1,1-0.3,1.4-0.5l0.1,0
		l0.2-0.1c0.2-0.1,0.4-0.2,0.5-0.3c0.2-0.1,0.3-0.2,0.4-0.3c0.2-0.1,0.3-0.2,0.4-0.3c0.3-0.3,0.5-0.5,0.7-0.8l0,0l0.2-0.2l0.1-0.1
		l0-0.1l0.1-0.2l0,0l77.2-114.2v246.4c0,3.8,3.1,6.8,6.8,6.8c3.8,0,6.8-3.1,6.8-6.8V6.8c0-0.2,0-0.4-0.1-0.6
		C193.3,6,193.3,5.8,193.3,5.5z"/>
	<path d="M534.9,0c-3.8,0-6.8,3.1-6.8,6.8v246.2L360.9,3c-1.3-1.9-3.4-3-5.7-3c-1.3,0-2.7,0.4-3.8,1.2c-3.1,2.1-4,6.3-1.9,9.5
		l179.7,268.7l0.4,0.6l0.1,0.1c0.1,0.2,0.3,0.3,0.5,0.5c0.1,0.1,0.2,0.2,0.3,0.3c0.3,0.2,0.6,0.4,0.9,0.6c0.1,0.1,0.3,0.2,0.5,0.2
		c0.3,0.1,0.6,0.3,1,0.4c0.1,0,0.2,0.1,0.4,0.1c0.6,0.1,1,0.2,1.5,0.2c0.4,0,0.8,0,1.2-0.1c0.1,0,0.3-0.1,0.4-0.1
		c0.2-0.1,0.5-0.1,0.8-0.3c0.1,0,0.3-0.1,0.4-0.1c0.3-0.1,0.7-0.3,1-0.5l1.3-0.8v-0.3c0.1-0.1,0.1-0.2,0.2-0.2
		c0.2-0.2,0.3-0.3,0.4-0.5c0.1-0.2,0.2-0.4,0.3-0.5l-1.2-0.7c0,0,0,0,0-0.1l1.3,0.7c0.1-0.2,0.2-0.3,0.3-0.5
		c0.1-0.3,0.2-0.5,0.2-0.7c0.1-0.2,0.1-0.4,0.2-0.6c0.1-0.4,0.1-0.9,0.1-1.3V6.8C541.7,3.1,538.7,0,534.9,0z"/>
	<path d="M703.3,0c-53.3,0-96.7,43.2-96.7,96.2v89.4c0,53.3,43.4,96.7,96.7,96.7c53.3,0,96.7-43.4,96.7-96.7V96.3
		C800,43.2,756.6,0,703.3,0z M703.3,268.7c-45.8,0-83-37.2-83-83V96.3c0-45.5,37.2-82.6,83-82.6c45.8,0,83,37,83,82.6v89.4
		C786.3,231.5,749.1,268.7,703.3,268.7z"/>
</g>
<g>
	<g>
		<path fill="#FFFFFF" d="M314.6,380.9c-0.4,0-0.6-0.3-0.6-0.6v-31.1h-10c-0.4,0-0.6-0.3-0.6-0.6c0-0.4,0.3-0.6,0.6-0.6h10.4
			c0.1,0,0.1,0,0.2,0c0.1,0,0.1,0,0.2,0h10.4c0.4,0,0.6,0.3,0.6,0.6c0,0.4-0.3,0.6-0.6,0.6h-10v31.1
			C315.2,380.7,314.9,380.9,314.6,380.9z"/>
		<path fill="#FFFFFF" d="M314.6,348.1c0.1,0,0.1,0,0.2,0h10.4c0.3,0,0.5,0.2,0.5,0.5c0,0.3-0.2,0.5-0.5,0.5H315v31.3
			c0,0.3-0.2,0.5-0.5,0.5c-0.3,0-0.5-0.2-0.5-0.5v-31.3H304c-0.3,0-0.5-0.2-0.5-0.5c0-0.3,0.2-0.5,0.5-0.5h10.4
			C314.5,348.1,314.5,348.1,314.6,348.1 M314.6,347.7c-0.1,0-0.1,0-0.2,0H304c-0.4,0-0.8,0.4-0.8,0.8s0.4,0.8,0.8,0.8h9.8v30.9
			c0,0.4,0.4,0.8,0.8,0.8c0.4,0,0.8-0.4,0.8-0.8v-30.9h9.8c0.4,0,0.8-0.4,0.8-0.8s-0.4-0.8-0.8-0.8h-10.4
			C314.7,347.8,314.6,347.7,314.6,347.7L314.6,347.7z"/>
	</g>
	<g>
		<path fill="#FFFFFF" d="M447.4,381.6c-0.4,0-0.6-0.3-0.6-0.6v-20.6h-10c-5.5,0-10,4.5-10,10c0,5.5,4.5,10,10,10
			c0.4,0,0.6,0.3,0.6,0.6c0,0.4-0.3,0.6-0.6,0.6c-6.2,0-11.2-5-11.2-11.2c0-6.2,5-11.2,11.2-11.2h10.6c0.4,0,0.6,0.3,0.6,0.6V381
			C448,381.3,447.7,381.6,447.4,381.6z"/>
		<path fill="#FFFFFF" d="M447.4,359.3c0.3,0,0.5,0.2,0.5,0.5v0V381c0,0.3-0.2,0.5-0.5,0.5c-0.3,0-0.5-0.2-0.5-0.5v-20.7h-10.1
			c-5.6,0-10.1,4.5-10.1,10.1c0,5.6,4.5,10.1,10.1,10.1c0.3,0,0.5,0.2,0.5,0.5c0,0.3-0.2,0.5-0.5,0.5c-6.1,0-11.1-5-11.1-11.1
			c0-6.1,5-11.1,11.1-11.1H447.4 M447.4,358.9h-10.6c-6.3,0-11.4,5.1-11.4,11.4c0,6.3,5.1,11.4,11.4,11.4c0.4,0,0.8-0.4,0.8-0.8
			c0-0.4-0.4-0.8-0.8-0.8c-5.4,0-9.8-4.4-9.8-9.8c0-5.4,4.4-9.8,9.8-9.8h9.8V381c0,0.4,0.4,0.8,0.8,0.8s0.8-0.4,0.8-0.8v-21.2
			C448.2,359.3,447.8,358.9,447.4,358.9L447.4,358.9z"/>
	</g>
	<g>
		<g>
			<path fill="#FFFFFF" d="M466.2,381.4c-6.2,0-11.2-5-11.2-11.2c0-6.2,5-11.2,11.2-11.2c0.4,0,0.6,0.3,0.6,0.6
				c0,0.4-0.3,0.6-0.6,0.6c-5.5,0-10,4.5-10,10c0,5.5,4.5,10,10,10c0.4,0,0.6,0.3,0.6,0.6C466.9,381.2,466.6,381.4,466.2,381.4z"/>
			<path fill="#FFFFFF" d="M466.2,359.1c0.3,0,0.5,0.2,0.5,0.5c0,0.3-0.2,0.5-0.5,0.5c-5.6,0-10.1,4.5-10.1,10.1
				c0,5.6,4.5,10.1,10.1,10.1c0.3,0,0.5,0.2,0.5,0.5c0,0.3-0.2,0.5-0.5,0.5c-6.1,0-11.1-5-11.1-11.1
				C455.2,364.1,460.1,359.1,466.2,359.1 M466.2,358.8c-6.3,0-11.4,5.1-11.4,11.4c0,6.3,5.1,11.4,11.4,11.4c0.4,0,0.8-0.4,0.8-0.8
				s-0.4-0.8-0.8-0.8c-5.4,0-9.8-4.4-9.8-9.8c0-5.4,4.4-9.8,9.8-9.8c0.4,0,0.8-0.4,0.8-0.8S466.7,358.8,466.2,358.8L466.2,358.8z"/>
		</g>
	</g>
	<g>
		<path fill="#FFFFFF" d="M390.8,381.4c-6.2,0-11.2-5-11.2-11.2c0-6.2,5-11.2,11.2-11.2c6.2,0,11.2,5,11.2,11.2
			c0,0.4-0.3,0.6-0.6,0.6h-10.6c-0.4,0-0.6-0.3-0.6-0.6c0-0.4,0.3-0.6,0.6-0.6h9.9c-0.3-5.2-4.7-9.3-9.9-9.3c-5.5,0-10,4.5-10,10
			c0,5.5,4.5,10,10,10c0.4,0,0.6,0.3,0.6,0.6C391.5,381.2,391.2,381.4,390.8,381.4z"/>
		<path fill="#FFFFFF" d="M390.8,359.1c6.1,0,11.1,5,11.1,11.1c0,0.3-0.2,0.5-0.5,0.5h-10.6c-0.3,0-0.5-0.2-0.5-0.5
			c0-0.3,0.2-0.5,0.5-0.5H401c-0.2-5.4-4.7-9.7-10.1-9.7c-5.6,0-10.1,4.5-10.1,10.1c0,5.6,4.5,10.1,10.1,10.1c0.3,0,0.5,0.2,0.5,0.5
			c0,0.3-0.2,0.5-0.5,0.5c-6.1,0-11.1-5-11.1-11.1C379.8,364.1,384.7,359.1,390.8,359.1 M390.8,358.8c-6.3,0-11.4,5.1-11.4,11.4
			c0,6.3,5.1,11.4,11.4,11.4c0.4,0,0.8-0.4,0.8-0.8c0-0.4-0.4-0.8-0.8-0.8c-5.4,0-9.8-4.4-9.8-9.8c0-5.4,4.4-9.8,9.8-9.8
			c5.1,0,9.4,3.9,9.8,9h-9.8c-0.4,0-0.8,0.4-0.8,0.8c0,0.4,0.4,0.8,0.8,0.8h10.6c0.4,0,0.8-0.4,0.8-0.8
			C402.2,363.9,397.1,358.8,390.8,358.8L390.8,358.8z"/>
	</g>
	<g>
		<path fill="#FFFFFF" d="M483.1,381.4c-6.2,0-11.2-5-11.2-11.2c0-6.2,5-11.2,11.2-11.2c6.2,0,11.2,5,11.2,11.2
			c0,0.4-0.3,0.6-0.6,0.6h-10.6c-0.4,0-0.6-0.3-0.6-0.6c0-0.4,0.3-0.6,0.6-0.6h9.9c-0.3-5.2-4.7-9.3-9.9-9.3c-5.5,0-10,4.5-10,10
			c0,5.5,4.5,10,10,10c0.4,0,0.6,0.3,0.6,0.6C483.7,381.2,483.4,381.4,483.1,381.4z"/>
		<path fill="#FFFFFF" d="M483.1,359.1c6.1,0,11.1,5,11.1,11.1c0,0.3-0.2,0.5-0.5,0.5h-10.6c-0.3,0-0.5-0.2-0.5-0.5
			c0-0.3,0.2-0.5,0.5-0.5h10.1c-0.2-5.4-4.7-9.7-10.1-9.7c-5.6,0-10.1,4.5-10.1,10.1c0,5.6,4.5,10.1,10.1,10.1
			c0.3,0,0.5,0.2,0.5,0.5c0,0.3-0.2,0.5-0.5,0.5c-6.1,0-11.1-5-11.1-11.1C472,364.1,477,359.1,483.1,359.1 M483.1,358.8
			c-6.3,0-11.4,5.1-11.4,11.4c0,6.3,5.1,11.4,11.4,11.4c0.4,0,0.8-0.4,0.8-0.8c0-0.4-0.4-0.8-0.8-0.8c-5.4,0-9.8-4.4-9.8-9.8
			c0-5.4,4.4-9.8,9.8-9.8c5.1,0,9.4,3.9,9.8,9h-9.8c-0.4,0-0.8,0.4-0.8,0.8c0,0.4,0.4,0.8,0.8,0.8h10.6c0.4,0,0.8-0.4,0.8-0.8
			C494.5,363.9,489.4,358.8,483.1,358.8L483.1,358.8z"/>
	</g>
	<g>
		<path fill="#FFFFFF" d="M408.8,392c-0.4,0-0.6-0.3-0.6-0.6v-31.8c0-6.2,5-11.2,11.2-11.2c0.4,0,0.6,0.3,0.6,0.6
			c0,0.4-0.3,0.6-0.6,0.6c-5.5,0-10,4.4-10,9.9v9.9h10c0.4,0,0.6,0.3,0.6,0.6c0,0.4-0.3,0.6-0.6,0.6h-10v20.6
			C409.4,391.7,409.1,392,408.8,392z"/>
		<path fill="#FFFFFF" d="M419.4,348.6c0.3,0,0.5,0.2,0.5,0.5c0,0.3-0.2,0.5-0.5,0.5c-5.6,0-10.1,4.5-10.1,10.1v10.1h10.1
			c0.3,0,0.5,0.2,0.5,0.5c0,0.3-0.2,0.5-0.5,0.5h-10.1v20.7c0,0.3-0.2,0.5-0.5,0.5c-0.3,0-0.5-0.2-0.5-0.5v-31.8
			C408.3,353.5,413.3,348.6,419.4,348.6 M419.4,348.2c-6.3,0-11.4,5.1-11.4,11.4v31.8c0,0.4,0.4,0.8,0.8,0.8c0.4,0,0.8-0.4,0.8-0.8
			V371h9.8c0.4,0,0.8-0.4,0.8-0.8c0-0.4-0.4-0.8-0.8-0.8h-9.8v-9.7c0-5.4,4.4-9.7,9.8-9.7c0.4,0,0.8-0.4,0.8-0.8
			C420.2,348.6,419.8,348.2,419.4,348.2L419.4,348.2z"/>
	</g>
	<g>
		<path fill="#FFFFFF" d="M352.2,391.9c-0.4,0-0.6-0.3-0.6-0.6V370c0-6.2,5-11.2,11.2-11.2c6.2,0,11.2,5,11.2,11.2
			c0,6.2-5,11.2-11.2,11.2c-0.4,0-0.6-0.3-0.6-0.6c0-0.4,0.3-0.6,0.6-0.6c5.5,0,10-4.5,10-10c0-5.5-4.5-10-10-10
			c-5.5,0-10,4.5-10,10v21.2C352.9,391.6,352.6,391.9,352.2,391.9z"/>
		<path fill="#FFFFFF" d="M362.8,358.9c6.1,0,11.1,5,11.1,11.1c0,6.1-5,11.1-11.1,11.1c-0.3,0-0.5-0.2-0.5-0.5
			c0-0.3,0.2-0.5,0.5-0.5c5.6,0,10.1-4.5,10.1-10.1c0-5.6-4.5-10.1-10.1-10.1c-5.6,0-10.1,4.5-10.1,10.1v0v21.2
			c0,0.3-0.2,0.5-0.5,0.5c-0.3,0-0.5-0.2-0.5-0.5V370c0,0,0,0,0,0C351.7,363.9,356.7,358.9,362.8,358.9 M362.8,358.6
			c-6.3,0-11.4,5.1-11.4,11.4v21.2c0,0.4,0.4,0.8,0.8,0.8c0.4,0,0.8-0.4,0.8-0.8V370c0-5.4,4.4-9.8,9.8-9.8c5.4,0,9.8,4.4,9.8,9.8
			c0,5.4-4.4,9.8-9.8,9.8c-0.4,0-0.8,0.4-0.8,0.8c0,0.4,0.4,0.8,0.8,0.8c6.3,0,11.4-5.1,11.4-11.4
			C374.2,363.7,369.1,358.6,362.8,358.6L362.8,358.6z"/>
	</g>
	<g>
		<path fill="#FFFFFF" d="M337.1,391.5c-0.4,0-0.6-0.3-0.6-0.6v-10.5l-10.5-21c-0.2-0.3,0-0.7,0.3-0.9c0.1,0,0.2-0.1,0.3-0.1
			c0.2,0,0.5,0.1,0.6,0.4l10,20l10-20.1c0.1-0.2,0.3-0.4,0.6-0.4c0.1,0,0.2,0,0.3,0.1c0.2,0.1,0.3,0.2,0.3,0.4c0.1,0.2,0,0.3,0,0.5
			l-10.5,21.1v10.5C337.7,391.3,337.4,391.5,337.1,391.5z"/>
		<path fill="#FFFFFF" d="M347.7,358.6c0.1,0,0.1,0,0.2,0c0.2,0.1,0.3,0.4,0.2,0.6l-10.6,21.1v10.5c0,0.3-0.2,0.5-0.5,0.5
			c-0.3,0-0.5-0.2-0.5-0.5v-10.5l-10.6-21.1c-0.1-0.2,0-0.5,0.2-0.6c0.1,0,0.1,0,0.2,0c0.2,0,0.3,0.1,0.4,0.3l10.2,20.3l10.2-20.4
			C347.4,358.7,347.5,358.6,347.7,358.6 M347.7,358.3c-0.3,0-0.6,0.2-0.7,0.4l-9.9,19.8l-9.9-19.7c-0.1-0.3-0.4-0.4-0.7-0.4
			c-0.1,0-0.2,0-0.4,0.1c-0.4,0.2-0.6,0.7-0.4,1.1l10.5,21v10.4c0,0.4,0.4,0.8,0.8,0.8c0.4,0,0.8-0.4,0.8-0.8v-10.4l10.5-21
			c0.1-0.2,0.1-0.4,0-0.6c-0.1-0.2-0.2-0.4-0.4-0.5C347.9,358.3,347.8,358.3,347.7,358.3L347.7,358.3z"/>
	</g>
</g>
</svg>
