<?xml version="1.0" encoding="utf-8"?>
<!-- Generator: Adobe Illustrator 17.1.0, SVG Export Plug-In . SVG Version: 6.00 Build 0)  -->
<!DOCTYPE svg PUBLIC "-//W3C//DTD SVG 1.1//EN" "http://www.w3.org/Graphics/SVG/1.1/DTD/svg11.dtd">
<svg version="1.1" id="Layer_1" xmlns="http://www.w3.org/2000/svg" xmlns:xlink="http://www.w3.org/1999/xlink" x="0px" y="0px"
	 viewBox="20.7 7.2 800 568.6" enable-background="new 20.7 7.2 800 568.6" xml:space="preserve">
<g id="Background" display="none">
	<rect x="-8" y="-255" display="inline" fill="#DFE1D7" width="857.4" height="1059.4"/>
</g>
<g id="Layer_1_1_">
	<g>
		<path fill="#E7BA3A" d="M253.6,198c-35.2,0-63.9-28.7-63.9-63.9s28.7-63.9,63.9-63.9s63.9,28.7,63.9,63.9c0,1.3-1,2.3-2.3,2.3
			c-1.3,0-2.3-1-2.3-2.3c0-32.7-26.6-59.4-59.4-59.4c-32.7,0-59.4,26.6-59.4,59.4c0,32.7,26.6,59.4,59.4,59.4c1.3,0,2.3,1,2.3,2.3
			C255.8,197,254.8,198,253.6,198z"/>
	</g>
	<g>
		<path fill="#E7BA3A" d="M315.2,136.4h-61.7c-1.3,0-2.3-1-2.3-2.3c0-1.3,1-2.3,2.3-2.3h61.7c1.3,0,2.3,1,2.3,2.3
			C317.5,135.4,316.5,136.4,315.2,136.4z"/>
	</g>
	<g>
		<path fill="#B02569" d="M147.8,75c-1.3,0-2.3-1-2.3-2.3c0-32.6-26.6-59.1-59.4-59.1c-32.7,0-59.4,26.5-59.4,59.1
			c0,1.3-1,2.3-2.3,2.3c-1.3,0-2.3-1-2.3-2.3c0-35.1,28.7-63.6,63.9-63.6s63.9,28.5,63.9,63.6C150.1,74,149.1,75,147.8,75z"/>
	</g>
	<g>
		<path fill="#B02569" d="M86.2,136.4c-1.3,0-2.3-1-2.3-2.3c0-1.3,1-2.3,2.3-2.3c32.7,0,59.4-26.5,59.4-59.1
			c0-32.6-26.6-59.1-59.4-59.1c-1.3,0-2.3-1-2.3-2.3s1-2.3,2.3-2.3c35.2,0,63.9,28.5,63.9,63.6C150.1,107.8,121.4,136.4,86.2,136.4z
			"/>
	</g>
	<g>
		<path fill="#B02569" d="M24.5,198c-1.3,0-2.3-1-2.3-2.3V72.8c0-1.3,1-2.3,2.3-2.3c1.3,0,2.3,1,2.3,2.3v122.9
			C26.8,196.9,25.8,198,24.5,198z"/>
	</g>
	<g>
		<path fill="#00A89E" d="M482.6,198.2c-1.3,0-2.3-1-2.3-2.3v-61.8c0-1.3,1-2.3,2.3-2.3c1.3,0,2.3,1,2.3,2.3v61.8
			C484.9,197.2,483.8,198.2,482.6,198.2z"/>
	</g>
	<g>
		<path fill="#00A89E" d="M420.9,198c-35.2,0-63.9-28.7-63.9-63.9s28.7-63.9,63.9-63.9c35.2,0,63.9,28.7,63.9,63.9
			c0,1.3-1,2.3-2.3,2.3c-1.3,0-2.3-1-2.3-2.3c0-32.7-26.6-59.4-59.4-59.4c-32.7,0-59.4,26.6-59.4,59.4c0,32.7,26.6,59.4,59.4,59.4
			c1.3,0,2.3,1,2.3,2.3C423.2,197,422.2,198,420.9,198z"/>
	</g>
	<g>
		<path fill="#00A89E" d="M420.9,259.7c-1.3,0-2.3-1-2.3-2.3c0-1.3,1-2.3,2.3-2.3c32.7,0,59.4-26.6,59.4-59.4c0-1.3,1-2.3,2.3-2.3
			s2.3,1,2.3,2.3C484.9,231,456.2,259.7,420.9,259.7z"/>
	</g>
	<g>
		<path fill="#8B5E3C" d="M526.7,136.2c-1.3,0-2.3-1-2.3-2.3c0-35.2,28.7-63.9,63.9-63.9c1.3,0,2.3,1,2.3,2.3c0,1.3-1,2.3-2.3,2.3
			c-32.7,0-59.4,26.6-59.4,59.4C529,135.2,528,136.2,526.7,136.2z"/>
	</g>
	<g>
		<path fill="#8B5E3C" d="M526.7,197.9c-1.3,0-2.3-1-2.3-2.3V134c0-1.3,1-2.3,2.3-2.3c1.3,0,2.3,1,2.3,2.3v61.7
			C529,196.9,528,197.9,526.7,197.9z"/>
	</g>
	<path fill="#DE6335" d="M755.2,197.8c-35.2,0-63.9-28.7-63.9-63.9c0-35.2,28.7-63.9,63.9-63.9s63.9,28.7,63.9,63.9
		C819.2,169.1,790.5,197.8,755.2,197.8z M755.2,74.5c-32.7,0-59.4,26.6-59.4,59.4c0,32.7,26.6,59.4,59.4,59.4
		c32.7,0,59.4-26.6,59.4-59.4C814.6,101.1,788,74.5,755.2,74.5z"/>
	<g>
		<path fill="#00818B" d="M253.6,512.5c-35.2,0-63.9-28.7-63.9-63.9c0-1.3,1-2.3,2.3-2.3s2.3,1,2.3,2.3c0,32.7,26.6,59.4,59.4,59.4
			c32.7,0,59.4-26.6,59.4-59.4c0-32.7-26.6-59.4-59.4-59.4c-1.3,0-2.3-1-2.3-2.3c0-1.3,1-2.3,2.3-2.3c35.2,0,63.9,28.7,63.9,63.9
			S288.8,512.5,253.6,512.5z"/>
	</g>
	<g>
		<path fill="#00818B" d="M315.2,328H191.9c-1.3,0-2.3-1-2.3-2.3s1-2.3,2.3-2.3h123.3c1.3,0,2.3,1,2.3,2.3
			C317.5,327,316.5,328,315.2,328z"/>
	</g>
	<g>
		<path fill="#00818B" d="M253.5,389.2c-0.6,0-1.2-0.2-1.6-0.7c-0.9-0.9-0.9-2.3,0-3.2l61.7-61.1c0.9-0.9,2.3-0.9,3.2,0
			c0.9,0.9,0.9,2.3,0,3.2l-61.7,61.1C254.7,388.9,254.1,389.2,253.5,389.2z"/>
	</g>
	<g>
		<path fill="#B02569" d="M420.8,512.6c-35.3,0-64-28.7-64-64c0-1.3,1-2.3,2.3-2.3c1.3,0,2.3,1,2.3,2.3c0,32.8,26.7,59.5,59.5,59.5
			s59.5-26.7,59.5-59.5c0-1.3,1-2.3,2.3-2.3c1.3,0,2.3,1,2.3,2.3C484.9,483.9,456.1,512.6,420.8,512.6z"/>
	</g>
	<g>
		<path fill="#B02569" d="M482.6,389.4c-1.3,0-2.3-1-2.3-2.3c0-32.6-26.7-59.2-59.5-59.2c-32.8,0-59.5,26.5-59.5,59.2
			c0,1.3-1,2.3-2.3,2.3s-2.3-1-2.3-2.3c0-35.1,28.7-63.7,64-63.7c35.3,0,64,28.6,64,63.7C484.9,388.4,483.8,389.4,482.6,389.4z"/>
	</g>
	<g>
		<path fill="#B02569" d="M359.1,450.8c-1.3,0-2.3-1-2.3-2.3v-61.4c0-1.3,1-2.3,2.3-2.3c1.3,0,2.3,1,2.3,2.3v61.4
			C361.4,449.8,360.4,450.8,359.1,450.8z"/>
	</g>
	<g>
		<path fill="#B02569" d="M482.6,450.8c-1.3,0-2.3-1-2.3-2.3v-61.4c0-1.3,1-2.3,2.3-2.3c1.3,0,2.3,1,2.3,2.3v61.4
			C484.9,449.8,483.8,450.8,482.6,450.8z"/>
	</g>
	<g>
		<path fill="#B02569" d="M359.1,450.8c-0.8,0-1.6-0.5-2-1.3c-0.6-1.1-0.1-2.5,1-3l123.5-61.4c1.1-0.6,2.5-0.1,3,1
			c0.6,1.1,0.1,2.5-1,3l-123.5,61.4C359.8,450.8,359.4,450.8,359.1,450.8z"/>
	</g>
	<g opacity="0.2">
		<g>
			<path opacity="0.4" fill="#FFFFFF" enable-background="new    " d="M253.6,103.1c-25.8,0-46.7-20.7-46.7-46.1s21-46.1,46.7-46.1
				c25.8,0,46.7,20.7,46.7,46.1S279.3,103.1,253.6,103.1z M253.6,11.8c-25.3,0-45.8,20.3-45.8,45.2c0,24.9,20.5,45.2,45.8,45.2
				c25.3,0,45.8-20.3,45.8-45.2S278.8,11.8,253.6,11.8z"/>
			<path opacity="0.4" fill="#FFFFFF" enable-background="new    " d="M253.6,196.1c-25.8,0-46.7-21.1-46.7-47c0-25.9,21-47,46.7-47
				c25.8,0,46.7,21.1,46.7,47C300.3,175.1,279.3,196.1,253.6,196.1z M253.6,103.1c-25.3,0-45.8,20.7-45.8,46.1s20.5,46.1,45.8,46.1
				c25.3,0,45.8-20.7,45.8-46.1C299.4,123.7,278.8,103.1,253.6,103.1z"/>
			<circle fill="#FFFFFF" cx="191.9" cy="72.4" r="3.8"/>
			<circle fill="#FFFFFF" cx="253.6" cy="72.4" r="3.8"/>
			<path fill="#FFFFFF" d="M191.9,8.4c1.6,0,2.9,1.3,2.9,2.9c0,1.6-1.3,2.9-2.9,2.9s-2.9-1.3-2.9-2.9C189,9.7,190.3,8.4,191.9,8.4
				 M191.9,7.5c-2.1,0-3.8,1.7-3.8,3.8c0,2.1,1.7,3.8,3.8,3.8c2.1,0,3.8-1.7,3.8-3.8C195.7,9.2,194,7.5,191.9,7.5L191.9,7.5z"/>
			<path fill="#FFFFFF" d="M253.6,8.4c1.6,0,2.9,1.3,2.9,2.9c0,1.6-1.3,2.9-2.9,2.9s-2.9-1.3-2.9-2.9C250.7,9.7,252,8.4,253.6,8.4
				 M253.6,7.5c-2.1,0-3.8,1.7-3.8,3.8c0,2.1,1.7,3.8,3.8,3.8s3.8-1.7,3.8-3.8C257.4,9.2,255.7,7.5,253.6,7.5L253.6,7.5z"/>
			<path fill="#FFFFFF" d="M191.9,99.7c1.6,0,2.9,1.3,2.9,2.9c0,1.6-1.3,2.9-2.9,2.9s-2.9-1.3-2.9-2.9
				C189,101,190.3,99.7,191.9,99.7 M191.9,98.8c-2.1,0-3.8,1.7-3.8,3.8c0,2.1,1.7,3.8,3.8,3.8c2.1,0,3.8-1.7,3.8-3.8
				C195.7,100.5,194,98.8,191.9,98.8L191.9,98.8z"/>
			<path fill="#FFFFFF" d="M253.6,99.7c1.6,0,2.9,1.3,2.9,2.9c0,1.6-1.3,2.9-2.9,2.9s-2.9-1.3-2.9-2.9
				C250.7,101,252,99.7,253.6,99.7 M253.6,98.8c-2.1,0-3.8,1.7-3.8,3.8c0,2.1,1.7,3.8,3.8,3.8s3.8-1.7,3.8-3.8
				C257.4,100.5,255.7,98.8,253.6,98.8L253.6,98.8z"/>
			<path fill="#FFFFFF" d="M315.2,8.4c1.6,0,2.9,1.3,2.9,2.9c0,1.6-1.3,2.9-2.9,2.9c-1.6,0-2.9-1.3-2.9-2.9
				C312.3,9.7,313.6,8.4,315.2,8.4 M315.2,7.5c-2.1,0-3.8,1.7-3.8,3.8c0,2.1,1.7,3.8,3.8,3.8c2.1,0,3.8-1.7,3.8-3.8
				C319,9.2,317.3,7.5,315.2,7.5L315.2,7.5z"/>
			<path fill="#FFFFFF" d="M315.2,99.7c1.6,0,2.9,1.3,2.9,2.9c0,1.6-1.3,2.9-2.9,2.9c-1.6,0-2.9-1.3-2.9-2.9
				C312.3,101,313.6,99.7,315.2,99.7 M315.2,98.8c-2.1,0-3.8,1.7-3.8,3.8c0,2.1,1.7,3.8,3.8,3.8c2.1,0,3.8-1.7,3.8-3.8
				C319,100.5,317.3,98.8,315.2,98.8L315.2,98.8z"/>
			<circle fill="#FFFFFF" cx="191.9" cy="134.1" r="3.8"/>
			<circle fill="#FFFFFF" cx="253.6" cy="134.1" r="3.8"/>
			<circle fill="#FFFFFF" cx="315.2" cy="134.1" r="3.8"/>
			<circle fill="#FFFFFF" cx="191.9" cy="195.8" r="3.8"/>
			<circle fill="#FFFFFF" cx="253.6" cy="195.8" r="3.8"/>
			<circle fill="#FFFFFF" cx="315.2" cy="72.4" r="3.8"/>
			<circle fill="#FFFFFF" cx="315.2" cy="195.8" r="3.8"/>
			<path fill="#FFFFFF" d="M253.6,196.2c-34.2,0-62.1-27.9-62.1-62.1S219.3,72,253.6,72s62.1,27.9,62.1,62.1
				S287.8,196.2,253.6,196.2z M253.6,72.9c-33.7,0-61.2,27.5-61.2,61.2s27.5,61.2,61.2,61.2s61.2-27.5,61.2-61.2
				S287.3,72.9,253.6,72.9z"/>
			<path fill="#FFFFFF" d="M253.6,257.9c-34.2,0-62.1-27.9-62.1-62.1s27.9-62.1,62.1-62.1s62.1,27.9,62.1,62.1
				S287.8,257.9,253.6,257.9z M253.6,134.6c-33.7,0-61.2,27.5-61.2,61.2s27.5,61.2,61.2,61.2s61.2-27.5,61.2-61.2
				S287.3,134.6,253.6,134.6z"/>
			<path fill="#FFFFFF" d="M253.6,134.6c-34.2,0-62.1-27.7-62.1-61.8S219.3,11,253.6,11s62.1,27.7,62.1,61.8
				S287.8,134.6,253.6,134.6z M253.6,11.9c-33.7,0-61.2,27.3-61.2,60.9s27.5,60.9,61.2,60.9s61.2-27.3,61.2-60.9
				S287.3,11.9,253.6,11.9z"/>
			<circle fill="#FFFFFF" cx="191.9" cy="257.4" r="3.8"/>
			<circle fill="#FFFFFF" cx="253.6" cy="257.4" r="3.8"/>
			<circle fill="#FFFFFF" cx="315.2" cy="257.4" r="3.8"/>
			<path opacity="0.4" fill="#FFFFFF" enable-background="new    " d="M86.2,103.1c-25.8,0-46.7-20.7-46.7-46.1s21-46.1,46.7-46.1
				c25.8,0,46.7,20.7,46.7,46.1S111.9,103.1,86.2,103.1z M86.2,11.8C60.9,11.8,40.4,32,40.4,57c0,24.9,20.5,45.2,45.8,45.2
				c25.3,0,45.8-20.3,45.8-45.2S111.4,11.8,86.2,11.8z"/>
			<path opacity="0.4" fill="#FFFFFF" enable-background="new    " d="M86.2,196.1c-25.8,0-46.7-21.1-46.7-47c0-25.9,21-47,46.7-47
				c25.8,0,46.7,21.1,46.7,47C132.9,175.1,111.9,196.1,86.2,196.1z M86.2,103.1c-25.3,0-45.8,20.7-45.8,46.1s20.5,46.1,45.8,46.1
				c25.3,0,45.8-20.7,45.8-46.1C132,123.7,111.4,103.1,86.2,103.1z"/>
			<circle fill="#FFFFFF" cx="24.5" cy="72.4" r="3.8"/>
			<circle fill="#FFFFFF" cx="86.2" cy="72.4" r="3.8"/>
			<path fill="#FFFFFF" d="M24.5,8.4c1.6,0,2.9,1.3,2.9,2.9c0,1.6-1.3,2.9-2.9,2.9s-2.9-1.3-2.9-2.9C21.6,9.7,22.9,8.4,24.5,8.4
				 M24.5,7.5c-2.1,0-3.8,1.7-3.8,3.8c0,2.1,1.7,3.8,3.8,3.8c2.1,0,3.8-1.7,3.8-3.8C28.3,9.2,26.6,7.5,24.5,7.5L24.5,7.5z"/>
			<path fill="#FFFFFF" d="M86.2,8.4c1.6,0,2.9,1.3,2.9,2.9c0,1.6-1.3,2.9-2.9,2.9c-1.6,0-2.9-1.3-2.9-2.9
				C83.3,9.7,84.6,8.4,86.2,8.4 M86.2,7.5c-2.1,0-3.8,1.7-3.8,3.8c0,2.1,1.7,3.8,3.8,3.8c2.1,0,3.8-1.7,3.8-3.8
				C90,9.2,88.3,7.5,86.2,7.5L86.2,7.5z"/>
			<path fill="#FFFFFF" d="M24.5,99.7c1.6,0,2.9,1.3,2.9,2.9c0,1.6-1.3,2.9-2.9,2.9s-2.9-1.3-2.9-2.9C21.6,101,22.9,99.7,24.5,99.7
				 M24.5,98.8c-2.1,0-3.8,1.7-3.8,3.8c0,2.1,1.7,3.8,3.8,3.8c2.1,0,3.8-1.7,3.8-3.8C28.3,100.5,26.6,98.8,24.5,98.8L24.5,98.8z"/>
			<path fill="#FFFFFF" d="M86.2,99.7c1.6,0,2.9,1.3,2.9,2.9c0,1.6-1.3,2.9-2.9,2.9c-1.6,0-2.9-1.3-2.9-2.9
				C83.3,101,84.6,99.7,86.2,99.7 M86.2,98.8c-2.1,0-3.8,1.7-3.8,3.8c0,2.1,1.7,3.8,3.8,3.8c2.1,0,3.8-1.7,3.8-3.8
				C90,100.5,88.3,98.8,86.2,98.8L86.2,98.8z"/>
			<path fill="#FFFFFF" d="M147.8,8.4c1.6,0,2.9,1.3,2.9,2.9c0,1.6-1.3,2.9-2.9,2.9s-2.9-1.3-2.9-2.9C144.9,9.7,146.2,8.4,147.8,8.4
				 M147.8,7.5c-2.1,0-3.8,1.7-3.8,3.8c0,2.1,1.7,3.8,3.8,3.8c2.1,0,3.8-1.7,3.8-3.8C151.6,9.2,149.9,7.5,147.8,7.5L147.8,7.5z"/>
			<path fill="#FFFFFF" d="M147.8,99.7c1.6,0,2.9,1.3,2.9,2.9c0,1.6-1.3,2.9-2.9,2.9s-2.9-1.3-2.9-2.9
				C144.9,101,146.2,99.7,147.8,99.7 M147.8,98.8c-2.1,0-3.8,1.7-3.8,3.8c0,2.1,1.7,3.8,3.8,3.8c2.1,0,3.8-1.7,3.8-3.8
				C151.6,100.5,149.9,98.8,147.8,98.8L147.8,98.8z"/>
			<circle fill="#FFFFFF" cx="24.5" cy="134.1" r="3.8"/>
			<circle fill="#FFFFFF" cx="86.2" cy="134.1" r="3.8"/>
			<circle fill="#FFFFFF" cx="147.8" cy="134.1" r="3.8"/>
			<circle fill="#FFFFFF" cx="24.5" cy="195.8" r="3.8"/>
			<circle fill="#FFFFFF" cx="86.2" cy="195.8" r="3.8"/>
			<circle fill="#FFFFFF" cx="147.8" cy="72.4" r="3.8"/>
			<circle fill="#FFFFFF" cx="147.8" cy="195.8" r="3.8"/>
			<path fill="#FFFFFF" d="M86.2,196.2c-34.2,0-62.1-27.9-62.1-62.1S51.9,72,86.2,72s62.1,27.9,62.1,62.1S120.4,196.2,86.2,196.2z
				 M86.2,72.9c-33.7,0-61.2,27.5-61.2,61.2s27.5,61.2,61.2,61.2c33.7,0,61.2-27.5,61.2-61.2S119.9,72.9,86.2,72.9z"/>
			<path fill="#FFFFFF" d="M86.2,257.9c-34.2,0-62.1-27.9-62.1-62.1s27.9-62.1,62.1-62.1s62.1,27.9,62.1,62.1
				S120.4,257.9,86.2,257.9z M86.2,134.6C52.4,134.6,25,162,25,195.8S52.4,257,86.2,257c33.7,0,61.2-27.5,61.2-61.2
				S119.9,134.6,86.2,134.6z"/>
			<path fill="#FFFFFF" d="M86.2,134.6c-34.2,0-62.1-27.7-62.1-61.8S51.9,11,86.2,11s62.1,27.7,62.1,61.8S120.4,134.6,86.2,134.6z
				 M86.2,11.9C52.4,11.9,25,39.2,25,72.8s27.5,60.9,61.2,60.9c33.7,0,61.2-27.3,61.2-60.9S119.9,11.9,86.2,11.9z"/>
			<circle fill="#FFFFFF" cx="24.5" cy="257.4" r="3.8"/>
			<circle fill="#FFFFFF" cx="86.2" cy="257.4" r="3.8"/>
			<circle fill="#FFFFFF" cx="147.8" cy="257.4" r="3.8"/>
			<path opacity="0.4" fill="#FFFFFF" enable-background="new    " d="M420.9,103.1c-25.8,0-46.7-20.7-46.7-46.1s21-46.1,46.7-46.1
				s46.7,20.7,46.7,46.1S446.7,103.1,420.9,103.1z M420.9,11.8c-25.3,0-45.8,20.3-45.8,45.2c0,24.9,20.5,45.2,45.8,45.2
				c25.3,0,45.8-20.3,45.8-45.2C466.7,32,446.2,11.8,420.9,11.8z"/>
			<path opacity="0.4" fill="#FFFFFF" enable-background="new    " d="M420.9,196.1c-25.8,0-46.7-21.1-46.7-47c0-25.9,21-47,46.7-47
				s46.7,21.1,46.7,47C467.6,175.1,446.7,196.1,420.9,196.1z M420.9,103.1c-25.3,0-45.8,20.7-45.8,46.1s20.5,46.1,45.8,46.1
				c25.3,0,45.8-20.7,45.8-46.1C466.7,123.7,446.2,103.1,420.9,103.1z"/>
			<circle fill="#FFFFFF" cx="359.3" cy="72.4" r="3.8"/>
			<circle fill="#FFFFFF" cx="420.9" cy="72.4" r="3.8"/>
			<path fill="#FFFFFF" d="M359.3,8.4c1.6,0,2.9,1.3,2.9,2.9c0,1.6-1.3,2.9-2.9,2.9s-2.9-1.3-2.9-2.9C356.4,9.7,357.7,8.4,359.3,8.4
				 M359.3,7.5c-2.1,0-3.8,1.7-3.8,3.8c0,2.1,1.7,3.8,3.8,3.8s3.8-1.7,3.8-3.8C363.1,9.2,361.4,7.5,359.3,7.5L359.3,7.5z"/>
			<path fill="#FFFFFF" d="M420.9,8.4c1.6,0,2.9,1.3,2.9,2.9c0,1.6-1.3,2.9-2.9,2.9c-1.6,0-2.9-1.3-2.9-2.9
				C418,9.7,419.3,8.4,420.9,8.4 M420.9,7.5c-2.1,0-3.8,1.7-3.8,3.8c0,2.1,1.7,3.8,3.8,3.8c2.1,0,3.8-1.7,3.8-3.8
				C424.7,9.2,423,7.5,420.9,7.5L420.9,7.5z"/>
			<path fill="#FFFFFF" d="M359.3,99.7c1.6,0,2.9,1.3,2.9,2.9c0,1.6-1.3,2.9-2.9,2.9s-2.9-1.3-2.9-2.9
				C356.4,101,357.7,99.7,359.3,99.7 M359.3,98.8c-2.1,0-3.8,1.7-3.8,3.8c0,2.1,1.7,3.8,3.8,3.8s3.8-1.7,3.8-3.8
				C363.1,100.5,361.4,98.8,359.3,98.8L359.3,98.8z"/>
			<path fill="#FFFFFF" d="M420.9,99.7c1.6,0,2.9,1.3,2.9,2.9c0,1.6-1.3,2.9-2.9,2.9c-1.6,0-2.9-1.3-2.9-2.9
				C418,101,419.3,99.7,420.9,99.7 M420.9,98.8c-2.1,0-3.8,1.7-3.8,3.8c0,2.1,1.7,3.8,3.8,3.8c2.1,0,3.8-1.7,3.8-3.8
				C424.7,100.5,423,98.8,420.9,98.8L420.9,98.8z"/>
			<path fill="#FFFFFF" d="M482.6,8.4c1.6,0,2.9,1.3,2.9,2.9c0,1.6-1.3,2.9-2.9,2.9c-1.6,0-2.9-1.3-2.9-2.9
				C479.7,9.7,481,8.4,482.6,8.4 M482.6,7.5c-2.1,0-3.8,1.7-3.8,3.8c0,2.1,1.7,3.8,3.8,3.8c2.1,0,3.8-1.7,3.8-3.8
				C486.4,9.2,484.7,7.5,482.6,7.5L482.6,7.5z"/>
			<path fill="#FFFFFF" d="M482.6,99.7c1.6,0,2.9,1.3,2.9,2.9c0,1.6-1.3,2.9-2.9,2.9c-1.6,0-2.9-1.3-2.9-2.9
				C479.7,101,481,99.7,482.6,99.7 M482.6,98.8c-2.1,0-3.8,1.7-3.8,3.8c0,2.1,1.7,3.8,3.8,3.8c2.1,0,3.8-1.7,3.8-3.8
				C486.4,100.5,484.7,98.8,482.6,98.8L482.6,98.8z"/>
			<circle fill="#FFFFFF" cx="359.3" cy="134.1" r="3.8"/>
			<circle fill="#FFFFFF" cx="420.9" cy="134.1" r="3.8"/>
			<circle fill="#FFFFFF" cx="482.6" cy="134.1" r="3.8"/>
			<circle fill="#FFFFFF" cx="359.3" cy="195.8" r="3.8"/>
			<circle fill="#FFFFFF" cx="420.9" cy="195.8" r="3.8"/>
			<circle fill="#FFFFFF" cx="482.6" cy="72.4" r="3.8"/>
			<circle fill="#FFFFFF" cx="482.6" cy="195.8" r="3.8"/>
			<path fill="#FFFFFF" d="M420.9,196.2c-34.2,0-62.1-27.9-62.1-62.1S386.7,72,420.9,72c34.2,0,62.1,27.9,62.1,62.1
				S455.2,196.2,420.9,196.2z M420.9,72.9c-33.7,0-61.2,27.5-61.2,61.2s27.5,61.2,61.2,61.2c33.7,0,61.2-27.5,61.2-61.2
				S454.7,72.9,420.9,72.9z"/>
			<path fill="#FFFFFF" d="M420.9,257.9c-34.2,0-62.1-27.9-62.1-62.1s27.9-62.1,62.1-62.1c34.2,0,62.1,27.9,62.1,62.1
				S455.2,257.9,420.9,257.9z M420.9,134.6c-33.7,0-61.2,27.5-61.2,61.2s27.5,61.2,61.2,61.2c33.7,0,61.2-27.5,61.2-61.2
				S454.7,134.6,420.9,134.6z"/>
			<path fill="#FFFFFF" d="M420.9,134.6c-34.2,0-62.1-27.7-62.1-61.8S386.7,11,420.9,11c34.2,0,62.1,27.7,62.1,61.8
				S455.2,134.6,420.9,134.6z M420.9,11.9c-33.7,0-61.2,27.3-61.2,60.9s27.5,60.9,61.2,60.9c33.7,0,61.2-27.3,61.2-60.9
				S454.7,11.9,420.9,11.9z"/>
			<circle fill="#FFFFFF" cx="359.3" cy="257.4" r="3.8"/>
			<circle fill="#FFFFFF" cx="420.9" cy="257.4" r="3.8"/>
			<circle fill="#FFFFFF" cx="482.6" cy="257.4" r="3.8"/>
			<path opacity="0.4" fill="#FFFFFF" enable-background="new    " d="M588.4,102.9c-25.8,0-46.7-20.7-46.7-46.1
				c0-25.4,21-46.1,46.7-46.1s46.7,20.7,46.7,46.1C635.1,82.3,614.1,102.9,588.4,102.9z M588.4,11.6c-25.3,0-45.8,20.3-45.8,45.2
				c0,24.9,20.5,45.2,45.8,45.2s45.8-20.3,45.8-45.2C634.2,31.9,613.6,11.6,588.4,11.6z"/>
			<path opacity="0.4" fill="#FFFFFF" enable-background="new    " d="M588.4,196c-25.8,0-46.7-21.1-46.7-47c0-25.9,21-47,46.7-47
				s46.7,21.1,46.7,47C635.1,174.9,614.1,196,588.4,196z M588.4,102.9c-25.3,0-45.8,20.7-45.8,46.1c0,25.4,20.5,46.1,45.8,46.1
				s45.8-20.7,45.8-46.1C634.2,123.6,613.6,102.9,588.4,102.9z"/>
			<circle fill="#FFFFFF" cx="526.7" cy="72.3" r="3.8"/>
			<circle fill="#FFFFFF" cx="588.4" cy="72.3" r="3.8"/>
			<path fill="#FFFFFF" d="M526.7,8.3c1.6,0,2.9,1.3,2.9,2.9c0,1.6-1.3,2.9-2.9,2.9s-2.9-1.3-2.9-2.9C523.8,9.6,525.1,8.3,526.7,8.3
				 M526.7,7.4c-2.1,0-3.8,1.7-3.8,3.8c0,2.1,1.7,3.8,3.8,3.8c2.1,0,3.8-1.7,3.8-3.8C530.5,9.1,528.8,7.4,526.7,7.4L526.7,7.4z"/>
			<path fill="#FFFFFF" d="M588.4,8.3c1.6,0,2.9,1.3,2.9,2.9c0,1.6-1.3,2.9-2.9,2.9c-1.6,0-2.9-1.3-2.9-2.9
				C585.5,9.6,586.8,8.3,588.4,8.3 M588.4,7.4c-2.1,0-3.8,1.7-3.8,3.8c0,2.1,1.7,3.8,3.8,3.8c2.1,0,3.8-1.7,3.8-3.8
				C592.2,9.1,590.5,7.4,588.4,7.4L588.4,7.4z"/>
			<path fill="#FFFFFF" d="M526.7,99.6c1.6,0,2.9,1.3,2.9,2.9c0,1.6-1.3,2.9-2.9,2.9s-2.9-1.3-2.9-2.9
				C523.8,100.9,525.1,99.6,526.7,99.6 M526.7,98.7c-2.1,0-3.8,1.7-3.8,3.8c0,2.1,1.7,3.8,3.8,3.8c2.1,0,3.8-1.7,3.8-3.8
				C530.5,100.4,528.8,98.7,526.7,98.7L526.7,98.7z"/>
			<path fill="#FFFFFF" d="M588.4,99.6c1.6,0,2.9,1.3,2.9,2.9c0,1.6-1.3,2.9-2.9,2.9c-1.6,0-2.9-1.3-2.9-2.9
				C585.5,100.9,586.8,99.6,588.4,99.6 M588.4,98.7c-2.1,0-3.8,1.7-3.8,3.8c0,2.1,1.7,3.8,3.8,3.8c2.1,0,3.8-1.7,3.8-3.8
				C592.2,100.4,590.5,98.7,588.4,98.7L588.4,98.7z"/>
			<path fill="#FFFFFF" d="M650,8.3c1.6,0,2.9,1.3,2.9,2.9c0,1.6-1.3,2.9-2.9,2.9s-2.9-1.3-2.9-2.9C647.1,9.6,648.4,8.3,650,8.3
				 M650,7.4c-2.1,0-3.8,1.7-3.8,3.8c0,2.1,1.7,3.8,3.8,3.8s3.8-1.7,3.8-3.8C653.8,9.1,652.1,7.4,650,7.4L650,7.4z"/>
			<path fill="#FFFFFF" d="M650,99.6c1.6,0,2.9,1.3,2.9,2.9c0,1.6-1.3,2.9-2.9,2.9s-2.9-1.3-2.9-2.9
				C647.1,100.9,648.4,99.6,650,99.6 M650,98.7c-2.1,0-3.8,1.7-3.8,3.8c0,2.1,1.7,3.8,3.8,3.8s3.8-1.7,3.8-3.8
				C653.8,100.4,652.1,98.7,650,98.7L650,98.7z"/>
			<circle fill="#FFFFFF" cx="526.7" cy="134" r="3.8"/>
			<circle fill="#FFFFFF" cx="588.4" cy="134" r="3.8"/>
			<circle fill="#FFFFFF" cx="650" cy="134" r="3.8"/>
			<circle fill="#FFFFFF" cx="526.7" cy="195.6" r="3.8"/>
			<circle fill="#FFFFFF" cx="588.4" cy="195.6" r="3.8"/>
			<circle fill="#FFFFFF" cx="650" cy="72.3" r="3.8"/>
			<circle fill="#FFFFFF" cx="650" cy="195.6" r="3.8"/>
			<path fill="#FFFFFF" d="M588.4,196.1c-34.2,0-62.1-27.9-62.1-62.1c0-34.2,27.9-62.1,62.1-62.1c34.2,0,62.1,27.9,62.1,62.1
				C650.5,168.2,622.6,196.1,588.4,196.1z M588.4,72.8c-33.7,0-61.2,27.5-61.2,61.2s27.5,61.2,61.2,61.2c33.7,0,61.2-27.5,61.2-61.2
				S622.1,72.8,588.4,72.8z"/>
			<path fill="#FFFFFF" d="M588.4,257.7c-34.2,0-62.1-27.9-62.1-62.1c0-34.2,27.9-62.1,62.1-62.1c34.2,0,62.1,27.9,62.1,62.1
				C650.5,229.9,622.6,257.7,588.4,257.7z M588.4,134.4c-33.7,0-61.2,27.5-61.2,61.2c0,33.7,27.5,61.2,61.2,61.2
				c33.7,0,61.2-27.5,61.2-61.2C649.6,161.9,622.1,134.4,588.4,134.4z"/>
			<path fill="#FFFFFF" d="M588.4,134.4c-34.2,0-62.1-27.7-62.1-61.8s27.9-61.8,62.1-61.8c34.2,0,62.1,27.7,62.1,61.8
				S622.6,134.4,588.4,134.4z M588.4,11.8c-33.7,0-61.2,27.3-61.2,60.9s27.5,60.9,61.2,60.9c33.7,0,61.2-27.3,61.2-60.9
				S622.1,11.8,588.4,11.8z"/>
			<circle fill="#FFFFFF" cx="526.7" cy="257.3" r="3.8"/>
			<circle fill="#FFFFFF" cx="588.4" cy="257.3" r="3.8"/>
			<circle fill="#FFFFFF" cx="650" cy="257.3" r="3.8"/>
			<path opacity="0.4" fill="#FFFFFF" enable-background="new    " d="M755.2,102.8c-25.8,0-46.7-20.7-46.7-46.1
				c0-25.4,21-46.1,46.7-46.1c25.8,0,46.7,20.7,46.7,46.1C801.9,82.1,781,102.8,755.2,102.8z M755.2,11.5
				c-25.3,0-45.8,20.3-45.8,45.2c0,24.9,20.5,45.2,45.8,45.2c25.3,0,45.8-20.3,45.8-45.2S780.5,11.5,755.2,11.5z"/>
			<path opacity="0.4" fill="#FFFFFF" enable-background="new    " d="M755.2,195.9c-25.8,0-46.7-21.1-46.7-47s21-47,46.7-47
				c25.8,0,46.7,21.1,46.7,47C801.9,174.8,781,195.9,755.2,195.9z M755.2,102.8c-25.3,0-45.8,20.7-45.8,46.1
				c0,25.4,20.5,46.1,45.8,46.1c25.3,0,45.8-20.7,45.8-46.1C801,123.5,780.5,102.8,755.2,102.8z"/>
			<circle fill="#FFFFFF" cx="693.6" cy="72.2" r="3.8"/>
			<circle fill="#FFFFFF" cx="755.2" cy="72.2" r="3.8"/>
			<path fill="#FFFFFF" d="M693.6,8.1c1.6,0,2.9,1.3,2.9,2.9c0,1.6-1.3,2.9-2.9,2.9c-1.6,0-2.9-1.3-2.9-2.9
				C690.7,9.4,692,8.1,693.6,8.1 M693.6,7.2c-2.1,0-3.8,1.7-3.8,3.8s1.7,3.8,3.8,3.8c2.1,0,3.8-1.7,3.8-3.8S695.7,7.2,693.6,7.2
				L693.6,7.2z"/>
			<path fill="#FFFFFF" d="M755.2,8.1c1.6,0,2.9,1.3,2.9,2.9c0,1.6-1.3,2.9-2.9,2.9s-2.9-1.3-2.9-2.9C752.3,9.4,753.6,8.1,755.2,8.1
				 M755.2,7.2c-2.1,0-3.8,1.7-3.8,3.8s1.7,3.8,3.8,3.8c2.1,0,3.8-1.7,3.8-3.8S757.3,7.2,755.2,7.2L755.2,7.2z"/>
			<path fill="#FFFFFF" d="M693.6,99.5c1.6,0,2.9,1.3,2.9,2.9c0,1.6-1.3,2.9-2.9,2.9c-1.6,0-2.9-1.3-2.9-2.9
				C690.7,100.8,692,99.5,693.6,99.5 M693.6,98.6c-2.1,0-3.8,1.7-3.8,3.8c0,2.1,1.7,3.8,3.8,3.8c2.1,0,3.8-1.7,3.8-3.8
				C697.4,100.3,695.7,98.6,693.6,98.6L693.6,98.6z"/>
			<path fill="#FFFFFF" d="M755.2,99.5c1.6,0,2.9,1.3,2.9,2.9c0,1.6-1.3,2.9-2.9,2.9s-2.9-1.3-2.9-2.9
				C752.3,100.8,753.6,99.5,755.2,99.5 M755.2,98.6c-2.1,0-3.8,1.7-3.8,3.8c0,2.1,1.7,3.8,3.8,3.8c2.1,0,3.8-1.7,3.8-3.8
				C759,100.3,757.3,98.6,755.2,98.6L755.2,98.6z"/>
			<path fill="#FFFFFF" d="M816.9,8.1c1.6,0,2.9,1.3,2.9,2.9c0,1.6-1.3,2.9-2.9,2.9c-1.6,0-2.9-1.3-2.9-2.9
				C814,9.4,815.3,8.1,816.9,8.1 M816.9,7.2c-2.1,0-3.8,1.7-3.8,3.8s1.7,3.8,3.8,3.8c2.1,0,3.8-1.7,3.8-3.8S819,7.2,816.9,7.2
				L816.9,7.2z"/>
			<path fill="#FFFFFF" d="M816.9,99.5c1.6,0,2.9,1.3,2.9,2.9c0,1.6-1.3,2.9-2.9,2.9c-1.6,0-2.9-1.3-2.9-2.9
				C814,100.8,815.3,99.5,816.9,99.5 M816.9,98.6c-2.1,0-3.8,1.7-3.8,3.8c0,2.1,1.7,3.8,3.8,3.8c2.1,0,3.8-1.7,3.8-3.8
				C820.7,100.3,819,98.6,816.9,98.6L816.9,98.6z"/>
			<circle fill="#FFFFFF" cx="693.6" cy="133.8" r="3.8"/>
			<circle fill="#FFFFFF" cx="755.2" cy="133.8" r="3.8"/>
			<circle fill="#FFFFFF" cx="816.9" cy="133.8" r="3.8"/>
			<circle fill="#FFFFFF" cx="693.6" cy="195.5" r="3.8"/>
			<circle fill="#FFFFFF" cx="755.2" cy="195.5" r="3.8"/>
			<circle fill="#FFFFFF" cx="816.9" cy="72.2" r="3.8"/>
			<circle fill="#FFFFFF" cx="816.9" cy="195.5" r="3.8"/>
			<path fill="#414142" d="M755.2,196c-34.2,0-62.1-27.9-62.1-62.1s27.9-62.1,62.1-62.1s62.1,27.9,62.1,62.1
				C817.3,168.1,789.5,196,755.2,196z M755.2,72.6c-33.7,0-61.2,27.5-61.2,61.2s27.5,61.2,61.2,61.2s61.2-27.5,61.2-61.2
				C816.4,100.1,789,72.6,755.2,72.6z"/>
			<path fill="#FFFFFF" d="M755.2,257.6c-34.2,0-62.1-27.9-62.1-62.1s27.9-62.1,62.1-62.1s62.1,27.9,62.1,62.1
				C817.3,229.7,789.5,257.6,755.2,257.6z M755.2,134.3c-33.7,0-61.2,27.5-61.2,61.2s27.5,61.2,61.2,61.2s61.2-27.5,61.2-61.2
				S789,134.3,755.2,134.3z"/>
			<path fill="#FFFFFF" d="M755.2,134.3c-34.2,0-62.1-27.7-62.1-61.8c0-34.1,27.9-61.8,62.1-61.8s62.1,27.7,62.1,61.8
				C817.3,106.6,789.5,134.3,755.2,134.3z M755.2,11.6c-33.7,0-61.2,27.3-61.2,60.9s27.5,60.9,61.2,60.9s61.2-27.3,61.2-60.9
				S789,11.6,755.2,11.6z"/>
			<circle fill="#FFFFFF" cx="693.6" cy="257.2" r="3.8"/>
			<circle fill="#FFFFFF" cx="755.2" cy="257.2" r="3.8"/>
			<circle fill="#FFFFFF" cx="816.9" cy="257.2" r="3.8"/>
		</g>
		<g>
			<path opacity="0.4" fill="#FFFFFF" enable-background="new    " d="M253.6,417.5c-25.8,0-46.7-20.7-46.7-46.1
				c0-25.4,21-46.1,46.7-46.1c25.8,0,46.7,20.7,46.7,46.1C300.3,396.8,279.3,417.5,253.6,417.5z M253.6,326.2
				c-25.3,0-45.8,20.3-45.8,45.2c0,24.9,20.5,45.2,45.8,45.2c25.3,0,45.8-20.3,45.8-45.2C299.4,346.5,278.8,326.2,253.6,326.2z"/>
		</g>
		<g>
			<path opacity="0.4" fill="#FFFFFF" enable-background="new    " d="M253.6,510.6c-25.8,0-46.7-21.1-46.7-47c0-25.9,21-47,46.7-47
				c25.8,0,46.7,21.1,46.7,47C300.3,489.5,279.3,510.6,253.6,510.6z M253.6,417.5c-25.3,0-45.8,20.7-45.8,46.1
				c0,25.4,20.5,46.1,45.8,46.1c25.3,0,45.8-20.7,45.8-46.1C299.4,438.2,278.8,417.5,253.6,417.5z"/>
		</g>
		<g>
			<circle fill="#FFFFFF" cx="191.9" cy="386.9" r="3.8"/>
		</g>
		<g>
			<circle fill="#FFFFFF" cx="253.6" cy="386.9" r="3.8"/>
		</g>
		<g>
			<path fill="#FFFFFF" d="M191.9,322.8c1.6,0,2.9,1.3,2.9,2.9c0,1.6-1.3,2.9-2.9,2.9s-2.9-1.3-2.9-2.9
				C189,324.1,190.3,322.8,191.9,322.8 M191.9,321.9c-2.1,0-3.8,1.7-3.8,3.8c0,2.1,1.7,3.8,3.8,3.8c2.1,0,3.8-1.7,3.8-3.8
				C195.7,323.6,194,321.9,191.9,321.9L191.9,321.9z"/>
		</g>
		<g>
			<path fill="#FFFFFF" d="M253.6,322.8c1.6,0,2.9,1.3,2.9,2.9c0,1.6-1.3,2.9-2.9,2.9s-2.9-1.3-2.9-2.9
				C250.7,324.1,252,322.8,253.6,322.8 M253.6,321.9c-2.1,0-3.8,1.7-3.8,3.8c0,2.1,1.7,3.8,3.8,3.8c2.1,0,3.8-1.7,3.8-3.8
				C257.4,323.6,255.7,321.9,253.6,321.9L253.6,321.9z"/>
		</g>
		<g>
			<path fill="#FFFFFF" d="M191.9,414.2c1.6,0,2.9,1.3,2.9,2.9c0,1.6-1.3,2.9-2.9,2.9s-2.9-1.3-2.9-2.9
				C189,415.5,190.3,414.2,191.9,414.2 M191.9,413.3c-2.1,0-3.8,1.7-3.8,3.8c0,2.1,1.7,3.8,3.8,3.8c2.1,0,3.8-1.7,3.8-3.8
				S194,413.3,191.9,413.3L191.9,413.3z"/>
		</g>
		<g>
			<path fill="#FFFFFF" d="M253.6,414.2c1.6,0,2.9,1.3,2.9,2.9c0,1.6-1.3,2.9-2.9,2.9s-2.9-1.3-2.9-2.9
				C250.7,415.5,252,414.2,253.6,414.2 M253.6,413.3c-2.1,0-3.8,1.7-3.8,3.8c0,2.1,1.7,3.8,3.8,3.8c2.1,0,3.8-1.7,3.8-3.8
				S255.7,413.3,253.6,413.3L253.6,413.3z"/>
		</g>
		<g>
			<path fill="#FFFFFF" d="M315.2,322.8c1.6,0,2.9,1.3,2.9,2.9c0,1.6-1.3,2.9-2.9,2.9c-1.6,0-2.9-1.3-2.9-2.9
				C312.3,324.1,313.6,322.8,315.2,322.8 M315.2,321.9c-2.1,0-3.8,1.7-3.8,3.8c0,2.1,1.7,3.8,3.8,3.8c2.1,0,3.8-1.7,3.8-3.8
				C319,323.6,317.3,321.9,315.2,321.9L315.2,321.9z"/>
		</g>
		<g>
			<path fill="#FFFFFF" d="M315.2,414.2c1.6,0,2.9,1.3,2.9,2.9c0,1.6-1.3,2.9-2.9,2.9c-1.6,0-2.9-1.3-2.9-2.9
				C312.3,415.5,313.6,414.2,315.2,414.2 M315.2,413.3c-2.1,0-3.8,1.7-3.8,3.8c0,2.1,1.7,3.8,3.8,3.8c2.1,0,3.8-1.7,3.8-3.8
				S317.3,413.3,315.2,413.3L315.2,413.3z"/>
		</g>
		<g>
			<circle fill="#FFFFFF" cx="191.9" cy="448.6" r="3.8"/>
		</g>
		<g>
			<circle fill="#FFFFFF" cx="253.6" cy="448.6" r="3.8"/>
		</g>
		<g>
			<path fill="#FFFFFF" d="M319,448.6c0-2.1-1.7-3.8-3.8-3.8c-2.1,0-3.8,1.7-3.8,3.8s1.7,3.8,3.8,3.8
				C317.3,452.4,319,450.7,319,448.6z"/>
		</g>
		<g>
			<circle fill="#FFFFFF" cx="191.9" cy="510.2" r="3.8"/>
		</g>
		<g>
			<circle fill="#FFFFFF" cx="253.6" cy="510.2" r="3.8"/>
		</g>
		<g>
			<path fill="#FFFFFF" d="M319,386.9c0-2.1-1.7-3.8-3.8-3.8c-2.1,0-3.8,1.7-3.8,3.8c0,2.1,1.7,3.8,3.8,3.8
				C317.3,390.7,319,389,319,386.9z"/>
		</g>
		<g>
			<path fill="#FFFFFF" d="M319,510.2c0-2.1-1.7-3.8-3.8-3.8c-2.1,0-3.8,1.7-3.8,3.8c0,2.1,1.7,3.8,3.8,3.8
				C317.3,514,319,512.3,319,510.2z"/>
		</g>
		<g>
			<path fill="#FFFFFF" d="M253.6,510.7c-34.2,0-62.1-27.9-62.1-62.1c0-34.2,27.9-62.1,62.1-62.1c34.2,0,62.1,27.9,62.1,62.1
				S287.8,510.7,253.6,510.7z M253.6,387.4c-33.7,0-61.2,27.5-61.2,61.2s27.5,61.2,61.2,61.2s61.2-27.5,61.2-61.2
				S287.3,387.4,253.6,387.4z"/>
		</g>
		<g>
			<path fill="#FFFFFF" d="M253.6,572.3c-34.2,0-62.1-27.9-62.1-62.1s27.9-62.1,62.1-62.1c34.2,0,62.1,27.9,62.1,62.1
				C315.7,544.5,287.8,572.3,253.6,572.3z M253.6,449c-33.7,0-61.2,27.5-61.2,61.2c0,33.7,27.5,61.2,61.2,61.2s61.2-27.5,61.2-61.2
				C314.8,476.5,287.3,449,253.6,449z"/>
		</g>
		<g>
			<path fill="#FFFFFF" d="M253.6,449c-34.2,0-62.1-27.7-62.1-61.8c0-34.1,27.9-61.8,62.1-61.8c34.2,0,62.1,27.7,62.1,61.8
				C315.7,421.3,287.8,449,253.6,449z M253.6,326.3c-33.7,0-61.2,27.3-61.2,60.9c0,33.6,27.5,60.9,61.2,60.9s61.2-27.3,61.2-60.9
				C314.8,353.6,287.3,326.3,253.6,326.3z"/>
		</g>
		<g>
			<circle fill="#FFFFFF" cx="191.9" cy="571.9" r="3.8"/>
		</g>
		<g>
			<circle fill="#FFFFFF" cx="253.6" cy="571.9" r="3.8"/>
		</g>
		<g>
			<path fill="#FFFFFF" d="M319,571.9c0-2.1-1.7-3.8-3.8-3.8c-2.1,0-3.8,1.7-3.8,3.8s1.7,3.8,3.8,3.8C317.3,575.7,319,574,319,571.9
				z"/>
		</g>
		<g>
			<path opacity="0.4" fill="#FFFFFF" enable-background="new    " d="M420.8,417.5c-25.8,0-46.8-20.7-46.8-46.2
				c0-25.5,21-46.2,46.8-46.2c25.8,0,46.8,20.7,46.8,46.2C467.6,396.8,446.6,417.5,420.8,417.5z M420.8,326
				c-25.3,0-45.9,20.3-45.9,45.3c0,25,20.6,45.3,45.9,45.3c25.3,0,45.9-20.3,45.9-45.3C466.7,346.3,446.1,326,420.8,326z"/>
		</g>
		<g>
			<path opacity="0.4" fill="#FFFFFF" enable-background="new    " d="M420.8,510.7c-25.8,0-46.8-21.1-46.8-47.1
				c0-25.9,21-47.1,46.8-47.1c25.8,0,46.8,21.1,46.8,47.1C467.6,489.6,446.6,510.7,420.8,510.7z M420.8,417.5
				c-25.3,0-45.9,20.7-45.9,46.1c0,25.4,20.6,46.1,45.9,46.1c25.3,0,45.9-20.7,45.9-46.1C466.7,438.2,446.1,417.5,420.8,417.5z"/>
		</g>
		<g>
			<circle fill="#FFFFFF" cx="359.1" cy="386.8" r="3.8"/>
		</g>
		<g>
			<circle fill="#FFFFFF" cx="420.8" cy="386.8" r="3.8"/>
		</g>
		<g>
			<path fill="#FFFFFF" d="M359.1,322.7c1.6,0,2.9,1.3,2.9,2.9s-1.3,2.9-2.9,2.9s-2.9-1.3-2.9-2.9S357.5,322.7,359.1,322.7
				 M359.1,321.8c-2.1,0-3.8,1.7-3.8,3.8s1.7,3.8,3.8,3.8c2.1,0,3.8-1.7,3.8-3.8S361.2,321.8,359.1,321.8L359.1,321.8z"/>
		</g>
		<g>
			<path fill="#FFFFFF" d="M420.8,322.7c1.6,0,2.9,1.3,2.9,2.9s-1.3,2.9-2.9,2.9c-1.6,0-2.9-1.3-2.9-2.9S419.2,322.7,420.8,322.7
				 M420.8,321.8c-2.1,0-3.8,1.7-3.8,3.8s1.7,3.8,3.8,3.8s3.8-1.7,3.8-3.8S423,321.8,420.8,321.8L420.8,321.8z"/>
		</g>
		<g>
			<path fill="#FFFFFF" d="M359.1,414.1c1.6,0,2.9,1.3,2.9,2.9s-1.3,2.9-2.9,2.9s-2.9-1.3-2.9-2.9S357.5,414.1,359.1,414.1
				 M359.1,413.2c-2.1,0-3.8,1.7-3.8,3.8s1.7,3.8,3.8,3.8c2.1,0,3.8-1.7,3.8-3.8S361.2,413.2,359.1,413.2L359.1,413.2z"/>
		</g>
		<g>
			<path fill="#FFFFFF" d="M420.8,414.1c1.6,0,2.9,1.3,2.9,2.9s-1.3,2.9-2.9,2.9c-1.6,0-2.9-1.3-2.9-2.9S419.2,414.1,420.8,414.1
				 M420.8,413.2c-2.1,0-3.8,1.7-3.8,3.8s1.7,3.8,3.8,3.8s3.8-1.7,3.8-3.8S423,413.2,420.8,413.2L420.8,413.2z"/>
		</g>
		<g>
			<path fill="#FFFFFF" d="M482.6,322.7c1.6,0,2.9,1.3,2.9,2.9s-1.3,2.9-2.9,2.9s-2.9-1.3-2.9-2.9S481,322.7,482.6,322.7
				 M482.6,321.8c-2.1,0-3.8,1.7-3.8,3.8s1.7,3.8,3.8,3.8c2.1,0,3.8-1.7,3.8-3.8S484.7,321.8,482.6,321.8L482.6,321.8z"/>
		</g>
		<g>
			<path fill="#FFFFFF" d="M482.6,414.1c1.6,0,2.9,1.3,2.9,2.9s-1.3,2.9-2.9,2.9s-2.9-1.3-2.9-2.9S481,414.1,482.6,414.1
				 M482.6,413.2c-2.1,0-3.8,1.7-3.8,3.8s1.7,3.8,3.8,3.8c2.1,0,3.8-1.7,3.8-3.8S484.7,413.2,482.6,413.2L482.6,413.2z"/>
		</g>
		<g>
			<circle fill="#FFFFFF" cx="359.1" cy="448.6" r="3.8"/>
		</g>
		<g>
			<circle fill="#FFFFFF" cx="420.8" cy="448.6" r="3.8"/>
		</g>
		<g>
			<circle fill="#FFFFFF" cx="482.6" cy="448.6" r="3.8"/>
		</g>
		<g>
			<circle fill="#FFFFFF" cx="359.1" cy="510.3" r="3.8"/>
		</g>
		<g>
			<circle fill="#FFFFFF" cx="420.8" cy="510.3" r="3.8"/>
		</g>
		<g>
			<circle fill="#FFFFFF" cx="482.6" cy="386.8" r="3.8"/>
		</g>
		<g>
			<circle fill="#FFFFFF" cx="482.6" cy="510.3" r="3.8"/>
		</g>
		<g>
			<path fill="#FFFFFF" d="M420.8,510.8c-34.3,0-62.2-27.9-62.2-62.2s27.9-62.2,62.2-62.2c34.3,0,62.2,27.9,62.2,62.2
				C483,482.9,455.1,510.8,420.8,510.8z M420.8,387.3c-33.8,0-61.3,27.5-61.3,61.3s27.5,61.3,61.3,61.3s61.3-27.5,61.3-61.3
				S454.6,387.3,420.8,387.3z"/>
		</g>
		<g>
			<path fill="#FFFFFF" d="M420.8,572.5c-34.3,0-62.2-27.9-62.2-62.2s27.9-62.2,62.2-62.2c34.3,0,62.2,27.9,62.2,62.2
				C483,544.6,455.1,572.5,420.8,572.5z M420.8,449c-33.8,0-61.3,27.5-61.3,61.3s27.5,61.3,61.3,61.3s61.3-27.5,61.3-61.3
				C482.1,476.5,454.6,449,420.8,449z"/>
		</g>
		<g>
			<path fill="#FFFFFF" d="M420.8,449c-34.3,0-62.2-27.8-62.2-61.9c0-34.1,27.9-61.9,62.2-61.9c34.3,0,62.2,27.8,62.2,61.9
				C483,421.3,455.1,449,420.8,449z M420.8,326.2c-33.8,0-61.3,27.3-61.3,61c0,33.6,27.5,61,61.3,61s61.3-27.4,61.3-61
				C482.1,353.5,454.6,326.2,420.8,326.2z"/>
		</g>
		<g>
			<circle fill="#FFFFFF" cx="359.1" cy="572" r="3.8"/>
		</g>
		<g>
			<circle fill="#FFFFFF" cx="420.8" cy="572" r="3.8"/>
		</g>
		<g>
			<circle fill="#FFFFFF" cx="482.6" cy="572" r="3.8"/>
		</g>
		<g>
			<path opacity="0.4" fill="#FFFFFF" enable-background="new    " d="M588.5,417.5c-25.8,0-46.8-20.7-46.8-46.2
				c0-25.5,21-46.2,46.8-46.2s46.8,20.7,46.8,46.2C635.2,396.8,614.3,417.5,588.5,417.5z M588.5,326c-25.3,0-45.9,20.3-45.9,45.3
				c0,25,20.6,45.3,45.9,45.3s45.9-20.3,45.9-45.3C634.3,346.3,613.7,326,588.5,326z"/>
		</g>
		<g>
			<path opacity="0.4" fill="#FFFFFF" enable-background="new    " d="M588.5,510.7c-25.8,0-46.8-21.1-46.8-47.1
				c0-25.9,21-47.1,46.8-47.1s46.8,21.1,46.8,47.1C635.2,489.6,614.3,510.7,588.5,510.7z M588.5,417.5c-25.3,0-45.9,20.7-45.9,46.1
				c0,25.4,20.6,46.1,45.9,46.1s45.9-20.7,45.9-46.1C634.3,438.2,613.7,417.5,588.5,417.5z"/>
		</g>
		<g>
			<circle fill="#FFFFFF" cx="526.7" cy="386.8" r="3.8"/>
		</g>
		<g>
			<circle fill="#FFFFFF" cx="588.5" cy="386.8" r="3.8"/>
		</g>
		<g>
			<path fill="#FFFFFF" d="M526.7,322.7c1.6,0,2.9,1.3,2.9,2.9c0,1.6-1.3,2.9-2.9,2.9c-1.6,0-2.9-1.3-2.9-2.9
				C523.8,324,525.1,322.7,526.7,322.7 M526.7,321.8c-2.1,0-3.8,1.7-3.8,3.8c0,2.1,1.7,3.8,3.8,3.8c2.1,0,3.8-1.7,3.8-3.8
				C530.5,323.5,528.8,321.8,526.7,321.8L526.7,321.8z"/>
		</g>
		<g>
			<path fill="#FFFFFF" d="M588.5,322.7c1.6,0,2.9,1.3,2.9,2.9c0,1.6-1.3,2.9-2.9,2.9c-1.6,0-2.9-1.3-2.9-2.9
				C585.5,324,586.9,322.7,588.5,322.7 M588.5,321.8c-2.1,0-3.8,1.7-3.8,3.8c0,2.1,1.7,3.8,3.8,3.8c2.1,0,3.8-1.7,3.8-3.8
				C592.3,323.5,590.6,321.8,588.5,321.8L588.5,321.8z"/>
		</g>
		<g>
			<path fill="#FFFFFF" d="M526.7,414.1c1.6,0,2.9,1.3,2.9,2.9c0,1.6-1.3,2.9-2.9,2.9c-1.6,0-2.9-1.3-2.9-2.9
				C523.8,415.4,525.1,414.1,526.7,414.1 M526.7,413.2c-2.1,0-3.8,1.7-3.8,3.8c0,2.1,1.7,3.8,3.8,3.8c2.1,0,3.8-1.7,3.8-3.8
				C530.5,414.9,528.8,413.2,526.7,413.2L526.7,413.2z"/>
		</g>
		<g>
			<path fill="#FFFFFF" d="M588.5,414.1c1.6,0,2.9,1.3,2.9,2.9c0,1.6-1.3,2.9-2.9,2.9c-1.6,0-2.9-1.3-2.9-2.9
				C585.5,415.4,586.9,414.1,588.5,414.1 M588.5,413.2c-2.1,0-3.8,1.7-3.8,3.8c0,2.1,1.7,3.8,3.8,3.8c2.1,0,3.8-1.7,3.8-3.8
				C592.3,414.9,590.6,413.2,588.5,413.2L588.5,413.2z"/>
		</g>
		<g>
			<path fill="#FFFFFF" d="M650.2,322.7c1.6,0,2.9,1.3,2.9,2.9c0,1.6-1.3,2.9-2.9,2.9c-1.6,0-2.9-1.3-2.9-2.9
				C647.3,324,648.6,322.7,650.2,322.7 M650.2,321.8c-2.1,0-3.8,1.7-3.8,3.8c0,2.1,1.7,3.8,3.8,3.8c2.1,0,3.8-1.7,3.8-3.8
				C654,323.5,652.3,321.8,650.2,321.8L650.2,321.8z"/>
		</g>
		<g>
			<path fill="#FFFFFF" d="M650.2,414.1c1.6,0,2.9,1.3,2.9,2.9c0,1.6-1.3,2.9-2.9,2.9c-1.6,0-2.9-1.3-2.9-2.9
				C647.3,415.4,648.6,414.1,650.2,414.1 M650.2,413.2c-2.1,0-3.8,1.7-3.8,3.8c0,2.1,1.7,3.8,3.8,3.8c2.1,0,3.8-1.7,3.8-3.8
				C654,414.9,652.3,413.2,650.2,413.2L650.2,413.2z"/>
		</g>
		<g>
			<circle fill="#FFFFFF" cx="526.7" cy="448.6" r="3.8"/>
		</g>
		<g>
			<circle fill="#FFFFFF" cx="588.5" cy="448.6" r="3.8"/>
		</g>
		<g>
			<circle fill="#FFFFFF" cx="650.2" cy="448.6" r="3.8"/>
		</g>
		<g>
			<circle fill="#FFFFFF" cx="526.7" cy="510.3" r="3.8"/>
		</g>
		<g>
			<circle fill="#FFFFFF" cx="588.5" cy="510.3" r="3.8"/>
		</g>
		<g>
			<circle fill="#FFFFFF" cx="650.2" cy="386.8" r="3.8"/>
		</g>
		<g>
			<circle fill="#FFFFFF" cx="650.2" cy="510.3" r="3.8"/>
		</g>
		<g>
			<path fill="#FFFFFF" d="M588.5,510.8c-34.3,0-62.2-27.9-62.2-62.2s27.9-62.2,62.2-62.2c34.3,0,62.2,27.9,62.2,62.2
				S622.8,510.8,588.5,510.8z M588.5,387.3c-33.8,0-61.3,27.5-61.3,61.3c0,33.8,27.5,61.3,61.3,61.3c33.8,0,61.3-27.5,61.3-61.3
				C649.7,414.8,622.3,387.3,588.5,387.3z"/>
		</g>
		<g>
			<path fill="#FFFFFF" d="M588.5,572.5c-34.3,0-62.2-27.9-62.2-62.2s27.9-62.2,62.2-62.2c34.3,0,62.2,27.9,62.2,62.2
				S622.8,572.5,588.5,572.5z M588.5,449c-33.8,0-61.3,27.5-61.3,61.3c0,33.8,27.5,61.3,61.3,61.3c33.8,0,61.3-27.5,61.3-61.3
				C649.7,476.5,622.3,449,588.5,449z"/>
		</g>
		<g>
			<path fill="#FFFFFF" d="M588.5,449c-34.3,0-62.2-27.8-62.2-61.9c0-34.1,27.9-61.9,62.2-61.9c34.3,0,62.2,27.8,62.2,61.9
				C650.7,421.3,622.8,449,588.5,449z M588.5,326.2c-33.8,0-61.3,27.3-61.3,61c0,33.6,27.5,61,61.3,61c33.8,0,61.3-27.3,61.3-61
				C649.7,353.5,622.3,326.2,588.5,326.2z"/>
		</g>
		<g>
			<circle fill="#FFFFFF" cx="526.7" cy="572" r="3.8"/>
		</g>
		<g>
			<circle fill="#FFFFFF" cx="588.5" cy="572" r="3.8"/>
		</g>
		<g>
			<circle fill="#FFFFFF" cx="650.2" cy="572" r="3.8"/>
		</g>
	</g>
	<g>
		<path fill="#E7B93A" d="M650.2,328H527.7c-1.3,0-2.3-1-2.3-2.3c0-1.3,1-2.3,2.3-2.3h122.5c1.3,0,2.3,1,2.3,2.3
			C652.5,327,651.5,328,650.2,328z"/>
	</g>
	<g>
		<path fill="#E7B93A" d="M526.7,450.8c-1.3,0-2.3-1-2.3-2.3v-123c0-1.3,1-2.3,2.3-2.3c1.3,0,2.3,1,2.3,2.3v123
			C529,449.8,528,450.8,526.7,450.8z"/>
	</g>
	<g>
		<path fill="#E7B93A" d="M588.5,512.6c-1.3,0-2.3-1-2.3-2.3s1-2.3,2.3-2.3c32.8,0,59.5-26.7,59.5-59.5c0-32.8-26.7-59.5-59.5-59.5
			c-32.8,0-59.5,26.7-59.5,59.5c0,1.3-1,2.3-2.3,2.3c-1.3,0-2.3-1-2.3-2.3c0-35.3,28.7-64,64-64c35.3,0,64,28.7,64,64
			C652.5,483.9,623.8,512.6,588.5,512.6z"/>
	</g>
</g>
</svg>
