<?xml version="1.0" encoding="utf-8"?>
<!-- Generator: Adobe Illustrator 17.1.0, SVG Export Plug-In . SVG Version: 6.00 Build 0)  -->
<!DOCTYPE svg PUBLIC "-//W3C//DTD SVG 1.1//EN" "http://www.w3.org/Graphics/SVG/1.1/DTD/svg11.dtd">
<svg version="1.1" id="Layer_1" xmlns="http://www.w3.org/2000/svg" xmlns:xlink="http://www.w3.org/1999/xlink" x="0px" y="0px"
	 viewBox="70.9 1.6 700 575.8" enable-background="new 70.9 1.6 700 575.8" xml:space="preserve">
<g id="Background" display="none">
	<rect x="-8" y="-255" display="inline" fill="#DFE1D7" width="857.4" height="1059.4"/>
</g>
<g id="Layer_1_1_">
	<g>
		<g>
			<path fill="#FFFFFF" d="M292.7,217.6c-40.3,0-73.1-32.8-73.1-73.1s32.8-73.1,73.1-73.1s73.1,32.8,73.1,73.1
				c0,1.4-1.2,2.6-2.6,2.6c-1.4,0-2.6-1.2-2.6-2.6c0-37.5-30.5-67.9-67.9-67.9c-37.5,0-67.9,30.5-67.9,67.9
				c0,37.5,30.5,67.9,67.9,67.9c1.4,0,2.6,1.2,2.6,2.6C295.3,216.4,294.1,217.6,292.7,217.6z"/>
		</g>
		<g>
			<path fill="#FFFFFF" d="M363.2,147.1h-70.5c-1.4,0-2.6-1.2-2.6-2.6c0-1.4,1.2-2.6,2.6-2.6h70.5c1.4,0,2.6,1.2,2.6,2.6
				C365.8,145.9,364.6,147.1,363.2,147.1z"/>
		</g>
		<g>
			<path fill="#FFFFFF" d="M214.6,76.9c-1.4,0-2.6-1.2-2.6-2.6c0-37.3-30.5-67.6-67.9-67.6c-37.5,0-67.9,30.3-67.9,67.6
				c0,1.4-1.2,2.6-2.6,2.6c-1.4,0-2.6-1.2-2.6-2.6c0-40.1,32.8-72.8,73.1-72.8s73.1,32.6,73.1,72.8C217.2,75.8,216,76.9,214.6,76.9z
				"/>
		</g>
		<g>
			<path fill="#FFFFFF" d="M144.1,147.1c-1.4,0-2.6-1.2-2.6-2.6c0-1.4,1.2-2.6,2.6-2.6c37.5,0,67.9-30.3,67.9-67.6
				c0-37.3-30.5-67.6-67.9-67.6c-1.4,0-2.6-1.2-2.6-2.6s1.2-2.6,2.6-2.6c40.3,0,73.1,32.6,73.1,72.8
				C217.2,114.4,184.4,147.1,144.1,147.1z"/>
		</g>
		<g>
			<path fill="#FFFFFF" d="M73.5,217.5c-1.4,0-2.6-1.2-2.6-2.6V74.3c0-1.4,1.2-2.6,2.6-2.6s2.6,1.2,2.6,2.6v140.6
				C76.1,216.4,75,217.5,73.5,217.5z"/>
		</g>
		<g>
			<path fill="#FFFFFF" d="M528.4,217.8c-1.4,0-2.6-1.2-2.6-2.6v-70.7c0-1.4,1.2-2.6,2.6-2.6s2.6,1.2,2.6,2.6v70.7
				C531,216.6,529.8,217.8,528.4,217.8z"/>
		</g>
		<g>
			<path fill="#FFFFFF" d="M457.9,217.6c-40.3,0-73.1-32.8-73.1-73.1s32.8-73.1,73.1-73.1c40.3,0,73.1,32.8,73.1,73.1
				c0,1.4-1.2,2.6-2.6,2.6c-1.4,0-2.6-1.2-2.6-2.6c0-37.5-30.5-67.9-67.9-67.9c-37.5,0-67.9,30.5-67.9,67.9
				c0,37.5,30.5,67.9,67.9,67.9c1.4,0,2.6,1.2,2.6,2.6C460.5,216.4,459.3,217.6,457.9,217.6z"/>
		</g>
		<g>
			<path fill="#FFFFFF" d="M457.9,288.1c-1.4,0-2.6-1.2-2.6-2.6c0-1.4,1.2-2.6,2.6-2.6c37.5,0,67.9-30.5,67.9-67.9
				c0-1.4,1.2-2.6,2.6-2.6c1.4,0,2.6,1.2,2.6,2.6C531,255.3,498.2,288.1,457.9,288.1z"/>
		</g>
		<g>
			<path fill="#FFFFFF" d="M553.7,146.9c-1.4,0-2.6-1.2-2.6-2.6c0-40.3,32.8-73.1,73.1-73.1c1.4,0,2.6,1.2,2.6,2.6
				c0,1.4-1.2,2.6-2.6,2.6c-37.5,0-67.9,30.5-67.9,67.9C556.3,145.8,555.1,146.9,553.7,146.9z"/>
		</g>
		<g>
			<path fill="#FFFFFF" d="M553.7,217.5c-1.4,0-2.6-1.2-2.6-2.6v-70.6c0-1.4,1.2-2.6,2.6-2.6c1.4,0,2.6,1.2,2.6,2.6v70.6
				C556.3,216.3,555.1,217.5,553.7,217.5z"/>
		</g>
		<path fill="#FFFFFF" d="M697.8,217.3c-40.3,0-73.1-32.8-73.1-73.1c0-40.3,32.8-73.1,73.1-73.1c40.3,0,73.1,32.8,73.1,73.1
			C770.9,184.5,738.1,217.3,697.8,217.3z M697.8,76.3c-37.5,0-67.9,30.5-67.9,67.9c0,37.5,30.5,67.9,67.9,67.9s67.9-30.5,67.9-67.9
			C765.8,106.7,735.3,76.3,697.8,76.3z"/>
	</g>
	<g>
		<g>
			<path fill="#FFFFFF" d="M254.8,577.3c-40.3,0-73.1-32.8-73.1-73.1c0-1.4,1.2-2.6,2.6-2.6c1.4,0,2.6,1.2,2.6,2.6
				c0,37.5,30.5,67.9,67.9,67.9c37.5,0,67.9-30.5,67.9-67.9c0-37.5-30.5-67.9-67.9-67.9c-1.4,0-2.6-1.2-2.6-2.6
				c0-1.4,1.2-2.6,2.6-2.6c40.3,0,73.1,32.8,73.1,73.1S295.1,577.3,254.8,577.3z"/>
		</g>
		<g>
			<path fill="#FFFFFF" d="M325.3,366.3h-141c-1.4,0-2.6-1.2-2.6-2.6c0-1.4,1.2-2.6,2.6-2.6h141c1.4,0,2.6,1.2,2.6,2.6
				C327.9,365.1,326.8,366.3,325.3,366.3z"/>
		</g>
		<g>
			<path fill="#FFFFFF" d="M254.8,436.2c-0.7,0-1.3-0.3-1.8-0.8c-1-1-1-2.7,0-3.7l70.6-69.9c1-1,2.7-1,3.7,0c1,1,1,2.7,0,3.7
				l-70.6,69.9C256.1,436,255.4,436.2,254.8,436.2z"/>
		</g>
		<g>
			<path fill="#FFFFFF" d="M419.7,577.4c-40.4,0-73.2-32.8-73.2-73.2c0-1.4,1.2-2.6,2.6-2.6c1.4,0,2.6,1.2,2.6,2.6
				c0,37.5,30.5,68,68,68s68-30.5,68-68c0-1.4,1.2-2.6,2.6-2.6c1.4,0,2.6,1.2,2.6,2.6C492.9,544.5,460,577.4,419.7,577.4z"/>
		</g>
		<g>
			<path fill="#FFFFFF" d="M490.3,436.5c-1.4,0-2.6-1.2-2.6-2.6c0-37.3-30.5-67.7-68-67.7s-68,30.4-68,67.7c0,1.4-1.2,2.6-2.6,2.6
				s-2.6-1.2-2.6-2.6c0-40.2,32.8-72.9,73.2-72.9s73.2,32.7,73.2,72.9C492.9,435.4,491.7,436.5,490.3,436.5z"/>
		</g>
		<g>
			<path fill="#FFFFFF" d="M349,506.8c-1.4,0-2.6-1.2-2.6-2.6v-70.3c0-1.4,1.2-2.6,2.6-2.6c1.4,0,2.6,1.2,2.6,2.6v70.3
				C351.6,505.6,350.5,506.8,349,506.8z"/>
		</g>
		<g>
			<path fill="#FFFFFF" d="M490.3,506.8c-1.4,0-2.6-1.2-2.6-2.6v-70.3c0-1.4,1.2-2.6,2.6-2.6c1.4,0,2.6,1.2,2.6,2.6v70.3
				C492.9,505.6,491.7,506.8,490.3,506.8z"/>
		</g>
		<g>
			<path fill="#FFFFFF" d="M349,506.8c-1,0-1.9-0.5-2.3-1.4c-0.6-1.3-0.1-2.8,1.2-3.5l141.2-70.3c1.3-0.6,2.8-0.1,3.5,1.2
				c0.6,1.3,0.1,2.8-1.2,3.5l-141.2,70.3C349.8,506.7,349.4,506.8,349,506.8z"/>
		</g>
		<g>
			<path fill="#FFFFFF" d="M657.6,366.3H517.5c-1.4,0-2.6-1.2-2.6-2.6c0-1.4,1.2-2.6,2.6-2.6h140.1c1.4,0,2.6,1.2,2.6,2.6
				C660.2,365.1,659,366.3,657.6,366.3z"/>
		</g>
		<g>
			<path fill="#FFFFFF" d="M516.3,506.8c-1.4,0-2.6-1.2-2.6-2.6V363.5c0-1.4,1.2-2.6,2.6-2.6c1.4,0,2.6,1.2,2.6,2.6v140.7
				C518.9,505.6,517.8,506.8,516.3,506.8z"/>
		</g>
		<g>
			<path fill="#FFFFFF" d="M587,577.4c-1.4,0-2.6-1.2-2.6-2.6c0-1.4,1.2-2.6,2.6-2.6c37.5,0,68-30.5,68-68c0-37.5-30.5-68-68-68
				c-37.5,0-68,30.5-68,68c0,1.4-1.2,2.6-2.6,2.6c-1.4,0-2.6-1.2-2.6-2.6c0-40.4,32.8-73.2,73.2-73.2c40.4,0,73.2,32.8,73.2,73.2
				C660.2,544.5,627.3,577.4,587,577.4z"/>
		</g>
	</g>
</g>
</svg>
