<?xml version="1.0" encoding="utf-8"?>
<!-- Generator: Adobe Illustrator 17.1.0, SVG Export Plug-In . SVG Version: 6.00 Build 0)  -->
<!DOCTYPE svg PUBLIC "-//W3C//DTD SVG 1.1//EN" "http://www.w3.org/Graphics/SVG/1.1/DTD/svg11.dtd">
<svg version="1.1" id="Layer_1" xmlns="http://www.w3.org/2000/svg" xmlns:xlink="http://www.w3.org/1999/xlink" x="0px" y="0px"
	 viewBox="0 0 600 433.7" enable-background="new 0 0 600 433.7" xml:space="preserve">
<g>
	<defs>
		<rect id="SVGID_1_" x="0" y="0" width="600" height="433.7"/>
	</defs>
	<clipPath id="SVGID_2_">
		<use xlink:href="#SVGID_1_"  overflow="visible"/>
	</clipPath>
	<path clip-path="url(#SVGID_2_)" d="M54.4,52.8L37.6,2.7l0,0l0-0.1c0,0,0-0.1-0.1-0.1c0,0,0-0.1-0.1-0.1c0,0,0-0.1-0.1-0.1
		c0,0-0.1-0.1-0.1-0.1c0,0-0.1-0.1-0.1-0.1c0,0-0.1-0.1-0.1-0.1c0,0-0.1-0.1-0.1-0.1c0,0-0.1,0-0.1-0.1c0,0,0,0-0.1,0l0,0h0
		c0,0-0.1,0-0.1,0c-0.1,0-0.1,0-0.1,0h-0.1h0l0,0.3h0V1.9h-0.1c0,0-0.1,0-0.1,0c0,0-0.1,0-0.1,0h0l0,0c0,0-0.1,0-0.1,0
		c0,0-0.1,0-0.1,0c0,0-0.1,0-0.1,0.1c0,0-0.1,0-0.1,0.1l-0.1,0.1c0,0,0,0-0.1,0.1c0,0,0,0.1-0.1,0.1c0,0,0,0.1-0.1,0.1
		c0,0,0,0.1-0.1,0.1c0,0,0,0,0,0.1L18.5,52.8c-0.2,0.7,0.1,1.4,0.8,1.6c0.1,0,0.3,0.1,0.4,0.1c0.6,0,1-0.4,1.2-0.9L36.4,7.2L52,53.6
		c0.2,0.5,0.7,0.9,1.2,0.9c0.1,0,0.3,0,0.4-0.1C54.2,54.2,54.6,53.5,54.4,52.8"/>
	<path clip-path="url(#SVGID_2_)" d="M89.1,27.9c4.9-2.2,8.1-7,8.1-12.4c0-7.4-6.1-13.5-13.6-13.6c-0.1,0-0.2,0-0.2,0H66.6
		c-0.7,0-1.3,0.6-1.3,1.3c0,0.7,0.6,1.3,1.3,1.3h16.5c0.1,0,0.1,0,0.2,0c6.2,0,11.3,5,11.3,11.1c0,6.1-5.1,11.1-11.3,11.1
		c-0.7,0-1.3,0.6-1.3,1.3v0c0,0.7,0.6,1.3,1.3,1.3c6.2,0,11.3,5.1,11.3,11.4c0,6.3-5.1,11.4-11.3,11.4H66.6c-0.7,0-1.3,0.6-1.3,1.3
		c0,0.7,0.6,1.3,1.3,1.3h16.8h0h0c7.6,0,13.7-6.3,13.7-13.9C97.1,35.1,94,30.2,89.1,27.9"/>
	<path clip-path="url(#SVGID_2_)" d="M143.5,35.2c-0.7,0-1.3,0.6-1.3,1.3c0,8.5-6.9,15.5-15.5,15.5c-8.5,0-15.5-6.9-15.5-15.5V19.8
		c0-8.5,6.9-15.4,15.5-15.4s15.5,6.9,15.5,15.4c0,0.7,0.6,1.3,1.3,1.3c0.7,0,1.3-0.6,1.3-1.3c0-9.9-8.1-17.9-18-17.9
		c-9.9,0-17.9,8-18,17.8v0.1v16.7c0,9.9,8.1,18,18,18c9.9,0,18-8.1,18-18C144.8,35.8,144.2,35.2,143.5,35.2"/>
	<path clip-path="url(#SVGID_2_)" d="M172.6,1.9c-0.1,0-0.2,0-0.3,0h-16.6c-0.7,0-1.3,0.6-1.3,1.3c0,0.7,0.6,1.3,1.3,1.3h16.4
		c0.1,0,0.2,0,0.3,0c8.5,0,15.5,6.9,15.5,15.4v16.6c0,8.5-6.9,15.5-15.5,15.5h-16.7c-0.7,0-1.3,0.6-1.3,1.3c0,0.7,0.6,1.3,1.3,1.3
		h16.7c9.9,0,18-8.1,18-18V19.8C190.4,10,182.4,2,172.6,1.9"/>
	<path clip-path="url(#SVGID_2_)" fill="#005AAF" d="M204.7,4.5h33.5c0.7,0,1.3-0.6,1.3-1.3s-0.6-1.3-1.3-1.3h-33.5
		c-0.7,0-1.3,0.6-1.3,1.3S204,4.5,204.7,4.5"/>
	<path clip-path="url(#SVGID_2_)" fill="#005AAF" d="M238.1,51.9H206V29.2h15.4c0.7,0,1.3-0.6,1.3-1.3c0-0.7-0.6-1.3-1.3-1.3h-16.7
		c-0.7,0-1.3,0.6-1.3,1.3v24.8c-0.1,0.1-0.1,0.3-0.1,0.4c0,0.7,0.6,1.3,1.3,1.3h33.5c0.7,0,1.3-0.6,1.3-1.3
		C239.4,52.5,238.8,51.9,238.1,51.9"/>
	<path clip-path="url(#SVGID_2_)" d="M289.1,1.9h-33.5c-0.7,0-1.3,0.6-1.3,1.3c0,0.7,0.6,1.3,1.3,1.3h33.5c0.7,0,1.3-0.6,1.3-1.3
		C290.4,2.5,289.8,1.9,289.1,1.9"/>
	<path clip-path="url(#SVGID_2_)" d="M272.3,26.7h-16.7c-0.7,0-1.3,0.6-1.3,1.3v25.3c0,0.7,0.6,1.3,1.3,1.3c0.7,0,1.3-0.6,1.3-1.3
		v-24h15.4c0.7,0,1.3-0.6,1.3-1.3C273.6,27.2,273,26.7,272.3,26.7"/>
	<path clip-path="url(#SVGID_2_)" d="M381.8,54.2c-0.6,0-1-0.5-1-1V28.9h-31.5v24.2c0,0.6-0.5,1-1,1c-0.5,0-1-0.5-1-1v-50
		c0-0.6,0.5-1,1-1c0.5,0,1,0.5,1,1v23.8h31.5V3.2c0-0.6,0.4-1,1-1c0.5,0,1,0.5,1,1v50C382.8,53.7,382.4,54.2,381.8,54.2"/>
	<path clip-path="url(#SVGID_2_)" d="M381.8,1.9c-0.7,0-1.3,0.6-1.3,1.3v23.5h-30.9V3.2c0-0.7-0.6-1.3-1.3-1.3s-1.3,0.6-1.3,1.3v50
		c0,0.7,0.6,1.3,1.3,1.3s1.3-0.6,1.3-1.3v-24h30.9v24c0,0.7,0.6,1.3,1.3,1.3c0.7,0,1.3-0.6,1.3-1.3v-50
		C383.1,2.4,382.5,1.9,381.8,1.9 M381.8,2.4c0.4,0,0.7,0.3,0.7,0.7v50c0,0.4-0.3,0.7-0.7,0.7c-0.4,0-0.7-0.3-0.7-0.7V28.7h-32v24.5
		c0,0.4-0.3,0.7-0.7,0.7c-0.4,0-0.7-0.3-0.7-0.7v-50c0-0.4,0.3-0.7,0.7-0.7c0.4,0,0.7,0.3,0.7,0.7v24h32v-24
		C381.1,2.7,381.4,2.4,381.8,2.4"/>
	<path clip-path="url(#SVGID_2_)" d="M331.4,34.1h-17.2c-0.7,0-1.3,0.6-1.3,1.3c0,0.7,0.6,1.3,1.3,1.3H330
		c-0.7,8.2-7.5,14.6-15.8,14.6c-8.8,0-15.9-7.1-15.9-15.9V18.4c0-8.7,7.1-15.8,15.9-15.8c8.7,0,15.9,7.1,15.9,15.8
		c0,0.7,0.6,1.3,1.3,1.3c0.7,0,1.3-0.6,1.3-1.3c0-10.1-8.3-18.4-18.4-18.4c-10.1,0-18.4,8.2-18.5,18.2v0v17.2
		c0,10.2,8.3,18.5,18.5,18.5c10.2,0,18.4-8.3,18.4-18.5C332.7,34.7,332.1,34.1,331.4,34.1"/>
	<path clip-path="url(#SVGID_2_)" d="M401.4,1.9c-0.7,0-1.3,0.6-1.3,1.3v50c0,0.7,0.6,1.3,1.3,1.3s1.3-0.6,1.3-1.3v-50
		C402.7,2.4,402.1,1.9,401.4,1.9"/>
	<path clip-path="url(#SVGID_2_)" d="M438.2,36.3v-0.2v-33c0-0.7-0.6-1.3-1.3-1.3c-0.7,0-1.3,0.6-1.3,1.3v33v0.2v0.2
		c0,8.5-6.9,15.5-15.5,15.5c-0.7,0-1.3,0.6-1.3,1.3c0,0.7,0.6,1.3,1.3,1.3c9.9,0,18-8.1,18-18V36.3z"/>
	<path clip-path="url(#SVGID_2_)" fill="#005AAF" d="M466.9,28L491,4c0.3-0.2,0.4-0.6,0.4-0.9c0-0.3-0.1-0.7-0.4-0.9
		c-0.3-0.2-0.6-0.4-0.9-0.4s-0.7,0.1-0.9,0.4l-31.3,31.2V3.2c0-0.7-0.6-1.3-1.3-1.3c-0.7,0-1.3,0.6-1.3,1.3v33.3
		c0,0.7,0.6,1.3,1.3,1.3c0.4,0,0.7-0.2,1-0.5l7.5-7.4l24.1,24.2c0.2,0.2,0.6,0.4,0.9,0.4c0.4,0,0.7-0.1,0.9-0.4
		c0.5-0.5,0.5-1.3,0-1.8L466.9,28z"/>
	<path clip-path="url(#SVGID_2_)" d="M540.3,51.9h-32.2V3.2c0-0.7-0.6-1.3-1.3-1.3c-0.7,0-1.3,0.6-1.3,1.3v50c0,0.7,0.6,1.3,1.3,1.3
		h33.4c0.7,0,1.3-0.6,1.3-1.3C541.6,52.5,541,51.9,540.3,51.9"/>
	<path clip-path="url(#SVGID_2_)" d="M579.6,3c0,0,0-0.1,0-0.1c0,0,0-0.1,0-0.1V2.7c0-0.1,0-0.1-0.1-0.1c0,0,0-0.1-0.1-0.1
		c0,0,0-0.1-0.1-0.1c0,0,0-0.1-0.1-0.1c-0.1-0.1-0.3-0.2-0.4-0.3c0,0-0.1,0-0.1,0c0,0-0.1,0-0.1,0c-0.1,0-0.2,0-0.3,0
		c-0.1,0-0.2,0-0.3,0c0,0,0,0-0.1,0c0,0-0.1,0-0.1,0c0,0-0.1,0-0.1,0c0,0-0.1,0-0.1,0.1c0,0-0.1,0-0.1,0.1c0,0-0.1,0.1-0.1,0.1
		c0,0-0.1,0.1-0.1,0.2l0,0l-15.7,23.2L546,2.4c-0.2-0.3-0.6-0.6-1-0.6c-0.3,0-0.5,0.1-0.7,0.2c-0.3,0.2-0.5,0.5-0.5,0.8
		c0,0.3,0,0.7,0.2,0.9l16.7,24.7l0,0l0,0.1h0l0,0v0c0,0,0.1,0.1,0.1,0.2c0,0,0,0,0.1,0.1l0,0c0,0,0,0,0.1,0.1c0,0,0.1,0,0.1,0.1h0
		l0,0c0.1,0,0.2,0.1,0.3,0.1v0h0c0.1,0,0.2,0,0.3,0c0.1,0,0.2,0,0.3,0l0,0c0.1,0,0.2,0,0.3-0.1l0,0c0,0,0,0,0.1-0.1c0,0,0,0,0.1-0.1
		c0,0,0,0,0-0.1c0,0,0.1-0.1,0.1-0.1v0l0,0v0v0l0,0l14.4-21.3v45.9c0,0.7,0.6,1.3,1.3,1.3c0.7,0,1.3-0.6,1.3-1.3v-50
		C579.7,3.1,579.7,3.1,579.6,3"/>
	<path clip-path="url(#SVGID_2_)" d="M599.8,78.9L599.8,78.9L599.8,78.9c0.1-0.1,0.1-0.2,0.1-0.2c0,0,0-0.1,0-0.1c0-0.1,0-0.1,0-0.1
		c0-0.1,0-0.1,0-0.2v-0.1V78l0,0c0-0.1,0-0.1,0-0.1l-0.1,0l0,0l0.1,0c0,0,0-0.1,0-0.1c0,0,0-0.1,0-0.1c0-0.1,0-0.1-0.1-0.1
		c0,0,0-0.1,0-0.1c0,0,0,0,0,0v-0.1l-0.3-0.1l0,0c-0.1,0-0.1-0.1-0.2-0.1c0,0-0.1,0-0.1,0c0,0-0.1,0-0.1,0c0,0-0.1,0-0.2,0
		c0,0,0,0-0.1,0l-33.9,0c-0.7,0-1.3,0.6-1.3,1.3c0,0.4,0.1,0.7,0.4,0.9c0.2,0.2,0.6,0.4,0.9,0.4l31.5,0L563.9,128
		c-0.2,0.2-0.3,0.5-0.3,0.9v0v0c0,0.4,0.2,0.8,0.6,1c0.2,0.1,0.5,0.2,0.7,0.2c0.1,0,0.2,0,0.3,0l33.6,0.1c0.7,0,1.3-0.6,1.3-1.3
		c0-0.7-0.6-1.3-1.3-1.3l-31.5,0L599.8,78.9L599.8,78.9z"/>
	<path clip-path="url(#SVGID_2_)" d="M34.7,77.6c-0.7,0-1.3,0.6-1.3,1.3v45.8L2.3,78.2c-0.2-0.4-0.6-0.6-1.1-0.6
		c-0.2,0-0.5,0.1-0.7,0.2C0,78.3-0.2,79,0.2,79.6l33.5,50l0.1,0.1l0,0c0,0,0.1,0.1,0.1,0.1c0,0,0,0,0.1,0c0.1,0,0.1,0.1,0.2,0.1
		c0,0,0.1,0,0.1,0c0.1,0,0.1,0.1,0.2,0.1c0,0,0,0,0.1,0c0.1,0,0.2,0,0.3,0c0.1,0,0.1,0,0.2,0c0,0,0.1,0,0.1,0c0,0,0.1,0,0.2,0
		c0,0,0,0,0.1,0c0.1,0,0.1-0.1,0.2-0.1l0.2-0.2v-0.1c0,0,0,0,0,0c0,0,0-0.1,0.1-0.1c0,0,0-0.1,0.1-0.1l-0.2-0.1c0,0,0,0,0,0l0.2,0.1
		c0,0,0-0.1,0-0.1c0,0,0-0.1,0-0.1c0,0,0-0.1,0-0.1c0-0.1,0-0.2,0-0.2v-50C36,78.2,35.4,77.6,34.7,77.6"/>
	<path clip-path="url(#SVGID_2_)" d="M66.2,127.7c-8.5,0-15.5-6.9-15.5-15.5V95.6c0-8.5,6.9-15.4,15.5-15.4
		c8.5,0,15.5,6.9,15.5,15.4v16.6C81.6,120.8,74.7,127.7,66.2,127.7 M66.2,77.7c-9.9,0-18,8-18,17.9v16.6c0,9.9,8.1,18,18,18
		s18-8.1,18-18V95.6C84.2,85.7,76.1,77.7,66.2,77.7"/>
	<path clip-path="url(#SVGID_2_)" d="M115.3,77.7c-9.9,0-18,8-18,17.9v33.4c0,0.7,0.6,1.3,1.3,1.3c0.7,0,1.3-0.6,1.3-1.3V95.6
		c0-8.5,6.9-15.4,15.5-15.4c8.5,0,15.5,6.9,15.5,15.4c0,8.5-6.9,15.4-15.5,15.4c-0.7,0-1.3,0.6-1.3,1.3c0,0.7,0.6,1.3,1.3,1.3
		c9.9,0,18-8,18-17.9C133.3,85.7,125.3,77.7,115.3,77.7"/>
	<path clip-path="url(#SVGID_2_)" d="M161.1,110.8c-0.5,0.5-0.5,1.3,0,1.8l10.9,11c-2.8,2.4-6.3,3.7-10,3.7
		c-8.5,0-15.5-6.9-15.5-15.5V95.1c0-8.5,6.9-15.4,15.5-15.4c8.5,0,15.5,6.9,15.5,15.4v16.7c0,3.7-1.3,7.2-3.6,10l-10.9-11
		c-0.2-0.2-0.6-0.4-0.9-0.4C161.7,110.4,161.4,110.6,161.1,110.8 M180,95.1c0-9.9-8.1-17.9-18-17.9c-9.9,0-18,8-18,17.9v16.7
		c0,9.9,8.1,18,18,18c4.3,0,8.5-1.6,11.8-4.4l4,4c0.2,0.2,0.6,0.4,0.9,0.4s0.7-0.1,0.9-0.4c0.5-0.5,0.5-1.3,0-1.8l-4-4.1
		c2.8-3.3,4.4-7.4,4.4-11.8L180,95.1L180,95.1z"/>
	<path clip-path="url(#SVGID_2_)" d="M231.2,128.2l-14.8-14.8c4-0.6,7.7-2.6,10.4-5.6c3-3.3,4.7-7.6,4.7-12.1
		c0-9.9-8.1-17.9-18-17.9c-9.9,0-18,8-18,17.9V129c0,0.7,0.6,1.3,1.3,1.3c0.7,0,1.3-0.6,1.3-1.3V95.7c0-8.5,6.9-15.4,15.5-15.4
		c8.5,0,15.5,6.9,15.5,15.4c0,8.5-6.9,15.4-15.5,15.4c-0.1,0-0.2,0-0.2,0c0,0-0.1,0-0.1,0c-0.1,0-0.1,0-0.1,0c0,0-0.1,0-0.1,0
		c0,0-0.1,0-0.1,0.1c-0.1,0.1-0.3,0.2-0.4,0.4c0,0,0,0.1-0.1,0.1c0,0.1,0,0.1-0.1,0.1c0,0,0,0.1,0,0.1c0,0.1,0,0.1,0,0.1
		c0,0.2,0,0.3,0,0.5c0,0,0,0.1,0,0.1c0,0.1,0,0.1,0,0.1c0,0,0,0.1,0.1,0.1c0,0,0,0.1,0.1,0.1c0,0.1,0.1,0.1,0.2,0.2l16.7,16.7
		c0.2,0.2,0.6,0.4,0.9,0.4c0.3,0,0.7-0.1,0.9-0.4c0.2-0.2,0.4-0.6,0.4-0.9C231.5,128.7,231.4,128.4,231.2,128.2"/>
	<path clip-path="url(#SVGID_2_)" fill="#005AAF" d="M261.2,94.1c-0.7,0-1.3,0.6-1.3,1.3s0.6,1.3,1.3,1.3c8.5,0,15.5,6.9,15.5,15.5
		c0,8.5-6.9,15.5-15.5,15.5c-0.7,0-1.3,0.6-1.3,1.3c0,0.7,0.6,1.3,1.3,1.3c9.9,0,18-8.1,18-18C279.2,102.1,271.1,94.1,261.2,94.1"/>
	<path clip-path="url(#SVGID_2_)" fill="#005AAF" d="M262.4,112.1c0-0.7-0.6-1.3-1.3-1.3c-8.5,0-15.5-6.9-15.5-15.4
		c0-8.5,6.9-15.4,15.5-15.4c0.7,0,1.3-0.6,1.3-1.3c0-0.7-0.6-1.3-1.3-1.3c-9.9,0-18,8-18,17.9s8.1,17.9,18,17.9
		C261.9,113.3,262.4,112.8,262.4,112.1"/>
	<path clip-path="url(#SVGID_2_)" d="M319.7,77.8h-16.4c-0.1,0-0.2,0-0.4,0s-0.2,0-0.4,0h-16.4c-0.7,0-1.3,0.6-1.3,1.3
		c0,0.7,0.6,1.3,1.3,1.3h15.5v48.8c0,0.7,0.6,1.3,1.3,1.3c0.7,0,1.3-0.6,1.3-1.3V80.3h15.5c0.7,0,1.3-0.6,1.3-1.3
		C321,78.4,320.4,77.8,319.7,77.8"/>
	<path clip-path="url(#SVGID_2_)" d="M368.4,79c0-0.7-0.6-1.3-1.3-1.3c-0.7,0-1.3,0.6-1.3,1.3v33.3v0v0.1c0,8.5-6.9,15.5-15.4,15.5
		c-8.5,0-15.4-6.9-15.4-15.5v-0.1v0V79c0-0.7-0.6-1.3-1.3-1.3c-0.7,0-1.3,0.6-1.3,1.3v33.3v0v0.1c0,9.9,8.1,18,18,18
		c9.9,0,18-8.1,18-18v-0.1v0V79z"/>
	<path clip-path="url(#SVGID_2_)" d="M416.9,77.1c-0.1,0-0.3-0.1-0.4-0.1c-0.5,0-1,0.4-1.2,0.9l-15.5,46.5l-15.5-46.5
		c-0.2-0.5-0.7-0.9-1.2-0.9c-0.1,0-0.3,0-0.4,0.1c-0.7,0.2-1,0.9-0.8,1.6l16.7,50c0.1,0.4,0.4,0.7,0.8,0.9c0.1,0,0.3,0.1,0.4,0.1
		c0.5,0,1.1-0.4,1.2-0.9l16.7-50.1C417.9,78.1,417.6,77.4,416.9,77.1"/>
	<path clip-path="url(#SVGID_2_)" d="M456.7,77.1c-0.7,0-1.3,0.6-1.3,1.3v45.9L441,102.5c-0.2-0.4-0.6-0.6-1.1-0.6
		c-0.3,0-0.5,0.1-0.7,0.2c-0.2,0.1-0.3,0.2-0.4,0.4l-16.7,25.2c-0.4,0.6-0.2,1.4,0.4,1.8c0.2,0.1,0.4,0.2,0.7,0.2
		c0.4,0,0.8-0.2,1.1-0.6l15.7-23.7l15.7,23.7c0.2,0.4,0.6,0.6,1,0.6c0.3,0,0.5-0.1,0.7-0.2c0.4-0.2,0.6-0.6,0.6-1v0V78.3
		C457.9,77.6,457.4,77.1,456.7,77.1"/>
	<path clip-path="url(#SVGID_2_)" d="M493,103.4L509.3,79c0.2-0.3,0.2-0.6,0.2-1c-0.1-0.3-0.3-0.6-0.6-0.8c-0.2-0.1-0.4-0.2-0.7-0.2
		c-0.4,0-0.8,0.2-1,0.6l-15.7,23.5l-15.7-23.5c-0.2-0.4-0.6-0.6-1.1-0.6c-0.3,0-0.5,0.1-0.7,0.2c-0.6,0.4-0.7,1.2-0.3,1.8l16.3,24.3
		l-16.3,24.3c-0.2,0.3-0.3,0.6-0.2,1c0,0.3,0.2,0.6,0.5,0.8c0.2,0.1,0.5,0.2,0.7,0.2c0.4,0,0.8-0.2,1.1-0.6l15.7-23.5l15.7,23.5
		c0.2,0.4,0.6,0.6,1,0.6c0.3,0,0.5-0.1,0.7-0.2c0.6-0.4,0.7-1.2,0.4-1.8L493,103.4z"/>
	<path clip-path="url(#SVGID_2_)" d="M556.9,77.1c-0.2-0.1-0.4-0.2-0.7-0.2c-0.4,0-0.8,0.2-1.1,0.6L539.3,101l-15.9-23.6
		c-0.2-0.4-0.7-0.6-1.1-0.6c-0.2,0-0.5,0.1-0.7,0.2c-0.6,0.4-0.7,1.2-0.4,1.8l16.7,24.8v25.2c0,0.7,0.6,1.3,1.3,1.3
		c0.7,0,1.3-0.6,1.3-1.3v-25.2l16.7-24.8C557.7,78.3,557.5,77.5,556.9,77.1"/>
	<path clip-path="url(#SVGID_2_)" fill="#005AAF" d="M74,203H57.3c-9.9,0-18,8.1-18,18c0,9.9,8.1,18,18,18c0.7,0,1.3-0.6,1.3-1.3
		c0-0.7-0.6-1.3-1.3-1.3c-8.5,0-15.5-6.9-15.5-15.5c0-8.5,6.9-15.5,15.5-15.5h15.5v32.2c0,0.7,0.6,1.3,1.3,1.3s1.3-0.6,1.3-1.3
		v-33.5C75.3,203.6,74.7,203,74,203"/>
	<path clip-path="url(#SVGID_2_)" d="M104.9,203H89.5v-15.3c0-0.7-0.6-1.3-1.3-1.3c-0.7,0-1.3,0.6-1.3,1.3v16.5v0.1v0
		c0,0.7,0.6,1.3,1.3,1.3h16.7c8.5,0,15.5,6.9,15.5,15.5c0,8.5-6.9,15.5-15.5,15.5c-0.7,0-1.3,0.6-1.3,1.3c0,0.7,0.6,1.3,1.3,1.3
		c9.9,0,18-8.1,18-18C122.9,211.1,114.8,203,104.9,203"/>
	<path clip-path="url(#SVGID_2_)" d="M150.5,236.5c-8.5,0-15.5-6.9-15.5-15.5c0-8.5,6.9-15.5,15.5-15.5c0.7,0,1.3-0.6,1.3-1.3
		c0-0.7-0.6-1.3-1.3-1.3c-9.9,0-18,8.1-18,18c0,9.9,8.1,18,18,18c0.7,0,1.3-0.6,1.3-1.3C151.8,237.1,151.2,236.5,150.5,236.5"/>
	<path clip-path="url(#SVGID_2_)" d="M198.8,187.9c0-0.7-0.6-1.3-1.3-1.3c-0.7,0-1.3,0.6-1.3,1.3v15.3h-15.4
		c-9.9,0-17.9,8.1-17.9,17.9c0,9.9,8.1,17.9,17.9,17.9c0.7,0,1.3-0.6,1.3-1.3c0-0.7-0.6-1.3-1.3-1.3c-8.5,0-15.4-6.9-15.4-15.4
		c0-8.5,6.9-15.4,15.4-15.4h16.7c0.7,0,1.3-0.6,1.3-1.3v-0.1v0V187.9z"/>
	<path clip-path="url(#SVGID_2_)" fill="#005AAF" d="M227.1,203c-9.9,0-18,8.1-18,18c0,9.9,8.1,18,18,18c0.7,0,1.3-0.6,1.3-1.3
		c0-0.7-0.6-1.3-1.3-1.3c-8.5,0-15.5-6.9-15.5-15.5c0-8.5,6.9-15.5,15.5-15.5c8.1,0,14.8,6.2,15.4,14.2h-15.4
		c-0.7,0-1.3,0.6-1.3,1.3c0,0.7,0.6,1.3,1.3,1.3h16.7c0.7,0,1.3-0.6,1.3-1.3C245.1,211.1,237,203,227.1,203"/>
	<path clip-path="url(#SVGID_2_)" d="M277.4,219.9H262v-15.4c0-8.5,6.9-15.4,15.5-15.4c0.7,0,1.3-0.6,1.3-1.3c0-0.7-0.6-1.3-1.3-1.3
		c-9.9,0-18,8-18,17.9v50.1c0,0.7,0.6,1.3,1.3,1.3c0.7,0,1.3-0.6,1.3-1.3v-32.2h15.5c0.7,0,1.3-0.6,1.3-1.3
		C278.7,220.5,278.1,219.9,277.4,219.9"/>
	<path clip-path="url(#SVGID_2_)" d="M326.8,221.2L326.8,221.2c0-10-8.1-18.1-18-18.1c-9.9,0-18,8.1-18,18c0,9.9,8.1,18,18,18
		c0.7,0,1.3-0.6,1.3-1.3c0-0.7-0.6-1.3-1.3-1.3c-8.5,0-15.5-6.9-15.5-15.5c0-8.5,6.9-15.5,15.5-15.5c8.5,0,15.5,6.9,15.5,15.5v16.8
		c0,8.5-7,15.4-15.5,15.4c-0.7,0-1.3,0.6-1.3,1.3c0,0.7,0.6,1.3,1.3,1.3c9.9,0,17.9-8,18-17.9v-0.1v0v0V221.2L326.8,221.2z"/>
	<path clip-path="url(#SVGID_2_)" d="M355.9,203c-6.4,0-12.2,3.4-15.4,8.8v-24.1c0-0.7-0.6-1.3-1.3-1.3c-0.7,0-1.3,0.6-1.3,1.3V221
		v0v0c0,0.7,0.6,1.3,1.3,1.3c0.7,0,1.3-0.6,1.3-1.3c0-8.5,6.9-15.5,15.4-15.5c8.5,0,15.4,6.9,15.4,15.5v16.7c0,0.7,0.6,1.3,1.3,1.3
		c0.7,0,1.3-0.6,1.3-1.3V221C373.9,211.1,365.8,203,355.9,203"/>
	<path clip-path="url(#SVGID_2_)" d="M390.7,203c-0.7,0-1.3,0.6-1.3,1.3v33.5c0,0.7,0.6,1.3,1.3,1.3c0.7,0,1.3-0.6,1.3-1.3v-33.5
		C392,203.6,391.4,203,390.7,203"/>
	<path clip-path="url(#SVGID_2_)" d="M415.7,203.2c-0.7,0-1.3,0.6-1.3,1.3v33.4c0,8.5-6.9,15.5-15.5,15.5c-0.7,0-1.3,0.6-1.3,1.3
		c0,0.7,0.6,1.3,1.3,1.3c9.9,0,18-8.1,18-18v-33.4C417,203.8,416.4,203.2,415.7,203.2"/>
	<path clip-path="url(#SVGID_2_)" d="M432.7,221.1l15.8-15.8c0.5-0.5,0.5-1.3,0-1.8c-0.2-0.2-0.6-0.4-0.9-0.4s-0.7,0.1-0.9,0.4
		l-14.6,14.7v-30.4c0-0.7-0.6-1.3-1.3-1.3c-0.7,0-1.3,0.6-1.3,1.3V221v0.1c0,0.4,0.1,0.7,0.4,1l16.6,16.7c0.3,0.3,0.6,0.4,0.9,0.4
		c0.4,0,0.7-0.1,0.9-0.4c0.2-0.3,0.4-0.6,0.4-0.9c0-0.3-0.1-0.7-0.4-0.9L432.7,221.1z"/>
	<path clip-path="url(#SVGID_2_)" d="M464.7,186.5c-0.7,0-1.3,0.6-1.3,1.3v50.1c0,0.7,0.6,1.3,1.3,1.3c0.7,0,1.3-0.6,1.3-1.3v-50.1
		C466,187.1,465.4,186.5,464.7,186.5"/>
	<path clip-path="url(#SVGID_2_)" d="M515.1,219.7c-0.7-9.3-8.6-16.6-18-16.6c-9.3,0-17.2,7.3-18,16.6c0,0.1,0,0.3,0,0.4v17.8
		c0,0.7,0.6,1.3,1.3,1.3c0.7,0,1.3-0.6,1.3-1.3v-16.8c0-8.1,6.2-14.8,14.2-15.4v15.5c0,0.7,0.6,1.3,1.3,1.3c0.7,0,1.3-0.6,1.3-1.3
		v-15.5c8,0.7,14.2,7.3,14.2,15.4v16.8c0,0.7,0.6,1.3,1.3,1.3c0.7,0,1.3-0.6,1.3-1.3V220C515.1,219.9,515.1,219.8,515.1,219.7"/>
	<path clip-path="url(#SVGID_2_)" d="M544.2,203.1c-9.9,0-18,8.1-18,18c0,0.7,0.6,1.3,1.3,1.3c0.7,0,1.3-0.6,1.3-1.3
		c0-8.5,6.9-15.5,15.5-15.5c8.5,0,15.5,6.9,15.5,15.5v16.7c0,0.7,0.6,1.3,1.3,1.3c0.7,0,1.3-0.6,1.3-1.3v-16.7
		C562.2,211.2,554.1,203.1,544.2,203.1"/>
	<path clip-path="url(#SVGID_2_)" d="M67.2,307.1c-8.5,0-15.5-6.9-15.5-15.5c0-8.5,6.9-15.5,15.5-15.5c8.5,0,15.5,6.9,15.5,15.5
		C82.7,300.2,75.7,307.1,67.2,307.1 M67.2,273.6c-9.9,0-18,8.1-18,18c0,9.9,8.1,18,18,18c9.9,0,18-8.1,18-18
		C85.2,281.7,77.1,273.6,67.2,273.6"/>
	<path clip-path="url(#SVGID_2_)" d="M112.8,273.6c-9.9,0-18,8.1-18,18V325c0,0.7,0.6,1.3,1.3,1.3c0.7,0,1.3-0.6,1.3-1.3v-33.5
		c0-8.5,6.9-15.4,15.5-15.4c8.5,0,15.5,6.9,15.5,15.4c0,8.5-6.9,15.5-15.5,15.5c-0.7,0-1.3,0.6-1.3,1.3c0,0.7,0.6,1.3,1.3,1.3
		c9.9,0,18-8.1,18-18C130.8,281.7,122.7,273.6,112.8,273.6"/>
	<path clip-path="url(#SVGID_2_)" d="M156.2,273.6c-9.9,0-18,8.1-18,18c0,9.9,8.1,18,18,18c0.7,0,1.3-0.6,1.3-1.3
		c0-0.7-0.6-1.3-1.3-1.3c-8.5,0-15.5-6.9-15.5-15.5c0-8.5,6.9-15.4,15.5-15.4c8.5,0,15.5,6.9,15.5,15.4V325c0,0.7,0.6,1.3,1.3,1.3
		c0.7,0,1.3-0.6,1.3-1.3v-33.3v-0.1C174.2,281.7,166.2,273.6,156.2,273.6"/>
	<path clip-path="url(#SVGID_2_)" d="M204.7,273.6c-9.9,0-18,8.1-18,18v16.7c0,0.7,0.6,1.3,1.3,1.3c0.7,0,1.3-0.6,1.3-1.3v-16.7
		c0-8.5,6.9-15.5,15.5-15.5c0.7,0,1.3-0.6,1.3-1.3C206,274.2,205.4,273.6,204.7,273.6"/>
	<path clip-path="url(#SVGID_2_)" d="M249,290.4h-32.2c0.7-8,7.3-14.2,15.4-14.2c0.7,0,1.3-0.6,1.3-1.3c0-0.7-0.6-1.3-1.3-1.3
		c-9.9,0-18,8.1-18,18c0,0.7,0.6,1.3,1.3,1.3h32.1c-0.7,8-7.3,14.2-15.4,14.2c-0.7,0-1.3,0.6-1.3,1.3c0,0.7,0.6,1.3,1.3,1.3
		c9.7,0,17.7-7.8,18-17.5c0.1-0.2,0.1-0.3,0.1-0.5C250.2,290.9,249.6,290.4,249,290.4"/>
	<path clip-path="url(#SVGID_2_)" d="M284.1,273.6h-15.6v-15.3c0-0.7-0.6-1.3-1.3-1.3c-0.7,0-1.3,0.6-1.3,1.3v50.1
		c0,0.7,0.6,1.3,1.3,1.3c0.7,0,1.3-0.6,1.3-1.3v-32.2h15.6c0.7,0,1.3-0.6,1.3-1.3C285.4,274.1,284.8,273.6,284.1,273.6"/>
	<path clip-path="url(#SVGID_2_)" d="M325.9,273.6c-0.7,0-1.3,0.6-1.3,1.3v16.7c0,8.5-6.9,15.4-15.5,15.4c-8.5,0-15.5-6.9-15.5-15.4
		c0-0.7-0.6-1.3-1.3-1.3c-0.7,0-1.3,0.6-1.3,1.3c0,9.9,8.1,18,18,18s18-8.1,18-18v-16.7C327.2,274.1,326.6,273.6,325.9,273.6"/>
	<path clip-path="url(#SVGID_2_)" d="M373.1,273.7c-0.2-0.1-0.4-0.1-0.6-0.1c-0.5,0-0.9,0.3-1.1,0.7l-15.6,31.2l-15.6-31.2
		c-0.2-0.4-0.6-0.7-1.1-0.7c-0.2,0-0.4,0-0.6,0.1c-0.6,0.3-0.9,1.1-0.6,1.7l16.8,33.5v0c0,0,0,0,0,0c0,0,0,0.1,0.1,0.1
		c0,0,0,0,0,0.1c0,0,0.1,0.1,0.2,0.1l0,0c0,0,0.1,0,0.1,0l0,0h0l0,0c0,0,0.1,0,0.2,0.1h0h0l0,0c0,0,0.1,0,0.2,0s0.2,0,0.2,0h0h0
		c0,0,0.1,0,0.1,0l0,0l0,0h0l0,0c0,0,0.1,0,0.1,0v0l0,0c0,0,0.1-0.1,0.2-0.2l0,0c0,0,0.1-0.1,0.1-0.1l0,0l0,0v0l0,0l16.7-33.4
		C374,274.8,373.7,274,373.1,273.7"/>
	<path clip-path="url(#SVGID_2_)" fill="#005AAF" d="M413,273.6c-0.7,0-1.3,0.6-1.3,1.3v30.4l-14.6-14.6c0,0-0.1-0.1-0.1-0.1
		c0,0,0,0,0-0.1c0,0-0.1,0-0.1,0l0,0h0c0,0-0.1,0-0.1,0c0,0-0.1,0-0.1,0h0h0h-0.1h0c-0.3,0-0.6,0.1-0.9,0.4l-16.7,16.7
		c-0.5,0.5-0.5,1.3,0,1.8c0.2,0.2,0.5,0.4,0.9,0.4c0.3,0,0.7-0.1,0.9-0.4l15.8-15.9l15.8,15.9c0.1,0,0.1,0.1,0.2,0.1l0,0l0,0l0,0
		c0,0,0.1,0,0.1,0v0h0c0,0,0,0,0.1,0h0.1c0.1,0,0.2,0,0.3,0c0.1,0,0.1,0,0.2,0c0,0,0.1,0,0.1,0c0,0,0.1,0,0.1,0c0,0,0.1,0,0.1-0.1
		c0,0,0.1,0,0.1-0.1c0,0,0.1-0.1,0.2-0.1l0,0v0c0.1,0,0.1-0.1,0.2-0.2c0,0,0-0.1,0.1-0.1c0,0,0-0.1,0-0.1c0,0,0-0.1,0-0.1
		c0,0,0,0,0-0.1c0-0.1,0-0.2,0-0.2v-33.5C414.3,274.1,413.7,273.6,413,273.6"/>
	<path clip-path="url(#SVGID_2_)" d="M448.4,291.6l15.8-15.8c0.2-0.2,0.4-0.6,0.4-0.9c0-0.4-0.1-0.7-0.4-0.9
		c-0.2-0.3-0.6-0.4-0.9-0.4c-0.4,0-0.7,0.1-0.9,0.4l-15.8,15.8l-15.8-15.8c-0.2-0.3-0.6-0.4-0.9-0.4c-0.4,0-0.7,0.1-0.9,0.4
		c-0.3,0.2-0.4,0.5-0.4,0.9c0,0.4,0.1,0.7,0.4,0.9l15.8,15.8l-15.8,15.8c-0.3,0.2-0.4,0.6-0.4,0.9c0,0.3,0.1,0.7,0.4,0.9
		c0.2,0.2,0.6,0.4,0.9,0.4c0.3,0,0.7-0.1,0.9-0.4l15.8-15.8l15.8,15.8c0.2,0.2,0.6,0.4,0.9,0.4c0.3,0,0.7-0.1,0.9-0.4
		c0.5-0.5,0.5-1.3,0-1.8L448.4,291.6z"/>
	<path clip-path="url(#SVGID_2_)" d="M512.2,274.4c-0.1-0.3-0.4-0.6-0.7-0.7c-0.2-0.1-0.4-0.1-0.6-0.1c-0.5,0-0.9,0.3-1.1,0.7
		l-15.6,31.2l-15.6-31.1c-0.2-0.4-0.7-0.7-1.1-0.7c-0.2,0-0.4,0-0.6,0.1c-0.7,0.3-0.9,1.1-0.6,1.7l16.6,33.1V325
		c0,0.7,0.6,1.3,1.3,1.3c0.7,0,1.3-0.6,1.3-1.3v-16.5l16.6-33.2C512.3,275.1,512.3,274.7,512.2,274.4"/>
	<path clip-path="url(#SVGID_2_)" d="M556.5,307h-30.4l31.3-31.3c0,0,0.1-0.1,0.1-0.2c0,0,0-0.1,0-0.1c0,0,0-0.1,0.1-0.2
		c0,0,0-0.1,0-0.1c0,0,0-0.1,0-0.1c0-0.2,0-0.3,0-0.5v0v0h0c0,0,0-0.1,0-0.1c0-0.1-0.1-0.1-0.1-0.1c0,0,0-0.1,0-0.1
		c-0.1-0.1-0.2-0.2-0.4-0.3c0,0,0,0-0.1,0l0,0c0,0,0,0-0.1,0c0,0-0.1,0-0.1,0c0,0,0,0-0.1,0c-0.1,0-0.2,0-0.3,0H523
		c-0.7,0-1.3,0.6-1.3,1.3c0,0.7,0.6,1.3,1.3,1.3h30.4l-31.3,31.3c0,0-0.1,0.1-0.1,0.2c0,0,0,0.1-0.1,0.1c0,0,0,0,0,0.1v0l0,0
		c0,0,0,0.1,0,0.1c0,0,0,0.1,0,0.1c0,0.2,0,0.4,0,0.5v0v0v0c0,0,0,0.1,0,0.1l0,0l0,0v0v0l0,0c0,0,0,0.1,0.1,0.1c0,0,0,0.1,0.1,0.1
		c0,0,0,0,0,0.1v0h0v0l0,0c0,0,0.1,0.1,0.1,0.1c0,0,0.1,0,0.1,0.1l0,0c0,0,0,0,0.1,0c0.1,0,0.2,0.1,0.2,0.1h0.1c0.1,0,0.2,0,0.3,0
		h33.5c0.7,0,1.3-0.6,1.3-1.3C557.8,307.6,557.2,307,556.5,307"/>
	<path clip-path="url(#SVGID_2_)" fill="#005AAF" d="M90.7,414.7c0,9-7.3,16.3-16.3,16.3c-4.3,0-8.3-1.6-11.4-4.6
		c-3-2.9-4.7-6.7-4.9-10.9l32.6-16.2V414.7z M58.1,397.1c0-9,7.3-16.2,16.3-16.2c4.3,0,8.3,1.6,11.4,4.6c3,2.9,4.7,6.7,4.9,10.8
		l-32.6,16.2V397.1z M74.4,378.2c-10.5,0-19,8.5-19,18.9v17.6c0,10.5,8.5,19,19,19c10.5,0,19-8.5,19-19v-17.6
		C93.4,386.6,84.9,378.2,74.4,378.2"/>
	<path clip-path="url(#SVGID_2_)" d="M546,397.2c0-10.5-8.5-19-19-19c-10.5,0-19,8.5-19,19c0,10.5,8.5,19,19,19
		c0.7,0,1.3-0.6,1.3-1.3c0-0.7-0.6-1.4-1.3-1.4c-9,0-16.3-7.3-16.3-16.3s7.3-16.3,16.3-16.3c8.9,0,16.1,7.2,16.3,16l-17.5,34.9
		c-0.3,0.7-0.1,1.5,0.6,1.8c0.2,0.1,0.4,0.1,0.6,0.1c0.5,0,1-0.3,1.2-0.7l17.6-35.2l0,0v0c0,0,0-0.1,0-0.1c0,0,0-0.1,0-0.1
		c0,0,0-0.1,0-0.1V397.2L546,397.2L546,397.2z"/>
	<path clip-path="url(#SVGID_2_)" fill="#005AAF" d="M490.5,403.2c-3.6-4.7-9.2-7.5-15.1-7.5c-6,0-11.5,2.8-15.1,7.5
		c-0.8-1.9-1.2-4-1.2-6.1c0-9,7.3-16.2,16.3-16.2s16.3,7.3,16.3,16.2C491.6,399.2,491.3,401.3,490.5,403.2 M461.6,405.9
		c3-4.7,8.1-7.5,13.7-7.5s10.7,2.8,13.7,7.5c-0.7,1-1.4,2-2.3,2.8c-3.1,3-7.1,4.6-11.4,4.6C469.7,413.3,464.6,410.5,461.6,405.9
		 M475.3,431c-9,0-16.3-7.3-16.3-16.3c0-2.1,0.4-4.2,1.2-6.1c3.6,4.7,9.2,7.5,15.1,7.5c5,0,9.7-1.9,13.3-5.4c0.7-0.7,1.3-1.3,1.8-2
		c0.8,1.9,1.2,4,1.2,6.1C491.6,423.7,484.3,431,475.3,431 M494.3,397.1c0-10.5-8.5-18.9-19-18.9c-10.5,0-19,8.5-19,18.9
		c0,3,0.8,6.1,2.2,8.8c-1.4,2.7-2.2,5.7-2.2,8.8c0,10.5,8.5,19,19,19c10.5,0,19-8.5,19-19c0-3.1-0.7-6.1-2.2-8.8
		C493.6,403.2,494.3,400.2,494.3,397.1"/>
	<path clip-path="url(#SVGID_2_)" d="M446.1,379.3c0,0,0-0.1,0-0.1c0-0.1,0-0.1,0-0.1c0,0,0-0.1,0-0.1c0,0,0-0.1-0.1-0.1
		c0,0-0.1-0.1-0.1-0.1c0,0,0,0,0,0v-0.1l-0.3-0.1l0,0l0,0c0,0-0.1,0-0.2-0.1c0,0-0.1,0-0.1,0c0,0-0.1,0-0.1,0c0,0-0.1,0-0.2,0h-0.1
		h-35.3c-0.7,0-1.4,0.6-1.4,1.4s0.6,1.4,1.4,1.4h32.8l-33.9,50.7c-0.2,0.3-0.3,0.7-0.2,1c0.1,0.4,0.3,0.7,0.6,0.9
		c0.2,0.2,0.5,0.2,0.7,0.2c0.4,0,0.8-0.2,1.1-0.6l35.3-52.8v0l0-0.1v0c0-0.1,0.1-0.1,0.1-0.2c0,0,0-0.1,0-0.1c0-0.1,0-0.1,0-0.2
		v-0.2v0V379.3z"/>
	<path clip-path="url(#SVGID_2_)" d="M373.4,395.6c-0.7,0-1.4,0.6-1.4,1.4s0.6,1.4,1.4,1.4c9,0,16.3,7.3,16.3,16.3
		c0,9-7.3,16.3-16.3,16.3c-8.9,0-16.2-7.2-16.3-16l17.5-34.9c0.2-0.3,0.2-0.7,0.1-1c-0.1-0.3-0.4-0.6-0.7-0.8
		c-0.2-0.1-0.4-0.1-0.6-0.1c-0.5,0-1,0.3-1.2,0.7l-17.7,35.2v0l0,0c0,0,0,0.1,0,0.1c0,0.1,0,0.1,0,0.1c0,0.1,0,0.1,0,0.1v0.1v0.1
		c0,10.5,8.5,19,19,19c10.5,0,19-8.5,19-19C392.3,404.2,383.8,395.6,373.4,395.6"/>
	<path clip-path="url(#SVGID_2_)" d="M321,395.6c-6.9,0-13,3.7-16.3,9.3v-24h34c0.8,0,1.4-0.6,1.4-1.4c0-0.7-0.6-1.4-1.4-1.4h-35
		c-0.1,0-0.1,0-0.2,0c0,0-0.1,0-0.1,0c-0.7,0-1.3,0.6-1.3,1.4v35.1v0v0c0,0.7,0.6,1.3,1.3,1.3c0.7,0,1.3-0.6,1.3-1.3v-0.1
		c0-9,7.3-16.3,16.3-16.3c9,0,16.3,7.3,16.3,16.3S330,431,321,431c-0.7,0-1.3,0.6-1.3,1.4c0,0.7,0.6,1.3,1.3,1.3
		c10.5,0,19-8.5,19-19C340,404.2,331.5,395.6,321,395.6"/>
	<path clip-path="url(#SVGID_2_)" d="M286.8,413.4h-33.1l16.7-33.2c0.3-0.7,0.1-1.5-0.6-1.8c-0.2-0.1-0.4-0.1-0.6-0.1
		c-0.5,0-1,0.3-1.2,0.7l-17.7,35.2c-0.2,0.3-0.2,0.7-0.1,1c0.1,0.3,0.4,0.6,0.7,0.8c0.2,0.1,0.4,0.1,0.6,0.1c0,0,0.1,0,0.1,0
		c0.1,0,0.1,0,0.2,0h16v16.3c0,0.7,0.6,1.3,1.4,1.3c0.7,0,1.3-0.6,1.3-1.3v-16.3h16.3c0.7,0,1.3-0.6,1.3-1.3
		C288.1,414,287.5,413.4,286.8,413.4"/>
	<path clip-path="url(#SVGID_2_)" fill="#005AAF" d="M230.9,401.9c-2.9-3.2-6.8-5.3-11-6l15.6-15.4l0.2-0.2v0c0,0,0-0.1,0.1-0.1
		c0,0,0-0.1,0.1-0.1c0,0,0-0.1,0-0.1c0,0,0-0.1,0-0.1c0-0.1,0-0.2,0-0.3v0l0,0c0,0,0-0.1,0-0.2c0,0,0-0.1,0-0.1c0,0,0-0.1,0-0.1
		c0,0,0-0.1,0-0.1h0l0,0c0,0,0,0-0.1-0.1v-0.1l-0.2-0.1c0,0-0.1,0-0.1-0.1c0,0-0.1,0-0.1,0c0,0-0.1,0-0.1-0.1c0,0-0.1,0-0.1,0
		c0,0-0.1,0-0.1,0c-0.1,0-0.2,0-0.3,0h-35.3c-0.7,0-1.4,0.6-1.4,1.4s0.6,1.4,1.4,1.4h32.1l-15.4,15.2c-0.5,0.5-0.5,1.4,0,1.9
		c0.2,0.2,0.6,0.4,0.9,0.4h0h0h0c9,0,16.3,7.3,16.3,16.3c0,9-7.3,16.3-16.3,16.3c-9,0-16.3-7.3-16.3-16.3c0-0.7-0.6-1.3-1.4-1.3
		c-0.7,0-1.3,0.6-1.3,1.3c0,10.5,8.5,19,19,19c10.5,0,19-8.5,19-19C235.9,410,234.1,405.4,230.9,401.9"/>
	<path clip-path="url(#SVGID_2_)" d="M182.2,431h-32.1l33-33c0.1,0,0.1-0.1,0.2-0.2c0,0,0-0.1,0.1-0.1c0,0,0-0.1,0.1-0.1
		c0,0,0-0.1,0-0.1v0l0,0c0,0,0-0.1,0-0.1c0-0.1,0-0.1,0-0.2c0-10.5-8.5-18.9-19-18.9c-10.5,0-19,8.5-19,18.9c0,0.7,0.6,1.4,1.3,1.4
		c0.8,0,1.3-0.6,1.3-1.4c0-9,7.3-16.2,16.3-16.2c8.7,0,16,7,16.3,15.7l-34.9,34.9c-0.1,0.1-0.1,0.1-0.2,0.2c0,0,0,0,0,0.1
		c0,0-0.1,0.1-0.1,0.1c0,0,0,0.1,0,0.1c0,0.1,0,0.1,0,0.1c0,0.1,0,0.2,0,0.3v0v0c0,0.1,0,0.1,0,0.2c0,0,0,0.1,0,0.1l0.3-0.1l0,0
		l-0.3,0.1c0,0,0,0.1,0,0.1c0,0,0,0.1,0.1,0.1c0,0.1,0,0.1,0.1,0.1c0.1,0.1,0.2,0.3,0.4,0.4c0,0,0.1,0,0.1,0.1c0,0,0.1,0,0.1,0
		c0,0,0.1,0,0.1,0c0.1,0,0.1,0,0.1,0c0.1,0,0.2,0,0.3,0h35.3c0.7,0,1.3-0.6,1.3-1.3C183.6,431.6,183,431,182.2,431"/>
	<path clip-path="url(#SVGID_2_)" d="M124.3,378.2h-17.7c-0.7,0-1.3,0.6-1.3,1.4s0.6,1.4,1.3,1.4H123v51.5c0,0.7,0.6,1.3,1.3,1.3
		c0.7,0,1.3-0.6,1.3-1.3v-52.8C125.7,378.8,125.1,378.2,124.3,378.2"/>
</g>
</svg>
