<svg width="450" height="300" viewBox="0 0 450 300" fill="none" xmlns="http://www.w3.org/2000/svg">
<path fill-rule="evenodd" clip-rule="evenodd" d="M37.7449 168.532L44.3322 150.646L50.6159 168.532H37.7449ZM57.0172 186.558H63.0571L47.381 143.5H41.4073L25 186.558H31.0998L35.9168 173.362H52.3242L57.0172 186.558Z" fill="#002AB1"/>
<path fill-rule="evenodd" clip-rule="evenodd" d="M76.189 171.688C70.5916 170.478 64.8103 169.157 64.8103 162.405C64.8103 156.476 69.824 152.739 77.397 152.739C82.2952 152.739 86.9754 154.563 89.308 159.023L84.2152 161.146C83.8068 159.957 81.1706 156.959 76.7705 156.959C72.4602 156.959 70.3051 159.51 70.3051 161.716C70.3051 164.817 74.4016 166.106 77.8994 166.809C85.1345 168.265 91.4289 170.119 91.4289 176.941C91.4289 182.246 86.7188 187.223 77.7219 187.223C71.0983 187.223 66.3925 185.008 64.1304 180.382L69.9373 179.368C71.3955 181.904 74.0317 183.003 77.9593 183.003C82.8297 183.003 85.6797 181.145 85.6797 177.628C85.6797 173.908 81.0038 172.732 76.189 171.688Z" fill="#002AB1"/>
<path fill-rule="evenodd" clip-rule="evenodd" d="M103.492 153.733H109.44V158.311H103.492V176.937C103.492 180.801 103.492 182.458 105.841 182.458C106.878 182.458 108.334 182.041 109.44 181.696V186.231C108.471 186.368 106.186 186.781 104.11 186.781C97.749 186.781 97.749 183.691 97.8174 179.422V158.311H92.6284V153.733H97.8174V145.912L103.492 143.55V153.733Z" fill="#002AB1"/>
<path fill-rule="evenodd" clip-rule="evenodd" d="M119.891 153.814V159.675C122.999 153.491 128.881 153.35 131.096 153.282V158.956C125.702 158.993 123.055 160.098 121.274 162.999C119.814 165.368 119.891 168.695 119.891 171.509V186.558H114.396V153.814H119.891Z" fill="#002AB1"/>
<path fill-rule="evenodd" clip-rule="evenodd" d="M194.604 143.507V148.877L170.237 181.393H195.216V186.558H163.586V180.965L188.075 148.815H163.605V143.507H194.604Z" fill="#002AB1"/>
<path fill-rule="evenodd" clip-rule="evenodd" d="M235.148 154.041V158.798C238.203 153.453 243.414 152.968 245.357 152.968C249.524 152.968 254.517 155.052 256.109 160.455C256.667 162.39 256.667 164.391 256.667 167.156V186.558H251.19V168.054C251.19 164.735 251.19 163.771 250.843 162.666C249.873 159.557 246.817 158.178 243.828 158.178C241.4 158.178 239.315 158.935 237.577 160.662C235.148 163.078 235.148 165.563 235.148 167.987V186.558H229.651V154.041H235.148Z" fill="#002AB1"/>
<path fill-rule="evenodd" clip-rule="evenodd" d="M319.851 180.762C317.803 183.982 314.076 187.223 307.373 187.223C295.8 187.223 291.432 178.308 291.432 170.296C291.432 161.041 296.469 152.651 306.89 152.651C310.98 152.651 316.706 153.883 319.874 159.161L314.726 161.31C313.751 159.168 311.658 156.688 307.097 156.688C298.068 156.688 297.538 166.978 297.538 169.882C297.538 180.67 303.739 183.003 307.439 183.003C311.679 183.003 313.845 180.967 314.989 178.729L319.851 180.762Z" fill="#002AB1"/>
<path fill-rule="evenodd" clip-rule="evenodd" d="M203.109 166.835H220.472C219.987 158.272 215.05 156.825 211.76 156.825C207.058 156.825 203.732 160.273 203.109 166.835ZM224.994 180.339C223.119 183.527 219.506 187.185 212.378 187.185C202.712 187.185 197.153 180.615 197.153 169.606C197.153 157.306 205.267 152.604 212.173 152.604C218.176 152.604 223.932 155.922 225.867 164.143C226.491 166.905 226.491 169.398 226.491 170.784H202.973C202.834 176.253 205.128 183.174 212.863 183.039C216.017 182.986 218.24 181.553 219.658 179.308L224.994 180.339Z" fill="#002AB1"/>
<path fill-rule="evenodd" clip-rule="evenodd" d="M265.57 166.835H282.933C282.45 158.272 277.513 156.825 274.219 156.825C269.526 156.825 266.192 160.273 265.57 166.835ZM287.455 180.339C285.582 183.527 281.969 187.185 274.841 187.185C265.177 187.185 259.616 180.615 259.616 169.606C259.616 157.306 267.73 152.604 274.635 152.604C280.639 152.604 286.39 155.922 288.33 164.143C288.95 166.905 288.95 169.398 288.95 170.784H265.431C265.294 176.253 267.595 183.174 275.322 183.039C278.475 182.986 280.705 181.553 282.116 179.308L287.455 180.339Z" fill="#002AB1"/>
<path fill-rule="evenodd" clip-rule="evenodd" d="M349.88 186.595L344.167 186.616C344.167 186.616 343.671 184.307 343.515 181.79C341.853 183.512 338.777 187.078 332.555 187.078C326.192 187.078 321.471 183.304 321.471 177.775C321.471 176.043 321.957 174.314 322.927 172.858C324.803 170.089 328.27 167.874 338.018 167.115L343.196 166.7V165.871C343.196 162.478 343.196 156.807 335.895 156.807C331.3 156.807 329.735 159.033 329.205 161.045L324.146 158.933C324.225 158.757 324.317 158.578 324.413 158.396C326.357 154.8 330.169 152.585 335.685 152.585C338.719 152.585 342.649 153.348 345.21 155.354C348.855 158.116 348.768 163.557 348.768 163.557L348.988 180.349C348.988 180.349 349.18 185.226 349.88 186.595ZM342.369 177.566C343.196 175.768 343.269 175.006 343.269 170.226C341.131 170.574 338.238 170.987 334.697 171.752C328.613 173.065 327.576 175.355 327.576 177.636C327.576 180.268 329.649 182.483 333.729 182.483C337.532 182.483 340.782 180.961 342.369 177.566Z" fill="#002AB1"/>
<path fill-rule="evenodd" clip-rule="evenodd" d="M159.707 186.595L153.994 186.616C153.994 186.616 153.496 184.307 153.34 181.79C151.679 183.512 148.604 187.078 142.383 187.078C136.018 187.078 131.297 183.304 131.297 177.775C131.297 176.043 131.782 174.314 132.755 172.858C134.63 170.089 138.098 167.874 147.841 167.115L153.028 166.7V165.871C153.028 162.478 153.028 156.807 145.72 156.807C141.126 156.807 139.565 159.033 139.028 161.045L133.972 158.933C134.055 158.757 134.143 158.578 134.241 158.396C136.187 154.8 139.999 152.585 145.511 152.585C148.545 152.585 152.476 153.348 155.036 155.354C158.681 158.116 158.593 163.557 158.593 163.557L158.814 180.349C158.814 180.349 159.006 185.226 159.707 186.595ZM152.194 177.566C153.028 175.768 153.094 175.006 153.094 170.226C150.961 170.574 148.063 170.987 144.525 171.752C138.444 173.065 137.407 175.355 137.407 177.636C137.407 180.268 139.479 182.483 143.559 182.483C147.358 182.483 150.608 180.961 152.194 177.566Z" fill="#002AB1"/>
<path fill-rule="evenodd" clip-rule="evenodd" d="M424.961 141.236C424.94 141.037 424.918 140.834 424.867 140.642C424.764 140.244 424.658 139.846 424.504 139.466C424.339 139.06 424.138 138.67 423.918 138.292C423.678 137.873 423.407 137.473 423.125 137.084C422.958 136.853 422.768 136.641 422.573 136.438C422.353 136.21 422.126 135.985 421.878 135.791C421.318 135.346 420.76 134.893 420.151 134.518C418.816 133.7 417.487 132.849 416.054 132.218C414.324 131.457 412.648 130.554 410.863 129.934L398.832 125.757C398.832 123.469 398.901 121.181 398.832 118.894C398.734 115.501 398.595 112.107 398.332 108.721C398.148 106.365 397.866 104.015 397.498 101.68C397.212 99.8586 396.778 98.0627 396.373 96.2646C396.281 95.8519 396.14 95.4521 396.006 95.0545C395.884 94.6931 395.751 94.3382 395.604 93.9876C395.471 93.669 395.326 93.3569 395.168 93.0511C395.026 92.7753 394.873 92.5059 394.708 92.2429C394.558 92.0056 394.398 91.7747 394.227 91.5502C394.073 91.3492 393.908 91.1525 393.737 90.9665C393.579 90.7955 393.412 90.633 393.239 90.479C393.083 90.3379 392.914 90.2054 392.745 90.0814C392.587 89.9659 392.422 89.859 392.253 89.7607C392.097 89.6709 391.939 89.5853 391.772 89.5169C391.482 89.3951 391.189 89.2817 390.885 89.1962C390.635 89.1257 390.378 89.0872 390.12 89.0508C389.929 89.023 389.733 89.0102 389.54 89.0059C389.209 88.9995 388.877 88.9931 388.548 89.0166C388.2 89.0423 387.849 89.0872 387.505 89.1556C387.135 89.2283 386.767 89.3181 386.412 89.44C386.027 89.5682 385.653 89.7243 385.29 89.9018C384.886 90.1006 384.499 90.3315 384.116 90.571C383.712 90.8233 383.314 91.0905 382.932 91.377C382.262 91.8816 381.578 92.3712 380.969 92.9442C378.457 95.3046 375.989 97.712 373.578 100.173C372.291 101.484 371.046 102.837 369.877 104.254C365.241 109.865 360.628 115.496 356.17 121.248C354.192 123.8 352.409 126.499 350.577 129.156C350.119 129.821 349.691 130.507 349.298 131.211C348.61 132.44 347.968 133.693 347.34 134.955C347.175 135.282 347.047 135.628 346.923 135.972C346.803 136.302 346.692 136.633 346.604 136.973C346.523 137.291 346.454 137.616 346.418 137.944C346.386 138.245 346.382 138.551 346.401 138.854C346.412 139.006 346.457 139.154 346.506 139.297C346.559 139.453 346.63 139.605 346.711 139.748C346.799 139.904 346.903 140.05 347.012 140.191C347.13 140.345 347.254 140.494 347.391 140.629C347.688 140.922 347.992 141.208 348.312 141.473C348.644 141.747 348.988 142.008 349.347 142.243C349.974 142.654 350.619 143.034 351.267 143.413C351.547 143.577 351.842 143.716 352.133 143.868C352.234 143.919 351.93 143.759 351.829 143.706C351.817 143.699 351.782 143.682 351.795 143.684C351.815 143.691 351.829 143.701 351.844 143.71C352.005 143.793 352.163 143.874 352.323 143.958C356.283 146.027 360.26 148.067 364.202 150.169C368.166 152.281 372.128 154.4 376.043 156.6L384.845 161.548C381.79 163.861 378.675 166.095 375.679 168.483C374.535 169.394 373.473 170.408 372.438 171.44C371.596 172.278 370.802 173.17 370.052 174.094C369.453 174.829 368.908 175.612 368.397 176.411C367.999 177.038 367.649 177.696 367.332 178.367C367.093 178.876 366.903 179.407 366.732 179.943C366.612 180.32 366.533 180.707 366.464 181.096C366.424 181.331 366.413 181.57 366.4 181.81C366.396 181.891 366.411 181.974 366.413 182.056C366.417 182.269 366.405 182.483 366.417 182.699C366.428 182.898 366.452 183.099 366.484 183.296C366.514 183.486 366.554 183.674 366.605 183.858C366.655 184.035 366.714 184.209 366.783 184.38C366.847 184.546 366.922 184.709 367.005 184.865C367.087 185.019 367.17 185.175 367.273 185.314C367.476 185.592 367.683 185.866 367.925 186.111C368.164 186.357 368.431 186.575 368.707 186.779C368.987 186.984 369.284 187.166 369.588 187.33C369.896 187.499 370.217 187.644 370.542 187.777C370.864 187.912 371.189 188.055 371.532 188.13C372.761 188.403 373.999 188.649 375.247 188.82C375.859 188.902 376.481 188.938 377.097 188.889C379.222 188.722 381.349 188.506 383.455 188.175C385.916 187.788 388.358 187.27 390.791 186.738C393.662 186.109 396.525 185.444 399.369 184.696C401.379 184.17 403.423 183.702 405.347 182.915C406.863 182.297 408.393 181.707 409.897 181.059C410.234 180.914 410.553 180.726 410.869 180.542C411.156 180.373 411.436 180.193 411.707 180.001C411.945 179.83 412.178 179.652 412.392 179.451C412.571 179.283 412.736 179.094 412.881 178.896C413.007 178.725 413.114 178.536 413.202 178.344C413.279 178.171 413.337 177.987 413.377 177.803C413.416 177.632 413.433 177.457 413.433 177.281C413.433 177.112 413.414 176.944 413.382 176.779C413.349 176.616 413.3 176.456 413.24 176.302C413.181 176.146 413.104 175.996 413.022 175.849C412.941 175.703 412.847 175.56 412.749 175.426C412.65 175.289 412.546 175.156 412.432 175.034C412.212 174.801 411.988 174.57 411.748 174.357C411.543 174.175 411.318 174.01 411.096 173.852C410.876 173.696 410.647 173.55 410.416 173.412C408.847 172.464 407.288 171.502 405.712 170.572L399.104 166.668C403.115 163.946 407.166 161.274 411.141 158.497C412.841 157.312 414.513 156.083 416.125 154.781C417.506 153.665 418.821 152.469 420.11 151.251C420.721 150.671 421.269 150.026 421.823 149.391C422.075 149.102 422.306 148.794 422.528 148.482C422.731 148.195 422.939 147.911 423.097 147.599C423.614 146.573 424.125 145.54 424.553 144.473C424.728 144.041 424.801 143.571 424.897 143.115C424.942 142.902 424.961 142.686 424.978 142.47C424.995 142.262 425.002 142.053 425 141.845C424.997 141.642 424.983 141.439 424.961 141.236ZM375.632 114.228C377.871 111.904 380.118 109.585 382.397 107.299C382.812 106.88 383.274 106.508 383.718 106.121C383.872 105.986 384.037 105.858 384.199 105.732C384.326 105.633 384.452 105.533 384.586 105.447C384.683 105.388 384.785 105.336 384.89 105.294C384.999 105.249 385.114 105.206 385.232 105.187C385.356 105.165 385.484 105.167 385.608 105.172C385.675 105.174 385.739 105.191 385.801 105.21C385.865 105.232 385.929 105.259 385.991 105.294C386.055 105.33 386.117 105.373 386.175 105.42C386.239 105.473 386.301 105.533 386.357 105.597C386.421 105.67 386.481 105.747 386.534 105.828C386.594 105.922 386.656 106.018 386.697 106.123C386.804 106.407 386.902 106.696 386.975 106.989C387.079 107.412 387.163 107.84 387.229 108.27C387.389 109.322 387.539 110.376 387.659 111.434C387.813 112.8 387.922 114.175 388.05 115.545L388.728 122.843L380.599 120.972L373.011 119.723L371.174 119.582L370.578 119.565C372.263 117.786 373.933 115.994 375.632 114.228ZM370.533 124.376L370.563 124.331L370.604 124.307L370.668 124.301L370.764 124.316L371.048 124.397L371.784 124.679L372.782 125.122C375.367 126.227 377.95 127.332 380.535 128.436C382.247 129.165 383.962 129.89 385.673 130.621L389.057 132.066L389.358 132.203C389.54 134.878 389.763 137.55 389.904 140.227C390.013 142.318 390.06 144.413 390.111 146.506C390.115 146.769 390.094 147.035 390.077 147.297C390.068 147.447 390.053 147.595 390.03 147.742C390.006 147.89 389.979 148.035 389.936 148.178C389.893 148.317 389.846 148.458 389.775 148.587C389.707 148.713 389.617 148.828 389.525 148.939C389.478 148.995 389.418 149.042 389.361 149.087C389.299 149.134 389.234 149.179 389.166 149.215C389.093 149.254 389.016 149.286 388.937 149.314C388.852 149.344 388.764 149.369 388.676 149.386C388.567 149.406 388.456 149.416 388.345 149.418C388.23 149.423 388.112 149.418 387.997 149.406C387.877 149.391 387.755 149.363 387.637 149.333C387.511 149.301 387.383 149.269 387.263 149.217C387 149.106 386.737 148.989 386.489 148.848C386.207 148.687 385.935 148.505 385.673 148.313C385.384 148.099 385.104 147.87 384.834 147.631C384.541 147.372 384.249 147.107 383.981 146.821C383.396 146.194 382.818 145.557 382.275 144.892C381.294 143.693 380.276 142.517 379.412 141.228C378.226 139.453 377.005 137.7 375.848 135.906C375.16 134.833 374.45 133.766 373.875 132.626L371.266 127.452L370.704 125.804L370.578 125.312L370.499 124.842L370.495 124.5L370.533 124.376ZM399.379 170.217C400.081 170.664 400.791 171.1 401.483 171.558C402.377 172.148 403.277 172.734 404.145 173.362C404.767 173.813 405.366 174.303 405.954 174.799C406.217 175.019 406.463 175.261 406.696 175.513C406.886 175.721 407.053 175.949 407.222 176.172C407.233 176.187 407.235 176.208 407.233 176.225C407.233 176.264 407.228 176.306 407.218 176.343C407.209 176.368 407.192 176.39 407.173 176.407C407.149 176.43 407.121 176.452 407.089 176.465C407.051 176.484 407.006 176.495 406.963 176.503C406.901 176.516 406.839 176.525 406.775 176.529C403.346 176.785 399.912 177.021 396.485 177.29L383.085 178.344L382.666 178.367L382.861 178.16L383.703 177.416C385.442 176.123 387.122 174.754 388.914 173.54L396.5 168.394C397.46 169.001 398.42 169.608 399.379 170.217ZM409.7 143.84C409.661 143.962 409.616 144.084 409.557 144.197C409.484 144.33 409.405 144.46 409.309 144.574C409.078 144.845 408.838 145.11 408.577 145.352C408.017 145.863 407.466 146.387 406.848 146.823C404.716 148.334 402.61 149.878 400.455 151.351C398.969 152.367 397.44 153.316 395.927 154.289L387.122 159.944C385.878 159.228 384.631 158.514 383.385 157.8L367.444 148.687C363.843 146.536 360.221 144.422 356.644 142.232C355.971 141.82 355.338 141.343 354.694 140.883C354.489 140.738 354.299 140.571 354.102 140.417C354.04 140.37 353.972 140.33 353.914 140.276C353.777 140.152 353.64 140.026 353.516 139.887C353.439 139.804 353.373 139.71 353.313 139.616C353.249 139.513 353.189 139.408 353.144 139.297C353.097 139.184 353.059 139.064 353.042 138.942C353.025 138.814 353.023 138.683 353.04 138.555C353.059 138.416 353.099 138.277 353.147 138.145C353.2 138.001 353.262 137.86 353.341 137.728C353.501 137.458 353.67 137.191 353.861 136.943C354.081 136.656 354.32 136.383 354.573 136.124C356.632 134.003 358.722 131.914 360.792 129.804L366.372 124.113L366.638 125.032L367.317 126.648L367.364 126.747C368.84 129.304 370.225 131.914 371.79 134.418C373.588 137.296 375.519 140.09 377.45 142.88C378.354 144.187 379.301 145.467 380.295 146.707C381.161 147.787 382.057 148.85 383.03 149.835C383.885 150.703 384.819 151.494 385.769 152.256C386.239 152.634 386.767 152.935 387.285 153.248C387.53 153.395 387.793 153.517 388.056 153.632C388.304 153.742 388.561 153.84 388.82 153.921C389.072 154.002 389.329 154.071 389.589 154.124C389.825 154.173 390.066 154.21 390.306 154.231C390.524 154.25 390.744 154.255 390.962 154.248C391.165 154.242 391.368 154.223 391.569 154.193C391.755 154.165 391.939 154.122 392.121 154.071C392.29 154.024 392.459 153.964 392.623 153.895C392.775 153.831 392.925 153.757 393.07 153.677C393.207 153.6 393.346 153.521 393.472 153.425C393.705 153.252 393.934 153.07 394.146 152.869C394.325 152.698 394.49 152.51 394.642 152.311C394.832 152.061 395.005 151.796 395.165 151.527C395.36 151.195 395.544 150.857 395.706 150.509C395.884 150.12 396.053 149.724 396.185 149.318C396.463 148.469 396.728 147.616 396.938 146.75C397.222 145.576 397.539 144.403 397.665 143.203L398.385 136.25C400.036 137.02 401.721 137.715 403.335 138.555C404.911 139.376 406.416 140.325 407.944 141.234C408.124 141.341 408.293 141.465 408.453 141.597C408.68 141.786 408.898 141.984 409.103 142.196C409.212 142.307 409.306 142.433 409.394 142.562C409.477 142.69 409.554 142.823 409.61 142.962C409.666 143.101 409.7 143.248 409.728 143.393C409.74 143.464 409.736 143.541 409.732 143.614C409.728 143.691 409.721 143.768 409.7 143.84Z" fill="#002AB1"/>
</svg>
