<svg width="254" height="176" viewBox="0 0 254 176" fill="none" xmlns="http://www.w3.org/2000/svg">
<path fill-rule="evenodd" clip-rule="evenodd" d="M80.9324 176L148.735 1H165.244L97.4416 176H80.9324Z" fill="white"/>
<path fill-rule="evenodd" clip-rule="evenodd" d="M185.205 30.8008L253.04 78.6845V96.5157L185.205 144.399L174.844 131.111L237.264 87.6001L174.844 44.0896L185.205 30.8008ZM185.812 34.9014L179.156 43.4383L242.51 87.6001L179.156 131.762L185.812 140.299L250.04 94.9613V80.239L185.812 34.9014Z" fill="white"/>
<path opacity="0.5" fill-rule="evenodd" clip-rule="evenodd" d="M39.6343 0H59.6939L58.3611 37.0966L92.306 24.6724L98.6337 42.1367L62.84 52.3635L86.1966 81.9484L69.8459 92.7651L49.6641 62.6033L29.4824 92.7651L13.1317 81.9484L36.4882 52.3635L0.69458 42.1367L7.02224 24.6724L40.9671 37.0966L39.6343 0ZM41.7074 2L43.0726 39.997L8.2191 27.2402L3.30519 40.8026L39.9073 51.2603L16.0492 81.4805L28.9266 89.9993L49.6641 59.0069L70.4017 89.9993L83.279 81.4805L59.421 51.2603L96.023 40.8026L91.1091 27.2402L56.2556 39.997L57.6208 2H41.7074Z" fill="white"/>
</svg>
