<svg width="268" height="187" viewBox="0 0 268 187" fill="none" xmlns="http://www.w3.org/2000/svg">
<path opacity="0.4" fill-rule="evenodd" clip-rule="evenodd" d="M17.2178 101.341C20.0747 101.341 22.3906 99.0211 22.3906 96.1591C22.3906 93.297 20.0747 90.9769 17.2178 90.9769C14.3609 90.9769 12.0449 93.297 12.0449 96.1591C12.0449 99.0211 14.3609 101.341 17.2178 101.341Z" fill="#F1FAFF"/>
<path fill-rule="evenodd" clip-rule="evenodd" d="M127.1 94.9758C127.1 81.3413 138.153 70.2883 151.787 70.2883C165.422 70.2883 176.475 81.3413 176.475 94.9758C176.475 108.61 165.422 119.663 151.787 119.663C138.153 119.663 127.1 108.61 127.1 94.9758ZM151.787 76.2883C141.466 76.2883 133.1 84.655 133.1 94.9758C133.1 105.297 141.466 113.663 151.787 113.663C162.108 113.663 170.475 105.297 170.475 94.9758C170.475 84.655 162.108 76.2883 151.787 76.2883Z" fill="#F1FAFF"/>
<path opacity="0.4" fill-rule="evenodd" clip-rule="evenodd" d="M157.741 42.9763L133.727 152.942L47.7749 66.9899L157.741 42.9763ZM51.7766 68.1632L132.554 148.941L155.122 45.5953L51.7766 68.1632Z" fill="#F1FAFF"/>
<path d="M69.4905 63.6494L89.9376 43.2023L110.385 63.6494L89.9376 84.0965L69.4905 63.6494Z" fill="#F1FAFF"/>
<path fill-rule="evenodd" clip-rule="evenodd" d="M89.9376 44.6165L70.9047 63.6494L89.9376 82.6823L108.971 63.6494L89.9376 44.6165ZM69.4905 63.6494L89.9376 84.0965L110.385 63.6494L89.9376 43.2023L69.4905 63.6494Z" fill="#F1FAFF"/>
<path fill-rule="evenodd" clip-rule="evenodd" d="M3.64893 159.715V30.8754C3.64893 28.114 5.88751 25.8754 8.64893 25.8754H201.664C204.425 25.8754 206.664 28.114 206.664 30.8754V72H209.664V30.8754C209.664 26.4571 206.082 22.8754 201.664 22.8754H8.64893C4.23065 22.8754 0.648926 26.4571 0.648926 30.8754V159.715C0.648926 164.134 4.23066 167.715 8.64893 167.715H196V164.715H8.64893C5.88751 164.715 3.64893 162.477 3.64893 159.715Z" fill="#F1FAFF"/>
<path fill-rule="evenodd" clip-rule="evenodd" d="M253.692 74.5952H204.169C201.408 74.5952 199.169 76.8337 199.169 79.5952V177.603C199.169 180.365 201.408 182.603 204.169 182.603H253.692C256.454 182.603 258.692 180.365 258.692 177.603V79.5952C258.692 76.8337 256.454 74.5952 253.692 74.5952ZM204.169 71.5952C199.751 71.5952 196.169 75.1769 196.169 79.5952V177.603C196.169 182.022 199.751 185.603 204.169 185.603H253.692C258.111 185.603 261.692 182.022 261.692 177.603V79.5952C261.692 75.1769 258.111 71.5952 253.692 71.5952H204.169Z" fill="#F1FAFF"/>
<mask id="mask0" mask-type="alpha" maskUnits="userSpaceOnUse" x="196" y="72" width="66" height="115">
<rect x="197.5" y="73.5" width="62.5229" height="111.008" rx="6.5" stroke="#F1FAFF" stroke-width="3"/>
</mask>
<g mask="url(#mask0)">
<path fill-rule="evenodd" clip-rule="evenodd" d="M229.776 131.786C229.776 120.813 238.671 111.918 249.644 111.918C260.617 111.918 269.512 120.813 269.512 131.786C269.512 142.759 260.617 151.654 249.644 151.654C238.671 151.654 229.776 142.759 229.776 131.786ZM249.644 117.918C241.985 117.918 235.776 124.127 235.776 131.786C235.776 139.445 241.985 145.654 249.644 145.654C257.303 145.654 263.512 139.445 263.512 131.786C263.512 124.127 257.303 117.918 249.644 117.918Z" fill="#F1FAFF"/>
</g>
<path opacity="0.4" fill-rule="evenodd" clip-rule="evenodd" d="M229.793 175.239C232.174 175.239 234.104 173.305 234.104 170.92C234.104 168.535 232.174 166.602 229.793 166.602C227.412 166.602 225.482 168.535 225.482 170.92C225.482 173.305 227.412 175.239 229.793 175.239Z" fill="#F1FAFF"/>
<path opacity="0.4" fill-rule="evenodd" clip-rule="evenodd" d="M246.475 88.0297L248.605 133.506L206.026 108.923L246.475 88.0297ZM210.195 109.021L246.436 129.945L244.623 91.2374L210.195 109.021Z" fill="#F1FAFF"/>
</svg>
