<svg width="242" height="141" viewBox="0 0 242 141" fill="none" xmlns="http://www.w3.org/2000/svg">
<path d="M102.881 70.7205L120.47 53.1314L138.059 70.7205L120.47 88.3096L102.881 70.7205Z" fill="white"/>
<path fill-rule="evenodd" clip-rule="evenodd" d="M31.0501 35.0945C51.0575 17.8292 80.8619 0.5 119.879 0.5C158.893 0.5 189.17 17.8259 209.648 35.0831C219.891 43.7142 227.702 52.3438 232.954 58.8184C235.582 62.0565 237.571 64.7583 238.906 66.6552C239.574 67.6037 240.079 68.3512 240.418 68.8642C240.588 69.1207 240.716 69.3186 240.803 69.4538C240.827 69.4922 240.848 69.5255 240.866 69.5536C240.88 69.575 240.892 69.5935 240.901 69.6088L240.927 69.6501L240.935 69.6615L240.937 69.6648C240.937 69.6658 240.938 69.6666 239.665 70.4603C240.94 71.2508 240.939 71.2516 240.939 71.2526L240.929 71.2674L240.904 71.3086C240.881 71.3443 240.848 71.3962 240.805 71.4638C240.719 71.5989 240.591 71.7969 240.423 72.0535C240.085 72.5666 239.583 73.3142 238.918 74.2628C237.589 76.1599 235.608 78.8618 232.99 82.1002C227.756 88.5753 219.968 97.2053 209.74 105.837C189.29 123.095 159.013 140.421 119.879 140.421C80.7413 140.421 50.9367 123.092 30.9582 105.825C20.9675 97.1907 13.4166 88.5576 8.36099 82.0802C5.83245 78.8406 3.92601 76.1375 2.64875 74.2394C2.01007 73.2903 1.52854 72.5422 1.20505 72.0286C1.0433 71.7718 0.921054 71.5737 0.838412 71.4383C0.797091 71.3706 0.76567 71.3186 0.744164 71.2828L0.719342 71.2414L0.712511 71.2299L0.710491 71.2265C0.709869 71.2255 0.709401 71.2247 2.00004 70.4603C0.711408 69.6926 0.711876 69.6918 0.712499 69.6908L0.714527 69.6874L0.721388 69.6759L0.746336 69.6345C0.767955 69.5988 0.799544 69.5468 0.841087 69.4791C0.924173 69.3438 1.04708 69.1457 1.20968 68.8889C1.53487 68.3755 2.01886 67.6275 2.6606 66.6784C3.94397 64.7805 5.85888 62.0777 8.3968 58.8383C13.4712 52.3614 21.0446 43.7288 31.0501 35.0945ZM2.00004 70.4603L0.711408 69.6926L0.255371 70.4581L0.709401 71.2247L2.00004 70.4603ZM3.76414 70.4625C4.0723 70.9511 4.53044 71.6621 5.1377 72.5646C6.3798 74.4104 8.24506 77.0558 10.7259 80.2343C15.6891 86.5933 23.1077 95.0752 32.9199 103.556C52.5473 120.519 81.6822 137.421 119.879 137.421C158.08 137.421 187.696 120.516 207.805 103.544C217.857 95.0607 225.515 86.5756 230.657 80.2143C233.227 77.0345 235.167 74.388 236.461 72.5412C237.084 71.6534 237.556 70.9506 237.878 70.4625C237.555 69.9743 237.079 69.2709 236.453 68.3822C235.153 66.5352 233.205 63.8884 230.625 60.7085C225.463 54.3467 217.783 45.8612 207.715 37.3772C187.574 20.4042 157.958 3.5 119.879 3.5C81.8043 3.5 52.6692 20.401 33.01 37.3658C23.1823 45.8466 15.7406 54.3291 10.7583 60.6885C8.26793 63.8673 6.39406 66.5129 5.14575 68.3589C4.53492 69.2622 4.07403 69.9739 3.76414 70.4625ZM239.665 70.4603L240.94 71.2508L241.431 70.4581L240.938 69.6666L239.665 70.4603Z" fill="white"/>
<path opacity="0.5" fill-rule="evenodd" clip-rule="evenodd" d="M83.9158 71.0965C83.9158 50.7005 100.45 34.1663 120.846 34.1663C141.242 34.1663 157.776 50.7005 157.776 71.0965C157.776 91.4925 141.242 108.027 120.846 108.027C100.45 108.027 83.9158 91.4925 83.9158 71.0965ZM120.846 36.1663C101.555 36.1663 85.9158 51.8051 85.9158 71.0965C85.9158 90.3879 101.555 106.027 120.846 106.027C140.137 106.027 155.776 90.3879 155.776 71.0965C155.776 51.8051 140.137 36.1663 120.846 36.1663Z" fill="white"/>
<path fill-rule="evenodd" clip-rule="evenodd" d="M120.846 111.027C98.7931 111.027 80.9158 93.1493 80.9158 71.0965C80.9158 49.0437 98.7931 31.1663 120.846 31.1663V39.1663C103.211 39.1663 88.9158 53.4619 88.9158 71.0965C88.9158 88.731 103.211 103.027 120.846 103.027V111.027Z" fill="white"/>
</svg>
