<svg width="450" height="300" viewBox="0 0 450 300" fill="none" xmlns="http://www.w3.org/2000/svg">
<path fill-rule="evenodd" clip-rule="evenodd" d="M97.6426 147.951V128.666C97.6426 126.157 96.3422 123.386 90.0239 123.386V121.744H114.066V123.386C107.756 123.386 106.462 126.157 106.462 128.666V172.082C106.462 174.588 107.756 177.356 114.066 177.356V179H90.0239V177.356C96.3422 177.356 97.6426 174.588 97.6426 172.082V151.497H71.4331V172.082C71.4331 174.588 72.7271 177.356 79.0438 177.356V179H55V177.356C61.3135 177.356 62.6107 174.588 62.6107 172.082V128.666C62.6107 126.157 61.3135 123.386 55 123.386V121.744H79.0438V123.386C72.7271 123.386 71.4331 126.157 71.4331 128.666V147.951H97.6426Z" fill="#002AB1"/>
<path fill-rule="evenodd" clip-rule="evenodd" d="M116.096 161.618H118.085C120.769 169.662 126.822 176.933 135.991 176.933C142.996 176.933 147.749 170.874 145.766 164.125C142.214 152.017 118.609 151.497 118.609 134.98C118.609 126.415 125.438 120.532 133.915 120.532C143.081 120.532 147.23 126.932 149.309 120.532H151.122L153.025 138.96H150.867C148.876 130.914 143.165 124.082 135.124 124.082C129.934 124.082 126.044 126.932 126.044 132.388C126.044 137.4 131.492 140.945 135.209 143.193C146.971 150.29 154.926 154.007 154.926 164.385C154.926 172.171 148.439 180.212 136.685 180.212C127.689 180.212 121.459 173.905 120.591 180.212H118.691L116.096 161.618Z" fill="#002AB1"/>
<path fill-rule="evenodd" clip-rule="evenodd" d="M183.519 147.347C192.253 147.347 197.356 143.625 197.356 136.625C197.356 130.044 193.207 126.499 187.153 125.38C179.194 124.857 176.424 124.689 176.424 127.712V147.347H183.519ZM176.424 171.217C176.424 174.248 177.206 175.801 183.519 175.801C192.512 175.801 199.176 173.122 199.176 163.002C199.176 152.71 188.88 150.804 180.751 150.804H176.424V171.217ZM167.605 128.666C167.605 126.157 166.306 123.386 159.303 123.386V121.744H182.478C195.8 121.744 206.18 125.29 206.18 136.364C206.18 143.625 201.332 147.347 194.68 148.818V148.992C202.112 150.372 209.116 154.955 209.116 163.263C209.116 173.644 200.126 179 186.547 179H159.303V177.356C166.306 177.356 167.605 174.588 167.605 172.082V128.666Z" fill="#002AB1"/>
<path fill-rule="evenodd" clip-rule="evenodd" d="M261.028 139.554H258.952C256.448 130.039 250.135 123.553 240.271 123.553C226.004 123.553 219.863 135.054 219.863 150.622C219.863 162.731 226.175 175.787 240.362 175.787C248.838 175.787 254.632 173.02 260.599 167.14L262.069 168.872C256.795 175.358 247.884 179.686 239.582 179.686C222.718 179.686 209.83 168.872 209.83 149.929C209.83 132.719 222.024 120 239.412 120C251.258 120 255.586 127.1 258.443 120.092H260.253L261.028 139.554Z" fill="#002AB1"/>
<path fill-rule="evenodd" clip-rule="evenodd" d="M307.726 120.142H365.896L336.812 149.226L307.726 120.142Z" fill="#002AB1"/>
<path fill-rule="evenodd" clip-rule="evenodd" d="M307.742 178.31H365.913L336.828 149.226L307.742 178.31Z" fill="#002AB1"/>
<path fill-rule="evenodd" clip-rule="evenodd" d="M307.742 120.142V178.31L278.655 149.226L307.742 120.142Z" fill="#002AB1"/>
<path fill-rule="evenodd" clip-rule="evenodd" d="M365.913 120.142V178.31L395 149.226L365.913 120.142Z" fill="#002AB1"/>
</svg>
