<svg width="450" height="300" viewBox="0 0 450 300" fill="none" xmlns="http://www.w3.org/2000/svg">
<path d="M218.513 216.812C167.116 221.559 113.573 214.073 106.087 173.95C102.436 154.14 111.428 133.189 123.387 120.134V113.15C101.842 132.048 90.157 155.966 96.9125 184.221C105.494 220.464 151.414 240.959 221.571 234.157C249.324 231.464 285.658 222.518 310.9 208.641V188.922C287.986 202.616 250.1 213.891 218.513 216.812ZM353.853 112.694C341.666 53.2172 226.136 49.4285 151.642 94.7549V99.7759C226.045 61.5247 331.532 61.7529 341.164 116.574C344.404 134.695 334.18 153.592 315.921 164.456V178.698C337.877 170.618 360.381 144.6 353.853 112.694Z" fill="#002AB1"/>
<path d="M306.747 104.021H293.281V164C293.281 171.029 296.659 177.146 306.747 178.104V104.021Z" fill="#002AB1"/>
<path d="M146.393 125.931H132.882V165.141C132.882 172.216 136.305 178.287 146.393 179.245V125.931Z" fill="#002AB1"/>
<path d="M146.347 105.847H132.882V118.628H146.347V105.847Z" fill="#002AB1"/>
<path d="M227.049 178.606C216.14 178.606 211.529 171.029 211.529 163.543V111.507H224.904V125.885H234.946V136.658H224.904V162.722C224.904 165.78 226.364 167.469 229.514 167.469H234.946V178.606H227.049Z" fill="#002AB1"/>
<path d="M251.606 156.468C251.606 163.315 255.897 168.336 263.429 168.336C269.363 168.336 272.284 166.693 275.707 163.315L283.969 171.166C278.674 176.37 273.151 179.565 263.337 179.565C250.557 179.565 238.323 172.581 238.323 152.269C238.323 134.878 249.005 125.064 263.064 125.064C277.305 125.064 285.521 136.567 285.521 151.675V156.514H251.606V156.468ZM262.47 136.064C257.906 136.064 254.391 138.438 252.884 141.588C252.017 143.505 251.698 144.965 251.606 147.339H272.193C271.919 141.633 269.317 136.064 262.47 136.064Z" fill="#002AB1"/>
<path d="M182.636 136.703C186.561 136.703 188.159 138.621 188.159 141.77V178.698H201.533V141.725C201.533 134.239 197.562 125.931 185.831 125.931H158.261V178.698H171.635V136.703H182.636Z" fill="#002AB1"/>
<path d="M321.262 114.748C318.295 114.748 315.921 112.374 315.921 109.407C315.921 106.44 318.295 104.067 321.262 104.067C324.229 104.067 326.648 106.486 326.648 109.407C326.648 112.374 324.229 114.748 321.262 114.748ZM321.262 104.934C318.797 104.934 316.834 106.942 316.834 109.407C316.834 111.872 318.797 113.835 321.262 113.835C323.727 113.835 325.735 111.826 325.735 109.407C325.735 106.942 323.727 104.934 321.262 104.934ZM323.636 112.602H322.631C322.54 112.602 322.449 112.557 322.449 112.466L321.079 110.183C321.034 110.138 320.943 110.092 320.897 110.092C320.897 110.092 320.669 110.092 320.486 110.092C320.395 110.092 320.303 110.092 320.258 110.092V112.374C320.258 112.466 320.167 112.602 320.03 112.602H319.117C318.98 112.602 318.888 112.466 318.888 112.374V106.577C318.888 106.258 318.98 106.121 319.299 106.075C319.664 105.984 320.486 105.984 320.943 105.984C322.631 105.984 323.59 106.486 323.59 108.038V108.129C323.59 109.088 323.134 109.59 322.403 109.864L323.818 112.283C323.818 112.329 323.864 112.42 323.864 112.466C323.864 112.511 323.818 112.602 323.636 112.602ZM322.358 107.992C322.358 107.353 321.947 107.125 321.079 107.125C320.988 107.125 320.669 107.125 320.44 107.125C320.349 107.125 320.258 107.125 320.212 107.125V108.951C320.349 108.951 320.943 108.996 321.079 108.996C321.947 108.996 322.358 108.723 322.358 108.084V107.992Z" fill="#002AB1"/>
</svg>
