<svg width="450" height="300" viewBox="0 0 450 300" fill="none" xmlns="http://www.w3.org/2000/svg">
<path d="M181.631 172.134V129.282H190.159V172.134H181.631Z" fill="#002AB1"/>
<path d="M198.197 129.282H207.201V152.491C207.201 156.174 207.313 158.561 207.536 159.653C207.921 161.407 208.834 162.819 210.273 163.891C211.733 164.944 213.721 165.47 216.235 165.47C218.791 165.47 220.717 164.973 222.015 163.979C223.313 162.966 224.093 161.728 224.357 160.267C224.621 158.805 224.753 156.379 224.753 152.988V129.282H233.756V151.79C233.756 156.934 233.513 160.569 233.026 162.693C232.54 164.817 231.637 166.61 230.319 168.071C229.021 169.533 227.277 170.702 225.087 171.579C222.897 172.437 220.038 172.865 216.509 172.865C212.251 172.865 209.016 172.398 206.806 171.462C204.616 170.507 202.882 169.28 201.604 167.779C200.327 166.259 199.485 164.671 199.08 163.014C198.491 160.559 198.197 156.934 198.197 152.14V129.282Z" fill="#002AB1"/>
<path d="M239.166 150.971C239.166 146.606 239.81 142.942 241.096 139.98C242.057 137.798 243.363 135.839 245.015 134.105C246.686 132.37 248.51 131.084 250.489 130.246C253.12 129.116 256.155 128.551 259.593 128.551C265.816 128.551 270.791 130.509 274.517 134.426C276.941 136.962 278.581 140.138 279.436 143.955L270.495 144.05C269.962 142.254 269.171 140.761 268.121 139.571C266.008 137.155 263.194 135.946 259.679 135.946C256.164 135.946 253.331 137.174 251.18 139.629C249.029 142.065 247.953 145.749 247.953 150.679L239.166 150.971ZM247.953 150.679C247.953 155.531 249.058 159.214 251.267 161.728C253.475 164.223 256.28 165.47 259.679 165.47C263.079 165.47 265.864 164.232 268.034 161.757C269.243 160.38 270.118 158.626 270.66 156.495L279.615 156.694C278.828 160.858 277.147 164.3 274.574 167.019C270.867 170.916 265.912 172.865 259.708 172.865C253.427 172.865 248.434 170.926 244.727 167.048C241.02 163.151 239.166 157.792 239.166 150.971" fill="#002AB1"/>
<path d="M284.849 172.134V129.282H292.495L312.047 158.956V129.282H320V172.134H312.548L292.437 142.075L293.272 172.134H284.849Z" fill="#002AB1"/>
<path fill-rule="evenodd" clip-rule="evenodd" d="M271.84 195.732L299.59 195.654C283.825 222.708 254.5 240.902 220.951 240.902C170.746 240.902 130 200.156 130 149.951C130 99.7461 170.746 59 220.951 59C255.066 59 284.814 77.8143 300.377 105.626L273.06 105.563C260.5 90.8349 241.81 81.4906 220.951 81.4906C183.161 81.4906 152.491 112.161 152.491 149.951C152.491 187.741 183.161 218.412 220.951 218.412C241.145 218.412 259.305 209.654 271.84 195.732Z" fill="#002AB1"/>
</svg>
