<svg width="450" height="300" viewBox="0 0 450 300" fill="none" xmlns="http://www.w3.org/2000/svg">
<path d="M160.705 215.942C164.604 210.274 167.415 205.604 169.773 198.803H177.119C173.718 207.463 169.683 214.265 164.015 222.018V233.58H157.531V222.109C151.863 214.265 147.828 207.554 144.427 198.894H151.772C153.994 205.74 156.805 210.365 160.705 215.942Z" fill="#002AB1"/>
<path d="M227.902 213.04C224.683 211.997 222.824 211.499 221.69 210.683C220.466 209.957 220.148 209.05 220.148 208.098C220.148 206.647 220.965 205.74 222.234 205.105C223.458 204.471 225.136 204.289 226.587 204.289C228.854 204.289 231.439 204.788 234.114 205.74L236.29 200.662C233.615 199.302 229.988 198.485 226.587 198.485C223.096 198.485 219.967 199.302 217.836 200.843C215.161 202.612 213.8 205.196 213.8 208.279C213.8 214.265 218.879 216.532 223.821 218.164C225.907 218.889 228.038 219.388 229.489 220.204C230.94 221.021 231.756 222.154 231.756 223.605C231.756 225.237 230.713 226.371 229.67 226.915C228.446 227.64 226.451 227.958 224.501 227.958C219.876 227.958 216.566 226.19 214.163 224.557L211.896 229.817C214.889 232.084 219.831 233.716 224.773 233.716C232.391 233.716 238.195 229.681 238.195 223.197C238.195 217.575 233.57 214.809 227.902 213.04Z" fill="#002AB1"/>
<path d="M192.172 227.504H187.411V204.924H191.537C198.747 204.924 203.417 208.823 203.417 215.988C203.417 222.743 199.2 227.504 192.172 227.504ZM191.447 198.803H181.018V233.58H192.082C202.284 233.58 209.946 226.371 209.946 215.942C209.946 205.74 202.692 198.803 191.447 198.803Z" fill="#002AB1"/>
<path d="M270.297 228.321H264.72V218.209H270.478C275.42 218.209 278.005 219.57 278.005 223.061C278.05 227.686 273.607 228.321 270.297 228.321ZM264.72 204.063H269.662C274.287 204.063 276.463 205.196 276.463 208.189C276.463 211.181 274.287 212.95 270.161 212.95H264.674V204.063H264.72ZM276.69 215.307C280.408 214.083 282.675 211.499 282.675 207.463C282.675 201.387 277.325 198.894 272.065 198.894H258.553V233.58H271.158C277.642 233.58 284.262 230.905 284.262 223.696C284.217 218.844 281.224 215.942 276.69 215.307Z" fill="#002AB1"/>
<path d="M352.411 198.803H346.336V223.877H346.245L331.599 198.803H323.664V233.58H329.65V207.69H329.74L344.703 233.58H352.411V198.803Z" fill="#002AB1"/>
<path d="M372.543 215.534L388.64 198.803H380.478L366.059 214.401H365.833V198.803H359.757V233.58H365.833V216.758H366.059L381.43 233.58H390L372.543 215.534Z" fill="#002AB1"/>
<path d="M86.8425 233.58H106.34L108.38 227.368H93.1451V198.803H86.8425V233.58Z" fill="#002AB1"/>
<path d="M60 233.58H79.4971L81.6735 227.368H66.3932V198.803H60V233.58Z" fill="#002AB1"/>
<path d="M127.061 228.003C120.033 228.003 115.998 222.834 115.998 216.26C115.998 209.64 120.033 204.516 127.061 204.516C134.18 204.516 138.215 209.866 138.215 216.396C138.124 222.744 134.089 228.003 127.061 228.003ZM127.197 198.485C116.587 198.485 109.559 206.33 109.559 216.214C109.559 226.008 116.36 233.852 127.106 233.852C137.716 233.852 144.744 225.917 144.744 216.124C144.608 206.33 137.716 198.485 127.197 198.485Z" fill="#002AB1"/>
<path d="M302.807 226.144C305.392 226.144 307.885 225.917 310.016 225.328L313.236 233.58H320.445L305.482 198.894H300.223L285.169 233.58H292.378L295.598 225.328C297.729 225.963 300.223 226.144 302.807 226.144ZM302.807 220.884C300.948 220.884 299.316 220.794 297.457 220.386L302.807 206.647L308.157 220.386C306.298 220.794 304.666 220.884 302.807 220.884Z" fill="#002AB1"/>
<path fill-rule="evenodd" clip-rule="evenodd" d="M282.861 123.448C283.244 123.736 283.63 124.008 284.009 124.276C285.963 125.655 287.712 126.89 287.712 129.207C287.712 130.023 286.67 130.839 284.402 130.839C282.634 130.839 280.775 130.34 279.868 129.071C279.496 128.606 279.589 128.022 279.682 127.435C279.771 126.877 279.86 126.316 279.551 125.852C279.251 125.361 278.754 125.313 278.248 125.264C277.913 125.231 277.573 125.198 277.284 125.035C276.552 124.589 276.404 124.287 275.924 123.316L275.836 123.139C275.806 123.079 275.775 123.015 275.742 122.95C275.107 121.499 272.976 119.141 270.392 116.556C268.215 114.38 265.948 113.246 264.905 113.337C264.18 113.428 263.998 113.428 263.273 113.428C262.169 113.428 261.178 114.051 259.994 114.795C259.184 115.304 258.284 115.869 257.197 116.33C255.338 117.146 254.295 117.554 253.162 117.781L252.754 118.279L255.111 118.189C256.245 118.189 257.537 118.109 258.829 118.03L258.83 118.03C260.122 117.951 261.414 117.871 262.548 117.871C264.815 117.871 265.948 119.957 266.9 122.088C268.669 126.441 271.253 132.698 274.427 137.958C274.603 138.243 274.775 138.516 274.942 138.78C276.233 140.824 277.193 142.346 277.193 145.077C277.193 145.984 277.102 147.344 275.833 147.344C274.064 147.344 269.621 145.485 269.621 143.535C269.621 142.764 269.927 142.22 270.233 141.676C270.539 141.132 270.845 140.588 270.845 139.817C270.845 139.329 270.424 139.13 269.986 138.922C269.611 138.745 269.223 138.561 269.077 138.185C267.943 133.56 266.583 128.89 264.044 126.124C263.753 125.814 263.516 125.541 263.31 125.304L263.31 125.303C262.552 124.43 262.211 124.038 261.142 124.038C260.473 124.038 259.804 124.231 259.207 124.403L259.056 124.446C257.627 124.982 256.009 125.947 254.2 127.025C251.417 128.684 248.184 130.611 244.501 131.655C243.302 132.039 242.622 131.839 241.899 131.626C241.256 131.436 240.578 131.237 239.468 131.429H239.695C238.726 131.632 237.879 132.014 236.945 132.436C236 132.863 234.964 133.331 233.619 133.696C229.992 134.739 223.735 135.237 218.656 134.512C218.063 134.43 217.442 134.343 216.811 134.253L216.811 134.253L216.811 134.253L216.811 134.253C213.587 133.798 210.085 133.303 208.454 133.378C206.913 137.731 203.693 143.49 198.842 145.757C196.257 146.89 195.532 148.432 196.257 151.334C196.813 153.556 198.236 155.387 199.631 157.181L199.631 157.181C200.513 158.315 201.383 159.435 202.016 160.629L202.07 160.721C203.616 163.312 206.082 167.446 208.636 168.791C211.22 170.151 212.853 172.101 212.853 173.869C212.853 174.685 212.535 175.093 211.719 175.093H206.459C205.643 175.093 205.235 174.594 205.099 174.277C204.775 173.67 204.695 173.09 204.617 172.525C204.521 171.824 204.427 171.146 203.875 170.468C203.47 170.012 203.135 169.868 202.753 169.702C202.451 169.572 202.119 169.428 201.698 169.108C200.857 168.267 200.812 167.641 200.761 166.922C200.719 166.324 200.672 165.661 200.157 164.755C198.054 161.413 196.701 159.7 195.285 157.907L195.285 157.907C194.472 156.878 193.638 155.822 192.63 154.417C192.21 153.887 191.761 153.423 191.328 152.978C190.172 151.786 189.139 150.721 189.139 148.84C189.139 147.244 189.929 146.317 190.711 145.401C191.506 144.469 192.29 143.549 192.222 141.948C190.136 143.49 187.778 144.623 184.06 145.167C183.562 145.258 182.292 146.21 181.793 146.8C180.569 148.024 180.025 149.384 179.843 151.243C179.746 152.281 179.626 153.316 179.505 154.35C179.121 157.653 178.738 160.941 179.118 164.256C179.843 167.022 180.342 167.974 182.609 169.516C184.06 170.423 185.693 171.783 185.919 173.869C185.919 174.368 185.693 175.093 185.012 175.093H179.345C178.846 175.093 178.302 174.685 178.12 174.368C177.736 173.681 177.734 173.144 177.732 172.525C177.731 172.122 177.729 171.685 177.622 171.148C177.385 169.92 176.584 169.296 175.809 168.692C174.954 168.025 174.13 167.383 174.13 165.979C174.13 165.641 174.216 165.264 174.316 164.823C174.458 164.198 174.629 163.444 174.629 162.488C174.676 161.736 174.756 160.883 174.845 159.94C175.184 156.331 175.647 151.4 174.856 145.757C174.554 143.261 176.011 142.192 177.711 140.944C178.821 140.129 180.036 139.237 180.932 137.822C181.575 136.836 181.812 136.509 181.975 136.284C182.157 136.034 182.246 135.912 182.7 135.147C183.501 133.633 183.341 132.513 183.206 131.571L183.199 131.519C183.199 131.19 183.11 130.769 182.997 130.229C182.688 128.761 182.194 126.411 182.791 122.632C183.108 120.365 184.242 118.007 185.783 116.012C185.783 115.922 185.783 115.604 185.285 115.604C183.946 115.738 183.398 115.572 182.875 115.413C182.512 115.303 182.161 115.196 181.566 115.196C180.116 115.196 178.982 116.42 178.801 117.055C178.075 116.738 177.758 115.922 177.758 115.514C177.758 114.697 177.984 113.972 178.665 113.246C178.982 112.929 178.665 112.748 178.257 112.748C176.488 112.748 174.856 114.924 174.448 116.375C173.822 116.239 173.539 115.711 173.324 115.31C173.182 115.043 173.069 114.833 172.906 114.833C172.407 114.833 172.09 115.559 172.09 116.284C172.09 118.651 173.882 120.161 175.797 121.774C177.99 123.621 180.342 125.603 180.342 129.162C180.342 134.001 176.721 135.166 173.999 136.042C172.36 136.57 171.047 136.992 171.047 138.049C171.047 138.547 171.455 139.091 172.181 139.409C171.863 140.134 171.047 140.452 170.231 140.452C168.145 140.452 166.604 138.91 166.604 136.824C166.604 134.566 168.229 133.479 169.738 132.468C171.048 131.591 172.271 130.772 172.271 129.298C172.271 127.968 171.597 127.481 170.8 126.907C170.673 126.816 170.543 126.722 170.412 126.622C165.062 122.814 161.933 119.005 161.933 112.702C161.933 105.901 166.694 100.732 172.77 100.732C177.423 100.732 179.726 103.565 182.017 106.383C184.102 108.947 186.176 111.497 190 111.886C192.993 109.8 196.62 108.576 200.111 108.576C202.703 108.576 204.568 108.906 206.46 109.241C208.408 109.586 210.386 109.937 213.215 109.937C215.482 109.937 219.2 109.302 223.644 106.218C224.253 105.795 224.736 105.498 225.183 105.224L225.183 105.224C225.932 104.764 226.577 104.367 227.543 103.543C231.004 100.577 234.286 94.7599 234.344 90.5513C234.326 89.2601 234.011 88.4897 233.438 88.4897C231.579 88.4897 229.81 90.258 227.951 92.1171C227.459 92.6097 227.465 93.0069 227.472 93.4003C227.482 93.9844 227.491 94.56 225.866 95.427C225.314 95.7305 224.662 95.5137 224.011 95.2973C223.592 95.158 223.173 95.019 222.782 95.019C220.606 95.019 219.699 92.4345 219.699 90.258C219.699 89.5431 220.024 89.1529 220.4 88.7005C220.62 88.4356 220.859 88.1494 221.059 87.7642C221.649 86.6315 221.908 85.8673 222.167 85.1007C222.406 84.3944 222.645 83.6861 223.145 82.6859C223.391 82.123 223.713 81.6421 224.006 81.2033C224.468 80.5109 224.861 79.9236 224.778 79.2852C224.778 79.0812 224.698 78.9225 224.619 78.7638C224.539 78.6051 224.46 78.4464 224.46 78.2424C224.46 77.1484 225.193 76.2378 225.923 75.3319C226.644 74.4355 227.362 73.5439 227.362 72.4839C227.362 71.7695 226.899 71.2867 226.459 70.8282C226.145 70.5011 225.843 70.1864 225.73 69.8087C225.412 68.9019 225.639 68.5845 225.639 68.5845C225.73 68.3578 225.866 68.3578 226.047 68.3578C226.74 68.3578 227.162 68.8155 227.624 69.3163C227.917 69.6345 228.226 69.9702 228.632 70.2168C228.683 69.3902 228.544 68.9315 228.414 68.5053C228.316 68.1835 228.224 67.8802 228.224 67.4509C228.224 67.3958 228.222 67.3351 228.221 67.2708C228.212 66.7532 228.198 66 228.722 66C229.152 66 229.295 66.318 229.463 66.6904C229.579 66.9468 229.706 67.229 229.947 67.4509C230.355 67.7683 230.74 67.893 231.125 68.0177C231.511 68.1424 231.896 68.2671 232.304 68.5845C232.898 68.9642 233.354 69.4804 233.713 69.8863C234.04 70.256 234.286 70.5342 234.481 70.5342C235.614 70.7609 235.932 69.31 235.297 68.5845C235.895 68.5402 236.526 68.7556 237.205 68.9876C237.915 69.2304 238.679 69.4913 239.514 69.4913C242.041 69.4913 242.964 70.1853 243.513 70.5975L243.549 70.6249C244.011 71.035 244.367 71.4197 244.683 71.7607C245.484 72.626 246.024 73.2094 247.358 73.2094C248.265 73.2094 248.809 72.3932 248.99 72.0758C250.214 72.9827 250.35 75.3858 248.99 77.4262C249.321 78.5103 250.493 78.9744 251.574 79.4029C252.121 79.6196 252.645 79.8273 253.026 80.1014C253.583 80.5026 253.811 80.8052 254.002 81.0576C254.199 81.3187 254.356 81.5262 254.794 81.7337C255.429 82.1418 256.018 82.0511 256.426 81.7337C256.925 84.0008 255.066 85.9505 252.708 86.2679C252.799 89.1698 255.792 90.8928 257.152 91.6183C256.336 93.3866 254.885 93.8854 253.66 94.2028C253.782 94.7273 254.03 95.3237 254.297 95.9622C254.928 97.4765 255.659 99.2281 255.021 100.823C254.205 100.415 252.844 100.823 252.844 102.047C252.844 102.573 253.089 103.004 253.308 103.389C253.692 104.066 253.996 104.602 252.754 105.266C251.937 105.765 251.711 107.035 253.252 108.259C255.338 107.76 257.288 107.76 259.646 107.76C260.389 107.76 261.239 107.653 262.069 107.549C262.859 107.449 263.629 107.352 264.271 107.352C266.628 107.352 268.079 108.259 269.848 110.254C270.954 111.439 272.035 112.642 273.105 113.831L273.105 113.832L273.107 113.834L273.108 113.834C276.333 117.422 279.456 120.895 282.861 123.448ZM164.699 110.753C165.001 110.753 165.399 110.168 165.93 109.389C166.991 107.831 168.584 105.493 171.002 105.493C172.045 105.493 172.226 105.901 172.226 106.309C172.226 106.652 171.953 106.974 171.665 107.314C171.343 107.695 171.002 108.098 171.002 108.576C171.002 108.803 171.092 108.984 171.41 108.984C171.675 108.984 171.93 108.779 172.275 108.502C172.993 107.924 174.099 107.035 176.488 107.035C177.395 107.035 178.256 107.125 179.073 107.352C179.131 107.365 179.198 107.385 179.268 107.405L179.269 107.405C179.69 107.528 180.238 107.688 179.889 106.717C179.073 104.223 176.261 101.956 172.453 101.956C168.644 101.956 164.609 105.357 164.2 109.483C164.211 109.573 164.22 109.66 164.229 109.742L164.229 109.742C164.297 110.364 164.339 110.753 164.699 110.753ZM229.947 75.7032C229.538 77.0635 229.72 77.5622 230.763 77.9703C231.896 78.4691 232.304 79.8293 231.488 79.3306C229.402 78.6051 228.36 80.056 227.135 82.0057C225.684 84.2729 225.276 85.6331 224.868 87.9002C224.735 89.1675 225.037 89.966 225.258 90.547C225.487 91.1509 225.626 91.5197 225.095 91.9357C223.961 92.8425 223.644 92.5251 224.052 91.709C224.596 90.5754 224.505 88.9431 223.145 89.4419C221.921 89.8499 220.787 89.7593 221.286 89.1245C221.388 88.9435 221.495 88.7879 221.611 88.6212L221.611 88.621L221.611 88.6209L221.611 88.6208C221.957 88.1191 222.374 87.5157 222.919 85.8145C223.609 84.0883 224.04 83.3032 225.145 81.2903C225.346 80.9239 225.569 80.5168 225.82 80.056C226.381 78.9615 226.14 78.59 225.912 78.2381C225.752 77.9924 225.599 77.7563 225.73 77.2902C225.983 76.6388 226.669 75.7854 227.259 75.0524L227.259 75.0523L227.259 75.0522L227.259 75.0521C227.408 74.8667 227.551 74.689 227.679 74.5243C228.405 73.8442 229.13 73.3907 229.629 73.6175C230.264 73.7535 230.173 74.3429 229.947 75.7032ZM275.017 145.53C275.425 145.53 275.515 145.031 275.515 144.487C275.515 143.354 274.881 141.721 273.974 140.996C273.849 141.892 273.547 142.637 273.3 143.247L273.3 143.247C273.097 143.749 272.931 144.16 272.931 144.487C272.976 145.031 274.518 145.53 275.017 145.53ZM286.488 128.844C286.488 129.343 285.581 129.57 284.947 129.57C284.319 129.57 284.289 128.931 284.249 128.084C284.216 127.4 284.178 126.581 283.813 125.852C285.037 126.26 286.488 127.937 286.488 128.844ZM241.191 107.76C247.456 110.639 249.106 115.175 249.778 117.021C250.069 117.82 250.177 118.116 250.396 117.554C250.713 116.738 251.937 113.02 248.764 109.392C247.953 108.449 247.31 107.889 246.843 107.482C245.872 106.636 245.658 106.45 246.27 104.858C250.169 95.3817 252.663 81.0083 240.919 76.066C239.559 75.5672 238.425 75.5672 238.425 75.7486C238.425 75.8642 238.744 76.027 239.26 76.291C239.757 76.5448 240.436 76.8921 241.191 77.3809C249.036 82.5499 246.542 96.6966 239.423 103.498C237.156 105.901 238.289 106.445 241.191 107.76ZM210.495 172.463C210.721 172.917 211.039 173.824 210.404 173.824H209.225C208.532 173.824 208.316 172.421 208.151 171.355C208.1 171.025 208.054 170.728 208.001 170.514C208.953 170.922 209.996 171.556 210.495 172.463ZM183.289 173.824C183.924 173.824 183.516 172.917 183.199 172.463C182.7 171.556 181.566 170.922 180.614 170.514C180.661 170.701 180.706 170.952 180.756 171.233L180.756 171.233C180.949 172.311 181.219 173.824 181.975 173.824H183.289ZM222.828 114.516C221.966 118.234 221.15 119.368 216.208 119.866C212.898 120.275 211.764 119.322 211.855 118.824C211.738 118.194 212.258 117.852 212.789 117.502C213.291 117.171 213.805 116.834 213.805 116.239C213.805 115.604 211.674 113.972 206.595 113.972C199.567 113.972 194.625 116.42 190.091 120.773C188.312 122.475 187.28 124.279 186.572 125.519C186.034 126.46 185.682 127.076 185.33 127.076C185.058 127.076 184.922 127.076 184.831 126.169C184.242 120.501 188.867 110.798 201.245 110.798C203.259 110.798 205.231 111.122 207.248 111.454C209.363 111.802 211.53 112.158 213.85 112.158C215.89 112.158 221.286 111.025 224.778 108.531C225.115 108.278 225.678 107.897 226.235 107.521C226.874 107.089 227.503 106.663 227.77 106.445C228.143 106.362 228.024 106.62 227.828 107.044C227.809 107.085 227.79 107.127 227.77 107.171C227.238 108.002 226.706 108.565 226.174 109.128C225.981 109.333 225.787 109.538 225.594 109.755C224.46 110.889 223.236 112.748 222.828 114.516Z" fill="#002AB1"/>
<path opacity="0.9" d="M282.861 123.448C285.219 125.217 287.712 126.441 287.712 129.207C287.712 130.023 286.67 130.839 284.402 130.839C282.634 130.839 280.775 130.34 279.868 129.071C279.143 128.164 280.186 126.804 279.551 125.852C279.052 125.035 278.009 125.444 277.284 125.035C276.468 124.537 276.377 124.219 275.742 122.95C275.107 121.499 272.976 119.141 270.392 116.556C268.215 114.38 265.948 113.246 264.905 113.337C264.18 113.428 263.998 113.428 263.273 113.428C261.414 113.428 259.872 115.196 257.197 116.33C255.338 117.146 254.295 117.554 253.162 117.781L252.754 118.279L255.111 118.189C257.379 118.189 260.28 117.871 262.548 117.871C264.815 117.871 265.948 119.957 266.9 122.088C268.669 126.441 271.253 132.698 274.427 137.958C275.969 140.452 277.193 141.993 277.193 145.077C277.193 145.984 277.102 147.344 275.833 147.344C274.064 147.344 269.621 145.485 269.621 143.535C269.621 141.993 270.845 141.359 270.845 139.817C270.845 138.91 269.394 139.001 269.077 138.185C267.943 133.56 266.583 128.89 264.044 126.124C262.684 124.673 262.502 124.038 261.142 124.038C260.416 124.038 259.691 124.265 259.056 124.446C255.429 125.806 250.577 129.932 244.501 131.655C242.234 132.381 241.826 131.021 239.468 131.429H239.695C237.745 131.837 236.294 132.97 233.619 133.696C229.992 134.739 223.735 135.237 218.656 134.512C215.029 134.013 210.404 133.288 208.454 133.378C206.913 137.731 203.693 143.49 198.842 145.757C196.257 146.89 195.532 148.432 196.257 151.334C197.164 154.961 200.383 157.546 202.016 160.629C203.557 163.214 206.051 167.43 208.636 168.791C211.22 170.151 212.853 172.101 212.853 173.869C212.853 174.685 212.535 175.093 211.719 175.093H206.459C205.643 175.093 205.235 174.594 205.099 174.277C204.374 172.917 204.872 171.692 203.875 170.468C203.149 169.652 202.651 169.833 201.698 169.108C200.157 167.566 201.29 166.75 200.157 164.755C196.847 159.495 195.396 158.271 192.63 154.417C191.088 152.467 189.139 151.425 189.139 148.84C189.139 145.621 192.358 145.122 192.222 141.948C190.136 143.49 187.778 144.623 184.06 145.167C183.562 145.258 182.292 146.21 181.793 146.8C180.569 148.024 180.025 149.384 179.843 151.243C179.435 155.596 178.619 159.904 179.118 164.256C179.843 167.022 180.342 167.974 182.609 169.516C184.06 170.423 185.693 171.783 185.919 173.869C185.919 174.368 185.693 175.093 185.012 175.093H179.345C178.846 175.093 178.302 174.685 178.12 174.368C177.486 173.234 177.894 172.509 177.622 171.148C177.123 168.564 174.13 168.655 174.13 165.979C174.13 165.163 174.629 164.12 174.629 162.488C174.856 158.861 175.853 152.876 174.856 145.757C174.357 141.631 178.665 141.404 180.932 137.822C182.292 135.736 181.839 136.598 182.7 135.147C183.516 133.605 183.335 132.472 183.199 131.519C183.199 130.295 181.975 127.801 182.791 122.632C183.108 120.365 184.242 118.007 185.783 116.012C185.783 115.922 185.783 115.604 185.285 115.604C183.017 115.831 183.017 115.196 181.566 115.196C180.116 115.196 178.982 116.42 178.801 117.055C178.075 116.738 177.758 115.922 177.758 115.514C177.758 114.697 177.984 113.972 178.665 113.246C178.982 112.929 178.665 112.748 178.257 112.748C176.488 112.748 174.856 114.924 174.448 116.375C173.405 116.148 173.314 114.833 172.906 114.833C172.407 114.833 172.09 115.559 172.09 116.284C172.09 121.363 180.342 122.496 180.342 129.162C180.342 136.915 171.047 135.237 171.047 138.049C171.047 138.547 171.455 139.092 172.181 139.409C171.863 140.134 171.047 140.452 170.231 140.452C168.145 140.452 166.604 138.91 166.604 136.824C166.604 132.608 172.271 132.472 172.271 129.298C172.271 127.756 171.364 127.348 170.412 126.622C165.062 122.814 161.933 119.005 161.933 112.702C161.933 105.901 166.694 100.732 172.77 100.732C181.657 100.732 181.975 111.07 190 111.886C192.993 109.8 196.62 108.576 200.111 108.576C205.371 108.576 207.638 109.937 213.215 109.937C215.482 109.937 219.2 109.302 223.644 106.218C225.276 105.085 226.002 104.858 227.543 103.543C231.035 100.551 234.345 94.6562 234.345 90.4394V90.6661C234.345 89.3059 234.027 88.4897 233.438 88.4897C231.579 88.4897 229.81 90.258 227.951 92.1171C226.727 93.3413 228.586 93.9761 225.866 95.427C224.959 95.9258 223.78 95.019 222.782 95.019C220.606 95.019 219.699 92.4345 219.699 90.258C219.699 89.1245 220.515 88.8071 221.059 87.7642C222.193 85.5878 222.102 84.7716 223.145 82.6859C223.78 81.235 224.914 80.3281 224.778 79.2852C224.778 78.8772 224.46 78.6505 224.46 78.2424C224.46 76.066 227.362 74.615 227.362 72.4839C227.362 71.2597 226.002 70.7156 225.73 69.8087C225.412 68.9019 225.639 68.5845 225.639 68.5845C225.73 68.3578 225.866 68.3578 226.047 68.3578C227.181 68.3578 227.589 69.582 228.632 70.2168C228.722 68.7659 228.224 68.4485 228.224 67.4509C228.224 66.9522 228.133 66 228.722 66C229.448 66 229.357 66.9068 229.947 67.4509C230.763 68.0857 231.488 67.9497 232.304 68.5845C233.438 69.31 234.073 70.5342 234.481 70.5342C235.614 70.7609 235.932 69.31 235.297 68.5845C236.521 68.4938 237.881 69.4913 239.514 69.4913C242.098 69.4913 243.005 70.2168 243.549 70.6249C245.181 72.0758 245.499 73.2094 247.358 73.2094C248.265 73.2094 248.809 72.3932 248.99 72.0758C250.214 72.9827 250.35 75.3858 248.99 77.4262C249.489 79.0585 251.892 79.2852 253.026 80.1014C254.159 80.9176 253.933 81.3256 254.794 81.7337C255.429 82.1418 256.018 82.0511 256.426 81.7337C256.925 84.0008 255.066 85.9505 252.708 86.2679C252.799 89.1698 255.792 90.8928 257.152 91.6183C256.336 93.3866 254.885 93.8854 253.66 94.2028C254.069 95.9711 255.928 98.5556 255.021 100.823C254.205 100.415 252.844 100.823 252.844 102.047C252.844 103.498 254.703 104.223 252.754 105.266C251.937 105.765 251.711 107.035 253.252 108.259C255.338 107.76 257.288 107.76 259.646 107.76C261.097 107.76 262.956 107.352 264.271 107.352C266.628 107.352 268.079 108.259 269.848 110.254C274.291 115.015 278.327 120.048 282.861 123.448Z" fill="#002AB1"/>
</svg>
