<svg width="450" height="300" viewBox="0 0 450 300" fill="none" xmlns="http://www.w3.org/2000/svg">
<path fill-rule="evenodd" clip-rule="evenodd" d="M212.073 133.089V124.177C212.073 123.527 213.308 123.003 214.834 123C216.376 123 217.615 123.526 217.615 124.177V164.029C217.615 164.683 216.373 165.209 214.845 165.209C213.312 165.209 212.075 164.683 212.075 164.029V133.089H212.073ZM93.6435 133.089V124.177C93.6435 123.528 94.8807 123.004 96.4044 123C97.945 123 99.1849 123.527 99.1849 124.177V135.76H104.261C104.907 135.76 105.432 136.996 105.436 138.523C105.436 140.062 104.908 141.302 104.261 141.302H99.1849V164.032C99.1849 164.683 97.945 165.209 96.4156 165.209C94.8877 165.209 93.6449 164.683 93.6449 164.032V133.089H93.6435ZM107.708 126.376V124.178C107.708 123.528 108.949 123.001 110.473 123.001C112.007 123.001 113.247 123.528 113.247 124.178V127.455C113.247 128.104 112.005 128.634 110.473 128.634C108.948 128.634 107.708 128.104 107.708 127.455V126.376ZM107.708 145.312V136.761C107.708 136.114 108.941 135.587 110.466 135.586C112.008 135.586 113.248 136.111 113.248 136.761V164.032C113.248 164.683 112.007 165.209 110.475 165.209C108.949 165.209 107.71 164.683 107.71 164.032V145.312H107.708ZM35.5414 162.437V164.032C35.5414 164.686 34.3028 165.212 32.7707 165.212C31.2414 165.212 30 164.685 30 164.032V146.443C30 139.54 37.156 135.223 44.1624 135.223C51.1688 135.223 58.3248 139.54 58.3248 146.439L58.3444 155.122L58.3556 162.434L58.3444 162.7V164.031C58.3444 164.679 57.1156 165.202 55.6017 165.21C54.0458 165.21 52.8044 164.685 52.8044 164.031V157.357L52.7835 146.443C52.7835 144.03 49.7639 140.763 44.1624 140.763C38.5623 140.763 35.5414 144.03 35.5414 146.443V162.437ZM153.973 162.437V164.029C153.973 164.683 152.731 165.209 151.2 165.209C149.671 165.209 148.433 164.683 148.433 164.032V146.443C148.433 139.54 155.587 135.222 162.592 135.222C169.601 135.222 176.753 139.538 176.753 146.439L176.78 155.122L176.788 162.431L176.78 162.7V164.028C176.78 164.674 175.551 165.202 174.031 165.208C172.477 165.208 171.237 164.682 171.237 164.028V157.354L171.217 146.443C171.217 144.029 168.195 140.763 162.592 140.763C156.992 140.763 153.974 144.026 153.974 146.443V162.437H153.973ZM192.037 150.845C187.241 150.845 185.215 153.419 185.215 154.687V155.981C185.215 157.465 187.112 159.823 191.097 159.823H196.656C200.637 159.823 202.537 157.465 202.537 155.981V154.687C202.537 153.419 200.507 150.845 195.713 150.845H192.037ZM192.037 145.357H195.713C198.02 145.357 200.451 145.887 202.537 146.907V145.05C202.537 143.719 199.999 140.736 193.84 140.736C190.916 140.736 188.366 140.996 186.193 142.131C185.623 142.438 184.576 141.592 183.862 140.253C183.152 138.917 183.075 137.573 183.648 137.269C187.052 135.486 190.728 135.247 193.84 135.247C200.38 135.247 208.024 138.587 208.024 145.05V155.981C208.024 161.78 202.201 165.313 196.654 165.313H191.095C185.546 165.313 179.722 161.781 179.722 155.984V154.687C179.724 148.681 186.261 145.357 192.037 145.357ZM145.001 154.096C145.001 160.997 137.846 165.318 130.838 165.318C123.833 165.318 116.677 160.994 116.677 154.096V146.442C116.677 139.54 123.833 135.222 130.838 135.222C137.846 135.222 145.001 139.54 145.001 146.442V154.096ZM122.22 154.096C122.22 156.51 125.237 159.775 130.838 159.775C136.444 159.775 139.458 156.508 139.458 154.096V146.442C139.458 144.025 136.444 140.763 130.838 140.763C125.237 140.763 122.217 144.025 122.217 146.442L122.22 154.096ZM73.607 150.845C68.8149 150.845 66.7823 153.422 66.7823 154.687V155.984C66.7823 157.465 68.6835 159.823 72.6662 159.823H78.2272C82.2099 159.823 84.1083 157.465 84.1083 155.984V154.687C84.1083 153.419 82.0771 150.845 77.2864 150.845H73.607ZM73.607 145.357H77.2864C79.5929 145.357 82.0226 145.888 84.1083 146.909V145.05C84.1083 143.719 81.5738 140.738 75.4089 140.738C72.4859 140.738 69.9333 140.997 67.7679 142.133C67.1933 142.438 66.1463 141.592 65.4319 140.253C64.7204 138.917 64.6463 137.573 65.2208 137.27C68.622 135.488 72.3 135.247 75.4089 135.247C81.9471 135.247 89.5951 138.587 89.5951 145.05V155.984C89.5951 161.781 83.77 165.32 78.2258 165.32H72.6634C67.1192 165.32 61.2927 161.781 61.2927 155.984V154.687C61.2954 148.684 67.8336 145.357 73.607 145.357Z" fill="#002AB1"/>
<path fill-rule="evenodd" clip-rule="evenodd" d="M285.284 135.823C285.743 135.366 286.987 135.868 288.065 136.943C289.159 138.032 289.661 139.284 289.201 139.743L278.644 150.3L289.633 161.288C290.092 161.748 289.586 162.996 288.504 164.078C287.423 165.16 286.172 165.666 285.712 165.203L274.726 154.219L263.742 165.209C263.281 165.666 262.033 165.162 260.948 164.078C259.869 162.996 259.364 161.748 259.821 161.288L270.81 150.3L260.252 139.743C259.794 139.284 260.298 138.032 261.388 136.943C262.467 135.868 263.71 135.366 264.169 135.823L274.726 146.383L285.284 135.823ZM417.65 137.415C418.419 137.747 418.415 138.935 417.881 140.189C417.347 141.444 416.46 142.269 415.926 142.04C413.509 140.906 411.575 140.508 408.91 140.508C405.434 140.508 403.081 141.288 403.081 143.559C403.081 144.679 403.546 145.368 404.634 145.967C405.169 146.264 405.863 146.537 406.717 146.84C407.578 147.141 408.615 147.465 409.858 147.864C415.89 149.851 420 151.876 420 156.717C420 161.425 415.675 165.427 407.716 165.427C404.504 165.427 400.271 164.376 397.187 162.539L396.037 161.903C395.545 161.632 395.666 160.477 396.306 159.321C396.945 158.162 397.861 157.449 398.353 157.719L399.147 158.161C401.704 159.554 404.449 160.495 407.324 160.495C410.525 160.495 414.214 159.585 414.214 156.842C414.214 154.73 412.258 153.973 405.586 151.683C400.047 149.773 397.222 147.29 397.222 143.295C397.222 138.532 401.993 135.44 408.379 135.44C412.721 135.44 414.893 136.1 417.65 137.415ZM391.802 137.415C392.566 137.747 392.561 138.935 392.032 140.189C391.498 141.444 390.611 142.269 390.08 142.04C387.657 140.906 385.726 140.508 383.061 140.508C379.584 140.508 377.232 141.288 377.232 143.559C377.232 144.679 377.7 145.368 378.783 145.971C379.322 146.264 380.009 146.54 380.871 146.84C381.727 147.141 382.765 147.465 384.006 147.864C390.042 149.851 394.152 151.876 394.152 156.717C394.152 161.425 389.827 165.427 381.871 165.427C378.658 165.427 374.422 164.376 371.337 162.539L370.188 161.903C369.697 161.632 369.816 160.477 370.456 159.321C371.1 158.162 372.015 157.449 372.507 157.719L373.295 158.161C375.855 159.554 378.599 160.495 381.477 160.495C384.676 160.495 388.365 159.585 388.365 156.848C388.365 154.733 386.408 153.973 379.737 151.683C374.194 149.773 371.377 147.29 371.377 143.295C371.377 138.532 376.143 135.44 382.533 135.44C386.873 135.44 389.047 136.1 391.802 137.415ZM338.146 141.311C331.982 141.338 329.487 144.316 329.487 145.648V164.201C329.487 164.85 328.247 165.378 326.718 165.378C325.188 165.378 323.948 164.85 323.948 164.201V136.999C323.948 136.35 325.185 135.823 326.708 135.823C328.25 135.823 329.488 136.349 329.488 136.999V138.24C332.063 136.445 335.224 135.847 338.147 135.847C338.797 135.822 339.324 137.048 339.324 138.566C339.321 140.083 338.797 141.311 338.146 141.311ZM320.397 154.154C320.397 161.057 313.244 165.375 306.236 165.375C303.195 165.375 300.119 164.559 297.617 163.067V176.422C297.617 177.068 296.375 177.6 294.849 177.6C293.317 177.6 292.08 177.068 292.08 176.422V146.605C292.08 139.708 299.231 135.39 306.236 135.39C313.246 135.39 320.399 139.707 320.399 146.605V154.154H320.397ZM297.617 154.154C297.617 156.566 300.638 159.833 306.236 159.833C311.839 159.833 314.859 156.564 314.859 154.154V146.605C314.859 144.194 311.839 140.93 306.236 140.93C300.638 140.93 297.617 144.194 297.617 146.605V154.154ZM361.548 144.358C360.301 142.581 357.684 140.984 353.744 140.984C348.139 140.984 345.12 144.25 345.12 146.659V150.374L361.867 144.823L361.548 144.358ZM339.578 154.392C339.565 154.226 339.564 154.028 339.577 153.869L339.578 146.659C339.578 139.763 346.733 135.446 353.744 135.446C360.747 135.442 367.903 139.761 367.903 146.659C367.903 147.497 367.144 148.912 366.005 149.287L345.612 156.05L345.935 156.51C347.176 158.288 349.796 159.887 353.744 159.887C358.049 159.887 361.376 157.705 362.704 155.259L363.282 154.21C363.591 153.637 364.929 153.747 366.268 154.46C367.604 155.176 368.419 156.243 368.114 156.82L367.68 157.691C365.149 162.373 359.795 165.43 353.742 165.43C346.804 165.429 339.714 161.177 339.578 154.392ZM229.552 154.393C229.535 154.228 229.535 154.028 229.55 153.869V146.659C229.55 139.763 236.706 135.446 243.714 135.446C250.72 135.446 257.875 139.764 257.875 146.659C257.875 147.497 257.113 148.915 255.979 149.289L235.584 156.05L235.908 156.51C237.147 158.288 239.77 159.887 243.714 159.887C248.02 159.887 251.351 157.705 252.679 155.259L253.255 154.213C253.56 153.637 254.9 153.747 256.238 154.46C257.573 155.176 258.391 156.243 258.088 156.82L257.651 157.691C255.121 162.373 249.768 165.43 243.713 165.43C236.773 165.429 229.684 161.18 229.552 154.393ZM251.516 144.358C250.277 142.581 247.655 140.984 243.714 140.984C238.11 140.984 235.089 144.251 235.089 146.659V150.374L251.839 144.824L251.516 144.358Z" fill="#002AB1"/>
</svg>
