<svg width="450" height="300" viewBox="0 0 450 300" fill="none" xmlns="http://www.w3.org/2000/svg">
<path fill-rule="evenodd" clip-rule="evenodd" d="M50 171.114V135.115H55.4797V140.23C58.1191 136.312 61.9323 134.352 66.9175 134.352C69.082 134.352 71.074 134.741 72.8899 135.519C74.7058 136.298 76.0646 137.32 76.9681 138.583C77.8698 139.846 78.5012 141.347 78.864 143.085C79.0881 144.214 79.2019 146.188 79.2019 149.009V171.114H73.098V149.24C73.098 146.757 72.8614 144.9 72.3883 143.67C71.9152 142.441 71.0758 141.457 69.8717 140.724C68.6658 139.99 67.2537 139.624 65.6316 139.624C63.0421 139.624 60.8064 140.447 58.9247 142.096C57.043 143.743 56.104 146.869 56.104 151.476V171.114H50Z" fill="#002AB1"/>
<path fill-rule="evenodd" clip-rule="evenodd" d="M110.261 153.08C108.041 153.978 104.71 154.741 100.269 155.371C97.7557 155.73 95.9772 156.134 94.935 156.584C93.8927 157.032 93.0871 157.688 92.5215 158.553C91.9541 159.417 91.6713 160.377 91.6713 161.432C91.6713 163.049 92.2867 164.397 93.521 165.475C94.7536 166.552 96.557 167.091 98.9314 167.091C101.283 167.091 103.374 166.581 105.206 165.56C107.038 164.537 108.384 163.141 109.243 161.366C109.9 159.997 110.227 157.975 110.227 155.303L110.261 153.08ZM110.746 166.606C108.477 168.532 106.296 169.894 104.205 170.688C102.111 171.481 99.8669 171.877 97.4676 171.877C93.5103 171.877 90.4673 170.915 88.3419 168.989C86.2148 167.063 85.1512 164.601 85.1512 161.606C85.1512 159.849 85.5531 158.245 86.3553 156.792C87.1592 155.339 88.2103 154.174 89.5104 153.295C90.8123 152.415 92.2778 151.751 93.907 151.301C95.1039 150.985 96.9145 150.681 99.3351 150.389C104.267 149.804 107.897 149.105 110.227 148.294C110.248 147.462 110.261 146.932 110.261 146.707C110.261 144.232 109.684 142.487 108.528 141.475C106.965 140.102 104.646 139.415 101.565 139.415C98.6895 139.415 96.5677 139.921 95.1964 140.927C93.8269 141.937 92.8132 143.721 92.1569 146.282L86.1916 145.45C86.7341 142.892 87.6305 140.828 88.8755 139.255C90.1222 137.683 91.9221 136.474 94.2787 135.624C96.6353 134.775 99.3653 134.352 102.469 134.352C105.549 134.352 108.052 134.713 109.978 135.437C111.904 136.162 113.32 137.073 114.225 138.17C115.132 139.268 115.765 140.655 116.128 142.329C116.333 143.369 116.434 145.24 116.434 147.938V156.034C116.434 161.677 116.56 165.254 116.811 166.766C117.064 168.278 117.562 169.727 118.307 171.114H111.925C111.314 169.829 110.921 168.327 110.746 166.606Z" fill="#002AB1"/>
<path fill-rule="evenodd" clip-rule="evenodd" d="M137.713 165.672L138.545 171.058C136.834 171.419 135.303 171.6 133.951 171.6C131.744 171.6 130.033 171.25 128.816 170.547C127.6 169.846 126.744 168.923 126.248 167.781C125.752 166.638 125.505 164.235 125.505 160.569V139.832H120.996V135.115H125.505V126.208L131.609 122.549V135.115H137.713V139.832H131.609V160.92C131.609 162.665 131.715 163.783 131.929 164.281C132.144 164.781 132.491 165.176 132.974 165.471C133.458 165.765 134.148 165.912 135.048 165.912C135.722 165.912 136.612 165.832 137.713 165.672Z" fill="#002AB1"/>
<path fill-rule="evenodd" clip-rule="evenodd" d="M142.31 171.114H148.414V135.115H142.31V171.114ZM142.31 128.387H148.414V121.45H142.31V128.387Z" fill="#002AB1"/>
<path fill-rule="evenodd" clip-rule="evenodd" d="M160.325 153.132C160.325 157.727 161.333 161.167 163.348 163.454C165.364 165.74 167.9 166.883 170.955 166.883C173.988 166.883 176.513 165.734 178.528 163.438C180.543 161.14 181.55 157.637 181.55 152.931C181.55 148.491 180.538 145.13 178.511 142.844C176.485 140.559 173.966 139.415 170.955 139.415C167.9 139.415 165.364 140.552 163.348 142.828C161.333 145.103 160.325 148.538 160.325 153.132ZM154.082 153.116C154.082 146.466 155.936 141.543 159.64 138.341C162.733 135.682 166.505 134.352 170.955 134.352C175.903 134.352 179.946 135.969 183.085 139.204C186.224 142.437 187.795 146.905 187.795 152.607C187.795 157.228 187.099 160.863 185.71 163.511C184.321 166.158 182.299 168.215 179.645 169.679C176.992 171.145 174.094 171.877 170.955 171.877C165.918 171.877 161.847 170.266 158.742 167.043C155.637 163.821 154.082 159.177 154.082 153.116Z" fill="#002AB1"/>
<path fill-rule="evenodd" clip-rule="evenodd" d="M193.605 171.114V135.115H199.085V140.23C201.724 136.312 205.536 134.352 210.523 134.352C212.689 134.352 214.679 134.741 216.495 135.519C218.311 136.298 219.67 137.32 220.573 138.583C221.475 139.846 222.108 141.347 222.469 143.085C222.693 144.214 222.807 146.188 222.807 149.009V171.114H216.703V149.24C216.703 146.757 216.467 144.9 215.993 143.67C215.52 142.441 214.681 141.457 213.475 140.724C212.271 139.99 210.857 139.624 209.237 139.624C206.645 139.624 204.41 140.447 202.53 142.096C200.648 143.743 199.709 146.869 199.709 151.476V171.114H193.605Z" fill="#002AB1"/>
<path fill-rule="evenodd" clip-rule="evenodd" d="M253.866 153.08C251.644 153.978 248.315 154.741 243.874 155.371C241.359 155.73 239.581 156.134 238.538 156.584C237.496 157.032 236.692 157.688 236.125 158.553C235.559 159.417 235.276 160.377 235.276 161.432C235.276 163.049 235.894 164.397 237.124 165.475C238.357 166.552 240.16 167.091 242.535 167.091C244.888 167.091 246.979 166.581 248.811 165.56C250.643 164.537 251.988 163.141 252.848 161.366C253.503 159.997 253.832 157.975 253.832 155.303L253.866 153.08ZM254.351 166.606C252.082 168.532 249.901 169.894 247.81 170.688C245.717 171.481 243.472 171.877 241.073 171.877C237.115 171.877 234.072 170.915 231.945 168.989C229.818 167.063 228.756 164.601 228.756 161.606C228.756 159.849 229.156 158.245 229.96 156.792C230.764 155.339 231.815 154.174 233.116 153.295C234.416 152.415 235.881 151.751 237.51 151.301C238.711 150.985 240.52 150.681 242.938 150.389C247.87 149.804 251.502 149.105 253.832 148.294C253.855 147.462 253.866 146.932 253.866 146.707C253.866 144.232 253.288 142.487 252.134 141.475C250.57 140.102 248.249 139.415 245.17 139.415C242.295 139.415 240.171 139.921 238.802 140.927C237.432 141.937 236.418 143.721 235.762 146.282L229.797 145.45C230.339 142.892 231.234 140.828 232.481 139.255C233.726 137.683 235.527 136.474 237.884 135.624C240.24 134.775 242.97 134.352 246.072 134.352C249.154 134.352 251.657 134.713 253.583 135.437C255.507 136.162 256.923 137.073 257.83 138.17C258.735 139.268 259.37 140.655 259.733 142.329C259.938 143.369 260.039 145.24 260.039 147.938V156.034C260.039 161.677 260.165 165.254 260.416 166.766C260.669 168.278 261.167 169.727 261.912 171.114H255.531C254.919 169.829 254.526 168.327 254.351 166.606Z" fill="#002AB1"/>
<mask id="mask0" mask-type="alpha" maskUnits="userSpaceOnUse" x="267" y="121" width="49" height="65">
<path d="M267.931 121.45H315.494V185.574H267.931V121.45Z" fill="#002AB1"/>
</mask>
<g mask="url(#mask0)">
<path fill-rule="evenodd" clip-rule="evenodd" d="M267.931 171.114H274.035V121.45H267.931V171.114Z" fill="#002AB1"/>
<path fill-rule="evenodd" clip-rule="evenodd" d="M290.177 152.39C290.177 156.2 290.915 158.99 292.389 160.76C293.865 162.529 295.685 163.415 297.847 163.415C300.17 163.415 302.13 162.508 303.731 160.692C305.33 158.878 306.13 156.189 306.13 152.626C306.13 148.908 305.364 146.145 303.832 144.34C302.299 142.537 300.362 141.635 298.018 141.635C295.742 141.635 293.865 142.521 292.389 144.29C290.915 146.06 290.177 148.76 290.177 152.39ZM281.645 173.403L292.535 174.721C292.715 176.004 293.133 176.886 293.789 177.366C294.692 178.054 296.115 178.398 298.059 178.398C300.546 178.398 302.409 178.024 303.653 177.279C304.489 176.781 305.12 175.979 305.55 174.872C305.844 174.081 305.991 172.623 305.991 170.497L306.032 165.242C303.167 169.158 299.564 171.114 295.221 171.114C290.381 171.114 286.547 169.073 283.72 164.987C281.504 161.759 280.396 157.742 280.396 152.936C280.396 146.91 281.849 142.307 284.756 139.125C287.66 135.944 291.274 134.352 295.594 134.352C300.049 134.352 303.724 136.305 306.616 140.212V135.115H315.494V167.392C315.494 171.637 315.144 174.808 314.445 176.909C313.744 179.009 312.761 180.656 311.496 181.853C310.23 183.05 308.542 183.988 306.431 184.665C304.318 185.343 301.646 185.681 298.417 185.681C292.318 185.681 287.993 184.633 285.439 182.534C282.886 180.438 281.611 177.78 281.611 174.559C281.611 174.243 281.622 173.857 281.645 173.403Z" fill="#002AB1"/>
</g>
<path fill-rule="evenodd" clip-rule="evenodd" d="M332.65 171.114H323.149V135.115H331.958V140.23C333.474 137.813 334.838 136.23 336.049 135.478C337.26 134.727 338.635 134.352 340.173 134.352C342.347 134.352 344.44 134.949 346.455 136.146L343.506 144.442C341.902 143.403 340.408 142.884 339.028 142.884C337.694 142.884 336.565 143.25 335.636 143.985C334.71 144.717 333.979 146.042 333.449 147.961C332.917 149.88 332.65 153.896 332.65 160.011V171.114Z" fill="#002AB1"/>
<path fill-rule="evenodd" clip-rule="evenodd" d="M349.135 171.114H358.638V135.115H349.135V171.114Z" fill="#002AB1"/>
<path fill-rule="evenodd" clip-rule="evenodd" d="M374.613 152.417C374.613 156.271 375.141 159.061 376.201 160.783C377.733 163.278 379.874 164.525 382.622 164.525C384.808 164.525 386.666 163.589 388.198 161.718C389.731 159.849 390.495 157.053 390.495 153.334C390.495 149.185 389.752 146.197 388.265 144.372C386.778 142.547 384.875 141.635 382.554 141.635C380.301 141.635 378.414 142.537 376.893 144.338C375.373 146.142 374.613 148.835 374.613 152.417ZM400 171.114H391.189V165.83C389.718 167.886 387.981 169.43 385.976 170.465C383.972 171.499 381.951 172.016 379.913 172.016C375.769 172.016 372.219 170.348 369.265 167.011C366.309 163.675 364.833 159.02 364.833 153.048C364.833 146.94 366.27 142.298 369.142 139.12C372.018 135.942 375.65 134.352 380.041 134.352C384.07 134.352 387.554 136.024 390.495 139.364V121.45H400V171.114Z" fill="#002AB1"/>
<path fill-rule="evenodd" clip-rule="evenodd" d="M361.061 121.194L353.866 128.39L346.672 121.194L353.866 114L361.061 121.194Z" fill="#002AB1"/>
</svg>
