<?xml version="1.0" encoding="UTF-8"?>
<svg width="612px" height="400px" viewBox="0 0 612 400" version="1.1" xmlns="http://www.w3.org/2000/svg" xmlns:xlink="http://www.w3.org/1999/xlink">
    <!-- Generator: Sketch 52.5 (67469) - http://www.bohemiancoding.com/sketch -->
    <title>pattern-3</title>
    <desc>Created with Sketch.</desc>
    <g id="pattern-3" stroke="none" stroke-width="1" fill="none" fill-rule="evenodd">
        <path d="M-0.0103496612,336.644388 C0.177711809,336.5694 43.6269137,324.050341 43.6269137,324.050341 L88.729656,336.854356 L158.938605,308.392769 L188.044118,294 L258.190046,298.337328 L305.86863,312.039203 L420.154986,346.667834 L484.186915,321.943668 L522.10831,324.705239 L550.062448,304.415385 L616,315.622648 M-0.209414728,343.220369 C0.166708212,343.071392 42.835655,330.851287 42.835655,330.851287 L86.7219997,343.879267 L155.212387,315.373686 L185.636331,301.503837 L257.938964,310.177492 L306.842949,323.0235 L417.055973,354.301651 L481.758122,331.122245 L520.579811,331.47619 L548.722009,315.371687 L615.810938,325.126174 M-0.408479794,349.796349 C0.156704942,349.573384 42.0453967,337.651232 42.0453967,337.651232 L84.7143435,350.904178 L151.487169,322.355604 L183.228544,309.007673 L257.687882,322.018656 L307.816267,334.008797 L413.95696,361.934468 L479.329328,340.300822 L519.051311,338.24714 L547.381571,326.328988 L615.622877,334.628701 M-0.607544861,356.37333 C0.146701673,356.075376 41.2551384,344.452178 41.2551384,344.452178 L82.7066873,357.928089 L147.760951,329.336521 L180.819757,316.51151 L257.4368,333.85982 L308.790585,344.993094 L410.857947,369.568284 L476.900534,349.479399 L517.522812,345.01709 L546.042134,337.285289 L615.433815,344.132228 M-0.806609928,362.94931 C0.135698076,362.577368 40.4648801,351.253124 40.4648801,351.253124 L80.6990311,364.953 L144.034733,336.318439 L178.41197,324.016346 L257.185718,345.699984 L309.763903,355.977391 L407.758934,377.201101 L474.47174,358.657976 L515.994312,351.788041 L544.701695,348.24159 L615.245753,353.635754 M-1.00567499,369.52629 C0.125694806,369.07936 39.6746218,358.054069 39.6746218,358.054069 L78.6913749,371.97791 L140.309515,343.299357 L176.004183,331.520183 L256.934636,357.541149 L310.737222,366.961688 L404.659921,384.833917 L472.042946,367.836552 L514.465812,358.558991 L543.361257,359.197892 L615.057692,363.139281 M-1.20474006,376.102271 C0.11469121,375.581352 38.8833632,364.854015 38.8833632,364.854015 L76.684719,379.001821 L136.583297,350.281274 L173.596396,339.02402 L256.682553,369.381313 L311.71154,377.945985 L401.560908,392.467734 L469.614152,377.015129 L512.937313,365.328941 L542.021819,370.154193 L614.86863,372.641807 M-1.4028048,382.678251 C0.10468794,382.083344 38.0931049,371.65496 38.0931049,371.65496 L74.6770627,386.026732 L132.85808,357.262192 L171.188609,346.527856 L256.431471,381.222477 L312.684858,388.930282 L398.461895,400.10055 L467.184358,386.193706 L511.407813,372.099891 L540.681381,381.110494 L614.680569,382.145334 M-1.60186987,389.255232 C0.0936843434,388.584336 37.3028466,378.455906 37.3028466,378.455906 L72.6694065,393.051643 L129.131862,364.24311 L168.779821,354.031693 L256.180389,393.063641 L313.658176,399.914579 L395.362882,407.734367 L464.755564,395.372283 L509.879313,378.870842 L539.340943,392.066796 L614.491507,391.648861 M-1.80093493,395.831212 C0.0836810737,395.086328 36.5125883,385.256852 36.5125883,385.256852 L70.6617503,400.075554 L125.405644,371.225027 L166.372034,361.535529 L255.929307,404.903806 L314.632495,410.898876 L392.263869,415.367183 L462.32677,404.54986 L508.350814,385.640792 L538.001505,403.024097 L614.303445,401.152387 M-2,402.408193 C0.0726774771,401.58832 35.72233,392.056797 35.72233,392.056797 L68.6540941,407.100465 L121.680426,378.205945 L163.964247,369.039366 L255.678225,416.74497 L315.605813,421.883173 L389.164856,423 L459.897976,413.728437 L506.822314,392.411742 L536.661067,413.980398 L614.115384,410.654914" id="Stroke-1" stroke="#FFFFFF"></path>
        <path d="M-3.00586788,409.505628 C-0.744567349,408.609985 34.1170658,399.359015 34.1170658,399.359015 L65.82628,414.657078 L117.124098,385.661889 L160.717891,377 L254.569364,429.146658 L315.71049,433.436527 L385.183723,431.198421 L456.573211,423.456219 L504.388565,399.684613 L534.409555,425.48995 L613,420.702167 M-3.20489433,416.094715 C-0.755568811,415.124936 33.3269608,406.173516 33.3269608,406.173516 L63.8190132,421.694988 L113.398602,392.656721 L158.309571,384.518792 L254.318331,441.01042 L316.684619,444.442717 L382.085311,438.846451 L454.144888,432.65309 L502.860362,406.468056 L533.070377,436.468088 L612.811975,430.224635 M-3.40392078,422.684804 C-0.765570141,421.639887 32.5368558,412.988016 32.5368558,412.988016 L61.8117465,428.7339 L109.674107,399.652554 L155.902251,392.037585 L254.067297,452.875185 L317.657749,455.448906 L378.986899,446.495482 L451.715565,441.84996 L501.332159,413.252501 L531.730199,447.446226 L612.62395,439.747103 M-3.6019471,429.273891 C-0.776571603,428.154838 31.7467508,419.801515 31.7467508,419.801515 L59.8044797,435.772813 L105.948612,406.647385 L153.494931,399.557379 L253.816264,464.738948 L318.630878,466.455096 L375.888488,454.143512 L449.287242,451.046831 L499.803956,420.036947 L530.390021,458.424364 L612.434925,449.268569 M-3.80097355,435.86398 C-0.786572932,434.669789 30.9566458,426.616015 30.9566458,426.616015 L57.7982131,442.810723 L102.223117,413.643218 L151.087611,407.076172 L253.565231,476.603713 L319.605007,477.462288 L372.790076,461.791541 L446.85892,460.243702 L498.275753,426.82039 L529.050843,469.403505 L612.2469,458.791037 M-4,442.453067 C-0.797574394,441.18474 30.1655406,433.430516 30.1655406,433.430516 L55.7909463,449.849635 L98.4986222,420.638049 L148.680291,414.806352 L253.313197,488.892255 L320.578137,488.892255 L369.691664,467.853661 L444.430597,467.853661 L496.74755,432.81138 L527.710665,479.984915 L612.057875,468.115141 M-4,452.460424 C-0.985599383,451.266234 29.7894907,444.698185 29.7894907,444.698185 L55.2638762,460.758646 L72.0251038,450.316491 L97.8075303,433.252189 L129.701769,429.146658 L147.446127,427.499636 L251.575966,499.647985 L320.710154,499.851358 L351.951306,488.911289 L371.401891,481.827295 L403.901211,481.491679 L448.199098,481.789225 L499.365898,447.804884 L530.103983,491.617253 L559.091836,487.479663 L612.057875,480.977736 M-4,462.46678 C-1.17362437,461.347727 29.4134407,455.966856 29.4134407,455.966856 L54.7358061,471.667658 L71.4110222,462.307488 L97.1164385,445.866328 L128.685634,441.536385 L146.212963,440.40531 L249.838735,510.828494 L320.842172,511.234239 L353.059454,501.080613 L373.112119,494.215019 L406.478553,493.541784 L451.967599,494.138879 L501.984246,462.005934 L532.497301,502.853866 L560.689048,498.839502 L612.057875,493.641967 M-4,472.474137 C-1.36264949,471.42922 29.0373907,467.234526 29.0373907,467.234526 L54.208736,482.575667 L70.7959405,474.298484 L96.4253466,458.480467 L127.669499,453.925111 L144.978799,453.310984 L248.100504,522.009004 L320.974189,522.617119 L354.168601,513.248934 L374.822346,506.601741 L409.055896,505.59289 L455.735099,506.488533 L504.603594,476.205983 L534.891619,514.090478 L562.28726,510.198338 L612.057875,506.3072 M-4,482.480493 C-1.55067448,481.510714 28.6613407,478.503197 28.6613407,478.503197 L53.681666,493.484679 L70.1818589,486.288478 L95.7342548,471.094607 L126.653364,466.313837 L143.745636,466.215657 L246.363274,533.189513 L321.107207,534 L355.277748,525.417256 L376.532573,518.989465 L411.633238,517.643997 L459.5036,518.838187 L507.221942,490.407033 L537.284937,525.326089 L563.884472,521.558177 L612.057875,518.971432" id="Stroke-3" stroke="#FFFFFF"></path>
        <path d="M-3,572.266502 C-2.24721769,571.968447 26.262538,579.626881 26.262538,579.626881 L49.915698,591.355079 L65.6251552,593.893554 L90.4769687,584.325762 L118.458877,577.529488 L133.584503,582.070339 L231.625152,633.434962 L323.157683,636.064455 L366.101265,634.554172 L392.757556,630.102338 L435.647154,625.73652 L494.209219,629.610246 L531.563417,617.859044 L559.590312,626.086586 L579.017694,623.432088 L612.797926,632.573801 M-3,582.257374 C-2.43516334,582.033332 25.8866467,590.875989 25.8866467,590.875989 L49.3878507,602.246119 L65.010333,605.864797 L89.7861685,596.919121 L117.443171,589.897806 L132.35086,594.953753 L229.888654,644.597053 L323.290645,647.428584 L367.208944,646.702448 L394.467062,642.469655 L438.223409,637.767774 L497.97513,641.939556 L534.18066,632.0367 L561.982621,637.304687 L580.615232,634.773213 L612.797926,645.21817 M-3,592.247246 C-2.62310899,592.098218 25.5107554,602.126097 25.5107554,602.126097 L48.861003,613.13716 L64.3965105,617.83604 L89.0963679,609.51248 L116.427464,602.266123 L131.118216,607.838167 L228.152156,655.759145 L323.422606,658.792713 L368.317624,658.851724 L396.176568,654.835972 L440.799664,649.799028 L501.742041,654.268865 L536.797903,646.213356 L564.374929,648.521789 L582.211771,646.114338 L612.797926,657.861539 M-3,602.237743 C-2.81205435,602.163104 25.1338644,613.375204 25.1338644,613.375204 L48.3341554,624.0272 L63.782688,629.807283 L88.4055677,622.10584 L115.411758,614.63444 L129.884573,620.722581 L226.414659,666.921236 L323.554568,670.156842 L369.426303,671 L397.886073,667.203289 L443.375919,661.830282 L505.508951,666.598175 L539.415147,660.390012 L566.767237,659.73989 L583.808309,657.454462 L612.797926,670.504907 M0.379022867,330.553218 L44.5812406,317.730816 L90.8728542,330.316174 L162.756067,301.760824 L190.526037,286.715005 L258.474388,286.715005 L304.898963,301.404757 L423.184758,339.460887 L486.508446,313.21397 L523.505747,318.400941 L551.253723,293.924356 L616,306.592729 M615.812054,297.508027 L551.923529,287.178092 L522.334086,313.00393 L485.04287,308.931167 L421.469254,335.84921 L303.654323,297.806083 L258.243455,280.820901 L190.693988,280.224789 L160.873612,292.629113 L89.1173619,321.22247 L43.1216627,310.470456 L0.181080108,323.134828 M615.623109,288.419324 L552.593336,280.423826 L521.162425,307.589916 L483.578293,304.616359 L419.75275,332.173522 L302.408683,294.081385 L258.013521,274.675749 L190.86094,273.483526 L158.992156,283.370378 L87.3618695,312.129766 L41.6620848,303.210095 L-0.0178623629,315.716438 M615.435163,279.331622 L553.263142,273.669561 L519.989764,302.176902 L482.113717,300.30155 L418.037246,328.498833 L301.164043,290.356687 L257.783588,268.529598 L191.028891,266.741263 L157.1097,274.111644 L85.6073769,303.036063 L40.2025069,295.949735 L-0.216804833,308.298049 M615.246218,270.242919 L553.932948,266.915296 L518.818103,296.762887 L480.64914,295.987742 L416.320742,324.823144 L299.918403,286.631989 L257.553654,262.383447 L191.195843,260 L155.227244,264.853909 L83.8518845,293.943359 L38.7429289,288.689375 L-0.415747304,300.879659" id="Stroke-5" stroke="#FFFFFF"></path>
        <path d="M615,261.057973 L554.510241,260.065651 L517.534609,291.227351 L479.050583,291.55013 L414.43675,321 L298.441531,282.792117 L257.067752,256.145331 L191.072559,253.168366 L153.03365,255.50377 L81.7450776,284.73379 L36.9073966,281.316126 L-1.01148196,293.33591 M614.811951,251.97718 L555.180416,253.317264 L516.362303,285.819048 L477.585201,287.239077 L412.720303,317.32751 L297.195206,279.070661 L256.837692,250.005528 L191.239603,246.431971 L151.150159,246.253093 L79.9896203,275.648 L35.4470161,274.062084 L-1.21053381,285.923976 M614.622902,242.897387 L555.850591,246.568877 L515.189998,280.409745 L476.119819,282.928024 L411.002855,313.65602 L295.949882,275.349204 L256.607632,243.864725 L191.406646,239.696574 L149.267668,237.003415 L78.2331627,266.56321 L33.9866357,266.808043 L-1.40958567,278.512042 M614.434853,233.816594 L556.520765,239.82049 L514.016692,275.001442 L474.653437,278.61797 L409.286408,309.98453 L294.703557,271.627748 L256.377572,237.723923 L191.57469,232.960179 L147.384178,227.752739 L76.4767051,257.47742 L32.5262552,259.554001 L-1.60763726,271.100109 M614.245804,224.735801 L557.19094,233.072103 L512.844387,269.593139 L473.188055,274.306917 L407.568961,306.31204 L293.458233,267.905293 L256.146512,231.58312 L191.741734,226.224783 L145.500687,218.502062 L74.7202475,248.39263 L31.0648745,252.29996 L-1.80668912,263.688175 M614.057755,215.655008 L557.861114,226.323715 L511.672081,264.183836 L471.722674,269.995864 L405.852513,302.640549 L292.211908,264.183836 L255.916452,225.443317 L191.909777,219.488388 L143.618197,209.251385 L72.9647902,239.306841 L29.6044941,245.045918 L-2.00574098,256.276242 M613.869706,206.574215 L558.530289,219.575328 L510.499776,258.775533 L470.257292,265.68481 L404.135066,298.96806 L290.966584,260.46238 L255.686392,219.302515 L192.076821,212.751992 L141.734706,200.001708 L71.2083326,230.222051 L28.1441136,237.791876 L-2.20479283,248.864308 M613.680656,197.494422 L559.200463,212.826941 L509.32647,253.36723 L468.79091,261.374756 L402.418619,295.296569 L289.720259,256.740924 L255.456332,213.161712 L192.244865,206.016596 L139.851215,190.751031 L69.451875,221.136261 L26.6837331,230.537835 L-2.40384469,241.451375 M613.492607,188.413629 L559.870638,206.078554 L508.154165,247.957927 L467.325528,257.063703 L400.701171,291.62408 L288.474934,253.019468 L255.225272,207.02091 L192.411908,199.280201 L137.968725,181.500354 L67.6964177,212.051471 L25.2233527,223.284793 L-2.60289655,234.039441 M613.304558,179.332836 L560.540812,199.330167 L506.981859,242.549624 L465.860146,252.75265 L398.984724,287.952589 L287.22861,249.298011 L254.995212,200.881107 L192.579952,192.544805 L136.085234,172.250677 L65.9399601,202.966681 L23.7629722,216.030751 L-2.8019484,226.627508 M613.115509,170.252043 L561.210987,192.58178 L505.809554,237.141321 L464.394765,248.441597 L397.267277,284.2801 L285.983285,245.576555 L254.765152,194.740304 L192.746996,185.808409 L134.202744,163 L64.1835025,193.880892 L22.3025918,208.77671 L-3,219.215574" id="Stroke-6" stroke="#FFFFFF"></path>
        <path d="M612.164005,160.56945 L561.131087,185.230187 L503.902179,231.126196 L462.204247,243.525013 L394.844356,280 L284.059535,241.248699 L253.865583,187.996138 L192.261683,178.469194 L131.681781,153.147947 L61.8088937,184.192955 L20.2339608,200.918568 L-3.80100032,211.198954 M615,116.168334 L536.802126,108.523995 L470.658233,88.2540074 L385.455371,83.1797654 L344.721437,70.5201411 L303.982502,68.8293933 L267.866561,35.9317573 L196.697676,14 L155.419742,45.2088867 L101.33083,105.278399 L48.6659149,118.111895 L5.60798448,118.111895 L-4,133.95716 M614.948,117.005714 L538.689123,109.362374 L474.094228,89.8887966 L421.066313,87.1238444 L388.834365,84.4418307 L361.565409,75.6943091 L348.119431,72.1249526 L318.238479,71.7312442 L307.435497,71.4184758 L270.461557,40.9430459 L201.776668,19.7857151 L199.449671,19.1212072 L157.680739,48.731278 L125.94779,82.1445321 L101.958829,106.089798 L49.1759141,119.061192 L44.8329211,119.139134 L31.8649421,119.059193 L6.00798383,118.899311 L5.26098504,119.985507 L-4,134.470779 M614.895,117.843094 L540.57612,110.200754 L477.529222,91.5255844 L424.347308,89.1433487 L392.21436,85.703896 L364.961404,76.6875735 L351.518426,73.7287648 L321.718474,74.1854266 L310.889491,74.0065591 L273.057552,45.9543346 L204.528663,24.8539615 L202.202667,24.2434137 L159.940735,52.2546685 L127.389788,84.7915717 L102.586828,106.976142 L49.6869133,120.162376 L45.3389203,120.317261 L32.3359413,120.15738 L6.40798319,119.838616 L5.61598447,120.847868 L-4,135.060343 M614.843,118.680473 L542.463117,111.039133 L480.965217,93.161373 L427.627303,91.1628531 L395.594354,86.9669606 L368.357398,77.6818371 L354.91642,75.3335763 L325.198468,76.6406083 L314.343486,76.5956416 L275.653548,50.9656232 L207.280659,29.922208 L204.955662,29.3646209 L162.201731,55.7770598 L128.831785,87.4386113 L103.214827,107.863485 L50.1969124,121.262561 L45.8449195,121.495389 L32.8059405,121.255566 L6.80898254,120.77792 L5.97198389,121.70923 L-4,135.648907 M614.791,119.517853 L544.350114,111.877512 L484.400211,94.7971615 L430.907297,93.1823574 L398.973349,88.2290259 L371.753393,78.6761008 L358.315415,76.9383877 L328.677463,79.0947907 L317.79748,79.1837248 L278.249544,55.9769118 L210.032654,34.9904544 L207.707658,34.4858282 L164.462728,59.3004504 L130.272783,90.0856509 L103.842826,108.750827 L50.7069116,122.363746 L46.3519187,122.674515 L33.2759398,122.353753 L7.20898189,121.716225 L6.32698332,122.571592 L-4,136.23847 M614.738,120.354234 L546.238111,112.715891 L487.836205,96.43295 L434.187292,95.2018618 L402.353344,89.4920904 L375.149387,79.6703644 L361.713409,78.5421999 L332.157457,81.5489731 L321.251475,81.7728074 L280.84454,60.9882005 L212.78465,40.0587009 L210.460654,39.6080347 L166.723724,62.8228417 L131.714781,92.7326905 L104.470825,109.637171 L51.2179108,123.463931 L46.8579178,123.852643 L33.746939,123.452939 L7.60898125,122.65553 L6.68198274,123.432954 L-4,136.828033" id="Stroke-7" stroke="#FFFFFF"></path>
        <path d="M615,121.285376 L548.405326,113.665711 L491.523564,98.2160259 L437.691343,97.3716119 L405.941289,90.918375 L378.739534,80.8522026 L365.299738,80.3357842 L335.808826,84.1830021 L324.871295,84.539909 L283.586419,66.2210107 L215.648066,45.3967848 L213.32289,45 L169.071514,66.5669512 L133.226389,95.5332419 L105.154194,110.642968 L51.7561934,124.651069 L47.3909861,125.115646 L34.2363344,124.637111 L8.01607598,123.683033 L7.04358424,124.381893 L-4,137.472802 M614.947974,122.120817 L550.293281,114.50215 L494.960301,99.8480279 L440.974003,99.3864415 L409.322999,92.1785158 L382.137252,81.8441647 L368.699457,81.9358839 L339.290586,86.6315035 L328.327043,87.1229983 L286.183733,71.2206991 L218.400458,50.4542962 L216.077283,50.1103496 L171.333658,70.0811889 L134.668118,98.1741542 L105.782512,111.52726 L52.2674519,125.748707 L47.8972421,126.292043 L34.7065721,125.732756 L8.41627834,124.619166 L7.39876383,125.241261 L-4,138.061001 M614.894947,122.956259 L552.181235,115.338588 L498.39804,101.48003 L444.255662,101.401271 L412.703708,93.4376597 L385.53497,82.8361269 L372.099176,83.5369805 L342.772347,89.0810019 L331.78279,89.7050907 L288.781046,76.2203876 L221.15385,55.5108106 L218.830675,55.2197022 L173.595802,73.5964235 L136.110848,100.815066 L106.41083,112.412549 L52.7777099,126.846346 L48.4044986,127.467443 L35.1768099,126.828401 L8.81648071,125.556296 L7.75394343,126.101626 L-4,138.649199 M614.842921,123.7917 L554.06919,116.175026 L501.834778,103.112032 L447.537322,103.416101 L416.085418,94.6978005 L388.933689,83.828089 L375.499896,85.1380771 L346.253107,91.5295034 L335.238537,92.2881799 L291.378359,81.220076 L223.907242,60.5673251 L221.585068,60.3300517 L175.857946,77.1106611 L137.553577,103.455979 L107.039147,113.296841 L53.2889684,127.944981 L48.9107545,128.642844 L35.6480482,127.924045 L9.21668307,126.493426 L8.10912303,126.960994 L-4,139.236401 M614.790894,124.627142 L555.957145,117.011465 L505.272516,104.744034 L450.818981,105.43093 L419.467128,95.9569444 L392.331407,84.8200511 L378.899615,86.7381768 L349.734868,93.9780049 L338.694285,94.8702723 L293.974672,86.2197645 L226.660635,65.6238395 L224.339461,65.4394043 L178.119089,80.6248987 L138.995306,106.096891 L107.667465,114.18213 L53.7992264,129.042619 L49.418011,129.819241 L36.118286,129.020687 L9.61788594,127.430556 L8.46530313,127.82136 L-4,139.8246 M614.737867,125.462583 L557.845099,117.847903 L508.709254,106.376036 L454.100641,107.44576 L422.847837,97.2170852 L395.729125,85.8120132 L382.300334,88.3392735 L353.215628,96.4265063 L342.149032,97.4533616 L296.571986,91.2194529 L229.414027,70.6803539 L227.092853,70.5487569 L180.381233,84.1401333 L140.438036,108.737803 L108.295783,115.067419 L54.3104849,130.141255 L49.924267,130.994641 L36.5885238,130.116331 L10.0180883,128.36669 L8.82048273,128.681725 L-4,140.412798 M614.685841,126.298025 L559.733054,118.684342 L512.146992,108.008038 L457.3833,109.460589 L426.229547,98.476229 L399.126843,86.8039753 L385.700054,89.9403701 L356.697388,98.8760047 L345.604779,100.035454 L299.169299,96.2191414 L232.166419,75.7368683 L229.847246,75.6591065 L182.643377,87.654371 L141.880765,111.378715 L108.924101,115.95171 L54.820743,131.238893 L50.4315235,132.170042 L37.0587615,131.211976 L10.4182907,129.30382 L9.17566233,129.541093 L-4,141" id="Stroke-8" stroke="#FFFFFF"></path>
        <path d="M615,127.459232 L562.041508,119.831075 L516.051396,109.930255 L461.188892,111.769364 L430.167005,100.005459 L403.10806,88.0417599 L389.698026,91.793902 L360.805033,101.597822 L349.698802,102.89349 L302.453342,101.491931 L235.675028,81.0249743 L233.358231,81 L185.71198,91.4222841 L144.172556,114.318743 L110.436079,117.14184 L56.2712135,132.673871 L51.8814936,133.683832 L38.4874507,132.643901 L11.8043104,130.573031 L10.516979,130.733865 L-3,141.94334 M614.947028,128.296371 L563.928527,120.669213 L519.485612,111.565573 L464.467189,113.788288 L433.545251,101.268161 L406.502297,89.0357379 L393.094262,93.3982525 L364.283227,104.051299 L353.151009,105.481829 L305.046995,106.50178 L238.425599,86.0927638 L236.109802,86.120735 L187.970806,94.9436636 L145.612808,116.965022 L111.063753,118.027929 L56.7809487,133.77374 L52.3872309,134.86262 L38.9572067,133.741773 L12.2041027,131.511066 L10.8727942,131.59498 L-3,142.532734 M614.895055,129.133511 L565.814548,121.507352 L522.918829,113.200892 L467.745487,115.807212 L436.922497,102.529864 L409.896534,90.0297159 L396.491497,95.002603 L367.76142,106.504777 L356.603216,108.069168 L307.641647,111.511629 L241.176171,91.1595543 L238.860373,91.2404711 L190.230633,98.466042 L147.054059,119.611301 L111.691427,118.915017 L57.2916834,134.874608 L52.8939677,136.040409 L39.4269627,134.840643 L12.6038951,132.450101 L11.2276099,132.457093 L-3,143.121129 M614.843082,129.97065 L567.700568,122.34549 L526.353045,114.836211 L471.023784,117.826137 L440.300742,103.792565 L413.290771,91.0236939 L399.887733,96.6059544 L371.238614,108.958254 L360.054423,110.657507 L310.2363,116.521478 L243.926742,96.2263447 L241.611944,96.3612061 L192.490459,101.987421 L148.495311,122.258579 L112.319101,119.801106 L57.8014187,135.974477 L53.399705,137.218198 L39.8977182,135.938514 L13.0046869,133.389135 L11.5824256,133.318208 L-3,143.710523 M614.790109,130.80679 L529.786262,116.471529 L474.30308,119.845061 L416.685008,92.017672 L374.716807,111.412731 L312.830952,121.531327 L246.677313,101.293135 L194.749286,105.5098 L149.935563,124.904858 L112.946775,120.688194 L53.9064418,138.396986 L40.3674742,137.036385 L11.9372413,134.180322 L-3,144.299917 M614.665174,131.042548 L532.130044,117.55042 L476.896733,122.01483 L418.065291,94.7458669 L373.503438,116.968019 L312.553096,125.698043 L247.429922,104.963362 L195.294003,107.98925 L151.525737,125.251502 L115.708341,120.935939 L58.122252,137.888509 L41.8646965,138.357027 L12.5968987,136.015435 L-3,146.866278 M614.539239,131.278305 L534.472827,118.629311 L479.491386,124.185598 L419.446574,97.4740619 L372.289068,122.523307 L312.27624,129.864759 L248.183531,108.634587 L195.83772,110.4697 L153.115911,125.599145 L118.469906,121.183684 L62.3380623,137.380032 L43.3619188,139.67667 L13.2555566,137.850548 L-3,149.433639 M614.414304,131.514063 L536.81661,119.708201 L482.086038,126.355367 L420.827856,100.202257 L371.075699,128.078595 L311.999384,134.031475 L248.93614,112.304813 L196.381438,112.95015 L154.706085,125.945788 L121.231472,121.432429 L66.552873,136.871555 L44.8591411,140.996314 L13.9152139,139.68666 L-3,152" id="Stroke-9" stroke="#FFFFFF"></path>
        <path d="M614,131.924704 L538.784412,120.921907 L484.241904,128.688233 L421.698333,103 L369.292177,133.816656 L311.084349,138.396643 L248.981058,116.093269 L196.155636,115.545836 L155.479901,126.448371 L123.139439,121.818253 L69.8537262,136.554822 L45.4132631,142.530462 L13.5941316,141.732374 L-4,154.825642 M613.87392,132.161323 L541.129896,122.004741 L486.839547,130.866936 L423.081208,105.738167 L368.077408,139.392249 L310.807174,142.578588 L249.734534,119.77691 L196.700981,118.034349 L157.071908,126.797284 L125.904189,122.066904 L74.0743966,136.044487 L46.9122114,143.854929 L14.2535488,143.574194 L-4,157.402386 M613.748841,132.397943 L543.476381,123.087575 L489.43619,133.044635 L424.463083,108.476333 L366.86264,144.967842 L310.529999,146.760534 L250.489012,123.461554 L197.245325,120.523865 L158.663915,127.145195 L128.668938,122.316557 L78.2950669,135.534151 L48.4111598,145.180398 L14.9139666,145.416015 L-4,159.978128 M613.622761,132.633559 L545.821865,124.170409 L492.033834,135.223338 L425.845958,111.2145 L365.647871,150.544437 L310.251823,150.942479 L251.243489,127.145195 L197.78967,123.013381 L160.254922,127.494108 L131.433687,122.565208 L82.5157373,135.023815 L49.9101082,146.504865 L15.5733838,147.258838 L-4,162.554872 M613.497682,132.870179 L548.168349,125.253243 L494.631477,137.401037 L427.227832,113.952666 L364.433102,156.12003 L309.974647,155.124424 L251.996966,130.829839 L198.334014,125.501894 L161.846929,127.842019 L134.199437,122.813858 L86.7364077,134.51348 L51.4090565,147.830334 L16.232801,149.100659 L-4,165.131616 M613.371602,133.106798 L550.513833,126.336077 L497.22812,139.578737 L428.610707,116.690833 L363.218334,161.695623 L309.697472,159.30637 L252.751443,134.51348 L198.879359,127.99141 L163.438936,128.190932 L136.964186,123.062509 L90.957078,134.003144 L52.9080049,149.1548 L16.8932188,150.942479 L-4,167.707358 M613.246523,133.343417 L552.860318,127.418911 L499.825764,141.757439 L429.992581,119.428999 L362.003565,167.272219 L309.419296,163.488315 L253.50492,138.197121 L199.423703,130.480925 L165.030944,128.538842 L139.728935,123.312163 L95.1777484,133.492808 L54.4069533,150.480269 L17.5526361,152.7843 L-4,170.284102 M613.120444,133.580037 L555.205802,128.501745 L502.422406,143.935139 L431.375456,122.167166 L360.788797,172.847812 L309.142121,167.67026 L254.259397,141.881765 L199.968048,132.970441 L166.622951,128.887756 L142.493685,123.560813 L99.3974181,132.982473 L55.9059016,151.804736 L18.2130539,154.62612 L-4,172.859843 M612.994364,133.816656 L557.551286,129.584579 L505.02005,146.112839 L432.75733,124.905332 L359.574028,178.423404 L308.863945,171.852206 L255.012874,145.565406 L200.512392,135.458954 L168.214958,129.236669 L145.258434,123.809464 L103.618088,132.472137 L57.40485,153.130205 L18.8724711,156.468943 L-4,175.436587 M612.869285,134.053275 L559.89777,130.667413 L507.617693,148.291541 L434.140205,127.643499 L358.35926,184 L308.586769,176.034151 L255.767351,149.25005 L201.057737,137.94847 L169.806965,129.584579 L148.023183,124.058115 L107.838759,131.961801 L58.904799,154.454671 L19.5318883,158.310764 L-4,178.013331" id="Stroke-10" stroke="#FFFFFF"></path>
        <path d="M613,133.908983 L562.495411,131.387945 L510.461714,149.969776 L435.762596,130.029391 L357.377809,188.78958 L308.538426,179.498665 L256.745903,152.416168 L201.821112,140.012025 L171.614228,129.584502 L151.002295,124 L112.270235,131.091352 L60.6098081,155.240766 L20.3946733,159.582166 L-3.799855,179.868908 M612.874909,134.142873 L564.842111,132.462845 L513.059596,152.132514 L437.145598,132.747494 L356.161928,194.324318 L308.260224,183.649967 L257.499449,156.073813 L202.365506,142.483299 L173.206381,129.929863 L153.767298,124.246829 L116.491293,130.584756 L62.1088941,156.556523 L21.0541511,161.410491 L-3.799855,182.426771 M612.748818,134.377759 L567.18781,133.537744 L515.656477,154.294257 L438.5286,135.465597 L354.947048,199.860052 L307.983023,187.801269 L258.253996,159.730463 L202.909901,144.953577 L174.798535,130.27622 L156.532301,124.493658 L120.712351,130.07816 L63.6079802,157.871284 L21.7136288,163.239811 L-3.799855,184.984634 M612.222437,135.300381 L569.53351,135.300381 L518.254359,156.800366 L439.910601,138.354888 L353.732167,205.480384 L307.705823,191.995369 L259.007542,163.409008 L203.455296,147.4358 L176.390688,130.627553 L159.297305,124.743472 L124.933409,129.573554 L65.1070662,159.188036 L22.3741073,165.068136 L-4,187.885868 M612.622727,135.613893 L569.115207,137.195389 L517.374722,160.520713 L452.535748,146.764982 L440.746207,144.343472 L356.078868,209.546093 L306.265779,194.620911 L259.593967,166.144031 L206.429451,149.451236 L181.814618,135.812949 L176.630862,132.723607 L158.141467,126.125913 L153.70025,126.423501 L121.130654,132.252841 L63.0795974,160.906881 L38.5728429,164.49187 L21.7046223,166.956177 L-3.799855,188.492987 M612.622727,136.614147 L568.695903,139.777139 L516.495085,164.586422 L453.082144,152.52963 L441.581812,150.50424 L358.424567,213.697395 L304.825736,197.28925 L260.179391,168.90095 L209.403605,151.477621 L182.499114,138.061281 L176.871036,134.824638 L156.98563,127.511339 L152.225181,127.525273 L117.3289,134.934119 L61.0511278,162.62672 L37.3489562,166.313228 L21.0351373,168.845214 L-3.799855,189.444473 M612.622727,137.615396 L568.2776,142.358889 L515.615447,168.651135 L453.62854,158.294277 L442.417417,156.665008 L360.771267,217.848698 L303.384692,199.958584 L260.765816,171.657868 L212.378761,153.504006 L183.18461,140.309613 L177.11121,136.926664 L155.828792,128.89577 L150.750112,128.62804 L113.527145,137.615396 L59.023659,164.345564 L36.1250695,168.133591 L20.3656523,170.733255 L-3.799855,190.395958 M612.622727,138.61565 L567.858296,144.941634 L514.734809,172.715848 L454.173935,164.058924 L443.253023,162.825776 L363.116966,222 L301.944649,202.626923 L261.35124,174.413792 L215.352915,155.529396 L183.869106,142.557944 L177.350384,139.027695 L154.672954,130.281196 L149.275044,129.730808 L109.725391,140.295679 L56.9961901,166.065404 L34.9011829,169.954948 L19.6951665,172.621297 L-3.799855,191.347443" id="Stroke-11" stroke="#FFFFFF"></path>
        <path d="M612,139.82733 L566.847241,147.773428 L513.300155,177.177191 L454.205852,170.185345 L443.581438,169.344123 L365.009377,226.79529 L300.095848,205.835757 L261.554346,177.569294 L217.975648,157.85609 L184.224333,145.043708 L177.266062,141.347732 L153.209125,131.837221 L147.495902,131 L105.648272,143.204222 L54.7282881,168.136804 L33.4514591,172.147863 L18.8098887,174.895588 L-4,192.772308 M612,140.832596 L566.429225,150.369113 L512.42112,181.262269 L454.751873,175.978874 L444.416471,175.534757 L367.354468,230.967391 L298.656792,208.517465 L262.140369,180.340026 L220.947764,159.892628 L184.90936,147.303304 L177.506072,143.459289 L152.05308,133.228588 L146.020845,132.108293 L101.848124,145.898933 L52.7012091,169.86526 L32.2284115,173.978346 L18.1408626,176.793089 L-4,193.72856 M612,141.838861 L566.010208,152.963798 L511.542086,185.347348 L455.297895,181.772404 L445.251503,181.726392 L369.69856,235.139493 L297.217736,211.199173 L262.725392,183.110757 L223.91988,161.929165 L185.593387,149.562901 L177.746081,145.571847 L150.898035,134.620956 L144.546788,133.215585 L98.0489759,148.593645 L50.6751302,171.593717 L31.0053638,175.80883 L17.4718366,178.69059 L-4,194.684813 M612,142.844127 L565.591192,155.559484 L510.663052,189.432426 L455.843916,187.566934 L446.086536,187.918026 L372.043651,239.311594 L295.77868,213.881881 L263.311415,185.880488 L226.892996,163.965703 L186.277413,151.822497 L177.98609,147.683404 L149.74299,136.013324 L143.07273,134.323878 L94.2498279,151.287356 L48.6490513,173.322173 L29.7823162,177.639313 L16.8028105,180.589092 L-4,195.641065 M612,143.850393 L565.173176,158.154169 L509.784018,193.517505 L456.389937,193.360463 L446.921568,194.109661 L374.387742,243.483696 L294.339624,216.563589 L263.896438,188.65122 L229.865112,166.002241 L186.96244,154.082094 L178.2261,149.795962 L148.586945,137.404691 L141.598673,135.43217 L90.4506799,153.982067 L46.6229723,175.050629 L28.5592685,179.469796 L16.1337844,182.486592 L-4,196.597318 M612,144.855658 L564.754159,160.749854 L508.904983,197.602583 L456.935959,199.153993 L447.756601,200.301296 L376.732834,247.655797 L292.900568,219.245297 L264.48246,191.421951 L232.838227,168.037778 L187.646467,156.34169 L178.465109,151.90752 L147.4319,138.797058 L140.124615,136.540463 L86.6505318,156.676779 L44.5968934,176.779086 L27.3362209,181.300279 L15.4647584,184.385094 L-4,197.55357 M612,145.861924 L564.335143,163.344539 L508.024949,201.687662 L457.48198,204.947522 L448.591633,206.49193 L379.076925,251.827899 L291.461511,221.928005 L265.067483,194.191683 L235.810343,170.074316 L188.330493,158.602287 L178.705118,154.020077 L146.276855,140.189426 L138.650558,137.648755 L82.8513838,159.37149 L42.5698144,178.506542 L26.1131732,183.130763 L14.7957323,186.282595 L-4,198.508822 M612,146.867189 L563.917127,165.940224 L507.145915,205.77274 L458.028001,210.741052 L449.426666,212.683564 L381.421016,256 L290.022455,224.609713 L265.653506,196.962414 L238.782459,172.110853 L189.01452,160.861884 L178.945128,156.131635 L145.12081,141.580793 L137.1755,138.756048 L79.0522358,162.065201 L40.5437355,180.234998 L24.8901256,184.961246 L14.1267062,188.180096 L-4,199.465075" id="Stroke-12" stroke="#FFFFFF"></path>
        <path d="M612.559035,148.006436 L564.026523,168.660981 L506.759159,209.971071 L459.036189,216.644601 L450.718617,218.984436 L384.181044,260.267528 L288.93724,227.397843 L266.579262,199.848784 L242.08085,174.271586 L189.991956,163.249362 L179.470908,158.373706 L144.229299,143.107781 L135.959759,140 L75.4732394,164.887247 L38.7146146,182.085035 L23.8546599,186.911695 L13.6388163,190.197464 L-3.82988604,200.536735 M612.559035,149.011365 L563.607242,171.254798 L505.87957,214.054783 L459.582555,222.436193 L451.554177,225.174 L386.526615,264.438234 L287.497275,230.079654 L267.165655,202.618589 L245.054843,176.307442 L190.676414,165.508203 L179.711069,160.484557 L143.073525,144.498683 L134.484771,141.107922 L71.670692,167.581057 L36.6872565,183.812914 L22.6308401,188.741566 L12.9693678,192.09433 L-3.82988604,201.492668 M612.559035,150.017294 L563.188962,173.849615 L504.999981,218.138495 L460.128921,228.227785 L452.389737,231.362564 L388.873187,268.60894 L286.05731,232.760465 L267.751047,205.387394 L248.029836,178.343299 L191.360873,167.767044 L179.951229,162.596408 L141.91675,145.890585 L133.009783,142.215844 L67.8691453,170.274867 L34.6598984,185.540792 L21.4070202,190.571437 L12.2999194,193.992196 L-3.82988604,202.448601 M612.559035,151.022224 L562.769681,176.443433 L504.120391,222.222208 L460.675287,234.019377 L453.225297,237.552128 L391.218758,272.779646 L284.617346,235.441276 L268.336439,208.157199 L251.003828,180.378155 L192.046332,170.026885 L180.19139,164.707259 L140.760976,147.282487 L131.534795,143.323766 L64.0675987,172.967678 L32.6315396,187.26867 L20.1832004,192.401308 L11.6304709,195.889063 L-3.82988604,203.404533 M-3.82988604,204.360466 L18.9593806,194.23118 L60.266052,175.661488 L130.058806,144.431688 L192.730791,172.285726 L253.97782,182.414012 L283.177381,238.123088 L393.56533,276.950352 L461.221653,239.810969 L503.239801,226.30592 L562.3504,179.03825 L612.559035,152.028153 M-3.82988604,612.044746 L62.4024832,641.587665 L113.678833,626.816705 L224.066783,677.882108 L370.062586,682.946751 L445.554158,673.662405 L508.937618,678.726049 L585.140667,668.597762 L612.559035,682.946751 M-3.87291487,628.898559 L62.7527178,655.486686 L114.064091,642.192622 L225.186533,688.152384 L370.721027,692.710063 L446.021471,684.353652 L509.226812,688.912331 L585.245737,679.795973 L612.919276,692.710063 M-3.91494302,645.752371 L63.1029525,669.385707 L114.44935,657.569539 L226.306283,698.422661 L371.379468,702.473376 L446.488784,695.045899 L509.516006,699.097613 L585.349807,690.994184 L613.279517,702.473376 M-3.95697117,662.606184 L63.4531871,683.285727 L114.834608,672.945456 L227.427034,708.691938 L372.036908,712.236688 L446.956097,705.738146 L509.804199,709.282896 L585.454878,702.192395 L613.639759,712.236688 M-4,679.458997 L63.8034217,697.184748 L115.219866,688.322372 L228.546784,718.962214 L372.695349,722 L447.42341,716.429392 L510.093393,719.468178 L585.559948,713.390607 L614,722" id="Stroke-13" stroke="#FFFFFF"></path>
    </g>
</svg>