<?xml version="1.0" encoding="UTF-8"?>
<svg width="612px" height="400px" viewBox="0 0 612 400" version="1.1" xmlns="http://www.w3.org/2000/svg" xmlns:xlink="http://www.w3.org/1999/xlink">
    <!-- Generator: Sketch 52.5 (67469) - http://www.bohemiancoding.com/sketch -->
    <title>pattern-1</title>
    <desc>Created with Sketch.</desc>
    <g id="pattern-1" stroke="none" stroke-width="1" fill="none" fill-rule="evenodd">
        <rect fill="#000000" x="0" y="0" width="612" height="400"></rect>
        <g opacity="0.200000003" transform="translate(-4.000000, 14.000000)" stroke="#FFFFFF">
            <path d="M3.98965034,322.644388 C4.17771181,322.5694 47.6269137,310.050341 47.6269137,310.050341 L92.729656,322.854356 L162.938605,294.392769 L192.044118,280 L262.190046,284.337328 L309.86863,298.039203 L424.154986,332.667834 L488.186915,307.943668 L526.10831,310.705239 L554.062448,290.415385 L620,301.622648 M3.79058527,329.220369 C4.16670821,329.071392 46.835655,316.851287 46.835655,316.851287 L90.7219997,329.879267 L159.212387,301.373686 L189.636331,287.503837 L261.938964,296.177492 L310.842949,309.0235 L421.055973,340.301651 L485.758122,317.122245 L524.579811,317.47619 L552.722009,301.371687 L619.810938,311.126174 M3.59152021,335.796349 C4.15670494,335.573384 46.0453967,323.651232 46.0453967,323.651232 L88.7143435,336.904178 L155.487169,308.355604 L187.228544,295.007673 L261.687882,308.018656 L311.816267,320.008797 L417.95696,347.934468 L483.329328,326.300822 L523.051311,324.24714 L551.381571,312.328988 L619.622877,320.628701 M3.39245514,342.37333 C4.14670167,342.075376 45.2551384,330.452178 45.2551384,330.452178 L86.7066873,343.928089 L151.760951,315.336521 L184.819757,302.51151 L261.4368,319.85982 L312.790585,330.993094 L414.857947,355.568284 L480.900534,335.479399 L521.522812,331.01709 L550.042134,323.285289 L619.433815,330.132228 M3.19339007,348.94931 C4.13569808,348.577368 44.4648801,337.253124 44.4648801,337.253124 L84.6990311,350.953 L148.034733,322.318439 L182.41197,310.016346 L261.185718,331.699984 L313.763903,341.977391 L411.758934,363.201101 L478.47174,344.657976 L519.994312,337.788041 L548.701695,334.24159 L619.245753,339.635754 M2.99432501,355.52629 C4.12569481,355.07936 43.6746218,344.054069 43.6746218,344.054069 L82.6913749,357.97791 L144.309515,329.299357 L180.004183,317.520183 L260.934636,343.541149 L314.737222,352.961688 L408.659921,370.833917 L476.042946,353.836552 L518.465812,344.558991 L547.361257,345.197892 L619.057692,349.139281 M2.79525994,362.102271 C4.11469121,361.581352 42.8833632,350.854015 42.8833632,350.854015 L80.684719,365.001821 L140.583297,336.281274 L177.596396,325.02402 L260.682553,355.381313 L315.71154,363.945985 L405.560908,378.467734 L473.614152,363.015129 L516.937313,351.328941 L546.021819,356.154193 L618.86863,358.641807 M2.5971952,368.678251 C4.10468794,368.083344 42.0931049,357.65496 42.0931049,357.65496 L78.6770627,372.026732 L136.85808,343.262192 L175.188609,332.527856 L260.431471,367.222477 L316.684858,374.930282 L402.461895,386.10055 L471.184358,372.193706 L515.407813,358.099891 L544.681381,367.110494 L618.680569,368.145334 M2.39813013,375.255232 C4.09368434,374.584336 41.3028466,364.455906 41.3028466,364.455906 L76.6694065,379.051643 L133.131862,350.24311 L172.779821,340.031693 L260.180389,379.063641 L317.658176,385.914579 L399.362882,393.734367 L468.755564,381.372283 L513.879313,364.870842 L543.340943,378.066796 L618.491507,377.648861 M2.19906507,381.831212 C4.08368107,381.086328 40.5125883,371.256852 40.5125883,371.256852 L74.6617503,386.075554 L129.405644,357.225027 L170.372034,347.535529 L259.929307,390.903806 L318.632495,396.898876 L396.263869,401.367183 L466.32677,390.54986 L512.350814,371.640792 L542.001505,389.024097 L618.303445,387.152387 M2,388.408193 C4.07267748,387.58832 39.72233,378.056797 39.72233,378.056797 L72.6540941,393.100465 L125.680426,364.205945 L167.964247,355.039366 L259.678225,402.74497 L319.605813,407.883173 L393.164856,409 L463.897976,399.728437 L510.822314,378.411742 L540.661067,399.980398 L618.115384,396.654914" id="Stroke-1"></path>
            <path d="M0.994132121,395.505628 C3.25543265,394.609985 38.1170658,385.359015 38.1170658,385.359015 L69.82628,400.657078 L121.124098,371.661889 L164.717891,363 L258.569364,415.146658 L319.71049,419.436527 L389.183723,417.198421 L460.573211,409.456219 L508.388565,385.684613 L538.409555,411.48995 L617,406.702167 M0.79510567,402.094715 C3.24443119,401.124936 37.3269608,392.173516 37.3269608,392.173516 L67.8190132,407.694988 L117.398602,378.656721 L162.309571,370.518792 L258.318331,427.01042 L320.684619,430.442717 L386.085311,424.846451 L458.144888,418.65309 L506.860362,392.468056 L537.070377,422.468088 L616.811975,416.224635 M0.59607922,408.684804 C3.23442986,407.639887 36.5368558,398.988016 36.5368558,398.988016 L65.8117465,414.7339 L113.674107,385.652554 L159.902251,378.037585 L258.067297,438.875185 L321.657749,441.448906 L382.986899,432.495482 L455.715565,427.84996 L505.332159,399.252501 L535.730199,433.446226 L616.62395,425.747103 M0.398052902,415.273891 C3.2234284,414.154838 35.7467508,405.801515 35.7467508,405.801515 L63.8044797,421.772813 L109.948612,392.647385 L157.494931,385.557379 L257.816264,450.738948 L322.630878,452.455096 L379.888488,440.143512 L453.287242,437.046831 L503.803956,406.036947 L534.390021,444.424364 L616.434925,435.268569 M0.199026451,421.86398 C3.21342707,420.669789 34.9566458,412.616015 34.9566458,412.616015 L61.7982131,428.810723 L106.223117,399.643218 L155.087611,393.076172 L257.565231,462.603713 L323.605007,463.462288 L376.790076,447.791541 L450.85892,446.243702 L502.275753,412.82039 L533.050843,455.403505 L616.2469,444.791037 M0,428.453067 C3.20242561,427.18474 34.1655406,419.430516 34.1655406,419.430516 L59.7909463,435.849635 L102.498622,406.638049 L152.680291,400.806352 L257.313197,474.892255 L324.578137,474.892255 L373.691664,453.853661 L448.430597,453.853661 L500.74755,418.81138 L531.710665,465.984915 L616.057875,454.115141 M0,438.460424 C3.01440062,437.266234 33.7894907,430.698185 33.7894907,430.698185 L59.2638762,446.758646 L76.0251038,436.316491 L101.80753,419.252189 L133.701769,415.146658 L151.446127,413.499636 L255.575966,485.647985 L324.710154,485.851358 L355.951306,474.911289 L375.401891,467.827295 L407.901211,467.491679 L452.199098,467.789225 L503.365898,433.804884 L534.103983,477.617253 L563.091836,473.479663 L616.057875,466.977736 M0,448.46678 C2.82637563,447.347727 33.4134407,441.966856 33.4134407,441.966856 L58.7358061,457.667658 L75.4110222,448.307488 L101.116438,431.866328 L132.685634,427.536385 L150.212963,426.40531 L253.838735,496.828494 L324.842172,497.234239 L357.059454,487.080613 L377.112119,480.215019 L410.478553,479.541784 L455.967599,480.138879 L505.984246,448.005934 L536.497301,488.853866 L564.689048,484.839502 L616.057875,479.641967 M0,458.474137 C2.63735051,457.42922 33.0373907,453.234526 33.0373907,453.234526 L58.208736,468.575667 L74.7959405,460.298484 L100.425347,444.480467 L131.669499,439.925111 L148.978799,439.310984 L252.100504,508.009004 L324.974189,508.617119 L358.168601,499.248934 L378.822346,492.601741 L413.055896,491.59289 L459.735099,492.488533 L508.603594,462.205983 L538.891619,500.090478 L566.28726,496.198338 L616.057875,492.3072 M0,468.480493 C2.44932552,467.510714 32.6613407,464.503197 32.6613407,464.503197 L57.681666,479.484679 L74.1818589,472.288478 L99.7342548,457.094607 L130.653364,452.313837 L147.745636,452.215657 L250.363274,519.189513 L325.107207,520 L359.277748,511.417256 L380.532573,504.989465 L415.633238,503.643997 L463.5036,504.838187 L511.221942,476.407033 L541.284937,511.326089 L567.884472,507.558177 L616.057875,504.971432" id="Stroke-3"></path>
            <path d="M1,558.266502 C1.75278231,557.968447 30.262538,565.626881 30.262538,565.626881 L53.915698,577.355079 L69.6251552,579.893554 L94.4769687,570.325762 L122.458877,563.529488 L137.584503,568.070339 L235.625152,619.434962 L327.157683,622.064455 L370.101265,620.554172 L396.757556,616.102338 L439.647154,611.73652 L498.209219,615.610246 L535.563417,603.859044 L563.590312,612.086586 L583.017694,609.432088 L616.797926,618.573801 M1,568.257374 C1.56483666,568.033332 29.8866467,576.875989 29.8866467,576.875989 L53.3878507,588.246119 L69.010333,591.864797 L93.7861685,582.919121 L121.443171,575.897806 L136.35086,580.953753 L233.888654,630.597053 L327.290645,633.428584 L371.208944,632.702448 L398.467062,628.469655 L442.223409,623.767774 L501.97513,627.939556 L538.18066,618.0367 L565.982621,623.304687 L584.615232,620.773213 L616.797926,631.21817 M1,578.247246 C1.37689101,578.098218 29.5107554,588.126097 29.5107554,588.126097 L52.861003,599.13716 L68.3965105,603.83604 L93.0963679,595.51248 L120.427464,588.266123 L135.118216,593.838167 L232.152156,641.759145 L327.422606,644.792713 L372.317624,644.851724 L400.176568,640.835972 L444.799664,635.799028 L505.742041,640.268865 L540.797903,632.213356 L568.374929,634.521789 L586.211771,632.114338 L616.797926,643.861539 M1,588.237743 C1.18794565,588.163104 29.1338644,599.375204 29.1338644,599.375204 L52.3341554,610.0272 L67.782688,615.807283 L92.4055677,608.10584 L119.411758,600.63444 L133.884573,606.722581 L230.414659,652.921236 L327.554568,656.156842 L373.426303,657 L401.886073,653.203289 L447.375919,647.830282 L509.508951,652.598175 L543.415147,646.390012 L570.767237,645.73989 L587.808309,643.454462 L616.797926,656.504907 M4.37902287,316.553218 L48.5812406,303.730816 L94.8728542,316.316174 L166.756067,287.760824 L194.526037,272.715005 L262.474388,272.715005 L308.898963,287.404757 L427.184758,325.460887 L490.508446,299.21397 L527.505747,304.400941 L555.253723,279.924356 L620,292.592729 M619.812054,283.508027 L555.923529,273.178092 L526.334086,299.00393 L489.04287,294.931167 L425.469254,321.84921 L307.654323,283.806083 L262.243455,266.820901 L194.693988,266.224789 L164.873612,278.629113 L93.1173619,307.22247 L47.1216627,296.470456 L4.18108011,309.134828 M619.623109,274.419324 L556.593336,266.423826 L525.162425,293.589916 L487.578293,290.616359 L423.75275,318.173522 L306.408683,280.081385 L262.013521,260.675749 L194.86094,259.483526 L162.992156,269.370378 L91.3618695,298.129766 L45.6620848,289.210095 L3.98213764,301.716438 M619.435163,265.331622 L557.263142,259.669561 L523.989764,288.176902 L486.113717,286.30155 L422.037246,314.498833 L305.164043,276.356687 L261.783588,254.529598 L195.028891,252.741263 L161.1097,260.111644 L89.6073769,289.036063 L44.2025069,281.949735 L3.78319517,294.298049 M619.246218,256.242919 L557.932948,252.915296 L522.818103,282.762887 L484.64914,281.987742 L420.320742,310.823144 L303.918403,272.631989 L261.553654,248.383447 L195.195843,246 L159.227244,250.853909 L87.8518845,279.943359 L42.7429289,274.689375 L3.5842527,286.879659" id="Stroke-5"></path>
            <path d="M619,247.057973 L558.510241,246.065651 L521.534609,277.227351 L483.050583,277.55013 L418.43675,307 L302.441531,268.792117 L261.067752,242.145331 L195.072559,239.168366 L157.03365,241.50377 L85.7450776,270.73379 L40.9073966,267.316126 L2.98851804,279.33591 M618.811951,237.97718 L559.180416,239.317264 L520.362303,271.819048 L481.585201,273.239077 L416.720303,303.32751 L301.195206,265.070661 L260.837692,236.005528 L195.239603,232.431971 L155.150159,232.253093 L83.9896203,261.648 L39.4470161,260.062084 L2.78946619,271.923976 M618.622902,228.897387 L559.850591,232.568877 L519.189998,266.409745 L480.119819,268.928024 L415.002855,299.65602 L299.949882,261.349204 L260.607632,229.864725 L195.406646,225.696574 L153.267668,223.003415 L82.2331627,252.56321 L37.9866357,252.808043 L2.59041433,264.512042 M618.434853,219.816594 L560.520765,225.82049 L518.016692,261.001442 L478.653437,264.61797 L413.286408,295.98453 L298.703557,257.627748 L260.377572,223.723923 L195.57469,218.960179 L151.384178,213.752739 L80.4767051,243.47742 L36.5262552,245.554001 L2.39236274,257.100109 M618.245804,210.735801 L561.19094,219.072103 L516.844387,255.593139 L477.188055,260.306917 L411.568961,292.31204 L297.458233,253.905293 L260.146512,217.58312 L195.741734,212.224783 L149.500687,204.502062 L78.7202475,234.39263 L35.0648745,238.29996 L2.19331088,249.688175 M618.057755,201.655008 L561.861114,212.323715 L515.672081,250.183836 L475.722674,255.995864 L409.852513,288.640549 L296.211908,250.183836 L259.916452,211.443317 L195.909777,205.488388 L147.618197,195.251385 L76.9647902,225.306841 L33.6044941,231.045918 L1.99425902,242.276242 M617.869706,192.574215 L562.530289,205.575328 L514.499776,244.775533 L474.257292,251.68481 L408.135066,284.96806 L294.966584,246.46238 L259.686392,205.302515 L196.076821,198.751992 L145.734706,186.001708 L75.2083326,216.222051 L32.1441136,223.791876 L1.79520717,234.864308 M617.680656,183.494422 L563.200463,198.826941 L513.32647,239.36723 L472.79091,247.374756 L406.418619,281.296569 L293.720259,242.740924 L259.456332,199.161712 L196.244865,192.016596 L143.851215,176.751031 L73.451875,207.136261 L30.6837331,216.537835 L1.59615531,227.451375 M617.492607,174.413629 L563.870638,192.078554 L512.154165,233.957927 L471.325528,243.063703 L404.701171,277.62408 L292.474934,239.019468 L259.225272,193.02091 L196.411908,185.280201 L141.968725,167.500354 L71.6964177,198.051471 L29.2233527,209.284793 L1.39710345,220.039441 M617.304558,165.332836 L564.540812,185.330167 L510.981859,228.549624 L469.860146,238.75265 L402.984724,273.952589 L291.22861,235.298011 L258.995212,186.881107 L196.579952,178.544805 L140.085234,158.250677 L69.9399601,188.966681 L27.7629722,202.030751 L1.1980516,212.627508 M617.115509,156.252043 L565.210987,178.58178 L509.809554,223.141321 L468.394765,234.441597 L401.267277,270.2801 L289.983285,231.576555 L258.765152,180.740304 L196.746996,171.808409 L138.202744,149 L68.1835025,179.880892 L26.3025918,194.77671 L1,205.215574" id="Stroke-6"></path>
            <path d="M616.164005,146.56945 L565.131087,171.230187 L507.902179,217.126196 L466.204247,229.525013 L398.844356,266 L288.059535,227.248699 L257.865583,173.996138 L196.261683,164.469194 L135.681781,139.147947 L65.8088937,170.192955 L24.2339608,186.918568 L0.198999679,197.198954 M619,102.168334 L540.802126,94.5239954 L474.658233,74.2540074 L389.455371,69.1797654 L348.721437,56.5201411 L307.982502,54.8293933 L271.866561,21.9317573 L200.697676,0 L159.419742,31.2088867 L105.33083,91.2783991 L52.6659149,104.111895 L9.60798448,104.111895 L0,119.95716 M618.948,103.005714 L542.689123,95.3623745 L478.094228,75.8887966 L425.066313,73.1238444 L392.834365,70.4418307 L365.565409,61.6943091 L352.119431,58.1249526 L322.238479,57.7312442 L311.435497,57.4184758 L274.461557,26.9430459 L205.776668,5.78571509 L203.449671,5.12120723 L161.680739,34.731278 L129.94779,68.1445321 L105.958829,92.0897982 L53.1759141,105.061192 L48.8329211,105.139134 L35.8649421,105.059193 L10.0079838,104.899311 L9.26098504,105.985507 L0,120.470779 M618.895,103.843094 L544.57612,96.2007536 L481.529222,77.5255844 L428.347308,75.1433487 L396.21436,71.703896 L368.961404,62.6875735 L355.518426,59.7287648 L325.718474,60.1854266 L314.889491,60.0065591 L277.057552,31.9543346 L208.528663,10.8539615 L206.202667,10.2434137 L163.940735,38.2546685 L131.389788,70.7915717 L106.586828,92.9761417 L53.6869133,106.162376 L49.3389203,106.317261 L36.3359413,106.15738 L10.4079832,105.838616 L9.61598447,106.847868 L0,121.060343 M618.843,104.680473 L546.463117,97.0391327 L484.965217,79.161373 L431.627303,77.1628531 L399.594354,72.9669606 L372.357398,63.6818371 L358.91642,61.3335763 L329.198468,62.6406083 L318.343486,62.5956416 L279.653548,36.9656232 L211.280659,15.922208 L208.955662,15.3646209 L166.201731,41.7770598 L132.831785,73.4386113 L107.214827,93.8634846 L54.1969124,107.262561 L49.8449195,107.495389 L36.8059405,107.255566 L10.8089825,106.77792 L9.97198389,107.70923 L0,121.648907 M618.791,105.517853 L548.350114,97.8775118 L488.400211,80.7971615 L434.907297,79.1823574 L402.973349,74.2290259 L375.753393,64.6761008 L362.315415,62.9383877 L332.677463,65.0947907 L321.79748,65.1837248 L282.249544,41.9769118 L214.032654,20.9904544 L211.707658,20.4858282 L168.462728,45.3004504 L134.272783,76.0856509 L107.842826,94.7508274 L54.7069116,108.363746 L50.3519187,108.674515 L37.2759398,108.353753 L11.2089819,107.716225 L10.3269833,108.571592 L0,122.23847 M618.738,106.354234 L550.238111,98.7158909 L491.836205,82.43295 L438.187292,81.2018618 L406.353344,75.4920904 L379.149387,65.6703644 L365.713409,64.5421999 L336.157457,67.5489731 L325.251475,67.7728074 L284.84454,46.9882005 L216.78465,26.0587009 L214.460654,25.6080347 L170.723724,48.8228417 L135.714781,78.7326905 L108.470825,95.637171 L55.2179108,109.463931 L50.8579178,109.852643 L37.746939,109.452939 L11.6089812,108.65553 L10.6819827,109.432954 L0,122.828033" id="Stroke-7"></path>
            <path d="M619,107.285376 L552.405326,99.6657113 L495.523564,84.2160259 L441.691343,83.3716119 L409.941289,76.918375 L382.739534,66.8522026 L369.299738,66.3357842 L339.808826,70.1830021 L328.871295,70.539909 L287.586419,52.2210107 L219.648066,31.3967848 L217.32289,31 L173.071514,52.5669512 L137.226389,81.5332419 L109.154194,96.6429684 L55.7561934,110.651069 L51.3909861,111.115646 L38.2363344,110.637111 L12.016076,109.683033 L11.0435842,110.381893 L0,123.472802 M618.947974,108.120817 L554.293281,100.50215 L498.960301,85.8480279 L444.974003,85.3864415 L413.322999,78.1785158 L386.137252,67.8441647 L372.699457,67.9358839 L343.290586,72.6315035 L332.327043,73.1229983 L290.183733,57.2206991 L222.400458,36.4542962 L220.077283,36.1103496 L175.333658,56.0811889 L138.668118,84.1741542 L109.782512,97.5272603 L56.2674519,111.748707 L51.8972421,112.292043 L38.7065721,111.732756 L12.4162783,110.619166 L11.3987638,111.241261 L0,124.061001 M618.894947,108.956259 L556.181235,101.338588 L502.39804,87.4800299 L448.255662,87.4012711 L416.703708,79.4376597 L389.53497,68.8361269 L376.099176,69.5369805 L346.772347,75.0810019 L335.78279,75.7050907 L292.781046,62.2203876 L225.15385,41.5108106 L222.830675,41.2197022 L177.595802,59.5964235 L140.110848,86.8150664 L110.41083,98.4125491 L56.7777099,112.846346 L52.4044986,113.467443 L39.1768099,112.828401 L12.8164807,111.556296 L11.7539434,112.101626 L0,124.649199 M618.842921,109.7917 L558.06919,102.175026 L505.834778,89.1120319 L451.537322,89.4161007 L420.085418,80.6978005 L392.933689,69.828089 L379.499896,71.1380771 L350.253107,77.5295034 L339.238537,78.2881799 L295.378359,67.220076 L227.907242,46.5673251 L225.585068,46.3300517 L179.857946,63.1106611 L141.553577,89.4559786 L111.039147,99.2968409 L57.2889684,113.944981 L52.9107545,114.642844 L39.6480482,113.924045 L13.2166831,112.493426 L12.109123,112.960994 L0,125.236401 M618.790894,110.627142 L559.957145,103.011465 L509.272516,90.7440339 L454.818981,91.4309303 L423.467128,81.9569444 L396.331407,70.8200511 L382.899615,72.7381768 L353.734868,79.9780049 L342.694285,80.8702723 L297.974672,72.2197645 L230.660635,51.6238395 L228.339461,51.4394043 L182.119089,66.6248987 L142.995306,92.0968908 L111.667465,100.18213 L57.7992264,115.042619 L53.418011,115.819241 L40.118286,115.020687 L13.6178859,113.430556 L12.4653031,113.82136 L0,125.8246 M618.737867,111.462583 L561.845099,103.847903 L512.709254,92.3760359 L458.100641,93.4457599 L426.847837,83.2170852 L399.729125,71.8120132 L386.300334,74.3392735 L357.215628,82.4265063 L346.149032,83.4533616 L300.571986,77.2194529 L233.414027,56.6803539 L231.092853,56.5487569 L184.381233,70.1401333 L144.438036,94.737803 L112.295783,101.067419 L58.3104849,116.141255 L53.924267,116.994641 L40.5885238,116.116331 L14.0180883,114.36669 L12.8204827,114.681725 L0,126.412798 M618.685841,112.298025 L563.733054,104.684342 L516.146992,94.0080379 L461.3833,95.4605894 L430.229547,84.476229 L403.126843,72.8039753 L389.700054,75.9403701 L360.697388,84.8760047 L349.604779,86.0354539 L303.169299,82.2191414 L236.166419,61.7368683 L233.847246,61.6591065 L186.643377,73.654371 L145.880765,97.3787152 L112.924101,101.95171 L58.820743,117.238893 L54.4315235,118.170042 L41.0587615,117.211976 L14.4182907,115.30382 L13.1756623,115.541093 L0,127" id="Stroke-8"></path>
            <path d="M619,113.459232 L566.041508,105.831075 L520.051396,95.9302548 L465.188892,97.7693639 L434.167005,86.0054592 L407.10806,74.0417599 L393.698026,77.793902 L364.805033,87.597822 L353.698802,88.8934898 L306.453342,87.4919308 L239.675028,67.0249743 L237.358231,67 L189.71198,77.4222841 L148.172556,100.318743 L114.436079,103.14184 L60.2712135,118.673871 L55.8814936,119.683832 L42.4874507,118.643901 L15.8043104,116.573031 L14.516979,116.733865 L1,127.94334 M618.947028,114.296371 L567.928527,106.669213 L523.485612,97.5655734 L468.467189,99.7882881 L437.545251,87.2681609 L410.502297,75.0357379 L397.094262,79.3982525 L368.283227,90.0512994 L357.151009,91.4818285 L309.046995,92.5017799 L242.425599,72.0927638 L240.109802,72.120735 L191.970806,80.9436636 L149.612808,102.965022 L115.063753,104.027929 L60.7809487,119.77374 L56.3872309,120.86262 L42.9572067,119.741773 L16.2041027,117.511066 L14.8727942,117.59498 L1,128.532734 M618.895055,115.133511 L569.814548,107.507352 L526.918829,99.200892 L471.745487,101.807212 L440.922497,88.5298637 L413.896534,76.0297159 L400.491497,81.002603 L371.76142,92.5047768 L360.603216,94.0691683 L311.641647,97.5116289 L245.176171,77.1595543 L242.860373,77.2404711 L194.230633,84.466042 L151.054059,105.611301 L115.691427,104.915017 L61.2916834,120.874608 L56.8939677,122.040409 L43.4269627,120.840643 L16.6038951,118.450101 L15.2276099,118.457093 L1,129.121129 M618.843082,115.97065 L571.700568,108.34549 L530.353045,100.836211 L475.023784,103.826137 L444.300742,89.7925654 L417.290771,77.0236939 L403.887733,82.6059544 L375.238614,94.9582542 L364.054423,96.6575071 L314.2363,102.521478 L247.926742,82.2263447 L245.611944,82.3612061 L196.490459,87.9874214 L152.495311,108.258579 L116.319101,105.801106 L61.8014187,121.974477 L57.399705,123.218198 L43.8977182,121.938514 L17.0046869,119.389135 L15.5824256,119.318208 L1,129.710523 M618.790109,116.80679 L533.786262,102.471529 L478.30308,105.845061 L420.685008,78.017672 L378.716807,97.4127306 L316.830952,107.531327 L250.677313,87.2931352 L198.749286,91.5097998 L153.935563,110.904858 L116.946775,106.688194 L57.9064418,124.396986 L44.3674742,123.036385 L15.9372413,120.180322 L1,130.299917 M618.665174,117.042548 L536.130044,103.55042 L480.896733,108.01483 L422.065291,80.7458669 L377.503438,102.968019 L316.553096,111.698043 L251.429922,90.9633616 L199.294003,93.9892505 L155.525737,111.251502 L119.708341,106.935939 L62.122252,123.888509 L45.8646965,124.357027 L16.5968987,122.015435 L1,132.866278 M618.539239,117.278305 L538.472827,104.629311 L483.491386,110.185598 L423.446574,83.4740619 L376.289068,108.523307 L316.27624,115.864759 L252.183531,94.634587 L199.83772,96.4697002 L157.115911,111.599145 L122.469906,107.183684 L66.3380623,123.380032 L47.3619188,125.67667 L17.2555566,123.850548 L1,135.433639 M618.414304,117.514063 L540.81661,105.708201 L486.086038,112.355367 L424.827856,86.2022568 L375.075699,114.078595 L315.999384,120.031475 L252.93614,98.3048134 L200.381438,98.9501498 L158.706085,111.945788 L125.231472,107.432429 L70.552873,122.871555 L48.8591411,126.996314 L17.9152139,125.68666 L1,138" id="Stroke-9"></path>
            <path d="M618,117.924704 L542.784412,106.921907 L488.241904,114.688233 L425.698333,89 L373.292177,119.816656 L315.084349,124.396643 L252.981058,102.093269 L200.155636,101.545836 L159.479901,112.448371 L127.139439,107.818253 L73.8537262,122.554822 L49.4132631,128.530462 L17.5941316,127.732374 L0,140.825642 M617.87392,118.161323 L545.129896,108.004741 L490.839547,116.866936 L427.081208,91.7381666 L372.077408,125.392249 L314.807174,128.578588 L253.734534,105.77691 L200.700981,104.034349 L161.071908,112.797284 L129.904189,108.066904 L78.0743966,122.044487 L50.9122114,129.854929 L18.2535488,129.574194 L0,143.402386 M617.748841,118.397943 L547.476381,109.087575 L493.43619,119.044635 L428.463083,94.4763331 L370.86264,130.967842 L314.529999,132.760534 L254.489012,109.461554 L201.245325,106.523865 L162.663915,113.145195 L132.668938,108.316557 L82.2950669,121.534151 L52.4111598,131.180398 L18.9139666,131.416015 L0,145.978128 M617.622761,118.633559 L549.821865,110.170409 L496.033834,121.223338 L429.845958,97.2144997 L369.647871,136.544437 L314.251823,136.942479 L255.243489,113.145195 L201.78967,109.013381 L164.254922,113.494108 L135.433687,108.565208 L86.5157373,121.023815 L53.9101082,132.504865 L19.5733838,133.258838 L0,148.554872 M617.497682,118.870179 L552.168349,111.253243 L498.631477,123.401037 L431.227832,99.9526662 L368.433102,142.12003 L313.974647,141.124424 L255.996966,116.829839 L202.334014,111.501894 L165.846929,113.842019 L138.199437,108.813858 L90.7364077,120.51348 L55.4090565,133.830334 L20.232801,135.100659 L0,151.131616 M617.371602,119.106798 L554.513833,112.336077 L501.22812,125.578737 L432.610707,102.690833 L367.218334,147.695623 L313.697472,145.30637 L256.751443,120.51348 L202.879359,113.99141 L167.438936,114.190932 L140.964186,109.062509 L94.957078,120.003144 L56.9080049,135.1548 L20.8932188,136.942479 L0,153.707358 M617.246523,119.343417 L556.860318,113.418911 L503.825764,127.757439 L433.992581,105.428999 L366.003565,153.272219 L313.419296,149.488315 L257.50492,124.197121 L203.423703,116.480925 L169.030944,114.538842 L143.728935,109.312163 L99.1777484,119.492808 L58.4069533,136.480269 L21.5526361,138.7843 L0,156.284102 M617.120444,119.580037 L559.205802,114.501745 L506.422406,129.935139 L435.375456,108.167166 L364.788797,158.847812 L313.142121,153.67026 L258.259397,127.881765 L203.968048,118.970441 L170.622951,114.887756 L146.493685,109.560813 L103.397418,118.982473 L59.9059016,137.804736 L22.2130539,140.62612 L0,158.859843 M616.994364,119.816656 L561.551286,115.584579 L509.02005,132.112839 L436.75733,110.905332 L363.574028,164.423404 L312.863945,157.852206 L259.012874,131.565406 L204.512392,121.458954 L172.214958,115.236669 L149.258434,109.809464 L107.618088,118.472137 L61.40485,139.130205 L22.8724711,142.468943 L0,161.436587 M616.869285,120.053275 L563.89777,116.667413 L511.617693,134.291541 L438.140205,113.643499 L362.35926,170 L312.586769,162.034151 L259.767351,135.25005 L205.057737,123.94847 L173.806965,115.584579 L152.023183,110.058115 L111.838759,117.961801 L62.904799,140.454671 L23.5318883,144.310764 L0,164.013331" id="Stroke-10"></path>
            <path d="M617,119.908983 L566.495411,117.387945 L514.461714,135.969776 L439.762596,116.029391 L361.377809,174.78958 L312.538426,165.498665 L260.745903,138.416168 L205.821112,126.012025 L175.614228,115.584502 L155.002295,110 L116.270235,117.091352 L64.6098081,141.240766 L24.3946733,145.582166 L0.200145,165.868908 M616.874909,120.142873 L568.842111,118.462845 L517.059596,138.132514 L441.145598,118.747494 L360.161928,180.324318 L312.260224,169.649967 L261.499449,142.073813 L206.365506,128.483299 L177.206381,115.929863 L157.767298,110.246829 L120.491293,116.584756 L66.1088941,142.556523 L25.0541511,147.410491 L0.200145,168.426771 M616.748818,120.377759 L571.18781,119.537744 L519.656477,140.294257 L442.5286,121.465597 L358.947048,185.860052 L311.983023,173.801269 L262.253996,145.730463 L206.909901,130.953577 L178.798535,116.27622 L160.532301,110.493658 L124.712351,116.07816 L67.6079802,143.871284 L25.7136288,149.239811 L0.200145,170.984634 M616.222437,121.300381 L573.53351,121.300381 L522.254359,142.800366 L443.910601,124.354888 L357.732167,191.480384 L311.705823,177.995369 L263.007542,149.409008 L207.455296,133.4358 L180.390688,116.627553 L163.297305,110.743472 L128.933409,115.573554 L69.1070662,145.188036 L26.3741073,151.068136 L0,173.885868 M616.622727,121.613893 L573.115207,123.195389 L521.374722,146.520713 L456.535748,132.764982 L444.746207,130.343472 L360.078868,195.546093 L310.265779,180.620911 L263.593967,152.144031 L210.429451,135.451236 L185.814618,121.812949 L180.630862,118.723607 L162.141467,112.125913 L157.70025,112.423501 L125.130654,118.252841 L67.0795974,146.906881 L42.5728429,150.49187 L25.7046223,152.956177 L0.200145,174.492987 M616.622727,122.614147 L572.695903,125.777139 L520.495085,150.586422 L457.082144,138.52963 L445.581812,136.50424 L362.424567,199.697395 L308.825736,183.28925 L264.179391,154.90095 L213.403605,137.477621 L186.499114,124.061281 L180.871036,120.824638 L160.98563,113.511339 L156.225181,113.525273 L121.3289,120.934119 L65.0511278,148.62672 L41.3489562,152.313228 L25.0351373,154.845214 L0.200145,175.444473 M616.622727,123.615396 L572.2776,128.358889 L519.615447,154.651135 L457.62854,144.294277 L446.417417,142.665008 L364.771267,203.848698 L307.384692,185.958584 L264.765816,157.657868 L216.378761,139.504006 L187.18461,126.309613 L181.11121,122.926664 L159.828792,114.89577 L154.750112,114.62804 L117.527145,123.615396 L63.023659,150.345564 L40.1250695,154.133591 L24.3656523,156.733255 L0.200145,176.395958 M616.622727,124.61565 L571.858296,130.941634 L518.734809,158.715848 L458.173935,150.058924 L447.253023,148.825776 L367.116966,208 L305.944649,188.626923 L265.35124,160.413792 L219.352915,141.529396 L187.869106,128.557944 L181.350384,125.027695 L158.672954,116.281196 L153.275044,115.730808 L113.725391,126.295679 L60.9961901,152.065404 L38.9011829,155.954948 L23.6951665,158.621297 L0.200145,177.347443" id="Stroke-11"></path>
            <path d="M616,125.82733 L570.847241,133.773428 L517.300155,163.177191 L458.205852,156.185345 L447.581438,155.344123 L369.009377,212.79529 L304.095848,191.835757 L265.554346,163.569294 L221.975648,143.85609 L188.224333,131.043708 L181.266062,127.347732 L157.209125,117.837221 L151.495902,117 L109.648272,129.204222 L58.7282881,154.136804 L37.4514591,158.147863 L22.8098887,160.895588 L0,178.772308 M616,126.832596 L570.429225,136.369113 L516.42112,167.262269 L458.751873,161.978874 L448.416471,161.534757 L371.354468,216.967391 L302.656792,194.517465 L266.140369,166.340026 L224.947764,145.892628 L188.90936,133.303304 L181.506072,129.459289 L156.05308,119.228588 L150.020845,118.108293 L105.848124,131.898933 L56.7012091,155.86526 L36.2284115,159.978346 L22.1408626,162.793089 L0,179.72856 M616,127.838861 L570.010208,138.963798 L515.542086,171.347348 L459.297895,167.772404 L449.251503,167.726392 L373.69856,221.139493 L301.217736,197.199173 L266.725392,169.110757 L227.91988,147.929165 L189.593387,135.562901 L181.746081,131.571847 L154.898035,120.620956 L148.546788,119.215585 L102.048976,134.593645 L54.6751302,157.593717 L35.0053638,161.80883 L21.4718366,164.69059 L0,180.684813 M616,128.844127 L569.591192,141.559484 L514.663052,175.432426 L459.843916,173.566934 L450.086536,173.918026 L376.043651,225.311594 L299.77868,199.881881 L267.311415,171.880488 L230.892996,149.965703 L190.277413,137.822497 L181.98609,133.683404 L153.74299,122.013324 L147.07273,120.323878 L98.2498279,137.287356 L52.6490513,159.322173 L33.7823162,163.639313 L20.8028105,166.589092 L0,181.641065 M616,129.850393 L569.173176,144.154169 L513.784018,179.517505 L460.389937,179.360463 L450.921568,180.109661 L378.387742,229.483696 L298.339624,202.563589 L267.896438,174.65122 L233.865112,152.002241 L190.96244,140.082094 L182.2261,135.795962 L152.586945,123.404691 L145.598673,121.43217 L94.4506799,139.982067 L50.6229723,161.050629 L32.5592685,165.469796 L20.1337844,168.486592 L0,182.597318 M616,130.855658 L568.754159,146.749854 L512.904983,183.602583 L460.935959,185.153993 L451.756601,186.301296 L380.732834,233.655797 L296.900568,205.245297 L268.48246,177.421951 L236.838227,154.037778 L191.646467,142.34169 L182.465109,137.90752 L151.4319,124.797058 L144.124615,122.540463 L90.6505318,142.676779 L48.5968934,162.779086 L31.3362209,167.300279 L19.4647584,170.385094 L0,183.55357 M616,131.861924 L568.335143,149.344539 L512.024949,187.687662 L461.48198,190.947522 L452.591633,192.49193 L383.076925,237.827899 L295.461511,207.928005 L269.067483,180.191683 L239.810343,156.074316 L192.330493,144.602287 L182.705118,140.020077 L150.276855,126.189426 L142.650558,123.648755 L86.8513838,145.37149 L46.5698144,164.506542 L30.1131732,169.130763 L18.7957323,172.282595 L0,184.508822 M616,132.867189 L567.917127,151.940224 L511.145915,191.77274 L462.028001,196.741052 L453.426666,198.683564 L385.421016,242 L294.022455,210.609713 L269.653506,182.962414 L242.782459,158.110853 L193.01452,146.861884 L182.945128,142.131635 L149.12081,127.580793 L141.1755,124.756048 L83.0522358,148.065201 L44.5437355,166.234998 L28.8901256,170.961246 L18.1267062,174.180096 L0,185.465075" id="Stroke-12"></path>
            <path d="M616.559035,134.006436 L568.026523,154.660981 L510.759159,195.971071 L463.036189,202.644601 L454.718617,204.984436 L388.181044,246.267528 L292.93724,213.397843 L270.579262,185.848784 L246.08085,160.271586 L193.991956,149.249362 L183.470908,144.373706 L148.229299,129.107781 L139.959759,126 L79.4732394,150.887247 L42.7146146,168.085035 L27.8546599,172.911695 L17.6388163,176.197464 L0.17011396,186.536735 M616.559035,135.011365 L567.607242,157.254798 L509.87957,200.054783 L463.582555,208.436193 L455.554177,211.174 L390.526615,250.438234 L291.497275,216.079654 L271.165655,188.618589 L249.054843,162.307442 L194.676414,151.508203 L183.711069,146.484557 L147.073525,130.498683 L138.484771,127.107922 L75.670692,153.581057 L40.6872565,169.812914 L26.6308401,174.741566 L16.9693678,178.09433 L0.17011396,187.492668 M616.559035,136.017294 L567.188962,159.849615 L508.999981,204.138495 L464.128921,214.227785 L456.389737,217.362564 L392.873187,254.60894 L290.05731,218.760465 L271.751047,191.387394 L252.029836,164.343299 L195.360873,153.767044 L183.951229,148.596408 L145.91675,131.890585 L137.009783,128.215844 L71.8691453,156.274867 L38.6598984,171.540792 L25.4070202,176.571437 L16.2999194,179.992196 L0.17011396,188.448601 M616.559035,137.022224 L566.769681,162.443433 L508.120391,208.222208 L464.675287,220.019377 L457.225297,223.552128 L395.218758,258.779646 L288.617346,221.441276 L272.336439,194.157199 L255.003828,166.378155 L196.046332,156.026885 L184.19139,150.707259 L144.760976,133.282487 L135.534795,129.323766 L68.0675987,158.967678 L36.6315396,173.26867 L24.1832004,178.401308 L15.6304709,181.889063 L0.17011396,189.404533 M0.17011396,190.360466 L22.9593806,180.23118 L64.266052,161.661488 L134.058806,130.431688 L196.730791,158.285726 L257.97782,168.414012 L287.177381,224.123088 L397.56533,262.950352 L465.221653,225.810969 L507.239801,212.30592 L566.3504,165.03825 L616.559035,138.028153 M0.17011396,598.044746 L66.4024832,627.587665 L117.678833,612.816705 L228.066783,663.882108 L374.062586,668.946751 L449.554158,659.662405 L512.937618,664.726049 L589.140667,654.597762 L616.559035,668.946751 M0.127085135,614.898559 L66.7527178,641.486686 L118.064091,628.192622 L229.186533,674.152384 L374.721027,678.710063 L450.021471,670.353652 L513.226812,674.912331 L589.245737,665.795973 L616.919276,678.710063 M0.0850569799,631.752371 L67.1029525,655.385707 L118.44935,643.569539 L230.306283,684.422661 L375.379468,688.473376 L450.488784,681.045899 L513.516006,685.097613 L589.349807,676.994184 L617.279517,688.473376 M0.0430288251,648.606184 L67.4531871,669.285727 L118.834608,658.945456 L231.427034,694.691938 L376.036908,698.236688 L450.956097,691.738146 L513.804199,695.282896 L589.454878,688.192395 L617.639759,698.236688 M0,665.458997 L67.8034217,683.184748 L119.219866,674.322372 L232.546784,704.962214 L376.695349,708 L451.42341,702.429392 L514.093393,705.468178 L589.559948,699.390607 L618,708" id="Stroke-13"></path>
        </g>
    </g>
</svg>