<svg width="1705" height="1024" viewBox="0 0 1705 1024" fill="none" xmlns="http://www.w3.org/2000/svg">
<path d="M1585.22 594.226C1132.53 591.155 682.911 581.941 539.18 578.87C528.124 593.612 517.682 608.967 507.854 624.323C649.128 621.252 1101.21 612.039 1595.05 607.739C1591.37 603.439 1588.3 599.14 1585.22 594.226Z" fill="#111"/>
<path d="M1701.31 1040.78C1304.52 1038.93 514.61 1022.35 408.348 1020.51C409.576 1036.48 411.419 1053.06 413.876 1069.03C444.588 1068.42 1248.01 1050.6 1700.09 1048.76C1700.7 1046.3 1701.31 1043.85 1701.31 1040.78Z" fill="#111"/>
<path d="M1681.04 793.852C1332.77 793.238 580.948 777.268 437.217 774.197C432.303 790.167 428.003 806.137 424.318 822.107C572.963 819.036 1295.92 803.68 1683.5 801.837C1682.27 799.38 1681.66 796.924 1681.04 793.852Z" fill="#111"/>
<path d="M1617.16 644.593C1112.26 640.908 645.443 631.08 504.783 628.009C495.569 643.365 486.356 658.72 478.37 674.076C638.072 670.391 1158.33 659.949 1623.92 656.878C1622.08 652.578 1619.62 648.278 1617.16 644.593Z" fill="#111"/>
<path d="M1705 943.112C1255.99 941.269 511.539 924.071 408.962 922.228C407.733 938.198 407.119 954.782 407.119 970.752C505.397 968.296 1308.82 951.097 1705 949.868C1705 947.411 1705 944.955 1705 943.112Z" fill="#111"/>
<path d="M1434.74 443.738C1086.46 440.052 805.144 435.139 692.739 433.296C673.697 446.195 655.27 459.708 638.072 475.064C752.32 472.607 1061.89 467.079 1460.53 463.393C1451.93 456.023 1443.34 449.88 1434.74 443.738Z" fill="#111"/>
<path d="M1700.7 893.359C1440.26 893.973 550.236 875.546 414.49 872.475C412.033 888.445 410.19 904.415 408.962 920.999C511.539 918.542 1252.31 901.958 1701.31 900.115C1701.31 897.658 1700.7 895.816 1700.7 893.359Z" fill="#111"/>
<path d="M1351.81 392.756C1141.13 390.913 894.208 386.614 776.889 384.771C752.32 396.442 728.365 409.955 705.638 424.696C821.114 422.854 1077.25 418.554 1391.74 414.869C1378.23 406.884 1365.33 399.513 1351.81 392.756Z" fill="#111"/>
<path d="M1215.45 341.775C1117.79 340.546 1000.47 338.703 915.092 337.475C875.781 346.074 837.084 358.359 800.23 374.329C912.635 372.486 1111.03 369.415 1294.69 366.958C1268.89 357.131 1242.48 348.531 1215.45 341.775Z" fill="#111"/>
<path d="M1496.77 494.105C1071.11 489.806 740.649 483.663 630.087 481.82C619.031 491.648 607.974 501.476 597.532 511.918C593.233 516.218 589.547 520.517 585.248 524.817C711.78 522.36 1093.22 514.989 1514.59 511.304C1508.44 505.161 1502.3 499.633 1496.77 494.105Z" fill="#111"/>
<path d="M1694.56 850.976C1693.94 848.519 1693.94 846.063 1693.33 843.606C1308.82 842.377 573.577 827.021 424.318 823.336C420.632 839.306 417.561 855.276 415.104 871.246C549.622 868.789 1425.52 850.362 1694.56 850.976Z" fill="#111"/>
<path d="M1705 992.251C1313.12 991.022 504.783 973.209 407.119 971.367C407.119 987.337 407.733 1003.92 408.962 1019.89C515.225 1017.43 1309.43 1000.85 1705 999.622C1705 996.55 1705 994.708 1705 992.251Z" fill="#111"/>
<path d="M1545.3 544.473C1102.43 540.173 702.567 532.802 579.719 530.345C566.206 544.473 553.922 559.214 542.251 574.57C686.597 571.499 1117.79 562.9 1558.2 559.214C1553.9 554.3 1549.6 549.387 1545.3 544.473Z" fill="#111"/>
<path d="M1643.58 694.346C1172.46 691.275 637.458 680.219 477.142 676.533C469.157 691.889 462.4 707.245 455.644 723.215C627.016 719.53 1275.03 706.017 1648.49 704.788C1646.65 701.103 1645.42 698.032 1643.58 694.346Z" fill="#111"/>
<path d="M1664.46 744.099C1292.23 742.871 627.016 729.358 455.03 725.672C448.887 741.028 443.359 756.998 437.831 772.968C580.948 769.897 1316.19 754.541 1668.15 753.313C1666.92 750.242 1665.69 747.17 1664.46 744.099Z" fill="#111"/>
<path d="M165.11 995.322C593.847 1003.92 736.964 1005.15 991.258 1006.99C1002.93 997.778 1013.98 987.951 1025.04 977.509C592.618 981.194 271.987 987.336 158.968 989.793C161.425 991.636 163.267 993.479 165.11 995.322Z" fill="#111"/>
<path d="M109.829 941.269C109.215 941.269 109.215 941.269 109.829 941.269C110.443 942.497 111.672 943.726 112.9 944.954C611.66 955.396 849.369 957.239 1045.31 958.467C1055.14 948.025 1064.97 937.583 1074.18 927.141C899.122 928.984 645.443 930.212 109.829 941.269Z" fill="#111"/>
<path d="M1113.49 877.388C751.091 879.845 415.718 885.374 68.0608 892.744C68.675 893.973 69.9035 894.587 70.5177 895.816C408.348 902.572 735.121 908.1 1088.92 910.557C1097.52 899.501 1105.51 888.445 1113.49 877.388Z" fill="#111"/>
<path d="M1146.05 827.021C932.291 827.635 519.524 832.549 34.2778 842.991C34.892 843.606 35.5062 844.834 35.5062 845.448C510.311 855.89 904.036 860.804 1123.93 861.418C1131.92 850.362 1139.29 839.306 1146.05 827.021Z" fill="#111"/>
<path d="M1172.46 777.268C692.125 780.339 141.769 791.395 6.02289 794.467C6.63712 795.081 6.63713 795.695 7.25137 796.923C142.383 799.995 677.997 811.051 1153.42 814.122C1160.79 801.837 1166.93 789.553 1172.46 777.268Z" fill="#111"/>
<path d="M1193.34 727.515C678.611 730.586 108.6 742.871 -16.0896 745.942C-16.0896 746.556 -15.4754 747.171 -15.4754 747.785C109.829 750.856 671.855 762.526 1177.99 765.598C1183.51 752.699 1189.04 739.8 1193.34 727.515Z" fill="#111"/>
<path d="M1209.93 677.762C660.799 680.833 41.0343 694.96 -33.9025 696.803C-33.9025 697.417 -33.9025 697.417 -33.2882 698.032C42.877 699.874 652.199 713.387 1197.64 716.459C1201.94 703.56 1206.24 690.661 1209.93 677.762Z" fill="#111"/>
<path d="M1222.21 627.394C821.114 628.623 51.4764 644.593 -46.8014 647.05C-46.8014 647.664 -46.8014 647.664 -46.8014 648.278C52.0906 650.121 810.672 666.706 1212.38 667.934C1216.07 654.421 1219.14 640.908 1222.21 627.394Z" fill="#111"/>
<path d="M1229.58 577.641C777.503 579.484 -25.9174 597.297 -56.6292 597.911V598.525C-24.0747 599.14 771.361 616.952 1223.44 618.795C1225.9 605.282 1228.35 591.769 1229.58 577.641Z" fill="#111"/>
<path d="M1233.88 528.502C838.313 529.731 44.1055 546.929 -62.1573 548.772V549.386C44.1055 551.843 833.399 568.428 1230.81 569.656C1232.04 556.143 1233.27 542.016 1233.88 528.502Z" fill="#111"/>
<path d="M1233.88 478.749C837.699 479.978 34.2778 497.176 -64 499.633V500.248C34.2778 502.705 842.613 519.903 1233.88 521.132C1234.5 507.004 1234.5 492.877 1233.88 478.749Z" fill="#111"/>
<path d="M1230.81 428.996C781.189 431.453 40.4201 447.423 -61.5431 449.88V450.494C41.0343 452.951 785.489 469.536 1234.5 471.379C1233.27 457.865 1232.04 443.738 1230.81 428.996Z" fill="#111"/>
<path d="M1229.58 422.854C1227.74 408.726 1225.9 394.599 1223.44 380.471C955.018 379.857 78.5028 398.284 -56.0149 401.356C-56.0149 401.97 -56.0149 401.97 -56.0149 402.584C79.1171 405.041 969.145 423.468 1229.58 422.854Z" fill="#111"/>
<path d="M1212.38 331.333C824.8 333.175 101.844 348.531 -46.8014 351.602C-46.8014 352.217 -46.8014 352.217 -46.8014 352.831C102.458 355.902 837.699 371.872 1222.21 373.101C1219.14 358.973 1216.07 345.46 1212.38 331.333Z" fill="#111"/>
<path d="M1197.03 282.808C845.069 284.036 110.443 298.778 -32.674 301.849C-33.2882 302.464 -33.2882 303.078 -33.2882 303.692C110.443 306.763 862.268 322.119 1210.54 323.348C1206.24 309.834 1201.94 296.321 1197.03 282.808Z" fill="#111"/>
<path d="M1177.37 234.283C803.916 236.126 155.896 249.025 -15.4754 252.71C-15.4754 253.325 -16.0896 253.939 -16.7039 255.167C155.282 258.853 821.114 272.366 1192.73 273.594C1189.04 260.081 1183.51 247.182 1177.37 234.283Z" fill="#111"/>
<path d="M1153.42 185.144C687.825 188.83 167.567 199.272 7.86562 202.957C7.25138 204.186 6.63715 204.8 6.63715 206.028C166.953 209.714 701.952 220.156 1173.07 223.841C1166.93 210.328 1160.17 198.043 1153.42 185.144Z" fill="#111"/>
<path d="M1123.32 137.234C629.473 140.919 177.395 150.747 36.1205 153.818C35.5062 155.047 34.892 156.275 34.2778 156.89C174.938 159.961 641.757 169.789 1146.66 173.474C1139.29 161.189 1131.92 148.905 1123.32 137.234Z" fill="#111"/>
<path d="M1087.69 88.7094C647.285 91.7805 216.092 100.994 71.7462 104.065C70.5177 105.294 69.2892 107.136 68.0608 108.365C211.792 111.436 661.413 120.65 1114.1 123.721C1105.51 111.436 1096.91 99.7656 1087.69 88.7094Z" fill="#111"/>
<path d="M1044.7 40.799C1044.08 40.1847 1044.08 40.1847 1043.47 39.5705C622.102 43.8702 240.661 51.241 114.129 53.6979C112.286 55.5406 110.443 57.3834 108.6 59.2261C231.448 61.683 631.315 69.0538 1074.18 73.3535C1064.97 62.2972 1055.14 51.8552 1044.7 40.799Z" fill="#111"/>
<path d="M989.415 -8.33994C590.776 -4.04028 281.201 1.48784 166.953 3.33055C164.496 5.78749 161.425 7.6302 158.968 10.0871C269.53 12.5441 600.603 18.6865 1025.65 22.3719C1013.98 11.9299 1001.7 2.10208 989.415 -8.33994Z" fill="#111"/>
</svg>
