<svg width="450" height="300" viewBox="0 0 450 300" fill="none" xmlns="http://www.w3.org/2000/svg">
<mask id="mask0" mask-type="alpha" maskUnits="userSpaceOnUse" x="100" y="186" width="211" height="53">
<path d="M100 186.522H310.04V238.158H100V186.522Z" fill="#002AB1"/>
</mask>
<g mask="url(#mask0)">
<path fill-rule="evenodd" clip-rule="evenodd" d="M199.735 229.527C198.857 230.744 195.991 234.381 192.425 234.381C187.602 234.381 186.59 230.997 186.59 228.157C186.59 223.488 190.165 221.328 199.735 218.965V229.527ZM211.651 235.246C211.512 234.883 211.135 234.676 210.765 234.764L210.648 234.794C209.549 235.032 208.703 234.966 208.11 234.565C207.27 233.995 206.86 232.713 206.86 230.644V211.925C206.86 204.615 202.501 200.908 193.901 200.908C186.198 200.908 180.165 204.554 180.165 209.207C180.165 211.601 181.622 213.33 183.776 213.59C185.183 213.759 186.524 213.122 187.499 212.094C189.393 210.095 189.147 207.72 186.851 205.168C188.209 203.747 190.614 202.906 193.357 202.906C197.828 202.906 199.735 205.558 199.735 211.771V216.501C198.687 216.825 197.706 217.132 195.913 217.552C192.293 218.403 187.328 219.534 183.582 221.603C180.491 223.297 178.923 225.973 178.923 229.557C178.923 233.456 181.482 238.011 188.697 238.011C192.737 238.011 196.357 236.093 200.072 231.983C200.392 236.255 202.012 237.856 205.938 237.856C207.827 237.856 209.337 237.415 211.133 236.546C211.62 236.311 211.852 235.746 211.651 235.246Z" fill="#002AB1"/>
<path fill-rule="evenodd" clip-rule="evenodd" d="M291.8 202.673C287.383 202.673 282.313 204.572 282.313 219.382C282.313 230.677 285.645 236.168 292.498 236.168C299.058 236.168 301.983 230.991 301.983 219.382C301.983 208.139 298.652 202.673 291.8 202.673ZM292.187 238.167C281.965 238.167 274.257 230.158 274.257 219.537C274.257 209.136 282.3 200.675 292.187 200.675C302.198 200.675 310.04 208.823 310.04 219.226C310.04 230.925 300.774 238.167 292.187 238.167Z" fill="#002AB1"/>
<path fill-rule="evenodd" clip-rule="evenodd" d="M115.435 230.644V217.103H120.648C128.427 217.103 134.345 215.457 138.238 212.209C142.306 208.814 143.16 204.513 143.16 201.503C143.16 189.122 131.214 186.523 121.192 186.523L121.232 186.522H100.904C100.444 186.522 100.07 186.896 100.07 187.357V187.412L100.07 187.394C100.07 187.82 100.329 188.198 100.728 188.344C102.538 189.01 107.456 188.073 107.456 193.348L107.457 230.637C107.457 233.348 106.254 235.261 100.756 235.782C100.32 235.822 99.9904 236.181 99.9904 236.611V236.739C99.9904 237.199 100.365 237.575 100.825 237.575H122.542C123.002 237.575 123.377 237.199 123.377 236.739V236.625C123.377 236.194 123.035 235.829 122.599 235.795C116.626 235.317 115.427 233.466 115.427 230.637V217.126L115.435 230.644ZM134.172 201.347C134.172 209.962 132.049 214.707 121.192 214.707H115.435V188.677H121.425C132.657 188.677 134.172 195.082 134.172 201.347Z" fill="#002AB1"/>
</g>
<path fill-rule="evenodd" clip-rule="evenodd" d="M150.479 214.734C151.271 206.973 154.3 202.719 159.057 202.719C161.438 202.719 163.203 203.377 164.451 204.733C166.166 206.596 166.89 209.96 166.605 214.734H150.479ZM159.599 200.657C150.146 200.657 142.455 209.216 142.455 219.738C142.455 230.389 149.666 238.118 159.599 238.118C167.947 238.118 172.008 233.132 174.337 229.38C174.566 229.012 174.466 228.521 174.109 228.266L173.999 228.189C173.639 227.932 173.138 228.004 172.86 228.354C169.79 232.201 167.104 234.428 162.465 234.428C156.597 234.428 150.328 230.387 150.328 219.039V218.956C150.318 218.454 150.33 217.767 150.348 217.126H174.355C174.422 217.126 174.475 217.075 174.48 217.01L174.494 216.816C174.833 212.163 173.516 207.984 170.787 205.047C168.117 202.174 164.248 200.657 159.599 200.657Z" fill="#002AB1"/>
<path fill-rule="evenodd" clip-rule="evenodd" d="M259.107 215.154C259.106 215.154 259.103 215.154 259.1 215.153C252.535 213.312 249.976 211.447 249.976 208.505C249.976 205.152 252.638 202.719 256.305 202.719C260.619 202.719 262.466 204.78 267.019 212.392L267.079 212.494C267.101 212.533 267.142 212.556 267.187 212.556H267.811C268.271 212.556 268.645 212.182 268.645 211.721V200.782C268.645 200.713 268.589 200.657 268.52 200.657H267.696C267.445 200.657 267.21 200.768 267.052 200.962L265.598 202.731C263.764 201.719 260.776 200.657 257.778 200.657C250.237 200.657 244.972 205.317 244.972 211.991C244.972 218.253 249.123 220.6 256.295 222.537C263.262 224.444 265.731 226.428 265.731 230.116C265.731 234.213 261.759 236.056 258.939 236.056C253.694 236.056 251.475 234.107 246.449 225.074L246.388 224.966C246.367 224.928 246.325 224.902 246.281 224.902H245.651C245.191 224.902 244.817 225.276 244.817 225.736V237.993C244.817 238.062 244.873 238.118 244.941 238.118H245.795C246.014 238.118 246.229 238.029 246.384 237.874L248.683 235.576C251.373 237.245 255.396 238.118 258.009 238.118C261.932 238.118 265.156 236.876 267.336 234.524C269.278 232.431 270.349 229.461 270.349 226.165C270.349 220.456 267.301 217.472 259.107 215.154Z" fill="#002AB1"/>
<path fill-rule="evenodd" clip-rule="evenodd" d="M219.379 233.173C219.379 235.064 218.899 235.682 215.891 235.871C215.455 235.898 215.112 236.264 215.112 236.703C215.112 237.162 215.486 237.536 215.945 237.536H230.802C231.254 237.536 231.622 237.167 231.622 236.717C231.622 236.271 231.275 235.905 230.832 235.884C227.393 235.717 226.503 235.161 226.503 233.173L226.503 211.387C228.948 207.321 230.707 205.193 233.673 204.549C233.529 205.063 233.435 205.679 233.435 206.179C233.435 208.826 235.284 210.673 237.931 210.673C240.53 210.673 242.346 208.826 242.346 206.179C242.346 203.675 240.784 200.752 236.377 200.752C232.764 200.752 229.312 202.823 226.348 207.779V202.174C226.348 201.603 225.877 201.144 225.306 201.159L215.945 201.409C215.492 201.422 215.137 201.786 215.137 202.239V202.361C215.137 202.772 215.436 203.124 215.831 203.179C218.952 203.622 219.382 205.107 219.379 206.645L219.379 233.173Z" fill="#002AB1"/>
<path fill-rule="evenodd" clip-rule="evenodd" d="M322.129 201.134C322.345 201.134 322.55 201.217 322.707 201.369C322.87 201.526 322.961 201.737 322.962 201.964L322.995 208.178C322.995 208.178 326.044 200.889 335.94 200.889H336.026C342.196 200.889 345.734 204.823 345.734 211.68V233.136C345.734 235.028 346.214 235.647 349.22 235.835C349.657 235.862 350 236.228 350 236.667C350 237.126 349.627 237.499 349.167 237.499H335.82C335.361 237.499 334.987 237.124 334.987 236.664C334.987 236.219 335.321 235.855 335.747 235.818C338.172 235.611 338.559 234.999 338.559 233.136V213.772C338.559 207.379 336.742 204.888 332.076 204.888C328.923 204.888 326.341 207.64 324.73 209.949C324.73 209.949 323.909 210.981 323.015 212.922L323.114 233.136C323.114 234.995 323.491 235.607 325.847 235.816C326.272 235.854 326.606 236.218 326.606 236.645C326.606 237.124 326.232 237.499 325.773 237.499H312.508C312.049 237.499 311.674 237.126 311.674 236.667C311.674 236.228 312.017 235.862 312.453 235.835C315.46 235.644 315.941 235.026 315.941 233.136V206.649C315.941 205.103 315.509 203.611 312.373 203.166C311.974 203.11 311.674 202.756 311.674 202.343V202.221C311.674 201.766 312.032 201.4 312.488 201.387L322.129 201.134Z" fill="#002AB1"/>
<path fill-rule="evenodd" clip-rule="evenodd" d="M265.834 143.034C282.203 112.627 276.728 82.5711 253.202 69.168C227.209 54.3557 193.321 62.4143 178.714 94.1419C168.654 115.992 173.222 153.961 196.633 167.572C220.038 181.181 251.449 169.765 265.834 143.034ZM220.585 147.26C221.395 147.423 222.2 147.806 222.917 148.365C224.213 149.374 224.995 150.948 225.007 152.567C225.02 153.955 224.435 155.202 223.362 156.076C222.439 156.825 221.251 157.221 219.931 157.221H219.93C219.324 157.221 218.718 157.133 218.126 156.97C217.104 156.678 216.279 156.193 215.74 155.558C215.26 154.996 214.935 154.242 214.797 153.375C214.579 152.012 214.914 150.608 215.734 149.434C216.715 148.019 218.215 147.177 219.746 147.177C220.025 147.177 220.309 147.207 220.585 147.26ZM257.894 110.724C258.696 104.606 257.262 97.1456 252.657 92.2288L252.591 92.1625C243.743 82.1688 231.459 81.5389 223.679 81.7354C215.08 81.9524 208.903 84.7905 203.854 87.4261C199.446 89.723 195.468 93.6757 193.856 95.6384C192.829 96.8888 191.081 99.4727 192.017 101.79C192.793 103.712 195.689 103.587 196.779 102.765C197.354 102.332 197.947 101.78 198.599 101.173C199.182 100.629 199.812 100.042 200.519 99.4573C207.158 93.9647 213.044 90.5063 226.755 90.5063C240.467 90.5063 247.9 99.0567 247.9 106.692C247.9 114.327 244.292 119.511 237.474 122.89C234.098 124.568 230.492 125.861 225.952 126.039C226.281 118.638 226.45 111.634 226.45 111.634C226.466 110.756 226.504 109.905 226.54 109.093C226.723 104.978 226.862 101.857 223.883 101.257C220.325 100.539 213.766 101.248 213.645 105.31C213.483 104.707 214.318 138.61 214.472 139.28L214.531 140.057C214.603 140.918 214.907 141.678 215.445 142.279C215.983 142.879 216.853 143.248 217.638 143.337C217.758 143.352 217.881 143.359 218.007 143.359C218.751 143.359 219.8 143.229 220.861 142.927C222.195 142.547 223.538 141.895 224.313 140.886C224.706 140.372 225.028 139.876 225.197 138.958C225.312 138.334 225.54 134.396 225.598 133.253C232.81 133.188 240.138 131.834 245.716 128.439C252.75 124.158 256.979 117.702 257.894 110.724Z" fill="#002AB1"/>
</svg>
