<svg width="450" height="300" viewBox="0 0 450 300" fill="none" xmlns="http://www.w3.org/2000/svg">
<path fill-rule="evenodd" clip-rule="evenodd" d="M40 150.11C40 153.641 40.5047 157.048 41.4273 160.284C41.486 160.503 41.5376 160.72 41.601 160.935C41.6151 160.979 41.6327 161.012 41.6468 161.058C46.329 176.194 60.4554 187.223 77.1113 187.223C84.8136 187.223 91.9783 184.862 97.9153 180.828C97.974 180.797 98.0327 180.763 98.0902 180.727C98.4447 180.485 98.7839 180.234 99.1161 179.972C105.946 174.923 110.988 167.598 113.11 159.125C113.228 158.734 113.332 158.338 113.42 157.937C113.44 157.841 113.447 157.749 113.45 157.653C113.957 155.22 114.223 152.695 114.223 150.11C114.223 145.102 113.241 140.24 111.306 135.664C110.935 134.786 109.922 134.378 109.044 134.75C108.167 135.119 107.755 136.134 108.127 137.01C109.883 141.157 110.77 145.564 110.77 150.11C110.77 152.895 110.424 155.603 109.782 158.193C109.274 159.825 108.376 161.34 107.139 162.711C107.172 162.124 107.192 161.533 107.192 160.928C107.207 154.308 105.376 147.312 101.979 140.736C104.467 138.601 106.053 135.957 106.599 133.003C106.775 132.064 106.154 131.165 105.216 130.994C104.281 130.818 103.379 131.438 103.204 132.378C102.845 134.33 101.829 136.121 100.244 137.646C99.7499 136.83 99.2346 136.022 98.6935 135.225C95.6616 130.784 92.0617 126.94 88.1248 123.875C93.3223 124.213 98.1289 125.477 102 127.641C102.608 127.984 103.414 127.976 103.981 127.501C104.716 126.895 104.812 125.802 104.202 125.068C98.6407 117.287 89.0216 113 77.1113 113C56.6488 113 40 129.646 40 150.11ZM77.9787 118.059C76.4176 117.463 74.8717 116.998 73.3517 116.667C74.5724 116.53 75.806 116.454 77.0631 116.454C77.65 116.46 78.3719 117.165 79.1266 118.53C78.7475 118.369 78.3613 118.206 77.9787 118.059ZM81.7183 116.702C83.1198 116.859 84.6117 117.101 86.1482 117.46C85.1857 117.974 84.1903 118.621 83.175 119.399C82.7254 118.377 82.2407 117.478 81.7183 116.702ZM87.5332 120.399C88.7164 119.633 89.8068 119.106 90.7189 118.888C92.4513 119.584 94.1662 120.465 95.7954 121.589C93.1838 120.937 90.4066 120.54 87.5332 120.399ZM59.5281 124.948C59.9108 123.158 60.9859 121.556 62.655 120.232C66.6823 119.029 71.3703 119.317 76.2978 121.124C74.225 121.485 72.1509 121.963 70.1038 122.579C66.2949 123.721 62.7043 125.282 59.4131 127.182C59.338 126.426 59.3732 125.678 59.5281 124.948ZM56.2885 123.693C56.2427 123.868 56.1899 124.044 56.1523 124.228C55.8061 125.854 55.8448 127.522 56.2556 129.178C52.5406 131.739 49.3127 134.771 46.7398 138.173C45.9569 139.212 45.2538 140.268 44.62 141.331C46.5309 134.262 50.6931 128.114 56.2885 123.693ZM63.7138 134.693C62.2865 133.356 61.2019 131.962 60.4695 130.563C63.7068 128.617 67.2844 127.03 71.098 125.886C73.3646 125.201 75.6617 124.698 77.9505 124.347C74.644 128.049 71.3457 132.755 68.3209 138.068C66.5931 137.068 65.0425 135.937 63.7138 134.693ZM78.4635 141.884C75.9657 141.353 73.5911 140.587 71.4055 139.625C74.624 133.989 78.1501 129.092 81.6244 125.449C82.7102 129.722 83.6222 135.466 84.0037 142.59C82.1749 142.512 80.3133 142.28 78.4635 141.884ZM85.3089 126.07C89.2329 128.992 92.8317 132.762 95.84 137.168C96.4105 138.006 96.9481 138.858 97.4587 139.713C94.6991 141.306 91.2142 142.259 87.4534 142.529C87.1341 136.571 86.4252 130.84 85.3089 126.07ZM50.7612 158.15C47.8326 155.438 45.8161 152.572 44.7878 149.722C45.6013 146.528 47.1753 143.323 49.4958 140.254C51.6955 137.339 54.4304 134.718 57.5691 132.468C58.4729 134.103 59.7394 135.698 61.3545 137.214C62.8886 138.648 64.6763 139.953 66.6611 141.092C66.1153 142.131 65.5778 143.181 65.0589 144.251C61.9954 150.524 59.4941 157.261 58.0269 163.373C55.3037 161.833 52.854 160.081 50.7612 158.15ZM73.1486 168.98C68.8737 168.065 64.8348 166.708 61.1761 164.99C62.3757 159.584 64.6153 153.035 68.1601 145.765C68.6753 144.713 69.1977 143.674 69.7376 142.661C72.2155 143.773 74.914 144.658 77.7428 145.261C79.892 145.723 82.0388 145.973 84.1434 146.043C84.1821 147.341 84.2021 148.675 84.2021 150.049C84.2021 158.18 83.5494 164.928 82.6139 170.2C79.5257 170.063 76.346 169.663 73.1486 168.98ZM87.6506 150.049C87.6506 148.703 87.6318 147.349 87.5943 146.001C91.8879 145.713 95.8647 144.599 99.1207 142.726C102.134 148.69 103.752 154.984 103.737 160.921C103.735 162.643 103.588 164.279 103.316 165.823C101.764 166.772 99.9811 167.596 97.9716 168.271C94.4057 169.473 90.3902 170.124 86.1341 170.234C87.1576 164.099 87.6506 156.976 87.6506 150.049ZM44.7432 159.322C44.4474 158.197 44.2667 157.058 44.1892 155.894C45.3407 157.534 46.7457 159.14 48.4171 160.688C50.9443 163.019 53.9409 165.107 57.2839 166.896C56.6019 170.712 56.4082 174.169 56.8413 176.959C51.0816 172.603 46.7715 166.44 44.7432 159.322ZM62.5447 180.452C62.4414 180.367 62.3299 180.29 62.2067 180.228C60.2899 179.296 59.5152 175.022 60.5141 168.484C64.1986 170.142 68.2117 171.453 72.4291 172.354C75.6241 173.037 78.8062 173.459 81.9191 173.621C80.392 180.257 78.4353 183.742 77.1418 183.742C77.0561 183.742 76.9775 183.753 76.8988 183.763C71.7612 183.731 66.8936 182.55 62.5447 180.452ZM85.478 173.694C90.355 173.634 94.9785 172.918 99.0726 171.543C100.104 171.197 101.083 170.813 102.018 170.398C100.878 173.177 99.2017 175.497 97.0232 177.224C92.7213 180.392 87.6471 182.564 82.1327 183.395C83.513 181.011 84.627 177.647 85.478 173.694Z" fill="#002AB1"/>
<path fill-rule="evenodd" clip-rule="evenodd" d="M236.712 167.699H239.014L236.273 177.251H233.972L232.307 171.26L230.618 177.251H228.318L225.577 167.699H227.946L229.55 174.668L231.473 167.699H233.18L235.045 174.668L236.712 167.699ZM243.575 175.548C244.385 175.548 245.741 175.151 245.741 172.487C245.741 169.821 244.385 169.423 243.575 169.423C242.172 169.423 241.4 170.514 241.4 172.487C241.4 174.465 242.172 175.548 243.575 175.548ZM243.575 167.619C245.64 167.619 247.848 168.901 247.848 172.487C247.848 176.058 245.64 177.325 243.575 177.325C241.511 177.325 239.301 176.058 239.301 172.487C239.301 168.901 241.511 167.619 243.575 167.619ZM251.039 172.164H252.173C253.303 172.164 254.005 171.636 254.005 170.791C254.005 169.898 253.391 169.387 252.324 169.387H251.039V172.164ZM255.246 174.356C255.584 175.039 255.877 175.629 256.545 175.629H257.029V177.2L256.961 177.217C256.943 177.217 256.592 177.314 255.971 177.314C254.37 177.314 253.875 176.21 253.436 175.237C253.08 174.438 252.776 173.748 251.935 173.748H251.039V177.251H249.004V167.699H252.388C254.862 167.699 256.018 168.666 256.018 170.738C256.018 172.016 255.244 172.809 254.477 173.148C254.82 173.471 255.037 173.92 255.246 174.356ZM260.023 167.699H257.994V177.251H264.157V175.559H260.023V167.699ZM267.136 175.559H268.324C269.788 175.559 270.668 174.46 270.668 172.608C270.668 170.468 269.738 169.387 267.909 169.387H267.136V175.559ZM267.941 167.699C270.912 167.699 272.687 169.542 272.687 172.635C272.687 175.567 271.1 177.251 268.342 177.251H265.101V167.699H267.941ZM278.354 175.559H279.95C280.982 175.559 281.468 175.168 281.468 174.332C281.468 173.304 280.617 173.089 279.9 173.089H278.354V175.559ZM279.744 171.604C280.592 171.604 280.989 171.246 280.989 170.482C280.989 169.759 280.481 169.387 279.491 169.387H278.354V171.604H279.744ZM282.008 172.213C282.743 172.426 283.697 173.102 283.697 174.534C283.697 176.258 282.479 177.251 280.344 177.251H276.321V167.699H279.954C282.024 167.699 283.073 168.561 283.073 170.267C283.073 171.584 282.474 172.053 282.008 172.213ZM288.407 170.307L287.372 173.313H289.463L288.407 170.307ZM289.45 167.765L292.928 177.251H290.817L289.998 174.908H286.819L286.029 177.251H283.899L287.406 167.699H289.419L289.45 167.765ZM298.873 173.602L295.537 167.699H293.471V177.251H295.506V171.554L298.833 177.251H300.909V167.699H298.873V173.602ZM310.378 167.699H307.962L304.801 171.996V167.699H302.734V177.251H304.801V172.854L308.039 177.251H310.485L306.791 172.434L310.378 167.699ZM316.466 173.757H318.565V173.867C318.565 174.484 318.35 175.522 316.886 175.522C315.505 175.522 314.679 174.387 314.679 172.487C314.679 170.538 315.468 169.423 316.843 169.423C318.484 169.423 318.543 171.081 318.543 171.151V171.26L320.44 170.965V170.881C320.44 170.191 319.827 167.619 316.814 167.619C314.121 167.619 312.575 169.395 312.575 172.487C312.575 175.522 314.171 177.325 316.843 177.325C319.528 177.325 320.482 175.457 320.482 173.85V172.191H316.466V173.757ZM323.922 172.164H325.049C326.183 172.164 326.881 171.636 326.881 170.791C326.881 169.898 326.27 169.387 325.199 169.387H323.922V172.164ZM328.124 174.356C328.462 175.039 328.754 175.629 329.426 175.629H329.903V177.2L329.842 177.217C329.822 177.217 329.468 177.314 328.847 177.314C327.244 177.314 326.749 176.21 326.317 175.237C325.959 174.438 325.652 173.748 324.812 173.748H323.922V177.251H321.882V167.699H325.271C327.738 167.699 328.893 168.666 328.893 170.738C328.893 172.016 328.124 172.809 327.353 173.148C327.696 173.471 327.914 173.92 328.124 174.356ZM334.506 175.548C335.311 175.548 336.673 175.151 336.673 172.487C336.673 169.821 335.311 169.423 334.506 169.423C333.101 169.423 332.327 170.514 332.327 172.487C332.327 174.465 333.101 175.548 334.506 175.548ZM334.506 167.619C336.569 167.619 338.772 168.901 338.772 172.487C338.772 176.058 336.569 177.325 334.506 177.325C332.436 177.325 330.228 176.058 330.228 172.487C330.228 168.901 332.436 167.619 334.506 167.619ZM345.413 173.421C345.413 174.824 344.878 175.511 343.771 175.511C342.653 175.511 342.088 174.808 342.088 173.421V167.699H340.053L340.054 173.289C340.049 174.655 340.387 175.694 341.064 176.377C341.693 177.006 342.606 177.325 343.771 177.325C345.449 177.325 347.448 176.628 347.448 173.289V167.699H345.413V173.421ZM351.191 172.526H352.405C353.588 172.526 354.183 172.003 354.183 170.99C354.183 169.959 353.532 169.387 352.338 169.387H351.191V172.526ZM352.492 167.699C354.898 167.699 356.235 168.868 356.235 170.99C356.235 172.993 354.921 174.187 352.731 174.187H351.191V177.251H349.16V167.699H352.492Z" fill="#002AB1"/>
<path fill-rule="evenodd" clip-rule="evenodd" d="M131.479 177.236H133.923V164.84H131.479V177.236Z" fill="#002AB1"/>
<path fill-rule="evenodd" clip-rule="evenodd" d="M140.775 175.255C141.999 175.255 142.92 174.87 142.92 173.503C142.92 172.229 141.98 171.73 140.724 171.73H138.547V175.255H140.775ZM140.512 170.014C141.838 170.014 142.284 169.357 142.284 168.403C142.284 167.409 141.628 166.822 140.174 166.822H138.547V170.014H140.512ZM136.102 177.235V164.84H140.792C143.327 164.84 144.797 165.799 144.797 168.117C144.797 170.314 143.487 170.689 142.865 170.689V170.723C143.696 170.723 145.63 171.449 145.63 173.764C145.63 176.351 143.593 177.235 141.309 177.235H136.102Z" fill="#002AB1"/>
<path fill-rule="evenodd" clip-rule="evenodd" d="M151.151 170.758C152.623 170.758 153.7 170.084 153.7 168.808C153.7 167.572 152.833 166.822 151.349 166.822H149.525V170.758H151.151ZM157.456 177.202C157.456 177.202 156.998 177.325 156.179 177.325C152.425 177.325 153.455 172.597 150.831 172.597H149.525V177.235H147.079V164.84H151.434C154.481 164.84 156.112 165.96 156.112 168.74C156.112 170.564 154.923 171.533 153.968 171.89C155.241 172.933 155.313 175.343 156.943 175.343H157.456V177.202Z" fill="#002AB1"/>
<path fill-rule="evenodd" clip-rule="evenodd" d="M162.676 175.255C164.573 175.255 165.899 173.873 165.899 171.217C165.899 168.471 164.732 166.822 162.127 166.822H160.978V175.255H162.676ZM158.534 177.235V164.84H162.164C165.421 164.84 168.328 166.598 168.328 171.252C168.328 175.663 165.707 177.235 162.694 177.235H158.534Z" fill="#002AB1"/>
<path fill-rule="evenodd" clip-rule="evenodd" d="M175.586 174.406C174.312 174.406 173.303 173.379 173.303 172.102C173.303 170.825 174.312 169.804 175.586 169.804C176.861 169.804 177.889 170.825 177.889 172.102C177.889 173.379 176.861 174.406 175.586 174.406Z" fill="#002AB1"/>
<path fill-rule="evenodd" clip-rule="evenodd" d="M183.427 177.236H185.872V164.84H183.427V177.236Z" fill="#002AB1"/>
<path fill-rule="evenodd" clip-rule="evenodd" d="M192.191 175.255C194.087 175.255 195.418 173.873 195.418 171.217C195.418 168.471 194.249 166.822 191.645 166.822H190.492V175.255H192.191ZM188.046 177.235V164.84H191.679C194.938 164.84 197.84 166.598 197.84 171.252C197.84 175.663 195.221 177.235 192.209 177.235H188.046Z" fill="#002AB1"/>
<path fill-rule="evenodd" clip-rule="evenodd" d="M202.177 172.28H205.296L203.718 167.781L202.177 172.28ZM205.92 174.141H201.521L200.476 177.235H197.928L202.481 164.84H204.974L209.527 177.235H206.995L205.92 174.141Z" fill="#002AB1"/>
<path fill-rule="evenodd" clip-rule="evenodd" d="M125.005 134.75H143.431V138.533H136.663V157.492H131.774V138.533H125.005V134.75Z" fill="#002AB1"/>
<path fill-rule="evenodd" clip-rule="evenodd" d="M146.02 157.492V134.752H150.903V143.726H159.503V134.752H164.445V157.492H159.563V147.507H150.903V157.492H146.02Z" fill="#002AB1"/>
<path fill-rule="evenodd" clip-rule="evenodd" d="M168.423 134.75H183.667V138.533H173.306V143.855H183.012V147.632H173.306V153.714H184.014V157.492H168.423V134.75Z" fill="#002AB1"/>
<path fill-rule="evenodd" clip-rule="evenodd" d="M207.93 134.75H213.436L217.404 151.854H217.467L221.127 134.75H225.786L219.989 157.492H214.573L210.478 140.169H210.416L206.002 157.492H200.462L194.917 134.75H199.959L203.454 151.854H203.519L207.93 134.75Z" fill="#002AB1"/>
<path fill-rule="evenodd" clip-rule="evenodd" d="M232.635 146.125C232.635 150.027 233.55 154.438 238.372 154.438C243.19 154.438 244.103 150.027 244.103 146.125C244.103 142.216 243.19 137.804 238.372 137.804C233.55 137.804 232.635 142.216 232.635 146.125ZM227.444 146.125C227.444 139.416 230.842 134.277 238.372 134.277C245.894 134.277 249.297 139.416 249.297 146.125C249.297 152.833 245.894 157.963 238.372 157.963C230.842 157.963 227.444 152.833 227.444 146.125Z" fill="#002AB1"/>
<path fill-rule="evenodd" clip-rule="evenodd" d="M257.407 144.549H261.497C263.638 144.512 264.898 143.448 264.898 141.428C264.898 139.416 263.638 138.565 261.497 138.531H257.407V144.549ZM257.407 157.494H252.519V134.75H262.186C266.093 134.783 270.093 136.04 270.093 140.674C270.093 143.632 268.175 145.588 265.37 146.185V146.25C269.116 146.656 269.116 148.955 269.528 152.108C269.75 153.557 269.939 156.235 270.848 157.494H265.464C265.056 155.479 264.833 153.431 264.615 151.381C264.487 150.123 264.169 148.389 262.57 148.327H257.407V157.494Z" fill="#002AB1"/>
<path fill-rule="evenodd" clip-rule="evenodd" d="M273.824 157.492V134.752H278.705V153.714H288.566V157.492H273.824Z" fill="#002AB1"/>
<path fill-rule="evenodd" clip-rule="evenodd" d="M296.093 153.714H298.616C304.414 153.776 305.264 149.743 305.264 146.125C305.264 142.501 304.414 138.471 298.616 138.533H296.093V153.714ZM291.214 134.75H298.963C306.048 134.693 310.459 138.214 310.459 146.125C310.459 154.029 306.048 157.554 298.963 157.492H291.214V134.75Z" fill="#002AB1"/>
<path fill-rule="evenodd" clip-rule="evenodd" d="M331.512 143.887C333.56 143.887 334.689 143.036 334.689 141.209C334.689 139.381 333.56 138.533 331.512 138.533H327.697V143.887H331.512ZM331.512 153.714C333.809 153.714 335.38 153.303 335.38 150.69C335.38 148.074 333.809 147.665 331.512 147.665H327.697V153.714H331.512ZM322.819 157.492V134.75H331.353C335.415 134.502 339.576 136.202 339.576 140.642C339.576 143.128 337.841 144.861 335.572 145.616V145.679C338.444 146.281 340.579 148.266 340.579 151.602C340.579 156.108 334.909 157.744 331.417 157.492H322.819Z" fill="#002AB1"/>
<path fill-rule="evenodd" clip-rule="evenodd" d="M356.248 148.895L353.129 139.195H353.066L349.731 148.895H356.248ZM342.105 157.492L350.324 134.75H356.119L364.023 157.492H359.113L357.478 152.672H348.468L346.765 157.492H342.105Z" fill="#002AB1"/>
<path fill-rule="evenodd" clip-rule="evenodd" d="M380.132 157.492L371.156 138.593L371.094 138.658V157.492H366.528V134.752H373.767L382.432 152.643L382.496 152.579V134.752H387.061V157.492H380.132Z" fill="#002AB1"/>
<path fill-rule="evenodd" clip-rule="evenodd" d="M395.952 144.58H396.017L403.575 134.75H409.275L400.927 144.923L410 157.492H403.921L396.017 145.902H395.952V157.492H391.072V134.75H395.952V144.58Z" fill="#002AB1"/>
<path fill-rule="evenodd" clip-rule="evenodd" d="M217.262 178.67C216.886 178.67 216.579 178.364 216.579 177.985V164.178C216.579 163.801 216.886 163.497 217.262 163.497C217.64 163.497 217.948 163.801 217.948 164.178V177.985C217.948 178.364 217.64 178.67 217.262 178.67Z" fill="#002AB1"/>
</svg>
