<svg xmlns="http://www.w3.org/2000/svg" width="144" height="95" viewBox="0 0 144 95">
  <g fill="#FFFFFF" fill-rule="evenodd">
    <path d="M49 94.4033595L67.3365401 47.0762572 85.1884493 1 94 1 57.8115507 94.4033595 49 94.4033595zM103.285921 71.0284243L136.851029 47.6315698 137.439475 47.2213879 136.851029 46.8112059 103.285921 23.4143515 103.394316 24.1319662 107.935478 18.3074328 107.25282 18.4084839 142.496183 43.286152 142.284525 42.8776681 142.284525 51.5651077 142.496183 51.1566238 107.25282 76.0342918 107.935478 76.135343 103.394316 70.3108096 103.285921 71.0284243 103.285921 71.0284243zM102.714079 70.2080604L102.281358 70.5096922 102.605684 70.9256752 107.146846 76.7502086 107.439996 77.1262059 107.829503 76.8512597 143.072866 51.9735916 143.284525 51.8241857 143.284525 51.5651077 143.284525 42.8776681 143.284525 42.6185901 143.072866 42.4691841 107.829503 17.5915161 107.439996 17.3165699 107.146846 17.6925672 102.605684 23.5171006 102.281358 23.9330835 102.714079 24.2347153 136.279187 47.6315698 136.279187 46.8112059 102.714079 70.2080604 102.714079 70.2080604z"/>
    <path d="M1.47009531,22.7703244 L4.47009531,14.4903244 L3.82814322,14.7895373 L22.1881432,21.5095373 L22.8863741,21.7650989 L22.8596776,21.0220475 L22.1396776,0.982047511 L21.64,1.5 L31.24,1.5 L30.7403224,0.982047511 L30.0203224,21.0220475 L29.9936259,21.7650989 L30.6918568,21.5095373 L49.0518568,14.7895373 L48.4099047,14.4903244 L51.4099047,22.7703244 L51.7426394,22.119238 L32.4226394,27.639238 L31.705234,27.844211 L32.1675586,28.4298221 L44.7675586,44.3898221 L44.8841322,43.6629905 L37.0841322,48.8229905 L37.7755545,48.9619452 L26.8555545,32.6419452 L26.44,32.0208967 L26.0244455,32.6419452 L15.1044455,48.9619452 L15.7958678,48.8229905 L7.99586783,43.6629905 L8.11244138,44.3898221 L20.7124414,28.4298221 L21.174766,27.844211 L20.4573606,27.639238 L1.13736056,22.119238 L1.47009531,22.7703244 L1.47009531,22.7703244 Z M0.529904688,22.4296756 L0.347346759,22.9335355 L0.862639436,23.080762 L20.1826394,28.600762 L19.9275586,27.8101779 L7.32755862,43.7701779 L6.99060599,44.1969845 L7.44413217,44.4970095 L15.2441322,49.6570095 L15.6589566,49.9314318 L15.9355545,49.5180548 L26.8555545,33.1980548 L26.0244455,33.1980548 L36.9444455,49.5180548 L37.2210434,49.9314318 L37.6358678,49.6570095 L45.4358678,44.4970095 L45.889394,44.1969845 L45.5524414,43.7701779 L32.9524414,27.8101779 L32.6973606,28.600762 L52.0173606,23.080762 L52.5326532,22.9335355 L52.3500953,22.4296756 L49.3500953,14.1496756 L49.1792145,13.6780445 L48.7081432,13.8504627 L30.3481432,20.5704627 L31.0196776,21.0579525 L31.7396776,1.01795249 L31.7582867,0.5 L31.24,0.5 L21.64,0.5 L21.1217133,0.5 L21.1403224,1.01795249 L21.8603224,21.0579525 L22.5318568,20.5704627 L4.17185678,13.8504627 L3.70078553,13.6780445 L3.52990469,14.1496756 L0.529904688,22.4296756 L0.529904688,22.4296756 Z" opacity=".4"/>
  </g>
</svg>
