<svg xmlns="http://www.w3.org/2000/svg" width="171" height="107" viewBox="0 0 171 107">
  <g fill="#FFFFFF" fill-rule="evenodd">
    <g transform="translate(.307 .478)">
      <path d="M11.2167731,51.23069 C13.0752289,51.23069 14.581805,49.7213972 14.581805,47.8595901 C14.581805,45.9977831 13.0752289,44.4884902 11.2167731,44.4884902 C10.2309347,44.4884902 9.34411139,44.9131885 8.72865984,45.5899174 C8.18389124,46.1889258 7.85174114,46.9853991 7.85174114,47.8595901 C7.85174114,49.7213972 9.35831725,51.23069 11.2167731,51.23069 Z" opacity=".4"/>
      <path d="M136.406164,32.1189739 L136.406164,32.1189739 L136.406164,3.1913483 C136.406164,1.53896226 135.06376,0.187293316 133.407822,0.187293316 L3.43680938,0.187293316 C1.78418777,0.187293316 0.438467727,1.53123136 0.438467727,3.18906295 L0.438467727,91.4064174 C0.438467727,93.0581487 1.7811183,94.408187 3.43736172,94.408187 L128.109375,94.408187 L128.109375,93.408187 L3.43736172,93.408187 C2.33603419,93.408187 1.43846773,92.5084987 1.43846773,91.4064174 L1.43846773,3.18906295 C1.43846773,2.08457727 2.33541183,1.18729332 3.43680938,1.18729332 L133.407822,1.18729332 C134.508394,1.18729332 135.406164,2.08816067 135.406164,3.1913483 L135.406164,32.1189739 L136.406164,32.1189739 Z"/>
      <path d="M98.7563715,62.6979087 C107.376461,62.6979087 114.364425,55.7099453 114.364425,47.0898557 C114.364425,38.469766 107.376461,31.4818026 98.7563715,31.4818026 C90.1362818,31.4818026 83.1483184,38.469766 83.1483184,47.0898557 C83.1483184,55.7099453 90.1362818,62.6979087 98.7563715,62.6979087 L98.7563715,62.6979087 Z M98.7563715,59.6979087 C91.793136,59.6979087 86.1483184,54.0530911 86.1483184,47.0898557 C86.1483184,40.1266202 91.793136,34.4818026 98.7563715,34.4818026 C105.719607,34.4818026 111.364425,40.1266202 111.364425,47.0898557 C111.364425,54.0530911 105.719607,59.6979087 98.7563715,59.6979087 L98.7563715,59.6979087 Z"/>
      <path d="M101.289162,14.0085031 L86.1381332,83.3898839 L86.980175,83.1430033 L32.7498234,28.9126517 L32.5029428,29.7546935 L101.884324,14.6036642 L101.289162,14.0085031 L101.289162,14.0085031 Z M102.266139,14.2218485 L102.432417,13.4604096 L101.670978,13.6266874 L32.2895973,28.7777166 L31.3958461,28.9728879 L32.0427166,29.6197584 L86.2730682,83.85011 L86.9199388,84.4969806 L87.11511,83.6032294 L102.266139,14.2218485 L102.266139,14.2218485 Z" opacity=".4"/>
      <path d="M49.1169255,17.3061881 C49.1169255,17.3061881 53.0924523,17.3061881 58.0375225,17.3061881 C62.9825927,17.3061881 67.9276629,17.3061881 67.9276629,17.3061881 L67.9276629,36.1169255 L49.1169255,36.1169255 L49.1169255,17.3061881 Z" transform="rotate(-45 58.522 26.712)"/>
    </g>
    <g transform="translate(127.712 32.324)">
      <path d="M1.22294207,3.03289075 L1.22294207,3.03289075 L1.22294207,71.198729 C1.22294207,72.298293 2.12035945,73.1979087 3.22016053,73.1979087 L39.8494612,73.1979087 C40.9498504,73.1979087 41.8466797,72.3013484 41.8466797,71.198729 L41.8466797,3.03289075 C41.8466797,1.9333267 40.9492623,1.033711 39.8494612,1.033711 L3.22016053,1.033711 C2.11977134,1.033711 1.22294207,1.93027138 1.22294207,3.03289075 L1.22294207,3.03289075 Z M0.222942073,3.03289075 C0.222942073,1.37648951 1.56898411,0.033710999 3.22016053,0.033710999 L39.8494612,0.033710999 C41.5047793,0.033710999 42.8466797,1.38427926 42.8466797,3.03289075 L42.8466797,71.198729 C42.8466797,72.8551302 41.5006376,74.1979087 39.8494612,74.1979087 L3.22016053,74.1979087 C1.56484249,74.1979087 0.222942073,72.8473405 0.222942073,71.198729 L0.222942073,3.03289075 L0.222942073,3.03289075 Z"/>
      <path d="M42.4219863,49.220969 C42.3421118,49.2209699 42.3421118,29.0984704 42.3421119,29.0984704 C40.2838665,27.6000799 37.7496011,26.7161061 35.0088724,26.7161061 C28.1202633,26.7161061 22.5359423,32.3004272 22.5359423,39.1890363 C22.5359423,46.0776454 28.1202633,51.6619665 35.0088724,51.6619665 C37.7851612,51.6619665 40.3495945,50.7549053 42.4219863,49.220969 Z M25.5359423,39.1890363 C25.5359423,33.9572814 29.7771176,29.7161061 35.0088724,29.7161061 C37.9297892,29.7161061 40.5419376,31.0381012 42.2796276,33.1164014 C42.3832972,33.1164014 42.3832972,45.1354978 42.3832971,45.135498 C40.6467714,47.2863189 37.9884718,48.6619665 35.0088724,48.6619665 C29.7771176,48.6619665 25.5359423,44.4207912 25.5359423,39.1890363 Z"/>
      <path d="M23.0956495 67.4557089C24.6443627 67.4557089 25.8998428 66.1979649 25.8998428 64.646459 25.8998428 63.0949531 24.6443627 61.8372091 23.0956495 61.8372091 22.4088245 61.8372091 21.7796712 62.0845765 21.2921187 62.4952311 20.6802951 63.0105563 20.2914563 63.7830167 20.2914563 64.646459 20.2914563 66.1979649 21.5469364 67.4557089 23.0956495 67.4557089zM31.8457533 11.7913909L33.1281822 39.1729037 33.8776348 38.7164989 8.24090561 23.9151264 8.22037367 24.7923737 32.5746738 12.2122334 31.8457533 11.7913909 31.8457533 11.7913909zM32.8446583 11.7446066L32.8081954 10.9660772 32.1157377 11.3237641 7.76143755 23.9039045 6.94865421 24.3237452 7.74090561 24.7811518 33.3776348 39.5825243 34.1698861 40.0399308 34.1270873 39.1261194 32.8446583 11.7446066 32.8446583 11.7446066z" opacity=".4"/>
    </g>
  </g>
</svg>
