<svg xmlns="http://www.w3.org/2000/svg" width="174" height="101" viewBox="0 0 174 101">
  <g fill="#FFFFFF" fill-rule="evenodd">
    <path d="M86.3003917,100.579327 C110.913126,100.579327 132.521031,91.2435453 150.948464,75.6916025 C157.394379,70.2515331 162.983334,64.4234514 167.695134,58.5945601 C169.345004,56.5535322 170.76772,54.6576471 171.960697,52.9552635 C172.378851,52.3585561 172.738581,51.8283799 173.039561,51.3707791 C173.221029,51.094881 173.343086,50.9036593 173.405405,50.8031584 L173.569259,50.5389112 L173.40473,50.2750837 C173.342073,50.1746122 173.219368,49.9834201 173.036975,49.7075515 C172.734447,49.2499824 172.372957,48.7198378 171.952861,48.1231621 C170.75433,46.4208487 169.325722,44.5250332 167.669879,42.4840742 C162.940997,36.6553485 157.33773,30.8274217 150.882333,25.3874875 C132.427558,9.8357294 110.83632,0.5 86.3003917,0.5 C61.762763,0.5 40.4282207,9.8371761 22.4038318,25.3912915 C16.09888,30.8321388 10.657027,36.6610241 6.08970691,42.4907303 C4.49041232,44.5320625 3.1143355,46.4282468 1.96296688,48.1309256 C1.5593806,48.7277612 1.21255116,49.2580642 0.922667768,49.7157905 C0.747865589,49.9918034 0.630397761,50.1831384 0.570455042,50.2837513 L0.418442647,50.5389018 L0.569786004,50.7944497 C0.62938999,50.8950929 0.746209052,51.0864581 0.920084633,51.3625014 C1.20842019,51.8202603 1.55348838,52.3505959 1.95513219,52.9474641 C3.10094544,54.6502154 4.47112864,56.5464717 6.06444913,58.5878752 C10.6146838,64.4177536 16.0422246,70.2468002 22.3376966,75.6877884 C40.3347439,91.2420979 61.6859562,100.579327 86.3003917,100.579327 L86.3003917,100.579327 Z M86.3003917,99.5793274 C61.9485392,99.5793274 40.8193287,90.3391829 22.9915911,74.9312026 C16.7483885,69.5353894 11.3648289,63.7535774 6.85275929,57.9725971 C5.27427327,55.9502 3.91780707,54.0729272 2.78478073,52.3891781 C2.38883068,51.8007712 2.04925223,51.2788727 1.76621995,50.8295333 C1.59727483,50.5613175 1.48521517,50.3777488 1.430214,50.2848777 L1.42954496,50.795576 C1.48489332,50.7026747 1.59761175,50.5190756 1.76749513,50.2508295 C2.05208766,49.8014575 2.39344165,49.2795265 2.79135042,48.6910869 C3.92996764,47.0072653 5.2923724,45.1299206 6.87688797,43.1074522 C11.4061684,37.3262997 16.8042244,31.5443263 23.0571532,26.1483722 C40.912423,10.7401978 62.0253792,1.5 86.3003917,1.5 C110.577104,1.5 131.950747,10.7416445 150.237934,26.1521762 C156.642224,31.5490434 162.20223,37.3319753 166.893312,43.1141083 C168.534456,45.1369498 169.949423,47.0146633 171.135192,48.6988504 C171.549602,49.2874499 171.905599,49.8095394 172.202811,50.2590686 C172.38026,50.527459 172.498184,50.7112008 172.556208,50.8042437 L172.555533,50.276169 C172.497857,50.3691824 172.380593,50.5528947 172.204083,50.8212556 C171.908432,51.2707531 171.554211,51.7928109 171.141761,52.3813787 C169.961584,54.0654956 168.552557,55.9431395 166.917444,57.9659122 C162.243575,63.7478796 156.698066,69.5306565 150.303501,74.9273886 C132.043845,90.3377356 110.653945,99.5793274 86.3003917,99.5793274 L86.3003917,99.5793274 Z"/>
    <path d="M87,77.5 C101.635546,77.5 113.5,65.6355459 113.5,51 C113.5,36.3644541 101.635546,24.5 87,24.5 C72.3644541,24.5 60.5,36.3644541 60.5,51 C60.5,65.6355459 72.3644541,77.5 87,77.5 L87,77.5 Z M87,76.5 C72.9167389,76.5 61.5,65.0832611 61.5,51 C61.5,36.9167389 72.9167389,25.5 87,25.5 C101.083261,25.5 112.5,36.9167389 112.5,51 C112.5,65.0832611 101.083261,76.5 87,76.5 L87,76.5 Z" opacity=".4"/>
    <path d="M87,23 C71.536027,23 59,35.536027 59,51 C59,66.463973 71.536027,79 87,79 L87,75 C73.745166,75 63,64.254834 63,51 C63,37.745166 73.745166,27 87,27 L87,23 L87,23 Z"/>
    <path d="M79.30317,45.424752 C83.015546,41.712376 86.7279221,38 86.7279221,38 L99.4558441,50.7279221 L86.7279221,63.4558441 L74,50.7279221 C74,50.7279221 75.590794,49.1371281 79.30317,45.424752 Z"/>
  </g>
</svg>
