<?xml version="1.0" encoding="UTF-8" standalone="no"?>
<svg width="100%" height="100%" viewBox="0 0 54 46" version="1.1" xmlns="http://www.w3.org/2000/svg" xmlns:xlink="http://www.w3.org/1999/xlink">
  <g stroke="none" stroke-width="1" fill="none" fill-rule="evenodd">
    <path d="M50.0712891,12.7431641 C50.625,9.81640625 51.1787109,4.56933594 49.4912109,0.508789062 C44.1914062,0.930664062 40.0517578,3.43554688 37.6787109,5.25488281 C34.4882812,4.38476562 30.8759766,3.88378906 27,3.88378906 C23.1240234,3.88378906 19.5117188,4.38476562 16.2421875,5.25488281 C13.9482422,3.43554688 9.80859375,0.930664062 4.50878906,0.508789062 C2.82128906,4.62207031 3.375,9.81640625 3.92871094,12.8222656 C1.45019531,15.8808594 0,19.7568359 0,24.1337891 C0,39.875 10.125,45.4912109 27,45.4912109 C43.875,45.4912109 54,39.875 54,24.0546875 C54,19.6777344 52.5498047,15.8808594 50.0712891,12.7431641 L50.0712891,12.7431641 Z M27,42.1162109 C12.3662109,42.1162109 7.11914062,37.6337891 7.11914062,30.8837891 C7.11914062,23 13.5,21.3125 16.875,21.3125 C20.25,21.3125 20.25,21.8662109 27,21.8662109 C33.75,21.8662109 33.75,21.3125 37.125,21.3125 C40.5,21.3125 46.8808594,23 46.8808594,30.8837891 C46.8808594,37.6337891 41.6337891,42.1162109 27,42.1162109 L27,42.1162109 Z M38.2587891,31.4375 C38.2587891,27.5087891 36.9931641,26.375 35.4375,26.375 C33.8818359,26.375 32.6162109,27.5087891 32.6162109,31.4375 C32.6162109,35.3662109 33.8818359,36.5 35.4375,36.5 C36.9931641,36.5 38.2587891,35.3662109 38.2587891,31.4375 L38.2587891,31.4375 Z M21.3837891,31.4375 C21.3837891,27.5087891 20.1181641,26.375 18.5625,26.375 C17.0068359,26.375 15.7412109,27.5087891 15.7412109,31.4375 C15.7412109,35.3662109 17.0068359,36.5 18.5625,36.5 C20.1181641,36.5 21.3837891,35.3662109 21.3837891,31.4375 L21.3837891,31.4375 Z" id="github" fill="#151820"></path>
  </g>
</svg>
