<svg xmlns="http://www.w3.org/2000/svg" width="100%" height="100%" viewBox="0 0 930 561">
  <g fill="#151820" fill-rule="evenodd" transform="translate(.359 .609)">
    <path d="M869.565217,527.173913 L869.565217,16.2903609 C869.565217,10.3082366 864.693015,5.43478261 858.69952,5.43478261 L70.6483056,5.43478261 C64.6751155,5.43478261 59.7826087,10.3144745 59.7826087,16.2903609 L59.7826087,527.173913 L54.3478261,521.73913 L875,521.73913 L869.565217,527.173913 L869.565217,527.173913 L869.565217,527.173913 Z M875,527.173913 L54.3478261,527.173913 L54.3478261,16.2903609 C54.3478261,7.29344302 61.6930854,0 70.6483056,0 L858.69952,0 C867.702027,0 875,7.31415486 875,16.2903609 L875,527.173913 L875,527.173913 L875,527.173913 Z"/>
    <path d="M929.347826 522L929.347826 543.742269C929.347826 552.745178 922.002507 560.043478 913.020601 560.043478L16.3272252 560.043478C7.30994773 560.043478.31044135e-17 552.737224.31044135e-17 543.742269L.31044135e-17 522 929.347826 522zM111.413043 40.7608696C111.413043 31.7562269 104.113338 24.4565217 95.1086957 24.4565217 86.104053 24.4565217 78.8043478 31.7562269 78.8043478 40.7608696 78.8043478 49.7655122 86.104053 57.0652174 95.1086957 57.0652174 104.113338 57.0652174 111.413043 49.7655122 111.413043 40.7608696L111.413043 40.7608696zM84.2391304 40.7608696C84.2391304 34.7577745 89.1056005 29.8913043 95.1086957 29.8913043 101.111791 29.8913043 105.978261 34.7577745 105.978261 40.7608696 105.978261 46.7639647 101.111791 51.6304348 95.1086957 51.6304348 89.1056005 51.6304348 84.2391304 46.7639647 84.2391304 40.7608696L84.2391304 40.7608696zM165.76087 40.7608696C165.76087 31.7562269 158.461164 24.4565217 149.456522 24.4565217 140.451879 24.4565217 133.152174 31.7562269 133.152174 40.7608696 133.152174 49.7655122 140.451879 57.0652174 149.456522 57.0652174 158.461164 57.0652174 165.76087 49.7655122 165.76087 40.7608696L165.76087 40.7608696zM138.586957 40.7608696C138.586957 34.7577745 143.453427 29.8913043 149.456522 29.8913043 155.459617 29.8913043 160.326087 34.7577745 160.326087 40.7608696 160.326087 46.7639647 155.459617 51.6304348 149.456522 51.6304348 143.453427 51.6304348 138.586957 46.7639647 138.586957 40.7608696L138.586957 40.7608696zM220.108696 40.7608696C220.108696 31.7562269 212.80899 24.4565217 203.804348 24.4565217 194.799705 24.4565217 187.5 31.7562269 187.5 40.7608696 187.5 49.7655122 194.799705 57.0652174 203.804348 57.0652174 212.80899 57.0652174 220.108696 49.7655122 220.108696 40.7608696L220.108696 40.7608696zM192.934783 40.7608696C192.934783 34.7577745 197.801253 29.8913043 203.804348 29.8913043 209.807443 29.8913043 214.673913 34.7577745 214.673913 40.7608696 214.673913 46.7639647 209.807443 51.6304348 203.804348 51.6304348 197.801253 51.6304348 192.934783 46.7639647 192.934783 40.7608696L192.934783 40.7608696z"/>
  </g>
</svg>
