<svg xmlns="http://www.w3.org/2000/svg" width="76" height="41" viewBox="0 0 76 41">
  <path fill="#0032D2" fill-rule="evenodd" d="M35.6961867,29.4729633 C35.6961867,30.3738297 35.6153733,31.371375 35.4537467,32.4653471 C35.2919933,33.5593193 34.9848267,34.5888808 34.5160333,35.5220154 C34.04724,36.4550241 33.3519667,37.2433294 32.4304667,37.8707972 C31.5089667,38.498265 30.3126,38.81994 28.82528,38.81994 C27.7906667,38.81994 26.94998,38.6429684 26.3033467,38.2891511 C25.6565867,37.9352078 25.13928,37.4685775 24.7836,36.9055203 C24.42792,36.342463 24.1692667,35.6989871 24.03994,34.9911005 C23.9106133,34.2670798 23.8298,33.5753274 23.8298,32.8997091 C23.8298,31.3230985 24.21778,30.0198864 24.9776533,28.9581826 C25.7374,27.9124869 26.83674,27.0919132 28.2756733,26.4967137 L33.33588,24.4857411 C34.7261733,23.9065497 35.59916,23.3273583 35.6961867,22.7321588 L35.6961867,29.4729633 Z M75.0622867,33.3823476 C74.78742,34.9106818 74.1730867,36.2620443 73.2030733,37.4364352 C72.23306,38.6108261 70.95588,39.2061516 69.3877467,39.2061516 C68.93504,39.2061516 68.48246,39.141741 67.9974533,38.9969116 C67.5285333,38.8522083 67.09204,38.5786838 66.67176,38.1281876 C66.2675667,37.6938256 65.9441867,37.0664838 65.6855333,36.2620443 C65.4430933,35.4576048 65.3137667,34.395901 65.3137667,33.1088231 L65.3137667,10.4732171 L74.9167467,10.4732171 L74.9167467,9.49193206 L65.3298533,9.49193206 L65.3298533,0 C64.8772733,0.370077453 64.4083533,0.627467835 63.90726,0.804439478 C63.40604,0.965276954 62.8240067,1.04582174 62.1450733,1.04582174 C61.3852,1.04582174 60.8354667,0.997545288 60.5283,0.900992383 C60.2050467,0.804439478 59.8816667,0.691878454 59.5099,0.547049096 L59.5099,9.49193206 L41.5000533,9.49193206 L41.5000533,10.4893513 L47.6273,10.4893513 L47.6273,39.1738833 L43.8765733,39.1738833 C43.1167,39.1738833 42.51858,38.6108261 42.0981733,38.1604559 C41.6941067,37.7099597 41.5000533,36.8412357 41.5000533,35.5380236 L41.5000533,18.7744981 C41.5000533,17.5679649 41.3222133,16.4095822 40.9665333,15.31561 C40.6108533,14.2216379 39.99652,13.2242186 39.1397467,12.3554946 C38.2828467,11.4867705 37.16742,10.778884 35.777,10.2641032 C34.3704933,9.74932245 32.6406067,9.49193206 30.57138,9.49193206 C28.85758,9.49193206 27.33796,9.70104599 26.0122667,10.1032657 C24.6865733,10.5053594 23.5872333,11.0524085 22.7142467,11.7602951 C21.84126,12.4681817 21.1784133,13.256487 20.7257067,14.1412191 C20.2731267,15.0422115 20.0467733,15.9752201 20.0467733,16.9727654 C20.0467733,17.8253553 20.2246133,18.5171077 20.5802933,19.0641568 C20.9359733,19.5950717 21.8574733,19.8684702 23.3447933,19.8684702 C24.2015667,19.8684702 24.8483267,19.6593563 25.3009067,19.2249943 C25.7536133,18.8067664 25.9799667,18.2758515 25.9799667,17.6483837 C25.9799667,17.2944404 25.91524,16.7475173 25.7859133,16.0074885 C25.6565867,15.2674596 25.5919867,14.5112966 25.5919867,13.7551336 C25.5919867,12.5968769 26.0769933,11.7441609 27.0470067,11.2293802 C28.01702,10.7145994 29.2456867,10.457083 30.7167933,10.457083 C31.8323467,10.457083 32.7376333,10.6180465 33.4166933,10.9237133 C34.0956267,11.2453883 34.61306,11.6958845 34.96874,12.3072181 C35.3242933,12.9185518 35.5830733,13.6425725 35.7124,14.4951624 C35.8255133,15.31561 35.9063267,16.280887 35.9063267,17.358851 C35.9063267,18.7102135 35.8093,19.7720434 35.59916,20.5603487 C35.4052333,21.348654 35.03334,21.99213 34.4837333,22.5069107 C33.9502133,23.0216915 33.19034,23.4560535 32.2203267,23.826131 C31.2503133,24.1800743 30.0216467,24.6144363 28.5504133,25.1132089 C27.2894467,25.5153026 26.0445667,25.9015142 24.7998133,26.2554575 C23.5549333,26.6092748 22.43938,27.0759051 21.42098,27.6389623 C20.4024533,28.2020196 19.5940667,28.9420484 18.96352,29.8911912 C18.3331,30.8243259 18.0259333,32.0952697 18.0259333,33.6557461 C18.0259333,34.3314904 18.12296,35.0553851 18.3331,35.8436904 C18.5270267,36.5998534 18.9151333,37.2755977 19.49704,37.8707972 C18.5917533,38.7556554 17.4439,39.2061516 16.0859067,39.2061516 C15.6332,39.2061516 15.1804933,39.141741 14.6956133,38.9969116 C14.2266933,38.8522083 13.6931733,38.5786838 13.28898,38.1281876 C12.8849133,37.6938256 12.5615333,37.0664838 12.3190933,36.2620443 C12.0765267,35.4576048 11.9472,34.4119091 11.9472,33.1088231 L11.9472,10.4732171 L21.6149067,10.4732171 L21.6149067,9.49193206 L11.9472,9.49193206 L11.9472,0.0322683338 C11.4944933,0.402219739 11.0257,0.65961012 10.52448,0.836581763 C10.0233867,0.997545288 9.44135333,1.07796403 8.77850667,1.07796403 C8.01863333,1.07796403 7.46902667,1.02968757 7.16186,0.933134668 C6.85469333,0.836581763 6.5151,0.72402074 6.14333333,0.595325549 L6.14333333,9.49193206 L0,9.49193206 L0,10.4893513 L6.14333333,10.4893513 L6.14333333,32.4813552 C6.14333333,34.9266899 6.80618,36.8251015 8.13187333,38.1604559 C9.45756667,39.4956843 11.8986867,40.1714286 15.27752,40.1714286 C16.6194267,40.1714286 17.7510667,39.9461805 18.6402667,39.5118185 C19.2383867,39.2221597 19.7556933,38.8843506 20.2084,38.4821309 C20.7581333,38.8843506 21.42098,39.2382939 22.2131533,39.5278266 C23.32858,39.9461805 24.8483267,40.1714286 26.7236267,40.1714286 C28.3887867,40.1714286 29.7629933,39.9783228 30.8300333,39.5922372 C31.8969467,39.2061516 32.77006,38.7395213 33.43278,38.176464 C34.07954,37.6134068 35.24348,36.229902 35.7609133,34.9106818 C36.1164667,36.5677111 36.7793133,37.854663 37.7493267,38.7717896 C38.71934,39.6887901 40.2713867,40.1552944 42.4377667,40.1552944 C42.69642,40.1552944 59.5099,40.1391602 59.5099,40.1391602 L59.5099,39.141741 L53.4149533,39.141741 L53.4149533,10.4732171 L59.5099,10.4732171 L59.5099,32.4813552 C59.5099,34.9266899 60.1727467,36.8251015 61.4983133,38.1604559 C62.8240067,39.4956843 65.18444,40.1714286 68.5632733,40.1714286 C69.9212667,40.1714286 71.0366933,39.9461805 71.9421067,39.5118185 C72.8473933,39.0774564 73.5749667,38.5142732 74.1407867,37.854663 C74.7066067,37.1790448 75.1268867,36.4872924 75.3856667,35.7472635 C75.6604067,35.0072347 75.85446,34.3476246 76,33.7362909 L75.0622867,33.3823476 Z M50.521114,7.11088197 C51.5073407,7.11088197 52.3479007,6.77307285 53.043174,6.06518627 C53.7383207,5.37343387 54.0940007,4.5368521 54.0940007,3.55544098 C54.0940007,2.57415591 53.7383207,1.73757415 53.043174,1.04582174 C52.3479007,0.353943286 51.5073407,0 50.521114,0 C49.5348873,0 48.6943273,0.353943286 47.999054,1.04582174 C47.3039073,1.73757415 46.9482273,2.57415591 46.9482273,3.55544098 C46.9482273,4.5368521 47.2878207,5.37343387 47.999054,6.06518627 C48.6943273,6.77307285 49.5348873,7.11088197 50.521114,7.11088197 Z"/>
</svg>
