<?xml version="1.0" encoding="UTF-8" standalone="no"?>
<svg width="100%" height="100%" viewBox="0 0 54 45" version="1.1" xmlns="http://www.w3.org/2000/svg" xmlns:xlink="http://www.w3.org/1999/xlink">
  <g stroke="none" stroke-width="1" fill="none" fill-rule="evenodd">
    <path d="M47.6191406,7.44335938 C49.9394531,6.07226562 51.6796875,3.88378906 52.4970703,1.29980469 C50.3876953,2.56542969 47.9882812,3.48828125 45.5097656,3.98925781 C43.4267578,1.87988281 40.5527344,0.508789062 37.3623047,0.508789062 C31.2451172,0.508789062 26.3144531,5.43945312 26.3144531,11.5566406 C26.3144531,12.4267578 26.3671875,13.3232422 26.5517578,14.1142578 C17.3759766,13.6132813 9.25488281,9.44726562 3.74414062,2.75 C2.82128906,4.38476562 2.24121094,6.07226562 2.24121094,8.12890625 C2.24121094,11.9257812 4.19238281,15.3007812 7.19824219,17.3046875 C5.37890625,17.2519531 3.69140625,16.7509766 2.18847656,15.9335938 L2.18847656,16.0654297 C2.18847656,21.4443359 6.01171875,25.9267578 11.0742188,26.9287109 C10.125,27.1923828 9.12304688,27.3242188 8.12109375,27.3242188 C7.43554688,27.3242188 6.75,27.2451172 6.06445312,27.1132812 C7.43554688,31.4902344 11.5751953,34.7597656 16.3740234,34.8125 C12.6298828,37.8183594 7.8046875,40.0595703 2.63671875,40.0595703 C1.74023438,40.0595703 0.870117188,40.0068359 0,39.875 C4.87792969,43.0126953 10.7578125,44.3837891 17.0068359,44.3837891 C37.3623047,44.3837891 48.4892578,27.5087891 48.4892578,12.875 L48.4892578,11.4248047 C50.625,9.86914062 52.4970703,7.94433594 54,5.67675781 C51.9960938,6.57324219 49.8867188,7.1796875 47.6191406,7.44335938 Z" id="twitter" fill="#151820"></path>
  </g>
</svg>
